<svg width="176" height="104" viewBox="0 0 176 104" fill="none" xmlns="http://www.w3.org/2000/svg">
<path d="M66.2248 81.902C65.2316 81.7129 64.2437 80.8983 65.0634 79.8999C65.2841 79.6634 65.6835 79.5268 65.9673 79.758C69.0572 80.6461 72.1524 81.6445 74.9638 83.2788C74.9691 83.2788 74.9638 83.2946 74.9638 83.2946C72.2522 83.1895 69.5302 82.8374 66.9079 82.1017C66.682 82.0387 66.456 81.9703 66.23 81.902H66.2248Z" fill="#050505"/>
<path d="M9.30177 71.1352C9.4384 70.5677 9.59605 70.0053 9.74844 69.4431C9.94813 68.6916 10.1426 67.9402 10.3423 67.1835C10.7889 65.4862 11.2882 63.8046 11.7769 62.123C12.8752 58.35 14.0313 54.6033 15.1768 50.8513C16.3592 46.9784 17.5153 43.095 18.6294 39.2064C19.7224 35.3914 20.7997 31.5763 21.8875 27.7613C21.982 27.425 22.1502 27.1254 22.4182 26.8942C22.5233 26.7996 22.723 26.6788 22.8649 26.7681C22.9437 26.8154 22.9963 26.9152 23.033 26.9941C23.1276 27.2148 23.1539 27.4565 23.1329 27.6982C23.1119 27.9452 23.033 28.1817 22.9647 28.4181C22.8859 28.6914 22.8123 28.9647 22.7335 29.2379C22.4603 30.1785 22.1922 31.1244 21.919 32.065C21.362 34.0041 20.8049 35.9432 20.2479 37.8822C19.1601 41.692 18.0934 45.5071 17.0634 49.3326C16.0282 53.1844 15.0244 57.0468 13.9577 60.8934C13.448 62.7221 12.933 64.5455 12.4075 66.369C11.9923 67.8088 11.5351 69.2329 11.099 70.6675C11.0044 70.967 10.9203 71.2718 10.8205 71.5713C10.6996 71.9707 10.3738 72.3648 9.92186 72.3228C9.87982 72.3228 9.83778 72.3123 9.801 72.3018C9.32805 72.1704 9.21769 71.5765 9.31754 71.1509L9.30177 71.1352Z" fill="#050505"/>
<path d="M80.8857 33.4318C79.4669 33.0377 78.0427 32.6383 76.5714 32.7067C76.5661 32.7172 76.5556 32.7329 76.5503 32.7434C76.4978 32.7277 76.44 32.7119 76.3874 32.7014C76.2088 32.6541 76.0301 32.6121 75.8462 32.5701C75.7516 32.549 75.6517 32.5227 75.5571 32.507C75.4363 32.4807 75.3154 32.4544 75.1945 32.4439C75.1578 32.4439 75.121 32.4334 75.0789 32.4282C74.9055 31.3877 75.5466 29.6851 75.6097 28.8759C75.9828 27.0261 76.3769 25.1764 76.75 23.3267C77.0811 21.7239 77.3859 20.1159 77.7432 18.5184C77.9587 17.9352 77.9114 16.737 78.6523 16.6424C78.8205 16.469 79.0465 16.3797 79.3092 16.4533C82.1994 17.0996 85.1475 17.5621 88.0482 18.1716C88.2795 18.2189 88.5107 18.2662 88.7314 18.3345C89.362 18.529 89.3777 19.4486 88.9153 19.8269C88.9153 19.8532 88.9153 19.8742 88.9048 19.9005C88.8365 20.5731 88.7472 21.2405 88.6473 21.9079C88.2374 24.7613 87.8853 27.6252 87.2915 30.4471C86.9184 31.4718 86.9762 34.3672 85.4575 34.1465C85.3734 34.1255 85.2999 34.0887 85.2316 34.0414C85.1265 34.115 85.0003 34.1623 84.8637 34.1728H84.8427C83.5027 34.1728 82.1942 33.8049 80.8909 33.4424L80.8857 33.4318ZM82.4727 19.9057C82.6304 19.9057 82.7722 19.932 82.8931 19.9688C83.529 20.1475 83.7812 20.6887 83.5395 21.4349C82.9719 24.3041 82.8563 27.2416 82.2783 30.1055C82.1784 30.6205 82.1259 31.2721 81.6687 31.5979C82.746 31.8869 83.8232 32.1549 84.9268 32.2022C84.9741 32.2022 85.0109 32.2022 85.0582 32.2127C86.1302 28.0929 86.8554 23.973 87.5648 19.8006C86.2878 19.5221 84.9951 19.2962 83.7129 19.0439C82.2625 18.6551 80.4233 18.571 79.0149 18.0665C78.9151 18.592 78.8152 19.1175 78.7154 19.643C78.7627 19.6325 78.8205 19.622 78.8678 19.6167C79.0465 19.601 79.2199 19.5957 79.3985 19.5957C80.4233 19.5957 81.4532 19.7954 82.4622 19.9057H82.4727Z" fill="#050505"/>
<path d="M55.0931 12.427C55.0931 12.427 55.0775 12.4114 55.0672 12.4062C55.0879 12.4166 55.1035 12.4322 55.1242 12.4426C55.1138 12.4374 55.1035 12.4322 55.0931 12.427Z" fill="#050505"/>
<path d="M94.4908 97.4727C93.6395 97.4622 92.7829 97.4412 91.9263 97.4044C89.241 97.2836 86.561 97.0786 83.8862 96.8579C70.0236 95.9646 56.287 93.994 42.5768 91.8552C37.0696 91.0355 31.5676 90.1106 26.1234 88.9335C24.4523 88.5657 22.7865 88.2084 21.1312 87.8142C21.0997 87.809 21.0681 87.7984 21.0366 87.7879C20.7633 87.7144 20.5216 87.5777 20.385 87.3097C20.364 87.2677 20.3482 87.2257 20.3272 87.1836C19.912 87.3886 19.3918 87.3938 18.8505 87.0522C13.7269 84.7926 8.66637 82.4122 4.12607 79.0859C3.31154 78.3554 1.3672 77.9403 1.5196 76.6371C1.4723 76.6371 1.41975 76.6265 1.3672 76.616C1.34618 76.6108 1.31465 76.5951 1.28838 76.5898C1.00986 76.4847 0.831192 76.2272 0.762877 75.9434C0.715582 75.7227 0.731349 75.502 0.789153 75.2971C0.789153 75.2971 0.783896 75.2971 0.778641 75.2971C0.810171 75.1604 0.857469 75.029 0.888999 74.8924C0.894254 74.8714 0.899506 74.8452 0.910016 74.8189C0.931036 74.7401 0.962569 74.656 0.999353 74.5771C1.18853 73.9465 1.36195 73.3054 1.54587 72.6696C1.81913 71.7237 2.09765 70.7778 2.3709 69.832C2.95946 67.8088 3.56378 65.7963 4.16285 63.7784C5.34522 59.7899 6.51183 55.7962 7.67844 51.7972C8.85555 47.7509 10.0222 43.7047 11.1993 39.6637C12.3816 35.5806 13.585 31.5133 14.7779 27.4355C15.3717 25.4019 15.9603 23.3735 16.5594 21.3451C16.4963 21.1769 16.4753 20.993 16.5121 20.8196C16.5594 20.4728 16.7118 20.2468 16.9272 20.1155C17.4054 18.4707 17.8941 16.8259 18.3776 15.1811C18.7349 13.9935 19.0817 12.8111 19.4338 11.6235C19.4706 11.5079 19.5021 11.3871 19.5389 11.2715C19.6493 11.2032 19.7334 11.0981 19.7649 10.9667C19.891 10.457 20.0119 9.94198 20.1485 9.43226C20.1643 9.40599 20.1853 9.37447 20.2063 9.3482C20.1958 9.34294 20.1853 9.33767 20.18 9.33242C20.2484 9.08018 20.3167 8.82795 20.3955 8.58097L20.3745 8.64403C20.4638 8.35501 20.5637 8.07651 20.6898 7.80326C20.695 7.78749 20.7055 7.77171 20.7108 7.75595C20.7266 7.7612 20.7423 7.76645 20.7581 7.77696C22.6184 8.24464 24.631 8.20786 26.5438 8.43908C27.1587 8.43908 27.8155 8.5547 28.32 8.88576C28.9401 7.20945 29.639 5.44906 30.1803 3.86209C30.3169 3.57832 30.5271 2.72702 30.8109 2.01236C30.7373 1.53416 31.0001 1.12952 31.4099 1.01391C31.5623 0.903561 31.72 0.882541 31.8934 1.01391C31.9617 1.03493 32.0353 1.05597 32.1036 1.09275C36.1552 2.01236 40.0439 3.46795 44.0009 4.6976C46.723 5.50685 49.4556 6.26881 52.1881 7.02551C52.2617 6.54206 52.6401 6.0271 53.0762 5.89573C52.9764 5.78012 52.9133 5.64348 52.8713 5.49109C52.8293 4.18788 54.101 4.55047 55.0784 4.83423C55.3201 4.90254 55.5513 4.97086 55.73 5.00239C58.4679 5.71706 61.2162 6.39493 63.933 7.16214C71.2427 9.37971 78.5156 11.7391 85.9199 13.6257C87.7959 14.0933 89.6562 14.5978 91.5427 14.9972C92.0892 15.1023 92.6147 15.4386 92.7093 15.9378C93.2191 15.4071 93.96 16.0009 93.7235 16.705C93.5659 17.1517 93.4871 17.6299 93.3977 18.0345C93.382 18.0923 93.3662 18.1606 93.3399 18.2447C93.445 18.2447 93.5554 18.2815 93.6657 18.3551C96.0725 19.2169 98.5529 19.8685 101.044 20.4885C101.044 20.478 101.044 20.4728 101.044 20.4623C101.306 19.2221 101.065 17.467 102.3 16.7313C103.119 16.3582 104.071 16.6052 104.917 16.7418C107.597 17.3041 110.245 18.045 112.852 18.8805C113.319 19.0802 113.33 19.7739 113.22 20.1733C112.946 21.3293 112.626 22.4329 112.342 23.5364C113.283 23.7729 114.239 23.9936 115.185 24.2038C115.952 24.2405 116.357 24.8974 116.068 25.5648C116.204 25.6646 116.309 25.838 116.341 26.0903C116.073 30.0787 114.864 33.9936 114.228 37.9506C113.288 43.4419 111.948 48.844 110.371 54.1935C110.371 54.204 110.366 54.2144 110.361 54.225C112.384 58.8335 112.699 63.978 111.853 68.8966C111.438 71.3349 110.697 73.6996 109.741 75.9802C108.763 78.2924 107.513 80.4837 106.004 82.491C104.533 84.4511 102.809 86.222 100.86 87.7144C99.6301 88.655 98.3164 89.4695 96.9291 90.1211C96.9869 90.2105 97.0184 90.326 97.0342 90.4627C97.071 91.0617 96.8292 91.6398 96.7189 92.2284C96.4982 93.148 96.267 94.0623 96.041 94.9819C96.0883 94.9819 96.1408 94.9924 96.1881 94.9976C96.083 95.4285 95.9832 95.8647 95.8781 96.3009V96.3114C95.8781 96.3324 95.8676 96.3482 95.8676 96.364C95.7835 96.7423 95.6942 97.1259 95.6101 97.5042C95.4104 97.5042 95.2107 97.499 95.011 97.4937C94.9322 97.5252 94.8533 97.5463 94.764 97.5463C94.6747 97.5463 94.5854 97.5253 94.4908 97.4833V97.4727ZM92.4781 47.0363C91.6268 47.2097 90.7965 47.4409 89.982 47.7194C89.1307 48.0347 88.3109 48.3973 87.5121 48.8229C86.7239 49.2696 85.9619 49.753 85.2315 50.289C84.4432 50.8934 83.6865 51.5345 83.0454 52.1598C82.357 52.8377 81.7106 53.5523 81.1011 54.2985C80.4337 55.1446 79.8188 56.0116 79.2513 56.9207C78.6312 57.9349 78.0794 58.9859 77.575 60.0684C77.1598 60.9932 76.792 61.9339 76.4714 62.9008C76.0983 64.0726 75.7935 65.2497 75.5833 66.2849C75.3942 67.3044 75.247 68.3291 75.1524 69.3643C75.0683 70.4941 75.0473 71.6186 75.0894 72.7484C75.1367 73.6523 75.226 74.5561 75.3574 75.4547C75.515 76.3743 75.7042 77.294 75.9249 78.0402C75.9512 78.1085 75.9669 78.182 75.9827 78.2293L76.0195 78.3554C76.2665 79.1384 76.545 79.9004 76.8656 80.6518H76.8708L76.8918 80.6938C77.2492 81.4663 77.6433 82.2073 78.0847 82.9377C78.5051 83.5893 78.9623 84.2041 79.4352 84.7769C79.945 85.3602 80.4915 85.9014 81.0695 86.4164C81.7001 86.9261 82.3518 87.3886 83.0402 87.809C83.7128 88.1873 84.4117 88.5184 85.1264 88.8022C85.9619 89.0964 86.8027 89.3171 87.6803 89.4643C88.4475 89.5694 89.2148 89.6166 89.9925 89.6114C90.8701 89.5798 91.7214 89.48 92.5832 89.3224C93.3242 89.1647 94.0388 88.9598 94.7115 88.7338C94.7956 88.7023 94.8849 88.6707 95.0215 88.6234C95.8413 88.3187 96.6243 87.9298 97.3968 87.5252C98.2586 87.0365 99.0836 86.4952 99.8141 85.9645C99.8456 85.9435 99.8719 85.9225 99.8929 85.9014H99.9034C100.602 85.3497 101.264 84.7769 101.906 84.1673C102.631 83.4369 103.314 82.6749 103.96 81.8814C104.57 81.0932 105.137 80.2787 105.673 79.4326C106.267 78.4605 106.803 77.4621 107.287 76.4426C107.697 75.5283 108.064 74.6034 108.385 73.6575C108.732 72.5698 109.021 71.4663 109.252 70.3522C109.441 69.3643 109.594 68.3606 109.683 67.3569C109.772 66.2429 109.788 65.1236 109.762 64.2198C109.72 63.1267 109.609 62.0442 109.446 60.967C109.284 60.0316 109.073 59.1068 108.816 58.1924C108.564 57.3569 108.264 56.5371 107.917 55.7278C107.581 54.9869 107.192 54.2617 106.761 53.5734C106.73 53.5208 106.698 53.4682 106.661 53.4209C106.42 53.0531 106.33 52.6117 106.383 52.1861C106.241 52.0074 106.094 51.8287 106.031 51.7552C105.479 51.1193 104.896 50.5255 104.26 49.9738C103.629 49.4588 102.972 48.9911 102.268 48.5759C101.553 48.1766 100.813 47.8455 100.045 47.5618C99.7615 47.4619 99.4777 47.3726 99.194 47.2937C98.6948 47.1519 98.1903 47.0415 97.6858 46.9574C97.6753 46.9574 97.6595 46.9574 97.6543 46.9574C96.8397 46.8366 96.02 46.7735 95.1897 46.7735H95.1056C94.228 46.7945 93.3662 46.8839 92.4991 47.0363H92.4781ZM76.3611 39.3063C76.072 39.4114 75.7778 39.506 75.494 39.6058C74.9107 39.816 74.3484 40.0578 73.7914 40.3258C73.0136 40.7146 72.2727 41.1561 71.5422 41.629C70.6331 42.2543 69.7661 42.9375 68.9305 43.6679C68.0109 44.5034 67.1333 45.3862 66.3083 46.3216C65.4097 47.3673 64.5689 48.4603 63.8279 49.5323C63.8069 49.5639 63.7859 49.5954 63.7649 49.6269V49.6374C63.0239 50.7462 62.346 51.8865 61.7575 53.0006C61.747 53.0216 61.7312 53.0426 61.7207 53.0689C61.1216 54.2618 60.5856 55.4704 60.1074 56.7105C59.5924 58.0925 59.1563 59.5009 58.7937 60.9355C58.4941 62.2071 58.2576 63.484 58.0895 64.7768C57.9529 65.9591 57.874 67.1467 57.8635 68.3291C57.8688 69.2907 57.9213 70.2419 58.0212 71.193C58.1315 72.0653 58.2839 72.9324 58.4836 73.7942C58.6728 74.5246 58.8988 75.2445 59.1615 75.9539C59.4295 76.6108 59.7238 77.2571 60.0654 77.8825C60.3702 78.4132 60.7065 78.9177 61.0743 79.4012C61.479 79.9161 61.9204 80.3891 62.3986 80.841C62.7927 81.1826 63.2131 81.5031 63.6493 81.7973C64.1853 82.1337 64.7476 82.4279 65.3256 82.6644C65.3256 82.6644 65.3291 82.6644 65.3361 82.6644C65.4255 82.6907 65.5148 82.7275 65.6094 82.7643C65.7986 82.8221 65.9299 82.9377 66.0298 83.0796C69.9763 84.2094 73.9228 85.3129 77.8482 86.5162C77.906 86.532 77.9586 86.5478 78.0164 86.5688C76.3453 84.6455 75.1419 82.3386 74.3484 79.9266C70.444 79.8215 66.5553 79.2014 62.7717 78.2503C62.057 78.0243 62.1674 76.8368 62.8768 76.6949C63.3602 76.553 64.0591 76.7684 64.4848 76.8105C67.7954 77.42 71.0956 78.4027 74.2328 79.5745C73.907 78.5183 73.6548 77.4411 73.4813 76.3743C73.4708 76.3113 73.4603 76.2482 73.4498 76.1852C73.4498 76.1852 73.4498 76.1694 73.4498 76.1641C73.4446 76.1221 73.4393 76.08 73.4288 76.038C73.392 75.8068 73.3605 75.5756 73.3289 75.3391C70.218 75.3549 67.023 74.8662 64.0066 74.0307C62.9293 73.6944 61.81 73.4211 60.7538 73.027C59.9655 72.5961 60.2493 71.235 61.0743 71.0143C65.2993 71.7395 69.3036 73.5209 73.3027 75.0606C73.0347 72.8168 73.0662 70.5361 73.3605 68.287C69.3194 68.2765 65.1469 67.9613 61.2267 66.8683C60.5383 66.7421 60.491 65.7699 60.9535 65.3653C61.3213 64.9659 61.8521 65.2812 62.2987 65.3285C66.0403 66.0117 69.7818 66.7526 73.4025 67.9349C73.6337 66.3217 73.9911 64.7348 74.4745 63.1846C70.3441 62.9113 66.2242 62.3543 62.2199 61.3401C61.3528 61.256 61.4317 59.853 62.2462 59.7741C63.1921 59.8372 64.1327 60.0526 65.0734 60.2208C68.2947 60.8566 71.5265 61.8761 74.4745 63.1793C74.6427 62.6275 74.8319 62.081 75.0263 61.545C75.4204 60.4836 75.8724 59.4431 76.3768 58.4236C71.8733 58.1924 67.4434 57.504 63.1133 56.2902C62.5667 56.2113 62.3881 55.5334 62.5247 55.0605C62.6403 54.5665 63.1973 54.0725 63.7071 54.33C68.0424 55.3074 72.362 56.637 76.5292 58.1188C77.3858 56.4373 78.4 54.8398 79.5508 53.3474C75.1262 53.1161 70.6699 52.3332 66.3608 51.2717C65.5463 51.051 64.201 51.0562 64.4112 49.8529C64.4795 49.3274 64.984 48.7388 65.5568 48.9017C65.7618 48.9701 65.9825 49.0069 66.1927 49.0542C70.8223 50.0053 75.2943 51.5397 79.7558 53.0899C80.749 51.834 81.8473 50.6621 83.0507 49.5901C78.6785 49.0752 74.3537 48.124 70.1287 46.8734C69.9447 46.7893 69.703 46.7315 69.4613 46.6789C68.8464 46.5371 68.1843 46.3847 68.2053 45.6963C68.2894 44.7714 68.9936 44.7346 69.7083 45.0394C74.3064 46.1745 78.9202 47.5828 83.2766 49.3904C83.7653 48.9648 84.2751 48.5707 84.7375 48.2239C85.8358 47.4094 87.0182 46.6789 88.2584 46.0746C84.0176 45.4913 79.8136 44.6663 75.6989 43.4735C75.5413 43.4209 75.3784 43.3789 75.2102 43.3368C74.5534 43.1687 73.9017 43.011 74.0384 42.1755C74.2065 40.9931 75.4993 41.34 76.319 41.5291C78.4263 42.0179 80.4967 42.6589 82.5304 43.3788C84.5956 44.125 86.6976 44.9606 88.684 45.8749C89.9137 45.3021 91.2011 44.8502 92.5201 44.5665C87.3019 42.7378 81.9786 41.2138 76.7604 39.3746C76.6553 39.3378 76.545 39.3116 76.4294 39.2748C76.4084 39.2853 76.3873 39.2906 76.3663 39.3011L76.3611 39.3063ZM14.7411 33.1949C13.6061 37.2096 12.4657 41.2244 11.3149 45.2338C10.143 49.3221 8.97641 53.4157 7.81506 57.5145C6.67999 61.503 5.57119 65.4967 4.44662 69.4852C4.39933 69.6586 4.35203 69.832 4.29948 70.0054C4.48866 70.0737 4.6831 70.1946 4.86702 70.3732C7.29482 71.7815 9.89078 72.8483 12.4289 74.0411C16.4595 76.0222 21.0366 76.7264 25.0987 78.5393C25.9815 78.6549 26.8644 78.7653 27.7472 78.8862C33.0337 79.543 38.2835 80.4153 43.5805 81.0039C47.2327 81.3717 50.8902 81.8447 54.4846 82.5383C57.091 82.9797 59.7133 83.2792 62.3303 83.626C61.563 83.1058 60.8484 82.4753 60.2388 81.7764C59.5399 80.9724 58.925 80.1105 58.41 79.1752C57.9213 78.2818 57.5272 77.3518 57.1909 76.3954C56.5393 74.5456 56.203 72.5645 56.0663 70.6097C55.935 68.6181 56.0085 66.6108 56.2713 64.6349C56.4552 63.2581 56.7179 61.9076 57.049 60.5624C58.0212 56.6738 59.645 52.9533 61.7207 49.5218C62.7559 47.8035 63.9488 46.1745 65.2783 44.6716C66.5868 43.1949 68.0319 41.8234 69.6347 40.6726C70.7487 39.8686 71.9154 39.1539 73.1608 38.5601C73.7809 38.2606 74.4167 37.9978 75.0683 37.7666C75.1577 37.7404 75.247 37.7036 75.3416 37.6773C72.6405 37.136 69.9395 36.6 67.2437 36.0535C63.6072 35.3126 59.9813 34.5769 56.3501 33.8255C52.6716 33.074 48.9879 32.3173 45.3094 31.5553C43.5174 31.1822 41.7255 30.8092 39.9335 30.4308C39.0349 30.2416 38.1258 30.0472 37.222 29.8475C36.8751 29.7739 36.5178 29.6899 36.171 29.5953C35.2776 33.1161 34.379 36.6316 33.5067 40.1629C32.4925 44.2722 31.4993 48.392 30.4956 52.5013C29.4971 56.5634 28.5144 60.6307 27.516 64.6875C27.0798 66.4531 26.6437 68.2187 26.2023 69.9844C25.8291 71.4662 25.4403 72.9481 25.0777 74.4405C25.0672 74.5246 25.0514 74.6087 25.0356 74.6612C24.9989 74.7558 24.9883 74.8609 24.9516 74.9555C24.7939 75.4389 24.3157 75.9434 23.7797 75.7963C23.7324 75.7858 23.6746 75.7595 23.6273 75.7385C23.2017 75.5231 23.1018 75.0396 23.1754 74.6034C23.1754 74.6034 23.1754 74.6034 23.1649 74.6034C23.1859 74.5036 23.2122 74.3985 23.2279 74.2986C23.249 74.1883 23.2805 74.0779 23.3278 73.9728C23.5064 73.2792 23.6641 72.5855 23.8375 71.8972C24.074 70.9618 24.3052 70.0317 24.5417 69.1016C25.0409 67.1468 25.5401 65.1867 26.0446 63.2371C27.0903 59.1856 28.1466 55.1341 29.1923 51.0825C30.2696 46.9417 31.3521 42.8061 32.4084 38.6652C33.1914 35.6174 33.9481 32.559 34.7101 29.5007C28.9874 27.3094 23.4224 24.7345 17.8836 22.1281C16.8379 25.817 15.7816 29.506 14.7411 33.1896V33.1949ZM107.775 50.6569H107.896C107.97 50.6674 108.038 50.6779 108.101 50.6937C108.411 50.7778 108.642 51.0142 108.816 51.2927C108.853 51.3505 108.889 51.4031 108.921 51.4609C108.968 51.5239 109.005 51.5975 109.042 51.6658C109.115 51.7867 109.189 51.9128 109.257 52.0389C109.925 49.6216 110.534 47.1834 111.107 44.7346C111.097 44.7346 111.081 44.7346 111.07 44.7346V44.7399C111.044 44.7294 111.012 44.7294 110.997 44.7241C107.402 44.0567 103.824 43.3473 100.245 42.6379C96.577 41.9127 92.9143 41.1771 89.2463 40.4466C87.8064 40.1629 86.3613 39.8739 84.9214 39.5848C90.1239 41.0299 95.3421 42.4961 100.14 44.8818C103.219 45.9065 105.894 47.9979 107.781 50.6516L107.775 50.6569ZM88.2478 38.1397C89.1885 38.3289 90.1291 38.5128 91.075 38.6915C94.7167 39.4114 98.3584 40.1366 102 40.867C103.65 41.1981 105.3 41.5291 106.95 41.8707C108.427 42.1755 109.914 42.454 111.386 42.7798C111.407 42.7903 111.433 42.7903 111.459 42.8008C111.459 42.8008 111.47 42.8008 111.475 42.8061C111.485 42.8061 111.496 42.8061 111.501 42.8061C111.522 42.8061 111.533 42.8166 111.548 42.8218C112.81 37.2569 113.908 31.6447 115.064 26.1271C114.728 26.085 114.37 25.9589 114.06 25.9011C111.133 25.3178 108.301 24.4034 105.442 23.5732C104.018 23.1528 102.578 22.7639 101.144 22.3803C98.6054 21.7024 96.062 21.0245 93.5922 20.126C93.3925 20.0524 93.1875 19.9841 93.0036 19.8685C92.1103 24.5874 90.1659 36.0168 88.2426 38.1345L88.2478 38.1397ZM75.7515 17.0519C75.6779 17.5511 75.5938 18.0398 75.515 18.5337C75.3416 19.6057 75.1629 20.6777 74.9843 21.7497C74.6374 23.8254 74.2906 25.8958 73.9438 27.9663C73.5654 30.2574 73.2291 32.559 72.7824 34.8396C72.7719 34.9132 72.7509 34.9868 72.7246 35.0604C75.1472 35.5386 77.5697 36.0168 79.9923 36.495C82.3045 36.9521 84.6114 37.4093 86.9183 37.8665C86.582 37.0309 87.4859 35.9012 87.6593 35.0604C88.2689 33.1266 88.8259 31.1718 89.3777 29.2169C90.5495 25.1917 91.0488 20.9457 92.3099 16.9625C92.0945 17.1412 91.816 17.2305 91.548 17.0886C91.096 16.8522 90.5916 16.7628 90.0871 16.6683C89.7455 16.6052 89.4039 16.5421 89.0834 16.437C82.6092 14.8974 76.1666 13.1895 69.8081 11.2242C65.168 9.67397 60.4753 8.30244 55.7931 6.88888C55.1572 6.68394 54.5161 6.50529 53.8908 6.28458C54.0169 6.63141 53.9223 7.07805 53.6963 7.41437C56.4972 8.19209 59.2929 8.95932 62.0885 9.75806C62.6771 9.92096 62.8347 10.6514 62.6876 11.1769C62.6666 11.2399 62.6508 11.3083 62.6193 11.3661C62.6403 11.3766 62.6508 11.3871 62.6718 11.3923C63.2026 11.571 63.7386 11.7181 64.2746 11.8705C67.6325 12.9268 71.043 13.8884 74.3326 15.1075C74.5376 15.2284 74.7373 15.365 74.9159 15.5227C74.9265 15.5174 74.9422 15.5122 74.9527 15.5069C75.0736 15.4544 75.226 15.4386 75.3521 15.4754C75.4152 15.4911 75.4677 15.5174 75.515 15.5594C75.8408 15.8274 75.8513 16.2374 75.804 16.6315C75.7883 16.7733 75.762 16.91 75.7462 17.0361L75.7515 17.0519ZM45.5564 29.816C49.0299 30.4676 52.4929 31.1402 55.9455 31.8129C55.9717 31.8129 55.998 31.8233 56.0243 31.8286C56.0348 31.8286 56.0453 31.8339 56.0453 31.8339C56.5182 31.9179 56.9859 32.0125 57.4431 32.1019C57.4747 32.1071 57.5114 32.1124 57.543 32.1229H57.5535C57.7374 32.1597 57.9213 32.1912 58.1053 32.228C58.121 32.228 58.1315 32.2385 58.1473 32.2385C58.1631 32.2385 58.1736 32.2437 58.1841 32.2437C61.7995 32.9269 65.4097 33.631 69.0199 34.3457C69.6084 34.456 70.1865 34.5717 70.775 34.6873C70.775 34.6768 70.7803 34.6663 70.775 34.661C70.775 34.6137 70.7855 34.5769 70.8013 34.5349C70.8538 34.2616 70.8906 33.9779 70.9379 33.7046C71.0062 33.3157 71.0798 32.9321 71.1586 32.5485C71.558 30.5779 71.9521 28.6021 72.3357 26.6262C72.6931 24.7713 73.0609 22.9216 73.4235 21.0613C73.6075 20.1207 73.7914 19.1853 73.9753 18.2447C74.0594 17.8138 74.1435 17.3724 74.2381 16.9415C73.6758 16.9415 73.1135 16.8311 72.5827 16.6157C69.1933 15.5384 65.8564 14.3403 62.4669 13.2683C62.2462 13.1948 62.0255 13.1265 61.8573 12.9898C61.7522 13.5889 61.5578 14.1879 61.521 14.7765C61.2004 16.0009 61.5105 17.4775 60.7695 18.5443C60.1232 19.1118 59.109 19.0855 58.2104 19.0592C57.8425 19.0487 57.4852 19.0382 57.1856 19.0697C53.0184 19.2169 49.0246 18.3761 45.0992 17.1254C39.5604 15.5752 34.1425 13.6782 29.0452 10.9982C28.4724 11.261 28.0783 10.8406 27.9837 10.3309C27.826 10.3887 27.6737 10.4254 27.5107 10.4464C25.456 10.2993 23.3435 10.0523 21.3046 9.63195C21.3046 9.85265 21.2573 10.0733 21.2048 10.273C21.1995 10.273 21.1943 10.273 21.1837 10.273C21.0471 10.273 20.942 10.4097 20.9473 10.5358C20.9525 10.6199 20.9946 10.6882 21.0576 10.7302C21.0576 10.7407 21.0576 10.7565 21.0576 10.767C21.0576 10.7828 21.0576 10.7933 21.0576 10.809C20.9788 11.0981 20.9 11.3923 20.8211 11.6814C20.5479 12.6745 20.2694 13.6624 19.9856 14.6556C19.4706 16.5053 18.9504 18.3551 18.4301 20.1943C18.4301 20.1943 18.4354 20.1943 18.4406 20.1995C22.6184 22.0703 26.775 24.1039 31.0631 25.6804C32.4609 26.2111 33.8693 26.7366 35.2618 27.2884L35.5246 26.2427C35.9923 24.3772 36.46 22.5169 36.9277 20.6567C37.1642 19.7318 37.3954 18.807 37.6318 17.8821C37.7527 17.425 37.8631 16.973 37.9892 16.5106C38.089 16.1375 38.1679 15.6751 38.4884 15.4281C38.6671 15.2914 38.8825 15.2442 39.0717 15.2967C39.2294 15.3387 39.366 15.4491 39.4396 15.6225C39.6392 16.0482 39.4501 16.5579 39.345 16.9888C39.2294 17.467 39.1085 17.9399 38.9929 18.4129C38.7354 19.4271 38.4832 20.4465 38.2257 21.4607C37.7054 23.5364 37.1747 25.6173 36.6492 27.6983C36.6124 27.8401 36.5756 27.9768 36.5441 28.1187C36.5546 28.1344 36.5598 28.1449 36.5598 28.1607C36.5808 28.1607 36.6071 28.1659 36.6229 28.1712C37.0906 28.2448 37.553 28.3236 38.0155 28.4077C38.9876 28.5811 39.9651 28.765 40.9004 28.9384C41.1159 28.9805 41.3261 29.0225 41.4417 29.0435C41.6887 29.0856 41.9304 29.1276 42.0723 29.1591L42.2194 29.1854C42.3561 29.2117 42.4927 29.2379 42.6136 29.259C42.6661 29.2695 42.7187 29.28 42.7502 29.2853C42.7817 29.2853 42.8133 29.2957 42.8343 29.301H42.8448C42.8763 29.3115 42.9026 29.3115 42.9236 29.3168C43.1075 29.3536 43.2915 29.3851 43.3755 29.4008L43.4859 29.4219C43.5227 29.4324 43.57 29.4376 43.5805 29.4429C43.6908 29.4639 43.8065 29.4849 43.817 29.4849C43.901 29.5059 43.9904 29.5165 44.0534 29.5322C44.127 29.5427 44.2006 29.5585 44.2584 29.569C44.3635 29.59 44.4686 29.6111 44.4791 29.6111C44.5789 29.6321 44.684 29.6478 44.7523 29.6636C44.7839 29.6688 44.8154 29.6741 44.8312 29.6794C44.8522 29.6794 44.8732 29.6899 44.889 29.6899C44.8995 29.6899 44.9047 29.6899 44.9153 29.6899C44.9415 29.6899 44.9678 29.7004 44.9731 29.7004H44.9783C45.2043 29.7424 45.4302 29.7897 45.5616 29.8107L45.5564 29.816ZM59.0091 12.396C58.8567 12.4748 58.7464 12.5694 58.6675 12.7218C58.594 12.8742 58.5519 13.0371 58.5099 13.2C58.4731 13.3682 58.4363 13.5363 58.41 13.7045C58.347 14.1196 58.2839 14.5348 58.2314 14.9552C58.1946 15.2915 58.4468 15.5963 58.7516 15.6856C58.7989 15.6961 58.841 15.7066 58.8882 15.7066C59.2771 15.7329 59.5977 15.4334 59.6397 15.055C59.6607 14.8395 59.6923 14.6136 59.7133 14.3981C59.7133 14.3981 59.7133 14.3981 59.7133 14.3929C59.7133 14.3929 59.7133 14.3824 59.7133 14.3771C59.7133 14.3771 59.7133 14.3754 59.7133 14.3719C59.7133 14.3719 59.7133 14.3666 59.7133 14.3614C59.7133 14.3614 59.7133 14.3403 59.7133 14.3351C59.7133 14.3351 59.7133 14.3298 59.7133 14.3246C59.7396 14.1196 59.7711 13.9199 59.8026 13.7202C59.9708 13.5678 60.0706 13.3314 60.0181 13.0949C59.9918 12.9635 59.955 12.8322 59.9025 12.7113C59.8236 12.5326 59.6607 12.4065 59.4716 12.354C59.4085 12.3382 59.3454 12.3277 59.2771 12.3277C59.1773 12.3277 59.0774 12.3487 58.9933 12.396H59.0091ZM54.7211 11.5132C54.7 11.6236 54.7 11.7339 54.7211 11.8337V11.8443C54.6002 12.601 54.4688 13.3472 54.3532 14.1039C54.2849 14.5558 54.5371 14.9972 54.9785 15.1233C54.9996 15.1286 55.0206 15.1338 55.0416 15.1443C55.504 15.2337 55.998 14.9289 56.0768 14.4507C56.1872 13.7886 56.3028 13.1265 56.4132 12.4591C56.4552 12.1701 56.5288 11.8495 56.4762 11.5605C56.4132 11.2399 56.1819 10.9614 55.8666 10.8563C55.8561 10.8563 55.8404 10.8458 55.8246 10.8458C55.7458 10.8248 55.6669 10.8143 55.5881 10.8143C55.1835 10.8143 54.8051 11.098 54.7158 11.5184L54.7211 11.5132ZM48.2417 9.8106C47.9421 10.4464 47.816 11.1559 47.6899 11.839C47.6216 12.2016 47.5795 12.5747 47.5427 12.9478C47.506 13.3209 47.4692 13.694 47.4639 14.0671C47.4587 14.4034 47.6583 14.7029 47.9736 14.7923C48.0157 14.8028 48.063 14.8133 48.1103 14.8185C48.4781 14.8448 48.8512 14.5453 48.8617 14.1669C48.8723 13.6414 48.9248 13.1265 48.9826 12.601C48.9826 12.601 48.9826 12.5957 48.9826 12.5905C48.9826 12.5799 48.9826 12.5694 48.9826 12.5537C48.9826 12.5379 48.9826 12.5274 48.9879 12.5116C48.9879 12.4853 48.9984 12.4591 48.9984 12.4276C48.9984 12.4013 49.0089 12.3697 49.0089 12.3435C49.0089 12.3329 49.0089 12.3172 49.0141 12.3119C49.0141 12.2909 49.0194 12.2751 49.0246 12.2489C49.0246 12.2384 49.0246 12.2279 49.0246 12.2173C49.0246 12.2068 49.0246 12.2016 49.0246 12.1963C49.0352 12.149 49.0352 12.0912 49.0457 12.0439C49.0457 12.0755 49.0352 12.1018 49.0352 12.1333C49.0825 11.7602 49.1718 11.3818 49.2611 11.014C49.3189 10.8248 49.3767 10.6304 49.4503 10.4412C49.4556 10.4307 49.4608 10.4202 49.4608 10.4097C49.6185 10.0733 49.4871 9.65821 49.1455 9.49006C49.114 9.47429 49.0719 9.4638 49.0352 9.44804C48.9774 9.43228 48.9143 9.427 48.8565 9.427C48.599 9.427 48.3468 9.56887 48.2364 9.8106H48.2417ZM51.3158 10.5253C50.9322 10.5936 50.7115 10.9562 50.764 11.3293C50.764 11.3345 50.764 11.3398 50.764 11.345C50.764 11.3608 50.764 11.3766 50.764 11.3923C50.7588 11.7707 50.7062 12.1438 50.6695 12.5169C50.6222 12.9215 50.5696 13.3314 50.5223 13.7413C50.4855 14.0671 50.7273 14.3771 51.0373 14.4612C51.0793 14.4717 51.1266 14.4822 51.1687 14.4875C51.5628 14.5137 51.8728 14.2195 51.9149 13.8411C51.9622 13.3839 52.02 12.9268 52.0673 12.4696C52.1146 12.0124 52.1881 11.529 52.1198 11.077C52.083 10.809 51.8729 10.6093 51.6259 10.541C51.5681 10.5253 51.505 10.52 51.4472 10.52C51.4052 10.52 51.3631 10.52 51.3211 10.5305L51.3158 10.5253ZM44.3687 8.81745C44.3057 8.99086 44.3319 9.19579 44.416 9.36394C44.3687 10.1785 44.2426 10.9772 44.2111 11.7917C44.2006 12.1385 44.416 12.4538 44.7471 12.5484C44.7944 12.5589 44.8417 12.5694 44.8942 12.5747C45.2726 12.6009 45.672 12.2962 45.672 11.8968C45.6772 11.345 45.7193 10.7985 45.7613 10.2468C45.7823 9.95249 45.8139 9.6477 45.8086 9.35342C45.8033 9.10644 45.7823 8.88575 45.6404 8.67555C45.5353 8.52316 45.3987 8.43909 45.2253 8.38654C45.1622 8.37078 45.0939 8.3655 45.0309 8.3655C44.7418 8.3655 44.4686 8.52841 44.3687 8.82793V8.81745ZM40.4275 7.12009C40.3749 7.38284 40.4275 7.63508 40.5641 7.85053C40.3855 8.92253 40.1385 9.98928 40.0912 11.077C40.0702 11.5552 40.3749 11.9862 40.8164 12.107C40.8794 12.1228 40.9477 12.1333 41.0161 12.1385C41.5573 12.1753 42.0408 11.7549 42.0776 11.2137C42.0881 11.0245 42.1091 10.8406 42.1354 10.6514C42.2405 9.94199 42.3771 9.23258 42.5032 8.52317C42.5925 8.03447 42.7607 7.43013 42.5295 6.95719C42.3981 6.68919 42.1564 6.479 41.8674 6.39492C41.8306 6.38441 41.7885 6.37393 41.7465 6.35816C41.7255 6.35816 41.7097 6.34763 41.6939 6.33712C41.6046 6.3161 41.5205 6.30033 41.4312 6.30033C40.9635 6.30033 40.5221 6.63667 40.4275 7.11487V7.12009ZM37.6739 5.85894C37.4952 5.95353 37.3428 6.11117 37.2745 6.31085C37.0748 6.90466 36.9802 7.5405 36.8646 8.15532C36.7332 8.83846 36.5546 9.54786 36.728 10.2415C36.8068 10.5253 37.0433 10.725 37.3165 10.8038C37.4847 10.8511 37.6686 10.8511 37.8315 10.7985C38.047 10.725 38.2414 10.5621 38.3413 10.3519C38.4411 10.1522 38.4464 9.94725 38.3991 9.73705C38.3991 9.73705 38.3991 9.73705 38.3991 9.73179V9.72127V9.71078C38.3991 9.66875 38.3991 9.6372 38.3938 9.59516C38.4096 9.29038 38.4516 8.99611 38.4884 8.68607C38.4884 8.68607 38.4884 8.67029 38.4884 8.66503C38.583 8.01868 38.6723 7.36707 38.8195 6.72598C38.872 6.49476 38.809 6.26356 38.6671 6.07964C38.5883 5.97454 38.4832 5.89045 38.3623 5.8379C38.3202 5.82214 38.2782 5.80639 38.2362 5.79588C38.2257 5.79588 38.2099 5.79062 38.1941 5.78536C38.1416 5.77485 38.089 5.76962 38.0417 5.76962C37.9156 5.76962 37.7895 5.80114 37.6791 5.85894H37.6739ZM33.6013 7.51947C33.4594 7.8768 33.6959 8.29721 34.0479 8.41807C34.0637 8.41807 34.0742 8.42333 34.09 8.42859C34.4473 8.52843 34.8204 8.32347 34.9465 7.97664C35.1515 7.42488 35.3564 6.86789 35.4931 6.2951C35.5246 6.15322 35.5614 6.01132 35.5877 5.87469C35.6297 5.66449 35.6717 5.4438 35.6349 5.22835C35.6139 5.13376 35.5824 5.04442 35.5561 4.95508C35.5561 4.95508 35.5561 4.95333 35.5561 4.94982C35.5561 4.94982 35.5404 4.90255 35.5351 4.87628L35.5561 4.95508C35.5561 4.95508 35.5561 4.98136 35.5561 4.99187C35.5246 4.71862 35.3407 4.4874 35.0516 4.42959C34.7206 4.36128 34.337 4.58726 34.2897 4.93933C34.2739 5.07071 34.2739 5.19155 34.3212 5.31241C34.3317 5.33343 34.3422 5.35448 34.3475 5.3755C34.3265 5.47009 34.3054 5.56466 34.2844 5.65399C34.0952 6.28983 33.864 6.90991 33.6118 7.52999L33.6013 7.51947ZM30.958 7.03603C30.8582 7.39336 31.0526 7.76645 31.4152 7.8768C31.4152 7.8768 31.4205 7.8768 31.4257 7.8768C31.762 7.97139 32.1667 7.7717 32.2507 7.41437C32.3558 7.00974 32.4557 6.59988 32.5503 6.19C32.6291 5.83267 32.6974 5.48058 32.7657 5.1285C32.7657 5.11799 32.7657 5.11274 32.7657 5.10223C32.7657 5.09172 32.771 5.08122 32.7762 5.07071C32.8603 4.73965 32.6711 4.38755 32.3348 4.29296C32.0038 4.19312 31.6254 4.38756 31.5308 4.72913C31.4835 4.91305 31.4467 5.09696 31.4047 5.28088C31.4152 5.25461 31.4205 5.2231 31.4257 5.20208C31.2786 5.8169 31.1157 6.42646 30.9528 7.03077L30.958 7.03603Z" fill="#050505"/>
<path d="M85.0685 86.0592C84.8845 85.9646 84.7059 85.8648 84.6481 85.8333C81.0642 83.8312 79.0042 79.9373 78.258 76.0171C77.496 72.0497 77.9637 67.9456 79.2669 64.1411C80.5334 60.4153 82.7405 56.9156 85.7306 54.3302C87.202 53.0585 88.8573 52.0391 90.686 51.3717C92.5305 50.6991 94.5011 50.5362 96.435 50.8515C97.9484 51.0984 99.4356 51.7448 100.644 52.6906C100.981 52.9586 101.301 53.2371 101.601 53.5419C101.758 53.4841 101.926 53.4684 102.1 53.5157C102.273 53.563 102.405 53.6471 102.494 53.7364C102.515 53.7627 102.536 53.7784 102.552 53.8047C102.552 53.8047 102.562 53.8152 102.568 53.8204L102.725 53.9939C105.058 56.6003 106.157 60.0896 106.451 63.521C106.798 67.6146 105.999 71.7659 104.359 75.5179C102.715 79.2752 100.082 82.7171 96.5926 84.9294C95.7203 85.4812 94.7797 85.9594 93.8075 86.3167C92.8038 86.6846 91.7738 86.9263 90.707 87.0471C89.4196 87.1943 88.0795 87.0892 86.8184 86.7318C86.214 86.5637 85.6255 86.3378 85.0685 86.054V86.0592ZM83.76 75.1238C84.2487 79.1175 86.6239 82.6961 90.2446 84.4933C90.3234 84.5511 90.3917 84.6141 90.4495 84.6824C90.912 84.6456 91.3639 84.5826 91.8211 84.5038C92.4097 84.3671 92.9772 84.199 93.5395 83.9993C94.1438 83.7576 94.7271 83.479 95.3051 83.169C95.8674 82.8327 96.414 82.4754 96.9342 82.0813C96.9605 82.0655 96.9815 82.0445 96.9815 82.0393C97.5911 81.5716 98.1534 81.0513 98.6999 80.5101C99.2096 79.9793 99.6878 79.4275 100.145 78.8548C100.686 78.1296 101.196 77.3834 101.669 76.6057C102.095 75.87 102.473 75.1133 102.825 74.3408C103.156 73.5631 103.445 72.7749 103.703 71.9709C103.955 71.1196 104.16 70.263 104.328 69.396C104.454 68.6182 104.554 67.8352 104.601 67.2099C104.654 66.3586 104.654 65.5126 104.612 64.6613C104.564 64.0254 104.491 63.3949 104.386 62.7695C104.26 62.1074 104.102 61.4558 103.913 60.8095C103.703 60.1631 103.466 59.5273 103.235 59.0123C103.219 58.965 103.193 58.9229 103.172 58.8756C103.172 58.8756 103.172 58.8757 103.156 58.8494C102.904 58.3239 102.625 57.8142 102.31 57.3255C102.026 56.8998 101.716 56.4952 101.39 56.1116C99.1413 55.0238 96.5296 54.8609 94.0807 55.2183C90.9225 55.7385 88.6681 57.6933 87.0758 60.2104C89.0097 58.45 92.8984 58.4185 94.1491 60.9356C96.8344 64.2094 94.7219 70.1632 91.9893 72.8485C91.2273 73.5684 90.2446 73.9309 89.2356 73.9887C87.8641 74.4827 86.3874 74.4932 85.0054 73.6419C84.5114 73.3791 84.0227 73.0114 83.6181 72.5804C83.6023 73.437 83.6443 74.283 83.7652 75.1291L83.76 75.1238ZM88.9992 60.9146C89.4406 61.3192 89.7874 61.871 90.0397 62.3702C91.3534 65.1447 90.9803 68.655 89.036 71.0407C88.9046 71.1984 88.7627 71.3613 88.6103 71.5084C89.0044 71.5767 89.3933 71.6188 89.7874 71.6451C92.3519 71.0145 93.4291 66.9261 93.345 64.5825C93.2084 63.3791 92.1732 62.4122 92.4097 61.1773C92.0576 60.9671 91.7107 60.82 91.3692 60.7254C90.5179 60.4889 89.7191 60.5835 88.9992 60.9146Z" fill="#050505"/>
<path d="M125.112 95.9545C124.377 95.718 124.229 94.9035 124.382 94.2361C124.645 93.1221 125.732 92.5493 126.274 91.6034C129.106 87.2787 130.11 80.5419 127.593 75.8966C126.883 74.4304 124.981 73.5214 125.133 71.7295C124.198 71.3038 124.497 69.7904 125.422 69.5119C126.657 69.2701 127.824 68.7867 128.938 68.2086C132.406 66.3169 134.492 62.7331 136.458 59.4435C137.346 57.6516 137.519 55.6389 137.84 53.6946C137.945 53.0115 138.04 52.3073 138.618 51.8554C140.163 50.589 141.361 54.0835 142.522 54.8297C145.817 58.2769 154.34 61.7504 158.954 60.1424C159.9 59.5328 160.883 60.6048 160.636 61.5717C160.289 62.6227 160.047 63.6842 160.095 64.7982C160.52 70.5313 162.128 76.8792 167.394 79.9481C169.407 81.1199 171.598 81.9555 173.668 83.017C174.367 83.3743 175.24 83.7474 175.271 84.6617C175.334 87.4784 171.782 86.2645 170.063 86.07C162.333 83.9576 160.068 84.7983 155.365 91.3302C154.067 93.5215 153.274 96.0438 153.132 98.5872C153.321 99.3702 153.647 100.2 152.964 100.873C152.549 101.314 151.739 101.451 151.371 100.852C149.7 97.6413 146.353 95.986 143.216 94.5094C140.988 93.4794 138.46 92.3024 135.99 92.3444C133.872 92.3444 131.76 92.6544 129.752 93.3376C128.633 93.8105 127.241 94.1258 126.584 95.2135C126.242 95.6497 125.732 96.1174 125.139 95.9545C125.128 95.9545 125.112 95.9492 125.096 95.944L125.112 95.9545ZM135.212 65.7284C133.441 68.2612 130.998 70.3316 128.034 71.309C132.601 76.1803 131.865 84.5041 129.595 90.3055C133.525 88.8867 138.076 88.5556 141.912 90.4421C145.192 91.9976 148.655 93.5477 151.219 96.1857C152.023 91.7716 154.514 87.883 157.856 84.935C159.942 82.8751 162.88 81.8451 165.802 82.318C159.853 78.4031 157.851 70.3001 157.788 63.5528C151.109 64.1887 144.041 61.267 139.826 56.0331C139.464 59.7273 137.33 62.8014 135.202 65.7178L135.212 65.7284Z" fill="#050505"/>
<path d="M118.885 77.9459C118.464 77.7463 118.37 77.1893 118.485 76.7846C118.617 76.3064 119.037 75.9228 119.547 76.0226C121.643 76.5797 123.604 77.6096 125.395 78.8183C123.677 78.9024 121.806 78.8498 120.088 78.3716C119.678 78.2559 119.273 78.1194 118.885 77.9459Z" fill="#050505"/>
<path d="M119.52 83.5846C118.932 83.1222 119.194 82.0134 119.909 81.8242C121.943 81.4248 124.055 81.3671 126.126 81.5089C124.334 82.5336 122.269 83.2798 120.209 83.6634C120.04 83.7002 119.867 83.7265 119.704 83.6792C119.641 83.6634 119.583 83.6319 119.525 83.5899L119.52 83.5846Z" fill="#050505"/>
<path d="M120.345 89.5428C117.991 86.8785 126.047 83.7151 127.875 82.8375C126.467 84.4876 124.875 86.1376 123.382 87.5407C122.815 88.0767 122.442 88.413 121.948 88.949C121.685 89.4167 121.144 89.8265 120.629 89.6847C120.534 89.6584 120.439 89.6111 120.35 89.5428H120.345Z" fill="#050505"/>
<path d="M130.87 102.308C131.553 100.306 132.278 98.2981 133.313 96.4537C133.592 95.965 133.923 95.4027 134.506 95.2555C135.084 95.0664 135.599 95.6497 135.61 96.1857C135.641 96.769 135.437 97.4626 134.864 97.7149C133.65 99.3491 132.305 100.873 130.875 102.323C130.875 102.323 130.87 102.313 130.87 102.308Z" fill="#050505"/>
<path d="M137.83 99.3901C137.577 98.0606 137.435 96.521 138.155 95.3124C138.823 94.4558 139.695 95.4543 139.217 96.232C138.733 97.2725 138.423 98.4022 137.84 99.3954C137.84 99.3954 137.84 99.3954 137.835 99.3849L137.83 99.3901Z" fill="#050505"/>
<path d="M142.086 96.1124C142.569 96.0704 142.853 96.5539 142.832 96.99C143.131 99.2917 143.836 101.604 143.988 103.905C143.252 102.518 139.658 96.8691 142.08 96.1177L142.086 96.1124Z" fill="#050505"/>
<path d="M159.837 99.6754C159.012 98.8136 154.892 93.1646 157.315 92.8282C157.525 92.8493 157.672 92.9859 157.777 93.1593C158.744 95.2245 159.354 97.4999 159.837 99.6806V99.6754Z" fill="#050505"/>
<path d="M160.946 94.9191C160.026 94.299 159.285 93.4635 158.507 92.6858C158.061 92.4966 157.961 91.8608 158.076 91.4404C158.581 90.1109 159.564 90.5733 160.184 91.5297C161.45 93.1482 162.596 94.8455 163.867 96.4588C162.864 96.1119 161.86 95.5129 160.946 94.9138V94.9191Z" fill="#050505"/>
<path d="M158.98 89.8169C158.618 86.3224 167.057 90.4948 168.565 91.1044C165.533 91.2935 162.406 90.6157 159.39 90.3897C159.164 90.2794 159.027 90.0533 158.98 89.8116V89.8169Z" fill="#050505"/>
<path d="M164.739 64.956C165.034 65.3764 164.96 66.0596 164.592 66.4117C164.009 68.0302 163.499 69.7117 162.737 71.2146C162.606 70.0059 162.359 63.306 164.739 64.956Z" fill="#050505"/>
<path d="M166.72 68.4448C166.941 68.077 167.408 67.7879 167.813 68.0822C169.195 69.4905 165.396 71.8553 164.371 72.5174C165.007 71.0408 165.827 69.7428 166.72 68.4448Z" fill="#050505"/>
<path d="M165.245 75.7493C164.209 75.2027 164.845 73.2112 166.027 73.4897C168.324 73.5317 170.536 73.5317 172.801 73.8943C171.372 74.5985 169.748 75.1555 168.177 75.5969C167.315 75.7756 166.353 76.0751 165.481 75.8334C165.402 75.8123 165.318 75.786 165.239 75.7493H165.245Z" fill="#050505"/>
<path d="M148.071 55.7008C146.952 54.4239 145.322 51.6283 147.036 50.2673C147.34 50.0676 147.74 50.1411 147.95 50.4407C148.171 50.7507 148.155 51.1763 147.997 51.5126C148.013 52.9052 148.118 54.3241 148.071 55.7061V55.7008Z" fill="#050505"/>
<path d="M150.939 56.2685C150.829 55.1545 150.424 50.835 152.137 50.9926C153.546 51.4971 151.396 55.3489 150.945 56.279C150.945 56.279 150.945 56.279 150.945 56.2738L150.939 56.2685Z" fill="#050505"/>
<path d="M152.963 58.0813C151.429 55.6903 158.507 54.3346 160.01 53.9247C158.208 55.4906 156.279 56.8989 154.245 58.1496C154.014 58.386 153.683 58.4702 153.394 58.3913C153.226 58.344 153.073 58.2442 152.963 58.0865V58.0813Z" fill="#050505"/>
<path d="M132.853 60.4838C131.812 59.3277 129.39 56.1012 131.555 55.045C133.247 54.6666 132.989 59.4433 132.853 60.4838Z" fill="#050505"/>
<path d="M129.915 61.5608C129.369 61.2718 128.912 60.8619 128.391 60.5309C127.514 60.0474 128.139 58.3396 129.132 58.7442C130.32 59.3695 130.814 60.8409 131.134 62.0653C131.082 62.0548 131.029 62.0443 130.977 62.0285C130.619 61.9287 130.246 61.7342 129.915 61.5608Z" fill="#050505"/>
<path d="M124.454 64.33C124.029 64.1566 123.95 63.5576 124.055 63.174C124.418 61.9916 125.563 62.4488 126.562 62.8587C126.914 63.0058 127.25 63.1424 127.523 63.2107C127.518 63.2107 127.513 63.2107 127.508 63.2055C128.905 63.7572 130.345 64.4194 131.585 65.1971C129.662 65.4441 127.707 65.3337 125.852 64.8135C125.379 64.6821 124.912 64.5192 124.449 64.3353L124.454 64.33Z" fill="#050505"/>
<path d="M23.1288 27.6984C23.1498 27.4567 23.1183 27.2149 23.0237 26.9942C22.9869 26.9101 22.9343 26.8155 22.8555 26.7683C22.7136 26.6789 22.5139 26.805 22.4088 26.8944C22.1408 27.1256 21.9727 27.4251 21.8781 27.7614C20.7903 31.5817 19.713 35.3968 18.62 39.2118C17.5059 43.1057 16.3446 46.9838 15.1675 50.8567C14.0219 54.6087 12.8658 58.3607 11.7675 62.1284C11.2788 63.81 10.7796 65.4968 10.3329 67.1889C10.1332 67.9404 9.94402 68.697 9.74433 69.4485C9.59719 70.0107 9.43429 70.5678 9.29766 71.1353C9.19782 71.5662 9.30817 72.1548 9.77586 72.2861C9.81265 72.2966 9.85469 72.3072 9.89673 72.3072C10.3487 72.3492 10.6745 71.9603 10.7953 71.5557C10.9004 71.2562 10.9845 70.9514 11.0738 70.6571C11.51 69.2278 11.9724 67.7984 12.3876 66.3586C12.9131 64.5351 13.4281 62.7117 13.9378 60.883C15.0046 57.0417 16.0083 53.1793 17.0435 49.3222C18.0735 45.4914 19.135 41.6816 20.228 37.8718C20.7798 35.9328 21.3421 33.9937 21.8991 32.0547C22.1724 31.1088 22.4404 30.1682 22.7136 29.2275C22.7925 28.9543 22.8713 28.681 22.9448 28.4078C23.0132 28.1713 23.0972 27.9348 23.113 27.6879L23.1288 27.6984ZM75.3423 37.6722C75.2477 37.6984 75.1584 37.7352 75.069 37.7615C74.4174 37.9927 73.7815 38.2554 73.1615 38.555C71.916 39.1435 70.7494 39.8635 69.6354 40.6674C68.0326 41.8235 66.5875 43.1898 65.279 44.6664C63.9442 46.1693 62.7566 47.7984 61.7214 49.5167C59.6404 52.9481 58.0219 56.6686 57.0497 60.5572C56.7186 61.9025 56.4506 63.253 56.2719 64.6298C56.0092 66.6109 55.9356 68.613 56.067 70.6046C56.2036 72.5542 56.5347 74.5353 57.1916 76.3902C57.5279 77.3466 57.922 78.2767 58.4107 79.17C58.9257 80.1054 59.5405 80.9672 60.2395 81.7712C60.8543 82.4701 61.5637 83.1007 62.3309 83.621C59.714 83.2741 57.0865 82.9798 54.4852 82.5332C50.8908 81.8395 47.2334 81.3666 43.5812 80.9987C38.2841 80.4102 33.0344 79.5432 27.7479 78.881C26.8651 78.7654 25.9822 78.6498 25.0994 78.5342C21.0373 76.7213 16.4602 76.0171 12.4296 74.036C9.89147 72.8431 7.29551 71.7764 4.86771 70.3681C4.68379 70.1894 4.49461 70.0686 4.30017 70.0003C4.35272 69.8268 4.40001 69.6534 4.44731 69.48C5.57713 65.4916 6.68068 61.4926 7.81575 57.5094C8.9771 53.4158 10.149 49.317 11.3156 45.2287C12.4664 41.2192 13.6067 37.2045 14.7418 33.1897C15.7823 29.5008 16.8438 25.8119 17.8843 22.1282C23.423 24.7293 28.9828 27.3095 34.7108 29.5008C33.9488 32.5592 33.1921 35.6175 32.4091 38.6653C31.3528 42.8062 30.265 46.947 29.193 51.0826C28.142 55.1342 27.091 59.1857 26.0453 63.2372C25.5408 65.1868 25.0416 67.1469 24.5424 69.1017C24.3059 70.0318 24.0747 70.9619 23.8382 71.8973C23.67 72.5857 23.5124 73.2845 23.3285 73.9729C23.2812 74.078 23.2444 74.1936 23.2286 74.2987C23.2128 74.3986 23.1813 74.5037 23.1656 74.6036C23.1656 74.6036 23.1708 74.6036 23.1761 74.6036C23.1025 75.0397 23.2023 75.5232 23.628 75.7386C23.6753 75.7596 23.7331 75.7859 23.7804 75.7964C24.3164 75.9488 24.7946 75.439 24.9522 74.9556C24.989 74.8557 24.9995 74.7559 25.0363 74.6613C25.0521 74.6088 25.0679 74.5247 25.0784 74.4406C25.441 72.9482 25.8351 71.4664 26.2029 69.9845C26.6444 68.2188 27.0858 66.4532 27.5167 64.6876C28.5151 60.6308 29.4978 56.5635 30.4963 52.5014C31.5 48.3869 32.4931 44.2723 33.5074 40.163C34.3797 36.6369 35.2783 33.1162 36.1716 29.5954C36.5185 29.69 36.8758 29.7688 37.2226 29.8476C38.1265 30.0473 39.0304 30.2365 39.9342 30.4309C41.7262 30.8093 43.5234 31.1824 45.3101 31.5555C48.9885 32.3174 52.667 33.0741 56.3508 33.8256C59.982 34.577 63.6079 35.3127 67.2443 36.0536C69.9454 36.6001 72.6465 37.1362 75.3423 37.6774V37.6722Z" fill="white"/>
<path d="M72.5833 16.6115C73.114 16.8322 73.6763 16.9426 74.2386 16.9374C74.144 17.3735 74.0599 17.8097 73.9758 18.2406C73.7867 19.1812 73.608 20.1165 73.4241 21.0572C73.0562 22.9122 72.6936 24.7671 72.3363 26.6221C71.9527 28.598 71.5585 30.5738 71.1592 32.5444C71.0803 32.928 71.0068 33.3116 70.9385 33.7004C70.8912 33.9737 70.8544 34.2575 70.8018 34.5307C70.7913 34.5728 70.7808 34.6148 70.7756 34.6516C70.7756 34.6516 70.7756 34.6778 70.7756 34.6831C70.1922 34.5675 69.6089 34.4519 69.0204 34.3416C65.4102 33.6269 61.7948 32.9175 58.1846 32.2396C58.1794 32.2396 58.1636 32.2396 58.1478 32.2343C58.1373 32.2343 58.1216 32.2291 58.1058 32.2238C57.9166 32.187 57.7379 32.1608 57.554 32.1187H57.5435C57.512 32.1135 57.4752 32.1082 57.4437 32.0977C56.9865 32.0084 56.5188 31.9138 56.0458 31.8297C56.0458 31.8297 56.0353 31.8297 56.0248 31.8244C55.9985 31.8139 55.9723 31.8139 55.946 31.8087C52.4935 31.1361 49.0304 30.4687 45.5569 29.8118C45.4308 29.7908 45.1996 29.7435 44.9736 29.7015H44.9683C44.9683 29.7015 44.9368 29.7015 44.9105 29.691C44.9 29.691 44.8895 29.691 44.8843 29.691C44.8737 29.691 44.8475 29.6805 44.8265 29.6805C44.8054 29.6805 44.7792 29.6699 44.7476 29.6647C44.6793 29.6489 44.5795 29.6279 44.4744 29.6122C44.4639 29.6122 44.3588 29.5911 44.2537 29.5701C44.1958 29.5596 44.1223 29.5438 44.0487 29.5333C43.9856 29.5176 43.8963 29.507 43.8122 29.486C43.8017 29.486 43.6809 29.465 43.5758 29.444C43.5653 29.444 43.518 29.4335 43.4812 29.423L43.3708 29.4019C43.2867 29.3862 43.1028 29.3547 42.9189 29.3179C42.8979 29.3179 42.8716 29.3126 42.8401 29.3074H42.8296C42.8296 29.3074 42.777 29.2916 42.7455 29.2864C42.7087 29.2758 42.6614 29.2706 42.6088 29.2601C42.488 29.2338 42.3514 29.2075 42.2147 29.1865L42.0676 29.1602C41.9257 29.1339 41.684 29.0867 41.437 29.0446C41.3266 29.0236 41.1112 28.9816 40.8957 28.9395C39.9603 28.7661 38.9829 28.5822 38.0107 28.4088C37.543 28.3247 37.0806 28.2406 36.6182 28.1723C36.5971 28.1723 36.5709 28.1671 36.5551 28.1618C36.5551 28.146 36.5446 28.1355 36.5393 28.1198C36.5761 27.9779 36.6129 27.8412 36.6444 27.6994C37.1699 25.6237 37.7007 23.5427 38.2209 21.4618C38.4784 20.4476 38.7307 19.4229 38.9882 18.414C39.109 17.941 39.2246 17.4628 39.3402 16.9899C39.4453 16.559 39.6345 16.0493 39.4348 15.6236C39.3613 15.4502 39.2194 15.3398 39.067 15.2978C38.8778 15.2453 38.6624 15.2873 38.4837 15.4292C38.1579 15.6814 38.0791 16.1386 37.9845 16.5117C37.8636 16.9689 37.748 17.4208 37.6271 17.8832C37.3907 18.8081 37.1594 19.7329 36.923 20.6578C36.4553 22.518 35.9876 24.3835 35.5199 26.2438L35.2571 27.2895C33.8646 26.7377 32.4562 26.2122 31.0584 25.6815C26.7651 24.105 22.6136 22.0714 18.4359 20.2006C18.4359 20.2006 18.4307 20.2006 18.4254 20.1954C18.9457 18.3509 19.4659 16.5012 19.9809 14.6567C20.2647 13.6635 20.5379 12.6756 20.8164 11.6825C20.9005 11.3934 20.9741 11.0992 21.0582 10.8101V10.7681C21.0582 10.7681 21.0582 10.7418 21.0582 10.7313C20.9951 10.6893 20.9531 10.6209 20.9478 10.5369C20.9426 10.4108 21.0477 10.2689 21.1843 10.2741C21.1895 10.2741 21.2 10.2741 21.2053 10.2741C21.2579 10.0797 21.3051 9.85376 21.2999 9.63831C23.3388 10.0587 25.4461 10.3109 27.506 10.4528C27.6637 10.4265 27.8213 10.3897 27.979 10.3372C28.0736 10.8469 28.4677 11.2673 29.0405 11.0046C34.1378 13.6846 39.561 15.5816 45.0945 17.1318C49.0199 18.3825 53.0137 19.2232 57.1809 19.0761C57.4804 19.0445 57.8325 19.0551 58.2056 19.0656C59.1042 19.0919 60.1132 19.1181 60.7648 18.5506C61.5058 17.4838 61.1957 16.0072 61.5163 14.7828C61.5531 14.1943 61.7527 13.59 61.8526 12.9962C62.0208 13.1328 62.2415 13.2011 62.4622 13.2747C65.8516 14.3467 69.1885 15.5448 72.578 16.622L72.5833 16.6115Z" fill="white"/>
<path d="M88.9109 19.8167C89.3786 19.4436 89.3576 18.5188 88.727 18.3243C88.5063 18.256 88.2751 18.214 88.0439 18.1614C85.1431 17.5519 82.2003 17.0895 79.3048 16.4431C79.0473 16.3695 78.8161 16.4641 78.648 16.6323C77.907 16.7269 77.9543 17.925 77.7388 18.5083C77.3815 20.1058 77.0767 21.719 76.7457 23.3165C76.3725 25.1662 75.9784 27.0159 75.6053 28.8656C75.5423 29.6749 74.9012 31.3775 75.0746 32.418C75.1114 32.4232 75.1481 32.4285 75.1849 32.4337C75.3058 32.4495 75.4267 32.4758 75.5475 32.4968C75.6421 32.5178 75.742 32.5388 75.8365 32.5598C76.0152 32.6019 76.1991 32.6439 76.3778 32.6912C76.4356 32.707 76.4882 32.7227 76.546 32.7385C76.5565 32.728 76.5617 32.7123 76.567 32.7017C78.0384 32.6334 79.4625 33.0275 80.8813 33.4269C82.1846 33.7947 83.493 34.1573 84.8331 34.1573H84.8541C84.996 34.1468 85.1168 34.0995 85.2219 34.026C85.285 34.0732 85.3638 34.11 85.4479 34.1311C86.9666 34.3518 86.9088 31.4563 87.2819 30.4316C87.8705 27.6045 88.2278 24.7458 88.6377 21.8924C88.7428 21.2251 88.8269 20.5577 88.8952 19.8851C88.8952 19.864 88.9057 19.8378 88.9057 19.8115L88.9109 19.8167ZM91.5437 17.1C91.8117 17.2418 92.0902 17.1525 92.3057 16.9738C91.0497 20.9623 90.5505 25.203 89.3734 29.2282C88.8216 31.1778 88.2646 33.1326 87.655 35.0717C87.4816 35.9177 86.5777 37.0475 86.914 37.8778C84.6071 37.4206 82.3002 36.9582 79.988 36.5063C77.5654 36.0281 75.1429 35.5499 72.7203 35.0717C72.7466 34.9981 72.7676 34.9245 72.7781 34.851C73.2196 32.5704 73.5559 30.2687 73.9395 27.9776C74.2811 25.9019 74.6331 23.8315 74.98 21.7611C75.1586 20.6891 75.3373 19.6118 75.5107 18.5451C75.5948 18.0458 75.6789 17.5571 75.7472 17.0632C75.7682 16.9371 75.7892 16.8004 75.805 16.6585C75.8523 16.2592 75.8418 15.8493 75.516 15.5813C75.4687 15.5445 75.4109 15.5182 75.3531 15.4972C75.2217 15.4604 75.0746 15.4762 74.9537 15.5287C74.9379 15.5287 74.9274 15.5393 74.9169 15.5445C74.7382 15.3869 74.5386 15.2502 74.3336 15.1294C71.044 13.9102 67.6283 12.9486 64.2756 11.8923C63.7396 11.7347 63.1983 11.5876 62.6728 11.4142C62.6518 11.4037 62.636 11.3931 62.6203 11.3879C62.6518 11.3301 62.6728 11.2618 62.6886 11.1987C62.8357 10.6732 62.6781 9.94277 62.0895 9.77987C59.2939 8.98113 56.4982 8.21394 53.6973 7.43621C53.9233 7.0999 54.0179 6.65322 53.8917 6.3064C54.5171 6.5271 55.1634 6.70053 55.794 6.91072C60.4762 8.32429 65.1689 9.69581 69.8091 11.246C76.1676 13.2113 82.6102 14.9192 89.0844 16.4589C89.4049 16.5639 89.7465 16.627 90.0881 16.6901C90.5925 16.7847 91.097 16.8792 91.5489 17.1105L91.5437 17.1Z" fill="white"/>
<path d="M87.5705 19.8008C86.8611 23.9731 86.1359 28.0877 85.0639 32.2128C85.0166 32.2076 84.9798 32.2023 84.9325 32.2023C83.829 32.155 82.7517 31.887 81.6745 31.598C82.1316 31.2722 82.1789 30.6206 82.284 30.1056C82.8621 27.2365 82.9777 24.299 83.5452 21.4351C83.787 20.6889 83.5347 20.1476 82.8989 19.9689C82.7727 19.9321 82.6309 19.9111 82.4785 19.9059C81.4695 19.7955 80.4343 19.5958 79.4096 19.5958C79.2309 19.5958 79.0522 19.6011 78.8788 19.6168C78.8263 19.6221 78.7737 19.6326 78.7264 19.6431C78.8263 19.1176 78.9261 18.5921 79.0259 18.0667C80.4343 18.5711 82.2735 18.6552 83.7239 19.0441C85.0061 19.2963 86.2936 19.5222 87.5758 19.8008H87.5705Z" fill="white"/>
<path d="M114.065 25.9053C114.375 25.9631 114.733 26.0892 115.069 26.1313C113.913 31.6489 112.814 37.2611 111.553 42.826C111.537 42.8155 111.522 42.8155 111.506 42.8103C111.495 42.8103 111.49 42.8103 111.48 42.8103C111.474 42.8103 111.469 42.8103 111.464 42.8103C111.438 42.7998 111.411 42.7997 111.39 42.7892C109.919 42.4634 108.437 42.1849 106.955 41.8801C105.305 41.5438 103.655 41.2075 102.005 40.8765C98.3632 40.146 94.7215 39.4209 91.0798 38.7009C90.1392 38.517 89.1986 38.3331 88.2527 38.1492C90.176 36.0315 92.1203 24.6021 93.0137 19.8832C93.1976 19.9988 93.4025 20.0671 93.6022 20.1407C96.0721 21.0392 98.6155 21.7171 101.154 22.395C102.588 22.7786 104.028 23.1622 105.452 23.5879C108.311 24.4181 111.143 25.3325 114.07 25.9158L114.065 25.9053Z" fill="white"/>
<path d="M111.075 44.7396C111.075 44.7396 111.101 44.7396 111.112 44.7396C110.539 47.1884 109.93 49.6266 109.262 52.0439C109.194 51.9178 109.12 51.7917 109.047 51.6708C109.015 51.5973 108.973 51.5237 108.926 51.4659C108.889 51.4081 108.858 51.3556 108.821 51.2977C108.647 51.014 108.416 50.7828 108.106 50.6987C108.038 50.6777 107.969 50.6724 107.901 50.6619H107.78C105.899 48.0082 103.219 45.9167 100.14 44.892C95.347 42.501 90.1288 41.0349 84.9212 39.5951C86.361 39.8841 87.8061 40.1731 89.246 40.4569C92.914 41.1873 96.5767 41.923 100.245 42.6482C103.823 43.3576 107.402 44.067 110.996 44.7344C111.017 44.7344 111.044 44.7396 111.07 44.7501C111.07 44.7501 111.07 44.7501 111.07 44.7449L111.075 44.7396Z" fill="white"/>
<path d="M32.3401 4.29875C32.6765 4.39859 32.8657 4.74543 32.7816 5.07649C32.7816 5.087 32.7816 5.09751 32.7711 5.10802C32.7711 5.11853 32.7711 5.12903 32.7711 5.13429C32.7027 5.48637 32.6344 5.83845 32.5556 6.19579C32.461 6.60567 32.3612 7.01027 32.2561 7.42015C32.172 7.77223 31.7674 7.97192 31.431 7.88259C31.4258 7.88259 31.4205 7.88259 31.4205 7.88259C31.0632 7.77749 30.8688 7.39915 30.9633 7.04182C31.1263 6.44801 31.2839 5.85419 31.4258 5.24988C31.4258 5.26564 31.4153 5.27616 31.4153 5.29193C31.4573 5.11326 31.4888 4.92409 31.5414 4.74017C31.636 4.3986 32.0143 4.20416 32.3454 4.30401L32.3401 4.29875Z" fill="white"/>
<path d="M35.6408 5.2282C35.6776 5.44365 35.6408 5.66434 35.5935 5.87454C35.5672 6.01642 35.5305 6.15833 35.4989 6.29496C35.357 6.86774 35.1573 7.42473 34.9524 7.9765C34.821 8.32332 34.4532 8.52828 34.0958 8.42844C34.0801 8.42844 34.0696 8.42318 34.0538 8.41792C33.7017 8.30231 33.4652 7.88191 33.6071 7.51932C33.8541 6.89925 34.0906 6.27916 34.2798 5.64332C34.3008 5.55399 34.3271 5.45942 34.3428 5.36483C34.3323 5.34381 34.3218 5.32279 34.3165 5.30177C34.2693 5.18091 34.2693 5.06004 34.285 4.92867C34.3323 4.58184 34.7159 4.35064 35.047 4.41896C35.3413 4.47676 35.5199 4.70798 35.5515 4.98123C35.5515 4.97072 35.5515 4.95496 35.5515 4.94445L35.5304 4.86561C35.5357 4.89188 35.5462 4.91817 35.5515 4.93919C35.5515 4.93919 35.5515 4.94094 35.5515 4.94445C35.5777 5.03378 35.6145 5.12309 35.6303 5.21768L35.6408 5.2282Z" fill="white"/>
<path d="M38.6617 6.07906C38.8036 6.25773 38.8666 6.49419 38.8141 6.72541C38.6669 7.3665 38.5723 8.01811 38.483 8.66446C38.483 8.66972 38.483 8.68025 38.483 8.6855C38.4462 8.99029 38.4042 9.2898 38.3884 9.59459C38.3884 9.63137 38.3884 9.66817 38.3937 9.71021V9.7207C38.3937 9.7207 38.3937 9.72597 38.3937 9.73122C38.3937 9.73122 38.3937 9.73123 38.3937 9.73648C38.441 9.94668 38.441 10.1516 38.3359 10.3513C38.236 10.5615 38.0468 10.7244 37.8261 10.7979C37.6632 10.8558 37.4793 10.8505 37.3112 10.8032C37.0379 10.7296 36.7962 10.5247 36.7226 10.2409C36.5439 9.54728 36.7226 8.83789 36.8592 8.15475C36.9748 7.53993 37.0747 6.90408 37.2691 6.31028C37.3374 6.10534 37.4898 5.9477 37.6685 5.85837C37.7788 5.80056 37.905 5.76904 38.0311 5.76904C38.0836 5.76904 38.1362 5.77428 38.1835 5.78479C38.1992 5.78479 38.215 5.79531 38.2255 5.79531C38.2676 5.80582 38.3096 5.82156 38.3516 5.83733C38.4725 5.89513 38.5776 5.97922 38.6564 6.07906H38.6617Z" fill="white"/>
<path d="M42.5356 6.96288C42.7616 7.43582 42.5934 8.04016 42.5093 8.52886C42.378 9.23827 42.2466 9.94767 42.1415 10.6571C42.1152 10.8463 42.0942 11.0302 42.0837 11.2194C42.0469 11.7659 41.5582 12.1862 41.0222 12.1442C40.9539 12.1389 40.8856 12.1284 40.8225 12.1127C40.3758 11.9866 40.071 11.5609 40.0973 11.0827C40.1446 10.0002 40.3916 8.93347 40.5703 7.85622C40.4389 7.64602 40.3811 7.38853 40.4336 7.12578C40.5282 6.64759 40.9696 6.31128 41.4373 6.31128C41.5214 6.31128 41.6107 6.32179 41.7001 6.34807C41.7158 6.35332 41.7369 6.36382 41.7526 6.36908C41.7947 6.37959 41.8367 6.39535 41.8735 6.40586C42.1625 6.48994 42.4095 6.70014 42.5356 6.96814V6.96288Z" fill="white"/>
<path d="M45.804 9.34793C45.8092 9.64746 45.7829 9.94696 45.7567 10.2412C45.7199 10.793 45.6725 11.3395 45.6673 11.8913C45.6673 12.2907 45.2677 12.5954 44.8891 12.5691C44.8365 12.5691 44.7892 12.5586 44.7419 12.5429C44.4106 12.4483 44.195 12.133 44.2055 11.7862C44.2318 10.9717 44.3633 10.1729 44.4106 9.35842C44.3265 9.19026 44.3002 8.99059 44.3633 8.81192C44.4632 8.51239 44.7366 8.34949 45.0258 8.34949C45.0889 8.34949 45.1572 8.35999 45.2203 8.3705C45.3886 8.42304 45.5306 8.50715 45.6357 8.65954C45.7724 8.87499 45.7935 9.09043 45.804 9.33741V9.34793Z" fill="white"/>
<path d="M49.1551 9.49469C49.4967 9.66284 49.6333 10.078 49.4704 10.4143C49.4704 10.4248 49.4652 10.4353 49.4599 10.4458C49.3864 10.635 49.3338 10.8242 49.2707 11.0186C49.1867 11.3759 49.1026 11.7333 49.0553 12.0959C49.0553 12.0906 49.0553 12.0801 49.0553 12.0749C49.0448 12.1169 49.0448 12.1642 49.0343 12.2062C49.0343 12.2115 49.0343 12.2167 49.0343 12.2272C49.0343 12.2377 49.0343 12.2483 49.0343 12.2588C49.0343 12.285 49.0343 12.3008 49.0238 12.3218C49.0238 12.3323 49.0238 12.3428 49.0185 12.3533C49.0185 12.3849 49.0132 12.4111 49.008 12.4374C49.008 12.4689 49.0027 12.4952 48.9975 12.5215C48.9975 12.5373 48.9975 12.5478 48.9922 12.5636C48.9922 12.5793 48.9922 12.5898 48.9922 12.6003C48.9922 12.6056 48.9922 12.6108 48.9922 12.6108C48.9344 13.1311 48.8766 13.6513 48.8714 14.1768C48.8661 14.5604 48.4877 14.8547 48.1199 14.8284C48.0726 14.8284 48.0253 14.8126 47.9833 14.8021C47.6627 14.7128 47.4683 14.4133 47.4735 14.077C47.4788 13.7039 47.5156 13.3308 47.5524 12.9577C47.5892 12.5898 47.6312 12.2167 47.6995 11.8489C47.8256 11.1657 47.9517 10.4511 48.2513 9.82049C48.3616 9.57876 48.6191 9.43689 48.8714 9.43689C48.9292 9.43689 48.9922 9.44213 49.05 9.4579C49.0921 9.46841 49.1289 9.48418 49.1604 9.49995L49.1551 9.49469Z" fill="white"/>
<path d="M52.1149 11.0768C52.1885 11.534 52.1149 12.0174 52.0623 12.4694C52.015 12.9265 51.9571 13.3837 51.9098 13.8409C51.8677 14.2192 51.5575 14.5188 51.1632 14.4872C51.1158 14.482 51.0738 14.4767 51.0317 14.461C50.7267 14.3769 50.4796 14.0668 50.5164 13.741C50.5638 13.3364 50.6111 12.9265 50.6637 12.5166C50.7057 12.1435 50.753 11.7652 50.7583 11.3921C50.7583 11.3763 50.7583 11.3606 50.7583 11.3448C50.7583 11.3396 50.7583 11.3343 50.7583 11.329C50.7005 10.9612 50.9266 10.5986 51.3104 10.525C51.3525 10.5198 51.3945 10.5145 51.4366 10.5145C51.4944 10.5145 51.5575 10.525 51.6154 10.5355C51.8625 10.6038 52.0728 10.8035 52.1096 11.0715L52.1149 11.0768Z" fill="white"/>
<path d="M55.0943 12.4272C55.0943 12.4272 55.1153 12.4377 55.1258 12.443C55.1153 12.4325 55.0996 12.422 55.0891 12.4167C55.0891 12.4167 55.0943 12.422 55.0996 12.4272H55.0943ZM56.4711 11.5602C56.5237 11.8492 56.4501 12.175 56.4081 12.4588C56.2977 13.1261 56.1821 13.7882 56.0717 14.4504C55.9929 14.9233 55.4937 15.2333 55.0365 15.144C55.0155 15.1387 54.9945 15.1335 54.9734 15.123C54.532 15.0021 54.2798 14.5555 54.3481 14.1035C54.4637 13.3468 54.5951 12.6007 54.716 11.8439V11.8334C54.6949 11.7283 54.6949 11.618 54.716 11.5129C54.8 11.0925 55.1784 10.8087 55.5883 10.8087C55.6671 10.8087 55.7459 10.8192 55.8248 10.8402C55.8405 10.8402 55.851 10.8508 55.8668 10.8508C56.1768 10.9559 56.4133 11.2344 56.4764 11.5549L56.4711 11.5602Z" fill="white"/>
<path d="M60.0293 13.0889C60.0818 13.3254 59.982 13.5618 59.8138 13.7142C59.777 13.9139 59.7507 14.1136 59.7245 14.3133V14.3238C59.7245 14.3343 59.7245 14.3395 59.7245 14.3448V14.3553C59.7245 14.3553 59.7245 14.3606 59.7245 14.3658C59.7245 14.3711 59.7245 14.3763 59.7245 14.3816V14.3868C59.7034 14.6023 59.6719 14.8282 59.6509 15.0437C59.6089 15.422 59.2936 15.7216 58.8994 15.6953C58.8521 15.6953 58.8101 15.6848 58.7628 15.6743C58.4528 15.5902 58.2058 15.2802 58.2426 14.9439C58.2951 14.5287 58.3529 14.1083 58.4212 13.6932C58.4475 13.525 58.4843 13.3569 58.5211 13.1887C58.5579 13.0258 58.5999 12.8577 58.6787 12.7105C58.7576 12.5581 58.8732 12.4635 59.0203 12.3847C59.1044 12.3374 59.2042 12.3164 59.3041 12.3164C59.3671 12.3164 59.4354 12.3269 59.4985 12.3427C59.6824 12.3952 59.8506 12.5213 59.9294 12.7C59.982 12.8209 60.0187 12.9523 60.045 13.0836L60.0293 13.0889Z" fill="white"/>
</svg>
