<svg width="179" height="106" viewBox="0 0 179 106" fill="none" xmlns="http://www.w3.org/2000/svg">
<path d="M66.96 83.1583C65.9477 82.9642 64.9353 82.1354 65.7746 81.1125C66.0001 80.8712 66.4093 80.7295 66.6977 80.9656C69.8555 81.8731 73.0185 82.8908 75.8877 84.5643C75.8929 84.5643 75.8877 84.58 75.8877 84.58C73.1129 84.4751 70.3328 84.1131 67.6577 83.3629C67.4269 83.3 67.1961 83.2318 66.9653 83.1583H66.96Z" fill="black"/>
<path d="M8.78859 72.1524C8.93022 71.5701 9.09282 70.9983 9.24494 70.4265C9.44951 69.6554 9.64884 68.8895 9.84816 68.1183C10.3098 66.3871 10.8133 64.6612 11.3116 62.9458C12.4342 59.09 13.6144 55.2605 14.7841 51.4257C15.9905 47.465 17.1708 43.4991 18.3143 39.5227C19.4315 35.6249 20.5331 31.7272 21.6398 27.8242C21.7395 27.4832 21.9074 27.1737 22.1854 26.9377C22.2903 26.8432 22.4948 26.7173 22.6417 26.8065C22.7204 26.859 22.7729 26.9534 22.8096 27.0373C22.904 27.2629 22.9355 27.5095 22.9145 27.756C22.8935 28.0078 22.8096 28.2491 22.7414 28.4904C22.6627 28.7685 22.584 29.0465 22.5053 29.3298C22.2273 30.2898 21.9493 31.255 21.6766 32.2203C21.1101 34.2033 20.5383 36.1862 19.9718 38.164C18.8598 42.0564 17.7687 45.9594 16.7197 49.8677C15.6601 53.8074 14.6372 57.7523 13.5462 61.6815C13.0269 63.5491 12.4971 65.4114 11.9621 67.2737C11.5372 68.7426 11.0703 70.2009 10.6245 71.6646C10.5301 71.9688 10.4409 72.2836 10.336 72.5879C10.2101 72.997 9.87964 73.3957 9.41279 73.3537C9.37083 73.3537 9.32887 73.3432 9.28691 73.3327C8.80433 73.1963 8.69417 72.5931 8.79384 72.1577L8.78859 72.1524Z" fill="black"/>
<path d="M81.9465 33.6157C80.4935 33.2118 79.0405 32.8026 77.5351 32.876C77.5298 32.8918 77.5194 32.9023 77.5089 32.9128C77.4512 32.897 77.3987 32.8813 77.341 32.8656C77.1574 32.8131 76.9738 32.7711 76.7902 32.7292C76.6906 32.7082 76.5909 32.6819 76.4965 32.6662C76.3759 32.64 76.25 32.6137 76.1241 32.598C76.0874 32.598 76.0454 32.5875 76.0087 32.5823C75.8356 31.5173 76.486 29.7757 76.5542 28.9521C76.9319 27.0583 77.3358 25.1697 77.7187 23.2812C78.0544 21.6445 78.3691 19.9973 78.7363 18.3658C78.9566 17.7677 78.9094 16.5454 79.6647 16.4458C79.8326 16.2674 80.0686 16.1729 80.3361 16.2516C83.2893 16.9126 86.3002 17.3848 89.2638 18.009C89.4999 18.0615 89.7359 18.1035 89.9615 18.1769C90.6067 18.3763 90.6224 19.3205 90.1503 19.7035C90.1503 19.7297 90.1503 19.7559 90.1398 19.7769C90.0664 20.4641 89.9825 21.1461 89.8775 21.8281C89.4579 24.7448 89.096 27.6668 88.4928 30.5573C88.1098 31.6013 88.1728 34.5652 86.6201 34.3397C86.5362 34.3187 86.4575 34.2767 86.3893 34.2347C86.2844 34.3082 86.1533 34.3606 86.0117 34.3711H85.9907C84.6216 34.3711 83.2841 33.9987 81.9517 33.6262L81.9465 33.6157ZM83.5621 19.7926C83.7194 19.7926 83.8663 19.8189 83.9922 19.8556C84.6426 20.034 84.8997 20.5901 84.6531 21.356C84.0709 24.2884 83.9555 27.2891 83.3627 30.2216C83.2578 30.7514 83.2054 31.4177 82.7438 31.7482C83.8453 32.0472 84.9469 32.3147 86.0746 32.3672C86.1218 32.3672 86.1638 32.3672 86.211 32.3777C87.3073 28.1652 88.0469 23.9579 88.7708 19.693C87.4647 19.4097 86.1481 19.1789 84.8367 18.9218C83.3523 18.5231 81.4744 18.4392 80.0372 17.9251C79.9375 18.4602 79.8326 19.0005 79.7329 19.5356C79.7854 19.5251 79.8378 19.5146 79.8903 19.5041C80.0686 19.4884 80.2522 19.4832 80.4358 19.4832C81.4796 19.4832 82.534 19.6825 83.5673 19.8031L83.5621 19.7926Z" fill="black"/>
<path d="M55.5882 12.1493C55.5882 12.1493 55.5725 12.1336 55.562 12.1283C55.583 12.1388 55.604 12.1546 55.6197 12.1651C55.6092 12.1598 55.5987 12.1546 55.5882 12.1493Z" fill="black"/>
<path d="M95.8465 99.0694C94.9758 99.0589 94.0998 99.0379 93.2291 99.0012C90.4857 98.8805 87.7476 98.6654 85.0148 98.4451C70.8521 97.5323 56.8154 95.5178 42.7997 93.3303C37.1714 92.4909 31.5483 91.5467 25.9829 90.3454C24.2781 89.9676 22.5734 89.6056 20.8791 89.2017C20.8476 89.1965 20.8162 89.186 20.7847 89.1755C20.5067 89.0968 20.2602 88.9604 20.1185 88.6876C20.0976 88.6457 20.0766 88.6037 20.0608 88.5565C19.636 88.7663 19.1062 88.7715 18.5502 88.4201C13.3152 86.1066 8.14326 83.6777 3.50107 80.2784C2.66705 79.5334 0.679042 79.1033 0.836404 77.776C0.78395 77.776 0.731496 77.7656 0.684287 77.7551C0.663305 77.7498 0.631832 77.7341 0.605605 77.7236C0.322353 77.6134 0.138765 77.3511 0.0705747 77.0626C0.0181206 76.837 0.0391039 76.6114 0.0968034 76.4016C0.0968034 76.4016 0.0915558 76.4016 0.0863103 76.4016C0.117783 76.26 0.164992 76.1289 0.20171 75.9872C0.206955 75.9662 0.212201 75.9347 0.222692 75.9085C0.243674 75.8246 0.275145 75.7407 0.311863 75.662C0.500698 75.0167 0.679041 74.3609 0.867875 73.7104C1.14588 72.7452 1.42913 71.7747 1.71239 70.8095C2.31561 68.7426 2.92933 66.6809 3.54304 64.6192C4.74948 60.5431 5.94544 56.4618 7.13614 52.3752C8.33734 48.2414 9.5333 44.1076 10.7345 39.9738C11.9462 35.8033 13.1736 31.6433 14.3905 27.478C14.999 25.4006 15.6022 23.3284 16.2107 21.2563C16.1478 21.0832 16.1268 20.8943 16.1582 20.716C16.2107 20.3645 16.3628 20.1284 16.5779 19.9973C17.071 18.3133 17.564 16.6346 18.0571 14.9559C18.419 13.7441 18.7757 12.5323 19.1376 11.3205C19.1744 11.1998 19.2111 11.0792 19.2478 10.9638C19.3579 10.8956 19.4471 10.7854 19.4786 10.649C19.6045 10.1244 19.7304 9.5998 19.872 9.08046C19.8877 9.04898 19.9087 9.02277 19.9297 8.99654C19.9192 8.99129 19.9087 8.98603 19.8982 8.98078C19.9664 8.72373 20.0399 8.4667 20.1185 8.20964L20.0976 8.27259C20.1867 7.97882 20.2916 7.69029 20.4175 7.41225C20.4228 7.39651 20.4333 7.38076 20.4385 7.36502C20.4542 7.37027 20.47 7.37554 20.4857 7.38603C22.3846 7.86341 24.4408 7.82668 26.3973 8.06274C27.0267 8.06274 27.6982 8.1834 28.2122 8.51914C28.8417 6.80371 29.5603 5.00961 30.111 3.38337C30.2474 3.09485 30.4677 2.22403 30.751 1.4896C30.6775 1.00172 30.9451 0.587287 31.3594 0.46663C31.5116 0.351219 31.6742 0.330236 31.8525 0.46663C31.926 0.487614 31.9994 0.508584 32.0676 0.550551C36.2062 1.48957 40.1822 2.97943 44.2264 4.23321C47.0065 5.06207 49.8023 5.83846 52.5929 6.61486C52.6663 6.12174 53.0545 5.59717 53.5003 5.46078C53.4007 5.34537 53.3325 5.2037 53.2905 5.04633C53.2486 3.71386 54.5494 4.08634 55.546 4.37486C55.7926 4.44831 56.0286 4.51648 56.2122 4.54796C59.008 5.27714 61.8195 5.96961 64.5944 6.75126C72.0691 9.0175 79.4966 11.4254 87.0657 13.3612C88.9803 13.8385 90.8844 14.3526 92.8147 14.7671C93.3759 14.8772 93.911 15.2182 94.0106 15.7323C94.5352 15.192 95.2905 15.7953 95.0492 16.5192C94.8919 16.9756 94.8079 17.4635 94.7188 17.8779C94.703 17.9356 94.6873 18.009 94.6611 18.093C94.7712 18.093 94.8814 18.135 94.9968 18.2032C97.4569 19.0845 99.9904 19.7507 102.54 20.3855C102.54 20.375 102.54 20.3697 102.54 20.3592C102.807 19.0897 102.561 17.3008 103.825 16.5454C104.664 16.1677 105.634 16.4195 106.5 16.5559C109.238 17.133 111.945 17.8884 114.609 18.7383C115.092 18.9428 115.097 19.651 114.987 20.0602C114.709 21.2458 114.379 22.3684 114.09 23.4963C115.055 23.7376 116.031 23.9632 116.996 24.1783C117.778 24.215 118.192 24.8865 117.898 25.5684C118.035 25.6734 118.145 25.8465 118.176 26.1035C117.903 30.1796 116.666 34.1823 116.015 38.2269C115.055 43.8401 113.686 49.364 112.076 54.8303C112.076 54.8408 112.071 54.8513 112.065 54.8618C114.132 59.5674 114.457 64.8291 113.592 69.8599C113.167 72.3517 112.412 74.7701 111.431 77.0993C110.434 79.4653 109.154 81.7053 107.612 83.7512C106.107 85.7551 104.344 87.565 102.356 89.0916C101.102 90.0568 99.7544 90.8856 98.3381 91.5519C98.3958 91.6463 98.4325 91.7617 98.443 91.8981C98.4797 92.5067 98.2332 93.1047 98.1178 93.7028C97.8922 94.6418 97.6562 95.5808 97.4254 96.5198C97.4779 96.5198 97.5251 96.5303 97.5775 96.5355C97.4726 96.9762 97.3677 97.4221 97.2628 97.868V97.8785C97.2628 97.8995 97.2523 97.9152 97.2523 97.931C97.1684 98.3192 97.074 98.7073 96.99 99.0955C96.7855 99.0955 96.5809 99.0904 96.3763 99.0851C96.2976 99.1166 96.2137 99.1376 96.1245 99.1376C96.0354 99.1376 95.9409 99.1166 95.8465 99.0746V99.0694ZM93.7903 47.5227C92.9196 47.7011 92.0751 47.9319 91.2358 48.2204C90.3651 48.5404 89.5258 48.9129 88.7075 49.3483C87.8997 49.8047 87.1234 50.2978 86.3786 50.8486C85.5708 51.4677 84.7997 52.1182 84.144 52.7634C83.4411 53.4559 82.7802 54.1851 82.156 54.951C81.4741 55.8113 80.8447 56.7031 80.2677 57.6317C79.6382 58.6704 79.0717 59.7458 78.5577 60.8474C78.1328 61.7917 77.7551 62.757 77.4299 63.738C77.047 64.934 76.7375 66.1406 76.5224 67.195C76.3284 68.239 76.1815 69.2881 76.0818 70.3426C75.9979 71.4967 75.9769 72.6508 76.0136 73.7996C76.0661 74.7229 76.15 75.6462 76.2864 76.5643C76.449 77.5085 76.6431 78.4423 76.8634 79.2082C76.8896 79.2764 76.9053 79.3499 76.9211 79.4023L76.9578 79.5282C77.2096 80.3256 77.4981 81.1072 77.8233 81.8731H77.8285L77.8495 81.9151C78.2167 82.702 78.6154 83.4626 79.0665 84.2076C79.4966 84.8738 79.9634 85.5033 80.446 86.0856C80.9653 86.6837 81.5266 87.2397 82.114 87.7591C82.7592 88.2784 83.4254 88.7506 84.1283 89.1808C84.8154 89.569 85.5288 89.9047 86.2579 90.1984C87.1129 90.4975 87.9732 90.7231 88.8649 90.8752C89.6517 90.9854 90.4333 91.0325 91.2253 91.0273C92.1223 90.9958 92.993 90.8909 93.869 90.7335C94.6243 90.5709 95.3587 90.3663 96.0459 90.1355C96.135 90.104 96.2242 90.0726 96.3606 90.0201C97.1998 89.7106 98.0024 89.3119 98.7892 88.8975C99.6704 88.3939 100.51 87.8483 101.26 87.3027C101.291 87.2817 101.317 87.2607 101.344 87.2397H101.354C102.068 86.6784 102.744 86.0909 103.4 85.4666C104.14 84.7217 104.837 83.9453 105.498 83.1269C106.122 82.3191 106.705 81.4902 107.25 80.6246C107.859 79.6331 108.404 78.6102 108.897 77.5715C109.317 76.6377 109.694 75.6934 110.02 74.7282C110.376 73.616 110.67 72.4881 110.906 71.3498C111.1 70.3373 111.252 69.3144 111.347 68.2914C111.436 67.1478 111.457 66.0042 111.431 65.0861C111.389 63.9687 111.273 62.8619 111.105 61.7602C110.938 60.8055 110.728 59.8612 110.46 58.9274C110.198 58.0723 109.894 57.2382 109.542 56.4093C109.196 55.6487 108.803 54.9143 108.362 54.2061C108.331 54.1536 108.294 54.1011 108.257 54.0487C108.011 53.6709 107.916 53.2251 107.974 52.7844C107.827 52.6008 107.68 52.4172 107.617 52.3437C107.056 51.6932 106.453 51.09 105.808 50.5234C105.162 49.9936 104.491 49.5162 103.772 49.0965C103.038 48.6873 102.283 48.3463 101.496 48.0578C101.207 47.9581 100.919 47.869 100.625 47.785C100.111 47.6434 99.597 47.528 99.0829 47.4388C99.0725 47.4388 99.0567 47.4388 99.0515 47.4388C98.2175 47.3129 97.3834 47.2499 96.5337 47.2499H96.4498C95.5528 47.2709 94.6716 47.3653 93.7851 47.5175L93.7903 47.5227ZM77.3197 39.6223C77.026 39.7273 76.727 39.8217 76.4333 39.9318C75.8405 40.1469 75.2635 40.3935 74.6918 40.6663C73.8997 41.065 73.1392 41.5161 72.3943 41.9987C71.4659 42.6387 70.5794 43.3365 69.7244 44.0814C68.7802 44.9365 67.8885 45.8388 67.044 46.7935C66.126 47.8637 65.2658 48.9759 64.5105 50.0775C64.4895 50.109 64.4685 50.1404 64.4475 50.1719V50.1824C63.6922 51.3156 62.9998 52.4801 62.3965 53.6185C62.3861 53.6395 62.3703 53.6605 62.3598 53.6867C61.7461 54.9038 61.2006 56.1418 60.7128 57.4061C60.1882 58.8225 59.7424 60.2546 59.3699 61.7235C59.0657 63.0245 58.8244 64.3307 58.6461 65.6527C58.5044 66.8592 58.4258 68.0763 58.4153 69.2829C58.4205 70.2639 58.473 71.2396 58.5779 72.2101C58.6933 73.1019 58.8454 73.9885 59.05 74.8698C59.2441 75.62 59.4696 76.3544 59.7424 77.0783C60.0151 77.7498 60.3194 78.4108 60.6656 79.0508C60.9803 79.5964 61.3212 80.1105 61.6989 80.6036C62.1133 81.1282 62.5644 81.6161 63.0522 82.0725C63.4561 82.424 63.8862 82.7492 64.3321 83.0482C64.8829 83.3945 65.4546 83.6883 66.0473 83.9348C66.0473 83.9348 66.0508 83.9348 66.0578 83.9348C66.1523 83.9611 66.2414 84.003 66.3358 84.0397C66.5247 84.1027 66.6663 84.2181 66.766 84.365C70.7997 85.5191 74.8334 86.6469 78.8461 87.8797C78.9038 87.8955 78.9616 87.9112 79.014 87.9322C77.3092 85.965 76.0766 83.6095 75.2688 81.144C71.277 81.0338 67.3063 80.4043 63.4404 79.4285C62.706 79.1977 62.8214 77.9807 63.5505 77.839C64.0436 77.6922 64.757 77.9125 65.1976 77.9544C68.5809 78.5735 71.9537 79.5807 75.1586 80.782C74.8229 79.7013 74.5659 78.5997 74.3876 77.5086C74.3771 77.4456 74.3666 77.3773 74.3561 77.3196C74.3561 77.3196 74.3561 77.3039 74.3561 77.2987C74.3508 77.2567 74.3456 77.2095 74.3351 77.1675C74.2984 76.9315 74.2617 76.6954 74.2302 76.4541C71.0515 76.4698 67.7836 75.9715 64.7045 75.1164C63.603 74.7701 62.4595 74.4974 61.3789 74.0934C60.5711 73.6528 60.8596 72.2626 61.7042 72.037C66.0211 72.7767 70.1125 74.597 74.1987 76.1708C73.926 73.8783 73.9574 71.5492 74.2617 69.2462C70.1335 69.2357 65.869 68.9157 61.8615 67.7983C61.1586 67.6672 61.1062 66.6757 61.5835 66.2665C61.9612 65.8573 62.5067 66.1826 62.9578 66.2298C66.7817 66.9275 70.6056 67.6829 74.3089 68.8947C74.5449 67.2475 74.9121 65.6212 75.4052 64.0422C71.1879 63.7589 66.9758 63.1924 62.8791 62.1537C61.9927 62.0697 62.0713 60.6323 62.9053 60.5536C63.8705 60.6218 64.8357 60.8369 65.7956 61.01C69.0844 61.6605 72.3891 62.6992 75.4052 64.0369C75.5783 63.4704 75.7671 62.9143 75.9717 62.3635C76.3756 61.2829 76.8319 60.2126 77.3512 59.1739C72.751 58.9379 68.2242 58.2297 63.7971 56.9916C63.2411 56.9077 63.0575 56.2153 63.1938 55.7326C63.3145 55.229 63.881 54.7201 64.4055 54.9877C68.8379 55.9844 73.2493 57.3484 77.5086 58.8645C78.3846 57.1438 79.4179 55.5123 80.5981 53.9857C76.0766 53.7496 71.5236 52.947 67.1174 51.8611C66.2834 51.6356 64.9091 51.6408 65.1242 50.408C65.1924 49.8677 65.7064 49.2696 66.2939 49.4322C66.5037 49.5057 66.7293 49.5372 66.9443 49.5844C71.6757 50.5549 76.2497 52.1234 80.8079 53.7129C81.8203 52.4276 82.9481 51.2264 84.1702 50.1352C79.7012 49.6106 75.2845 48.6349 70.9675 47.3601C70.7787 47.2709 70.5322 47.2185 70.2856 47.1608C69.6562 47.0139 68.9848 46.8565 69.0058 46.1535C69.0897 45.2092 69.8136 45.1673 70.5427 45.4821C75.2426 46.6467 79.9529 48.0788 84.4063 49.9254C84.9099 49.4899 85.4239 49.086 85.896 48.7345C87.0185 47.9004 88.2249 47.1555 89.4891 46.5365C85.1564 45.9385 80.8551 45.0991 76.6536 43.8768C76.4962 43.8243 76.3284 43.7824 76.15 43.7404C75.4786 43.5725 74.8124 43.4046 74.9488 42.5496C75.1219 41.343 76.4385 41.6997 77.2778 41.8886C79.4284 42.387 81.5423 43.0427 83.63 43.7824C85.7439 44.5483 87.8892 45.3981 89.9192 46.3319C91.1781 45.7443 92.4947 45.288 93.8375 44.9942C88.5082 43.1214 83.0635 41.5686 77.7289 39.6905C77.624 39.6538 77.5086 39.6223 77.3932 39.5909C77.3722 39.6014 77.3512 39.6066 77.325 39.6171L77.3197 39.6223ZM14.3433 33.3744C13.1789 37.4767 12.0144 41.5791 10.8446 45.6814C9.64869 49.8624 8.45274 54.0435 7.26728 58.2297C6.1028 62.3058 4.97503 66.3871 3.82104 70.4632C3.77384 70.6416 3.72138 70.82 3.66893 70.9983C3.86301 71.0718 4.05709 71.1924 4.24592 71.376C6.727 72.8134 9.38118 73.9046 11.9724 75.1216C16.0901 77.1466 20.769 77.8652 24.9181 79.7171C25.8203 79.8325 26.7225 79.9479 27.6247 80.0686C33.0275 80.7401 38.3935 81.6319 43.8068 82.2299C47.5363 82.6076 51.2763 83.0902 54.9481 83.7984C57.6075 84.2496 60.2931 84.5538 62.9683 84.9106C62.1815 84.3755 61.4576 83.7354 60.8282 83.022C60.1148 82.2036 59.4853 81.3171 58.9608 80.3623C58.4625 79.4495 58.0586 78.5 57.7176 77.5242C57.0515 75.6305 56.7105 73.6055 56.5689 71.6121C56.4378 69.5766 56.5112 67.5255 56.7787 65.5058C56.9675 64.0999 57.2351 62.7202 57.576 61.3458C58.5726 57.3694 60.2249 53.566 62.3546 50.0617C63.4142 48.3044 64.6311 46.6414 65.9896 45.1043C67.3272 43.5935 68.8012 42.1928 70.4378 41.0177C71.576 40.1994 72.772 39.465 74.0414 38.8617C74.6761 38.5574 75.3265 38.2846 75.9927 38.0486C76.0818 38.0171 76.1762 37.9856 76.2707 37.9541C73.5116 37.3981 70.7525 36.8525 67.9934 36.2964C64.2796 35.541 60.5711 34.7856 56.8626 34.0197C53.1017 33.2538 49.3407 32.4774 45.5798 31.701C43.7491 31.318 41.9185 30.935 40.0826 30.5468C39.1594 30.3527 38.2362 30.1587 37.313 29.9541C36.9563 29.8754 36.5944 29.7914 36.2377 29.697C35.325 33.2957 34.407 36.8892 33.5153 40.4984C32.4767 44.7004 31.4644 48.9077 30.4363 53.1097C29.4134 57.2645 28.4115 61.4192 27.3887 65.5635C26.9428 67.3681 26.497 69.1727 26.0458 70.9773C25.6682 72.4934 25.2643 74.0095 24.8919 75.5308C24.8814 75.6148 24.8604 75.7039 24.8499 75.7564C24.8132 75.856 24.7974 75.9557 24.766 76.0607C24.6086 76.5538 24.1155 77.0731 23.57 76.921C23.5176 76.9105 23.4651 76.8842 23.4127 76.8632C22.9773 76.6429 22.8776 76.1498 22.9511 75.7039C22.9511 75.7039 22.9511 75.7039 22.9406 75.7039C22.9615 75.599 22.993 75.4941 23.0088 75.3944C23.0297 75.2843 23.0612 75.1688 23.1137 75.0587C23.2973 74.3505 23.4599 73.6422 23.633 72.934C23.8742 71.9793 24.1103 71.0298 24.3516 70.0803C24.8604 68.0816 25.3692 66.0828 25.8885 64.0841C26.9585 59.9451 28.0339 55.8061 29.1039 51.6618C30.2055 47.4336 31.3122 43.2053 32.3928 38.9666C33.1901 35.8505 33.9664 32.7239 34.7427 29.6026C28.8941 27.3626 23.2081 24.7291 17.5483 22.0694C16.4782 25.8412 15.3977 29.6078 14.3328 33.3797L14.3433 33.3744ZM109.422 51.2263H109.548C109.621 51.2368 109.689 51.2474 109.757 51.2631C110.077 51.3523 110.313 51.5883 110.486 51.8768C110.523 51.9345 110.56 51.9923 110.597 52.05C110.644 52.1129 110.686 52.1864 110.717 52.2598C110.791 52.3857 110.864 52.5116 110.938 52.6375C111.619 50.1667 112.244 47.6748 112.826 45.1725C112.815 45.1725 112.8 45.1725 112.789 45.1725V45.1778C112.758 45.1673 112.732 45.1673 112.711 45.1621C109.039 44.4801 105.377 43.7561 101.721 43.0322C97.9709 42.2873 94.2257 41.5371 90.4805 40.7922C89.0065 40.4984 87.5325 40.2046 86.0586 39.9109C91.3774 41.385 96.7068 42.8853 101.611 45.3247C104.758 46.3739 107.491 48.5089 109.416 51.2211L109.422 51.2263ZM89.4681 38.4315C90.4333 38.6204 91.3932 38.8092 92.3531 38.9981C96.0773 39.7325 99.7963 40.4722 103.515 41.2224C105.199 41.5581 106.888 41.8991 108.572 42.2453C110.083 42.5601 111.599 42.8433 113.104 43.1791C113.125 43.1896 113.156 43.1896 113.183 43.2001C113.183 43.2001 113.193 43.2001 113.198 43.2053C113.209 43.2053 113.219 43.2053 113.23 43.2053C113.251 43.2053 113.261 43.2158 113.282 43.2211C114.573 37.5292 115.695 31.7954 116.875 26.156C116.534 26.114 116.167 25.9829 115.847 25.9252C112.857 25.3324 109.962 24.3934 107.04 23.5435C105.582 23.1134 104.113 22.7147 102.645 22.3265C100.048 21.634 97.4516 20.9415 94.9286 20.0235C94.7293 19.9448 94.5142 19.8766 94.3306 19.7612C93.4179 24.5822 91.4299 36.2702 89.4681 38.4315ZM76.6955 16.8759C76.6221 17.3848 76.5382 17.8831 76.4542 18.392C76.2759 19.4884 76.0923 20.5848 75.9087 21.6812C75.5573 23.8006 75.1953 25.9147 74.8492 28.034C74.461 30.3737 74.1148 32.7292 73.6637 35.0584C73.6532 35.1318 73.6322 35.2105 73.6007 35.2839C76.0766 35.7718 78.5524 36.2649 81.0282 36.7528C83.3939 37.2197 85.7491 37.6866 88.1096 38.1587C87.7686 37.3089 88.6865 36.1495 88.8649 35.2892C89.4891 33.3115 90.0556 31.3128 90.6221 29.3193C91.8233 25.2012 92.3321 20.8681 93.6172 16.792C93.3969 16.9756 93.1137 17.0648 92.8357 16.9231C92.3741 16.6818 91.86 16.5874 91.346 16.493C90.9998 16.43 90.6483 16.3671 90.3231 16.2569C83.7034 14.6831 77.1257 12.9415 70.6266 10.9323C65.8847 9.34801 61.0904 7.94735 56.3014 6.50471C55.6509 6.29488 54.9953 6.11652 54.3553 5.8857C54.4865 6.24242 54.3868 6.69355 54.156 7.03978C57.0148 7.83191 59.8787 8.61881 62.7323 9.43718C63.3355 9.60505 63.4928 10.35 63.346 10.8851C63.325 10.948 63.304 11.0162 63.2725 11.0792C63.2935 11.0897 63.304 11.1001 63.325 11.1054C63.8653 11.2837 64.416 11.4359 64.9668 11.5985C68.3973 12.6792 71.8855 13.6602 75.2478 14.9087C75.4576 15.0293 75.6622 15.171 75.8458 15.3336C75.8563 15.3284 75.872 15.3231 75.8877 15.3179C76.0136 15.2654 76.1657 15.2497 76.2969 15.2864C76.3598 15.3022 76.4123 15.3284 76.4647 15.3703C76.8004 15.6431 76.8057 16.0628 76.7585 16.4668C76.7427 16.6084 76.7165 16.75 76.6955 16.8812V16.8759ZM45.8368 29.9174C49.3827 30.5836 52.9233 31.2708 56.4535 31.958C56.4797 31.958 56.5059 31.9685 56.5374 31.9738C56.5479 31.9738 56.5584 31.979 56.5584 31.979C57.041 32.0629 57.5236 32.1573 57.9904 32.2518C58.0219 32.257 58.0586 32.2623 58.0953 32.2728H58.1058C58.2946 32.3147 58.4782 32.3462 58.6723 32.3777C58.688 32.3777 58.7038 32.3882 58.7143 32.3882C58.73 32.3882 58.7457 32.3934 58.751 32.3934C62.4438 33.0911 66.1365 33.8151 69.824 34.5443C70.422 34.6597 71.02 34.7751 71.618 34.8957C71.618 34.8853 71.6232 34.8748 71.618 34.8643C71.618 34.8171 71.6285 34.7751 71.6442 34.7331C71.6967 34.4498 71.7386 34.1666 71.7806 33.8833C71.8488 33.4846 71.9275 33.0964 72.0061 32.6977C72.4153 30.6833 72.8139 28.6635 73.2073 26.6439C73.5745 24.7501 73.9469 22.8563 74.3194 20.9573C74.5082 19.9973 74.697 19.0373 74.8859 18.0825C74.975 17.6419 75.059 17.1907 75.1586 16.75C74.5816 16.75 74.0046 16.6398 73.4644 16.4143C70.0024 15.3126 66.5876 14.0851 63.1257 12.9939C62.9001 12.9205 62.6746 12.847 62.5015 12.7106C62.3965 13.3192 62.192 13.9382 62.1553 14.5362C61.83 15.79 62.1448 17.3008 61.3842 18.3868C60.7233 18.9638 59.6899 18.9376 58.772 18.9113C58.3943 18.9009 58.0324 18.8904 57.7281 18.9218C53.4689 19.074 49.3879 18.2084 45.3752 16.9336C39.7154 15.3494 34.1762 13.4084 28.9675 10.67C28.3801 10.9375 27.9814 10.5073 27.8817 9.98799C27.7244 10.0457 27.5618 10.0824 27.3992 10.1087C25.2958 9.96179 23.1399 9.70472 21.0575 9.27455C21.0575 9.50013 21.0103 9.72571 20.9578 9.9303C20.9526 9.9303 20.9473 9.9303 20.9368 9.9303C20.7952 9.9303 20.685 10.0667 20.6955 10.1978C20.7008 10.2818 20.748 10.3552 20.8109 10.3972C20.8109 10.4077 20.8109 10.4234 20.8109 10.4392C20.8109 10.4549 20.8109 10.4654 20.8109 10.4811C20.7322 10.7801 20.6483 11.0739 20.5644 11.3729C20.2811 12.3906 19.9979 13.3979 19.7146 14.4156C19.1901 16.3041 18.6551 18.1927 18.12 20.076C18.12 20.076 18.1253 20.076 18.1305 20.0812C22.4003 21.996 26.6438 24.0734 31.029 25.6839C32.4557 26.2295 33.8982 26.7645 35.3197 27.3311L35.5925 26.2609C36.0698 24.3566 36.5472 22.4524 37.0245 20.5481C37.2658 19.6038 37.5018 18.6596 37.7431 17.7153C37.8638 17.2484 37.9792 16.7815 38.105 16.3146C38.2047 15.9317 38.2834 15.4648 38.6191 15.2077C38.8027 15.0661 39.023 15.0189 39.2171 15.0766C39.3744 15.1185 39.5161 15.2287 39.5947 15.4071C39.7993 15.8425 39.6052 16.3618 39.5003 16.8025C39.3849 17.2904 39.259 17.7782 39.1384 18.2609C38.8761 19.2996 38.6191 20.3382 38.3568 21.3769C37.8218 23.5016 37.2815 25.6262 36.7465 27.7508C36.7098 27.8924 36.6731 28.0341 36.6363 28.1809C36.6468 28.1967 36.6521 28.2124 36.6521 28.2229C36.6731 28.2229 36.6993 28.2281 36.7203 28.2334C37.1976 28.3068 37.6697 28.3908 38.147 28.4747C39.1384 28.6531 40.1403 28.8419 41.0949 29.0203C41.3152 29.0623 41.5303 29.1042 41.6457 29.1252C41.8975 29.1672 42.144 29.2144 42.2856 29.2406L42.4378 29.2668C42.5794 29.2931 42.721 29.3193 42.8416 29.3455C42.8941 29.356 42.9466 29.3665 42.9833 29.3718C43.0148 29.3718 43.0515 29.3823 43.0724 29.3875H43.0829C43.1144 29.398 43.1459 29.398 43.1616 29.4032C43.3505 29.44 43.5393 29.4767 43.6232 29.4924L43.7334 29.5134C43.7753 29.5239 43.8173 29.5291 43.8278 29.5344C43.9379 29.5554 44.0586 29.5764 44.0691 29.5764C44.153 29.5973 44.2474 29.6078 44.3104 29.6236C44.3838 29.6341 44.4572 29.6498 44.5202 29.6603C44.6303 29.6813 44.7352 29.7023 44.7457 29.7023C44.8506 29.7232 44.9556 29.7442 45.0237 29.7547C45.0552 29.76 45.0867 29.7652 45.1077 29.7705C45.1287 29.7705 45.1496 29.781 45.1654 29.781C45.1759 29.781 45.1811 29.781 45.1916 29.781C45.2178 29.781 45.2441 29.7914 45.2493 29.7914H45.2545C45.4853 29.8334 45.7161 29.8806 45.8473 29.9069L45.8368 29.9174ZM59.585 12.1179C59.4329 12.1966 59.3175 12.2962 59.2336 12.4536C59.1549 12.6057 59.1129 12.7788 59.0762 12.9467C59.0395 13.1146 59.0028 13.2877 58.9713 13.4608C58.9031 13.8858 58.8402 14.3107 58.7877 14.7356C58.751 15.0818 59.008 15.3913 59.3227 15.4805C59.3699 15.491 59.4119 15.5015 59.4591 15.5015C59.8578 15.5277 60.183 15.2235 60.2249 14.8353C60.2459 14.6149 60.2774 14.3841 60.2984 14.1638C60.2984 14.1638 60.2984 14.1638 60.2984 14.1585C60.2984 14.1585 60.2984 14.148 60.2984 14.1428C60.2984 14.1428 60.2984 14.141 60.2984 14.1376C60.2984 14.1376 60.2984 14.1323 60.2984 14.127C60.2984 14.127 60.2984 14.1061 60.2984 14.1008C60.2984 14.1008 60.2984 14.0956 60.2984 14.0903C60.3246 13.8805 60.3561 13.6759 60.3928 13.4713C60.5659 13.3139 60.6656 13.0726 60.6131 12.8313C60.5869 12.6949 60.5502 12.5638 60.4977 12.4431C60.419 12.2648 60.2459 12.1336 60.0571 12.0812C59.9941 12.0654 59.926 12.0549 59.8578 12.0549C59.7581 12.0549 59.6584 12.0759 59.5693 12.1231L59.585 12.1179ZM55.1998 11.2156C55.1789 11.3257 55.1789 11.4411 55.1998 11.5461V11.5566C55.0792 12.3277 54.9428 13.0936 54.8222 13.8648C54.754 14.3264 55.011 14.7776 55.4621 14.9035C55.4831 14.9087 55.5041 14.914 55.5251 14.9244C55.9971 15.0189 56.5007 14.7041 56.5846 14.2163C56.7 13.5395 56.8154 12.8628 56.9308 12.1808C56.9728 11.8871 57.0515 11.5566 56.9938 11.2575C56.9308 10.927 56.6895 10.6438 56.3748 10.5388C56.3643 10.5388 56.3486 10.5283 56.3328 10.5283C56.2542 10.5074 56.1702 10.4969 56.0916 10.4969C55.6772 10.4969 55.289 10.7854 55.1998 11.2156ZM48.5854 9.4739C48.2759 10.1244 48.15 10.8484 48.0189 11.5513C47.9507 11.9238 47.9035 12.3067 47.8668 12.6844C47.83 13.0674 47.7933 13.4503 47.7881 13.828C47.7828 14.169 47.9874 14.4785 48.3126 14.5677C48.3546 14.5782 48.407 14.5887 48.4542 14.5939C48.8319 14.6202 49.2148 14.3159 49.2201 13.9277C49.2306 13.3926 49.2883 12.8628 49.346 12.3277C49.346 12.3277 49.346 12.3224 49.346 12.3172C49.346 12.3067 49.346 12.2962 49.346 12.2805C49.346 12.2648 49.346 12.2543 49.3512 12.2385C49.3512 12.2123 49.3617 12.186 49.3617 12.1546C49.3617 12.1283 49.3722 12.0969 49.3722 12.0654C49.3722 12.0549 49.3722 12.0392 49.3774 12.0339C49.3774 12.0129 49.3827 11.992 49.3879 11.971C49.3879 11.9605 49.3879 11.95 49.3879 11.9395C49.3879 11.929 49.3879 11.9238 49.3879 11.9185C49.3984 11.8661 49.3984 11.8136 49.4089 11.7611C49.4089 11.7926 49.3984 11.8241 49.3984 11.8556C49.4456 11.4726 49.54 11.0896 49.6292 10.7119C49.6922 10.5178 49.7446 10.3237 49.818 10.1296C49.8233 10.1192 49.8285 10.1087 49.8285 10.0982C49.9911 9.75194 49.8548 9.33227 49.5033 9.15916C49.4719 9.14342 49.4299 9.12767 49.3879 9.11718C49.325 9.10144 49.262 9.09621 49.2043 9.09621C48.9421 9.09621 48.685 9.24309 48.5696 9.4844L48.5854 9.4739ZM51.7221 10.2083C51.3287 10.2818 51.1032 10.649 51.1609 11.0267C51.1609 11.032 51.1609 11.0372 51.1609 11.0424C51.1609 11.0582 51.1609 11.0739 51.1609 11.0897C51.1556 11.4779 51.1032 11.8608 51.0612 12.2438C51.0088 12.6582 50.9563 13.0779 50.9143 13.4923C50.8724 13.8281 51.1242 14.1428 51.4389 14.2267C51.4808 14.2372 51.5281 14.2477 51.5753 14.2529C51.9739 14.2844 52.2939 13.9802 52.3358 13.592C52.3883 13.1251 52.446 12.6582 52.4932 12.1913C52.5404 11.7244 52.6191 11.2313 52.5457 10.7644C52.5089 10.4916 52.2939 10.287 52.0421 10.2188C51.9792 10.2031 51.9162 10.1978 51.8585 10.1978C51.8165 10.1978 51.7693 10.1979 51.7274 10.2083H51.7221ZM44.6198 8.46144C44.5569 8.6398 44.5831 8.84964 44.6671 9.01751C44.6199 9.84637 44.4887 10.6647 44.4572 11.4988C44.4467 11.8556 44.6671 12.1756 45.0028 12.27C45.05 12.2805 45.0972 12.291 45.1496 12.2962C45.5378 12.3277 45.9469 12.0129 45.9469 11.6038C45.9522 11.0372 45.9994 10.4811 46.0361 9.91458C46.0571 9.61031 46.0886 9.30605 46.0833 9.00179C46.0781 8.74998 46.0518 8.5244 45.9155 8.30932C45.8106 8.15194 45.6637 8.06801 45.4958 8.01555C45.4276 7.99981 45.3647 7.99454 45.2965 7.99454C44.9975 7.99454 44.7195 8.16243 44.6198 8.46669V8.46144ZM40.5966 6.72503C40.5442 6.99258 40.5966 7.25487 40.733 7.46995C40.5494 8.56635 40.2976 9.65752 40.2504 10.7644C40.2294 11.2523 40.5389 11.693 40.9953 11.8189C41.0582 11.8346 41.1317 11.8451 41.1998 11.8503C41.7506 11.8923 42.2489 11.4621 42.2856 10.906C42.2961 10.7172 42.3171 10.5231 42.3433 10.3342C42.4535 9.6103 42.5899 8.88111 42.721 8.15717C42.8102 7.65356 42.9833 7.03979 42.7525 6.55716C42.6213 6.28437 42.3696 6.06405 42.0758 5.98012C42.0339 5.96963 41.9919 5.95913 41.9499 5.94339C41.929 5.94339 41.9132 5.93288 41.8975 5.92239C41.8083 5.90141 41.7191 5.8857 41.63 5.8857C41.1526 5.8857 40.7015 6.22666 40.6019 6.71453L40.5966 6.72503ZM37.7798 5.43452C37.5962 5.52895 37.4441 5.69157 37.3707 5.89617C37.1714 6.5047 37.0665 7.14996 36.9511 7.77947C36.8147 8.48243 36.6311 9.20637 36.8147 9.91458C36.8934 10.2031 37.1399 10.4077 37.4179 10.4864C37.591 10.5336 37.7746 10.5388 37.9424 10.4811C38.1627 10.4077 38.3621 10.2398 38.4617 10.0247C38.5666 9.82013 38.5666 9.61032 38.5194 9.39523C38.5194 9.39523 38.5194 9.39523 38.5194 9.38998V9.37948V9.36898C38.5194 9.32701 38.5194 9.2903 38.5142 9.25358C38.5299 8.94407 38.5771 8.6398 38.6086 8.32504C38.6086 8.32504 38.6086 8.30931 38.6086 8.30407C38.703 7.64308 38.7974 6.97683 38.9496 6.32109C39.002 6.08502 38.9391 5.84895 38.7922 5.66009C38.7135 5.55517 38.6034 5.47125 38.4775 5.41355C38.4355 5.39781 38.3935 5.38206 38.3516 5.37157C38.3411 5.37157 38.3254 5.36635 38.3096 5.3611C38.2572 5.35061 38.2047 5.34535 38.1523 5.34535C38.0211 5.34535 37.8952 5.37682 37.7851 5.43452H37.7798ZM33.6202 7.13423C33.4786 7.50145 33.7146 7.93162 34.0766 8.05227C34.0923 8.05227 34.1028 8.0575 34.1185 8.06274C34.4857 8.16766 34.8634 7.95258 34.9945 7.6011C35.2043 7.03978 35.4142 6.46799 35.5558 5.88045C35.5872 5.7388 35.624 5.59191 35.6554 5.45027C35.6974 5.23519 35.7446 5.00961 35.7026 4.78928C35.6817 4.68961 35.6502 4.60044 35.6187 4.51126C35.6187 4.51126 35.6187 4.50951 35.6187 4.50601C35.6187 4.50601 35.603 4.45879 35.5977 4.43256L35.6187 4.51648C35.6187 4.51648 35.6187 4.54272 35.6187 4.55321C35.5873 4.27517 35.3984 4.03912 35.0994 3.97617C34.7637 3.90797 34.3703 4.13879 34.3179 4.49551C34.3021 4.6319 34.3021 4.75254 34.3493 4.8732C34.3598 4.89419 34.3703 4.9152 34.3808 4.93618C34.3598 5.03061 34.3388 5.13027 34.3126 5.21945C34.1238 5.86995 33.8825 6.50469 33.6255 7.13945L33.6202 7.13423ZM30.9241 6.64111C30.8244 7.00308 31.0237 7.39126 31.3909 7.50142C31.3909 7.50142 31.3962 7.50142 31.4014 7.50142C31.7476 7.59585 32.1567 7.39128 32.2459 7.02931C32.3508 6.61488 32.4557 6.1952 32.5502 5.78077C32.6341 5.4188 32.7023 5.05683 32.7705 4.69486C32.7705 4.68437 32.7705 4.67913 32.7705 4.66863C32.7705 4.65814 32.7757 4.64765 32.781 4.63716C32.8649 4.29617 32.6708 3.93944 32.3298 3.83977C31.9889 3.73485 31.606 3.93943 31.5063 4.28566C31.4539 4.47451 31.4224 4.66337 31.3804 4.84698C31.3909 4.82075 31.3962 4.78929 31.4014 4.76306C31.2493 5.39257 31.0867 6.0116 30.9188 6.63586L30.9241 6.64111Z" fill="black"/>
<path d="M86.2214 87.4024C86.0378 87.308 85.849 87.2082 85.7913 87.1715C82.13 85.1256 80.0266 81.1492 79.2607 77.136C78.4844 73.0809 78.9618 68.8842 80.2888 64.9969C81.5845 61.1884 83.84 57.6106 86.8981 54.9719C88.3982 53.6762 90.0925 52.6322 91.9651 51.9503C93.8482 51.2631 95.8677 51.0952 97.84 51.4152C99.3874 51.6722 100.909 52.328 102.141 53.2933C102.482 53.5661 102.813 53.8546 103.117 54.1641C103.274 54.1064 103.447 54.0906 103.631 54.1379C103.809 54.1851 103.946 54.2743 104.035 54.3635C104.056 54.3897 104.077 54.4054 104.098 54.4316C104.098 54.4316 104.113 54.4421 104.113 54.4473L104.276 54.6258C106.663 57.2854 107.78 60.8579 108.079 64.3622C108.43 68.5484 107.617 72.7924 105.944 76.6219C104.266 80.462 101.575 83.982 98.0078 86.2377C97.1161 86.8043 96.1562 87.2922 95.1648 87.6542C94.1367 88.0266 93.0876 88.2732 91.9966 88.3991C90.68 88.5512 89.311 88.441 88.0206 88.0791C87.4016 87.9059 86.7984 87.6752 86.2319 87.3866L86.2214 87.4024ZM84.8786 76.2285C85.3769 80.3098 87.8055 83.9663 91.5035 85.8076C91.5875 85.8705 91.6557 85.9335 91.7134 86.0017C92.1854 85.9597 92.647 85.902 93.1139 85.8181C93.7171 85.6817 94.2941 85.5033 94.8711 85.2988C95.49 85.0522 96.088 84.7689 96.6755 84.4489C97.2525 84.1079 97.8085 83.7355 98.3436 83.3368C98.3698 83.321 98.3908 83.3 98.3908 83.2948C99.0097 82.8174 99.592 82.2823 100.143 81.7315C100.662 81.1912 101.15 80.6246 101.617 80.0371C102.173 79.2974 102.692 78.5315 103.175 77.7341C103.61 76.9787 103.998 76.2075 104.355 75.4154C104.691 74.618 104.989 73.8153 105.252 72.9917C105.509 72.1209 105.719 71.2501 105.892 70.3583C106.023 69.5609 106.122 68.7636 106.17 68.1236C106.222 67.2527 106.222 66.3871 106.18 65.5215C106.133 64.871 106.054 64.2258 105.949 63.5858C105.823 62.9091 105.661 62.2428 105.467 61.5818C105.252 60.9208 105.01 60.2704 104.774 59.7405C104.753 59.6933 104.732 59.6514 104.711 59.6041C104.711 59.6041 104.711 59.6041 104.696 59.5779C104.433 59.0428 104.15 58.5235 103.83 58.0199C103.542 57.5844 103.222 57.1753 102.891 56.7766C100.594 55.6644 97.9239 55.4966 95.4219 55.8638C92.1959 56.3989 89.8879 58.3923 88.2619 60.9681C90.2394 59.1687 94.2154 59.1372 95.49 61.713C98.2334 65.0599 96.0775 71.1452 93.287 73.8888C92.5107 74.6233 91.5035 74.9957 90.4702 75.0534C89.0697 75.557 87.559 75.5675 86.148 74.7019C85.6392 74.4344 85.1461 74.0567 84.7317 73.616C84.716 74.4869 84.7579 75.3577 84.8838 76.2233L84.8786 76.2285ZM90.2341 61.7078C90.6853 62.1222 91.0367 62.6887 91.299 63.1976C92.6418 66.0357 92.2641 69.6186 90.2709 72.058C90.1397 72.2206 89.9929 72.3832 89.8355 72.5353C90.2394 72.6088 90.638 72.6508 91.0367 72.6717C93.6542 72.0317 94.7609 67.8455 94.6718 65.4533C94.5301 64.2258 93.4706 63.2343 93.7171 61.9753C93.3552 61.7654 93.0037 61.6133 92.6575 61.5136C91.7868 61.2723 90.9737 61.372 90.2341 61.7078Z" fill="black"/>
<path d="M127.136 97.5165C126.386 97.2752 126.234 96.4411 126.391 95.7591C126.658 94.6207 127.77 94.0384 128.326 93.0679C131.222 88.6456 132.245 81.763 129.675 77.0154C128.951 75.5203 127.005 74.5865 127.162 72.7557C126.207 72.3203 126.512 70.7727 127.461 70.4895C128.72 70.2377 129.916 69.7498 131.054 69.157C134.6 67.2212 136.73 63.5648 138.739 60.1969C139.646 58.3661 139.824 56.3096 140.155 54.3162C140.26 53.6185 140.359 52.8998 140.952 52.4382C142.531 51.1424 143.753 54.7149 144.939 55.4756C148.306 59.0009 157.014 62.5471 161.734 60.9051C162.7 60.2861 163.707 61.3773 163.455 62.3635C163.104 63.4337 162.852 64.5248 162.904 65.6632C163.334 71.5229 164.981 78.0121 170.363 81.1492C172.419 82.3453 174.659 83.2003 176.778 84.2862C177.497 84.6482 178.383 85.0312 178.415 85.9702C178.483 88.8503 174.848 87.607 173.096 87.4076C165.196 85.2515 162.883 86.1066 158.078 92.7847C156.751 95.0247 155.944 97.6004 155.797 100.202C155.991 101 156.321 101.855 155.624 102.542C155.199 102.993 154.37 103.135 153.998 102.521C152.293 99.2424 148.868 97.548 145.663 96.0372C143.381 94.988 140.8 93.7814 138.282 93.8286C136.116 93.8286 133.96 94.1486 131.904 94.8463C130.76 95.329 129.339 95.649 128.662 96.7664C128.316 97.2123 127.791 97.6896 127.188 97.5217C127.172 97.5217 127.162 97.5166 127.146 97.5113L127.136 97.5165ZM137.459 66.6232C135.649 69.2095 133.152 71.3288 130.12 72.3255C134.784 77.3039 134.033 85.8129 131.715 91.7408C135.733 90.2929 140.38 89.9519 144.304 91.8824C147.656 93.4719 151.191 95.0562 153.814 97.7526C154.632 93.2411 157.181 89.2646 160.596 86.2535C162.726 84.1446 165.726 83.0954 168.716 83.5781C162.637 79.5754 160.591 71.292 160.528 64.3989C153.704 65.0494 146.476 62.0645 142.174 56.7136C141.802 60.4854 139.625 63.6278 137.453 66.6127L137.459 66.6232Z" fill="black"/>
<path d="M120.778 79.1085C120.348 78.9039 120.254 78.3373 120.369 77.9229C120.505 77.435 120.93 77.0416 121.455 77.1465C123.595 77.7131 125.604 78.7675 127.435 80.0003C125.677 80.0843 123.768 80.0318 122.011 79.5439C121.591 79.4285 121.177 79.2816 120.778 79.1137V79.1085Z" fill="black"/>
<path d="M121.423 84.8791C120.82 84.4069 121.093 83.2739 121.817 83.0798C123.899 82.6706 126.055 82.6129 128.169 82.7545C126.338 83.8037 124.23 84.5643 122.121 84.9525C121.948 84.9893 121.77 85.0155 121.607 84.9683C121.544 84.9525 121.481 84.921 121.423 84.8791Z" fill="black"/>
<path d="M122.262 90.9643C119.855 88.2417 128.09 85.005 129.957 84.1079C128.515 85.7919 126.894 87.4811 125.368 88.9132C124.785 89.464 124.408 89.805 123.899 90.3558C123.631 90.8332 123.075 91.2529 122.551 91.1112C122.451 91.085 122.357 91.0378 122.262 90.9696V90.9643Z" fill="black"/>
<path d="M133.021 104.011C133.719 101.965 134.458 99.9139 135.518 98.0254C135.801 97.527 136.142 96.9552 136.735 96.803C137.327 96.6089 137.852 97.2018 137.862 97.7578C137.894 98.3559 137.684 99.0641 137.097 99.3211C135.859 100.989 134.484 102.553 133.021 104.027C133.021 104.027 133.016 104.016 133.016 104.011H133.021Z" fill="black"/>
<path d="M140.134 101.031C139.877 99.6726 139.73 98.0988 140.469 96.866C141.151 95.9899 142.043 97.0129 141.55 97.8103C141.057 98.87 140.737 100.029 140.139 101.042C140.139 101.042 140.139 101.042 140.134 101.031Z" fill="black"/>
<path d="M144.482 97.6792C144.975 97.6372 145.269 98.1303 145.248 98.5762C145.552 100.926 146.276 103.292 146.434 105.643C145.683 104.226 142.006 98.4503 144.487 97.6844L144.482 97.6792Z" fill="black"/>
<path d="M162.621 101.32C161.781 100.438 157.569 94.6627 160.045 94.3217C160.26 94.3427 160.407 94.4791 160.517 94.6627C161.503 96.7716 162.127 99.1008 162.626 101.325L162.621 101.32Z" fill="black"/>
<path d="M163.759 96.4568C162.82 95.8221 162.065 94.9669 161.268 94.1748C160.811 93.9807 160.706 93.3302 160.827 92.9053C161.341 91.5466 162.348 92.0187 162.983 92.9997C164.278 94.6522 165.448 96.3886 166.749 98.0359C165.721 97.6792 164.698 97.0706 163.759 96.4568Z" fill="black"/>
<path d="M161.75 91.2424C161.383 87.6699 170.001 91.9349 171.543 92.5591C168.443 92.7532 165.249 92.0607 162.17 91.8299C161.939 91.7198 161.803 91.4837 161.75 91.2424Z" fill="black"/>
<path d="M167.635 65.8363C167.934 66.2612 167.861 66.9642 167.488 67.3261C166.896 68.9839 166.371 70.6993 165.59 72.2363C165.458 71.0035 165.201 64.1524 167.635 65.8363Z" fill="black"/>
<path d="M169.66 69.4035C169.886 69.0258 170.363 68.7321 170.778 69.0364C172.194 70.4737 168.307 72.8921 167.263 73.5689C167.908 72.058 168.748 70.7308 169.666 69.4088L169.66 69.4035Z" fill="black"/>
<path d="M168.149 76.8685C167.095 76.3072 167.74 74.2718 168.947 74.5551C171.297 74.6023 173.552 74.597 175.871 74.9695C174.407 75.6882 172.75 76.26 171.145 76.7112C170.263 76.8948 169.282 77.199 168.391 76.9524C168.307 76.9315 168.228 76.9 168.144 76.8685H168.149Z" fill="black"/>
<path d="M150.598 56.3779C149.455 55.0716 147.792 52.2178 149.539 50.8224C149.854 50.6231 150.257 50.6913 150.478 51.0008C150.703 51.3208 150.688 51.7509 150.525 52.0972C150.541 53.5188 150.651 54.972 150.604 56.3831L150.598 56.3779Z" fill="black"/>
<path d="M153.531 56.9602C153.42 55.8218 153.006 51.4047 154.753 51.5673C156.19 52.0814 153.992 56.0212 153.536 56.9707C153.536 56.9707 153.536 56.9707 153.536 56.9654L153.531 56.9602Z" fill="black"/>
<path d="M155.597 58.8068C154.029 56.3621 161.262 54.9772 162.799 54.5576C160.953 56.1628 158.986 57.5949 156.909 58.875C156.672 59.1163 156.332 59.2002 156.038 59.1215C155.87 59.0743 155.713 58.9694 155.597 58.812V58.8068Z" fill="black"/>
<path d="M135.046 61.2618C133.981 60.0815 131.505 56.7818 133.719 55.7064C135.444 55.3182 135.182 60.2021 135.046 61.2618Z" fill="black"/>
<path d="M132.045 62.3687C131.484 62.0749 131.022 61.6553 130.487 61.3143C129.59 60.8212 130.23 59.0742 131.243 59.4887C132.46 60.1287 132.958 61.6291 133.288 62.8828C133.236 62.8724 133.184 62.8618 133.126 62.8461C132.764 62.7464 132.381 62.5418 132.04 62.3687H132.045Z" fill="black"/>
<path d="M126.464 65.1963C126.029 65.0179 125.945 64.4041 126.055 64.0159C126.427 62.8094 127.597 63.271 128.615 63.6907C128.977 63.8376 129.318 63.9845 129.596 64.0474C129.59 64.0474 129.585 64.0474 129.58 64.0422C131.007 64.6088 132.481 65.2802 133.745 66.0776C131.778 66.3294 129.779 66.2193 127.886 65.6894C127.403 65.553 126.921 65.3904 126.454 65.2015L126.464 65.1963Z" fill="black"/>
<path d="M106.18 65.5268C106.222 66.3976 106.222 67.2632 106.17 68.1288C106.123 68.7688 106.023 69.5662 105.892 70.3636C105.724 71.2554 105.509 72.1262 105.252 72.997C104.99 73.8154 104.696 74.6232 104.355 75.4206C103.993 76.2127 103.605 76.9839 103.169 77.7393C102.687 78.5367 102.168 79.2974 101.612 80.0423C101.145 80.6299 100.657 81.1964 100.138 81.7367C99.5815 82.2876 99.0045 82.8226 98.3856 83.3C98.3856 83.3 98.3646 83.321 98.3384 83.342C97.8033 83.7407 97.2473 84.1132 96.6703 84.4542C96.0829 84.7742 95.4849 85.0574 94.8659 85.304C94.2889 85.5086 93.7119 85.6817 93.1087 85.8181C92.6419 85.902 92.1803 85.965 91.7082 86.0017C91.6452 85.9335 91.577 85.8705 91.4984 85.8076C87.7951 83.9663 85.3717 80.3151 84.8682 76.2285C84.7423 75.3629 84.7003 74.4974 84.716 73.6213C85.1304 74.0567 85.6287 74.4344 86.1323 74.7019C87.5433 75.5727 89.054 75.5623 90.4545 75.0534C91.4879 75.001 92.495 74.6233 93.2713 73.8888C96.0619 71.1452 98.2177 65.0599 95.4744 61.713C94.1945 59.1372 90.2185 59.1687 88.241 60.9681C89.867 58.3923 92.175 56.3989 95.401 55.8638C97.903 55.4966 100.573 55.6592 102.87 56.7766C103.206 57.1753 103.521 57.5844 103.815 58.0199C104.135 58.5235 104.423 59.0376 104.68 59.5779C104.691 59.5989 104.696 59.6041 104.696 59.6041C104.717 59.6514 104.738 59.6986 104.759 59.7405C104.995 60.2651 105.241 60.9156 105.451 61.5766C105.645 62.2376 105.808 62.8986 105.934 63.5805C106.044 64.2206 106.117 64.8658 106.165 65.5163L106.18 65.5268Z" fill="white"/>
<path d="M94.6717 65.4533C94.7556 67.8455 93.6541 72.0317 91.0366 72.6717C90.638 72.6455 90.2393 72.6035 89.8354 72.5353C89.9928 72.3832 90.1397 72.2206 90.2708 72.058C92.2641 69.6186 92.6417 66.0304 91.2989 63.1976C91.0419 62.6835 90.6852 62.1222 90.2341 61.7078C90.9737 61.372 91.792 61.2723 92.6575 61.5189C93.0037 61.6133 93.3551 61.7654 93.717 61.9805C93.4758 63.2395 94.5353 64.231 94.6717 65.4586V65.4533Z" fill="white"/>
<path d="M88.7706 19.6878C88.0468 23.9527 87.3072 28.1599 86.2109 32.3724C86.1637 32.3672 86.1217 32.3619 86.0745 32.3619C84.9467 32.3095 83.8452 32.0419 82.7436 31.7429C83.2105 31.4124 83.2629 30.7462 83.3626 30.2164C83.9501 27.2839 84.0707 24.2832 84.653 21.3507C84.8995 20.5848 84.6425 20.034 83.9921 19.8504C83.8662 19.8137 83.7193 19.7927 83.5619 19.7874C82.5286 19.672 81.4743 19.4727 80.4304 19.4727C80.2521 19.4727 80.0685 19.4779 79.8849 19.4937C79.8324 19.4989 79.78 19.5094 79.7275 19.5251C79.8272 18.99 79.9321 18.4497 80.0318 17.9146C81.4743 18.4287 83.3521 18.5126 84.8313 18.9113C86.1427 19.1684 87.4593 19.3992 88.7654 19.6825L88.7706 19.6878Z" fill="white"/>
<path d="M32.3351 3.83975C32.6761 3.93942 32.8702 4.29615 32.7862 4.63714C32.7862 4.64763 32.7862 4.65812 32.7758 4.66862C32.7758 4.67911 32.7758 4.68959 32.7758 4.69484C32.7023 5.05156 32.6341 5.41878 32.5554 5.78075C32.4558 6.20043 32.3561 6.61486 32.2512 7.02929C32.162 7.39126 31.7529 7.59583 31.4067 7.5014C31.4015 7.5014 31.3962 7.5014 31.3962 7.5014C31.029 7.39124 30.8297 7.00831 30.9294 6.64109C31.0972 6.03257 31.2546 5.42401 31.4015 4.81023C31.4015 4.82597 31.391 4.84172 31.391 4.85221C31.4329 4.6686 31.4696 4.4745 31.5169 4.29089C31.6165 3.94466 31.9994 3.74008 32.3404 3.845L32.3351 3.83975Z" fill="white"/>
<path d="M35.7027 4.78927C35.7447 5.0096 35.7027 5.23518 35.6555 5.45026C35.624 5.59715 35.5926 5.73879 35.5558 5.88044C35.4142 6.46798 35.2044 7.03453 34.9946 7.60109C34.8634 7.95781 34.4858 8.16765 34.1186 8.06273C34.1029 8.06273 34.0924 8.05751 34.0766 8.05226C33.7147 7.93161 33.4787 7.50144 33.6203 7.13422C33.8721 6.49946 34.1134 5.86993 34.3074 5.21419C34.3284 5.11976 34.3546 5.02535 34.3756 4.93092C34.3651 4.90994 34.3546 4.88896 34.3441 4.86797C34.2969 4.74207 34.2969 4.6214 34.3127 4.49025C34.3651 4.13352 34.7533 3.90271 35.0942 3.9709C35.3932 4.03386 35.5768 4.26991 35.6135 4.54795C35.6135 4.53745 35.6135 4.52174 35.6135 4.51125L35.5926 4.4273C35.5978 4.45353 35.6083 4.47977 35.6135 4.50075C35.6135 4.50075 35.6135 4.5025 35.6135 4.506C35.6398 4.60043 35.6765 4.68435 35.6975 4.78402L35.7027 4.78927Z" fill="white"/>
<path d="M38.7922 5.66533C38.9391 5.84894 39.002 6.09026 38.9496 6.32632C38.7975 6.98207 38.7031 7.64832 38.6086 8.3093C38.6086 8.31455 38.6086 8.32503 38.6086 8.33028C38.5719 8.64503 38.53 8.94931 38.5142 9.25882C38.5142 9.30079 38.5142 9.33225 38.5195 9.37421V9.38472C38.5195 9.38472 38.5195 9.38997 38.5195 9.39522C38.5195 9.39522 38.5195 9.39519 38.5195 9.40044C38.5667 9.61552 38.5667 9.82537 38.4618 10.03C38.3569 10.245 38.1628 10.4129 37.9425 10.4864C37.7746 10.5441 37.591 10.5388 37.4179 10.4916C37.1347 10.4129 36.8934 10.2083 36.8147 9.91981C36.6364 9.21161 36.8147 8.48767 36.9511 7.78471C37.0665 7.1552 37.1714 6.50469 37.3707 5.9014C37.4442 5.69157 37.5963 5.53418 37.7799 5.43976C37.89 5.38205 38.0212 5.35059 38.147 5.35059C38.1995 5.35059 38.252 5.35582 38.3044 5.36631C38.3201 5.36631 38.3359 5.37681 38.3464 5.37681C38.3883 5.3873 38.4303 5.40305 38.4723 5.41879C38.5982 5.47649 38.7031 5.56041 38.787 5.66533H38.7922Z" fill="white"/>
<path d="M42.7472 6.56241C42.978 7.04503 42.8102 7.66405 42.7157 8.16241C42.5846 8.88635 42.4482 9.6103 42.3381 10.3395C42.3118 10.5283 42.2909 10.7224 42.2804 10.9113C42.2436 11.4673 41.7453 11.8975 41.1946 11.8556C41.1264 11.8503 41.0529 11.8398 40.99 11.8241C40.5336 11.6982 40.2242 11.2575 40.2451 10.7697C40.2924 9.66277 40.5441 8.5716 40.7277 7.4752C40.5913 7.26011 40.5389 6.99782 40.5913 6.73028C40.691 6.24241 41.1369 5.90141 41.6194 5.90141C41.7086 5.90141 41.7978 5.91191 41.887 5.93814C41.9027 5.94338 41.9237 5.95386 41.9394 5.95911C41.9814 5.9696 42.0233 5.98534 42.0653 5.99584C42.359 6.07977 42.6108 6.30012 42.742 6.57291L42.7472 6.56241Z" fill="white"/>
<path d="M46.0888 9.00178C46.0941 9.30605 46.0679 9.61555 46.0416 9.91457C45.9997 10.4759 45.9577 11.0372 45.9525 11.6037C45.9525 12.0129 45.5433 12.3277 45.1552 12.2962C45.1027 12.2962 45.0502 12.2857 45.0083 12.27C44.6726 12.1756 44.4523 11.8503 44.4628 11.4988C44.4942 10.6647 44.6201 9.84636 44.6726 9.0175C44.5886 8.84963 44.5624 8.6398 44.6254 8.46144C44.725 8.15717 45.003 7.98929 45.302 7.98929C45.3702 7.98929 45.4332 7.9998 45.5014 8.01029C45.6744 8.06275 45.8161 8.14669 45.921 8.30406C46.0626 8.52439 46.0836 8.74473 46.0888 8.99653V9.00178Z" fill="white"/>
<path d="M49.5191 9.15389C49.8705 9.32701 50.0069 9.74667 49.8443 10.0929C49.8443 10.1034 49.839 10.1139 49.8338 10.1244C49.7603 10.3185 49.7026 10.5126 49.6449 10.7067C49.561 11.0739 49.4718 11.4359 49.4246 11.8083C49.4246 11.8031 49.4246 11.7926 49.4246 11.7874C49.4141 11.8293 49.4142 11.8765 49.4037 11.9185C49.4037 11.9238 49.4037 11.929 49.4037 11.9395C49.4037 11.95 49.4037 11.9605 49.4037 11.971C49.4037 11.9972 49.4037 12.0129 49.3932 12.0339C49.3932 12.0444 49.3932 12.0549 49.3879 12.0654C49.3879 12.0969 49.3827 12.1283 49.3774 12.1546C49.3774 12.186 49.3722 12.2123 49.3669 12.2385C49.3669 12.2542 49.3669 12.2647 49.3617 12.2805C49.3617 12.2962 49.3617 12.3119 49.3617 12.3172C49.3617 12.3224 49.3617 12.3277 49.3617 12.3277C49.304 12.8628 49.2463 13.3926 49.2358 13.9277C49.2306 14.3159 48.8476 14.6202 48.47 14.5939C48.4228 14.5939 48.3756 14.5782 48.3284 14.5677C48.0031 14.4785 47.7986 14.169 47.8038 13.828C47.8091 13.4451 47.8458 13.0621 47.8825 12.6844C47.9192 12.3067 47.9664 11.9238 48.0346 11.5513C48.1605 10.8536 48.2916 10.1244 48.6011 9.47389C48.7165 9.22733 48.9735 9.08569 49.2358 9.08569C49.2987 9.08569 49.3617 9.09093 49.4194 9.10667C49.4614 9.11716 49.5033 9.1329 49.5348 9.14864L49.5191 9.15389Z" fill="white"/>
<path d="M52.5407 10.7697C52.6141 11.2366 52.5407 11.7297 52.4882 12.1965C52.441 12.6634 52.3833 13.1303 52.3309 13.5972C52.2889 13.9854 51.9689 14.2897 51.5703 14.2582C51.5231 14.253 51.4759 14.2477 51.4339 14.232C51.1192 14.1428 50.8674 13.8333 50.9094 13.4975C50.9566 13.0831 51.009 12.6635 51.0562 12.249C51.0982 11.8661 51.1507 11.4831 51.1559 11.0949C51.1559 11.0792 51.1559 11.0634 51.1559 11.0477C51.1559 11.0424 51.1559 11.0372 51.1559 11.032C51.0982 10.6543 51.3238 10.2818 51.7172 10.2136C51.7591 10.2084 51.8011 10.2031 51.8483 10.2031C51.9112 10.2031 51.9742 10.2136 52.0319 10.2241C52.2837 10.2975 52.4987 10.4969 52.5354 10.7697H52.5407Z" fill="white"/>
<path d="M56.994 11.2628C57.0465 11.5565 56.973 11.8923 56.9311 12.186C56.8157 12.868 56.7003 13.5447 56.5849 14.2215C56.5009 14.7041 55.9974 15.0189 55.5253 14.9297C55.5043 14.9244 55.4833 14.9192 55.4623 14.9087C55.0112 14.7828 54.7542 14.3316 54.8224 13.87C54.943 13.0988 55.0742 12.3329 55.2001 11.5618V11.5513C55.1791 11.4464 55.1791 11.331 55.2001 11.2208C55.2892 10.7906 55.6722 10.5021 56.0918 10.5021C56.1705 10.5021 56.2544 10.5126 56.3331 10.5336C56.3488 10.5336 56.3645 10.5441 56.375 10.5441C56.695 10.649 56.9311 10.9323 56.994 11.2628Z" fill="white"/>
<path d="M60.6292 12.8313C60.6816 13.0726 60.582 13.3139 60.4089 13.4713C60.3722 13.6759 60.3459 13.8805 60.3145 14.0851V14.0956C60.3145 14.1061 60.3145 14.1113 60.3145 14.1166V14.127C60.3145 14.127 60.3145 14.1323 60.3145 14.1375C60.3145 14.1428 60.3145 14.148 60.3145 14.1533V14.1585C60.2935 14.3788 60.262 14.6097 60.241 14.83C60.1991 15.2182 59.8739 15.5225 59.4752 15.4962C59.428 15.4962 59.3808 15.4857 59.3388 15.4753C59.0241 15.3861 58.7671 15.0766 58.8038 14.7303C58.8562 14.3054 58.9192 13.8805 58.9874 13.4556C59.0189 13.2825 59.0503 13.1093 59.0923 12.9415C59.1343 12.7736 59.1762 12.6057 59.2497 12.4483C59.3336 12.291 59.449 12.1966 59.6011 12.1126C59.6903 12.0654 59.7899 12.0444 59.8896 12.0444C59.9578 12.0444 60.0207 12.0549 60.0889 12.0706C60.2778 12.1231 60.4456 12.2543 60.5295 12.4326C60.582 12.5585 60.6187 12.6897 60.6449 12.8208L60.6292 12.8313Z" fill="white"/>
<path d="M168.727 83.5938C165.742 83.1112 162.742 84.1604 160.607 86.264C157.192 89.2699 154.643 93.2516 153.824 97.7631C151.202 95.0614 147.666 93.4824 144.314 91.8929C140.391 89.9624 135.743 90.2981 131.725 91.7512C134.044 85.8233 134.794 77.3144 130.131 72.336C133.157 71.3393 135.654 69.2251 137.469 66.6336C139.641 63.654 141.818 60.5116 142.19 56.7398C146.497 62.0907 153.719 65.0756 160.544 64.4251C160.607 71.3183 162.652 79.6017 168.732 83.6043L168.727 83.5938Z" fill="#FCFA68"/>
<path d="M115.847 25.9252C116.162 25.9829 116.529 26.114 116.876 26.156C115.69 31.7954 114.568 37.5292 113.282 43.221C113.267 43.2106 113.251 43.2105 113.23 43.2053C113.219 43.2053 113.214 43.2053 113.199 43.2053C113.193 43.2053 113.188 43.2053 113.183 43.2053C113.157 43.1948 113.13 43.1948 113.104 43.1843C111.599 42.8486 110.083 42.5653 108.572 42.2505C106.888 41.9043 105.199 41.5633 103.515 41.2276C99.7965 40.4774 96.0722 39.7378 92.3532 39.0033C91.3881 38.8145 90.4282 38.6256 89.4683 38.4368C91.43 36.2754 93.4233 24.5927 94.3308 19.7664C94.5196 19.8818 94.7294 19.9553 94.9287 20.0287C97.4518 20.9468 100.048 21.6392 102.645 22.3317C104.113 22.7252 105.582 23.1186 107.04 23.5488C109.962 24.3986 112.858 25.3324 115.847 25.9304V25.9252Z" fill="#9F7DF0"/>
<path d="M73.4593 16.4248C73.9996 16.6503 74.5766 16.7605 75.1536 16.7605C75.0592 17.2064 74.97 17.6523 74.8808 18.093C74.692 19.053 74.5031 20.013 74.3143 20.9678C73.9419 22.8668 73.5695 24.7606 73.2023 26.6543C72.8089 28.674 72.4102 30.6937 72.0011 32.7082C71.9172 33.1016 71.8437 33.4951 71.7755 33.8937C71.7283 34.177 71.6916 34.4603 71.6392 34.7436C71.6287 34.7855 71.6182 34.8275 71.6129 34.8695C71.6129 34.8695 71.6129 34.8957 71.6129 34.901C71.015 34.7803 70.4222 34.6649 69.819 34.5495C66.1315 33.8203 62.4387 33.0964 58.7459 32.3987C58.7407 32.3987 58.725 32.3987 58.7092 32.3934C58.6987 32.3934 58.683 32.3882 58.6673 32.3829C58.4784 32.3462 58.2896 32.3147 58.1008 32.278H58.0903C58.0588 32.2728 58.0221 32.2675 57.9854 32.257C57.5185 32.1626 57.0412 32.0682 56.5534 31.9842C56.5534 31.9842 56.5429 31.9842 56.5324 31.979C56.5061 31.9685 56.4799 31.9685 56.4484 31.9632C52.9235 31.276 49.3829 30.5888 45.8317 29.9226C45.7006 29.9016 45.4646 29.8544 45.239 29.8072H45.2338C45.2338 29.8072 45.2023 29.8072 45.1761 29.7967C45.1656 29.7967 45.1551 29.7967 45.1498 29.7967C45.1393 29.7967 45.1131 29.7862 45.0921 29.7862C45.0712 29.7862 45.0449 29.7757 45.0082 29.7704C44.94 29.7547 44.8351 29.7337 44.7302 29.718C44.7197 29.718 44.6148 29.697 44.5047 29.676C44.447 29.6655 44.3683 29.6498 44.2948 29.6393C44.2319 29.6236 44.1427 29.6078 44.0535 29.5921C44.0431 29.5921 43.9224 29.5711 43.8123 29.5501C43.8018 29.5501 43.7546 29.5396 43.7178 29.5291L43.6077 29.5081C43.5238 29.4924 43.3349 29.4557 43.1461 29.419C43.1251 29.419 43.0989 29.4137 43.0674 29.4085H43.0569C43.0569 29.4085 43.0045 29.3927 42.9677 29.3875C42.931 29.377 42.8786 29.3718 42.8261 29.3613C42.7055 29.335 42.5638 29.3088 42.4222 29.2826L42.2701 29.2563C42.1232 29.2249 41.8819 29.1829 41.6302 29.1409C41.5148 29.1199 41.2997 29.078 41.0794 29.036C40.1247 28.8577 39.1229 28.6688 38.1315 28.4904C37.6541 28.4065 37.1821 28.3226 36.7047 28.2491C36.6837 28.2491 36.6575 28.2439 36.6365 28.2386C36.6365 28.2229 36.626 28.2071 36.6208 28.1967C36.6575 28.055 36.6942 27.9134 36.7309 27.7665C37.266 25.6419 37.8115 23.5173 38.3413 21.3927C38.6036 20.354 38.8606 19.31 39.1229 18.2766C39.2435 17.794 39.3641 17.3061 39.4848 16.8182C39.5897 16.3776 39.7838 15.8582 39.5792 15.4228C39.5005 15.2444 39.3589 15.1343 39.2015 15.0923C39.0075 15.0398 38.7872 15.0818 38.6036 15.2235C38.2731 15.4805 38.1944 15.9474 38.0895 16.3303C37.9636 16.7972 37.8482 17.2641 37.7276 17.731C37.4863 18.6753 37.2502 19.6195 37.009 20.5638C36.5316 22.4681 36.0543 24.3671 35.577 26.2767L35.3042 27.3468C33.8827 26.7803 32.4454 26.2452 31.0134 25.6996C26.6283 24.0891 22.3847 22.0117 18.115 20.0969C18.115 20.0969 18.1097 20.0969 18.1045 20.0917C18.6395 18.2084 19.1693 16.3199 19.6991 14.4313C19.9876 13.4136 20.2708 12.4064 20.5489 11.3887C20.6328 11.0897 20.7115 10.7906 20.7954 10.4969V10.4549C20.7954 10.4549 20.7954 10.4287 20.7954 10.4129C20.7324 10.371 20.6905 10.2975 20.68 10.2136C20.6747 10.0824 20.7849 9.94079 20.9213 9.94604C20.9265 9.94604 20.937 9.94604 20.9423 9.94604C20.9947 9.74669 21.0472 9.51588 21.0419 9.29555C23.1243 9.72571 25.2802 9.98275 27.3836 10.1296C27.5462 10.1034 27.7088 10.0667 27.8662 10.009C27.9606 10.5283 28.3645 10.9585 28.952 10.691C34.1607 13.4293 39.7051 15.3703 45.3596 16.9546C49.3724 18.2294 53.4481 19.0949 57.7126 18.9428C58.0168 18.9113 58.3788 18.9218 58.7564 18.9323C59.6744 18.9586 60.7077 18.9848 61.3686 18.4077C62.1292 17.3166 61.8093 15.811 62.1397 14.5572C62.1764 13.9539 62.381 13.3402 62.4859 12.7316C62.659 12.868 62.8846 12.9415 63.1101 13.0149C66.5721 14.1061 69.9869 15.3336 73.4488 16.4353L73.4593 16.4248Z" fill="#9F7DF0"/>
<path d="M22.9197 27.756C22.9407 27.5095 22.9092 27.2629 22.8148 27.0373C22.7781 26.9534 22.7204 26.8537 22.647 26.8065C22.5001 26.7121 22.2955 26.8432 22.1906 26.9376C21.9179 27.1737 21.7448 27.4832 21.6451 27.8242C20.5331 31.7272 19.4315 35.6249 18.3195 39.5227C17.176 43.4991 15.9958 47.465 14.7893 51.4257C13.6196 55.2604 12.4394 59.0953 11.3169 62.9458C10.8186 64.6665 10.3098 66.3871 9.85341 68.1183C9.64884 68.8894 9.45476 69.6606 9.25019 70.4265C9.09807 71.0036 8.93546 71.5701 8.79383 72.1524C8.68893 72.593 8.80433 73.1963 9.2869 73.3275C9.32887 73.338 9.37083 73.3485 9.41279 73.3485C9.87439 73.3904 10.2101 72.9918 10.3307 72.5826C10.4356 72.2783 10.5196 71.9636 10.614 71.6593C11.0599 70.1957 11.5319 68.7373 11.9568 67.2684C12.4918 65.4061 13.0216 63.5438 13.5409 61.671C14.632 57.7418 15.6601 53.7968 16.7144 49.8571C17.7635 45.9437 18.8545 42.0459 19.9666 38.1534C20.5331 36.1705 21.1048 34.1928 21.6713 32.2098C21.9493 31.2446 22.2221 30.2793 22.5001 29.3193C22.584 29.036 22.6575 28.7632 22.7361 28.4799C22.8096 28.2386 22.8883 27.9973 22.9092 27.7455L22.9197 27.756ZM76.276 37.9541C76.1816 37.9804 76.0872 38.0171 75.998 38.0485C75.3319 38.2846 74.6814 38.5522 74.0467 38.8617C72.7721 39.4649 71.5814 40.1994 70.4431 41.0177C68.8066 42.1981 67.3326 43.5935 65.995 45.1043C64.6312 46.6414 63.4143 48.3043 62.36 50.0617C60.2356 53.566 58.578 57.3693 57.5814 61.3458C57.2404 62.7202 56.9729 64.0999 56.7841 65.5058C56.5166 67.5308 56.4431 69.5766 56.5743 71.612C56.7159 73.6055 57.0569 75.6304 57.723 77.5242C58.0692 78.5 58.4679 79.4547 58.9662 80.3623C59.4907 81.3171 60.1202 82.1983 60.8335 83.022C61.463 83.7354 62.1869 84.3807 62.9737 84.9105C60.2985 84.5538 57.6181 84.2548 54.9534 83.7984C51.2817 83.085 47.5417 82.6023 43.8122 82.2299C38.3989 81.6318 33.0329 80.74 27.6301 80.0686C26.7279 79.9479 25.8257 79.8325 24.9235 79.7171C20.7744 77.86 16.0954 77.1413 11.9778 75.1216C9.38657 73.9045 6.72714 72.8134 4.25131 71.376C4.06248 71.1924 3.8684 71.0717 3.67432 70.9983C3.72677 70.8199 3.77922 70.6416 3.82643 70.4632C4.98042 66.3871 6.10818 62.3006 7.27266 58.2297C8.45813 54.0434 9.65408 49.8572 10.85 45.6814C12.025 41.5843 13.1895 37.4767 14.3487 33.3744C15.4135 29.6078 16.4941 25.836 17.5642 22.0641C23.224 24.7238 28.91 27.3573 34.7586 29.5973C33.9823 32.7186 33.206 35.8452 32.4087 38.9613C31.3281 43.1948 30.2161 47.423 29.1198 51.6565C28.0497 55.7956 26.9692 59.9398 25.9044 64.0789C25.3903 66.0723 24.8763 68.0711 24.3675 70.075C24.1262 71.0245 23.8849 71.974 23.6488 72.9288C23.4757 73.6317 23.3131 74.3452 23.1295 75.0534C23.0823 75.1636 23.0456 75.279 23.0246 75.3892C23.0089 75.4888 22.9774 75.599 22.9564 75.6986C22.9564 75.6986 22.9617 75.6986 22.9669 75.6986C22.8935 76.1446 22.9932 76.6376 23.4285 76.858C23.481 76.879 23.5334 76.9053 23.5859 76.9157C24.1314 77.0679 24.6245 76.5485 24.7818 76.0554C24.8186 75.9557 24.8343 75.8508 24.8658 75.7511C24.8815 75.6986 24.8972 75.6095 24.9077 75.5256C25.2802 74.0042 25.6788 72.4881 26.0617 70.972C26.5128 69.1674 26.9639 67.3629 27.4046 65.5583C28.4222 61.4087 29.4293 57.2592 30.4521 53.1044C31.4802 48.9024 32.4978 44.6899 33.5312 40.4931C34.4229 36.8892 35.3409 33.2905 36.2536 29.6918C36.6102 29.7862 36.9722 29.8701 37.3289 29.9488C38.2521 30.1534 39.1753 30.3475 40.0984 30.5416C41.9343 30.9298 43.765 31.3127 45.5956 31.6957C49.3566 32.4773 53.1176 33.2485 56.8785 34.0144C60.587 34.7803 64.2955 35.5357 68.0093 36.2911C70.7684 36.8472 73.5274 37.398 76.2865 37.9489L76.276 37.9541Z" fill="#9F7DF0"/>
<path d="M112.789 45.1778C112.789 45.1778 112.816 45.1778 112.826 45.1778C112.239 47.6801 111.62 50.1772 110.938 52.6428C110.87 52.5169 110.796 52.3857 110.717 52.2651C110.686 52.1916 110.644 52.1182 110.597 52.0552C110.56 51.9975 110.523 51.9398 110.487 51.8821C110.308 51.5935 110.077 51.3575 109.757 51.2683C109.689 51.2473 109.621 51.2368 109.548 51.2316H109.422C107.497 48.5194 104.764 46.3843 101.617 45.3351C96.7174 42.8905 91.3828 41.3955 86.064 39.9214C87.5327 40.2151 89.0119 40.5089 90.4858 40.8027C94.2311 41.5476 97.9763 42.2977 101.727 43.0427C105.383 43.7666 109.044 44.4958 112.716 45.1725C112.737 45.1725 112.763 45.1778 112.795 45.1883C112.795 45.1883 112.795 45.1883 112.795 45.183L112.789 45.1778Z" fill="#9F7DF0"/>
<path d="M90.145 19.7035C90.6223 19.3205 90.6014 18.3763 89.9562 18.1769C89.7306 18.1087 89.4946 18.0615 89.2585 18.009C86.2949 17.3848 83.284 16.9126 80.3308 16.2516C80.0686 16.1782 79.8325 16.2727 79.6594 16.4458C78.9041 16.5454 78.9461 17.7677 78.731 18.3658C78.3638 19.9973 78.0543 21.6445 77.7134 23.2812C77.3305 25.175 76.9266 27.0635 76.5489 28.9521C76.4807 29.7809 75.8303 31.5173 76.0034 32.5823C76.0453 32.5875 76.0821 32.5928 76.1188 32.598C76.2447 32.6137 76.3706 32.64 76.4912 32.6662C76.5909 32.6872 76.6905 32.7082 76.7849 32.7292C76.9685 32.7711 77.1521 32.8131 77.3357 32.8656C77.3934 32.8813 77.4511 32.897 77.5036 32.9128C77.5141 32.9023 77.5193 32.8865 77.5246 32.8708C79.03 32.7974 80.483 33.2065 81.9359 33.6105C83.2683 33.9829 84.6059 34.3554 85.9749 34.3554H85.9959C86.1375 34.3449 86.2687 34.2924 86.3736 34.219C86.4417 34.2662 86.5152 34.3029 86.6044 34.3239C88.157 34.5495 88.0941 31.5908 88.477 30.5416C89.0802 27.6511 89.4421 24.7291 89.8618 21.8124C89.9667 21.1304 90.0558 20.4484 90.124 19.7612C90.124 19.7402 90.1345 19.714 90.1345 19.6878L90.145 19.7035ZM92.8359 16.9231C93.1087 17.07 93.3919 16.9756 93.6175 16.792C92.3323 20.8681 91.8235 25.2012 90.6223 29.3193C90.0558 31.3128 89.4893 33.3115 88.8651 35.2892C88.6868 36.1495 87.7636 37.3089 88.1098 38.1587C85.7494 37.6918 83.3942 37.2197 81.0285 36.7528C78.5527 36.2649 76.0768 35.777 73.601 35.2839C73.6272 35.2105 73.6534 35.1318 73.6639 35.0584C74.115 32.7239 74.4612 30.3737 74.8494 28.034C75.2008 25.9147 75.5575 23.8006 75.909 21.6812C76.0926 20.5848 76.2761 19.4884 76.4545 18.392C76.5384 17.8831 76.6223 17.3848 76.6958 16.8759C76.7168 16.75 76.7377 16.6031 76.7587 16.4615C76.8059 16.0523 76.8007 15.6326 76.465 15.3599C76.4125 15.3179 76.3601 15.2916 76.2971 15.2759C76.166 15.2392 76.0139 15.2549 75.888 15.3074C75.8722 15.3074 75.8565 15.3179 75.846 15.3231C75.6624 15.1658 75.4579 15.0189 75.248 14.8982C71.8857 13.6497 68.3975 12.6687 64.967 11.588C64.4163 11.4306 63.8655 11.2785 63.3252 11.0949C63.3042 11.0844 63.2885 11.0739 63.2728 11.0687C63.3042 11.0057 63.3252 10.9427 63.3462 10.8745C63.4931 10.3395 63.3357 9.59457 62.7325 9.4267C59.879 8.60833 57.0202 7.82143 54.1562 7.0293C54.387 6.68306 54.4815 6.22666 54.3556 5.87518C54.9955 6.10076 55.6564 6.27912 56.3016 6.4942C61.0854 7.93683 65.885 9.3375 70.6268 10.9218C77.1259 12.931 83.7036 14.6779 90.3234 16.2464C90.6486 16.3513 91 16.4143 91.3462 16.4825C91.8603 16.5769 92.3743 16.6766 92.8359 16.9126V16.9231Z" fill="#9F7DF0"/>
<path d="M105.934 76.6324C107.607 72.7977 108.425 68.5537 108.069 64.3727C107.77 60.8684 106.647 57.2959 104.266 54.6362L104.103 54.4578C104.103 54.4578 104.093 54.4421 104.087 54.4368C104.066 54.4158 104.045 54.3949 104.024 54.3686C103.935 54.2795 103.799 54.1956 103.62 54.1431C103.442 54.0906 103.269 54.1116 103.106 54.1693C102.802 53.8598 102.477 53.5713 102.131 53.2985C100.898 52.3333 99.3769 51.6722 97.8295 51.4204C95.8572 51.0952 93.8377 51.2683 91.9546 51.9555C90.0873 52.6375 88.393 53.6814 86.8876 54.9772C83.8295 57.6159 81.574 61.1936 80.2783 65.0022C78.9513 68.8894 78.4739 73.0809 79.2502 77.1413C80.0161 81.1492 82.1195 85.1309 85.7808 87.1768C85.8437 87.2082 86.0273 87.308 86.2109 87.4076C86.7774 87.6962 87.3806 87.9269 87.9996 88.1001C89.29 88.462 90.659 88.5722 91.9756 88.4201C93.0614 88.2942 94.1157 88.0476 95.1386 87.6752C96.1352 87.3132 97.0899 86.8253 97.9868 86.2587C101.554 83.9977 104.245 80.483 105.923 76.6377L105.934 76.6324ZM111.431 65.0914C111.457 66.0147 111.441 67.1583 111.347 68.2966C111.258 69.3248 111.1 70.3425 110.906 71.355C110.67 72.4934 110.371 73.6213 110.02 74.7334C109.689 75.6987 109.317 76.643 108.897 77.5767C108.404 78.6154 107.853 79.6384 107.25 80.6298C106.705 81.4954 106.122 82.3295 105.498 83.1322C104.837 83.9453 104.14 84.7269 103.4 85.4718C102.744 86.0961 102.068 86.6837 101.354 87.2397H101.344C101.318 87.2659 101.291 87.2869 101.26 87.3079C100.515 87.8535 99.6706 88.4043 98.7894 88.9027C98.0026 89.3171 97.2 89.7158 96.3608 90.0253C96.2244 90.0778 96.1352 90.1093 96.046 90.1407C95.3589 90.3716 94.6245 90.5814 93.8692 90.7388C92.9932 90.8962 92.1172 91.001 91.2255 91.0325C90.4335 91.0325 89.6519 90.9906 88.8651 90.8804C87.9734 90.7283 87.1131 90.5027 86.2581 90.2037C85.5238 89.9099 84.8156 89.5741 84.1285 89.1859C83.4256 88.7558 82.7542 88.2837 82.1142 87.7643C81.5215 87.2397 80.9655 86.6837 80.4462 86.0909C79.9636 85.5086 79.4968 84.8738 79.0667 84.2128C78.6156 83.4679 78.2169 82.7072 77.8497 81.9203L77.8287 81.8784C77.8287 81.8784 77.8287 81.8784 77.8235 81.8784C77.4983 81.1125 77.215 80.3308 76.958 79.5335L76.9213 79.4076C76.9055 79.3551 76.8898 79.2817 76.8636 79.2135C76.6433 78.4476 76.444 77.5138 76.2866 76.5695C76.1502 75.6515 76.0663 74.7282 76.0138 73.8049C75.9719 72.6508 75.9981 71.4967 76.082 70.3478C76.1817 69.2881 76.3338 68.2389 76.5226 67.2003C76.7324 66.1458 77.0472 64.9392 77.4301 63.7431C77.7553 62.7569 78.133 61.7969 78.5579 60.8527C79.0719 59.751 79.6384 58.6756 80.2679 57.6369C80.8448 56.7084 81.4743 55.8165 82.1562 54.9562C82.7857 54.1903 83.4413 53.4611 84.1442 52.7687C84.7999 52.1287 85.5762 51.4729 86.3788 50.8539C87.1236 50.3031 87.8999 49.8099 88.7077 49.3535C89.526 48.9181 90.3653 48.5457 91.236 48.2257C92.0753 47.9371 92.9198 47.7011 93.7905 47.528C94.677 47.3758 95.5582 47.2814 96.4552 47.2604H96.5391C97.3889 47.2604 98.2229 47.3234 99.0569 47.4493C99.0674 47.4493 99.0779 47.4493 99.0884 47.4493C99.6024 47.5384 100.116 47.6538 100.631 47.7955C100.924 47.8794 101.213 47.9686 101.501 48.0683C102.288 48.3568 103.043 48.6978 103.778 49.107C104.496 49.5319 105.173 50.0093 105.813 50.5339C106.463 51.1004 107.061 51.7037 107.623 52.3542C107.686 52.4277 107.832 52.6112 107.979 52.7949C107.922 53.2355 108.016 53.6814 108.263 54.0591C108.299 54.1116 108.331 54.1641 108.368 54.2165C108.808 54.9247 109.202 55.6592 109.548 56.4198C109.899 57.2487 110.203 58.0828 110.466 58.9379C110.728 59.8717 110.943 60.816 111.111 61.7707C111.279 62.8724 111.389 63.9792 111.436 65.0966L111.431 65.0914Z" fill="#9F7DF0"/>
<path d="M75.8825 84.5801C75.8825 84.5801 75.893 84.5643 75.8825 84.5643C73.0132 82.8908 69.8503 81.8731 66.6925 80.9656C66.404 80.7295 66.0001 80.8712 65.7693 81.1125C64.9301 82.1355 65.9424 82.9643 66.9548 83.1584C67.1856 83.2318 67.4164 83.2948 67.6472 83.363C70.3224 84.1079 73.1077 84.4699 75.8772 84.5801H75.8825ZM93.827 44.9994C92.4842 45.2932 91.1676 45.7496 89.9087 46.3371C87.8787 45.4034 85.7334 44.5535 83.6195 43.7876C81.537 43.0479 79.4231 42.3922 77.2673 41.8938C76.428 41.6997 75.1114 41.3482 74.9383 42.5548C74.8019 43.4099 75.4681 43.5725 76.1395 43.7456C76.3126 43.7876 76.4805 43.8296 76.6431 43.882C80.8446 45.1043 85.1406 45.9489 89.4786 46.5417C88.2144 47.1608 87.0028 47.9057 85.8855 48.7398C85.4134 49.0965 84.8941 49.4952 84.3958 49.9306C79.9424 48.084 75.2321 46.6466 70.5322 45.4873C69.8031 45.1725 69.0844 45.2145 68.9953 46.1588C68.9743 46.8617 69.6457 47.0191 70.2751 47.166C70.5217 47.2237 70.7682 47.2761 70.957 47.3653C75.274 48.6453 79.6907 49.6158 84.1597 50.1404C82.9323 51.2368 81.8098 52.4381 80.7974 53.7181C76.2392 52.1339 71.6704 50.5654 66.9338 49.5896C66.7188 49.5424 66.4932 49.5057 66.2834 49.4375C65.6959 49.2748 65.1819 49.8729 65.1137 50.4132C64.8986 51.646 66.2729 51.6408 67.1069 51.8664C71.5131 52.9523 76.0661 53.7549 80.5876 53.9909C79.4074 55.5175 78.3741 57.149 77.4981 58.8697C73.2388 57.3536 68.8274 55.9949 64.395 54.9929C63.8705 54.7254 63.304 55.2343 63.1833 55.7379C63.047 56.2205 63.2306 56.9129 63.7866 56.9969C68.2137 58.2349 72.7405 58.9431 77.3407 59.1792C76.8267 60.2179 76.3651 61.288 75.9612 62.3687C75.7566 62.9195 75.5678 63.4756 75.3947 64.0422C72.3786 62.7097 69.0739 61.6658 65.7851 61.0153C64.8252 60.8474 63.8653 60.6271 62.8949 60.5589C62.0608 60.6376 61.9822 62.075 62.8686 62.1589C66.9653 63.1976 71.1774 63.7642 75.3947 64.0474C74.9016 65.6317 74.5344 67.2527 74.2984 68.8999C70.6004 67.6881 66.7765 66.9274 62.9473 66.235C62.4962 66.1877 61.9507 65.8678 61.573 66.2717C61.0957 66.6861 61.1429 67.6776 61.851 67.8035C65.8533 68.9209 70.1178 69.2461 74.2512 69.2514C73.9522 71.5491 73.9155 73.8836 74.1882 76.176C70.102 74.6023 66.0159 72.7819 61.6937 72.0422C60.8491 72.2678 60.5606 73.658 61.3684 74.0987C62.449 74.5026 63.5925 74.7806 64.694 75.1216C67.7731 75.9767 71.041 76.4751 74.2197 76.4594C74.2512 76.7007 74.2826 76.9367 74.3246 77.1728C74.3351 77.2148 74.3403 77.2567 74.3456 77.3039C74.3456 77.3092 74.3456 77.3196 74.3456 77.3249C74.3561 77.3878 74.3666 77.4508 74.3771 77.5137C74.5554 78.6049 74.8124 79.7066 75.1481 80.7873C71.9432 79.5912 68.5756 78.584 65.1871 77.9597C64.7517 77.9177 64.0331 77.6973 63.54 77.8442C62.8109 77.9911 62.7008 79.2029 63.4299 79.4338C67.2957 80.4095 71.2665 81.039 75.2583 81.1492C76.0661 83.6148 77.2987 85.9702 79.0035 87.9375C78.9511 87.9165 78.8881 87.9007 78.8357 87.885C74.8229 86.6522 70.7892 85.5243 66.7555 84.3702C66.6558 84.2233 66.5194 84.1079 66.3253 84.045C66.2309 84.0082 66.1418 83.9662 66.0473 83.94C66.0473 83.94 66.0438 83.94 66.0369 83.94C65.4441 83.6934 64.8724 83.3945 64.3216 83.0535C63.8757 82.7545 63.4456 82.424 63.0417 82.0777C62.5539 81.6161 62.1028 81.1334 61.6884 80.6088C61.3107 80.1105 60.9698 79.5964 60.6551 79.0561C60.3036 78.4161 60.0046 77.7603 59.7319 77.0836C59.4644 76.3596 59.2336 75.6252 59.0395 74.8751C58.8349 73.9937 58.6828 73.1071 58.5674 72.2153C58.4625 71.2396 58.41 70.2691 58.4048 69.2881C58.4153 68.0763 58.494 66.8645 58.6356 65.6579C58.8087 64.3359 59.05 63.0297 59.3594 61.7287C59.7266 60.2598 60.1725 58.8277 60.7023 57.4113C61.1901 56.1418 61.7409 54.909 62.3493 53.6972C62.3598 53.6657 62.3703 53.6447 62.386 53.6238C62.984 52.4854 63.6764 51.3208 64.4318 50.1876V50.1772C64.4632 50.1457 64.4842 50.1142 64.5052 50.0827C65.2605 48.9811 66.1208 47.869 67.0387 46.7988C67.8832 45.844 68.7802 44.9417 69.7191 44.0866C70.5741 43.3417 71.4606 42.644 72.389 42.004C73.1339 41.5214 73.8945 41.0702 74.6865 40.6715C75.253 40.3987 75.83 40.1522 76.428 39.9371C76.7218 39.8322 77.0207 39.7325 77.3145 39.6276C77.3355 39.6171 77.3617 39.6118 77.3827 39.6013C77.4981 39.6328 77.6135 39.6643 77.7184 39.701C83.053 41.5791 88.4925 43.1371 93.827 45.0046V44.9994Z" fill="#FF709D"/>
</svg>
