<svg width="278" height="226" viewBox="0 0 278 226" fill="none" xmlns="http://www.w3.org/2000/svg">
<path d="M188.409 18.8271C188.645 19.0635 188.887 19.3315 189.055 19.61C188.666 19.7362 188.267 19.773 187.862 19.6889C187.599 19.6311 187.363 19.4997 187.184 19.3105C186.837 18.9585 186.922 18.1755 187.442 18.0494C187.631 18.0231 187.799 18.1072 187.988 18.0757C188.346 18.0862 188.503 18.517 188.409 18.8271Z" fill="#050505"/>
<path d="M169.906 89.579C169.155 89.2164 169.365 88.1707 169.943 87.7398C170.468 87.3089 170.926 86.568 171.672 86.5785C172.612 86.6363 172.802 88.57 172.465 89.2216C172.019 89.9468 171.32 89.1638 171.33 88.57C170.836 88.8801 170.61 89.826 169.901 89.579H169.906Z" fill="#050505"/>
<path d="M163.242 85.8072C162.764 84.5776 164.751 84.4567 165.539 84.5723C166.175 84.8141 166.028 85.9596 165.339 85.9386C164.74 85.9018 164.236 86.0069 163.663 86.0857C163.484 86.0857 163.321 85.9701 163.248 85.8072H163.242Z" fill="#050505"/>
<path d="M162.564 78.8757C161.76 78.161 160.867 77.1993 160.746 76.0905C160.735 74.9397 161.96 74.5404 162.349 75.7438C162.811 75.6597 163.195 75.9907 163.421 76.3638C163.689 76.7474 164.009 77.1573 164.12 77.6145C164.393 78.5551 163.452 79.5588 162.564 78.8809V78.8757Z" fill="#050505"/>
<path d="M158.918 74.4084C158.235 74.1089 158.277 72.9475 159.008 72.7426C159.943 72.0384 161.246 71.9333 162.281 72.4798C163.075 72.895 163.811 73.5098 164.383 74.1667C163.642 73.9933 162.902 73.8461 162.145 73.7568C161.43 73.699 160.7 73.7831 160.053 74.1036C159.722 74.2665 159.307 74.5818 158.918 74.4137V74.4084Z" fill="#050505"/>
<path d="M16.2544 168.124C14.9932 167.872 14.5307 166.39 14.7988 165.26C15.0405 164.299 15.9864 163.253 17.0321 163.195C20.1641 163.421 19.1499 168.555 16.2544 168.124Z" fill="#050505"/>
<path d="M7.42711 167.378C7.39033 167.331 7.35355 167.273 7.31676 167.21C6.70193 166.091 5.90843 165.076 4.73657 164.498C4.62621 164.451 4.51586 164.435 4.41076 164.435C4.38974 164.462 4.36347 164.493 4.33194 164.519C4.30566 164.609 4.27414 164.698 4.22159 164.787C4.05868 165.076 3.79067 165.297 3.45961 165.297C3.43859 165.297 3.41757 165.297 3.39655 165.297C3.344 165.449 3.31772 165.602 3.32297 165.754C3.31772 166.637 3.47011 167.509 3.64878 168.366C3.69608 168.581 3.7644 168.802 3.76965 169.023C4.81539 168.466 6.12388 167.904 7.42711 167.383V167.378ZM11.5155 180.274C11.0058 179.128 10.5644 177.956 10.1492 176.779C10.1072 176.658 10.0599 176.527 10.0231 176.395C8.97208 176.837 7.91058 177.31 6.81229 177.604C7.22743 179.002 7.7792 180.452 8.29944 181.797C9.35044 181.256 10.4225 180.746 11.5102 180.279L11.5155 180.274ZM12.6033 166.895C12.556 166.91 12.5087 166.926 12.4614 166.942C9.17703 168.177 5.68772 169.159 2.73442 171.104C2.68712 171.125 2.65034 171.156 2.6083 171.188C2.025 171.85 1.93041 173.001 2.00398 173.826C2.21418 174.735 3.05498 175.386 3.82746 175.828C5.1307 176.395 6.53377 175.697 7.78971 175.302C9.48707 174.703 11.216 174.078 12.8135 173.29C11.2895 171.908 11.752 169.259 12.598 166.895H12.6033ZM19.2719 165.991C19.6344 165.339 19.6397 164.251 20.428 163.962C19.0827 163.353 17.7479 162.769 16.3763 162.491C15.0626 164.099 10.68 172.223 14.5844 172.496C17.296 171.629 18.2471 168.34 19.2666 165.986L19.2719 165.991ZM33.6442 146.774C33.0977 146.238 32.5249 145.733 31.9153 145.265C31.1639 144.714 30.3756 144.22 29.5506 143.784C28.6993 143.347 27.8059 142.98 26.8968 142.685C25.8879 142.375 24.8526 142.149 23.8069 142.013C22.7717 141.892 21.7259 141.86 20.6854 141.913C19.6082 141.986 18.5361 142.155 17.5272 142.396C17.5114 142.396 17.4957 142.407 17.4747 142.407C16.4815 142.654 15.5145 142.985 14.5739 143.384C13.6805 143.789 12.824 144.246 11.9937 144.761C11.2843 145.223 10.6169 145.728 9.97578 146.28C9.27162 146.916 8.60423 147.583 7.98414 148.303C7.55849 148.818 7.15386 149.354 6.7755 149.911C6.58632 150.2 6.4129 150.499 6.24474 150.799C6.23423 150.82 6.22373 150.846 6.21847 150.867C5.89267 151.739 5.62466 152.633 5.3987 153.537C5.17799 154.477 5.00458 155.423 4.90999 156.206C4.8154 157.031 4.75233 157.856 4.75233 158.681C4.75233 159.222 4.77861 159.764 4.83641 160.3C4.89422 160.752 4.97305 161.198 5.07289 161.645C5.16748 162.008 5.27258 162.37 5.38819 162.727C5.44074 162.896 5.48803 163.053 5.50905 163.216C5.63517 163.29 5.75603 163.379 5.87164 163.468C6.94892 164.146 7.64258 165.197 8.18909 166.311C8.39404 166.5 8.48863 166.737 8.48863 166.958C10.5854 166.154 12.4561 165.513 12.866 165.271C13.0027 165.213 13.1393 165.234 13.2496 165.302C13.5597 164.582 13.875 163.941 14.1272 163.426C14.5213 162.796 15.1046 161.277 15.8824 160.857C15.8771 160.604 16.019 160.357 16.2713 160.252C19.4663 157.525 22.2252 154.314 25.4832 151.645C27.7797 149.469 30.5543 147.409 33.6653 146.768L33.6442 146.774ZM40.5703 149.364C40.5703 149.364 40.5493 149.348 40.5388 149.343C40.3969 149.475 40.2445 149.559 40.0395 149.448C39.8609 149.328 39.7821 149.159 39.7715 148.981C36.4241 147.578 32.4566 148.261 29.5033 150.305C26.1927 152.827 22.9451 155.633 19.8867 158.424C19.0774 159.186 18.2629 159.937 17.4168 160.657C17.3328 160.72 17.2277 160.809 17.1173 160.904C18.2839 161.204 19.3717 161.803 20.4542 162.302C20.9797 162.628 21.7732 162.833 22.0202 163.432C22.0465 163.39 22.0728 163.348 22.1043 163.311C22.7454 162.88 23.4338 162.507 24.0854 162.086C26.3135 160.731 28.4208 159.186 30.6752 157.877C32.5512 156.789 34.485 155.801 36.4346 154.856C38.1057 153.999 40.4126 152.938 40.4862 150.794C40.4652 150.494 40.4126 149.779 40.565 149.364H40.5703ZM48.5789 143.379C48.6314 143.216 48.6682 143.048 48.7103 142.88C47.2073 144.052 45.6992 145.223 44.1962 146.395C44.438 146.411 44.685 146.416 44.9319 146.385C46.561 146.185 48.148 144.987 48.5841 143.374L48.5789 143.379ZM52.6095 138.066C52.3257 137.882 52.0734 137.656 51.8632 137.399C51.9105 137.698 51.7897 137.993 51.5532 138.182C50.9174 138.697 50.2657 139.201 49.6194 139.701C48.5789 140.51 47.5542 141.351 46.4927 142.139C44.254 143.678 42.1783 145.423 39.966 146.994C39.8766 147.042 39.7873 147.099 39.6927 147.162C40.0816 147.283 40.4494 147.446 40.77 147.662C41.3533 147.157 41.9523 146.674 42.5514 146.19C44.7743 144.435 46.9814 142.654 49.1569 140.841C50.3078 139.916 51.4166 138.944 52.6042 138.072L52.6095 138.066ZM58.495 128.014C57.4073 127.835 56.3037 127.761 55.2002 127.798C52.8459 128.487 50.7229 130.079 50.1133 132.338C50.003 132.885 49.9872 133.426 50.0293 133.973C50.0293 133.973 50.0293 133.973 50.0293 133.978C50.1344 134.687 50.3551 135.434 50.7124 136.211C50.828 136.448 50.9752 136.674 51.0487 136.926C51.2169 136.847 51.3903 136.831 51.5374 136.9C51.3693 136.569 51.2694 136.196 51.2642 135.791C51.2642 135.397 51.2905 134.945 51.4061 134.54C51.096 134.167 51.1538 133.437 51.7371 133.463C54.0493 131.724 56.2091 129.79 58.495 128.014ZM64.3176 130.378C63.8394 130.126 63.3506 129.874 62.8567 129.627C62.2839 129.301 61.7111 128.96 61.1225 128.639C60.823 128.544 60.5287 128.46 60.2292 128.381C58.4005 129.827 56.5139 131.224 54.7377 132.748C54.1124 133.253 53.4818 133.762 52.8249 134.235C52.7881 134.766 52.4255 135.313 52.62 135.864C52.9826 136.747 54.1176 136.957 54.9742 136.947C56.0305 136.795 56.9133 136.106 57.7909 135.549C60.0873 134.02 62.121 132.06 64.3176 130.378ZM66.1568 129.08C66.3723 128.944 66.593 128.807 66.8137 128.681C66.4563 128.755 66.099 128.823 65.7417 128.875C65.8783 128.944 66.0202 129.012 66.1568 129.08ZM69.0365 118.623C69.0996 118.571 69.1627 118.518 69.2257 118.465C68.1011 118.697 66.8925 118.529 65.7574 118.397C65.2109 118.292 64.5593 118.187 63.8972 118.04C63.8446 118.229 63.7237 118.392 63.5293 118.476C62.3207 118.45 61.0437 118.381 59.8771 118.86C58.5266 119.611 59.9507 120.646 60.8913 120.82C62.184 121.145 63.461 121.24 64.7747 121.266C65.1006 121.24 65.4316 121.287 65.7259 121.419C65.8678 121.298 66.0044 121.182 66.141 121.061C67.1027 120.247 68.0644 119.432 69.0313 118.623H69.0365ZM70.324 117.541C70.8337 117.11 71.3382 116.684 71.8427 116.264C70.9336 115.917 70.1243 115.418 69.5252 114.666C69.3571 114.803 69.1311 114.85 68.8946 114.713C68.5688 114.43 68.3744 114.046 68.2956 113.642C68.2483 113.889 68.0539 114.188 67.7701 114.162C65.8573 113.804 63.9024 113.889 62.0159 114.361C61.627 114.419 61.2644 114.913 61.5534 115.26C63.0459 116.547 65.2267 116.621 67.0975 116.91C67.954 117.026 68.8631 116.763 69.6882 117.057C69.9404 117.168 70.1611 117.33 70.324 117.546V117.541ZM77.8859 122.79C77.2606 123.3 76.6195 123.783 75.9731 124.262C76.2726 124.383 76.5249 124.587 76.6773 124.897C76.3147 125.339 75.7104 125.423 75.1849 125.271C75.022 125.276 74.8696 125.229 74.7487 125.15C74.1601 125.565 73.5716 125.975 72.983 126.395C72.7045 126.563 72.4313 126.779 72.158 126.989C75.6841 128.318 77.6442 126.642 77.8859 122.796V122.79ZM80.0825 109.627C80.2349 109.501 80.3926 109.375 80.5449 109.248C77.7493 109.306 75.1008 109.511 72.3629 109.895C70.5657 110.252 68.3954 110.179 66.9871 111.498C67.4548 111.844 68.0328 111.897 68.5899 112.002C68.7475 111.724 68.963 111.476 69.2205 111.298C70.4238 110.32 72.0371 110.236 73.5243 110.231C75.2111 110.21 76.9032 110.236 78.5901 110.273C78.8161 110.284 79.042 110.294 79.268 110.305C79.3205 110.263 79.3731 110.221 79.4204 110.184C79.6411 109.995 79.867 109.816 80.093 109.632L80.0825 109.627ZM142.801 134.677C144.099 133.011 145.255 130.888 144.892 128.718C144.225 126.038 142.848 123.358 140.662 121.613C139.642 120.851 138.581 120.137 137.504 119.459C137.299 119.348 137.099 119.212 136.92 119.059C136.81 119.059 136.689 119.023 136.563 118.959C133.562 118.387 130.499 118.371 127.461 118.171C122.075 117.767 116.736 116.889 111.381 116.201C104.86 115.192 97.7182 115.071 92.0061 111.429C91.8011 111.455 91.6487 111.392 91.5384 111.272L90.9235 111.766C91.0076 112.259 90.6135 112.753 89.7832 112.654C89.7359 112.664 89.6939 112.675 89.6518 112.675C89.5625 112.675 89.4784 112.654 89.3996 112.612C85.7264 112.181 82.0058 112.307 78.3168 112.076C77.0662 112.165 72.6572 111.629 70.6393 112.396C71.9793 112.759 73.3929 112.323 74.7277 112.612C73.8869 113.81 72.3051 113.988 70.9651 113.747C70.5605 113.726 70.0875 113.526 69.8511 113.226C69.8511 113.237 69.8458 113.247 69.8406 113.258C70.324 114.43 71.7061 114.939 73.0671 115.234C73.1302 115.181 73.188 115.129 73.2458 115.081C73.3404 114.987 73.456 114.918 73.5926 114.918C73.8711 114.918 74.0445 115.165 74.0971 115.423C74.4544 115.481 74.796 115.533 75.0955 115.581C75.9889 115.701 76.8875 115.817 77.7756 115.948C78.4955 116.022 79.5307 116.232 79.4204 117.173C79.8723 117.593 80.3505 117.987 80.855 118.35C81.081 118.276 81.2964 118.313 81.4856 118.565C81.5592 118.67 81.6012 118.77 81.6275 118.865C82.8361 119.632 84.1604 120.231 85.5109 120.641C87.965 121.314 90.3823 121.345 92.8784 121.487C90.4296 122.365 87.6234 123.053 85.0222 122.333C84.3443 122.149 83.7084 121.881 83.0884 121.566C83.02 124.372 81.9428 127.141 80.3558 129.448C81.2859 129.748 82.2423 129.884 83.2092 129.989C87.7811 130.368 92.232 129.091 96.6199 127.977C103.152 128.802 109.831 129.49 116.41 130.278C125.207 131.582 133.983 133.563 142.801 134.666V134.677ZM176.522 63.6938C176.496 63.5729 176.469 63.4521 176.443 63.3312C176.201 62.1541 176.112 60.9402 176.264 59.7473C176.28 59.6265 176.301 59.5056 176.322 59.3848C176.291 59.3848 176.254 59.3848 176.217 59.3848C175.96 59.3585 175.792 59.1536 175.613 58.9854C174.814 58.1814 173.747 57.7663 172.77 57.2303C170.022 55.6433 166.984 54.7237 163.989 53.741C163.668 53.6097 163.526 53.2418 163.563 52.9002C163.385 53.0473 163.201 53.1945 163.022 53.3417C159.559 56.153 156.096 58.9591 152.638 61.7705C151.955 62.3222 151.277 62.8793 150.594 63.431C150.699 63.6833 150.688 64.0458 150.568 64.3348C150.436 65.1756 150.389 66.0217 150.547 66.8309C150.604 67.2618 150.825 67.6823 150.878 68.1184C152.917 66.1951 154.372 63.6412 156.895 62.2592C165.586 57.0463 166.832 67.6927 174.152 65.3175C175.045 64.9444 175.587 63.9302 176.522 63.699V63.6938ZM191.535 28.1444C190.758 26.61 190.09 25.0125 189.712 23.3467C189.612 23.4203 189.518 23.5044 189.423 23.5832C189.213 23.7566 189.003 23.93 188.798 24.0982C188.377 24.445 187.962 24.7813 187.542 25.1229C186.643 25.8533 185.739 26.5837 184.841 27.3142C183.07 28.7487 181.299 30.1781 179.523 31.6022C176.012 34.4188 172.502 37.2301 168.992 40.0468C165.397 42.9369 161.808 45.8271 158.208 48.7121C154.525 51.6601 150.851 54.6291 147.168 57.5823C143.473 60.5513 139.779 63.5256 136.09 66.4999C132.396 69.4794 128.702 72.4642 125.002 75.4437C121.36 78.3707 117.719 81.3029 114.077 84.2351C110.404 87.1884 106.731 90.1417 103.057 93.0897C99.3735 96.0429 95.6951 99.0014 92.0113 101.96C88.4905 104.782 84.9434 107.572 81.4068 110.373C84.1709 110.447 86.9403 110.473 89.6729 110.862C89.9146 110.667 90.1458 110.457 90.3875 110.263C90.8237 109.905 91.2599 109.548 91.696 109.191C92.5053 108.523 93.3093 107.856 94.1133 107.183C95.8159 105.764 97.5238 104.356 99.2369 102.958C102.705 100.126 106.184 97.3041 109.642 94.4664C113.11 91.6235 116.605 88.8122 120.089 85.985C123.536 83.1842 126.983 80.3833 130.43 77.5825C133.92 74.7448 137.404 71.9072 140.904 69.0853C144.33 66.316 147.761 63.5519 151.182 60.7773C154.63 57.9765 158.072 55.1756 161.524 52.3747C164.919 49.6159 168.314 46.8519 171.714 44.0931C175.082 41.3605 178.445 38.6227 181.819 35.9006C185.04 33.2942 188.309 30.7456 191.535 28.1392V28.1444ZM191.178 66.957C191.241 66.5944 191.42 66.3475 191.635 66.2161C191.02 65.5698 190.416 64.9182 189.812 64.2771C187.699 62.0647 185.776 59.6685 183.69 57.4404C178.34 61.7074 185.86 68.9539 191.178 66.957ZM191.704 92.2331C190.858 92.2331 190.006 92.2436 189.16 92.2909C188.792 92.3645 188.377 92.3908 188.141 92.1595C187.668 92.2384 187.195 92.2962 186.722 92.2962C184.236 95.5647 180.658 97.9347 176.412 97.4775C175.487 97.3093 174.499 97.1149 173.7 96.6262C173.579 96.5158 173.506 96.3529 173.485 96.1847C169.028 94.9288 167.147 91.3502 162.959 88.8279C161.966 88.3339 160.783 88.2446 159.869 87.5983C159.343 87.1884 159.354 86.4738 159.38 85.8694C159.354 85.3282 159.696 84.7239 159.333 84.2614C155.886 79.8368 151.96 75.5278 150.121 70.1258C149.995 70.1047 149.879 70.0627 149.764 69.9839C149.49 69.7106 149.369 69.3953 149.396 69.038C149.411 68.8436 149.517 68.6596 149.664 68.5493C149.643 68.4494 149.622 68.3549 149.611 68.2603C149.217 67.2671 149.138 65.6118 149.369 64.4295C147.015 66.3475 144.661 68.2708 142.312 70.1888C138.923 72.9634 135.517 75.717 132.117 78.481C128.575 81.3555 125.028 84.2299 121.492 87.1043C118.097 89.8632 114.697 92.6272 111.302 95.3808C109.5 96.8364 107.703 98.2972 105.905 99.7528C104.208 101.124 102.506 102.485 100.819 103.862C98.1544 106.038 95.4481 108.161 92.7575 110.305C92.9257 110.436 93.0938 110.578 93.262 110.646C97.8706 113.106 103.257 113.484 108.349 114.204C113.935 114.855 119.626 115.701 125.191 116.269C127.845 116.505 130.504 116.505 133.163 116.7C133.452 116.726 133.736 116.758 134.025 116.784C134.067 116.495 134.183 116.206 134.314 115.959C135.449 114.062 136.968 111.902 139.343 111.639C142.007 111.613 145.16 111.85 147.147 113.783C147.183 113.773 147.22 113.762 147.267 113.762C148.502 113.81 149.627 113.526 150.82 113.321C157.157 112.118 163.285 110.047 169.57 108.649C171.682 108.245 173.81 107.945 175.881 107.372C176.096 107.304 176.391 107.325 176.622 107.42C176.643 107.404 176.659 107.388 176.68 107.372C181.162 104.104 184.683 99.8264 188.372 95.7433C189.008 95.1706 190.379 93.5311 191.698 92.2384L191.704 92.2331ZM191.982 20.7928C191.877 20.5511 191.793 20.3041 191.714 20.0571C191.415 19.7996 191.409 19.3004 191.667 19.0167C191.577 19.0377 191.488 19.0692 191.394 19.106C190.826 19.4423 190.19 19.9415 190.017 20.6089C190.516 20.8033 190.364 22.1381 190.532 22.569C190.548 22.6636 190.569 22.7582 190.584 22.8475C190.637 22.322 191.399 22.0908 191.577 21.5653C191.704 21.3078 191.819 21.0293 191.987 20.7928H191.982ZM198.803 19.9993C198.603 19.7051 198.388 19.4266 198.157 19.1638C198.204 19.3635 198.236 19.5579 198.251 19.7471C197.721 19.4371 196.712 18.7907 197.064 18.0971C195.676 16.9252 193.968 16.1055 192.255 15.5905C190.642 15.1228 188.95 15.4801 187.352 15.8532C186.275 16.1738 184.531 16.6783 184.998 18.1444C185.345 19.9468 186.097 21.6652 186.864 23.2574C186.906 23.3415 186.953 23.4256 187.006 23.5149C187.205 23.3572 187.4 23.1996 187.594 23.0472C187.867 22.8317 188.135 22.6163 188.409 22.4061C188.598 22.2537 188.798 22.1171 188.982 21.9542C189.039 21.8911 189.108 21.8491 189.181 21.8176C189.181 21.8176 189.186 21.8176 189.192 21.8176C189.223 21.8018 189.255 21.7913 189.292 21.7913C189.344 21.786 189.397 21.7808 189.449 21.7913C189.433 21.6599 189.423 21.518 189.412 21.3866C189.207 21.3446 189.024 21.1607 188.997 20.9347C188.735 19.7997 189.581 18.7434 190.406 18.0603C192.602 16.384 194.941 18.2652 196.102 20.4618C196.354 20.3041 196.696 20.3777 196.875 20.6772C197.421 20.2463 198.225 20.3987 198.803 20.0151V19.9993ZM214.142 9.94672C214.179 9.9257 214.211 9.91522 214.247 9.90471C213.491 7.70816 213.034 7.46116 210.548 6.66242C208.919 7.75018 207.306 8.85371 205.682 9.95198C205.624 10.0098 205.556 10.0571 205.482 10.0939C207.127 11.313 208.509 12.9 207.61 14.219C207.306 14.6288 206.775 15.0598 206.234 14.9126C205.093 14.5448 206.076 13.6357 206.649 13.2626C206.565 13.1417 206.475 13.0261 206.386 12.9157C206.36 13.0997 206.333 13.2573 206.318 13.3677C205.818 13.1522 205.272 12.3482 205.277 11.7334C204.384 10.9241 203.343 10.2778 202.256 9.79963C200.979 9.23736 199.691 8.43856 198.251 8.49637C197.826 8.50162 197.458 8.66457 197.106 8.86951C198.136 9.15853 199.082 9.7208 200.006 10.2515C201.404 11.0135 202.639 11.9961 203.727 13.1575C204.452 13.8826 205.267 14.6499 205.529 15.6798C205.96 16.8517 204.342 18.3703 203.296 17.498C202.692 16.9147 203.79 16.2421 204.263 16.0004C204.116 15.7271 203.942 15.4802 203.753 15.2437C203.764 15.5432 203.738 15.848 203.727 16.095C203.375 16.0214 203.096 15.7271 202.912 15.4223C202.681 15.1333 202.608 14.529 202.823 14.2505C202.55 13.9878 202.277 13.725 202.019 13.4518C201.241 12.6898 200.338 12.0907 199.397 11.5495C197.715 10.4407 195.619 9.53159 193.69 10.6036C193.438 10.7297 193.191 10.8716 192.96 11.0345C194.179 11.3813 195.429 11.9646 196.585 12.5006C197.81 13.2047 198.908 14.0876 200.038 14.9336C200.916 15.6378 201.94 16.3262 202.371 17.414C202.655 18.3073 201.798 19.3267 200.905 19.3583C199.639 19.2479 200.406 18.0813 201.105 17.7398C200.947 17.5821 200.779 17.4192 200.616 17.2616C200.516 17.5716 200.516 17.9184 200.327 18.2022C199.66 18.0235 199.287 16.962 199.717 16.447C198.057 15.0019 196.144 13.7092 194.137 12.9788C191.972 12.1748 189.602 11.4181 188.325 13.8774C188.535 13.8407 188.745 13.8038 188.945 13.767C192.634 13.0944 196.365 15.0965 198.898 17.6662C199.544 18.4387 200.432 19.332 200.201 20.425C199.907 21.6179 198.33 22.2799 197.237 21.828C197.116 21.765 196.995 21.6809 196.885 21.5811C196.827 21.6756 196.754 21.7492 196.67 21.8018C196.743 22.054 196.796 22.3063 196.827 22.5427C197.411 22.4482 198.183 22.4114 199.04 22.4586C198.992 22.1696 199.113 21.8386 199.407 21.7387C201.819 19.9363 204.226 18.1286 206.586 16.2526C209.035 14.0666 211.799 12.2326 214.163 9.9625L214.142 9.94672ZM216.171 55.6853C216.512 54.6343 216.843 53.5886 217.19 52.5744C212.892 50.8298 209.886 47.2775 206.77 44.0037C201.688 38.917 195.009 39.9364 188.65 41.3973C188.335 41.4551 188.004 41.6338 187.726 41.3973C187.289 41.124 187.557 40.4409 187.999 40.3358C194.005 38.7278 199.707 37.5559 204.778 40.2885C206.544 40.094 208.33 39.9522 210.059 39.6474C208.856 38.0131 206.933 37.1671 205.088 36.6731C200.343 35.2911 195.219 35.1335 190.474 36.5207C188.982 36.9149 187.557 37.5244 186.223 38.2706C185.398 38.3494 185.198 37.0042 185.897 36.7047C187.342 35.8796 188.876 35.2438 190.469 34.7866C191.394 34.1192 192.313 33.4414 193.122 32.6479C191.656 32.3484 190.148 33.1156 188.808 33.6411C188.377 33.8775 187.852 34.319 187.573 33.6411C187.542 33.5465 187.526 33.4571 187.531 33.3678C186.112 34.5502 184.688 35.722 183.264 36.8886C179.911 39.6211 176.559 42.3484 173.206 45.0705C172.418 45.7116 171.63 46.3526 170.841 46.9937C171.073 47.0463 171.304 47.1146 171.524 47.1987C171.693 47.1881 171.856 47.1934 172.013 47.1987C174.83 47.5612 177.158 49.4373 179.412 51.0295C180.258 51.6286 181.068 52.2644 181.856 52.9265C182.197 52.9633 182.429 53.1997 182.523 53.4993C184.935 55.6065 187.111 57.9607 189.186 60.4042C191.283 62.6533 193.427 64.8761 195.55 67.1042C196.98 68.4705 198.582 69.637 200.243 70.7143C200.669 70.9823 201.152 71.2398 201.541 71.5708C201.667 71.4605 201.825 71.3765 202.003 71.3449C202.282 71.2083 202.555 71.0716 202.834 70.9298H202.844C204.41 70.0364 206.023 69.1641 207.589 68.2603C204.258 66.5682 200.963 64.7868 198.015 62.4852C195.492 60.5146 193.306 58.1288 190.747 56.2108C190.043 55.8325 190.427 54.3506 191.288 54.7552C194.263 56.8677 196.654 59.7158 199.481 62.0122C202.056 64.2613 204.941 66.2109 207.7 68.1972C208.299 67.8504 208.898 67.4983 209.481 67.141C210.953 66.0532 212.088 64.7027 213.013 63.2051C210.217 61.3501 207.479 59.3953 204.594 57.6769C201.762 55.9901 198.808 54.8603 195.745 53.7988C195.025 53.2839 194.825 52.7951 195.818 52.4588C196.381 52.2959 196.948 52.5849 197.484 52.7373C199.954 53.5729 202.298 54.771 204.494 56.1635C207.547 58.2077 210.311 60.6985 213.076 63.1C214.405 60.9139 215.288 58.4179 216.097 55.9481C213.407 54.0038 210.695 52.0699 207.705 50.6827C203.223 48.649 198.577 46.9938 193.7 46.978C192.734 47.0568 191.756 46.7415 191.041 46.0846C191.346 45.638 191.809 45.2386 192.318 45.0336C194.583 44.4241 197.043 45.0599 199.302 45.4856C206.113 46.999 211.399 50.9191 216.187 55.6853H216.171ZM218.52 82.5746C219.639 77.2619 215.976 72.2067 211.131 70.3675C210.763 70.0838 210.417 69.7054 210.217 69.2745C208.556 70.4095 206.696 71.2661 204.741 71.6497C204.678 71.697 204.61 71.7443 204.542 71.7916C203.78 72.2435 203.012 72.9581 202.114 73.0895C201.856 73.4258 201.362 73.5887 200.958 73.5309C198.63 72.5272 196.612 71.0191 194.751 69.3165C194.725 69.306 194.699 69.2955 194.673 69.2797C194.788 69.6003 194.825 69.9576 194.778 70.2992C194.604 71.4658 193.632 72.1857 192.702 72.7848C192.14 73.1421 191.546 73.4521 190.936 73.7096C190.075 74.0722 189.16 74.2141 188.241 74.2141C187.71 74.2141 187.174 74.1668 186.648 74.0827C185.182 73.8515 183.742 73.3628 182.439 72.6586C181.225 72.0018 180.153 71.0612 179.307 69.9734C178.592 69.0538 178.051 68.029 177.589 66.9676C177.279 66.2634 177.021 65.533 176.811 64.792C176.343 66.4105 174.515 67.5036 172.849 67.5614C166.716 67.9555 165.145 61.4184 159.916 62.9371C158.135 63.4416 156.7 64.3664 155.376 65.5908C154.493 66.2266 152.722 68.77 151.267 69.7474C151.33 69.9156 151.393 70.0732 151.461 70.2256C152.832 73.347 154.877 76.1163 156.942 78.8121C158.229 80.4674 159.822 81.9493 160.741 83.8568C161.088 84.6345 160.668 85.4543 160.71 86.2425C166.227 86.9992 169.044 92.5011 173.81 94.787C174.635 95.1653 175.487 95.5174 176.338 95.8589C183.417 96.2636 187.883 88.5179 188.971 82.2067C189.018 81.2031 190.206 78.9435 190.763 80.9929C190.931 81.5762 190.784 82.17 190.679 82.748C190.411 84.1616 190.064 85.5594 189.602 86.9256C189.144 88.2446 188.524 89.5794 187.747 90.83C187.836 90.809 187.931 90.788 188.02 90.7722C188.945 90.6041 189.88 90.4097 190.816 90.3886C191.005 90.4254 191.147 90.5463 191.231 90.7039C191.551 90.6987 191.867 90.7039 192.187 90.7144C192.345 90.7144 192.508 90.7197 192.671 90.725C192.728 90.5305 192.886 90.3571 193.096 90.3571C193.317 90.3571 193.48 90.5515 193.532 90.7565H193.543C193.89 90.5673 194.194 90.4779 194.431 90.5463C194.583 90.6041 194.699 90.7039 194.778 90.8353C198.551 91.1243 202.256 91.8232 205.981 92.4801C204.1 92.5431 202.114 92.5274 200.201 92.5011C198.714 92.4801 197.232 92.417 195.745 92.3592C195.745 92.3697 195.745 92.375 195.75 92.3855C197.143 97.1884 202.813 101.398 207.731 98.8963C213.806 95.7013 217.295 89.138 218.525 82.5851L218.52 82.5746ZM242.729 30.3515C242.178 29.8681 241.689 29.3215 241.263 28.7382C241.016 28.3861 240.748 27.7871 240.796 27.3299C233.481 28.5596 226.108 29.4634 218.804 30.7298C213.591 31.5916 208.346 32.6269 203.049 32.6269C202.655 32.6269 202.261 32.6268 201.867 32.6111C199.155 32.5795 196.501 31.9805 193.969 31.0241C193.159 30.8664 192.628 30.2727 192.282 29.558C192.266 29.5317 192.25 29.5002 192.234 29.4739C192.124 29.5685 192.008 29.6631 191.898 29.7524C191.483 30.0888 191.073 30.425 190.663 30.7666C190.106 31.229 189.544 31.6915 188.987 32.1592C189.738 31.8596 190.569 31.6547 190.947 31.497C192.318 30.9137 195.093 31.1187 194.194 33.2312C193.942 33.5885 193.632 33.8986 193.285 34.156C196.785 33.5938 200.432 33.7724 203.843 34.5502C206.123 35.0704 208.551 35.7062 210.243 37.4193C210.869 38.113 211.757 38.8171 211.825 39.8103C211.851 41.2396 210.227 41.5759 209.087 41.5024C208.157 41.4656 207.232 41.3815 206.307 41.2659C207.095 41.8335 207.873 42.5165 208.625 43.3205C211.394 46.279 214.368 49.1325 218.162 50.7247C218.94 50.3516 219.513 51.0978 219.571 51.844C222.713 47.3038 226.833 43.4467 230.911 39.763C234.789 36.5733 238.594 33.2102 242.724 30.3568L242.729 30.3515ZM249.067 23.9352C253.334 20.7298 256.366 12.4218 252.74 7.88685C252.273 7.37712 251.763 6.76752 251.116 6.46799C251.095 6.46799 251.08 6.47851 251.059 6.47851C243.66 8.10227 236.24 9.66823 228.951 11.7334C225.167 13.0103 221.426 14.1612 217.574 15.0598C215.167 15.4907 212.687 16.92 210.227 16.2211C209.928 16.1107 209.655 15.9373 209.381 15.7639C209.119 15.9741 208.866 16.1896 208.614 16.4103C206.291 18.3388 203.785 20.0151 201.346 21.786C200.973 22.012 200.637 22.3115 200.285 22.548C202.713 22.8791 205.277 23.8406 205.577 25.7692C205.624 26.1843 205.445 26.3788 205.02 26.3052H205.051C204.599 26.2684 204.231 25.9899 203.921 25.6799C201.688 23.9773 198.64 23.8775 195.965 24.2138C195.361 24.1822 195.172 23.373 195.456 22.9316C195.692 22.3273 195.172 21.7282 194.93 21.2027C194.405 20.2884 193.532 19.1743 192.466 18.9747C192.854 19.3372 192.765 20.3199 192.586 21.003C192.749 21.4287 192.665 21.9804 192.45 22.364C192.166 22.8527 191.131 24.0298 190.674 23.2258C191.031 24.6867 191.677 26.0319 192.36 27.3509C192.381 27.393 192.408 27.435 192.424 27.477C192.46 27.4665 192.497 27.4613 192.529 27.4613C192.529 27.5769 192.555 27.6977 192.602 27.8081C192.676 27.9973 192.818 28.1339 192.986 28.2022C193.017 28.2653 193.054 28.3231 193.096 28.3809C193.117 28.4177 193.143 28.4439 193.175 28.4755C193.154 28.5648 193.128 28.6489 193.086 28.7225C193.254 29.0115 193.438 29.29 193.658 29.5475C194.163 29.7472 194.688 29.889 195.198 30.0572C201.84 32.2905 208.882 30.7351 215.598 29.6894C223.223 28.2443 230.927 27.2511 238.594 26.0425C240.827 25.6483 243.076 25.3015 245.273 24.7445C245.415 24.7025 245.557 24.6499 245.704 24.6079C245.861 24.5606 246.003 24.5764 246.129 24.6342C247.086 24.3084 248.069 24.0614 249.072 23.93L249.067 23.9352ZM276.125 24.6447C276.424 21.0346 276.456 16.941 274.181 13.9247C271.7 10.9189 267.586 10.178 264.574 7.87107C264.343 7.6924 263.986 7.40341 263.587 7.04608C264.086 9.26364 263.87 11.6494 262.783 13.5411C262.735 10.5931 262.814 7.41389 261.316 4.78119C260.134 2.82111 257.743 1.33922 255.426 1.88048C253.786 2.46377 252.152 3.45694 251.043 4.83372C251.49 4.80745 251.784 5.07543 251.868 5.40649C252.052 5.51684 252.22 5.64296 252.351 5.73755C257.044 9.40546 256.061 16.3945 253.381 21.0136C252.299 23.1838 250.654 25.0125 248.526 26.1896C247.58 26.7624 246.518 27.4088 245.373 27.2721C244.973 27.2616 244.705 26.9673 244.611 26.6257C243.691 26.8307 242.756 26.9831 241.831 27.1565C241.815 27.1565 241.799 27.1618 241.784 27.167C241.784 27.1775 241.789 27.1881 241.794 27.2038C243.476 30.6037 248.289 31.928 251.679 30.4303C252.393 30.1098 253.061 29.5842 253.639 29.1218C252.362 31.5496 249.624 33.0525 246.881 32.5113C245.825 32.2906 244.81 31.8491 243.896 31.2501C243.849 31.3499 243.786 31.4392 243.691 31.5076C243.539 31.6179 243.371 31.7072 243.218 31.8123C235.399 37.6558 227.742 43.9827 221.657 51.6601C219.576 54.1929 218.094 57.1146 216.612 60.0206C216.423 60.5093 216.218 60.9875 215.992 61.4604C215.288 63.0632 214.5 64.6502 213.486 66.0637C216.244 67.2461 218.893 69.0538 220.774 71.4027C222.161 73.5625 223.323 75.9849 223.796 78.46C224.847 86.479 222.356 95.1338 216.591 100.909C212.808 104.572 207.526 107.956 202.072 106.306C198.751 105.407 196.254 102.696 194.457 99.9105C193.285 98.1238 192.513 96.0324 192.371 93.8936C188.498 97.4564 185.518 102.055 181.572 105.565C179.554 107.43 177.331 109.049 175.156 110.715C174.53 111.182 173.921 111.671 173.274 112.112C173.117 112.217 172.912 112.212 172.738 112.149C172.087 111.913 172.145 110.82 172.649 110.515C173.164 110.142 173.669 109.753 174.168 109.359C171.157 110.058 168.119 110.625 165.14 111.445C159.512 112.722 153.915 114.488 148.161 115.066C148.965 116.269 150.368 118.518 149.233 119.012C148.854 119.164 148.508 118.823 148.424 118.455C146.989 115.407 145.26 114.015 141.855 113.794C140.835 113.72 139.9 113.547 138.907 113.794C137.446 114.309 136.363 115.654 135.591 116.957C135.722 116.978 135.854 116.994 135.985 117.015C137.803 116.258 139.438 118.219 140.919 119.065C143.599 120.825 145.328 123.705 146.316 126.7C147.394 129.58 146.406 132.68 144.714 135.102C144.157 135.749 143.741 136.931 142.711 136.705C142.233 136.642 141.75 136.574 141.266 136.506C140.993 136.647 140.714 136.763 140.42 136.837C141.603 137.94 142.979 138.86 144.645 138.991C147.509 139.38 149.816 137.262 151.14 134.934C151.781 133.694 152.607 132.512 153.883 131.865C154.073 133.91 153.106 135.786 151.887 137.409C152.654 137.609 153.437 137.793 154.22 137.914C157.031 138.413 159.879 138.382 162.717 138.24C171.435 138.066 180.074 136.632 188.467 134.298C192.334 133.153 196.265 132.16 199.98 130.573C201.136 130.1 202.219 129.496 203.338 128.944C204.615 128.313 206.071 127.903 207.222 127.073C208.441 125.985 209.66 124.971 211.378 124.892C210.811 125.817 210.238 126.789 209.539 127.651C213.386 130.231 216.681 132.491 219.907 134.235C219.954 134.004 220.07 133.783 220.254 133.636C221.084 133.022 222.146 132.244 222.866 131.592C225.598 129.08 228.105 126.322 230.428 123.426C235.593 117.178 239.634 110.137 243.66 103.132C245.856 99.2536 247.948 95.3125 249.86 91.2872C251.894 86.9887 253.823 82.5904 254.653 77.8767C254.968 76.3213 255.263 74.7553 255.546 73.1946C255.609 72.5903 255.751 71.7968 256.098 71.2503C256.151 70.5987 256.187 69.9524 256.209 69.306C256.13 69.2114 256.093 69.1063 256.082 69.0065C255.079 67.7716 254.149 66.4789 253.302 65.1283C253.098 64.7185 252.583 64.0879 252.283 63.473C249.945 66.1425 247.49 68.7017 244.837 71.0244C247.906 64.8551 252.935 60.0259 257.118 54.6501C261.721 49.1588 265.641 43.1734 269.719 37.2932C272.373 33.4203 275.289 29.3688 276.12 24.6552L276.125 24.6447ZM275.736 13.4465C278.027 17.1407 278.132 23.3573 276.976 27.4718C275.163 33.1156 271.343 37.7819 268.143 42.6795C265.184 47.3143 261.9 51.7757 258.426 56.0216C258.416 56.0321 258.405 56.0426 258.4 56.0584C256.713 58.1814 255.005 60.3044 253.234 62.3748C253.234 62.3748 253.234 62.3853 253.234 62.3906C254.364 64.3033 255.715 66.0795 257.123 67.7979C258.332 69.2745 259.729 70.4621 261.048 71.7705C262.583 73.2787 263.928 75.1915 265.473 76.6313C266.382 76.9624 266.062 78.7753 265.032 78.46C264.385 78.1867 263.949 77.5877 263.502 77.078C262.294 75.7012 261.117 74.2982 259.845 72.9844C259.383 72.5641 258.941 72.1331 258.505 71.6917C258.647 72.0595 258.694 72.4537 258.631 72.7322C258.421 74.0249 258.247 75.3228 258.048 76.6208C257.417 81.7758 255.82 86.7365 253.639 91.4344C250.864 97.6877 247.716 103.762 244.206 109.627C241.836 113.768 239.224 117.772 236.266 121.503C234.285 124.146 232.135 126.653 229.944 129.117C228.42 130.646 225.031 134.708 222.508 135.528C227.769 137.903 233.213 138.786 240.953 137.341C241.09 136.789 242.004 136.506 242.477 136.101C243.444 135.465 244.39 134.808 245.331 134.136C245.714 133.72 246.082 133.29 246.434 132.843C248.111 130.662 249.556 128.318 250.922 126.001C253.66 121.293 256.124 116.427 258.3 111.434C258.342 111.335 258.389 111.235 258.431 111.135C259.992 107.483 261.427 103.762 262.488 100.179C262.903 98.7597 263.276 97.3304 263.513 95.9851C263.518 95.9483 263.523 95.9115 263.534 95.8747V95.8642C263.639 95.2073 263.728 94.5505 263.765 93.8884C263.765 93.8673 263.765 93.8411 263.765 93.8148C263.776 93.1002 264.186 92.2226 265.016 92.2173C265.815 92.2068 266.314 93.0686 266.303 93.7833V93.7938C266.303 93.7938 266.303 93.8253 266.303 93.8411C266.303 93.8516 266.303 93.8621 266.303 93.8726V93.8832C266.303 93.941 266.303 93.9987 266.293 94.0565C266.246 95.0024 266.172 95.9325 266.025 96.8679C265.815 98.2184 265.531 99.5532 265.195 100.877C264.511 103.557 263.65 106.18 262.688 108.77C261.789 111.198 260.775 113.589 259.714 115.948C258.563 118.492 257.312 120.993 255.967 123.437C254.627 125.854 253.208 128.24 251.595 130.483C250.717 131.708 249.808 132.911 248.815 134.046C248.358 134.566 247.89 135.081 247.391 135.565L247.17 135.78C251.984 134.362 256.671 132.564 261.369 130.772C262.425 130.357 263.476 129.942 264.517 129.496C264.648 129.438 264.779 129.375 264.927 129.364C265.163 129.343 265.342 129.595 265.394 129.795C265.578 130.641 264.553 130.699 264.023 131.014C261.369 132.191 258.705 133.353 255.988 134.383C248.526 137.183 240.743 140.068 232.645 139.643C227.443 139.49 222.451 137.74 218.047 135.018C215.256 133.363 212.566 131.54 209.818 129.811C209.45 129.501 208.83 129.201 208.294 128.849C206.423 130.205 204.137 130.872 202.166 132.086C199.066 133.61 195.729 134.572 192.418 135.507C181.756 138.713 170.642 140.205 159.512 139.869C157.257 139.806 154.898 139.532 152.738 138.97C152.218 138.797 151.366 138.77 151.293 138.15C151.119 138.361 150.946 138.565 150.767 138.76C149.249 140.405 147.026 141.351 144.782 141.098C142.501 140.872 140.131 139.58 138.928 137.635C138.838 137.325 138.917 136.947 139.101 136.679C138.97 136.537 138.896 136.337 138.886 136.138C132.054 135.076 125.265 133.694 118.46 132.486C112.106 131.456 105.695 130.904 99.3315 129.968C98.5538 129.863 97.776 129.742 97.0141 129.559C96.0734 129.758 95.1433 130.026 94.2026 130.242C91.1285 131.014 87.986 131.629 84.8067 131.629C83.1724 131.603 81.5171 131.487 79.9669 130.946C79.7409 130.888 79.5833 130.72 79.5045 130.51C74.8643 135.076 70.5237 133.5 65.7259 131.088C62.431 133.242 58.0011 138.77 54.3594 138.644C54.2858 138.644 54.207 138.634 54.1282 138.623C53.6867 138.975 53.2453 139.327 52.8039 139.679C53.8759 140.594 53.5448 144.787 53.1928 145.686C52.2994 149.701 49.1202 153.053 44.748 151.839C43.7338 151.55 42.8825 151.146 42.0049 150.694C42.0207 151.277 41.863 151.897 41.6686 152.391C40.5598 155.087 37.5487 156.164 35.1524 157.352C31.9994 158.849 28.9253 160.489 25.993 162.381C24.8894 163.053 23.7911 163.731 22.6771 164.383C22.5142 164.477 22.3302 164.451 22.1779 164.335C22.1043 164.283 22.0465 164.209 22.0097 164.131C21.8573 164.409 21.5525 164.588 21.2477 164.362C21.6891 165.329 20.8326 166.28 20.533 167.178C19.3297 169.753 17.6165 174.02 14.2796 174.01C14.2639 174.115 14.2271 174.22 14.1745 174.32C13.5649 175.108 12.2775 175.365 11.4104 175.838C11.3368 175.865 11.2633 175.891 11.1949 175.923C11.6994 177.284 12.2459 178.471 12.845 179.738C14.4373 179.117 16.0716 178.613 17.7426 178.277C18.4836 178.166 19.2824 178.051 20.0075 178.313C21.3055 179.018 22.2935 180.226 22.903 181.561C23.1921 182.181 23.2656 182.875 23.439 183.526C24.0749 184.577 25.3203 185.145 25.7775 186.343C26.3556 187.515 26.2084 188.855 26.6866 190.048C27.1596 191.015 27.9163 191.824 28.2526 192.864C28.9988 195.166 29.0461 197.72 30.4019 199.795C30.7435 200.384 30.8643 201.083 31.2269 201.656C32.136 202.454 32.9348 203.385 33.1871 204.604C33.4288 205.455 33.4288 206.369 33.681 207.221C34.1119 208.198 34.5796 209.154 34.8739 210.19C35.3889 211.503 35.2838 212.922 35.6989 214.252C35.7672 214.567 35.7252 214.977 35.5938 215.334C35.7777 215.502 35.9039 215.749 35.9249 216.038C36.0615 217.552 34.238 218.04 33.2764 218.834C30.9694 220.468 28.7623 221.845 26.1191 222.681C22.6403 223.984 18.883 225.56 15.1362 225.324C14.679 225.024 14.5161 224.462 14.2796 223.994C13.9065 223.196 13.4756 222.418 13.0289 221.656C12.4404 220.973 11.8308 220.284 11.505 219.422C10.9847 217.83 10.3909 216.249 9.90222 214.656C9.78136 213.731 10.1545 212.822 10.228 211.955C8.49914 210.868 8.13654 208.85 7.44814 207.084C6.68091 205.728 5.93997 204.625 5.66671 203.048C5.22529 201.671 4.14276 200.484 3.75389 199.181C3.38078 198.072 3.39655 196.879 2.83426 195.833C2.4454 194.803 2.63983 193.684 2.38759 192.633C2.22994 192.165 1.73597 191.918 1.53628 191.461C1.3471 191.135 1.32083 190.741 1.31032 190.373C1.40491 189.601 0.784825 189.133 0.564116 188.461C0.422231 187.982 0.427486 187.389 0.695491 186.947C0.816355 186.753 0.979254 186.532 1.15792 186.322C1.14741 186.248 1.15793 186.17 1.16844 186.096C1.19471 185.476 1.81479 185.26 2.28774 185.024C3.94832 184.178 5.5616 183.258 7.20641 182.381C6.95943 181.713 6.78601 181.004 6.52326 180.363C6.38663 179.743 5.88741 178.729 5.70348 177.841C5.27257 177.898 4.83641 177.925 4.38973 177.898C2.52947 177.567 0.868904 175.796 0.711255 173.91C0.648195 172.607 1.14215 170.09 2.61355 169.727C2.67661 169.685 2.73968 169.638 2.80274 169.596C2.35081 169.117 2.41387 168.187 2.24571 167.578C2.06704 166.653 2.01975 165.502 2.34555 164.567C1.16318 162.643 0.853139 156.663 0.858394 154.829C1.0791 149.995 3.6698 145.181 7.3115 142.044C9.22957 140.62 11.4577 139.632 13.7751 138.991C13.7751 138.991 13.7804 138.991 13.7856 138.991C13.8067 138.981 13.8224 138.975 13.8382 138.97C14.0904 138.87 14.3374 138.76 14.5897 138.671C14.9155 138.56 15.2465 138.445 15.5723 138.334C15.8561 138.24 16.1556 138.171 16.4499 138.092C17.5955 137.777 18.7569 137.562 19.9392 137.462C21.563 137.325 23.1816 137.415 24.7843 137.677C25.1206 137.73 25.4517 137.809 25.7775 137.882C26.1191 137.956 26.4607 138.029 26.7917 138.119C27.5222 138.318 28.2369 138.56 28.9358 138.854C29.3194 139.012 29.6872 139.201 30.0656 139.385C31.0535 139.863 32.0152 140.389 32.9926 140.888C33.6022 141.198 34.2223 141.513 34.8161 141.855C35.4677 142.223 36.0931 142.622 36.6974 143.064C37.2859 143.489 37.843 143.952 38.4 144.414C38.689 144.656 38.9675 144.903 39.246 145.15C39.4457 145.329 39.6875 145.533 39.8346 145.77C41.9471 144.22 43.944 142.522 46.067 140.993C46.4296 140.704 46.7869 140.415 47.1443 140.121C46.8185 139.979 46.5084 139.653 46.293 139.417C43.9282 137.183 43.9072 133.699 44.7375 130.767C46.0933 127.425 50.2184 124.414 53.6815 123.594C57.381 122.722 61.3748 123.163 64.9639 124.298C67.0029 124.813 69.0103 125.444 70.881 126.416C72.0844 125.565 73.209 124.593 74.4071 123.726C76.094 122.464 77.7125 121.109 79.2785 119.7C79.3994 119.632 79.5307 119.511 79.6779 119.369C79.0473 118.881 78.4219 118.339 78.1329 117.588C76.6615 117.225 74.8591 117.094 73.2142 116.7C73.1617 116.742 73.1091 116.789 73.0566 116.831C72.6572 117.162 72.2578 117.488 71.8532 117.819C70.9493 118.56 70.0455 119.301 69.1416 120.042C68.2273 120.793 67.3129 121.545 66.3933 122.296C65.9571 122.654 65.521 123 65.09 123.358C64.8956 123.515 64.7064 123.678 64.512 123.836C64.4069 123.92 64.286 123.999 64.1494 123.999C64.1231 123.999 64.0916 123.999 64.0653 123.988C63.8919 123.946 63.7658 123.815 63.7237 123.642V123.631C63.7237 123.615 63.7185 123.594 63.7132 123.578C63.7132 123.547 63.708 123.515 63.7132 123.484C63.7132 123.389 63.7343 123.295 63.771 123.211C63.8446 123.043 63.9655 122.937 64.0968 122.827C62.1893 122.664 59.9559 122.675 58.6107 121.167C57.7121 120.116 57.98 118.444 59.0416 117.609C59.6774 117.215 60.4184 117.02 61.1751 116.942C60.555 116.453 60.1556 115.785 60.1714 114.85C60.2292 114.188 60.5392 113.421 61.1435 113.074C62.6097 112.501 64.2493 112.375 65.8363 112.517C64.9114 110.993 66.4931 109.506 67.9015 109.122C71.333 108.15 74.9431 107.992 78.485 107.751C79.4939 107.703 80.5029 107.672 81.5119 107.661C81.7746 107.672 81.9743 107.814 82.0847 108.014C82.731 107.483 83.3774 106.952 84.0237 106.427C85.863 104.924 87.7022 103.415 89.552 101.923C93.1674 99.0014 96.7881 96.0849 100.409 93.1684C104.087 90.2047 107.771 87.241 111.455 84.2772C115.096 81.345 118.749 78.418 122.385 75.4858C126.069 72.522 129.753 69.5688 133.442 66.6155C137.141 63.6518 140.83 60.6827 144.524 57.7137C148.203 54.7552 151.881 51.7914 155.56 48.8329C159.17 45.927 162.775 43.0158 166.385 40.1151C169.932 37.2617 173.479 34.4082 177.021 31.5496C180.011 29.1323 183.007 26.7203 186.018 24.3294C185.697 23.8617 185.492 23.2836 185.208 22.8265C184.341 20.7508 182.744 18.1707 183.963 15.9584C184.704 14.9179 185.881 14.4397 187.111 14.1402C187.111 13.9615 187.174 13.7723 187.258 13.6251C188.204 11.2342 189.775 10.6089 191.541 10.7823C192.355 9.58418 193.848 8.86424 195.303 8.72762C195.361 8.65405 195.435 8.59621 195.529 8.56468C197.784 6.4312 199.844 7.13013 202.355 8.33876C202.881 8.53844 203.711 8.95356 204.568 9.49481C204.62 9.2741 204.794 9.04288 205.041 9.09017C206.071 8.29143 207.132 7.52425 208.183 6.75703C208.698 6.38393 209.213 6.01611 209.733 5.65878C210.054 5.43807 210.469 5.13325 210.863 5.35395C211.683 5.69027 212.587 5.85846 213.333 6.37343C214.484 7.05132 215.44 8.78539 214.747 10.015C215.03 10.2357 215.167 10.714 215.004 11.0503C213.775 12.6163 212.088 13.7618 210.464 14.9652C211.499 15.333 212.634 14.9757 213.675 14.7235C214.752 14.4397 215.824 14.1402 216.901 13.8564C220.412 12.9526 223.932 12.096 227.322 10.8348C234.658 8.53319 242.178 6.87264 249.666 5.18056C250.538 2.93147 254.112 0.424869 256.434 0.367065C258.699 0.424869 260.533 1.55995 261.81 3.21524C262.467 2.94199 262.704 3.84579 263.066 4.22414C263.797 5.09645 264.674 5.8164 265.589 6.48377C268.989 8.75388 273.482 9.78386 275.736 13.4728V13.4465Z" fill="#050505"/>
<path d="M12.4408 216.022C10.0708 215.139 9.80807 212.796 9.05135 210.725C8.71503 210.1 8.27362 209.532 8.06867 208.844C7.80067 208.156 7.70083 207.415 7.43282 206.726C6.88105 205.801 6.29249 204.892 6.12958 203.805C5.85632 202.338 5.85107 200.783 4.92094 199.532C4.9262 199.543 4.93671 199.553 4.94197 199.564C4.94197 199.564 4.94721 199.574 4.96297 199.595C4.29559 198.513 3.7123 197.504 3.397 196.28C3.05543 195.113 3.27087 193.868 3.01338 192.69C2.54569 191.471 1.64184 190.494 1.09006 189.327C0.596094 188.581 0.427924 186.558 1.80998 186.926C2.31446 187.11 2.33023 187.935 1.90983 188.213C2.51941 189.637 3.73857 190.736 4.23254 192.218C4.64243 193.82 4.36391 195.644 5.37812 197.063C5.96143 198.003 6.71289 198.87 7.13854 199.9C7.71659 201.235 7.63776 202.78 8.34718 204.062C9.27732 205.155 9.59788 206.532 10.0498 207.856C11.6263 210.478 12.6037 213.442 13.4708 216.374C13.1345 216.311 12.7719 216.159 12.4408 216.027V216.022Z" fill="#050505"/>
<path d="M267.385 81.1925C264.973 78.8436 262.981 76.1426 260.832 73.5572C257.637 70.4358 254.295 67.3038 252.387 63.226C252.245 62.4168 253.265 61.7967 253.654 62.7111C255.299 65.575 257.422 68.1919 259.797 70.4673C261.379 71.8703 262.687 73.5204 264.059 75.1231C265.446 76.7101 266.959 78.1815 268.457 79.6581C269.182 80.3885 268.352 82.0754 267.39 81.1873L267.385 81.1925Z" fill="#050505"/>
<path d="M256.981 133.672C256.597 133.531 256.56 132.905 256.87 132.674C257.138 132.501 257.469 132.411 257.758 132.269C259.619 131.486 261.374 130.651 263.155 129.768C264.758 129.027 266.387 128.318 267.921 127.43C268.715 127.12 270.002 125.47 270.601 126.773C271.532 128.523 264.112 130.798 262.803 131.513C261.374 132.191 259.908 132.79 258.42 133.336C257.958 133.473 257.474 133.762 256.981 133.683V133.672Z" fill="#050505"/>
<path d="M263.807 96.7576C263.554 96.2584 263.77 95.6908 263.796 95.1601C264.112 91.7602 264.464 88.355 264.574 84.9393C264.495 82.5116 264.232 80.0943 264.201 77.6665C264.201 76.542 265.52 76.3266 265.725 77.5037C265.767 77.551 265.804 77.6035 265.835 77.6561C265.861 77.7034 265.888 77.7559 265.914 77.8084C267.175 77.3933 266.849 80.1101 266.97 80.8405C267.07 83.1054 267.054 85.3808 266.797 87.6351C266.781 89.5637 266.713 91.4869 266.524 93.405C266.466 94.3456 266.245 95.4438 265.352 95.9431C265.241 96.7681 264.516 97.7718 263.817 96.7523L263.807 96.7576Z" fill="#050505"/>
<path d="M261.984 107.172C262.746 97.4558 264.927 87.8919 265.142 78.1335C265.205 77.4977 265.972 77.3821 266.135 78.0442C266.209 78.3595 266.177 78.6906 266.182 79.0111C265.988 83.7615 265.773 88.4594 265.032 93.152C264.238 97.8604 263.203 102.59 261.989 107.177L261.984 107.172Z" fill="#050505"/>
<path d="M262.299 106.369C263.765 96.6056 264.086 86.6581 263.597 76.8052C263.487 76.3112 264.086 75.7174 264.501 76.1851C264.953 76.9891 264.806 78.0295 264.948 78.9229C265.158 81.7815 265.305 84.656 265.305 87.5251C265.342 91.5872 265.205 95.6755 264.322 99.6535C263.765 101.945 263.045 104.188 262.294 106.364L262.299 106.369Z" fill="#050505"/>
<path d="M268.642 128.256C268.416 128.145 268.547 127.825 268.595 127.636C268.658 127.452 268.773 127.299 268.905 127.163C269.141 126.669 269.131 125.986 269.168 125.518C269.252 124.068 269.168 122.612 269.131 121.162C269.073 119.417 269.02 117.636 268.921 115.896C268.642 109.974 268.773 104.036 268.569 98.1137C268.569 92.3701 268.117 86.6264 268.553 80.8881C268.3 80.7305 268.001 80.6622 267.717 80.6096C267.286 80.8461 267.024 80.1157 267.339 79.8582C267.959 79.3379 269.168 79.7846 269.441 80.515C270.019 83.3632 269.777 86.3217 269.893 89.2172C270.092 96.6055 270.124 103.999 269.998 111.388C269.977 115.492 270.187 119.59 270.155 123.689C270.061 124.819 270.392 128.624 268.647 128.261L268.642 128.256Z" fill="#050505"/>
<path d="M274.18 13.925C276.451 16.9414 276.424 21.0349 276.125 24.645C275.289 29.3587 272.378 33.4049 269.724 37.283C265.652 43.1632 261.731 49.1486 257.123 54.6399C252.94 60.0157 247.911 64.845 244.842 71.0142C247.496 68.6915 249.95 66.1324 252.288 63.4629C252.588 64.0725 253.103 64.7083 253.308 65.1182C254.154 66.4687 255.084 67.7666 256.088 68.9963C256.098 69.1014 256.135 69.2065 256.214 69.3011C256.193 69.9475 256.156 70.5938 256.103 71.2454C255.756 71.7866 255.615 72.5802 255.551 73.1897C255.268 74.7504 254.973 76.3163 254.658 77.8718C253.828 82.5854 251.899 86.9838 249.866 91.2823C247.953 95.3075 245.861 99.2487 243.665 103.127C239.639 110.137 235.598 117.178 230.433 123.421C228.105 126.317 225.603 129.07 222.871 131.587C222.151 132.234 221.089 133.011 220.259 133.631C220.07 133.784 219.954 133.999 219.912 134.231C216.686 132.486 213.391 130.226 209.544 127.646C210.243 126.79 210.816 125.812 211.383 124.887C209.67 124.971 208.451 125.986 207.227 127.068C206.076 127.898 204.62 128.314 203.343 128.939C202.229 129.485 201.141 130.095 199.985 130.568C196.27 132.16 192.339 133.153 188.472 134.294C180.079 136.627 171.44 138.056 162.722 138.235C159.885 138.371 157.036 138.408 154.225 137.909C153.437 137.788 152.659 137.599 151.892 137.404C153.111 135.781 154.072 133.905 153.889 131.861C152.612 132.507 151.787 133.695 151.145 134.929C149.816 137.257 147.514 139.375 144.65 138.986C142.985 138.855 141.608 137.935 140.425 136.832C140.714 136.758 140.998 136.643 141.271 136.501C141.75 136.569 142.233 136.637 142.716 136.7C143.746 136.926 144.162 135.739 144.719 135.098C146.411 132.675 147.404 129.575 146.321 126.695C145.333 123.7 143.599 120.82 140.925 119.06C139.443 118.214 137.808 116.254 135.99 117.01C135.859 116.989 135.727 116.968 135.596 116.952C136.368 115.644 137.456 114.304 138.912 113.789C139.905 113.547 140.84 113.721 141.86 113.789C145.265 114.004 146.999 115.402 148.429 118.45C148.513 118.818 148.854 119.154 149.238 119.007C150.373 118.513 148.97 116.264 148.166 115.061C153.925 114.483 159.517 112.722 165.145 111.44C168.124 110.626 171.162 110.053 174.173 109.354C173.674 109.748 173.169 110.132 172.654 110.51C172.15 110.815 172.092 111.908 172.743 112.144C172.917 112.207 173.122 112.218 173.279 112.107C173.926 111.666 174.535 111.172 175.161 110.71C177.336 109.044 179.564 107.425 181.577 105.56C185.529 102.05 188.508 97.4515 192.376 93.8887C192.523 96.0274 193.29 98.1189 194.462 99.9056C196.26 102.691 198.756 105.402 202.077 106.301C207.531 107.951 212.813 104.567 216.596 100.904C222.361 95.1236 224.852 86.474 223.801 78.4551C223.323 75.98 222.167 73.5576 220.779 71.3978C218.898 69.0489 216.255 67.2412 213.491 66.0588C214.505 64.6452 215.293 63.0583 215.997 61.4555C216.223 60.9826 216.423 60.5044 216.617 60.0157C218.099 57.115 219.581 54.188 221.662 51.6551C227.747 43.9777 235.409 37.6562 243.223 31.8075C243.376 31.6971 243.549 31.613 243.696 31.5026C243.786 31.4396 243.854 31.345 243.901 31.2452C244.821 31.8442 245.835 32.2856 246.886 32.5063C249.624 33.0423 252.367 31.5447 253.644 29.117C253.066 29.5794 252.393 30.1049 251.684 30.4254C248.294 31.9231 243.481 30.5988 241.799 27.1989C241.799 27.1884 241.799 27.1779 241.789 27.1621C241.804 27.1621 241.82 27.1568 241.836 27.1516C242.766 26.9834 243.696 26.8311 244.616 26.6209C244.71 26.9625 244.984 27.2567 245.378 27.2672C246.529 27.4091 247.585 26.7575 248.531 26.1847C250.659 25.0076 252.304 23.1789 253.386 21.0086C256.066 16.3896 257.044 9.40586 252.356 5.73269C252.225 5.6381 252.057 5.51198 251.873 5.40163C251.789 5.07057 251.495 4.79727 251.048 4.8288C252.157 3.45202 253.791 2.45359 255.431 1.87556C257.748 1.3343 260.139 2.81619 261.321 4.77627C262.819 7.40897 262.74 10.5935 262.788 13.5362C263.875 11.6392 264.091 9.25872 263.592 7.04115C263.986 7.39849 264.348 7.68748 264.58 7.86614C267.591 10.173 271.705 10.914 274.186 13.9198L274.18 13.925Z" fill="white"/>
</svg>
