<svg width="291" height="237" viewBox="0 0 291 237" fill="none" xmlns="http://www.w3.org/2000/svg">
<path d="M177.627 95.2532C176.859 94.8661 177.091 93.7878 177.696 93.3563C178.243 92.9186 178.73 92.1621 179.499 92.1781C180.473 92.2553 180.636 94.2508 180.282 94.9191C179.811 95.66 179.101 94.8443 179.12 94.2349C178.607 94.5511 178.355 95.5231 177.632 95.2532L177.627 95.2532Z" fill="black"/>
<path d="M170.803 91.2616C170.328 89.988 172.38 89.8895 173.19 90.0174C173.843 90.2757 173.673 91.4607 172.963 91.4243C172.344 91.3785 171.823 91.4773 171.228 91.5485C171.048 91.546 170.875 91.427 170.803 91.2563L170.803 91.2616Z" fill="black"/>
<path d="M171.827 82.8101C172.094 83.7839 171.11 84.8092 170.203 84.0968C169.381 83.3484 168.473 82.3392 168.361 81.1926C168.367 80.0052 169.64 79.6095 170.02 80.8552C170.498 80.7771 170.891 81.1272 171.119 81.5067C171.389 81.9028 171.711 82.3314 171.821 82.81L171.827 82.8101Z" fill="black"/>
<path d="M166.505 79.4279C165.804 79.1107 165.863 77.9134 166.624 77.7067C167.599 76.994 168.947 76.9015 170.009 77.4835C170.825 77.9243 171.574 78.5656 172.158 79.2523C171.397 79.0668 170.631 78.897 169.848 78.796C169.112 78.7274 168.353 78.8016 167.681 79.1209C167.339 79.2858 166.905 79.6031 166.505 79.4226L166.505 79.4279Z" fill="black"/>
<path d="M17.8537 174.142C16.5589 173.864 16.098 172.326 16.3951 171.164C16.658 170.176 17.6482 169.108 18.7302 169.065C21.9596 169.344 20.8364 174.629 17.8536 174.147L17.8537 174.142Z" fill="black"/>
<path d="M79.3857 120.749C79.2585 120.747 79.1314 120.74 79.0043 120.733C78.8348 120.725 78.6707 120.712 78.5065 120.699C78.2947 120.686 78.0776 120.672 77.866 120.637C77.755 120.62 77.6493 120.592 77.5439 120.553C77.4595 120.521 77.3805 120.488 77.3015 120.449C77.154 120.384 77.0065 120.318 76.8537 120.252C76.991 120.291 77.1283 120.325 77.271 120.354C77.3354 120.301 77.3997 120.249 77.4587 120.197C77.5554 120.103 77.6784 120.031 77.8215 120.033C78.1076 120.037 78.2843 120.293 78.3389 120.559C78.7089 120.628 79.0581 120.681 79.37 120.738C79.3753 120.738 79.3859 120.738 79.3912 120.738L79.3857 120.749Z" fill="black"/>
<path d="M87.7465 125.191C87.2036 124.977 86.6824 124.72 86.1721 124.443C85.8092 124.242 85.4569 124.035 85.1156 123.803C84.6903 123.51 84.2867 123.187 83.9315 122.816C83.5604 122.44 83.2113 122 83.0489 121.489C83.0336 121.446 83.0235 121.404 83.0083 121.356C83.4936 121.527 83.8867 121.845 83.8093 122.454C84.2696 122.895 84.7568 123.305 85.2762 123.688C85.5105 123.612 85.7325 123.658 85.9197 123.92C85.9924 124.027 86.0386 124.134 86.0637 124.235C86.6047 124.587 87.1727 124.907 87.7518 125.197L87.7465 125.191Z" fill="black"/>
<path d="M203.28 96.8938C203.534 96.9186 203.793 96.9434 204.048 96.9681C201.585 96.7907 199.111 96.6766 196.651 96.7483C196.577 96.7526 196.502 96.7622 196.433 96.7718C196.402 96.7555 196.376 96.7339 196.355 96.7177C196.365 96.7178 196.37 96.7179 196.381 96.718C197.316 96.5562 198.257 96.3838 199.2 96.3757C199.317 96.3985 199.422 96.453 199.495 96.5336C199.547 96.582 199.589 96.6409 199.625 96.705C199.954 96.7043 200.282 96.7142 200.611 96.7294C200.775 96.7316 200.945 96.7393 201.109 96.7469C201.142 96.6467 201.202 96.5468 201.282 96.4843C201.357 96.4164 201.453 96.3754 201.559 96.3768C201.665 96.3783 201.749 96.4219 201.823 96.4812C201.917 96.562 201.979 96.6742 202.004 96.7965L202.014 96.7966C202.378 96.6056 202.692 96.5199 202.934 96.5922C203.093 96.6527 203.208 96.7603 203.285 96.8939L203.28 96.8938Z" fill="black"/>
<path d="M151.239 135.306C151.578 137.553 150.355 139.731 148.991 141.429C139.902 140.157 130.868 137.99 121.809 136.518C115.021 135.607 108.141 134.806 101.407 133.858C96.8599 134.945 92.2467 136.201 87.5303 135.743C86.5355 135.623 85.5412 135.466 84.5916 135.14C86.2571 132.777 87.41 129.931 87.5245 127.038C88.1612 127.376 88.8198 127.661 89.5114 127.861C92.1878 128.646 95.0966 127.971 97.6318 127.105C95.0583 126.921 92.5626 126.854 90.0391 126.124C88.6566 125.681 87.2979 125.042 86.0583 124.235C86.0332 124.134 85.987 124.027 85.9142 123.92C85.7218 123.657 85.4998 123.612 85.2708 123.688C84.7514 123.305 84.2642 122.895 83.8039 122.454C83.9287 121.485 82.8665 121.253 82.1256 121.169C81.2054 121.018 80.2849 120.889 79.3646 120.749C79.0526 120.691 78.7036 120.633 78.3334 120.57C78.2841 120.304 78.1022 120.047 77.816 120.043C77.673 120.041 77.5554 120.108 77.4533 120.208C77.389 120.26 77.3299 120.312 77.2656 120.364C75.8601 120.042 74.4419 119.492 73.9606 118.282C73.9606 118.282 73.9662 118.261 73.9717 118.245C74.2112 118.556 74.7012 118.77 75.1142 118.797C76.4939 119.065 78.1341 118.902 79.0151 117.68C77.6415 117.358 76.1778 117.788 74.7945 117.398C76.8935 116.638 81.4329 117.252 82.7272 117.18C86.5342 117.472 90.373 117.393 94.1612 117.891C94.2454 117.934 94.3299 117.957 94.4253 117.958C94.4677 117.959 94.5155 117.954 94.5634 117.939C95.4205 118.052 95.8357 117.548 95.7527 117.038L96.3957 116.538C96.5106 116.662 96.6686 116.733 96.881 116.71C102.727 120.55 110.097 120.78 116.813 121.912C122.33 122.7 127.835 123.683 133.388 124.179C136.517 124.435 139.686 124.49 142.773 125.126C142.899 125.192 143.026 125.225 143.137 125.232C143.32 125.394 143.525 125.535 143.735 125.654C144.838 126.369 145.925 127.121 146.963 127.926C149.196 129.759 150.578 132.545 151.233 135.322L151.239 135.306Z" fill="white"/>
<path d="M80.1459 129.713C80.8257 129.235 81.4952 128.741 82.1438 128.225C81.8393 132.191 79.7908 133.891 76.1691 132.472C76.4531 132.254 76.7371 132.035 77.0256 131.869C77.6357 131.449 78.2512 131.028 78.8665 130.612C78.9925 130.699 79.1509 130.749 79.3152 130.746C79.8536 130.912 80.4801 130.836 80.8627 130.386C80.7081 130.065 80.4461 129.85 80.1405 129.718L80.1459 129.713Z" fill="white"/>
<path d="M73.2657 123.632C73.2013 123.684 73.137 123.736 73.0673 123.794C72.0593 124.617 71.0513 125.441 70.0485 126.27C69.9037 126.389 69.7589 126.509 69.6142 126.629C69.3086 126.492 68.9701 126.44 68.6306 126.462C67.2796 126.416 65.9614 126.297 64.6306 125.945C63.658 125.751 62.2049 124.66 63.6095 123.906C64.8194 123.429 66.138 123.517 67.3883 123.561C67.5909 123.479 67.7151 123.311 67.7762 123.116C68.4577 123.279 69.1292 123.399 69.6894 123.513C70.8587 123.667 72.1017 123.854 73.2656 123.637L73.2657 123.632Z" fill="white"/>
<path d="M75.995 121.396C75.4696 121.823 74.9441 122.256 74.408 122.694C74.2415 122.469 74.0159 122.296 73.7578 122.181C72.9088 121.867 71.967 122.124 71.0836 121.995C69.1534 121.672 66.9075 121.561 65.3838 120.214C65.092 119.855 65.4702 119.346 65.8738 119.293C67.8255 118.833 69.8459 118.771 71.8174 119.17C72.1085 119.2 72.3142 118.895 72.3707 118.642C72.4443 119.067 72.6349 119.462 72.97 119.758C73.2118 119.905 73.451 119.86 73.6225 119.719C74.2318 120.502 75.0567 121.028 75.9949 121.401L75.995 121.396Z" fill="white"/>
<path d="M85.0838 114.276C84.9231 114.401 84.7622 114.531 84.6014 114.662C84.3656 114.849 84.1297 115.037 83.8992 115.224C83.8509 115.266 83.7973 115.308 83.7437 115.349C83.5107 115.336 83.2777 115.322 83.0446 115.308C81.3016 115.247 79.5584 115.196 77.8146 115.193C76.2777 115.171 74.6123 115.243 73.3529 116.233C73.0853 116.415 72.8592 116.666 72.6909 116.95C72.1201 116.831 71.522 116.769 71.0447 116.408C72.5158 115.066 74.7564 115.171 76.6164 114.831C79.4519 114.473 82.1841 114.299 85.0732 114.281L85.0838 114.276Z" fill="white"/>
<path d="M79.9102 120.772C79.7989 120.771 79.6877 120.758 79.5711 120.757C79.3804 120.749 79.195 120.741 79.0043 120.733C78.8348 120.725 78.6707 120.712 78.5065 120.699C78.2947 120.686 78.0776 120.672 77.866 120.637C77.755 120.62 77.6493 120.592 77.5439 120.554C77.4595 120.521 77.3805 120.488 77.3015 120.449C77.1276 120.373 76.9538 120.296 76.7799 120.22C76.6165 120.154 76.4531 120.093 76.295 120.022C76.2002 119.983 76.1107 119.94 76.0374 119.87C75.985 119.827 75.9648 119.757 75.9711 119.689C75.9827 119.615 76.0312 119.557 76.0948 119.558C76.1744 119.548 76.2538 119.56 76.3277 119.582C76.4702 119.621 76.6127 119.671 76.7552 119.716C76.9135 119.765 77.0719 119.81 77.2303 119.855C77.3834 119.899 77.5365 119.944 77.6844 119.978C77.8431 120.001 78.0075 119.998 78.1293 120C78.5111 119.994 78.8874 119.994 79.2636 120.005C79.4809 120.008 79.6928 120.016 79.8783 120.019C79.8942 120.019 79.9048 120.019 79.9207 120.019C80.0692 120.011 80.218 119.986 80.3666 119.973C80.5417 119.954 80.7169 119.935 80.8974 119.916C81.1522 119.888 81.4018 119.86 81.6513 119.832C81.7946 119.818 81.9379 119.804 82.076 119.779C82.0866 119.779 82.0972 119.779 82.1079 119.774C82.1238 119.774 82.1344 119.775 82.1556 119.775C82.2298 119.776 82.3033 119.825 82.3449 119.884C82.4127 119.964 82.4483 120.071 82.4468 120.177C82.4443 120.357 82.3307 120.525 82.1664 120.523C82.1081 120.522 82.0496 120.537 81.9912 120.541C81.8744 120.556 81.7523 120.57 81.6355 120.584C81.3541 120.617 81.0727 120.65 80.7965 120.689C80.6107 120.713 80.4195 120.737 80.2337 120.755C80.1328 120.77 80.0373 120.774 79.9367 120.772C79.9261 120.772 79.9155 120.772 79.9102 120.772Z" fill="white"/>
<path d="M90.3551 125.869C90.2758 125.857 90.1963 125.856 90.117 125.844C89.8841 125.815 89.6515 125.774 89.4243 125.718C88.954 125.616 88.4897 125.461 88.0362 125.296C87.3927 125.064 86.7714 124.769 86.1717 124.438C85.8088 124.236 85.4565 124.03 85.1153 123.797C84.69 123.505 84.2864 123.181 83.9311 122.811C83.56 122.434 83.211 121.995 83.0485 121.484C82.9521 121.175 82.9044 120.793 83.0623 120.498C83.0731 120.477 83.084 120.461 83.1002 120.44C83.1379 120.398 83.2017 120.383 83.2543 120.41C83.3174 120.443 83.3481 120.528 83.3365 120.597C83.336 120.634 83.3249 120.671 83.319 120.708C83.3187 120.729 83.3185 120.751 83.3184 120.756C83.3181 120.777 83.3178 120.798 83.3175 120.82C83.317 120.851 83.322 120.878 83.3321 120.91C83.332 120.92 83.3318 120.931 83.3371 120.936C83.3471 120.974 83.3625 121.011 83.378 121.043C83.4089 121.107 83.4451 121.171 83.4813 121.235C83.5436 121.326 83.6061 121.412 83.6738 121.498C83.8093 121.659 83.9504 121.804 84.1074 121.949C84.4269 122.229 84.7679 122.483 85.1197 122.716C85.5977 123.03 86.1024 123.329 86.6238 123.569C87.377 123.908 88.1467 124.211 88.8808 124.406C89.2082 124.491 89.5411 124.569 89.8741 124.632C90.075 124.672 90.2812 124.712 90.4876 124.731C90.5247 124.732 90.5618 124.732 90.5987 124.749C90.604 124.749 90.6093 124.749 90.6146 124.749C91.0683 124.898 91.0722 125.762 90.567 125.877C90.5351 125.887 90.5032 125.892 90.4767 125.892C90.4343 125.891 90.3973 125.885 90.3657 125.869L90.3551 125.869Z" fill="white"/>
<path d="M172.158 79.2523C171.574 78.5656 170.825 77.919 170.009 77.4836C168.947 76.9015 167.599 76.994 166.624 77.7067C165.869 77.9082 165.804 79.1054 166.505 79.4279C166.905 79.6084 167.339 79.2911 167.68 79.1262C168.353 78.807 169.112 78.7327 169.848 78.8013C170.625 78.9022 171.392 79.0667 172.152 79.2575L172.158 79.2523ZM170.208 84.0968C171.116 84.8092 172.1 83.7839 171.832 82.8101C171.722 82.3368 171.4 81.9082 171.13 81.5069C170.902 81.122 170.504 80.7718 170.031 80.8554C169.646 79.6042 168.379 80.0001 168.373 81.1927C168.484 82.3393 169.392 83.3486 170.214 84.0969L170.208 84.0968ZM172.963 91.4243C173.673 91.4554 173.843 90.2756 173.19 90.0174C172.38 89.8895 170.328 89.988 170.803 91.2616C170.875 91.4322 171.048 91.5513 171.228 91.5538C171.823 91.4826 172.344 91.3785 172.963 91.4296L172.963 91.4243ZM180.282 94.9191C180.636 94.2455 180.473 92.2553 179.499 92.1781C178.725 92.162 178.243 92.9133 177.696 93.3563C177.091 93.7931 176.859 94.8714 177.627 95.2532C178.355 95.5178 178.602 94.5458 179.115 94.2295C179.096 94.8389 179.805 95.6599 180.277 94.919L180.282 94.9191ZM220.465 76.0086C225.441 77.9758 229.152 83.2492 227.92 88.7187C226.554 95.4691 222.861 102.192 216.54 105.407C211.422 107.917 205.632 103.489 204.265 98.5085C204.265 98.4979 204.265 98.4873 204.26 98.4819C205.796 98.5669 207.327 98.6519 208.858 98.6945C210.834 98.7486 212.88 98.793 214.826 98.7565C210.988 98.0244 207.171 97.2503 203.28 96.8991C203.203 96.7655 203.082 96.6525 202.929 96.5974C202.687 96.5251 202.373 96.6108 202.01 96.8019L201.999 96.8017C201.949 96.589 201.782 96.3853 201.554 96.3821C201.337 96.379 201.17 96.5569 201.109 96.7522C200.945 96.7446 200.775 96.737 200.611 96.7347C200.283 96.7195 199.954 96.7096 199.626 96.7103C199.543 96.5448 199.396 96.4209 199.201 96.381C198.236 96.3888 197.263 96.5713 196.307 96.7329C196.212 96.7475 196.116 96.7674 196.025 96.7873C196.844 95.5053 197.504 94.1415 197.995 92.7806C198.491 91.3775 198.872 89.9409 199.168 88.4819C199.282 87.8845 199.439 87.2718 199.278 86.6705C198.73 84.5477 197.473 86.8574 197.411 87.8955C196.197 94.3989 191.469 102.332 184.172 101.812C183.297 101.45 182.423 101.072 181.575 100.668C176.685 98.2351 173.86 92.5182 168.174 91.6597C168.142 90.8481 168.589 90.0115 168.24 89.2008C167.324 87.2214 165.697 85.6667 164.391 83.9362C162.294 81.1292 160.224 78.2376 158.854 74.9955C158.782 74.8407 158.721 74.6756 158.66 74.4998C160.179 73.5085 162.044 70.9104 162.965 70.2659C164.355 69.0237 165.847 68.0903 167.693 67.5912C173.11 66.0976 174.637 72.8726 180.976 72.5528C182.699 72.5132 184.602 71.4106 185.107 69.7478C185.319 70.5141 185.574 71.2704 185.881 72.0063C186.343 73.11 186.89 74.1779 187.613 75.1369C188.472 76.2727 189.566 77.258 190.807 77.9539C192.143 78.7041 193.625 79.2284 195.132 79.4879C195.677 79.5804 196.228 79.641 196.773 79.6487C197.722 79.6619 198.667 79.5267 199.563 79.1681C200.203 78.9119 200.816 78.6024 201.399 78.2395C202.367 77.638 203.384 76.9048 203.576 75.7041C203.634 75.355 203.597 74.9835 203.485 74.6532C203.511 74.6695 203.537 74.6804 203.564 74.6914C205.463 76.4779 207.519 78.0598 209.91 79.1322C210.328 79.1963 210.839 79.0338 211.114 78.693C212.038 78.5681 212.843 77.8425 213.64 77.3871C213.709 77.3404 213.779 77.2936 213.848 77.2416C215.873 76.8722 217.804 76.0139 219.537 74.8665C219.738 75.3146 220.087 75.7118 220.465 76.0086Z" fill="white"/>
<path d="M196.433 96.7771C195.566 96.2773 198.76 96.0674 199.041 96.0289C201.668 95.8111 204.548 95.6923 207.015 96.6491C205.288 96.9643 203.555 96.5425 201.828 96.4866C200.026 96.4774 198.212 96.574 196.433 96.7824L196.433 96.7771Z" fill="white"/>
<path d="M205.504 97.0786C202.491 96.8404 199.451 96.6496 196.434 96.7559C196.229 96.6258 196.381 96.3788 196.603 96.4031C199.555 96.0838 202.553 96.1786 205.514 96.3736C205.959 96.3904 206.417 96.6036 206.736 96.889C206.342 97.0319 205.927 97.1322 205.504 97.0786Z" fill="white"/>
<path d="M184.756 68.2427C184.781 68.3703 184.806 68.4925 184.831 68.6148C183.863 68.8346 183.286 69.8814 182.359 70.2502C174.768 72.5987 173.638 61.5885 164.586 66.8428C161.964 68.2376 160.417 70.8506 158.285 72.8088C158.238 72.3628 158.017 71.925 157.965 71.479C157.817 70.6394 157.877 69.7656 158.022 68.9035C158.153 68.6085 158.169 68.2323 158.066 67.9711C158.774 67.4085 159.487 66.8459 160.2 66.2833C163.812 63.434 167.43 60.5847 171.042 57.7301C171.23 57.5843 171.417 57.4332 171.61 57.2821C171.568 57.6367 171.711 58.0151 172.038 58.1575C175.113 59.2129 178.237 60.2107 181.05 61.888C182.054 62.4533 183.151 62.9033 183.96 63.7415C184.138 63.9189 184.315 64.1335 184.58 64.1637C184.617 64.1642 184.654 64.17 184.686 64.1651C184.663 64.2868 184.64 64.4137 184.623 64.5354C184.446 65.7681 184.524 67.0202 184.751 68.2426L184.756 68.2427Z" fill="white"/>
<path d="M198.407 23.2835C198.236 22.9949 197.991 22.7158 197.751 22.4633C197.851 22.1466 197.698 21.6992 197.327 21.6834C197.136 21.7125 196.962 21.6253 196.766 21.649C196.223 21.7687 196.127 22.5785 196.483 22.9492C196.671 23.148 196.913 23.2892 197.177 23.3512C197.589 23.4417 198.003 23.4104 198.407 23.2835ZM208.471 23.8215C208.434 23.8421 208.396 23.8681 208.359 23.8835C208.252 23.935 208.145 23.976 208.034 24.0115C208.012 24.0165 207.991 24.0215 207.97 24.0265C207.959 24.0264 207.949 24.0315 207.938 24.0367C207.911 24.0469 207.879 24.0517 207.853 24.0567C207.661 24.0964 207.47 24.1256 207.279 24.1653C206.729 24.0781 206.175 23.8848 205.623 23.962C205.601 23.9882 205.579 24.0144 205.569 24.0407C205.465 23.8484 205.351 23.6613 205.226 23.4793C205.164 23.383 205.097 23.2867 205.029 23.1903C204.816 22.8958 204.581 22.6169 204.33 22.3642C204.294 22.3266 204.257 22.289 204.221 22.2567C204.137 22.1707 204.043 22.0951 203.954 22.0144C203.912 21.982 203.875 21.9497 203.833 21.9173C203.791 21.8796 203.744 21.8471 203.702 21.8147C203.628 21.7607 203.55 21.7066 203.471 21.6525C203.439 21.6309 203.403 21.6091 203.371 21.5875C203.256 21.5117 203.135 21.4464 203.008 21.3863C202.966 21.3645 202.929 21.348 202.887 21.3315C202.861 21.3206 202.834 21.3096 202.808 21.2987C202.766 21.2822 202.724 21.2657 202.682 21.2492C202.597 21.2162 202.507 21.1885 202.418 21.1607C202.37 21.1494 202.323 21.1381 202.275 21.1269C202.243 21.1158 202.206 21.11 202.175 21.1043C201.413 20.9559 200.616 21.1037 199.824 21.6864C198.961 22.3794 198.076 23.4591 198.33 24.6342C198.353 24.8678 198.542 25.0613 198.753 25.1066C198.762 25.2446 198.77 25.3878 198.784 25.5258C198.731 25.5251 198.673 25.5243 198.62 25.5288C198.588 25.5284 198.551 25.5385 198.519 25.5539C198.519 25.5539 198.514 25.5539 198.508 25.5538C198.434 25.5846 198.364 25.626 198.305 25.6888C198.112 25.8504 197.903 25.9907 197.705 26.1469C197.421 26.3603 197.137 26.579 196.853 26.7977C196.649 26.9539 196.44 27.1153 196.237 27.2768C196.185 27.1859 196.139 27.0951 196.097 27.0098C195.325 25.3556 194.571 23.5746 194.242 21.704C193.786 20.1815 195.59 19.6872 196.707 19.3741C198.366 19.0103 200.11 18.6635 201.772 19.1691C203.535 19.7291 205.283 20.5963 206.702 21.8248C206.326 22.5405 207.361 23.2229 207.908 23.5485C207.889 23.3521 207.86 23.1503 207.815 22.9482C208.05 23.2272 208.269 23.5165 208.471 23.8215Z" fill="white"/>
<path d="M210.365 21.0119C210.532 21.1785 210.7 21.3452 210.867 21.5118C210.718 21.584 210.562 21.6932 210.423 21.8238C210.401 21.8394 210.38 21.8603 210.358 21.8812C210.305 21.9334 210.256 21.9857 210.213 22.0434C209.998 22.2207 209.784 22.4032 209.538 22.5164L209.528 22.5163C209.528 22.5163 209.496 22.5318 209.475 22.5368C209.475 22.5368 209.475 22.5262 209.469 22.5261C209.438 22.4832 209.412 22.4405 209.386 22.3977C209.137 22.0391 208.845 21.7063 208.589 21.39C206.014 18.7035 202.185 16.5826 198.37 17.2238C198.157 17.258 197.945 17.2922 197.727 17.3315C199.077 14.8111 201.514 15.6244 203.739 16.4877C205.801 17.2692 207.753 18.6323 209.45 20.1456C208.997 20.6694 209.374 21.7773 210.055 21.967C210.25 21.6782 210.255 21.3231 210.365 21.0013L210.365 21.0119Z" fill="white"/>
<path d="M214.151 19.7712C214.076 19.8072 213.991 19.8538 213.895 19.9054C213.873 19.921 213.847 19.9366 213.82 19.9468C213.799 19.9571 213.772 19.9726 213.745 19.9882C213.638 20.0503 213.531 20.1283 213.435 20.2065C213.408 20.2273 213.381 20.2482 213.36 20.2691C213.317 20.3109 213.269 20.3473 213.231 20.3892C212.847 20.5853 212.447 20.744 212.037 20.8761C212.006 20.8174 211.975 20.7586 211.939 20.6998C211.908 20.6411 211.871 20.5875 211.835 20.5287C211.799 20.4752 211.762 20.4217 211.721 20.3681C211.679 20.3145 211.637 20.2609 211.595 20.2126C211.512 20.1054 211.418 20.0087 211.324 19.9067C211.241 19.8207 211.157 19.7347 211.068 19.6539C210.665 19.2772 210.219 18.9371 209.805 18.5973C208.651 17.7065 207.525 16.7843 206.274 16.0353C205.084 15.4621 203.804 14.8453 202.553 14.4673C202.794 14.3011 203.056 14.1563 203.317 14.0327C205.325 12.9581 207.475 13.9211 209.191 15.0953C210.153 15.6707 211.083 16.3039 211.872 17.0994C212.133 17.384 212.416 17.6584 212.687 17.9378C212.461 18.2262 212.526 18.8526 212.766 19.1528C212.952 19.4735 213.234 19.7796 213.599 19.8589C213.613 19.6046 213.638 19.2869 213.637 18.9794C213.83 19.226 214.007 19.4829 214.157 19.7659L214.151 19.7712Z" fill="white"/>
<path d="M216.395 16.6112C216.473 16.713 216.551 16.8149 216.624 16.9166C216.339 17.1883 216.018 17.4277 215.686 17.6563C215.429 17.8542 215.182 18.0839 214.867 18.1855C214.867 18.1855 214.868 18.1855 214.862 18.1855C214.774 18.0623 214.68 17.9391 214.581 17.8211C214.534 17.7621 214.482 17.7031 214.435 17.6494C214.232 17.4186 214.017 17.1983 213.808 16.9833L213.73 16.9028C213.73 16.9028 213.678 16.849 213.652 16.8221C212.545 15.6086 211.287 14.5733 209.851 13.7687C208.9 13.2094 207.933 12.6128 206.877 12.2959C207.24 12.0889 207.624 11.9246 208.064 11.9254C209.554 11.8879 210.873 12.728 212.184 13.3294C213.301 13.8433 214.362 14.5261 215.278 15.3711C215.264 16.007 215.819 16.8418 216.325 17.0715C216.348 16.9552 216.376 16.7965 216.406 16.6061L216.395 16.6112Z" fill="white"/>
<path d="M264.333 12.0901C268.009 16.8223 264.763 25.3595 260.308 28.6052C259.267 28.7232 258.257 28.9689 257.261 29.289C257.134 29.2289 256.986 29.2109 256.821 29.2563C256.672 29.2966 256.523 29.3476 256.374 29.3932C254.093 29.9392 251.766 30.2673 249.456 30.6379C241.521 31.7783 233.557 32.6956 225.661 34.0751C218.709 35.0595 211.415 36.564 204.595 34.1629C204.068 33.9806 203.529 33.8247 203.013 33.616C202.789 33.3478 202.602 33.059 202.431 32.7597C202.475 32.6808 202.508 32.5965 202.53 32.5067C202.499 32.4744 202.473 32.4422 202.452 32.4101C202.41 32.3513 202.374 32.2872 202.343 32.2231C202.169 32.1465 202.023 32.0066 201.951 31.8094C201.905 31.6922 201.886 31.57 201.882 31.448C201.845 31.4475 201.808 31.4523 201.771 31.4623C201.75 31.4196 201.729 31.377 201.709 31.3343C201.023 29.9676 200.38 28.5644 200.03 27.054C200.49 27.8927 201.577 26.6887 201.876 26.1892C202.104 25.7948 202.197 25.2289 202.033 24.7866C202.234 24.0844 202.338 23.068 201.941 22.6861C203.04 22.9082 203.925 24.0709 204.452 25.0218C204.689 25.5658 205.221 26.1882 204.968 26.8102C204.67 27.2619 204.855 28.1021 205.474 28.1425C208.24 27.8312 211.387 27.9811 213.668 29.7729C213.986 30.0954 214.364 30.387 214.824 30.4358L214.793 30.4354C215.231 30.5157 215.42 30.3222 215.378 29.8922C215.098 27.8951 212.468 26.8671 209.961 26.4875C210.33 26.2488 210.678 25.9462 211.068 25.7184C213.611 23.9197 216.227 22.228 218.65 20.2686C218.908 20.0443 219.176 19.8254 219.449 19.6118C219.722 19.7959 220.006 19.9748 220.312 20.0957C222.845 20.8467 225.426 19.4089 227.917 18.9984C231.91 18.1264 235.79 16.9878 239.714 15.7278C247.269 13.6969 254.955 12.1872 262.62 10.619C262.642 10.6193 262.663 10.609 262.684 10.6093C263.348 10.926 263.864 11.564 264.338 12.0955L264.333 12.0901Z" fill="white"/>
<path d="M201.146 23.7776C201.227 24.0332 201.308 24.2941 201.411 24.5447C201.238 24.7861 201.112 25.076 200.976 25.3391C200.783 25.8771 199.995 26.11 199.934 26.6499C199.915 26.5542 199.9 26.4585 199.885 26.3629C199.722 25.91 199.9 24.5342 199.384 24.3308C199.574 23.6443 200.238 23.1341 200.831 22.7978C200.927 22.7621 201.023 22.7316 201.113 22.7063C200.844 22.9941 200.837 23.5083 201.146 23.7829L201.146 23.7776Z" fill="white"/>
<path d="M286.382 18.6317C288.687 21.7809 288.596 26.0047 288.231 29.7316C287.305 34.5851 284.236 38.7248 281.441 42.6882C277.148 48.7034 273.013 54.8268 268.18 60.4262C263.784 65.9152 258.521 70.8301 255.263 77.1566C258.036 74.7992 260.606 72.1898 263.061 69.4675C263.365 70.1025 263.886 70.7671 264.092 71.1888C264.947 72.5949 265.887 73.9439 266.903 75.2303C266.912 75.3418 266.948 75.4483 267.026 75.5448C266.995 76.2123 266.949 76.8796 266.887 77.552C266.518 78.1087 266.364 78.923 266.286 79.5474C265.967 81.1545 265.642 82.7668 265.297 84.3682C264.37 89.227 262.32 93.7362 260.154 98.1483C258.119 102.281 255.9 106.316 253.576 110.292C249.32 117.474 245.048 124.682 239.621 131.057C237.179 134.013 234.553 136.823 231.692 139.376C230.941 140.033 229.833 140.823 228.965 141.447C228.773 141.598 228.648 141.825 228.596 142.063C225.288 140.214 221.918 137.829 217.986 135.113C218.719 134.238 219.327 133.239 219.923 132.294C218.152 132.354 216.881 133.386 215.604 134.486C214.405 135.328 212.894 135.731 211.566 136.365C210.402 136.916 209.276 137.526 208.076 137.997C204.217 139.586 200.148 140.552 196.136 141.679C187.437 143.964 178.498 145.318 169.491 145.373C166.559 145.475 163.617 145.471 160.72 144.911C159.911 144.773 159.108 144.571 158.316 144.353C159.601 142.696 160.619 140.77 160.457 138.658C159.134 139.307 158.258 140.519 157.583 141.788C156.177 144.175 153.772 146.325 150.816 145.881C149.1 145.725 147.693 144.751 146.485 143.594C146.783 143.524 147.076 143.406 147.359 143.267C147.856 143.348 148.353 143.419 148.845 143.495C149.907 143.743 150.354 142.524 150.935 141.865C152.719 139.387 153.786 136.2 152.715 133.211C151.741 130.102 149.991 127.104 147.25 125.247C145.73 124.351 144.073 122.303 142.187 123.061C142.049 123.038 141.912 123.015 141.779 122.992C142.593 121.652 143.736 120.284 145.248 119.77C146.275 119.53 147.242 119.723 148.29 119.812C151.806 120.084 153.572 121.55 155.007 124.719C155.086 125.102 155.436 125.457 155.831 125.303C157.014 124.811 155.595 122.464 154.785 121.212C160.74 120.696 166.536 118.959 172.368 117.72C175.459 116.92 178.605 116.376 181.72 115.698C181.195 116.094 180.67 116.489 180.135 116.869C179.611 117.174 179.532 118.302 180.207 118.556C180.386 118.622 180.598 118.635 180.764 118.526C181.438 118.08 182.076 117.58 182.724 117.106C184.995 115.415 187.318 113.778 189.427 111.883C193.559 108.32 196.699 103.609 200.746 99.9861C200.863 102.198 201.628 104.367 202.816 106.228C204.631 109.132 207.173 111.966 210.588 112.942C216.198 114.721 221.7 111.305 225.659 107.58C231.693 101.695 234.393 92.7954 233.422 84.5015C232.965 81.94 231.803 79.4216 230.403 77.1704C228.492 74.7158 225.788 72.8121 222.954 71.5533C224.024 70.1104 224.858 68.4786 225.607 66.8351C225.847 66.3508 226.06 65.8555 226.263 65.36C227.837 62.3868 229.405 59.3871 231.593 56.8041C237.984 48.9681 245.987 42.5488 254.142 36.6246C254.303 36.5155 254.479 36.4278 254.634 36.3134C254.731 36.2458 254.801 36.1567 254.85 36.0513C255.79 36.6794 256.828 37.1498 257.916 37.3982C260.733 37.9941 263.585 36.4859 264.939 33.9921C264.334 34.4607 263.637 34.9918 262.896 35.3154C259.377 36.8142 254.425 35.3774 252.736 31.8392C252.736 31.8286 252.736 31.8181 252.726 31.802C252.741 31.8022 252.757 31.7972 252.773 31.7921C253.735 31.6306 254.696 31.4849 255.653 31.2862C255.744 31.6374 256.02 31.9487 256.434 31.9651C257.619 32.1247 258.72 31.4668 259.708 30.8922C261.925 29.7039 263.647 27.846 264.796 25.6197C267.629 20.8935 268.742 13.6889 263.951 9.83177C263.815 9.72915 263.642 9.5995 263.458 9.48031C263.378 9.13462 263.074 8.84943 262.618 8.87487C263.783 7.47042 265.488 6.46578 267.186 5.89046C269.59 5.36206 272.033 6.92817 273.223 8.9698C274.733 11.7103 274.602 14.9952 274.613 18.0382C275.764 16.0981 276.02 13.6419 275.538 11.3398C275.941 11.7112 276.313 12.0186 276.544 12.2074C279.616 14.6358 283.861 15.4583 286.378 18.5998L286.382 18.6317Z" fill="#FFB0B4"/>
<path d="M274.559 83.8295C274.758 89.6953 274.671 95.5889 274.245 101.451C274.023 102.88 273.802 104.302 273.591 105.731C273.429 106.328 273.251 106.929 273.068 107.526C271.919 111.21 270.382 115.032 268.718 118.778C268.674 118.883 268.625 118.983 268.576 119.089C266.262 124.214 263.649 129.203 260.751 134.024C259.302 136.4 257.78 138.796 256.015 141.024C255.643 141.48 255.261 141.92 254.857 142.344C253.878 143.025 252.888 143.69 251.882 144.333C251.389 144.739 250.436 145.018 250.291 145.588C242.278 146.971 236.673 145.981 231.275 143.446C233.895 142.635 237.451 138.491 239.047 136.934C241.351 134.421 243.602 131.86 245.685 129.165C248.792 125.354 251.547 121.258 254.055 117.015C257.764 111.007 261.101 104.777 264.058 98.3618C266.378 93.5437 268.097 88.4468 268.823 83.1293C269.043 81.7965 269.242 80.4581 269.478 79.1255C269.546 78.8402 269.504 78.4367 269.366 78.0531C269.81 78.5152 270.265 78.9668 270.736 79.4081C272.031 80.7832 273.23 82.2471 274.455 83.6902C274.492 83.7331 274.534 83.7814 274.57 83.8297L274.559 83.8295Z" fill="#3087FF"/>
<path d="M279.623 129.288C279.645 130.789 279.703 132.295 279.597 133.789C279.566 134.127 279.555 134.567 279.47 134.974C279.042 135.26 278.612 135.62 278.277 135.747C276.685 136.648 274.994 137.356 273.325 138.096C272.13 138.667 270.945 139.218 269.735 139.747C265.435 141.32 261.136 142.85 256.736 144.082L256.967 143.863C257.488 143.372 257.977 142.849 258.456 142.315C259.496 141.158 260.451 139.925 261.375 138.676C263.071 136.378 264.574 133.934 265.986 131.462C267.415 128.959 268.739 126.396 269.963 123.783C271.099 121.361 272.172 118.911 273.14 116.412C274.168 113.749 275.096 111.053 275.84 108.296C276.209 106.934 276.514 105.56 276.756 104.169C276.877 103.471 276.956 102.772 277.019 102.068C277.205 101.604 277.281 101.08 277.315 100.598C277.538 98.6188 277.635 96.6322 277.684 94.6397C277.981 92.3166 278.03 89.9689 277.962 87.6302C277.962 87.5984 277.952 87.5717 277.953 87.5346C278.099 87.6904 278.251 87.8409 278.402 87.9915C278.883 88.4488 279.342 88.2643 279.591 87.8649C279.08 93.7261 279.454 99.605 279.377 105.478C279.504 111.602 279.281 117.727 279.487 123.847C279.568 125.646 279.595 127.48 279.634 129.283L279.623 129.288Z" fill="#FFB0B4"/>
<path d="M200.402 71.4349C200.177 71.5696 199.994 71.8214 199.92 72.1968C194.401 74.1766 186.741 66.5899 192.325 62.2626C194.449 64.5929 196.402 67.0958 198.548 69.4105C199.165 70.0817 199.781 70.7636 200.407 71.4402L200.402 71.4349Z" fill="#FCFA68"/>
<path d="M199.032 27.1462C199.395 28.8741 200.066 30.5321 200.844 32.128C197.473 34.7686 194.066 37.3557 190.701 40.0018C187.179 42.7675 183.664 45.544 180.148 48.3151C176.6 51.1123 173.057 53.9202 169.509 56.7174C165.907 59.5563 162.311 62.4005 158.715 65.2448C155.145 68.0629 151.56 70.8702 147.98 73.6776C144.325 76.5422 140.686 79.4229 137.041 82.3036C133.445 85.1478 129.843 87.9867 126.242 90.8308C122.608 93.7011 118.958 96.5499 115.335 99.4362C111.722 102.317 108.088 105.182 104.465 108.053C102.675 109.475 100.89 110.902 99.11 112.341C98.2683 113.018 97.4319 113.701 96.585 114.378C96.1294 114.743 95.6737 115.108 95.2181 115.467C94.9716 115.665 94.7248 115.874 94.4729 116.072C91.6539 115.629 88.7978 115.563 85.9477 115.449C89.6394 112.611 93.3416 109.779 97.0177 106.915C100.86 103.915 104.708 100.915 108.55 97.9156C112.387 94.9209 116.219 91.9262 120.056 88.9316C123.861 85.9578 127.66 82.9838 131.46 80.0152C135.324 76.9944 139.182 73.9683 143.036 70.9421C146.889 67.9212 150.747 64.9057 154.6 61.8901C158.443 58.8902 162.28 55.8797 166.128 52.8905C169.884 49.9637 173.635 47.0315 177.387 44.0993C181.047 41.2401 184.712 38.3862 188.378 35.527C190.232 34.0792 192.081 32.6313 193.93 31.178C194.868 30.4384 195.806 29.6987 196.749 28.9538C197.188 28.61 197.623 28.2609 198.062 27.9119C198.277 27.7346 198.496 27.5628 198.716 27.3856C198.818 27.3075 198.915 27.2187 199.016 27.1459L199.032 27.1462Z" fill="#FCFA68"/>
<path d="M84.0377 124.694C83.8873 124.84 83.7478 124.96 83.6195 125.033C81.9828 126.468 80.294 127.844 78.5322 129.123C77.2796 130.007 76.105 130.993 74.8526 131.855C72.9377 130.821 70.8746 130.146 68.7728 129.581C68.546 129.504 68.319 129.431 68.0868 129.365C68.1351 129.318 68.1835 129.265 68.2319 129.218C68.2965 129.145 68.3665 129.072 68.4364 128.998C68.5972 128.868 68.7581 128.738 68.9242 128.608C69.3745 128.248 69.8299 127.894 70.2855 127.535C71.2396 126.774 72.199 126.013 73.1532 125.247C74.0966 124.497 75.04 123.742 75.9835 122.986C76.4016 122.653 76.8197 122.319 77.2377 121.986C77.2913 121.944 77.345 121.897 77.3987 121.85C79.0941 122.282 80.9524 122.441 82.4681 122.838C82.7541 123.616 83.3928 124.187 84.0376 124.699L84.0377 124.694Z" fill="#FCFA68"/>
<path d="M66.5285 135.057C67.0336 135.324 67.5335 135.591 68.028 135.858C65.7355 137.564 63.6087 139.56 61.2125 141.106C60.2982 141.671 59.3768 142.363 58.2829 142.507C57.3977 142.505 56.2243 142.266 55.866 141.355C55.6779 140.78 56.0567 140.223 56.1015 139.672C56.7866 139.194 57.4458 138.679 58.0997 138.163C59.9553 136.614 61.9203 135.2 63.8278 133.732C64.1341 133.815 64.4402 133.91 64.7462 134.009C65.3458 134.346 65.9344 134.71 66.5233 135.052L66.5285 135.057Z" fill="#FCFA68"/>
<path d="M43.2016 155.099C43.2016 155.099 43.2227 155.11 43.2331 155.121C43.0681 155.548 43.1108 156.285 43.1277 156.598C43.0173 158.812 40.6225 159.876 38.8878 160.737C36.8604 161.685 34.8482 162.674 32.8982 163.771C30.5476 165.09 28.3525 166.655 26.033 168.022C25.3539 168.447 24.6384 168.824 23.9697 169.26C23.9374 169.297 23.9103 169.339 23.8832 169.381C23.6322 168.757 22.8189 168.539 22.2778 168.192C21.1616 167.657 20.052 167.022 18.8533 166.697C18.9659 166.604 19.0732 166.51 19.1642 166.447C20.0438 165.712 20.9025 164.95 21.7455 164.177C24.9442 161.338 28.334 158.486 31.7938 155.931C34.8757 153.864 38.9821 153.216 42.4172 154.712C42.4252 154.897 42.5076 155.073 42.6861 155.198C42.8964 155.317 43.0566 155.235 43.2016 155.099Z" fill="#FCFA68"/>
<path d="M13.9601 172.869C14.008 172.853 14.0559 172.838 14.1038 172.823C13.2006 175.254 12.6802 177.982 14.2343 179.43C12.5748 180.218 10.7746 180.839 9.01708 181.435C7.713 181.825 6.25609 182.531 4.91821 181.924C4.12434 181.457 3.26991 180.772 3.06041 179.831C2.99812 178.976 3.11007 177.79 3.72375 177.115C3.76659 177.084 3.80943 177.053 3.8575 177.027C6.93268 175.066 10.5506 174.099 13.9601 172.869Z" fill="#FCFA68"/>
<path d="M11.4332 182.99C11.8455 184.215 12.2844 185.43 12.7925 186.619C11.6623 187.086 10.5473 187.6 9.45316 188.142C8.93727 186.746 8.39115 185.238 7.97669 183.79C9.10978 183.499 10.2135 183.032 11.3064 182.586C11.3415 182.724 11.3874 182.857 11.428 182.985L11.4332 182.99Z" fill="#3087FF"/>
<path d="M8.64602 173.07C8.68223 173.134 8.71851 173.193 8.76024 173.241C7.40669 173.758 6.04718 174.322 4.96339 174.879C4.96649 174.657 4.89555 174.423 4.84566 174.199C4.67252 173.312 4.52618 172.403 4.54412 171.497C4.54626 171.343 4.57506 171.179 4.63019 171.026C4.65139 171.026 4.67259 171.027 4.69379 171.027C5.03826 171.032 5.31178 170.802 5.48551 170.508C5.53976 170.419 5.57289 170.324 5.60065 170.234C5.63282 170.208 5.65968 170.182 5.68663 170.15C5.79262 170.152 5.90891 170.175 6.01953 170.224C7.21947 170.84 8.02105 171.895 8.6408 173.065L8.64602 173.07Z" fill="#3087FF"/>
<path d="M17.8592 174.142C20.8366 174.629 21.9599 169.338 18.7357 169.06C17.6538 169.103 16.6636 170.176 16.4007 171.158C16.1036 172.321 16.5645 173.859 17.8592 174.137L17.8592 174.142ZM22.2276 169.909C21.4073 170.195 21.3863 171.318 21.0007 171.986C19.9122 174.399 18.8844 177.782 16.0684 178.639C12.0448 178.297 16.6876 169.975 18.0621 168.335C19.4731 168.641 20.8425 169.264 22.2223 169.909L22.2276 169.909Z" fill="#3087FF"/>
<path d="M55.0648 142.929C55.2784 143.197 55.5348 143.434 55.8289 143.629C54.5922 144.512 53.4281 145.503 52.2277 146.441C49.9545 148.286 47.6554 150.088 45.3301 151.874C44.7031 152.363 44.0813 152.858 43.4699 153.369C43.1391 153.142 42.7652 152.972 42.3642 152.84C42.4605 152.777 42.5567 152.715 42.6527 152.674C44.9594 151.084 47.131 149.307 49.4637 147.754C50.572 146.958 51.6387 146.104 52.7262 145.282C53.4012 144.771 54.0762 144.261 54.7407 143.741C54.9872 143.548 55.1134 143.242 55.07 142.934L55.0648 142.929Z" fill="#3087FF"/>
<path d="M224.557 13.6186C224.525 13.6287 224.488 13.6442 224.45 13.6595C221.975 15.9681 219.097 17.8205 216.538 20.043C214.073 21.9489 211.567 23.7799 209.05 25.6054C208.741 25.7072 208.615 26.0447 208.658 26.3421C207.779 26.2875 206.973 26.3081 206.373 26.4004C206.344 26.1562 206.29 25.8956 206.219 25.6349C206.219 25.6349 206.23 25.6297 206.235 25.6245C206.435 25.7015 206.658 25.7417 206.859 25.771C206.986 25.7834 207.118 25.7959 207.25 25.7977C208.319 25.9769 209.61 25.3376 209.89 24.2654C209.947 24.0223 209.945 23.7837 209.9 23.5552C210.272 23.4967 210.698 23.3489 211.014 23.1148C211.584 22.9372 212.079 22.4087 212.198 21.8167C212.257 21.8281 212.315 21.8342 212.373 21.8403C212.674 21.9028 213.354 21.801 213.871 21.5749C214.826 21.567 215.796 20.409 215.459 19.4501C215.434 19.3384 215.399 19.2319 215.358 19.1253C215.899 19.1329 216.511 18.94 216.924 18.5747C217.202 18.4354 217.454 18.2004 217.632 17.9696C218.584 16.6205 217.176 14.9628 215.497 13.683C215.572 13.6417 215.642 13.6003 215.706 13.5376C217.397 12.4267 219.082 11.3105 220.778 10.2103C223.331 11.0729 223.799 11.3338 224.552 13.6132L224.557 13.6186Z" fill="#FCFA68"/>
<path d="M8.75468 173.247C8.71832 173.193 8.68196 173.139 8.64045 173.075C8.02062 171.911 7.21912 170.85 6.01918 170.234C5.90325 170.185 5.79227 170.162 5.68627 170.161C5.66463 170.192 5.63246 170.218 5.6003 170.244C5.57247 170.34 5.53411 170.429 5.48516 170.519C5.31143 170.813 5.03261 171.042 4.69344 171.038C4.67224 171.037 4.65104 171.037 4.62984 171.037C4.5747 171.19 4.54591 171.354 4.54377 171.507C4.52575 172.419 4.66687 173.322 4.84531 174.21C4.8952 174.433 4.96091 174.662 4.96304 174.89C6.05213 174.333 7.41164 173.768 8.75989 173.252L8.75468 173.247ZM12.7927 186.619C12.2845 185.43 11.8457 184.21 11.4334 182.99C11.3927 182.862 11.3469 182.729 11.3117 182.591C10.2189 183.032 9.11514 183.504 7.98205 183.796C8.3912 185.243 8.93733 186.751 9.45851 188.147C10.5527 187.606 11.6677 187.091 12.7979 186.625L12.7927 186.619ZM14.1089 172.823C14.0609 172.838 14.013 172.853 13.9651 172.869C10.5556 174.099 6.94307 175.061 3.86251 177.027C3.81452 177.047 3.77168 177.079 3.72876 177.115C3.12038 177.791 3.00306 178.982 3.06542 179.831C3.26962 180.772 4.12405 181.457 4.92323 181.924C6.2611 182.531 7.718 181.825 9.02208 181.435C10.7796 180.839 12.5798 180.218 14.2393 179.43C12.6852 177.982 13.2057 175.254 14.1089 172.823ZM21.0007 171.981C21.3811 171.313 21.4074 170.189 22.2277 169.904C20.8479 169.259 19.4784 168.636 18.0674 168.33C16.6876 169.97 12.0501 178.297 16.0738 178.634C18.8898 177.777 19.9123 174.393 21.0061 171.981L21.0007 171.981ZM36.1162 152.349C35.5621 151.79 34.9758 151.263 34.352 150.766C33.5862 150.183 32.7772 149.663 31.9356 149.201C31.0621 148.738 30.1453 148.349 29.2115 148.028C28.1719 147.696 27.11 147.448 26.0309 147.289C24.9621 147.153 23.8868 147.1 22.8102 147.144C21.6962 147.202 20.5914 147.367 19.544 147.596C19.5281 147.596 19.512 147.607 19.4908 147.606C18.4645 147.846 17.4581 148.172 16.4826 148.572C15.5546 148.977 14.663 149.437 13.797 149.96C13.059 150.427 12.3575 150.942 11.6871 151.5C10.9466 152.147 10.2533 152.826 9.60174 153.559C9.15441 154.089 8.72806 154.634 8.33321 155.201C8.13821 155.5 7.94852 155.8 7.76927 156.11C7.75837 156.131 7.74741 156.158 7.73644 156.184C7.3847 157.08 7.09625 157.999 6.85006 158.928C6.60865 159.895 6.41487 160.868 6.30287 161.677C6.19035 162.524 6.12014 163.376 6.10287 164.235C6.09503 164.797 6.11907 165.353 6.1643 165.911C6.22139 166.378 6.28908 166.845 6.38871 167.303C6.47886 167.68 6.58497 168.053 6.69639 168.426C6.74702 168.596 6.79234 168.766 6.81655 168.931C6.94793 169.012 7.06856 169.104 7.18912 169.201C8.29227 169.916 8.99255 171.013 9.54356 172.171C9.75281 172.37 9.8448 172.615 9.84692 172.843C12.026 172.041 13.9643 171.405 14.3917 171.168C14.5356 171.111 14.6731 171.134 14.7887 171.205C15.1223 170.467 15.4549 169.804 15.722 169.278C16.1338 168.631 16.7598 167.076 17.5715 166.648C17.5699 166.383 17.7217 166.136 17.9829 166.028C21.3238 163.26 24.216 159.981 27.6143 157.272C30.0145 155.058 32.9112 152.973 36.132 152.355L36.1162 152.349ZM43.2333 155.121C43.2333 155.121 43.2123 155.104 43.2018 155.099C43.0568 155.235 42.8966 155.317 42.6863 155.198C42.5026 155.068 42.4254 154.897 42.4174 154.712C38.9824 153.211 34.8759 153.864 31.794 155.931C28.3395 158.486 24.9497 161.338 21.7457 164.177C20.8974 164.95 20.044 165.712 19.1644 166.447C19.0735 166.51 18.9661 166.604 18.8535 166.697C20.0522 167.022 21.1671 167.657 22.278 168.192C22.8138 168.539 23.6324 168.757 23.8834 169.381C23.9105 169.339 23.9376 169.297 23.9699 169.26C24.6386 168.824 25.354 168.453 26.0332 168.022C28.3527 166.655 30.5478 165.09 32.8984 163.771C34.8485 162.674 36.8606 161.685 38.888 160.737C40.6227 159.876 43.0228 158.812 43.1279 156.598C43.111 156.29 43.063 155.548 43.2333 155.121ZM51.5868 149.056C51.6422 148.887 51.6869 148.718 51.7265 148.544C50.1568 149.736 48.5819 150.917 47.0122 152.109C47.2664 152.129 47.5207 152.137 47.7702 152.109C49.4583 151.926 51.1131 150.714 51.5816 149.051L51.5868 149.056ZM55.8288 143.628C55.54 143.434 55.2782 143.197 55.0646 142.929C55.108 143.237 54.9819 143.542 54.7354 143.735C54.0707 144.261 53.3958 144.766 52.7209 145.276C51.6334 146.099 50.5666 146.953 49.4583 147.749C47.1255 149.306 44.9541 151.079 42.6474 152.669C42.5513 152.715 42.4604 152.772 42.3588 152.834C42.7598 152.967 43.139 153.142 43.4645 153.364C44.0759 152.853 44.6977 152.358 45.3247 151.868C47.65 150.088 49.9491 148.28 52.2223 146.435C53.4227 145.498 54.5868 144.507 55.8235 143.623L55.8288 143.628ZM62.0468 133.336C60.9258 133.14 59.7875 133.044 58.6529 133.066C56.2105 133.742 53.9935 135.36 53.3356 137.683C53.2165 138.243 53.1928 138.805 53.2273 139.367C53.2273 139.367 53.2273 139.367 53.2272 139.373C53.323 140.105 53.5454 140.882 53.8999 141.693C54.0183 141.939 54.1635 142.174 54.234 142.44C54.4047 142.358 54.5851 142.344 54.7378 142.421C54.5677 142.074 54.4723 141.691 54.4729 141.272C54.4785 140.869 54.5115 140.403 54.634 139.981C54.3214 139.589 54.3902 138.837 54.9887 138.872C57.3986 137.109 59.6575 135.147 62.0466 133.346L62.0468 133.336ZM68.0278 135.858C67.5332 135.591 67.0334 135.324 66.5283 135.057C65.9394 134.715 65.3508 134.352 64.7512 134.015C64.4452 133.915 64.1391 133.821 63.8328 133.737C61.9253 135.205 59.9603 136.62 58.1047 138.168C57.4508 138.684 56.7917 139.194 56.1065 139.678C56.0564 140.228 55.6776 140.785 55.871 141.36C56.2293 142.277 57.4027 142.511 58.2879 142.512C59.3818 142.369 60.3032 141.671 61.2175 141.111C63.6137 139.565 65.7352 137.57 68.033 135.863L68.0278 135.858ZM73.0673 123.794C73.1316 123.742 73.1959 123.689 73.2657 123.632C72.0964 123.854 70.8535 123.662 69.6895 123.508C69.1239 123.394 68.4524 123.273 67.7762 123.11C67.7205 123.306 67.591 123.473 67.3884 123.555C66.1381 123.506 64.8194 123.424 63.6096 123.9C62.2049 124.66 63.658 125.746 64.6306 125.94C65.9614 126.297 67.2796 126.411 68.6307 126.457C68.9649 126.435 69.3087 126.487 69.6142 126.624C69.759 126.504 69.9038 126.384 70.0486 126.264C71.0514 125.435 72.0594 124.607 73.0674 123.788L73.0673 123.794ZM74.4131 122.694C74.9439 122.256 75.4747 121.823 76.0001 121.396C75.0672 121.023 74.2423 120.497 73.6277 119.714C73.4562 119.855 73.217 119.899 72.9752 119.753C72.6401 119.457 72.4443 119.056 72.3759 118.637C72.3194 118.89 72.1137 119.195 71.8226 119.164C69.8511 118.766 67.8307 118.828 65.8789 119.288C65.4754 119.341 65.0972 119.85 65.389 120.209C66.9127 121.556 69.1586 121.666 71.0888 121.99C71.9721 122.124 72.9139 121.867 73.763 122.176C74.0211 122.291 74.2466 122.464 74.4131 122.689L74.4131 122.694ZM82.1437 128.225C81.4898 128.74 80.8256 129.235 80.1458 129.713C80.4514 129.844 80.7134 130.06 80.868 130.38C80.4853 130.831 79.8588 130.907 79.3205 130.74C79.1508 130.743 78.9925 130.693 78.8718 130.607C78.2616 131.028 77.6463 131.443 77.0308 131.864C76.7423 132.03 76.4583 132.249 76.1743 132.467C79.796 133.891 81.8446 132.186 82.149 128.22L82.1437 128.225ZM83.6193 125.033C83.7476 124.96 83.8871 124.84 84.0375 124.694C83.3928 124.176 82.7593 123.611 82.468 122.833C80.9523 122.435 79.0993 122.277 77.3985 121.845C77.3449 121.887 77.2913 121.934 77.2376 121.98C76.8195 122.314 76.4014 122.647 75.9833 122.981C75.04 123.731 74.0965 124.487 73.1531 125.242C72.199 126.003 71.2395 126.769 70.2854 127.529C69.8298 127.889 69.3743 128.243 68.9241 128.602C68.7632 128.733 68.6024 128.863 68.4416 128.988C68.3769 129.066 68.307 129.14 68.2371 129.213C68.1886 129.265 68.1403 129.312 68.0919 129.359C68.3242 129.426 68.5511 129.504 68.778 129.576C70.8798 130.135 72.9428 130.816 74.8578 131.85C76.1155 130.987 77.2901 130.002 78.5374 129.118C80.2991 127.839 81.9826 126.468 83.6247 125.028L83.6193 125.033ZM84.6015 114.662C84.7623 114.537 84.9231 114.406 85.0839 114.276C82.1949 114.294 79.4573 114.468 76.6271 114.826C74.7672 115.166 72.5264 115.066 71.0554 116.402C71.5327 116.769 72.1308 116.831 72.7017 116.945C72.8699 116.661 73.0908 116.409 73.3636 116.228C74.6178 115.238 76.2884 115.171 77.8253 115.187C79.5692 115.191 81.3124 115.241 83.0554 115.303C83.2884 115.317 83.5214 115.33 83.7545 115.344C83.8081 115.303 83.8617 115.261 83.9099 115.219C84.1405 115.032 84.3763 114.844 84.6122 114.657L84.6015 114.662ZM148.996 141.429C150.361 139.731 151.584 137.548 151.244 135.306C150.594 132.53 149.212 129.743 146.974 127.91C145.93 127.111 144.844 126.353 143.746 125.638C143.536 125.519 143.336 125.378 143.148 125.216C143.031 125.215 142.91 125.176 142.783 125.111C139.697 124.474 136.528 124.419 133.399 124.163C127.845 123.667 122.341 122.684 116.823 121.897C110.102 120.764 102.738 120.534 96.8917 116.694C96.6793 116.717 96.5213 116.646 96.4064 116.523L95.7634 117.023C95.8411 117.533 95.4312 118.036 94.5741 117.923C94.5262 117.933 94.4784 117.943 94.436 117.942C94.3406 117.941 94.2561 117.919 94.1719 117.875C90.3836 117.377 86.5449 117.456 82.7379 117.164C81.4435 117.242 76.8989 116.622 74.8052 117.382C76.1884 117.778 77.6469 117.342 79.0258 117.664C78.1394 118.892 76.5046 119.049 75.1249 118.781C74.7119 118.754 74.2219 118.54 73.9824 118.23C73.9822 118.24 73.9768 118.251 73.9713 118.261C74.4066 119.359 75.6021 119.911 76.859 120.242C77.0065 120.307 77.1593 120.373 77.3068 120.439C77.3858 120.477 77.4648 120.515 77.5492 120.543C77.6547 120.582 77.7603 120.61 77.8714 120.627C78.0829 120.662 78.3 120.675 78.5119 120.689C78.676 120.702 78.8454 120.715 79.0096 120.722C79.1368 120.724 79.2639 120.736 79.3911 120.738C80.3061 120.878 81.2213 121.008 82.1309 121.158C82.4061 121.194 82.7234 121.241 83.0082 121.345C83.0181 121.393 83.0334 121.436 83.0488 121.478C83.2165 121.99 83.5603 122.429 83.9313 122.805C84.2919 123.176 84.6955 123.5 85.1155 123.792C85.4567 124.03 85.809 124.236 86.172 124.432C86.6822 124.715 87.2035 124.966 87.7464 125.181C87.7464 125.181 87.757 125.181 87.757 125.186C88.4992 125.552 89.2688 125.864 90.0445 126.108C92.568 126.838 95.0637 126.905 97.6372 127.089C95.0966 127.96 92.1932 128.63 89.5167 127.845C88.8199 127.645 88.1666 127.36 87.5299 127.022C87.4154 129.915 86.2625 132.762 84.597 135.124C85.5519 135.445 86.541 135.602 87.5357 135.727C92.2468 136.185 96.8652 134.929 101.412 133.842C108.147 134.79 115.026 135.596 121.814 136.502C130.879 137.975 139.907 140.142 148.996 141.413L148.996 141.429ZM184.836 68.6202C184.811 68.4979 184.787 68.3704 184.762 68.2481C184.53 67.0256 184.452 65.7734 184.633 64.5408C184.651 64.4138 184.674 64.2922 184.697 64.1706C184.665 64.1701 184.628 64.1696 184.591 64.1691C184.326 64.1389 184.154 63.9245 183.971 63.747C183.161 62.9087 182.065 62.4588 181.061 61.8934C178.248 60.2162 175.124 59.2184 172.049 58.1629C171.722 58.0259 171.579 57.6422 171.621 57.2876C171.433 57.4334 171.246 57.5845 171.053 57.7355C167.44 60.5902 163.823 63.4394 160.21 66.2888C159.498 66.8513 158.785 67.4139 158.077 67.9766C158.18 68.2377 158.164 68.6139 158.032 68.9089C157.888 69.7763 157.823 70.6448 157.975 71.4845C158.033 71.9306 158.249 72.3683 158.296 72.8142C160.428 70.856 161.969 68.2429 164.597 66.8482C173.649 61.5939 174.778 72.6042 182.37 70.2556C183.297 69.8869 183.874 68.84 184.842 68.6202L184.836 68.6202ZM200.849 32.128C200.066 30.5321 199.4 28.8742 199.037 27.1462C198.935 27.2243 198.834 27.3077 198.737 27.3859C198.517 27.563 198.298 27.7349 198.083 27.9122C197.644 28.2612 197.209 28.6103 196.77 28.9541C195.827 29.6937 194.889 30.4387 193.951 31.1783C192.102 32.6316 190.253 34.0848 188.399 35.5273C184.733 38.3865 181.068 41.2403 177.408 44.0996C173.656 47.0318 169.905 49.964 166.148 52.8908C162.301 55.8853 158.464 58.8958 154.621 61.8904C150.763 64.9059 146.904 67.9214 143.057 70.9424C139.198 73.9685 135.339 76.9947 131.481 80.0155C127.681 82.9894 123.876 85.9633 120.077 88.9319C116.245 91.9266 112.408 94.9265 108.571 97.9158C104.729 100.916 100.881 103.915 97.0387 106.915C93.3625 109.78 89.6603 112.612 85.9687 115.449C88.8241 115.563 91.6801 115.635 94.4939 116.072C94.7458 115.874 94.9872 115.665 95.2391 115.467C95.6947 115.103 96.1504 114.738 96.6059 114.379C97.4529 113.701 98.2892 113.024 99.1309 112.341C100.911 110.903 102.691 109.47 104.486 108.053C108.104 105.177 111.738 102.317 115.356 99.4364C118.979 96.5502 122.629 93.7014 126.262 90.8311C129.859 87.9922 133.46 85.148 137.062 82.3039C140.701 79.4231 144.346 76.5425 148.001 73.6778C151.581 70.8705 155.166 68.0632 158.736 65.245C162.332 62.4061 165.934 59.5619 169.53 56.7177C173.078 53.9205 176.621 51.1126 180.169 48.3154C183.685 45.5389 187.195 42.7677 190.721 40.002C194.087 37.3613 197.494 34.7689 200.865 32.1283L200.849 32.128ZM199.919 72.1968C199.994 71.8267 200.177 71.5748 200.402 71.4349C199.775 70.7582 199.159 70.0763 198.543 69.4051C196.397 67.0904 194.444 64.5928 192.319 62.2572C186.736 66.5899 194.395 74.1765 199.914 72.1914L199.919 72.1968ZM200.096 98.3072C199.222 98.295 198.347 98.2934 197.467 98.3288C197.084 98.403 196.654 98.4182 196.419 98.1764C195.93 98.2491 195.442 98.3059 194.954 98.2991C192.342 101.639 188.609 104.036 184.238 103.504C183.287 103.321 182.272 103.1 181.447 102.585C181.327 102.467 181.25 102.296 181.231 102.126C176.649 100.763 174.756 97.0472 170.473 94.374C169.457 93.851 168.234 93.7385 167.306 93.0576C166.771 92.626 166.787 91.8894 166.827 91.2644C166.808 90.7076 167.172 90.0872 166.803 89.5996C163.305 84.9813 159.313 80.4779 157.493 74.8705C157.367 74.8475 157.24 74.8033 157.13 74.717C156.853 74.4268 156.736 74.1018 156.762 73.7311C156.781 73.5299 156.895 73.3407 157.045 73.2262C157.025 73.1252 157.005 73.0242 156.996 72.9286C156.607 71.8948 156.546 70.1923 156.797 68.9712C154.336 70.9195 151.882 72.8679 149.427 74.8216C145.884 77.6347 142.33 80.4319 138.782 83.2344C135.084 86.1514 131.381 89.0684 127.688 91.9855C124.145 94.788 120.597 97.5906 117.044 100.388C115.163 101.867 113.287 103.346 111.406 104.826C109.637 106.216 107.858 107.596 106.095 108.998C103.313 111.207 100.484 113.362 97.6765 115.533C97.8494 115.673 98.0223 115.819 98.1909 115.896C102.914 118.501 108.468 118.97 113.72 119.786C119.477 120.539 125.342 121.496 131.078 122.159C133.815 122.441 136.56 122.479 139.302 122.719C139.599 122.755 139.895 122.786 140.191 122.816C140.238 122.52 140.364 122.225 140.5 121.972C141.704 120.033 143.298 117.818 145.756 117.587C148.507 117.599 151.757 117.888 153.78 119.915C153.817 119.905 153.86 119.895 153.902 119.896C155.174 119.961 156.344 119.686 157.576 119.491C164.138 118.342 170.491 116.289 177.003 114.938C179.187 114.55 181.39 114.273 183.539 113.709C183.763 113.638 184.065 113.669 184.302 113.773C184.323 113.757 184.345 113.742 184.361 113.726C189.034 110.414 192.731 106.05 196.601 101.884C197.266 101.3 198.705 99.629 200.085 98.3123L200.096 98.3072ZM201.416 24.5448C201.314 24.2942 201.233 24.0386 201.151 23.7777C200.842 23.5083 200.85 22.9889 201.119 22.7011C201.023 22.721 200.933 22.7515 200.837 22.7926C200.243 23.1289 199.579 23.6391 199.389 24.3256C199.906 24.5343 199.728 25.9101 199.891 26.3577C199.906 26.4533 199.925 26.549 199.94 26.6446C200.001 26.1048 200.788 25.8719 200.981 25.3339C201.117 25.0707 201.243 24.7862 201.416 24.5395L201.416 24.5448ZM208.359 23.8888C208.396 23.8682 208.433 23.8475 208.471 23.8268C208.274 23.5219 208.055 23.2273 207.815 22.9536C207.86 23.1556 207.889 23.3575 207.907 23.5539C207.366 23.223 206.331 22.5459 206.702 21.8301C205.282 20.6017 203.535 19.7291 201.772 19.1744C200.11 18.6688 198.366 19.0156 196.707 19.3794C195.59 19.6925 193.786 20.1868 194.242 21.7093C194.571 23.5799 195.325 25.361 196.097 27.0151C196.138 27.1005 196.19 27.1913 196.237 27.2821C196.44 27.1206 196.649 26.9645 196.853 26.803C197.137 26.5843 197.421 26.3656 197.705 26.1523C197.903 26.0013 198.112 25.8558 198.305 25.6941C198.364 25.6313 198.434 25.5846 198.508 25.5591C198.508 25.5591 198.513 25.5592 198.519 25.5593C198.551 25.5438 198.588 25.5337 198.62 25.5288C198.673 25.5243 198.726 25.5197 198.784 25.5311C198.77 25.3931 198.762 25.2498 198.753 25.1119C198.541 25.0665 198.353 24.8731 198.33 24.6396C198.076 23.4645 198.961 22.3847 199.824 21.6917C200.611 21.1037 201.413 20.9559 202.175 21.1096C202.206 21.1101 202.238 21.1211 202.275 21.1322C202.322 21.1435 202.37 21.1548 202.418 21.166C202.507 21.1938 202.597 21.2216 202.681 21.2545C202.724 21.271 202.766 21.2875 202.808 21.304C202.834 21.315 202.861 21.3259 202.887 21.3369C202.929 21.3534 202.966 21.3751 203.008 21.3916C203.134 21.4517 203.25 21.5222 203.371 21.5928C203.403 21.6145 203.439 21.6362 203.471 21.6578C203.55 21.7119 203.628 21.766 203.702 21.82C203.744 21.8524 203.791 21.8849 203.833 21.9226C203.875 21.955 203.911 21.9873 203.953 22.0197C204.042 22.0951 204.131 22.1759 204.22 22.262C204.257 22.2943 204.294 22.3319 204.33 22.3695C204.581 22.6222 204.816 22.9011 205.029 23.1957C205.097 23.292 205.164 23.3831 205.226 23.4846C205.351 23.6666 205.46 23.8537 205.568 24.0461C205.579 24.0197 205.601 23.9935 205.622 23.9673C206.175 23.8902 206.723 24.078 207.279 24.1706C207.47 24.1309 207.661 24.107 207.853 24.062C207.879 24.0571 207.911 24.0523 207.938 24.042C207.948 24.0422 207.959 24.0423 207.97 24.0319C207.991 24.0322 208.012 24.0218 208.034 24.0168C208.145 23.9866 208.257 23.9457 208.359 23.8888ZM210.867 21.5118C210.705 21.3452 210.538 21.1786 210.365 21.0118C210.255 21.3284 210.25 21.6887 210.055 21.9776C209.369 21.7878 208.997 20.68 209.45 20.1562C207.753 18.6376 205.795 17.2797 203.739 16.4983C201.514 15.635 199.077 14.8217 197.727 17.3421C197.945 17.3028 198.163 17.2739 198.37 17.2344C202.185 16.5932 206.014 18.7141 208.589 21.4006C208.845 21.7116 209.137 22.0496 209.386 22.4083C209.418 22.4511 209.444 22.4939 209.469 22.5367C209.469 22.5367 209.469 22.5419 209.475 22.5473C209.49 22.5475 209.507 22.5372 209.528 22.5322L209.538 22.5323C209.784 22.4138 209.998 22.2313 210.213 22.054C210.256 21.9963 210.305 21.9387 210.358 21.8917C210.38 21.8708 210.401 21.8499 210.423 21.8343C210.562 21.7037 210.712 21.5945 210.867 21.5224L210.867 21.5118ZM213.9 19.9055C213.996 19.8538 214.082 19.8073 214.157 19.7712C214.007 19.4882 213.83 19.226 213.638 18.9847C213.644 19.2976 213.613 19.6099 213.599 19.8642C213.234 19.7849 212.952 19.4734 212.766 19.1581C212.531 18.858 212.466 18.2316 212.687 17.9431C212.41 17.6636 212.133 17.3893 211.872 17.1047C211.083 16.3091 210.154 15.6707 209.192 15.1006C207.475 13.9316 205.32 12.9633 203.317 14.038C203.056 14.1669 202.794 14.3063 202.553 14.4726C203.804 14.8452 205.089 15.4675 206.274 16.0406C207.525 16.7896 208.652 17.7118 209.805 18.6026C210.219 18.9423 210.665 19.2825 211.068 19.6592C211.157 19.7453 211.241 19.826 211.324 19.912C211.418 20.0087 211.512 20.1107 211.595 20.2179C211.637 20.2715 211.679 20.3198 211.721 20.3734C211.762 20.427 211.799 20.4805 211.835 20.534C211.871 20.5875 211.908 20.6464 211.939 20.7051C211.975 20.7639 212.006 20.8226 212.037 20.8814C212.452 20.7494 212.852 20.5906 213.231 20.3945C213.274 20.3527 213.317 20.3109 213.36 20.2743C213.381 20.2534 213.408 20.2326 213.435 20.2118C213.537 20.1337 213.644 20.0556 213.745 19.9934C213.767 19.9778 213.793 19.9623 213.82 19.9521C213.847 19.9366 213.868 19.9209 213.895 19.9107L213.9 19.9055ZM216.619 16.9165C216.546 16.8147 216.473 16.713 216.39 16.6111C216.361 16.8015 216.332 16.9601 216.309 17.0765C215.798 16.8467 215.243 16.012 215.262 15.3761C214.352 14.5312 213.29 13.8484 212.169 13.3344C210.857 12.733 209.538 11.8929 208.048 11.9305C207.608 11.9296 207.23 12.094 206.861 12.301C207.922 12.6179 208.889 13.2092 209.835 13.7737C211.266 14.5782 212.529 15.6137 213.636 16.8272L213.793 16.9884C214.002 17.2033 214.216 17.4236 214.419 17.6544C214.472 17.7135 214.518 17.7725 214.565 17.8261C214.664 17.9441 214.758 18.062 214.847 18.1905C214.847 18.1905 214.847 18.1905 214.852 18.1906C215.166 18.0889 215.413 17.8591 215.67 17.6613C216.002 17.4326 216.323 17.1986 216.608 16.9216L216.619 16.9165ZM224.451 13.6595C224.488 13.6388 224.525 13.6287 224.557 13.6186C223.805 11.3392 223.337 11.0782 220.783 10.2156C219.087 11.3158 217.402 12.4321 215.712 13.5429C215.647 13.6003 215.578 13.647 215.503 13.6884C217.181 14.9682 218.589 16.6259 217.638 17.975C217.611 18.0064 217.584 18.0432 217.557 18.0746C217.535 18.1008 217.514 18.127 217.492 18.1479C217.336 18.3207 217.143 18.477 216.935 18.5854C216.881 18.6324 216.822 18.6793 216.763 18.7209C216.715 18.752 216.667 18.7831 216.614 18.8142C216.603 18.814 216.597 18.8246 216.592 18.8245C216.56 18.8452 216.528 18.8607 216.496 18.8761C216.304 18.9742 216.091 19.0455 215.878 19.0902C215.82 19.1 215.761 19.1097 215.708 19.1196C215.682 19.1192 215.65 19.1294 215.623 19.129C215.591 19.1286 215.565 19.1335 215.538 19.1385C215.48 19.1376 215.427 19.1422 215.369 19.1414C215.41 19.248 215.44 19.3544 215.47 19.4662C215.531 19.6314 215.55 19.8066 215.537 19.9761C215.537 20.0238 215.525 20.0712 215.519 20.1136C215.474 20.3621 215.364 20.6098 215.207 20.8196C215.18 20.8563 215.153 20.8931 215.126 20.9245C214.949 21.1393 214.729 21.3165 214.483 21.435C214.462 21.4453 214.435 21.4556 214.409 21.4658C214.313 21.5069 214.211 21.5372 214.111 21.557C214.095 21.5568 214.079 21.5672 214.057 21.5669L214.004 21.5662C213.962 21.5762 213.919 21.5809 213.877 21.5803C213.776 21.6213 213.669 21.6622 213.563 21.6978C213.536 21.7081 213.509 21.7183 213.477 21.7232C213.424 21.7383 213.371 21.7535 213.312 21.7686C213.286 21.7735 213.265 21.7785 213.238 21.7888C213.1 21.8186 212.962 21.8432 212.834 21.8573C212.786 21.8567 212.744 21.8666 212.702 21.866C212.569 21.8748 212.458 21.868 212.373 21.8509C212.32 21.8502 212.267 21.8388 212.214 21.8328C212.214 21.8328 212.204 21.8326 212.198 21.8326C212.198 21.8326 212.198 21.8379 212.198 21.8432C212.193 21.8749 212.181 21.9118 212.176 21.9435C212.114 22.16 212 22.3652 211.855 22.5487C211.833 22.5802 211.806 22.6064 211.784 22.6326C211.704 22.7216 211.618 22.7999 211.521 22.8727C211.489 22.8935 211.457 22.9195 211.425 22.9403C211.329 23.0026 211.227 23.0542 211.126 23.0952C211.094 23.1053 211.057 23.1207 211.02 23.1308C210.95 23.1828 210.875 23.2348 210.795 23.2761C210.779 23.2865 210.763 23.2915 210.747 23.3019C210.725 23.3175 210.699 23.3278 210.672 23.338C210.651 23.3483 210.624 23.3585 210.597 23.3687C210.571 23.379 210.544 23.3945 210.518 23.3995C210.47 23.42 210.422 23.4405 210.368 23.4557C210.262 23.4913 210.155 23.5216 210.054 23.5414C210.007 23.5514 209.953 23.5612 209.906 23.5711C209.915 23.6243 209.925 23.6775 209.93 23.7305C209.943 23.911 209.935 24.091 209.89 24.2759C209.638 25.2372 208.575 25.8532 207.584 25.8394C207.531 25.8387 207.473 25.8379 207.42 25.8318C207.367 25.8311 207.314 25.8198 207.261 25.8138C207.256 25.8137 207.25 25.8136 207.245 25.8135C207.182 25.8126 207.118 25.8117 207.054 25.8056C206.991 25.8047 206.922 25.7984 206.859 25.7922C206.758 25.7749 206.652 25.7575 206.541 25.7348C206.499 25.7236 206.462 25.7125 206.42 25.7013C206.404 25.701 206.393 25.6956 206.378 25.6901C206.325 25.6734 206.277 25.6569 206.23 25.6403C206.23 25.6403 206.219 25.6508 206.214 25.6507C206.284 25.9167 206.334 26.1718 206.367 26.4162C206.968 26.3238 207.768 26.3032 208.653 26.358C208.609 26.0605 208.736 25.723 209.045 25.6213C211.562 23.7957 214.073 21.9647 216.533 20.0588C219.092 17.8362 221.969 15.9839 224.445 13.6753L224.451 13.6595ZM227.92 88.7186C229.152 83.2492 225.441 77.9758 220.464 76.0086C220.087 75.7118 219.737 75.3146 219.537 74.8665C217.803 76.0139 215.873 76.8722 213.848 77.2416C213.778 77.2883 213.709 77.3351 213.639 77.3871C212.848 77.8426 212.043 78.5734 211.114 78.693C210.844 79.0338 210.333 79.1964 209.91 79.1322C207.518 78.0598 205.462 76.4778 203.563 74.6914C203.537 74.6804 203.511 74.6695 203.484 74.6532C203.602 74.9888 203.634 75.355 203.576 75.7041C203.379 76.9047 202.361 77.6379 201.399 78.2395C200.816 78.6024 200.197 78.9119 199.563 79.1681C198.667 79.5266 197.722 79.6619 196.773 79.6486C196.222 79.641 195.671 79.5803 195.132 79.4879C193.62 79.2283 192.143 78.7041 190.807 77.9539C189.566 77.258 188.466 76.2726 187.613 75.1368C186.89 74.1779 186.348 73.1101 185.881 72.0062C185.573 71.2704 185.319 70.5141 185.107 69.7478C184.601 71.4106 182.699 72.5132 180.976 72.5528C174.637 72.8725 173.109 66.0976 167.693 67.5912C165.846 68.0849 164.355 69.0184 162.964 70.2659C162.044 70.9104 160.179 73.5084 158.659 74.4998C158.721 74.6756 158.782 74.8407 158.854 74.9954C160.224 78.2376 162.293 81.1291 164.39 83.9362C165.697 85.6614 167.318 87.216 168.239 89.2008C168.588 90.0115 168.142 90.8534 168.173 91.6596C173.859 92.5235 176.69 98.2405 181.575 100.668C182.417 101.072 183.292 101.444 184.172 101.812C191.474 102.327 196.202 94.3937 197.411 87.8955C197.473 86.8573 198.729 84.5477 199.278 86.6705C199.439 87.277 199.282 87.8897 199.168 88.4819C198.872 89.9409 198.491 91.3775 197.994 92.7806C197.504 94.1362 196.843 95.5052 196.025 96.7873C196.121 96.7674 196.216 96.7476 196.307 96.7329C196.323 96.7331 196.339 96.7281 196.355 96.723C196.376 96.7392 196.402 96.7607 196.433 96.7771C196.508 96.7675 196.582 96.758 196.651 96.7536C199.112 96.6766 201.585 96.796 204.048 96.9734C207.673 97.3527 211.236 98.0703 214.825 98.7565C212.879 98.7929 210.834 98.7538 208.858 98.6945C207.321 98.6518 205.79 98.5668 204.26 98.4819C204.26 98.4925 204.26 98.4978 204.265 98.5085C205.637 103.489 211.427 107.917 216.54 105.407C222.861 102.192 226.554 95.4691 227.92 88.7186ZM253.67 35.1443C253.11 34.6382 252.609 34.0693 252.183 33.459C251.934 33.0898 251.667 32.4711 251.721 32.0001C244.151 33.1668 236.528 33.9934 228.963 35.1973C223.572 36.0127 218.136 37.0023 212.672 36.9261C212.264 36.9204 211.861 36.9148 211.453 36.8932C208.655 36.8224 205.919 36.164 203.325 35.1418C202.49 34.9658 201.953 34.3487 201.603 33.6017C201.587 33.5696 201.572 33.5429 201.556 33.5109C201.438 33.6046 201.32 33.6984 201.208 33.7923C200.779 34.1362 200.35 34.4748 199.921 34.8186C199.337 35.2876 198.753 35.7566 198.168 36.2308C198.946 35.9342 199.808 35.7342 200.202 35.5753C201.631 34.9962 204.49 35.2429 203.532 37.4136C203.267 37.7809 202.939 38.0944 202.575 38.3544C206.198 37.8218 209.958 38.0651 213.471 38.9093C215.816 39.4774 218.314 40.1696 220.038 41.9642C220.675 42.6941 221.576 43.4328 221.636 44.4568C221.642 45.9306 219.962 46.257 218.787 46.1664C217.828 46.116 216.87 46.0125 215.923 45.8827C216.731 46.4824 217.522 47.1931 218.289 48.0361C221.108 51.1289 224.136 54.1185 228.029 55.8214C228.834 55.451 229.417 56.2278 229.465 56.9971C232.774 52.3571 237.085 48.4308 241.351 44.6841C245.398 41.4433 249.379 38.0266 253.681 35.1392L253.67 35.1443ZM260.307 28.6052C264.763 25.3595 268.009 16.8169 264.333 12.0901C263.858 11.5533 263.342 10.9206 262.679 10.6039C262.658 10.6036 262.636 10.6139 262.615 10.6136C254.955 12.1819 247.269 13.6916 239.709 15.7224C235.785 16.9824 231.905 18.1263 227.912 18.993C225.42 19.4035 222.84 20.8413 220.306 20.0903C219.995 19.9693 219.717 19.7905 219.444 19.6064C219.17 19.82 218.902 20.0389 218.645 20.2632C216.221 22.2226 213.606 23.9143 211.063 25.713C210.673 25.9408 210.324 26.2434 209.955 26.4821C212.462 26.8617 215.093 27.8897 215.372 29.8868C215.414 30.3168 215.226 30.5156 214.787 30.43L214.819 30.4304C214.353 30.3868 213.976 30.0952 213.662 29.7675C211.381 27.9757 208.235 27.8258 205.469 28.1371C204.844 28.0966 204.665 27.2565 204.963 26.8048C205.215 26.1828 204.683 25.5604 204.447 25.0164C203.914 24.0654 203.035 22.9028 201.935 22.6807C202.333 23.0626 202.229 24.0737 202.028 24.7812C202.191 25.2235 202.099 25.7894 201.871 26.1838C201.572 26.6833 200.485 27.8821 200.024 27.0487C200.374 28.5591 201.023 29.9623 201.703 31.3289C201.724 31.3716 201.75 31.4143 201.765 31.4569C201.802 31.4469 201.84 31.4421 201.877 31.4426C201.875 31.5645 201.9 31.6868 201.946 31.804C202.017 31.9959 202.164 32.1411 202.338 32.2177C202.369 32.2818 202.41 32.3459 202.446 32.4048C202.467 32.4421 202.498 32.4744 202.524 32.5013C202.502 32.5911 202.474 32.6808 202.426 32.7544C202.596 33.0536 202.783 33.3478 203.007 33.6106C203.524 33.8193 204.062 33.9752 204.59 34.1575C211.415 36.5587 218.709 35.0542 225.656 34.0697C233.551 32.6902 241.515 31.7729 249.45 30.6325C251.761 30.2619 254.087 29.9338 256.369 29.3878C256.518 29.3475 256.662 29.2965 256.816 29.2509C256.976 29.2054 257.124 29.2234 257.255 29.2836C258.251 28.9635 259.267 28.7179 260.302 28.5998L260.307 28.6052ZM274.62 93.4943C274.627 93.0385 274.638 92.5881 274.644 92.1376C274.659 91.0987 274.663 90.0598 274.656 89.0207C274.656 88.6761 274.655 88.3262 274.649 87.9816C274.643 87.287 274.632 86.5977 274.615 85.903C274.609 85.5584 274.598 85.2137 274.587 84.8636C274.581 84.519 274.565 84.1741 274.554 83.8241C274.517 83.7759 274.475 83.7329 274.439 83.6847C273.213 82.2469 272.02 80.7778 270.719 79.4025C270.249 78.9613 269.799 78.5097 269.35 78.0475C269.493 78.4312 269.529 78.8399 269.462 79.1199C269.226 80.4525 269.027 81.791 268.807 83.1238C268.081 88.4413 266.361 93.5328 264.041 98.3563C261.09 104.772 257.753 111.002 254.039 117.009C251.531 121.252 248.776 125.349 245.669 129.159C243.586 131.86 241.334 134.421 239.031 136.928C237.435 138.486 233.878 142.629 231.259 143.441C236.657 145.971 242.262 146.961 250.274 145.583C250.42 145.012 251.373 144.734 251.866 144.327C252.872 143.684 253.861 143.019 254.841 142.338C255.244 141.915 255.627 141.475 255.999 141.019C257.758 138.79 259.286 136.394 260.735 134.018C263.627 129.198 266.246 124.209 268.56 119.083C268.604 118.978 268.653 118.878 268.702 118.772C270.366 115.026 271.898 111.199 273.052 107.52C273.235 106.919 273.413 106.322 273.575 105.725C273.593 105.609 273.61 105.498 273.628 105.381C273.704 104.863 273.785 104.345 273.861 103.831C273.984 103.038 274.106 102.245 274.228 101.456C274.228 101.451 274.228 101.446 274.228 101.44C274.235 101.361 274.241 101.282 274.248 101.197C274.287 100.636 274.327 100.074 274.356 99.5127L274.39 98.9672C274.412 98.5593 274.433 98.1514 274.455 97.7435C274.462 97.611 274.469 97.4733 274.476 97.3409C274.491 97.0601 274.5 96.7793 274.509 96.4932C274.523 96.2654 274.527 96.0323 274.535 95.8044C274.551 95.4442 274.561 95.0785 274.571 94.7182C274.582 94.3154 274.593 93.9074 274.604 93.5047L274.62 93.4943ZM279.597 133.789C279.703 132.295 279.639 130.789 279.623 129.288C279.584 127.485 279.562 125.646 279.476 123.853C279.275 117.732 279.499 111.607 279.367 105.483C279.426 101.216 279.242 96.9515 279.333 92.6907C279.339 92.2561 279.356 91.8216 279.372 91.3924L279.403 90.6878C279.417 90.4548 279.426 90.2216 279.44 89.9832C279.454 89.7449 279.468 89.5065 279.481 89.2682C279.495 89.0351 279.515 88.8022 279.534 88.5745C279.547 88.3733 279.566 88.1721 279.585 87.9656C279.585 87.9338 279.585 87.9019 279.591 87.8702C279.569 87.9017 279.553 87.928 279.532 87.9542C279.51 87.9804 279.488 88.0066 279.467 88.0329C279.445 88.0538 279.424 88.0747 279.402 88.0956L279.392 88.106C279.376 88.1217 279.36 88.1321 279.343 88.1424C279.327 88.1528 279.311 88.1632 279.295 88.1736C279.274 88.1839 279.247 88.1994 279.221 88.2096C279.167 88.2301 279.114 88.2505 279.061 88.2551C279.029 88.26 278.997 88.2648 278.965 88.2644C278.791 88.2619 278.596 88.185 278.402 87.9968C278.25 87.8462 278.104 87.6958 277.953 87.5399C277.952 87.577 277.962 87.6037 277.962 87.6355C278.035 89.9743 277.981 92.3272 277.684 94.645C277.64 96.6376 277.538 98.6241 277.314 100.604C277.302 100.741 277.289 100.879 277.272 101.016C277.248 101.186 277.219 101.36 277.18 101.529C277.151 101.651 277.118 101.772 277.079 101.894C277.063 101.941 277.046 101.989 277.03 102.031C277.029 102.041 277.024 102.057 277.018 102.068C277.006 102.2 276.994 102.327 276.981 102.46C276.975 102.544 276.963 102.629 276.956 102.714C276.932 102.963 276.902 103.211 276.866 103.46C276.854 103.566 276.837 103.677 276.82 103.783C276.802 103.91 276.779 104.037 276.761 104.169C276.524 105.56 276.214 106.934 275.845 108.296C275.102 111.053 274.173 113.749 273.145 116.412C272.177 118.911 271.104 121.361 269.968 123.784C268.744 126.391 267.415 128.959 265.991 131.462C264.573 133.939 263.071 136.378 261.38 138.677C260.456 139.925 259.501 141.158 258.462 142.315C257.982 142.849 257.493 143.372 256.972 143.863L256.741 144.083C257.289 143.931 257.837 143.769 258.385 143.607C258.619 143.536 258.854 143.465 259.088 143.394C261.856 142.553 264.588 141.605 267.316 140.625C267.854 140.431 268.392 140.237 268.93 140.044C269.196 139.947 269.468 139.85 269.735 139.747C270.012 139.629 270.284 139.506 270.556 139.388C271.484 138.971 272.402 138.539 273.33 138.101C275 137.361 276.69 136.648 278.282 135.753C278.324 135.738 278.367 135.717 278.41 135.696C278.431 135.686 278.453 135.676 278.479 135.66C278.64 135.572 278.816 135.453 278.998 135.318C279.036 135.292 279.073 135.266 279.111 135.234C279.234 135.146 279.357 135.057 279.475 134.98C279.481 134.937 279.492 134.9 279.498 134.858C279.498 134.831 279.509 134.805 279.509 134.784C279.521 134.726 279.527 134.662 279.533 134.604C279.539 134.546 279.545 134.482 279.551 134.424L279.551 134.413C279.552 134.376 279.558 134.345 279.558 134.308C279.571 134.127 279.584 133.953 279.597 133.799L279.597 133.789ZM288.231 29.7316C288.59 26.0099 288.681 21.7809 286.382 18.6318C283.866 15.4902 279.626 14.6677 276.549 12.2393C276.313 12.0504 275.946 11.7432 275.543 11.3718C276.025 13.6686 275.768 16.13 274.618 18.0701C274.607 15.0271 274.738 11.7422 273.228 9.00165C272.037 6.96002 269.589 5.39914 267.191 5.92231C265.492 6.49763 263.787 7.50757 262.623 8.90672C263.084 8.88135 263.383 9.16653 263.463 9.51222C263.652 9.63148 263.82 9.761 263.956 9.86362C268.747 13.7207 267.634 20.92 264.801 25.6515C263.652 27.8779 261.929 29.7411 259.713 30.9241C258.725 31.4988 257.623 32.1566 256.438 31.997C256.025 31.9806 255.754 31.6693 255.658 31.3181C254.701 31.5168 253.74 31.6625 252.778 31.824C252.762 31.8238 252.746 31.8288 252.73 31.8339C252.73 31.8445 252.735 31.8552 252.74 31.8712C254.43 35.4094 259.381 36.8461 262.901 35.3473C263.642 35.0237 264.344 34.4927 264.944 34.024C263.589 36.5178 260.738 38.0207 257.921 37.4301C256.832 37.1869 255.795 36.7166 254.855 36.0832C254.806 36.1886 254.735 36.2777 254.639 36.3453C254.484 36.4597 254.308 36.5421 254.147 36.6565C245.992 42.5807 237.994 49.0001 231.598 56.8361C229.415 59.4191 227.841 62.4187 226.268 65.3919C226.065 65.8926 225.846 66.3826 225.611 66.867C224.862 68.5105 224.029 70.1369 222.959 71.5851C225.793 72.8439 228.496 74.7476 230.407 77.2022C231.807 79.4535 232.97 81.9718 233.427 84.5333C234.398 92.8272 231.698 101.727 225.663 107.612C221.705 111.337 216.203 114.759 210.593 112.973C207.177 111.998 204.641 109.164 202.821 106.26C201.633 104.398 200.873 102.23 200.751 100.018C196.703 103.64 193.558 108.346 189.432 111.915C187.323 113.81 185.005 115.453 182.728 117.138C182.075 117.612 181.437 118.112 180.768 118.558C180.603 118.667 180.391 118.654 180.212 118.588C179.542 118.334 179.616 117.206 180.14 116.901C180.675 116.521 181.2 116.126 181.725 115.73C178.609 116.408 175.464 116.952 172.373 117.752C166.541 118.991 160.744 120.728 154.79 121.244C155.599 122.496 157.019 124.837 155.835 125.335C155.441 125.483 155.091 125.134 155.011 124.751C153.577 121.588 151.811 120.121 148.295 119.844C147.242 119.755 146.28 119.561 145.253 119.802C143.741 120.316 142.598 121.684 141.784 123.024C141.922 123.047 142.059 123.07 142.191 123.093C144.084 122.335 145.735 124.383 147.255 125.279C149.996 127.136 151.74 130.134 152.72 133.243C153.791 136.232 152.724 139.419 150.94 141.896C150.358 142.556 149.912 143.775 148.85 143.527C148.353 143.451 147.856 143.375 147.364 143.299C147.081 143.444 146.788 143.556 146.49 143.626C147.693 144.783 149.1 145.751 150.82 145.913C153.772 146.357 156.182 144.207 157.588 141.82C158.268 140.551 159.139 139.339 160.462 138.69C160.623 140.802 159.605 142.728 158.321 144.385C159.113 144.603 159.916 144.805 160.725 144.943C163.616 145.503 166.563 145.507 169.496 145.405C178.502 145.35 187.442 143.996 196.141 141.711C200.153 140.584 204.221 139.618 208.081 138.028C209.28 137.557 210.407 136.948 211.57 136.397C212.894 135.768 214.41 135.36 215.609 134.518C216.886 133.412 218.162 132.386 219.928 132.325C219.326 133.271 218.724 134.27 217.991 135.145C221.923 137.861 225.293 140.246 228.601 142.094C228.652 141.857 228.777 141.63 228.97 141.479C229.838 140.855 230.941 140.065 231.697 139.408C234.558 136.855 237.184 134.04 239.626 131.089C245.053 124.714 249.325 117.5 253.581 110.323C255.905 106.348 258.118 102.313 260.159 98.1802C262.319 93.768 264.375 89.2589 265.301 84.4002C265.652 82.7988 265.977 81.1865 266.291 79.5793C266.369 78.9549 266.523 78.1354 266.891 77.5839C266.954 76.9115 267 76.2442 267.031 75.5767C266.952 75.4802 266.912 75.3736 266.908 75.2622C265.887 73.9757 264.952 72.6215 264.097 71.2153C263.891 70.7884 263.37 70.1291 263.066 69.494C260.611 72.2163 258.041 74.8258 255.267 77.1832C258.525 70.8567 263.783 65.9417 268.185 60.4528C273.018 54.8481 277.153 48.7246 281.445 42.7147C284.241 38.7514 287.31 34.6116 288.236 29.7581L288.231 29.7316ZM287.99 18.1611C290.3 22.0102 290.322 28.4302 289.065 32.6641C287.113 38.4628 283.103 43.2308 279.725 48.241C276.606 52.9844 273.15 57.5428 269.501 61.8812C269.49 61.8917 269.479 61.9022 269.469 61.9179C267.721 64.0564 265.948 66.1999 264.111 68.2894C264.253 68.355 264.384 68.4893 264.476 68.7185C266.131 71.6996 268.287 74.428 270.708 76.8154C272.32 78.2851 273.647 80.0106 275.039 81.684C275.363 82.0649 275.691 82.4352 276.026 82.8056C276.177 82.9615 276.329 83.1173 276.486 83.2626C276.744 83.3617 276.905 83.576 276.976 83.8261C277.812 84.7072 278.669 85.5673 279.516 86.4326C279.531 86.4487 279.542 86.4647 279.558 86.4756C279.995 86.6195 280.389 86.9325 280.521 87.3213C281.079 90.2712 280.787 93.3259 280.862 96.3167C280.962 103.946 280.888 111.579 280.649 119.209C280.568 123.444 280.727 127.682 280.63 131.916C280.581 132.456 280.607 133.58 280.482 134.596C280.704 134.626 280.898 134.777 281.047 135.113C281.723 136.432 277.875 137.974 275.178 138.991C274.869 139.151 274.464 139.246 274.187 139.401C271.43 140.577 268.663 141.741 265.844 142.768C258.098 145.554 250.023 148.421 241.671 147.864C236.305 147.63 231.174 145.751 226.666 142.878C223.812 141.126 221.056 139.211 218.246 137.38C217.869 137.057 217.232 136.735 216.686 136.367C214.737 137.74 212.364 138.396 210.312 139.618C207.089 141.148 203.63 142.091 200.193 143.013C189.14 146.172 177.645 147.549 166.155 147.039C163.829 146.943 161.396 146.628 159.173 146.008C158.64 145.821 157.761 145.782 157.69 145.139C157.507 145.354 157.324 145.558 157.141 145.763C155.548 147.442 153.24 148.385 150.922 148.093C148.573 147.827 146.143 146.457 144.926 144.431C144.835 144.112 144.925 143.721 145.12 143.443C144.984 143.292 144.912 143.09 144.905 142.878C137.866 141.682 130.88 140.159 123.865 138.815C117.325 137.658 110.708 136.999 104.15 135.937C103.346 135.82 102.548 135.682 101.761 135.48C100.783 135.668 99.8248 135.935 98.8519 136.144C95.6663 136.9 92.4141 137.491 89.1338 137.44C87.4489 137.39 85.7389 137.244 84.1461 136.666C83.9138 136.604 83.7519 136.427 83.6755 136.208C78.819 140.853 74.3582 139.169 69.4432 136.609C66.0151 138.788 61.362 144.432 57.5958 144.247C57.5163 144.246 57.437 144.234 57.3577 144.222C56.8968 144.582 56.436 144.936 55.9751 145.295C57.0696 146.254 56.67 150.579 56.2913 151.507C55.3113 155.644 51.9773 159.059 47.4796 157.74C46.4345 157.423 45.5606 156.998 44.6662 156.519C44.6736 157.123 44.5058 157.757 44.2973 158.263C43.1138 161.03 39.9927 162.099 37.4954 163.294C34.2199 164.797 31.0219 166.443 27.9686 168.357C26.8195 169.035 25.6756 169.719 24.5162 170.376C24.3453 170.469 24.1548 170.445 23.9975 170.321C23.9188 170.267 23.8615 170.192 23.8256 170.106C23.6626 170.39 23.3474 170.572 23.0326 170.334C23.4745 171.337 22.581 172.31 22.2555 173.228C20.973 175.871 19.1468 180.251 15.697 180.192C15.6796 180.298 15.6409 180.409 15.5812 180.509C14.9392 181.316 13.6106 181.563 12.7029 182.038C12.6283 182.063 12.5538 182.089 12.4791 182.12C12.9788 183.537 13.5288 184.769 14.1306 186.081C15.7824 185.468 17.4749 184.967 19.2075 184.641C19.9722 184.535 20.8006 184.43 21.5441 184.711C22.8747 185.456 23.8748 186.721 24.4862 188.108C24.7794 188.748 24.8382 189.47 25.009 190.145C25.651 191.241 26.9307 191.842 27.3797 193.089C27.9617 194.305 27.7887 195.687 28.2697 196.928C28.7433 197.932 29.5107 198.78 29.8455 199.855C30.5861 202.241 30.5917 204.881 31.9662 207.047C32.3074 207.661 32.4246 208.384 32.7926 208.977C33.7192 209.812 34.5272 210.783 34.7746 212.048C35.0114 212.931 35.0036 213.875 35.2457 214.753C35.6769 215.766 36.1506 216.764 36.4325 217.833C36.9435 219.197 36.8171 220.659 37.222 222.037C37.2863 222.362 37.2433 222.79 37.1004 223.154C37.2887 223.332 37.4124 223.588 37.4294 223.885C37.5454 225.451 35.6623 225.928 34.6546 226.735C32.2462 228.393 29.9476 229.776 27.2062 230.607C23.5944 231.904 19.6977 233.477 15.8271 233.179C15.3598 232.865 15.1983 232.279 14.9613 231.794C14.5859 230.962 14.1573 230.15 13.7019 229.359C13.1024 228.64 12.4815 227.926 12.1601 227.031C11.6478 225.381 11.0558 223.74 10.5753 222.085C10.5231 221.644 10.5823 221.205 10.6678 220.776C10.3608 219.982 10.1449 219.121 9.87033 218.284C8.99068 217.127 8.66743 215.601 8.15655 214.226C7.38113 212.816 6.63389 211.666 6.37571 210.035C5.93976 208.608 4.83871 207.363 4.45995 206.016C4.08905 204.866 4.12211 203.637 3.55424 202.547C3.16626 201.482 3.38383 200.324 3.13923 199.239C2.98705 198.749 2.47655 198.488 2.27637 198.018C2.09024 197.682 2.06414 197.273 2.05886 196.891C2.17072 196.093 1.53612 195.607 1.318 194.904C1.17656 194.404 1.19036 193.794 1.4723 193.342C1.60229 193.143 1.76976 192.917 1.95828 192.702C1.94871 192.628 1.96042 192.548 1.97213 192.469C2.00758 191.828 2.65192 191.615 3.14288 191.378C4.86683 190.527 6.54941 189.601 8.25791 188.719C8.01314 188.026 7.84317 187.292 7.58221 186.621C7.44806 185.977 6.94857 184.926 6.77058 184.007C6.32453 184.064 5.87377 184.079 5.41308 184.046C3.49938 183.68 1.80784 181.827 1.67606 179.875C1.63124 178.528 2.17629 175.933 3.70244 175.583C3.76662 175.541 3.83088 175.494 3.90036 175.453C3.44095 174.948 3.51786 173.995 3.35177 173.362C3.17959 172.405 3.14846 171.217 3.50108 170.258C2.30454 168.258 2.0727 162.079 2.10446 160.182C2.40198 155.192 5.1476 150.258 8.95015 147.072C10.9527 145.627 13.2669 144.641 15.6663 144.012C15.6663 144.012 15.6716 144.012 15.6769 144.012C15.6982 144.002 15.7142 143.997 15.7302 143.992C15.9913 143.889 16.2472 143.781 16.5135 143.695C16.8543 143.583 17.1951 143.471 17.5359 143.359C17.8341 143.263 18.1424 143.198 18.4456 143.123C19.6319 142.816 20.8327 142.61 22.0583 142.527C23.7348 142.412 25.403 142.52 27.0579 142.819C27.4017 142.877 27.745 142.966 28.0831 143.045C28.4317 143.13 28.7859 143.204 29.129 143.304C29.884 143.521 30.6171 143.78 31.3336 144.093C31.7288 144.262 32.1076 144.464 32.4919 144.655C33.5026 145.162 34.4913 145.716 35.491 146.25C36.1171 146.582 36.7486 146.914 37.3637 147.273C38.0315 147.664 38.6722 148.086 39.286 148.545C39.884 148.993 40.455 149.478 41.026 149.964C41.3193 150.217 41.6072 150.475 41.8898 150.739C42.0939 150.927 42.3401 151.138 42.485 151.389C44.6907 149.819 46.7766 148.098 48.9928 146.544C49.3679 146.252 49.7431 145.956 50.1182 145.659C49.7811 145.506 49.4678 145.167 49.2487 144.915C46.8378 142.575 46.8721 138.976 47.7623 135.957C49.2095 132.526 53.5084 129.474 57.1027 128.676C60.2822 127.978 63.6555 128.205 66.8142 129.002C67.0075 128.825 67.2487 128.627 67.5166 128.424C67.5166 128.424 67.5167 128.418 67.5168 128.413C67.5934 128.239 67.722 128.135 67.8615 128.02C65.8924 127.823 63.5922 127.802 62.2202 126.224C61.3026 125.13 61.6075 123.406 62.7166 122.557C63.3794 122.158 64.1454 121.968 64.9308 121.899C64.3019 121.387 63.8981 120.692 63.9222 119.727C63.99 119.044 64.3243 118.259 64.9494 117.907C66.4681 117.335 68.1657 117.231 69.8065 117.403C68.8745 115.815 70.5282 114.301 71.9858 113.924C75.54 112.966 79.273 112.859 82.9333 112.656C83.9727 112.617 85.0171 112.605 86.056 112.609C86.3261 112.624 86.5307 112.775 86.6445 112.978C87.3199 112.441 87.9952 111.905 88.6706 111.363C90.5895 109.836 92.5137 108.31 94.4431 106.794C98.216 103.831 102 100.872 105.778 97.914C109.62 94.9035 113.463 91.8984 117.31 88.8933C121.115 85.9195 124.925 82.951 128.725 79.9717C132.567 76.9666 136.42 73.9669 140.268 70.9724C144.126 67.9675 147.985 64.952 151.838 61.9417C155.68 58.9365 159.517 55.9366 163.36 52.9315C167.127 49.9836 170.889 47.0303 174.662 44.0825C178.365 41.1921 182.068 38.291 185.766 35.3899C188.891 32.9367 192.015 30.4887 195.16 28.0622C194.838 27.5753 194.635 26.9735 194.345 26.4977C193.479 24.3439 191.868 21.655 193.156 19.3829C193.934 18.3176 195.16 17.8417 196.431 17.552C196.433 17.3664 196.5 17.1712 196.592 17.0241C197.601 14.5679 199.237 13.9439 201.058 14.1495C201.918 12.9211 203.47 12.2006 204.972 12.0837C205.031 12.0103 205.106 11.9478 205.207 11.9174C207.565 9.745 209.685 10.4955 212.259 11.7825C212.797 11.9967 213.649 12.438 214.527 13.0121C214.583 12.785 214.766 12.549 215.02 12.6056C216.097 11.7936 217.199 11.0191 218.302 10.2393C218.837 9.86512 219.373 9.4909 219.918 9.12744C220.25 8.90412 220.689 8.59219 221.089 8.83101C221.932 9.18735 222.862 9.37525 223.628 9.92135C224.806 10.6375 225.772 12.4428 225.033 13.7047C225.321 13.9367 225.458 14.4316 225.283 14.7791C223.989 16.3831 222.229 17.5354 220.542 18.7524C221.607 19.1436 222.784 18.7942 223.858 18.5442C224.975 18.2682 226.087 17.9709 227.204 17.6949C230.836 16.8126 234.484 15.9782 238.005 14.7233C245.612 12.4545 253.399 10.8456 261.156 9.20438C262.089 6.89551 265.814 4.35522 268.21 4.33033C270.546 4.42123 272.427 5.61897 273.718 7.34923C274.4 7.07779 274.631 8.00875 274.996 8.41143C275.736 9.32294 276.632 10.0775 277.566 10.785C281.046 13.182 285.669 14.3067 287.942 18.1499L287.99 18.1611Z" fill="black"/>
<path d="M218.824 75.0103C212.919 69.3194 206.877 63.5947 199.888 59.2404C199.565 59.2253 199.584 58.6531 199.907 58.6417C207.391 62.4462 213.302 68.8423 218.824 75.005L218.824 75.0103Z" fill="white"/>
<path d="M223.994 70.3857C218.325 64.8995 211.061 57.8219 203.445 55.4415C202.994 55.5041 203.094 54.7686 203.533 54.8384C206.272 55.306 208.737 56.8565 211.092 58.2623C216.142 61.3968 220.284 65.828 223.994 70.3857Z" fill="white"/>
<path d="M226.148 60.7093C221.762 57.0964 217.026 53.8656 211.886 51.4667C211.886 51.4667 211.891 51.4668 211.897 51.4669C210.6 50.9293 209.222 50.1838 207.833 50.1803C206.902 48.5399 211.102 50.2948 211.619 50.5035C217.153 52.7647 222.025 56.4533 226.148 60.704L226.148 60.7093Z" fill="white"/>
<path d="M193.222 61.7927C189.173 57.5218 184.3 53.5204 178.466 52.2198C178.233 52.1794 178.245 51.7502 178.494 51.7431C181.585 52.0247 184.43 53.6654 186.934 55.4073C189.418 57.1171 191.34 59.5029 193.227 61.7981L193.222 61.7927Z" fill="white"/>
<path d="M197.751 22.4633C197.991 22.7105 198.236 22.9896 198.407 23.2835C198.003 23.4104 197.589 23.4418 197.177 23.3512C196.907 23.2891 196.665 23.1532 196.482 22.9492C196.127 22.5838 196.229 21.7741 196.766 21.6491C196.962 21.62 197.136 21.7126 197.327 21.6834C197.698 21.6992 197.856 22.1467 197.751 22.4633Z" fill="black"/>
</svg>
