<svg width="144" height="118" viewBox="0 0 144 118" fill="none" xmlns="http://www.w3.org/2000/svg">
<path d="M124.943 47.6287C126.262 47.7654 127.549 48.0228 128.805 48.4432C130.035 48.8531 131.217 49.4207 132.305 50.1248C134.543 51.5699 136.498 53.5142 137.807 55.8527C138.154 56.4727 138.474 57.1033 138.747 57.7601C139.015 58.396 139.231 59.0424 139.42 59.7045C139.793 60.9814 139.988 62.3109 140.035 63.6351C140.087 64.9961 139.972 66.3362 139.72 67.6709C139.594 68.333 139.42 68.9899 139.205 69.631C138.973 70.3141 138.726 70.992 138.406 71.6383C137.802 72.8574 137.108 74.0346 136.23 75.075C135.778 75.611 135.311 76.1103 134.817 76.6042C134.333 77.0772 133.808 77.4975 133.272 77.9074C131.228 79.4734 128.721 80.5243 126.183 80.9185C124.57 81.1707 122.935 81.1812 121.332 80.9552C120.355 80.8133 119.388 80.5874 118.447 80.2669C117.827 80.0567 117.207 79.8254 116.624 79.5312C115.999 79.2106 115.394 78.8691 114.795 78.4907C114.275 78.1649 113.776 77.7866 113.303 77.3872C112.814 76.9721 112.32 76.5359 111.884 76.0577C110.985 75.0593 110.139 73.9978 109.498 72.8154C108.831 71.591 108.242 70.2878 107.911 68.9268C107.617 67.7392 107.391 66.5253 107.365 65.3745C107.365 65.1118 107.354 64.8438 107.344 64.581C107.323 63.262 107.517 61.9221 107.838 60.6451C108.153 59.3734 108.6 58.107 109.23 56.9509C109.871 55.7791 110.597 54.644 111.5 53.6561C112.357 52.7155 113.292 51.8746 114.322 51.1285C115.505 50.2719 116.834 49.6151 118.201 49.1053C118.337 49.0528 118.474 49.0055 118.616 48.9634C118.842 48.4274 119.315 48.0123 119.924 47.9966H119.788C119.73 48.0071 119.667 48.0176 119.609 48.0281C120.166 47.881 120.733 47.7863 121.301 47.7128C122.031 47.6129 122.772 47.5604 123.519 47.5604C123.997 47.5604 124.475 47.5814 124.943 47.6287ZM123.771 78.2647C124.601 78.2384 125.416 78.1491 126.241 78.0125C126.887 77.8759 127.518 77.713 128.148 77.5186C128.894 77.2506 129.614 76.9458 130.324 76.5884C130.928 76.2521 131.506 75.8895 132.068 75.4954C132.51 75.1538 132.941 74.7965 133.356 74.4234C133.808 73.9768 134.239 73.5143 134.654 73.0309C134.911 72.6998 135.169 72.374 135.347 72.106C135.363 72.0797 135.384 72.0534 135.4 72.0219C135.752 71.4596 136.073 70.8921 136.372 70.3088C136.619 69.7676 136.84 69.2211 137.045 68.6588C137.171 68.2332 137.287 67.8128 137.392 67.3819C137.507 66.8091 137.597 66.2363 137.665 65.6582C137.691 65.2431 137.712 64.8385 137.723 64.4234C137.702 63.798 137.66 63.1884 137.591 62.5684C137.502 62.0376 137.402 61.5174 137.276 60.9919C137.076 60.314 136.85 59.6572 136.582 59.0056C136.341 58.4854 136.083 57.9861 135.805 57.4869C135.411 56.8563 134.99 56.2572 134.533 55.6687C133.992 55.0486 133.424 54.4706 132.82 53.9188C132.216 53.4301 131.595 52.9834 130.944 52.5735C130.187 52.1374 129.415 51.7696 128.605 51.4438C127.822 51.1705 127.034 50.9498 126.225 50.7764C125.332 50.6293 124.443 50.5452 123.534 50.5295C122.72 50.5452 121.911 50.6135 121.101 50.7449C120.791 50.8027 120.481 50.871 120.171 50.9445C119.956 50.9918 119.703 51.0865 119.483 51.0549C119.204 51.0129 118.978 50.8868 118.81 50.7028C118.164 50.9393 117.538 51.2125 116.918 51.5226C116.267 51.8694 115.641 52.2583 115.032 52.6787C114.58 53.0203 114.149 53.3775 113.723 53.7559C113.282 54.1815 112.867 54.6177 112.462 55.0749C112.047 55.6056 111.658 56.1416 111.285 56.7091C111.038 57.1295 110.807 57.55 110.586 57.9809C110.392 58.4118 110.208 58.8426 110.034 59.2841C109.803 59.9777 109.614 60.6713 109.446 61.3808C109.362 61.8537 109.299 62.3162 109.241 62.7944C109.209 63.2725 109.188 63.7402 109.178 64.2131C109.199 64.7649 109.235 65.3114 109.288 65.8632C109.341 66.2153 109.393 66.5673 109.467 66.9194C109.54 67.282 109.63 67.6394 109.724 68.002C109.887 68.5117 110.061 69.0109 110.255 69.5154C110.544 70.1565 110.854 70.7818 111.206 71.3913C111.59 71.9799 111.994 72.5474 112.431 73.0992C112.877 73.6089 113.34 74.0871 113.828 74.5548C113.965 74.6757 114.107 74.7912 114.244 74.9121C114.79 75.3483 115.358 75.7477 115.941 76.126C116.303 76.3362 116.671 76.5412 117.044 76.7303C117.439 76.9405 117.854 77.1034 118.269 77.2768C118.7 77.4292 119.125 77.5764 119.562 77.7077C119.992 77.8444 120.439 77.9284 120.875 78.0178C121.779 78.1596 122.678 78.2647 123.597 78.2647H123.555C123.634 78.2647 123.708 78.2647 123.766 78.2647H123.771Z" fill="#050505"/>
<path d="M133.551 79.762C134.102 82.8256 131.696 87.1767 128.159 85.7211C126.619 85.1063 124.323 80.6869 126.278 79.6569C127.197 79.3521 127.308 80.3505 127.581 80.9496C127.733 79.7199 129.189 78.4168 130.308 79.431C130.613 78.1488 131.307 77.5444 131.979 77.5444C132.736 77.5444 133.456 78.317 133.551 79.762Z" fill="#050505"/>
<path d="M125.085 51.3289C127.503 51.5812 129.757 52.5638 131.638 54.0983C133.546 55.6485 134.938 57.8398 135.674 60.173C136.394 62.4641 136.452 64.9286 135.869 67.2565L135.821 67.4194C135.17 69.8419 133.84 72.1068 131.954 73.7779C131.002 74.6187 129.946 75.3543 128.78 75.8693C127.623 76.3843 126.415 76.7364 125.154 76.9045C124.097 77.0464 123.015 77.0359 121.953 76.8835C120.629 76.6943 119.331 76.2845 118.154 75.6801C115.947 74.5451 114.15 72.79 112.925 70.6302C110.561 66.4473 110.865 60.9559 113.708 57.0726C114.707 55.7063 115.952 54.5134 117.408 53.6411C117.77 53.4204 118.143 53.2207 118.522 53.042C118.643 52.6216 118.916 52.2433 119.315 52.0594C119.583 51.9332 119.883 51.8492 120.161 51.7651C120.666 51.6075 121.181 51.4866 121.701 51.392C122.311 51.2816 122.936 51.2344 123.561 51.2344C124.071 51.2344 124.581 51.2659 125.085 51.3185V51.3289ZM133.966 62.4903C133.872 62.0542 133.74 61.6285 133.593 61.2081C133.435 60.8035 133.267 60.3989 133.078 60.0048C132.836 59.5528 132.574 59.1219 132.29 58.6963C131.98 58.2706 131.649 57.8713 131.291 57.4824C130.892 57.0831 130.472 56.71 130.025 56.3684C129.536 56.0111 129.021 55.6958 128.485 55.412C127.944 55.1492 127.387 54.9233 126.814 54.7393C126.136 54.5449 125.453 54.3978 124.754 54.3032C124.045 54.2349 123.335 54.2139 122.626 54.2559C122.037 54.3085 121.454 54.3978 120.876 54.5345C120.65 54.587 120.429 54.6501 120.209 54.7184C120.041 54.7709 119.862 54.8602 119.683 54.876C119.357 54.9128 119.079 54.8077 118.874 54.6132C118.543 54.7761 118.222 54.9548 117.907 55.144C117.492 55.412 117.087 55.6958 116.704 56.0058C116.336 56.3211 115.984 56.6416 115.653 56.9885C115.379 57.2985 115.117 57.6138 114.864 57.9396C114.607 58.3075 114.37 58.6806 114.144 59.0694C113.966 59.4005 113.803 59.7368 113.65 60.0836C113.451 60.5881 113.277 61.0926 113.135 61.6128C113.046 61.9859 112.973 62.3537 112.915 62.7321C112.867 63.1209 112.836 63.5098 112.82 63.9039C112.82 64.277 112.831 64.6448 112.852 65.0179C112.899 65.4278 112.957 65.8377 113.025 66.2423C113.13 66.71 113.256 67.1672 113.409 67.6244C113.582 68.0815 113.771 68.5282 113.987 68.9696C114.229 69.4058 114.486 69.8314 114.765 70.2465C115.08 70.6669 115.406 71.0663 115.758 71.4499C116.183 71.8808 116.625 72.275 117.103 72.6481C117.56 72.9739 118.028 73.2734 118.517 73.5466C119.11 73.8462 119.715 74.0932 120.345 74.3034C120.992 74.4925 121.649 74.6291 122.316 74.7237C122.973 74.792 123.635 74.8288 124.229 74.792L124.465 74.7763C125.043 74.7237 125.6 74.6344 126.168 74.5083C126.72 74.3664 127.256 74.193 127.786 73.988C128.28 73.7726 128.764 73.5309 129.237 73.2576C129.678 72.9791 130.099 72.6796 130.508 72.3538C130.855 72.0542 131.192 71.7337 131.512 71.4027C131.812 71.0716 132.09 70.7248 132.348 70.3675C132.553 70.0679 132.742 69.7631 132.926 69.4478C133.115 69.0905 133.294 68.7279 133.457 68.3548C133.598 67.9817 133.725 67.6138 133.84 67.2302C133.945 66.8204 134.029 66.4157 134.092 66.0006C134.134 65.6485 134.166 65.2964 134.182 64.9391C134.187 64.524 134.176 64.1141 134.145 63.7042C134.103 63.3311 134.045 62.9633 133.993 62.6638C133.982 62.6217 133.971 62.5797 133.966 62.5377C133.966 62.5219 133.966 62.5061 133.966 62.5114V62.4956V62.4903Z" fill="#050505"/>
<path d="M143.1 48.8539C145.728 52.0909 141.545 56.4262 139.049 58.4178C137.84 59.4793 127.819 67.3196 127.209 64.4399C127.093 63.9355 127.335 63.3364 127.834 63.1524C128.549 63.0211 129.211 62.7479 129.858 62.4221C132.89 60.7825 143.111 54.382 142.238 50.6143C136.311 53.8881 131.56 58.9853 125.764 62.4536C125.359 62.6007 125.018 62.3117 124.928 61.9228C124.692 60.8981 126.016 60.6301 126.573 60.0941C129.957 57.7032 133.042 54.9128 136.363 52.443C137.666 51.4708 138.98 50.5039 140.32 49.5791C140.898 49.1955 141.644 48.6332 142.37 48.6332C142.622 48.6332 142.869 48.7015 143.105 48.8644L143.1 48.8539Z" fill="#050505"/>
<path d="M123.068 58.3025C124.019 59.9368 125.317 61.2243 126.883 62.2805C128.081 63.1318 128.48 64.745 129.862 65.3389C131.276 65.9694 131.449 68.6389 129.363 67.9032C127.955 67.425 127.114 66.2006 126.357 64.9973C125.669 64.1407 124.733 63.5469 123.972 62.7692C123.078 61.9547 122.469 60.8985 121.917 59.837C121.691 59.4954 121.454 59.0487 121.018 58.9699C120.582 58.9437 120.409 58.3814 120.461 58.024C120.566 57.4723 120.897 57.2621 121.291 57.2621C121.933 57.2621 122.742 57.7981 123.062 58.3025H123.068Z" fill="#050505"/>
<path d="M142.815 51.7006C143.367 53.7343 141.196 55.2949 139.935 56.5771C137.324 58.7789 134.586 60.8441 131.722 62.7043C130.681 63.3192 128.784 64.8589 128.101 63.0564C128.075 62.9776 128.054 62.8935 128.033 62.8147C127.087 62.9986 126.714 61.7007 127.318 61.1069C131.012 58.6686 134.202 55.647 137.86 53.1614C138.884 52.2681 139.835 51.091 141.165 50.6864C141.249 50.6706 141.338 50.6602 141.422 50.6602C142.042 50.6602 142.631 51.0963 142.81 51.6954L142.815 51.7006Z" fill="#050505"/>
<path d="M132.637 60.3722C131.917 61.6438 130.372 62.39 129.242 63.2833V63.2729C128.438 63.8509 127.503 64.1977 126.914 63.1152C126.079 61.4231 127.902 60.288 129.111 59.4788C129.862 58.9848 130.53 58.1966 131.428 58.018C133.982 56.5361 136.473 55.3432 139.09 54.0925C137.046 56.2365 134.876 58.3806 132.637 60.3722Z" fill="#050505"/>
<path d="M129.598 63.1741C129.598 63.5787 129.377 64.0044 128.952 64.0254C128.694 64.0464 128.421 64.1042 128.232 63.873C127.076 62.2755 130.402 61.0249 131.532 60.5835C131.017 61.5031 130.339 62.4017 129.598 63.1741Z" fill="#050505"/>
<path d="M58.8719 82.627C61.5099 83.5571 63.7853 84.3086 64.8941 87.183C67.18 92.832 60.5062 99.8052 54.8098 98.9487C49.5075 98.0764 48.8506 91.5183 51.0104 87.5088C52.2296 85.0233 54.8098 82.4799 57.7053 82.4799C58.0889 82.4799 58.4778 82.5272 58.8719 82.6218V82.627Z" fill="#050505"/>
<path d="M51.1221 35.9416C49.1462 41.7272 52.4621 40.7813 51.7947 44.402C50.7805 46.814 48.4368 49.1419 45.6779 49.1471C44.5376 49.3573 42.6195 50.2927 42.0047 48.8213C41.7209 48.1014 42.1676 46.9926 43.0346 47.0084C43.2133 46.7772 43.4656 46.6143 43.7651 46.6826C43.8229 46.6983 43.8807 46.7088 43.9332 46.7246C45.2207 46.0835 46.5502 45.3005 47.2439 43.9868C47.0705 43.4193 47.0232 42.7992 47.123 42.2212C47.2176 41.6747 47.3805 41.1492 47.5014 40.6079C46.876 40.0614 46.7394 39.3836 46.8445 38.7057C46.876 38.4797 46.9391 38.2485 47.0127 38.0278C47.1756 37.5601 47.4068 37.1082 47.6275 36.7193C45.8303 34.5911 47.7326 33.0724 49.4037 33.0724C50.6439 33.0724 51.7527 33.9079 51.1273 35.9521L51.1221 35.9416ZM49.8766 35.0956C49.8766 35.064 49.8819 35.0325 49.8871 35.001C49.514 34.7697 49.0306 34.8906 48.668 35.0377C48.8782 35.1954 49.0569 35.3583 49.2198 35.5737C49.43 35.847 49.451 36.2306 49.4667 36.5669C49.6034 36.0782 49.761 35.5895 49.8766 35.0956Z" fill="#050505"/>
<path d="M55.0256 36.7461C55.1045 37.6026 54.642 38.4119 54.642 39.2843C54.5369 40.4035 55.2674 41.4125 55.0834 42.5423C54.9416 43.7929 54.2847 44.97 53.302 45.753C52.8448 44.5496 52.8658 43.4934 52.745 42.2795C52.6031 41.5596 52.3614 40.866 52.3719 40.125C52.3719 39.0583 52.6662 38.0335 52.9026 37.0036C53.0235 36.5096 53.26 36.0104 53.7592 35.8212C53.8696 35.7792 53.9746 35.7582 54.0745 35.7582C54.5737 35.7582 54.9521 36.2469 55.0362 36.7461H55.0256Z" fill="#050505"/>
<path d="M45.9561 33.2832C46.1715 33.9138 45.9088 34.5076 45.6776 35.0909C46.8337 34.8439 47.3434 36.3783 46.9388 37.2874C46.7811 37.6552 46.4763 37.918 46.0139 37.9285C45.8142 38.4435 45.9456 38.9742 45.9035 39.4997C45.8825 39.7624 45.8195 40.02 45.646 40.2722C45.2046 41.1971 43.9172 41.1813 43.6071 40.1671C43.4127 39.4419 43.4915 38.7273 43.0133 38.0967C42.5824 37.2874 42.7348 36.3363 43.0448 35.527C43.3233 34.7861 43.8068 34.1345 44.1641 33.4251C44.3113 33.115 44.5215 32.847 44.8473 32.7051C44.9471 32.6631 45.0417 32.6421 45.1363 32.6421C45.5042 32.6421 45.8352 32.9311 45.9561 33.2884V33.2832Z" fill="#050505"/>
<path d="M46.9375 37.2873C47.0059 37.4975 47.0321 37.7393 47.0059 38.0178C47.0059 38.0598 47.0006 38.1018 46.9954 38.1386C46.9691 38.3488 46.9113 38.5328 46.8377 38.6957C46.6275 39.1634 46.2754 39.4208 45.8971 39.4892C45.1403 39.631 44.3153 39.011 44.4835 37.7761C44.6254 36.8407 45.2192 36.4045 45.7972 36.4045C46.2807 36.4045 46.7536 36.7093 46.9375 37.2821V37.2873Z" fill="#050505"/>
<path d="M93.7448 24.487C93.7448 24.487 93.7021 24.487 93.6754 24.4817C93.6968 24.4817 93.7181 24.4817 93.7448 24.487Z" fill="#050505"/>
<path d="M101.826 25.5109C101.858 25.5057 101.895 25.4952 101.926 25.4794C101.895 25.4899 101.863 25.5004 101.826 25.5109Z" fill="#050505"/>
<path d="M97.7165 22.5791C97.6849 22.5791 97.648 22.5739 97.6164 22.5686C97.648 22.5686 97.6849 22.5739 97.7165 22.5791Z" fill="#050505"/>
<path d="M98.1223 16.4085C98.1118 16.3457 98.0961 16.283 98.0856 16.215C98.0961 16.2777 98.1118 16.3405 98.1223 16.4085Z" fill="#050505"/>
<path d="M99.6241 22.7897C99.6923 23.0732 99.7659 23.3567 99.8394 23.6402C99.7659 23.3567 99.6976 23.0732 99.6241 22.7897Z" fill="#050505"/>
<path d="M98.5637 18.6483C98.2114 18.4959 97.8118 18.4433 97.4227 18.5169C97.5384 18.4959 97.6541 18.4853 97.7698 18.4853C98.0432 18.4853 98.3166 18.5432 98.5637 18.6535V18.6483Z" fill="#050505"/>
<path d="M98.3417 17.4618C98.3101 17.4723 98.2837 17.4829 98.2521 17.4882C98.2837 17.4776 98.3101 17.4671 98.3417 17.4618Z" fill="#050505"/>
<path d="M97.3752 10.7559C97.3752 10.7559 97.4173 10.7454 97.4384 10.7401C97.4173 10.7454 97.3962 10.7507 97.3752 10.7559Z" fill="#050505"/>
<path d="M97.3128 10.7712C97.3128 10.7712 97.3491 10.7608 97.3698 10.7556C97.3491 10.7556 97.3335 10.766 97.3128 10.7712Z" fill="#050505"/>
<path d="M93.9497 11.3694C93.9497 11.3694 93.9393 11.3331 93.9393 11.3124C93.9393 11.3331 93.9393 11.3539 93.9497 11.3694Z" fill="#050505"/>
<path d="M105.946 6.69841C105.851 6.64591 105.73 6.61963 105.62 6.60388C105.736 6.61963 105.851 6.65116 105.951 6.69841H105.946Z" fill="#050505"/>
<path d="M142.579 50.467C143.199 50.7981 142.879 52.2747 142.091 51.8543C141.676 52.3693 140.956 52.7319 140.94 51.7597C137.498 54.5501 133.84 57.0514 130.54 60.0204C129.799 60.5038 126.341 64.0088 125.774 62.8948C125.569 62.4954 125.748 62.012 125.942 61.6389C125.737 61.0241 126.846 60.199 127.356 60.5984C127.671 60.4145 128.023 60.1308 128.391 60.3725C130.609 58.5543 132.737 56.6152 135.096 54.9757C136.294 54.1717 137.535 53.4465 138.659 52.5374C139.658 51.7387 140.609 50.8926 141.66 50.1675C141.817 50.0151 141.996 49.931 142.159 49.931C142.395 49.931 142.585 50.1045 142.579 50.467Z" fill="#050505"/>
<path d="M128.391 80.398C128.706 80.6976 128.99 80.9971 129.137 81.3649C129.189 81.5698 129.026 81.8799 128.785 81.801C128.627 81.7327 128.585 81.5646 128.448 81.47C128.448 81.9798 128.464 82.8836 127.765 82.8836C127.755 82.9309 127.776 83.0097 127.744 83.0202C127.723 82.9677 127.697 82.9151 127.676 82.8573C127.676 82.8573 127.676 82.8573 127.671 82.8573C126.893 83.0727 126.725 82.1163 126.767 81.5488C126.767 81.0076 126.693 80.419 126.945 79.9251C127.14 79.6045 127.387 79.4679 127.623 79.4679C128.012 79.4679 128.364 79.841 128.391 80.398Z" fill="#050505"/>
<path d="M54.5053 13.2254C55.6876 13.2937 56.87 13.3725 58.0419 13.5197C59.219 13.6615 60.4119 13.7771 61.5522 14.1082C61.7571 14.166 61.9621 14.2291 62.1618 14.3026C62.3562 14.0924 62.6242 13.9716 62.9237 14.0189H62.9342C63.0446 14.0399 63.1497 14.0661 63.2601 14.0819C63.3284 14.0924 63.3967 14.1135 63.4545 14.1398C64.2638 14.3237 65.0783 14.5076 65.8875 14.7178C66.9753 15.0068 68.0526 15.3273 69.1194 15.6899C70.1914 16.0525 71.2634 16.4414 72.3091 16.8828C73.4179 17.3505 74.511 17.8497 75.5988 18.3752C77.7375 19.3999 79.766 20.6663 81.7313 21.9905C82.6825 22.6369 83.6231 23.3201 84.5217 24.0505C85.4203 24.7757 86.3137 25.5113 87.1597 26.2995C88.9412 27.9601 90.6595 29.6942 92.1992 31.586C93.0348 32.6054 93.823 33.6511 94.5955 34.7179C95.2366 35.606 95.8515 36.5308 96.4137 37.4714C97.0286 38.5119 97.6434 39.5576 98.1952 40.6349C98.7417 41.7121 99.2724 42.7947 99.7507 43.8982C100.234 45.0123 100.676 46.1368 101.085 47.2823C101.485 48.4174 101.842 49.5577 102.168 50.7138C102.814 53.0312 103.303 55.3854 103.639 57.7711C103.97 60.1778 104.118 62.5951 104.128 65.0229C104.128 66.2472 104.076 67.4558 104.002 68.675C103.934 69.8258 103.781 70.9714 103.645 72.1117C103.576 72.674 103.487 73.2467 103.387 73.8038C103.282 74.3608 103.193 74.9178 103.072 75.4643C102.804 76.694 102.531 77.9131 102.189 79.1217C101.522 81.4706 100.707 83.767 99.7401 86.0109C99.2514 87.1512 98.7049 88.26 98.1426 89.3635C97.5961 90.4407 96.9708 91.4759 96.3559 92.5112C96.2719 92.653 96.193 92.7897 96.13 92.8843C95.8042 93.3888 95.4784 93.8932 95.1473 94.3925C94.6586 95.1439 94.1278 95.8743 93.5813 96.589C92.9665 97.3982 92.3569 98.2127 91.6843 98.9747C91.0642 99.6841 90.4441 100.388 89.7977 101.071C89.1251 101.786 88.4419 102.506 87.764 103.121C87.2911 103.557 86.8129 103.998 86.3399 104.429C85.8775 104.844 85.3888 105.233 84.9211 105.633C84.4534 106.037 83.9489 106.4 83.4602 106.778C82.982 107.151 82.4775 107.493 81.9836 107.845C81.5474 108.155 81.1007 108.449 80.6488 108.749C80.1864 109.048 79.7239 109.374 79.2457 109.658C78.6204 110.02 77.995 110.388 77.3697 110.756C76.8494 111.061 76.2924 111.324 75.7512 111.607C75.2782 111.854 74.8053 112.086 74.3271 112.306C73.8173 112.543 73.3128 112.795 72.7979 113.01C72.204 113.263 71.6102 113.536 71.0007 113.751C70.3595 113.983 69.7237 114.219 69.0826 114.45C68.5255 114.655 67.9528 114.818 67.3905 114.992C66.8702 115.155 66.3447 115.307 65.814 115.454C65.2727 115.596 64.7367 115.754 64.1902 115.874C63.5911 116.006 63.0026 116.163 62.4035 116.274C61.7361 116.395 61.074 116.516 60.4119 116.636C59.7813 116.747 59.1402 116.815 58.5096 116.899C57.9052 116.983 57.2904 117.025 56.6808 117.088C56.1133 117.141 55.551 117.172 54.9887 117.204C52.5872 117.346 50.1857 117.288 47.7841 117.088C46.896 117.015 46.0027 116.92 45.1199 116.794C44.8939 116.763 44.6679 116.726 44.442 116.689C43.8534 116.594 43.2596 116.521 42.6763 116.4C42.0299 116.263 41.3888 116.132 40.7477 115.995C40.1119 115.869 39.4813 115.685 38.8559 115.528C38.2358 115.375 37.6263 115.181 37.0167 115.002C35.8606 114.666 34.736 114.24 33.6114 113.82C32.6656 113.473 31.7354 113.068 30.8211 112.643C30.3113 112.406 29.7963 112.186 29.2971 111.928C28.6928 111.618 28.0937 111.303 27.4894 110.993C27.0007 110.74 26.5277 110.441 26.0495 110.168C25.6081 109.915 25.1719 109.647 24.741 109.374C24.3049 109.096 23.8635 108.828 23.4378 108.533C22.8965 108.16 22.35 107.782 21.835 107.425C21.32 107.062 20.8261 106.663 20.3216 106.279C19.8802 105.948 19.465 105.591 19.0394 105.239C18.1671 104.513 17.3105 103.767 16.5012 102.974C16.0651 102.548 15.6131 102.138 15.198 101.697C14.7408 101.213 14.2836 100.725 13.8264 100.236C13.385 99.7682 12.9856 99.2637 12.5652 98.775C12.2184 98.3756 11.8979 97.9553 11.5721 97.5401C11.2357 97.1197 10.8942 96.7046 10.5789 96.2684C10.19 95.7219 9.80113 95.1754 9.407 94.6289C9.27037 94.4345 9.14951 94.2243 9.01288 94.0246C8.78166 93.6672 8.55044 93.31 8.31922 92.9579C8.01443 92.4902 7.74117 92.0015 7.4574 91.518C7.17364 91.0398 6.90038 90.5564 6.64288 90.0624C6.37488 89.558 6.09111 89.0587 5.84413 88.5438C5.5551 87.9342 5.26608 87.3246 4.97705 86.7203C4.68803 86.116 4.4463 85.4907 4.18881 84.8706C3.7579 83.8669 3.38479 82.8317 3.04848 81.7912C2.86981 81.25 2.68063 80.7192 2.52823 80.1674C2.35482 79.5526 2.16039 78.943 2.00799 78.323C1.8556 77.6976 1.70846 77.0723 1.55606 76.4417C1.40367 75.8006 1.29857 75.1385 1.17245 74.4922C1.05684 73.9036 0.983267 73.3098 0.888677 72.716C0.799343 72.1432 0.731029 71.5705 0.667969 70.9977C0.536594 69.8416 0.431495 68.6803 0.389456 67.5137C0.347416 66.305 0.310631 65.0859 0.352671 63.872C0.394711 62.6581 0.442005 61.4338 0.573379 60.2199C0.704754 59.006 0.836128 57.7921 1.04107 56.5993C1.26178 55.3433 1.51402 54.0979 1.8083 52.863C2.09732 51.6702 2.43364 50.4983 2.79624 49.3212C3.50566 47.0196 4.42003 44.7863 5.45 42.6107C6.47998 40.4194 7.68862 38.328 9.01288 36.3049C10.3319 34.287 11.819 32.39 13.3955 30.5613C14.1365 29.6995 14.9352 28.8797 15.7393 28.0757C16.5801 27.2454 17.4366 26.4362 18.3352 25.669C20.164 24.1083 22.0768 22.6422 24.0999 21.3389C25.0669 20.7189 26.0443 20.1146 27.0532 19.5733C28.1515 18.9742 29.2603 18.4172 30.3901 17.8812C32.5552 16.8513 34.8306 16.0525 37.1113 15.3431C39.3604 14.6442 41.6726 14.166 43.99 13.7719C45.225 13.5617 46.4704 13.4461 47.7211 13.3305C48.8982 13.2254 50.0806 13.1886 51.2629 13.1623C51.5047 13.1623 51.7411 13.1571 51.9829 13.1571C52.8237 13.1571 53.6645 13.1833 54.5053 13.2306V13.2254ZM53.8536 114.787C55.3198 114.755 56.7754 114.603 58.231 114.461C58.8932 114.366 59.5658 114.309 60.2174 114.182C60.9058 114.056 61.5995 113.962 62.2774 113.809C62.971 113.652 63.6699 113.499 64.3636 113.342C65.0468 113.189 65.7194 112.979 66.392 112.8C67.0962 112.574 67.8056 112.348 68.5045 112.128C69.1877 111.907 69.8551 111.634 70.533 111.387C70.8745 111.261 71.2003 111.108 71.5314 110.972C71.8677 110.83 72.2093 110.709 72.5404 110.551C73.192 110.252 73.8489 109.942 74.5005 109.637C75.089 109.327 75.6828 109.017 76.2714 108.712C76.7443 108.465 77.1963 108.187 77.6587 107.924C78.1054 107.661 78.5521 107.409 78.983 107.125C79.54 106.762 80.097 106.405 80.654 106.037C81.2216 105.643 81.7839 105.239 82.3462 104.839C82.8717 104.466 83.3656 104.051 83.8754 103.657C84.8528 102.9 85.7619 102.059 86.6763 101.234C87.3384 100.588 87.9953 99.9521 88.6311 99.2795C89.2617 98.6173 89.8765 97.9395 90.4809 97.2616C90.8382 96.8307 91.2008 96.3998 91.5529 95.9637C91.9418 95.4907 92.2991 94.9915 92.6669 94.5133C93.0506 94.0193 93.3921 93.4886 93.76 92.9841C94.0858 92.5217 94.3906 92.033 94.7006 91.5548C95.142 90.8191 95.594 90.0887 96.0144 89.3373C96.4453 88.57 96.8552 87.787 97.2598 87.004C97.7222 86.0319 98.2004 85.0597 98.5946 84.0613C98.8048 83.5306 99.0307 83.0156 99.2199 82.4849C99.4196 81.9173 99.6245 81.3498 99.7717 80.9399C100.008 80.199 100.25 79.458 100.46 78.7171C100.681 77.9446 100.875 77.1669 101.038 76.5521C101.259 75.5379 101.501 74.5237 101.653 73.499C101.816 72.427 101.963 71.3603 102.094 70.2883C102.184 69.2793 102.284 68.2756 102.31 67.2614C102.32 66.7097 102.352 66.1526 102.352 65.5956C102.352 65.0701 102.341 64.5446 102.336 64.0192C102.299 63.2099 102.273 62.4112 102.21 61.6072C102.142 60.7191 102.047 59.8362 101.952 58.9482C101.8 57.8919 101.658 56.8357 101.443 55.79C101.322 55.2224 101.217 54.6497 101.075 54.0874C100.928 53.5094 100.781 52.9314 100.633 52.3533C100.408 51.5651 100.182 50.7769 99.9241 49.9939C99.6508 49.1584 99.3513 48.3281 99.0465 47.5031C98.9204 47.1878 98.7943 46.8725 98.6734 46.5782C98.6051 46.41 98.5315 46.2366 98.4737 46.0842C98.2425 45.5745 98.0218 45.0648 97.7958 44.5551C97.5593 44.0243 97.2913 43.5146 97.0391 42.9943C96.5924 42.0695 96.0722 41.1709 95.5677 40.2776C95.0737 39.4526 94.5535 38.638 94.028 37.8235C93.4867 36.9722 92.8719 36.163 92.2728 35.3538C91.8892 34.8651 91.5161 34.3711 91.1167 33.8876C90.6333 33.3043 90.1445 32.7315 89.6453 32.1587C88.7257 31.1025 87.7167 30.1146 86.8181 29.2423C85.888 28.3648 84.9421 27.5134 83.9489 26.7094C82.9032 25.8634 81.8259 25.0541 80.7276 24.2764C79.519 23.4619 78.2946 22.6684 77.0281 21.9485C75.7301 21.2128 74.4111 20.5349 73.0659 19.8938C71.6838 19.2685 70.2912 18.68 68.8671 18.1702C67.4378 17.6605 65.9926 17.2086 64.5265 16.825C64.5055 16.8198 64.4845 16.8145 64.2848 16.762C63.8381 16.6516 63.3914 16.536 62.9395 16.4362C62.9237 16.4362 62.908 16.4362 62.8922 16.4362C62.8817 16.4362 62.8712 16.4362 62.8607 16.4362C62.7608 16.4151 62.6557 16.3889 62.5612 16.3678C62.2406 16.3048 62.0199 16.084 61.9043 15.8108C61.4734 15.795 61.0477 15.7635 60.6221 15.7214C60.2384 15.6741 59.8601 15.6216 59.4817 15.5638C59.1296 15.506 58.7776 15.4535 58.4255 15.4167C57.6477 15.3326 56.8647 15.259 56.087 15.2012C54.5315 15.1119 52.9813 15.0804 51.4206 15.1066C49.8546 15.1329 48.2886 15.2748 46.7331 15.443C45.4141 15.6216 44.0899 15.7898 42.7919 16.0735C42.0877 16.2259 41.3836 16.3731 40.6847 16.5412C40.0488 16.6989 39.413 16.867 38.7824 17.0404C37.4791 17.4345 36.1811 17.8339 34.9094 18.3226C33.5431 18.8481 32.2084 19.4157 30.8841 20.0305C29.8068 20.5612 28.7296 21.1024 27.6891 21.7068C26.575 22.3479 25.4873 23.0258 24.4152 23.7299C23.9002 24.0873 23.3958 24.4498 22.886 24.8177C25.3033 23.8823 27.9571 23.6406 30.5531 23.6616C32.1506 23.5145 33.7481 23.6931 35.2352 24.1608C35.9079 23.8823 36.5858 23.6196 37.2689 23.3726C37.395 23.2307 37.5212 23.0941 37.6315 22.9785C39.5181 21.113 42.0982 20.1566 44.6259 19.526C47.0642 18.9585 49.3764 19.2738 51.2734 20.3668C53.2808 20.33 55.283 20.4404 57.2851 20.6821C62.146 21.2601 66.8545 22.7315 71.2266 24.907C73.0343 25.8056 74.7685 26.846 76.4238 28.0126C76.6077 27.9233 76.7864 27.834 76.965 27.7499C77.6062 27.3453 78.3892 27.2822 78.8358 27.9969C79.251 28.1125 79.3823 28.6695 79.2825 29.0479C79.2825 29.0689 79.2772 29.0847 79.272 29.1004C79.4244 29.5576 79.5452 30.0253 79.6346 30.4982C80.7539 31.4546 81.8259 32.4688 82.8401 33.5303C84.5638 35.3327 86.1245 37.277 87.5276 39.3369C88.216 40.3459 88.8518 41.3968 89.4509 42.4583C90.0447 43.5303 90.6122 44.6181 91.101 45.7426C92.0679 47.9392 92.8824 50.2093 93.471 52.5372C93.7757 53.7406 94.0332 54.9545 94.2487 56.1789C94.4641 57.3928 94.5955 58.6224 94.7111 59.8415C94.8267 61.0554 94.8635 62.2745 94.874 63.4937C94.8845 64.6813 94.8425 65.8741 94.7374 67.0512C94.5219 69.5315 94.1278 71.9961 93.5025 74.4133C93.1241 75.8532 92.6932 77.2773 92.2518 78.4964C91.3952 80.8138 90.3863 83.0629 89.1619 85.2174C87.969 87.3036 86.5974 89.2794 85.0945 91.1502C82.0729 94.9284 78.3892 98.2075 74.285 100.761C72.2408 102.033 70.102 103.137 67.8792 104.061C66.3395 104.703 64.763 105.228 63.1602 105.664C63.0972 105.801 63.0341 105.943 62.9658 106.079C61.8622 108.397 59.2715 110.22 56.6703 109.847C56.4811 109.821 56.292 109.784 56.1028 109.731C54.5368 109.29 53.428 108.349 52.5136 107.183C50.5272 107.209 48.5303 107.083 46.5702 106.826C46.4021 106.805 46.2287 106.778 46.0605 106.757C41.5202 106.111 37.106 104.718 33.0019 102.669C30.8578 101.602 28.8031 100.378 26.9534 99.0535C26.822 98.959 26.6959 98.8696 26.6171 98.8118C25.4505 97.9763 24.3312 97.0725 23.2644 96.1161C21.7247 95.5853 20.2796 94.8549 19.5281 93.4151C19.3652 93.0104 19.3494 92.6215 19.4493 92.2642C18.4613 91.1186 17.5417 89.9205 16.6589 88.6856C15.2611 86.7203 14.0524 84.5973 13.0224 82.4113C11.9767 80.1937 11.1464 77.8974 10.4685 75.5484C9.80113 73.2258 9.37022 70.819 9.12324 68.4175C8.88151 66.037 8.81319 63.6303 8.97609 61.2446C9.3019 56.4679 10.3529 51.7228 12.2237 47.3139C12.2657 47.2193 12.3078 47.1194 12.3498 47.0249C12.3183 46.7148 12.2867 46.3995 12.2552 46.0895C11.8085 41.3863 12.5652 36.2471 14.8669 32.0695C14.5621 32.4163 14.2521 32.7631 13.9526 33.1099C13.2379 33.9875 12.539 34.8703 11.8663 35.7846C11.1884 36.7095 10.5578 37.6606 10.0218 38.4804C9.54364 39.2529 9.06018 40.0201 8.62927 40.8188C8.19836 41.6123 7.78322 42.4111 7.37333 43.2151C6.97395 44.0611 6.58508 44.9124 6.20672 45.7742C5.83887 46.6097 5.53408 47.461 5.21879 48.307C4.89298 49.2792 4.54615 50.2408 4.27814 51.2235C4.131 51.7753 3.98386 52.3218 3.83672 52.863C3.70535 53.3517 3.60025 53.8562 3.48464 54.3449C3.2797 55.3433 3.05899 56.3523 2.9171 57.3612C2.84353 57.9025 2.76996 58.4385 2.69114 58.985C2.62282 59.5157 2.57553 60.0517 2.53349 60.4616C2.47043 61.3497 2.40737 62.2273 2.37584 63.1153C2.34431 64.0244 2.33905 64.9282 2.33905 65.8426C2.37058 66.778 2.40737 67.7134 2.47568 68.6435C2.544 69.6051 2.65435 70.5562 2.76471 71.5126C2.92236 72.5111 3.07475 73.5095 3.26918 74.4974C3.36377 74.9704 3.44785 75.4486 3.55821 75.9162C3.69484 76.4785 3.83147 77.046 3.9681 77.6083C4.2361 78.5489 4.5041 79.4896 4.80889 80.4197C5.11894 81.3761 5.47102 82.3114 5.8231 83.252C6.24876 84.2452 6.6639 85.2384 7.12634 86.2106C7.3418 86.6625 7.54674 87.1249 7.78322 87.5664C8.07224 88.1181 8.36652 88.6646 8.6608 89.2164C8.96559 89.7314 9.27037 90.2463 9.57516 90.7613C9.83266 91.1975 10.1059 91.6126 10.3844 92.0383C10.6577 92.4587 10.9257 92.8791 11.2147 93.2837C11.5773 93.7934 11.9452 94.3031 12.313 94.8128C12.7912 95.4119 13.2642 96.0109 13.7319 96.61C14.189 97.188 14.6883 97.7241 15.1717 98.2758C15.6342 98.8118 16.1491 99.3163 16.6379 99.8365C17.095 100.32 17.5838 100.767 18.062 101.229C18.5612 101.681 19.0657 102.133 19.5649 102.58C19.8329 102.827 20.1272 103.047 20.4109 103.284C20.6632 103.494 20.9154 103.72 21.1782 103.92C21.7825 104.377 22.3816 104.834 22.9859 105.286C23.5797 105.733 24.205 106.132 24.699 106.473C25.2876 106.878 25.9182 107.235 26.5277 107.624C27.1321 108.008 27.7784 108.339 28.3985 108.696C28.677 108.859 28.9766 108.996 29.2656 109.148C29.6124 109.327 29.9592 109.511 30.3113 109.684C30.9051 109.989 31.5252 110.257 32.1295 110.535C32.7444 110.788 33.3592 111.045 33.9793 111.297C34.5731 111.544 35.1827 111.749 35.7818 111.975C36.3598 112.191 36.9484 112.364 37.5369 112.559C38.1307 112.758 38.7508 112.911 39.208 113.047C40.8423 113.462 42.4766 113.836 44.1424 114.104C45.0305 114.245 45.9186 114.372 46.8067 114.482C47.5739 114.576 48.3412 114.629 49.1136 114.697C49.8336 114.734 50.5483 114.776 51.2682 114.787C51.5887 114.787 51.9093 114.792 52.2246 114.792C52.7764 114.792 53.3229 114.787 53.8799 114.776L53.8536 114.787ZM51.2577 24.66C50.1541 23.7772 48.8351 23.3253 47.4373 23.1939C47.3585 23.1992 47.2744 23.2097 47.1956 23.2149C46.8698 23.2464 46.5545 23.2833 46.2339 23.32C45.9659 23.3516 45.6664 23.4304 45.3984 23.3884C45.2565 23.3673 45.1356 23.3148 45.0305 23.2412C42.8287 23.5092 40.6268 24.3605 38.9242 25.3642C38.7403 25.4535 38.5774 25.5902 38.425 25.7478C40.0751 26.9144 41.3836 28.5224 42.0825 30.4614C43.0967 28.4593 45.02 26.9932 47.4636 26.9249C49.3396 26.762 51.3838 26.6148 53.2598 27.0405C52.4716 26.0999 51.7411 25.0121 51.2472 24.6653L51.2577 24.66ZM30.7948 28.1756C30.7948 28.1756 30.758 28.1545 30.7422 28.144C30.7107 28.123 30.6739 28.1072 30.6424 28.0915C30.6056 28.0704 30.5636 28.0547 30.5215 28.0389C30.49 28.0284 30.4585 28.0179 30.4269 28.0074C30.4269 28.0074 30.4164 28.0074 30.4112 28.0074C30.3901 28.0021 30.3744 27.9969 30.3534 27.9917C30.3323 27.9864 30.3061 27.9811 30.285 27.9759C30.1694 27.9496 30.0591 27.9443 29.9435 27.9496C29.8752 27.9548 29.7963 27.9654 29.7228 27.9759H29.7175C29.7175 27.9759 29.707 27.9759 29.7017 27.9759C29.4968 28.0179 29.2919 28.06 29.0922 28.1072C28.882 28.1545 28.677 28.2018 28.4668 28.2439C28.4143 28.2544 28.3617 28.2701 28.3092 28.2806C27.9466 28.37 27.584 28.4488 27.2214 28.5277C27.2214 28.5277 27.2267 28.5277 27.2319 28.5171C27.1216 28.5434 27.0112 28.5644 26.9008 28.5907C26.7852 28.6012 26.6749 28.6117 26.5645 28.6222C26.5435 28.6222 26.512 28.6275 26.4857 28.6327C26.1231 28.7273 25.7658 28.8271 25.4137 28.9322C25.1825 29.0005 24.925 29.1162 24.6832 29.0321C24.6307 29.0111 24.5834 28.9901 24.5361 28.9638C24.1893 29.0321 23.8635 29.1792 23.5955 29.3894C22.6969 29.752 21.8718 30.2092 21.1151 30.7557C21.8981 30.4299 22.4131 30.5665 22.7704 30.9606C22.7547 31.3074 22.8335 31.6385 22.9806 31.9328C23.0122 31.9906 23.0437 32.0484 23.0752 32.1009C23.112 32.1588 23.1488 32.2113 23.1856 32.2639C23.2224 32.3112 23.2591 32.3585 23.3012 32.4005C23.3117 32.411 23.3222 32.4215 23.3275 32.432C23.3275 32.432 23.338 32.4425 23.3432 32.4478C23.3642 32.4741 23.3905 32.4951 23.4115 32.5214C23.4536 32.5634 23.5009 32.6002 23.5482 32.637C23.5587 32.6475 23.5692 32.6579 23.5849 32.6685C23.6112 32.6895 23.6428 32.7158 23.6795 32.7316C23.7006 32.7473 23.7163 32.7578 23.7373 32.7683C23.7689 32.7894 23.8004 32.8104 23.8319 32.8261C23.853 32.8366 23.8687 32.8472 23.8845 32.8577C23.9213 32.8787 23.9581 32.8945 24.0001 32.9102C24.0211 32.9207 24.0369 32.9312 24.0526 32.9365C24.1998 32.9943 24.3522 33.0363 24.5151 33.0626C24.5729 33.0678 24.6307 33.0784 24.6937 33.0836C25.009 33.0994 25.3033 33.0416 25.5661 32.9365H25.5766C25.6081 32.9365 25.6449 32.9312 25.6764 32.9312C25.7447 32.9312 25.8131 32.9207 25.8814 32.9207C26.018 32.9155 26.1494 32.905 26.286 32.8997C26.3964 32.8944 26.5067 32.8787 26.6118 32.8524C26.6539 32.8419 26.6906 32.8314 26.7274 32.8209C26.7905 32.7998 26.8535 32.7788 26.9114 32.7526C26.9481 32.7368 26.9849 32.721 27.0217 32.7053C27.0795 32.679 27.1373 32.6422 27.1951 32.6107C27.2214 32.5949 27.2477 32.5739 27.2739 32.5529C27.3002 32.5318 27.3265 32.5161 27.3528 32.4951C27.3843 32.4688 27.4158 32.4478 27.4421 32.4215C27.4841 32.3847 27.5209 32.3479 27.5577 32.3112C27.5892 32.2796 27.626 32.2429 27.6523 32.2061C27.6733 32.1798 27.6996 32.1483 27.7206 32.1167C27.7416 32.0905 27.7574 32.0642 27.7784 32.0379C27.7994 32.0064 27.8205 31.9801 27.8362 31.9433C27.8362 31.9381 27.8467 31.9276 27.8467 31.9223C27.873 31.8855 27.894 31.8435 27.9098 31.8067C27.9151 31.7962 27.9203 31.7857 27.9256 31.7804C27.9466 31.7436 27.9623 31.7069 27.9781 31.6648C27.9834 31.6491 27.9886 31.6385 27.9939 31.6227C28.0096 31.5912 28.0202 31.5597 28.0307 31.5282C28.0359 31.5072 28.0464 31.4861 28.0517 31.4651C28.0622 31.4336 28.0727 31.402 28.078 31.3705C28.078 31.3705 28.078 31.36 28.078 31.3495C28.0885 31.3128 28.0937 31.2812 28.099 31.2444C29.1027 31.1971 30.1537 31.5702 31.026 32.185C31.6146 31.9643 32.2189 31.7856 32.7864 31.628C32.9914 31.1813 33.3802 30.8608 34.0003 30.8188C34.5573 30.7978 35.0881 31.2077 35.4875 31.5492C38.157 33.7931 37.9048 37.9233 35.9394 40.5508C35.7975 41.2812 35.6241 41.9854 35.4612 42.6476C37.0377 44.0033 34.3209 46.5362 33.6955 47.8919C35.7134 50.4038 32.2346 52.3848 30.1642 53.131C27.5209 54.3607 24.3995 55.9319 21.4672 54.8336C20.2638 54.5131 19.8907 52.7001 21.0941 52.1484C21.3621 52.0853 21.6353 52.0327 21.9086 51.9854C20.4162 51.1604 19.1392 50.0569 19.1445 48.286C19.1865 47.6502 19.5596 46.9776 20.164 46.7569C19.197 46.121 18.5454 45.3958 18.2511 44.3921C18.4298 44.1189 18.5402 43.8036 18.5559 43.4673C18.5875 42.842 18.6348 42.2167 18.7136 41.5966C18.7346 41.5072 18.7556 41.4179 18.7766 41.3286C19.1708 40.5508 19.0867 39.6155 18.5507 38.9428C18.5034 38.885 18.4561 38.8324 18.4088 38.7799C18.3878 38.7536 18.3615 38.7326 18.3405 38.7116C18.2774 38.6485 18.2038 38.596 18.1355 38.5435C18.0882 38.5119 18.0409 38.4751 17.9936 38.4488C17.9464 38.4173 17.8938 38.3911 17.8413 38.3648C17.7414 38.3175 17.6311 38.2755 17.5207 38.2387C17.4629 38.2177 17.4051 38.2019 17.342 38.1914C17.0793 38.1388 16.8113 38.1231 16.5485 38.1599C16.4697 38.3701 16.4014 38.575 16.3278 38.7694C15.5396 41.1236 15.2453 43.5566 15.0771 45.9949C15.6079 51.3812 18.6137 56.9671 24.0894 58.4542C27.2634 58.3386 30.3113 57.2561 33.1753 55.9371C35.787 54.8126 37.353 52.348 37.0535 49.4894C36.8485 47.2087 36.7014 44.8966 37.332 42.6633C38.0309 39.8992 39.2606 37.1877 39.2027 34.287C39.166 31.8225 37.1796 29.9044 35.0566 28.9375C33.7323 28.4646 32.345 28.3279 30.9367 28.3332C30.8789 28.2859 30.8211 28.2386 30.758 28.1966L30.7948 28.1756ZM53.5489 50.388C55.1516 49.0848 57.9263 47.419 57.2116 45.0123C54.7155 39.7311 57.942 35.4431 55.4512 32.1167C53.2178 29.3842 48.9402 29.8256 45.8661 30.5403C44.6627 31.2549 43.7273 32.2639 42.6343 33.0889C42.6343 33.1257 42.6343 33.1624 42.6395 33.1992C42.6395 34.555 42.671 35.9055 42.5029 37.256C42.1718 39.4683 40.9737 41.4284 40.4639 43.5881C40.1749 46.1998 40.5323 48.9218 39.8754 51.4547C40.0803 51.565 40.2748 51.7595 40.4324 52.059C41.7199 53.1993 43.2281 53.6513 44.794 53.6513C47.8472 53.6513 51.1421 51.9592 53.5436 50.388H53.5489ZM76.4028 39.0374C76.4974 38.8115 76.5709 38.5855 76.5867 38.3385C77.0281 36.163 77.3014 33.9612 77.4905 31.7488C77.3329 31.3074 77.212 30.8503 77.1385 30.3879C77.1174 30.3721 77.0912 30.3616 77.0702 30.3458C76.098 30.7557 75.1153 31.1814 74.1799 31.6596C74.9471 35.3485 75.2572 38.0547 71.4316 40.0411C68.6622 41.8225 65.2675 40.4983 62.2984 39.9938C61.9148 40.8136 61.7151 41.4757 61.5154 42.2744C63.4125 43.5356 65.2254 44.3028 67.5218 44.3974C67.5218 44.3974 67.4693 44.3974 67.4325 44.3974C67.5849 44.4027 67.732 44.4079 67.8792 44.4079C71.668 44.4079 74.6896 42.143 76.4028 39.0426V39.0374ZM32.9283 33.8403C32.7181 33.4305 32.6078 32.926 32.6288 32.4373C32.3818 32.5949 32.1401 32.7473 31.8931 32.9102C32.119 33.1572 32.3187 33.4199 32.4816 33.6985C33.0124 34.3921 33.438 35.1488 33.685 35.9896C34.3366 37.0406 34.6204 38.2807 34.4312 39.5103C34.3787 40.4247 34.0529 42.1115 33.2489 42.7263C33.4591 42.7631 33.6535 42.8524 33.8164 42.9838C33.8742 42.8472 33.932 42.7211 33.9793 42.616C34.489 40.7663 35.2563 38.4594 34.7413 36.5361C34.7203 36.5361 34.7045 36.5361 34.6835 36.5361C33.8217 36.5361 33.2751 34.5655 32.9283 33.8351V33.8403ZM22.0032 32.8629C21.9717 32.7211 21.9349 32.5792 21.8771 32.4425C21.525 32.4898 21.2202 32.7473 20.9207 32.9417C21.1624 33.0363 21.4041 33.1256 21.6511 33.2097C21.7667 33.0941 21.8823 32.9786 22.0032 32.8629ZM19.9538 35.0069C20.0326 34.9176 20.1167 34.823 20.2007 34.7389C19.9538 34.6443 19.7278 34.5182 19.5281 34.3448C19.4703 34.6023 19.4283 34.8598 19.4388 35.1278C19.5228 35.1856 19.6017 35.2434 19.6858 35.3117C19.7751 35.2118 19.8644 35.112 19.9538 35.0122V35.0069ZM22.9071 37.0037C22.8913 36.9039 22.886 36.7988 22.886 36.7042C22.7862 36.4573 22.7126 36.1893 22.6496 35.937C22.576 35.6638 22.5129 35.3958 22.4551 35.1225C22.287 35.0962 22.1136 35.0752 21.9349 35.0542C21.5197 35.4693 21.1204 35.9003 20.721 36.3312C20.9627 36.6465 21.1624 36.9933 21.3148 37.3558C21.835 37.2034 22.371 37.0721 22.9123 36.9985L22.9071 37.0037ZM26.9376 38.8062C26.8956 38.8062 26.8535 38.8062 26.8168 38.7957C26.7695 39.1478 26.512 39.4421 26.2072 39.5629C26.3018 39.9308 26.3648 40.2933 26.4016 40.6612C26.533 40.4668 26.6644 40.2775 26.801 40.0936C26.8483 39.8519 26.9324 39.6154 27.027 39.3842C27.0375 39.1898 27.048 38.9954 27.0743 38.8062C27.0532 38.8062 27.027 38.8062 27.0059 38.8062C26.9849 38.8062 26.9586 38.8062 26.9376 38.8062ZM23.8897 39.1057C23.0962 39.1582 22.308 39.4315 21.567 39.7311C21.3779 41.0343 20.2007 42.4899 20.8629 43.7773C21.3516 44.2135 21.8718 44.6391 22.4078 45.049C22.9281 43.11 25.5713 42.884 23.8897 39.1057ZM79.498 52.017C79.5873 51.9224 79.6819 51.8278 79.7765 51.728C79.7765 51.728 79.7817 51.7175 79.787 51.7122C80.1233 51.2708 80.4754 50.8452 80.8642 50.4511C80.8642 50.4511 80.8643 50.4458 80.8695 50.4405C81.1007 50.141 81.3267 49.8415 81.5421 49.5314C82.2778 47.9287 82.7455 46.2103 83.2342 44.5183C83.7335 43.0049 83.8123 41.544 84.2117 40.1252C82.9505 40.5035 81.7261 40.987 80.5227 41.5177C81.8207 46.4153 77.1542 49.852 72.9502 50.9923C71.915 51.2603 70.843 51.4284 69.771 51.3286C68.4835 51.1709 67.3222 50.5141 66.0662 50.2198C64.4845 51.4074 63.4755 53.3097 61.7361 54.2818C63.6227 54.8126 65.4934 55.3486 67.4535 55.4694C71.5997 55.4116 76.3029 54.8757 79.5085 52.0117L79.498 52.017ZM29.6334 51.0238C30.5951 50.5614 31.6303 50.1831 32.4343 49.4684C31.8931 48.7747 31.8563 48.1021 32.0665 47.44C32.0402 47.4558 32.0087 47.4715 31.9719 47.482C31.4464 48.039 30.9262 48.596 30.4059 49.1583C30.3849 49.9045 30.0328 50.5194 29.5546 51.0554C29.5756 51.0449 29.6019 51.0343 29.6229 51.0238H29.6334ZM87.4014 58.8115C87.4382 58.7537 87.4698 58.6907 87.5013 58.6329C87.5223 58.5646 87.5591 58.5068 87.6011 58.449C87.7483 58.181 87.8849 57.9077 88.011 57.6292C88.6101 55.1016 88.3999 52.4269 88.4314 49.852C88.4314 49.4789 88.6469 49.2267 88.8939 49.1479C88.8939 49.1479 88.8939 49.1373 88.8991 49.1321C87.5591 49.542 86.2716 49.8835 84.9736 50.3722C85.1786 52.3165 85.2206 54.4868 84.0908 56.1684C80.8905 60.1463 74.8893 61.3497 70.2807 59.3161C68.8146 60.3355 67.5008 61.5651 66.0189 62.5793C68.5623 64.1453 71.3632 65.4012 74.3691 65.5589C74.6161 65.5746 74.8631 65.5798 75.11 65.5798C80.0287 65.5798 84.6163 62.7423 87.3857 58.8063L87.4014 58.8115ZM24.1472 50.5246C24.0894 50.5404 24.0369 50.5561 23.9843 50.5719C24.5414 50.7874 25.1141 50.987 25.6502 51.1972C25.5661 51.1289 25.4925 51.0554 25.4294 50.9713C25.3874 50.9082 25.3559 50.8452 25.3191 50.7769C25.2508 50.7769 25.1877 50.7821 25.1247 50.7821C24.7148 50.7821 24.3942 50.6823 24.1472 50.5194V50.5246ZM36.7697 60.2199C36.0603 65.6639 35.8869 71.1658 35.025 76.5994C34.489 80.6509 33.932 84.7865 33.5379 88.8433C33.4906 90.0834 33.2909 91.4024 33.417 92.6636C33.6062 92.7161 33.7901 92.7634 33.9793 92.8107C34.0003 92.6478 34.0266 92.4849 34.0581 92.3167C33.7691 91.3919 34.2263 89.9573 34.2841 89.1481C34.6362 87.1092 35.209 85.0808 36.26 83.2889C36.4386 82.5689 36.6068 81.849 36.7487 81.1186C37.4791 77.0881 37.7576 72.9788 38.6615 68.9745C39.1397 66.0791 40.2275 63.4937 39.9385 60.6245C39.9069 60.4143 39.7282 60.2987 39.5181 60.304C38.5984 60.2987 37.6893 60.2567 36.7644 60.2199H36.7697ZM36.6909 92.0435C36.6909 91.9437 36.7014 91.8438 36.7119 91.7545C36.8958 90.3987 37.2794 89.085 37.8417 87.8448C38.1938 86.0792 38.9873 84.3976 40.1539 83.0209C41.9721 80.9347 44.0216 79.8259 46.1709 79.2111C47.0484 78.633 47.9418 78.0813 48.8614 77.5715C51.0422 75.7586 52.687 73.4096 53.9955 70.9136C55.2777 68.7853 57.1275 66.8253 58.6567 64.9282C59.5238 63.7879 60.5537 62.5426 60.4224 61.0397C52.4926 63.2415 52.3665 66.9777 48.8246 73.2941C47.1746 76.1369 44.71 78.4018 42.051 80.2883C40.1539 81.4444 38.7876 82.7003 37.8102 84.1507C37.3057 86.1528 36.6804 88.1234 36.2442 90.1413C36.0498 91.1187 36.0025 92.2432 35.6136 93.1785C35.7765 93.2153 35.9342 93.2521 36.0865 93.3152C36.2495 92.879 36.4596 92.4534 36.6909 92.0383V92.0435ZM24.2155 78.633C23.401 75.6535 23.3695 72.5268 23.091 69.4685C22.8598 67.335 22.9386 65.1858 21.7825 63.3991C21.1098 62.7948 20.784 64.0822 20.5633 64.5341C21.4094 66.0318 21.4146 67.7712 21.6459 69.4265C22.9701 76.3997 24.699 83.3362 27.3633 89.9258C27.5472 90.3409 27.7364 90.756 27.9676 91.1396C28.3933 91.2395 28.8242 91.3498 29.2498 91.4654C27.7942 87.1091 25.6607 82.9788 24.2155 78.6278V78.633ZM30.0276 81.2552C30.1011 80.9399 30.2798 80.6456 30.4427 80.3724C30.6056 79.9572 30.6371 79.4948 30.7002 79.0534C30.9367 76.7412 30.243 74.4817 30.2588 72.18C30.1694 69.3739 31.3571 65.995 29.5441 63.5567C28.9976 67.9393 29.0659 72.3167 29.192 76.7203C29.2393 78.4123 29.2971 80.1044 29.3024 81.7912C29.481 81.4917 29.7438 81.3235 30.0276 81.25V81.2552ZM61.4208 105.58C61.7782 104.739 62.1618 103.909 62.4403 103.047C62.5506 103.016 62.6505 102.984 62.7608 102.953C62.9605 102.485 63.1655 102.028 63.3914 101.597C64.0641 100.304 64.8944 99.1061 65.9086 98.0551C67.8266 95.827 70.7589 95.3699 73.2971 94.2506C75.1258 93.3152 76.655 91.8701 77.7586 90.1517C80.2126 86.8622 77.3487 82.5637 79.4402 79.148C80.365 77.3403 82.4092 75.7061 82.0729 73.5043C80.7171 70.5615 76.8021 69.5789 73.8068 69.768C71.1951 70.1044 69.5765 72.4796 67.7846 74.1611C65.9138 76.1107 63.8959 78.055 61.3472 79.0639C56.2709 80.9136 50.3591 79.6052 45.3879 81.5968C43.3174 83.0997 41.2732 84.755 39.8386 86.8517C39.5391 88.6279 39.1712 90.4775 39.8649 92.1801C40.6531 93.7198 42.0615 94.7392 43.6695 95.2017C43.7851 95.2017 43.9007 95.1807 44.0111 95.1596C44.3053 95.2595 44.5944 95.3593 44.8519 95.5012C46.3127 96.1949 47.7211 97.0462 48.9297 98.1339C49.534 98.6121 50.0438 99.2532 50.5062 99.9679C51.079 100.535 51.5677 101.182 51.9724 101.87C52.8972 103.315 53.9955 104.634 54.9624 106.048C55.7507 106.994 56.8385 107.656 58.0051 108.018C58.2258 108.003 58.4623 107.971 58.6987 107.924C59.776 107.619 60.5327 106.978 61.1213 106.184C61.0582 106.2 60.9952 106.216 60.9321 106.232C60.9268 106.232 60.9163 106.232 60.9111 106.232C61.1265 106.064 61.3052 105.838 61.4156 105.58H61.4208ZM30.264 94.4134C28.6402 94.0035 27.0165 93.5727 25.3716 93.2574C24.4415 93.084 23.4798 92.7687 22.5287 92.7949C22.9176 93.1786 23.3169 93.5464 23.7163 93.909C25.9602 94.9179 28.4195 95.5118 30.8263 95.9164C32.3555 96.032 33.9846 96.2159 35.4717 95.7745C35.4822 95.7482 35.4927 95.7167 35.5032 95.6904C35.5348 95.6116 35.5768 95.538 35.6346 95.4802C35.1301 95.4276 34.6309 95.3489 34.1317 95.2648C33.8374 95.4435 33.4958 95.538 33.2016 95.4907C32.9756 95.3961 32.7864 95.2175 32.6235 94.9757C32.0665 94.8549 31.5147 94.7235 30.9682 94.5869C30.8894 94.6289 30.8105 94.6499 30.7212 94.6499C30.5688 94.6499 30.4112 94.5816 30.264 94.4134Z" fill="#050505"/>
<path d="M101.559 0.656094C101.643 0.682368 101.722 0.703396 101.806 0.72967C101.848 0.74018 101.89 0.755916 101.932 0.766426C101.959 0.776936 101.985 0.782216 102.016 0.792726C102.636 0.971393 103.257 1.13953 103.882 1.29718C107.965 2.22204 112.022 2.9577 116.01 4.16107C116.384 4.27667 116.541 4.68661 116.72 5.0019C117.251 5.9688 117.76 6.95142 118.165 7.98138C118.175 8.01291 118.191 8.04973 118.202 8.08126C119.489 11.3025 120.651 14.6656 121.954 17.7975C123.052 19.5527 121.723 20.0151 120.482 20.8402C120.377 20.9085 120.272 20.982 120.172 21.0608C117.23 23.2101 114.544 25.7324 112.011 28.2916C111.67 28.6226 111.407 29.0483 111.039 29.3478C111.023 29.353 111.008 29.3583 110.992 29.3636C110.96 29.3741 110.929 29.3846 110.892 29.3951C110.272 29.5632 109.578 29.29 108.948 29.2375C106.904 28.9327 104.865 28.6069 102.81 28.3704C102.789 28.3704 102.768 28.3704 102.742 28.3651C102.647 28.3546 102.547 28.3441 102.453 28.3336C101.191 28.1969 99.9302 28.0603 98.669 27.9395C98.401 27.9184 98.1908 27.7766 98.0384 27.5453C96.835 24.4922 95.5055 21.476 93.9553 18.57C93.2616 17.2458 92.5837 15.9215 91.9741 14.5553C91.7692 14.0455 91.4486 13.5253 91.4539 12.9683C91.4539 12.8632 91.4644 12.7633 91.4907 12.6582C91.2595 12.096 91.5958 11.581 91.9006 11.1343C92.363 10.4722 92.8727 9.83635 93.3982 9.22153C95.558 6.74122 97.6548 4.20838 99.8356 1.74909C100.261 1.33395 100.666 0.614014 101.302 0.614014C101.386 0.614014 101.47 0.624559 101.564 0.650834L101.559 0.656094ZM120.524 18.6909C118.648 14.4817 117.524 9.95197 115.359 5.87943C110.776 4.51315 105.963 4.11903 101.37 2.8526C101.034 3.24146 100.692 3.63038 100.351 4.01924C97.9701 6.74127 95.5475 9.42127 93.1933 12.1696C95.1166 16.8517 97.597 21.2605 99.1472 26.0898C100.881 26.2579 102.61 26.4839 104.334 26.7361C104.586 26.7729 104.833 26.8097 105.08 26.8517C105.511 26.92 105.942 26.9936 106.373 27.0724C106.967 27.1775 107.566 27.2879 108.159 27.3982C108.191 27.4035 108.217 27.4087 108.249 27.414C108.259 27.414 108.265 27.414 108.275 27.414C109.016 27.5453 109.752 27.6715 110.498 27.7713C110.508 27.7713 110.524 27.7713 110.535 27.7713C113.604 24.4713 116.767 21.1974 120.524 18.6856V18.6909Z" fill="#050505"/>
<path d="M102.698 4.27682C102.761 4.31361 102.819 4.37137 102.861 4.43443C102.866 4.44494 102.872 4.45022 102.882 4.46073C103.66 5.68512 99.5401 8.20745 98.6573 8.84329C98.899 8.50173 99.146 8.14966 99.3877 7.80283C99.3877 7.80283 99.3877 7.80283 99.393 7.80283C100.276 6.54166 101.18 5.27522 102.257 4.24C102.32 4.21373 102.378 4.20325 102.441 4.20325C102.53 4.20325 102.62 4.22953 102.698 4.27682Z" fill="#050505"/>
<path d="M96.2246 11.6863C96.1825 11.8334 96.1037 11.9648 95.9671 12.0541C97.9692 15.9848 99.8715 19.9785 101.122 24.2034C101.29 24.7499 100.823 25.4121 100.339 25.4121C100.161 25.4121 99.9871 25.3228 99.8348 25.1126C98.8731 22.7268 98.2162 20.1939 97.1284 17.8503C96.5084 16.4104 95.8777 14.9759 95.2419 13.5413C94.7532 12.6742 94.5009 11.7914 95.2944 11.0452C95.3207 11.0189 95.347 10.9979 95.3733 10.9716C95.5099 10.8455 95.6465 10.7877 95.7621 10.7877C96.1195 10.7877 96.3402 11.2817 96.2351 11.681L96.2246 11.6863Z" fill="#050505"/>
<path d="M108.889 5.68527C111.054 6.12142 113.687 6.03209 115.663 6.99373C116.298 7.91859 116.262 9.15876 116.509 10.2255C116.866 12.6585 117.502 15.1336 117.16 17.6034C117.029 18.9014 116.072 19.8945 115.258 20.8456C113.897 22.4221 112.657 23.9566 111.637 25.759C111.769 26.3843 111.511 26.7048 111.112 26.8257C110.854 26.8993 110.534 26.894 110.213 26.8362C110.197 26.8362 110.187 26.8362 110.171 26.8257C109.041 26.7206 107.911 26.584 106.782 26.4631C106.75 26.4631 106.713 26.4579 106.682 26.4526C105.657 26.3423 104.638 26.2424 103.608 26.1793C103.587 26.1793 103.571 26.1793 103.55 26.1793C103.508 26.1793 103.46 26.1741 103.418 26.1741C103.376 26.1741 103.334 26.1741 103.292 26.1688C103.271 26.1688 103.245 26.1688 103.224 26.1688C103.103 26.1636 102.988 26.1584 102.867 26.1531C102.851 26.1531 102.83 26.1531 102.814 26.1531C102.756 26.1531 102.693 26.1531 102.635 26.1479C102.609 26.1479 102.583 26.1479 102.557 26.1479C102.525 26.1479 102.494 26.1479 102.462 26.1479C102.409 26.1479 102.362 26.1479 102.31 26.1479C102.283 26.1479 102.262 26.1479 102.236 26.1479C102.194 26.1479 102.152 26.1479 102.11 26.1479C102.089 26.1479 102.073 26.1479 102.052 26.1479C101.994 26.1479 101.937 26.1479 101.873 26.1479C101.858 26.1479 101.842 26.1479 101.826 26.1479C101.763 26.1479 101.7 26.1479 101.637 26.1479C101.6 26.1741 101.563 26.1951 101.527 26.2056C101.479 26.2214 101.432 26.2319 101.38 26.2319C101.143 26.2319 100.922 26.0323 100.87 25.7695C100.702 24.6239 101.868 24.687 102.814 24.75C103.045 24.7658 103.261 24.7816 103.439 24.7763C103.45 24.7763 103.455 24.7763 103.466 24.7763C103.466 24.7763 103.471 24.7763 103.476 24.7763C103.497 24.7763 103.524 24.7763 103.545 24.7763C103.686 24.7816 103.828 24.7921 103.97 24.7973C103.981 24.7973 103.986 24.7973 103.997 24.7973C104.065 24.7973 104.128 24.8026 104.196 24.8078C104.506 24.8236 104.816 24.8446 105.126 24.8656C106.677 24.9707 108.227 25.1074 109.772 25.244C109.998 25.265 110.224 25.2861 110.45 25.3071C114.591 18.3706 116.393 19.3375 116.083 15.4279C116.067 15.2387 116.046 15.0337 116.02 14.8183C116.004 14.7027 115.988 14.5818 115.973 14.4557C115.973 14.4557 115.973 14.4505 115.973 14.4452C115.852 13.5414 115.657 12.4273 115.384 11.0137C115.384 11.0137 115.384 11.0137 115.384 11.019C115.337 10.772 115.284 10.5198 115.237 10.2571C115.116 9.64224 114.985 8.97484 114.843 8.25492C113.314 7.83978 111.748 7.65059 110.187 7.44564C109.215 7.31953 108.248 7.18816 107.281 6.98847C106.235 6.72047 104.79 6.79404 104.322 5.61169C104.732 5.28063 105.195 5.16504 105.678 5.16504C106.719 5.16504 107.875 5.69055 108.884 5.71683L108.889 5.68527Z" fill="#050505"/>
<path d="M102.578 6.13652C102.951 7.0246 101.764 7.41872 101.254 7.90742C101.081 8.04405 100.907 8.18068 100.734 8.31206C99.6617 9.13708 98.5109 9.94111 97.2077 10.2511C97.7962 9.31052 98.5477 8.50124 99.3937 7.79709C99.3937 7.79709 99.3937 7.79708 99.3937 7.79183C99.7984 7.45026 100.229 7.13499 100.671 6.83547C101.086 6.64629 101.68 5.87378 102.163 5.87378C102.315 5.87378 102.452 5.94735 102.573 6.13652H102.578Z" fill="#050505"/>
<path d="M112.105 38.4231C112.131 38.3915 112.157 38.3598 112.189 38.3282C112.163 38.3598 112.131 38.3915 112.105 38.4231Z" fill="#050505"/>
<path d="M106.146 18.4435C106.745 18.68 106.65 19.3946 106.619 19.9201C106.598 20.3195 106.566 20.7136 106.55 21.1129C106.498 22.0431 106.456 22.9785 106.429 23.9086C106.429 24.0505 106.424 24.1923 106.419 24.3289C106.34 27.3347 106.372 30.3511 106.424 33.3569C106.424 33.6354 106.435 33.9139 106.44 34.1924C106.456 35.0174 106.471 35.8372 106.487 36.6622C106.487 36.8461 106.492 37.03 106.498 37.2139C106.508 37.792 106.519 38.3753 106.529 38.9533C106.902 38.9113 107.275 38.885 107.654 38.8535C108.7 38.7641 109.745 38.6485 110.691 38.2071C110.654 38.1966 110.618 38.1914 110.581 38.1809C110.56 38.1809 110.534 38.1704 110.513 38.1651C110.47 38.1599 110.428 38.1493 110.386 38.1441C110.386 38.1441 110.376 38.1441 110.371 38.1441C109.588 38.0337 108.784 38.1861 108.022 38.3753C107.822 38.4279 107.622 38.4331 107.428 38.4121C107.391 38.4121 107.349 38.4015 107.312 38.3963C107.233 38.3805 107.149 38.3648 107.071 38.3438C106.955 38.3122 106.839 38.3017 106.824 38.1756C106.787 37.8919 106.923 37.6238 107.086 37.3978C107.134 37.3348 107.186 37.2823 107.239 37.2297C107.775 36.72 108.621 36.6885 109.32 36.5571C109.824 36.4625 110.418 36.473 110.938 36.6149C111.742 36.8356 112.368 37.3664 112.21 38.2912C112.178 38.3175 112.152 38.349 112.121 38.3806C111.989 38.4804 111.858 38.575 111.726 38.6643C111.611 38.7326 111.495 38.7957 111.374 38.8587C111.164 38.9533 110.949 39.0374 110.728 39.1109C110.444 39.2055 110.15 39.2949 109.861 39.3632C109.798 39.3737 109.735 39.379 109.672 39.3842C109.687 39.3842 109.709 39.3842 109.724 39.3842C109.32 39.421 108.947 39.5576 108.652 39.8519C108.495 40.0096 108.374 40.1988 108.29 40.4037C107.643 40.472 106.992 40.4983 106.351 40.6034C106.219 40.7137 106.051 40.7767 105.878 40.7505C105.846 40.7505 105.815 40.74 105.783 40.7242C105.715 40.6927 105.657 40.6559 105.61 40.6139C105.61 40.6139 105.604 40.6086 105.599 40.6034C105.279 40.3301 105.237 39.8677 105.237 39.4105C105.237 39.153 105.247 38.8955 105.221 38.6748C105.221 38.5224 105.221 38.3753 105.216 38.2229C105.168 35.0332 105.095 31.8487 105.089 28.659C105.089 28.0547 105.089 27.4504 105.095 26.846C105.095 26.6726 105.095 26.4992 105.095 26.3258C105.105 25.8266 105.116 25.3274 105.131 24.8229C105.179 23.2727 105.247 21.7173 105.368 20.1724C105.384 19.9464 105.405 19.7257 105.426 19.4997C105.242 19.0793 105.52 18.412 105.993 18.412C106.046 18.412 106.098 18.4172 106.151 18.433L106.146 18.4435Z" fill="#050505"/>
<path d="M112.193 38.3236C112.161 38.355 112.135 38.3916 112.099 38.423C112.13 38.3916 112.156 38.355 112.188 38.3236C112.125 38.3759 112.067 38.4282 112.005 38.4805C112.046 38.4439 112.083 38.4073 112.125 38.3707C112.125 38.3707 112.12 38.3707 112.12 38.376C112.141 38.355 112.167 38.3393 112.188 38.3184L112.193 38.3236Z" fill="#050505"/>
<path d="M108.053 18.4071C108.558 18.5174 108.616 19.1901 108.306 19.5211C109.089 22.8317 110.035 26.1055 110.891 29.4003C111.301 30.9767 111.69 32.5637 112.031 34.156C112.031 34.1665 112.031 34.177 112.037 34.1822C112.084 34.4082 112.131 34.6394 112.179 34.8654C112.184 34.8916 112.189 34.9179 112.194 34.9442C112.215 35.0546 112.236 35.1649 112.263 35.2753C112.268 35.3173 112.278 35.3541 112.284 35.3961C112.284 35.4066 112.284 35.4224 112.289 35.4329C112.289 35.4592 112.299 35.4854 112.305 35.5117C112.305 35.5327 112.31 35.5485 112.315 35.5695C112.315 35.5853 112.321 35.6011 112.326 35.6169C112.441 36.2001 112.589 36.7887 112.715 37.3825C112.662 37.5139 112.604 37.64 112.546 37.7713C112.483 37.887 112.42 38.0026 112.352 38.1182C112.321 38.1655 112.284 38.2127 112.247 38.2548C112.205 38.2968 112.163 38.3336 112.126 38.3757C111.995 38.4755 111.869 38.5701 111.732 38.6594C111.611 38.7277 111.501 38.7908 111.38 38.8538C111.375 38.8538 111.369 38.8538 111.359 38.8591C111.233 38.1024 111.091 37.3562 110.938 36.61C110.802 35.9268 110.655 35.2437 110.508 34.5501C110.487 34.4397 110.46 34.3241 110.439 34.2138C110.429 34.1507 110.413 34.0877 110.402 34.0193C110.108 32.4744 109.756 30.9452 109.383 29.4213C109.225 28.7802 109.068 28.1444 108.905 27.5033C108.836 27.2195 108.763 26.9357 108.689 26.652C108.532 26.0214 108.369 25.3961 108.216 24.7655C108.117 24.3661 108.017 23.9615 107.922 23.5621C107.838 23.2205 107.759 22.879 107.68 22.5374C107.665 22.4691 107.649 22.406 107.633 22.3377C107.596 22.1643 107.554 21.9909 107.517 21.8228C107.481 21.6546 107.444 21.4917 107.407 21.3235C107.334 20.9767 107.26 20.6246 107.186 20.2778C107.176 20.2147 107.16 20.1464 107.15 20.0834C107.144 20.0518 107.134 20.0151 107.129 19.9836C107.129 19.9836 107.129 19.973 107.129 19.9678C107.008 19.4108 107.123 18.3282 107.775 18.3282C107.859 18.3282 107.954 18.344 108.053 18.386V18.4071Z" fill="#050505"/>
<path d="M109.724 17.8764C110.071 18.2652 109.792 18.8328 109.451 19.127C107.853 19.9836 106.009 20.3619 104.232 20.0992C104.159 20.0887 104.09 20.0781 104.017 20.0624C103.444 20.0046 103.176 19.3793 103.313 18.8696C103.334 18.796 103.36 18.7277 103.397 18.6593C103.491 18.4859 103.66 18.3125 103.865 18.2757C105.157 18.1286 106.56 17.6241 107.832 18.0813C108.252 17.9762 108.736 17.6556 109.183 17.6556C109.372 17.6556 109.556 17.7135 109.719 17.8764H109.724Z" fill="#050505"/>
<path d="M112.925 37.0155C113.051 37.0628 113.162 37.1574 113.246 37.3203C113.855 39.6114 109.368 41.1826 106.919 41.1826C106.556 41.1826 106.241 41.1458 105.994 41.0775C105.947 41.0512 105.905 41.0197 105.862 40.983C105.857 40.9777 105.852 40.9724 105.847 40.9672C105.847 40.9672 105.847 40.9672 105.841 40.9619C105.841 40.9619 105.831 40.9514 105.831 40.9461C105.831 40.9461 105.826 40.9409 105.82 40.9357C105.82 40.9357 105.815 40.9304 105.81 40.9252C105.81 40.9199 105.799 40.9146 105.794 40.9094C105.742 40.8411 105.705 40.7622 105.679 40.6834C105.526 40.2104 105.778 39.5641 106.299 39.4853C107.807 39.4485 109.357 39.2173 110.723 38.5814C111.207 38.3239 111.732 38.0612 112.069 37.6093C112.137 37.3045 112.379 37.068 112.641 37.0102C112.683 36.9997 112.725 36.9945 112.768 36.9945C112.825 36.9945 112.883 37.005 112.941 37.026L112.925 37.0155Z" fill="#050505"/>
<path d="M110.634 34.424C109.714 35.5275 108.185 35.2805 107.003 35.9006C106.992 35.9058 106.987 35.9111 106.977 35.9163C106.913 35.9636 106.845 36.0109 106.782 36.0582C106.782 36.0582 106.772 36.0635 106.766 36.0688C106.472 36.279 106.167 36.4471 105.836 36.1055C105.358 35.291 105.768 34.7287 106.441 34.3399C107.155 33.93 108.169 33.7093 108.768 33.5989C108.847 33.5779 108.921 33.5674 109 33.5569C109.068 33.5517 109.136 33.5464 109.205 33.5464C109.804 33.5464 110.408 33.8354 110.629 34.424H110.634Z" fill="#050505"/>
<path d="M109.84 31.3811C109.525 31.5808 109.199 31.7543 108.868 31.9119C108.831 31.9277 108.8 31.9487 108.763 31.9644C108.763 31.9644 108.763 31.9644 108.758 31.9644C108.721 31.9802 108.689 31.9959 108.653 32.0117C108.653 32.0117 108.653 32.0117 108.647 32.0117C108.616 32.0275 108.584 32.0433 108.548 32.059C108.537 32.059 108.532 32.0643 108.521 32.0696C108.495 32.0853 108.464 32.0958 108.437 32.1116C108.427 32.1116 108.421 32.1169 108.411 32.1221C108.385 32.1326 108.353 32.1484 108.327 32.1589C108.316 32.1589 108.306 32.1694 108.295 32.1746C108.269 32.1852 108.243 32.1956 108.217 32.2114C108.206 32.2114 108.196 32.2219 108.185 32.2272C108.159 32.2377 108.132 32.2535 108.101 32.264C108.09 32.264 108.08 32.2745 108.069 32.2797C107.476 32.5425 106.882 32.7947 106.319 33.11C105.925 33.2046 105.647 32.7842 105.663 32.4163C105.689 31.9434 106.02 31.6439 106.404 31.418C106.419 31.4075 106.43 31.4022 106.446 31.3917C106.624 31.2918 106.813 31.2025 106.982 31.1184C107.386 30.9135 107.864 30.7979 108.332 30.7926C108.894 30.7926 109.441 30.966 109.835 31.3759L109.84 31.3811Z" fill="#050505"/>
<path d="M110.234 29.2002C109.887 29.3158 109.498 29.4157 109.13 29.4998C109.067 29.5155 109.009 29.526 108.946 29.5365C108.221 29.6521 107.459 29.5471 106.786 29.9044C106.277 30.1198 105.72 30.9921 105.21 30.309C104.527 28.8376 106.923 27.9075 108.058 27.7814C108.126 27.7761 108.195 27.7709 108.263 27.7709C109.13 27.7709 109.966 28.3804 110.228 29.2002H110.234Z" fill="#050505"/>
<path d="M107.171 24.5652C107.171 24.5652 107.198 24.5652 107.208 24.5652C107.208 24.5652 107.219 24.5652 107.224 24.5652C107.534 24.5757 107.839 24.6598 108.086 24.8332C108.133 24.8595 108.175 24.891 108.217 24.9225C108.228 24.933 108.243 24.9435 108.254 24.954C108.548 25.201 108.737 25.5531 108.837 25.9262C108.212 26.231 107.476 26.273 106.793 26.3676C106.53 26.6146 106.147 26.5831 105.915 26.3256C105.4 25.5689 105.784 24.9751 106.415 24.7123C106.646 24.6177 106.903 24.5652 107.166 24.5652C107.166 24.5652 107.171 24.5652 107.177 24.5652H107.171Z" fill="#050505"/>
<path d="M107.628 22.5319C107.643 22.5371 107.659 22.5476 107.675 22.5528C108.038 22.7262 108.342 23.0101 108.521 23.4042C107.953 23.5776 107.349 23.7405 106.745 23.8561C106.734 23.8561 106.729 23.8561 106.719 23.8561C106.682 23.8613 106.645 23.8718 106.608 23.8771C106.587 23.8771 106.566 23.8823 106.545 23.8876C106.529 23.8876 106.514 23.8876 106.503 23.8928C106.477 23.8928 106.456 23.9034 106.43 23.9034C106.388 23.9086 106.351 23.9139 106.309 23.9244C106.335 23.9244 106.366 23.9191 106.398 23.9139C105.573 24.1924 105.347 22.7998 106.067 22.5161C106.204 22.4583 106.345 22.4162 106.493 22.39C106.608 22.3689 106.724 22.3584 106.845 22.3584C107.118 22.3584 107.386 22.4162 107.633 22.5213L107.628 22.5319Z" fill="#050505"/>
<path d="M107.128 20.2681C107.128 20.2681 107.165 20.2839 107.18 20.2944C107.569 20.4836 107.921 20.8094 108.037 21.1562C107.864 21.1878 107.638 21.2666 107.396 21.3401C107.364 21.3506 107.338 21.3612 107.307 21.3664C106.655 21.5661 105.93 21.729 105.825 20.9671C105.825 20.3627 106.135 20.1262 106.534 20.1262C106.718 20.1262 106.923 20.1788 107.123 20.2629L107.128 20.2681Z" fill="#050505"/>
<path d="M108.197 37.6229C107.844 37.9645 107.366 38.511 106.835 38.4164C106.488 38.2798 106.483 37.8331 106.656 37.5599C106.809 37.3497 107.056 37.2604 107.308 37.2604C107.639 37.2604 107.986 37.4075 108.191 37.6177L108.197 37.6229Z" fill="#050505"/>
<path d="M108.049 37.3131C107.881 37.8018 107.46 38.1643 107.171 38.5795C107.171 38.5795 107.171 38.5795 107.166 38.5847C107.166 38.59 107.156 38.6005 107.15 38.6058C107.14 38.6163 107.135 38.6268 107.124 38.6426C107.061 38.7582 106.956 38.8685 106.83 38.9263C106.83 38.9263 106.83 38.9263 106.835 38.9263C106.704 38.9946 106.556 39.0051 106.425 38.9211C105.91 38.5795 106.041 37.8228 106.499 37.497C106.499 37.497 106.509 37.4917 106.514 37.4865C106.546 37.4655 106.572 37.4497 106.609 37.434C106.625 37.4234 106.635 37.4182 106.651 37.4129C106.656 37.4129 106.662 37.4076 106.667 37.4024C106.677 37.4024 106.683 37.3919 106.693 37.3867C106.698 37.3867 106.704 37.3814 106.709 37.3762C106.719 37.3762 106.73 37.3656 106.735 37.3656C106.735 37.3656 106.746 37.3656 106.751 37.3604C106.767 37.3551 106.777 37.3498 106.793 37.3393C106.793 37.3393 106.793 37.3393 106.798 37.3393C106.814 37.3341 106.824 37.3289 106.84 37.3236C106.84 37.3236 106.84 37.3236 106.846 37.3236C107.029 37.2606 107.224 37.229 107.418 37.229C107.628 37.229 107.844 37.2606 108.038 37.3184L108.049 37.3131Z" fill="#050505"/>
<path d="M102.657 8.97997C102.657 8.97997 102.662 8.97997 102.668 8.97997C102.694 8.99574 102.71 9.01675 102.725 9.04303C102.804 9.19542 102.683 9.49498 102.505 9.40565C102.505 9.40565 102.499 9.40564 102.494 9.40039C101.543 10.0678 100.634 10.7877 99.7247 11.5076C100.497 12.8056 101.538 13.9091 102.552 15.0178C103.613 14.1613 104.901 13.6148 106.141 13.063C105.148 13.867 103.908 14.5186 102.857 15.2858C102.946 15.4382 102.83 15.6747 102.673 15.6747C102.631 15.6747 102.589 15.6589 102.541 15.6222C101.422 14.424 100.34 13.1418 99.5093 11.7335C99.5093 11.7335 99.462 11.7335 99.441 11.7335C98.8156 11.7335 100.114 10.7509 100.529 10.4251C100.581 10.383 100.618 10.3567 100.634 10.3357C101.217 9.95736 101.927 9.13761 102.578 8.96945C102.599 8.9642 102.62 8.95899 102.641 8.95374C102.646 8.95374 102.652 8.95368 102.657 8.95893V8.97997Z" fill="#050505"/>
<path d="M102.955 9.25281C103.612 9.94646 104.931 12.164 105.251 12.968C105.251 12.968 105.251 12.9733 105.251 12.9785C105.251 12.9785 105.251 12.989 105.256 12.9943C105.256 12.9943 105.256 12.9996 105.256 13.0048C105.256 13.0048 105.256 13.0153 105.262 13.0206C105.262 13.0206 105.262 13.0258 105.262 13.031V13.0416C105.262 13.0416 105.262 13.0468 105.262 13.0521C105.262 13.0521 105.262 13.0574 105.262 13.0626C105.262 13.0679 105.262 13.0784 105.267 13.0836C105.267 13.0889 105.267 13.0941 105.272 13.1046C105.272 13.1046 105.272 13.1152 105.272 13.1204C105.272 13.1204 105.272 13.1309 105.272 13.1362C105.272 13.1362 105.272 13.1467 105.272 13.152C105.272 13.152 105.272 13.1624 105.272 13.1677C105.272 13.1782 105.272 13.1887 105.272 13.194C105.272 13.194 105.272 13.1992 105.272 13.2045C105.272 13.2045 105.272 13.2045 105.272 13.2098C105.272 13.2098 105.272 13.2098 105.272 13.215C105.272 13.215 105.272 13.215 105.272 13.2203C105.272 13.2203 105.272 13.2202 105.272 13.2255C105.241 13.1887 105.204 13.1519 105.172 13.1151C105.157 13.0994 105.141 13.0784 105.125 13.0626C105.109 13.0468 105.093 13.0258 105.078 13.0101C105.062 12.9943 105.046 12.9733 105.036 12.9575C105.036 12.9575 105.03 12.9523 105.025 12.947C105.015 12.9313 104.999 12.9154 104.988 12.8997C104.988 12.8944 104.978 12.8892 104.978 12.884C104.967 12.8682 104.957 12.8576 104.946 12.8419C104.946 12.8366 104.936 12.8314 104.931 12.8209C104.92 12.8051 104.91 12.7946 104.899 12.7788C104.899 12.7736 104.889 12.7684 104.883 12.7578C104.873 12.7421 104.862 12.7315 104.852 12.7158C104.852 12.7105 104.841 12.7053 104.836 12.6948C104.825 12.679 104.815 12.6685 104.804 12.6527C104.799 12.6422 104.794 12.637 104.789 12.6265C104.778 12.616 104.773 12.6054 104.762 12.5897C104.757 12.5791 104.747 12.5687 104.741 12.5634C104.736 12.5529 104.726 12.5424 104.72 12.5319C104.71 12.5214 104.705 12.5056 104.694 12.4951C104.694 12.4898 104.684 12.4793 104.678 12.4741C104.668 12.4583 104.657 12.4426 104.647 12.4268C104.647 12.4268 104.642 12.4163 104.636 12.411C104.626 12.3952 104.615 12.3795 104.605 12.3637C104.605 12.3585 104.6 12.3532 104.594 12.348C104.584 12.3322 104.573 12.3164 104.563 12.3007C104.563 12.3007 104.557 12.2902 104.552 12.2849C104.542 12.2691 104.531 12.2481 104.515 12.2324C104.515 12.2324 104.515 12.2324 104.515 12.2271C104.268 11.854 104.037 11.4756 103.801 11.092C103.422 10.4719 103.034 9.85185 102.545 9.30009C102.519 9.1004 102.545 9.01111 102.618 9.01111C102.687 9.01111 102.787 9.08988 102.913 9.22125L102.955 9.25281Z" fill="#050505"/>
<path d="M104.707 8.53304C104.859 8.62762 104.975 8.7695 105.075 8.92189C105.153 9.0375 105.222 9.15839 105.295 9.27399C105.69 9.9834 106.094 10.6875 106.494 11.4022C106.977 12.264 107.455 13.1363 107.886 14.0139C107.912 14.1505 107.802 14.3239 107.66 14.3239C107.634 14.3239 107.602 14.3187 107.576 14.3029C107.424 14.2083 107.313 14.0454 107.161 13.9508C106.635 14.1347 106.015 14.3239 105.479 14.3029C106.026 14.0296 106.551 13.6881 107.119 13.4621C106.872 13.0155 106.635 12.553 106.404 12.0906C105.863 11.0028 105.332 9.90457 104.628 8.93767C104.575 8.88512 104.497 8.85884 104.418 8.85884C104.397 8.85884 104.381 8.85884 104.36 8.85884C104.355 8.85884 104.349 8.85884 104.344 8.85884C103.813 8.96919 103.23 9.04279 102.799 9.34757C102.605 9.28451 102.642 9.13211 102.768 9.00599C102.852 8.92717 102.967 8.85882 103.078 8.8378C103.151 8.81678 103.22 8.79576 103.293 8.77474C103.645 8.65913 104.018 8.49622 104.381 8.49622C104.486 8.49622 104.591 8.51203 104.696 8.54356L104.707 8.53304Z" fill="#050505"/>
<path d="M107.433 14.2456C106.551 14.9813 105.4 15.244 104.28 15.2966C103.892 15.3071 103.497 15.3386 103.109 15.3386C103.088 15.3386 103.067 15.3281 103.051 15.3176C103.051 15.3176 103.051 15.3176 103.046 15.3124C103.035 15.3019 103.025 15.286 103.014 15.2703C103.014 15.2703 103.014 15.2703 103.014 15.265C103.009 15.2493 103.004 15.2282 103.004 15.2072C102.998 15.1179 103.046 15.0181 103.14 15.0128C103.193 15.0128 103.25 15.0075 103.303 15.0023C103.408 14.997 103.513 14.9918 103.618 14.9866C104.459 14.9445 105.326 14.9077 106.141 14.7291C106.146 14.7291 106.157 14.7291 106.162 14.7291C106.172 14.7291 106.188 14.7238 106.199 14.7186C106.209 14.7186 106.22 14.7186 106.23 14.7133C106.241 14.7133 106.246 14.7133 106.256 14.708C106.272 14.708 106.283 14.7028 106.298 14.6975C106.304 14.6975 106.309 14.6975 106.314 14.6975C106.33 14.6975 106.346 14.687 106.367 14.687C106.367 14.687 106.372 14.687 106.377 14.687C106.398 14.687 106.414 14.6765 106.435 14.6712C106.456 14.666 106.477 14.6608 106.498 14.6555C106.824 14.5609 107.134 14.44 107.433 14.2771V14.2456Z" fill="#050505"/>
<path d="M111.212 10.5142C111.27 10.5352 111.312 10.5667 111.343 10.6035C111.343 10.6035 111.349 10.6087 111.354 10.614C111.422 10.6981 111.438 10.8189 111.433 10.945C111.433 11.0449 111.412 11.1448 111.391 11.2499C111.364 11.3812 111.343 11.5021 111.343 11.6072C111.343 11.6072 111.343 11.6072 111.343 11.6124C111.343 11.6229 111.343 11.6335 111.343 11.644C111.969 11.933 112.641 12.1064 113.324 12.2325C113.708 12.3061 114.097 12.3586 114.486 12.4112C114.565 12.3008 114.659 12.285 114.738 12.3166C114.917 12.3901 115.016 12.7107 114.712 12.779C114.538 14.5499 114.249 16.2998 113.755 18.0129C113.755 17.9919 113.755 17.9656 113.755 17.9446C113.755 17.9288 113.755 17.9077 113.755 17.892C113.75 17.7028 113.745 17.5084 113.755 17.3192C113.792 15.8531 114.176 14.3502 114.375 12.8946C114.375 12.8631 114.386 12.8316 114.386 12.8053C113.345 12.7265 112.273 12.6161 111.285 12.2535C111.144 13.8247 110.891 15.396 110.823 16.9619C110.823 17.0513 110.818 17.1406 110.813 17.2299C110.96 17.4611 110.623 17.8132 110.455 17.5242C110.266 15.2961 110.781 12.9944 110.928 10.7559C110.954 10.635 111.059 10.5194 111.186 10.5194C111.196 10.5194 111.207 10.5194 111.217 10.5194L111.212 10.5142Z" fill="#050505"/>
<path d="M113.377 10.3769C113.781 10.4032 114.186 10.4504 114.57 10.4767C114.575 10.4767 114.585 10.4767 114.591 10.4767C114.591 10.4767 114.591 10.4767 114.596 10.4767C114.601 10.4767 114.612 10.4767 114.617 10.4767C114.617 10.4767 114.622 10.4767 114.628 10.4767C114.633 10.4767 114.643 10.4767 114.649 10.4767C114.659 10.4767 114.664 10.4767 114.675 10.4767C114.79 10.4925 114.906 10.524 115.001 10.5713C115.153 10.6501 115.248 10.7867 115.174 11.0127C115.153 11.1546 115.022 11.2544 115.001 11.391C115.011 11.6748 115.064 11.9481 115.116 12.2161C115.164 12.4315 115.211 12.647 115.242 12.873C115.258 13.0043 115.242 13.3091 115.064 13.3091C115.064 13.3091 115.058 13.3091 115.053 13.3091C114.89 13.2355 114.843 13.0674 114.817 12.8992C114.806 12.8361 114.801 12.7678 114.79 12.71C114.78 12.5787 114.754 12.4473 114.727 12.3107C114.643 11.8587 114.538 11.3858 114.806 10.9969C114.596 10.9707 114.381 10.9444 114.165 10.9234C113.309 10.8341 112.436 10.792 111.585 10.8866C111.543 10.9286 111.496 10.9391 111.448 10.9391C111.448 10.9391 111.443 10.9391 111.438 10.9391C111.438 10.9391 111.432 10.9391 111.427 10.9391C111.427 10.9391 111.427 10.9391 111.422 10.9391C111.291 10.9129 111.196 10.7447 111.322 10.6133C111.322 10.6133 111.333 10.6133 111.338 10.6081C111.795 10.4084 112.3 10.3506 112.809 10.3506C112.993 10.3506 113.177 10.3559 113.361 10.3716L113.377 10.3769Z" fill="#050505"/>
<path d="M115.258 10.6558C115.374 11.0026 115.563 11.3704 115.7 11.7067C115.889 12.2585 117.208 15.5007 116.083 15.3956C116.073 15.3956 116.068 15.3956 116.057 15.3956C116.052 15.3956 116.047 15.3956 116.036 15.3956C115.905 15.5007 115.779 15.6111 115.653 15.7267C114.98 16.352 114.412 17.1087 113.897 17.8444C113.84 17.897 113.761 17.9128 113.698 17.8865C113.682 17.8812 113.671 17.8707 113.661 17.8602C112.789 17.7761 111.9 17.8391 111.033 17.7025C110.913 17.7025 110.813 17.6552 110.744 17.5764C110.645 17.466 110.608 17.3032 110.671 17.1455C110.702 17.0615 110.755 16.9984 110.818 16.9616C110.818 16.9616 110.849 16.9458 110.865 16.9406C110.871 16.9406 110.876 16.9406 110.886 16.9353C110.886 16.9353 110.897 16.9353 110.902 16.9353C110.902 16.9353 110.907 16.9353 110.913 16.9353C111.007 16.9143 111.117 16.9196 111.217 16.9564C111.548 17.0089 111.879 17.0562 112.205 17.1034C112.71 17.1823 113.214 17.2611 113.713 17.3715C113.724 17.3557 113.734 17.3452 113.745 17.3294C113.845 17.2033 113.945 17.0719 114.039 16.9353C114.617 16.1418 115.169 15.2433 116.02 14.7913C116.02 14.7913 116.031 14.7913 116.031 14.7861C115.952 14.2553 115.836 13.7299 115.689 13.2096C115.532 12.6526 115.332 12.1008 115.106 11.5701C115.085 11.5175 115.059 11.4597 115.027 11.4019C114.885 11.1181 114.691 10.7661 115.001 10.5927C115.011 10.5874 115.027 10.5769 115.043 10.5717C115.059 10.5717 115.069 10.5717 115.085 10.5717C115.153 10.5717 115.216 10.6084 115.258 10.6662V10.6558Z" fill="#050505"/>
<path d="M102.346 65.5959C102.346 66.1477 102.32 66.7047 102.309 67.2565C102.283 68.2707 102.178 69.2744 102.094 70.2833C101.968 71.3553 101.821 72.422 101.652 73.494C101.495 74.5187 101.258 75.5329 101.038 76.5471C100.88 77.1672 100.68 77.9397 100.465 78.7122C100.249 79.4584 100.013 80.194 99.7765 80.935C99.6293 81.3501 99.4296 81.9123 99.2247 82.4799C99.0355 83.0106 98.8096 83.5309 98.6046 84.0563C98.2105 85.0548 97.7323 86.0269 97.2698 87.0043C96.8652 87.7873 96.4553 88.5651 96.0244 89.3375C95.604 90.0837 95.1573 90.8141 94.7107 91.5498C94.4006 92.028 94.1011 92.5115 93.77 92.9791C93.4022 93.4836 93.0606 94.0144 92.677 94.5083C92.3091 94.9865 91.9518 95.4857 91.5629 95.9587C91.2108 96.3896 90.8483 96.8257 90.4909 97.2566C89.8866 97.9398 89.2718 98.6176 88.6412 99.2745C88.0053 99.9419 87.3484 100.583 86.6863 101.229C85.7719 102.054 84.8628 102.89 83.8854 103.652C83.3809 104.046 82.8817 104.461 82.3562 104.834C81.7939 105.234 81.2316 105.638 80.6694 106.032C80.1123 106.4 79.5553 106.757 78.9983 107.12C78.5674 107.404 78.1207 107.656 77.674 107.919C77.2116 108.187 76.7596 108.46 76.2867 108.707C75.6981 109.012 75.1043 109.322 74.5158 109.632C73.8642 109.937 73.2073 110.241 72.5557 110.546C72.2246 110.704 71.883 110.825 71.5467 110.967C71.2156 111.103 70.8898 111.256 70.5483 111.382C69.8704 111.624 69.203 111.897 68.5198 112.123C67.8209 112.343 67.1115 112.569 66.4073 112.795C65.7347 112.974 65.0568 113.184 64.3789 113.337C63.6853 113.494 62.9863 113.647 62.2874 113.804C61.6095 113.957 60.9106 114.051 60.2275 114.177C59.5706 114.298 58.9032 114.361 58.2411 114.456C56.7855 114.598 55.3298 114.745 53.8637 114.776C53.3119 114.787 52.7601 114.797 52.2136 114.797C51.8931 114.797 51.5778 114.797 51.2572 114.792C50.5373 114.782 49.8226 114.74 49.1027 114.703C48.3302 114.635 47.563 114.582 46.7957 114.487C45.9024 114.377 45.0196 114.251 44.1315 114.109C42.4656 113.841 40.8313 113.468 39.197 113.053C38.7346 112.916 38.1198 112.764 37.526 112.564C36.9427 112.37 36.3488 112.196 35.7708 111.981C35.1717 111.755 34.5621 111.55 33.9683 111.303C33.3482 111.051 32.7387 110.793 32.1186 110.541C31.5143 110.257 30.8942 109.995 30.3004 109.69C29.9535 109.516 29.6014 109.332 29.2546 109.154C28.9656 109.001 28.6661 108.865 28.3875 108.702C27.7675 108.344 27.1211 108.019 26.5168 107.63C25.9072 107.246 25.2766 106.889 24.688 106.484C24.1993 106.143 23.574 105.743 22.9802 105.297C22.3758 104.845 21.7715 104.388 21.1724 103.93C20.9097 103.731 20.6575 103.505 20.4052 103.294C20.1215 103.058 19.8272 102.837 19.5592 102.59C19.0599 102.138 18.5555 101.692 18.0562 101.24C17.578 100.777 17.0893 100.331 16.6321 99.8526C16.1434 99.3323 15.6284 98.8278 15.166 98.2918C14.6825 97.7401 14.1833 97.1988 13.7261 96.6208C13.2532 96.0218 12.7802 95.4227 12.3073 94.8236C11.9394 94.3139 11.5716 93.8095 11.209 93.2945C10.92 92.8899 10.652 92.4694 10.3787 92.049C10.1055 91.6234 9.82694 91.2083 9.56945 90.7721C9.26466 90.2571 8.96512 89.7421 8.65508 89.2324C8.36606 88.6806 8.07178 88.1341 7.78275 87.5824C7.54628 87.1409 7.34134 86.6838 7.12588 86.2266C6.66344 85.2545 6.25355 84.2613 5.82264 83.2681C5.47056 82.3275 5.11848 81.3921 4.80843 80.4357C4.50364 79.5056 4.23564 78.565 3.96764 77.6244C3.83101 77.0621 3.69438 76.4946 3.55775 75.927C3.44739 75.4594 3.36331 74.9812 3.26872 74.5082C3.06903 73.5203 2.92189 72.5271 2.76424 71.5234C2.65389 70.5723 2.54879 69.6159 2.47522 68.6543C2.40691 67.7189 2.37012 66.7888 2.33859 65.8534C2.33859 64.9443 2.33859 64.0405 2.37538 63.1261C2.40691 62.2381 2.46997 61.3605 2.53303 60.4724C2.57507 60.0573 2.61711 59.5265 2.69068 58.9958C2.76425 58.4493 2.84307 57.9132 2.91664 57.372C3.05852 56.3578 3.27923 55.3541 3.48418 54.3557C3.59453 53.8617 3.70489 53.3625 3.83626 52.8738C3.9834 52.3273 4.13054 51.7808 4.27768 51.2343C4.54043 50.2464 4.88726 49.2847 5.21832 48.3178C5.53362 47.4718 5.83841 46.6153 6.20626 45.785C6.57936 44.9232 6.96823 44.0719 7.36761 43.2259C7.7775 42.4219 8.19264 41.6231 8.62355 40.8296C9.05446 40.0309 9.54317 39.2584 10.0214 38.4859C10.5574 37.6662 11.1827 36.7098 11.8606 35.7902C12.5333 34.8811 13.2322 33.9983 13.9468 33.1155C14.2464 32.7634 14.5564 32.4218 14.8612 32.075C12.5595 36.2579 11.8028 41.3919 12.2495 46.095C12.281 46.4051 12.3125 46.7151 12.3441 47.0304C12.302 47.125 12.26 47.2248 12.218 47.3194C10.3472 51.7282 9.29619 56.4787 8.97038 61.2554C8.80748 63.6411 8.87579 66.0531 9.12278 68.4283C9.36451 70.8298 9.80067 73.2366 10.4681 75.5592C11.1459 77.9134 11.9762 80.2045 13.022 82.4221C14.0519 84.6081 15.2606 86.7311 16.6584 88.6965C17.5413 89.9261 18.4609 91.1294 19.4488 92.2697C19.3542 92.6271 19.3647 93.0212 19.5276 93.4206C20.2791 94.8552 21.7242 95.5856 23.2639 96.1216C24.3359 97.0779 25.45 97.9818 26.6166 98.8173C26.6902 98.8751 26.8216 98.9645 26.9529 99.0591C28.8027 100.383 30.8574 101.602 33.0014 102.674C37.1108 104.724 41.5197 106.116 46.06 106.763C46.2282 106.789 46.3964 106.81 46.5645 106.836C48.5299 107.094 50.5215 107.22 52.5079 107.194C53.4223 108.355 54.5363 109.301 56.0971 109.742C56.2862 109.795 56.4754 109.837 56.6646 109.858C59.2658 110.231 61.8565 108.402 62.9601 106.09C63.0231 105.954 63.0914 105.817 63.1545 105.675C64.7573 105.234 66.3338 104.708 67.8735 104.072C70.0963 103.142 72.2351 102.044 74.2793 100.767C78.3834 98.213 82.0672 94.9287 85.0888 91.1557C86.5917 89.2797 87.9633 87.3091 89.1562 85.2229C90.3806 83.0684 91.3948 80.8194 92.2461 78.4967C92.6928 77.2776 93.1184 75.8535 93.4968 74.4136C94.1274 72.0016 94.5162 69.5318 94.7369 67.0515C94.842 65.8692 94.8841 64.6816 94.8736 63.494C94.8631 62.2748 94.8263 61.0557 94.7159 59.8418C94.6003 58.6174 94.4689 57.3878 94.2535 56.1739C94.038 54.9495 93.7805 53.7356 93.4757 52.5323C92.8872 50.1991 92.0674 47.9343 91.1057 45.7377C90.617 44.6132 90.0495 43.5254 89.4557 42.4534C88.8566 41.3919 88.226 40.3409 87.5324 39.332C86.1293 37.2721 84.5686 35.3277 82.8449 33.5253C81.8307 32.4638 80.7587 31.4497 79.6394 30.4933C79.55 30.0203 79.4344 29.5474 79.2768 29.0955C79.2768 29.0744 79.2873 29.0587 79.2873 29.0429C79.3871 28.6593 79.261 28.1075 78.8406 27.9919C78.3939 27.2773 77.611 27.3403 76.9699 27.7449C76.7912 27.829 76.6125 27.9236 76.4286 28.0077C74.7785 26.8463 73.0391 25.8059 71.2314 24.9073C66.8593 22.7318 62.1508 21.2551 57.2899 20.6824C55.2931 20.4406 53.2856 20.3356 51.2782 20.3671C49.3812 19.2688 47.0637 18.9588 44.6254 19.5211C42.0978 20.1516 39.5176 21.108 37.6311 22.9735C37.5154 23.0838 37.3893 23.2205 37.2632 23.3676C36.5801 23.6146 35.9022 23.8721 35.2295 24.1558C33.7424 23.6882 32.1396 23.5095 30.5473 23.6567C27.9461 23.6356 25.2924 23.8773 22.8751 24.8127C23.3795 24.4396 23.8893 24.077 24.4043 23.725C25.4763 23.0208 26.5641 22.3429 27.6781 21.7018C28.7186 21.1027 29.7959 20.5562 30.8731 20.0255C32.1974 19.4107 33.5374 18.8432 34.8985 18.3177C36.1702 17.829 37.4681 17.4244 38.7714 17.0302C39.4072 16.8621 40.0378 16.6886 40.6737 16.531C41.3726 16.3628 42.0768 16.2157 42.7809 16.0633C44.0789 15.7795 45.4032 15.6114 46.7222 15.4327C48.2776 15.2646 49.8436 15.1227 51.4096 15.0964C52.9703 15.0649 54.5206 15.0964 56.076 15.191C56.8538 15.2488 57.6368 15.3224 58.4145 15.4064C58.7666 15.4485 59.1187 15.501 59.4708 15.5588C59.8491 15.6114 60.2275 15.6692 60.6111 15.7165C61.0367 15.7638 61.4624 15.79 61.8986 15.8058C62.0142 16.0843 62.2349 16.3051 62.5554 16.3681C62.6553 16.3891 62.7551 16.4154 62.8602 16.4364C62.8707 16.4364 62.8812 16.4417 62.8865 16.4417C62.8865 16.4417 62.918 16.4417 62.9338 16.4417C63.3805 16.5363 63.8271 16.6519 64.2738 16.7675C64.4788 16.82 64.4945 16.8253 64.5155 16.8306C65.9817 17.2142 67.4321 17.6608 68.8562 18.1758C70.2855 18.6855 71.6728 19.2741 73.0601 19.8994C74.4002 20.5405 75.7244 21.2131 77.0224 21.9541C78.2888 22.674 79.5133 23.4674 80.7219 24.282C81.8255 25.0597 82.8975 25.8637 83.9485 26.7097C84.9417 27.5137 85.8823 28.3703 86.8124 29.2426C87.7058 30.1149 88.7147 31.1028 89.6396 32.159C90.1388 32.7318 90.6275 33.3046 91.111 33.8879C91.5051 34.3714 91.8835 34.8653 92.2671 35.354C92.8662 36.1686 93.4757 36.9778 94.0223 37.8238C94.5478 38.6331 95.0627 39.4476 95.562 40.2726C96.0665 41.1659 96.5867 42.0645 97.0334 42.9894C97.2856 43.5096 97.5536 44.0194 97.7901 44.5501C98.0161 45.0651 98.242 45.5695 98.468 46.0792C98.5258 46.2316 98.5994 46.4051 98.6677 46.5732C98.7833 46.8675 98.9094 47.1828 99.0355 47.4981C99.3456 48.3231 99.6398 49.1534 99.9131 49.9889C100.171 50.7666 100.402 51.5601 100.623 52.3483C100.77 52.9264 100.917 53.5044 101.064 54.0824C101.206 54.6447 101.306 55.2228 101.432 55.7851C101.653 56.8308 101.794 57.887 101.947 58.9432C102.047 59.8313 102.136 60.7141 102.204 61.5969C102.267 62.4009 102.299 63.2049 102.33 64.0089C102.336 64.5344 102.341 65.0599 102.346 65.5854V65.5959Z" fill="white"/>
</svg>
