<svg width="167" height="143" viewBox="0 0 167 143" fill="none" xmlns="http://www.w3.org/2000/svg">
<path d="M112.584 22.5515C108.296 22.1836 103.956 21.4164 99.9882 19.698C99.9514 19.698 99.9198 19.7033 99.8831 19.7033C99.9041 19.6403 99.9199 19.5719 99.9409 19.5089C100.035 19.1883 100.141 18.873 100.24 18.5525C100.288 18.4106 100.335 18.2687 100.382 18.1216C100.955 18.2845 101.502 18.6156 102.074 18.7574C103.593 19.2461 105.154 19.6035 106.725 19.8662C110.645 20.6071 114.66 20.4968 118.58 21.2482C116.93 22.1101 114.986 22.562 113.099 22.562C112.926 22.562 112.758 22.562 112.584 22.5515Z" fill="#050505"/>
<path d="M101.435 24.0587C101.409 23.654 101.367 23.2547 101.314 22.8553C101.23 22.7292 101.172 22.5873 101.146 22.4402C101.146 22.293 101.146 22.1406 101.146 21.9935C101.167 21.8884 101.204 21.7886 101.251 21.694C101.593 21.0581 102.334 21.1475 102.649 21.7675C103.321 23.7854 103.101 26.0188 103.306 28.1207C103.558 30.3068 103.085 32.4718 102.896 34.6158C101.004 31.4838 101.792 27.5427 101.43 24.0534L101.435 24.0587Z" fill="#050505"/>
<path d="M105.832 23.9751C105.159 23.2394 106.216 21.4843 106.967 22.6719C107.293 23.2709 107.277 23.9803 107.314 24.6477C107.398 26.056 107.461 27.4643 107.503 28.8726C107.566 30.1285 107.624 31.3897 107.493 32.6456C107.445 33.6493 107.03 34.6425 107.256 35.5831C105.259 33.6913 106.147 26.839 105.837 23.9751H105.832Z" fill="#050505"/>
<path d="M111.136 36.2244C110.442 35.2154 110.421 33.9069 110.205 32.7351C109.927 30.7172 109.837 28.6836 109.811 26.6499C109.8 25.6305 109.748 24.6005 109.811 23.5811C109.837 23.2343 109.927 22.8979 110.195 22.6562C110.458 22.4198 110.841 22.5354 111.031 22.8034C111.204 23.0504 111.236 23.4077 111.12 23.6914C111.078 25.2837 111.199 26.8812 111.236 28.4734C111.451 31.1219 110.81 33.6705 111.141 36.2296L111.136 36.2244Z" fill="#050505"/>
<path d="M114.908 34.5011C114.24 33.6551 114.125 32.5305 113.893 31.5111C113.583 29.8242 113.415 28.1164 113.321 26.4086C113.247 25.5363 113.205 24.6587 113.068 23.7916C112.921 23.5184 112.958 23.1821 113.116 22.9193C113.631 22.2362 114.193 22.9771 114.251 23.5814C114.482 25.1159 114.608 26.6661 114.713 28.2163C114.929 30.2972 114.477 32.4937 114.913 34.5063L114.908 34.5011Z" fill="#050505"/>
<path d="M100.078 23.1127C99.7313 22.5767 99.5106 22.0617 99.4003 21.5625C99.4108 21.4679 99.4213 21.3681 99.4318 21.2735C99.5212 20.9687 99.6105 20.6692 99.6998 20.3697C99.7786 20.0807 99.8575 19.7916 99.9468 19.5079C100.041 19.1873 100.146 18.872 100.246 18.5515C100.315 18.336 100.388 18.1258 100.467 17.9156C100.541 17.8263 100.614 17.737 100.693 17.6529C100.73 17.6319 100.761 17.6003 100.777 17.5583C102.464 15.7086 105.244 14.2582 107.052 13.2493C110.026 11.6623 112.953 9.98074 115.775 8.13102C116.994 7.32176 117.877 6.12365 118.949 5.14624C120.01 6.49675 119.243 8.40428 118.008 9.36067C114.929 11.7044 111.387 13.449 107.95 15.2251C106.074 16.2866 101.875 17.9314 100.935 20.2856C100.83 20.2856 100.73 20.3592 100.693 20.459C100.646 20.5851 100.63 20.727 100.614 20.8636C100.604 20.9687 100.588 21.0686 100.577 21.1684C100.562 21.3786 100.541 21.5888 100.525 21.799C100.493 22.2772 100.451 22.7501 100.425 23.2336C100.32 23.2336 100.204 23.1968 100.083 23.1075L100.078 23.1127Z" fill="#050505"/>
<path d="M99.5581 33.7591C98.9008 30.7743 98.8956 27.7055 99.0533 24.6629C99.0849 24.4369 99.0849 24.1006 99.1007 23.7433C99.1638 23.3859 99.2163 23.0339 99.2637 22.6765C99.3846 22.3507 99.5896 22.1195 99.963 22.1195C100.263 22.1721 100.399 22.4453 100.457 22.7081C100.436 22.9813 100.42 23.2546 100.41 23.5278C100.41 23.5961 100.41 23.6592 100.405 23.7275C100.384 23.7433 100.363 23.7643 100.336 23.7748C100.252 27.1169 100.236 30.4748 99.5581 33.7591Z" fill="#050505"/>
<path d="M83.3569 102.414C82.9418 99.9077 83.7248 97.3327 83.9244 94.8209C83.9928 93.8592 84.7074 92.451 84.9649 94.2797C84.8598 96.9281 84.266 99.5556 83.8456 102.162C84.2292 102.194 84.6234 101.747 84.9387 101.61C84.7022 101.962 84.2345 102.724 83.7931 102.724C83.6407 102.724 83.4935 102.635 83.3622 102.414H83.3569Z" fill="#050505"/>
<path d="M104.603 96.9662C103.966 96.5615 104.655 95.2058 105.218 96.0203C105.68 97.0975 105.581 98.3955 105.581 99.52C105.191 98.6898 104.85 97.8437 104.603 96.9609V96.9662Z" fill="#050505"/>
<path d="M109.522 102.156C109.359 100.979 107.587 94.5996 109.343 94.5786C109.895 94.5786 110.116 95.1935 110.084 95.6506C109.932 97.8629 109.748 99.9754 109.522 102.156Z" fill="#050505"/>
<path d="M114.487 97.9589C115.17 98.4371 115.223 99.4303 115.885 99.8927C116.657 100.103 117.157 99.1781 117.593 98.6841C117.898 98.3005 118.213 97.9274 118.533 97.5543C118.691 97.3599 118.917 97.0813 119.201 97.1549C120.073 97.4019 119.868 98.7892 120.026 99.5091C119.753 99.0834 119.5 98.5475 119.227 98.0903C117.74 100.923 115.806 103.109 113.951 99.0992C113.531 98.9888 113.294 99.6194 113.079 99.8979C112.758 100.486 112.343 101.107 111.754 101.417C111.392 100.113 112.869 96.9657 114.482 97.9589H114.487Z" fill="#050505"/>
<path d="M130.489 102.824C129.843 102.667 129.733 101.91 129.591 101.369C129.459 100.896 129.333 100.418 129.149 99.9657C128.482 100.833 127.909 101.968 126.79 102.294C125.087 102.672 124.577 100.544 124.619 99.2458C124.53 99.3771 124.446 99.5663 124.351 99.6662C124.325 98.673 124.299 97.5905 124.667 96.6603C124.924 96.2084 125.581 96.3766 125.607 96.8916C125.712 98.1265 125.581 99.209 125.907 100.355C125.965 100.57 126.107 100.764 126.306 100.854C126.312 100.854 126.322 100.854 126.327 100.854C126.343 100.854 126.364 100.864 126.38 100.87C126.364 100.864 126.348 100.859 126.348 100.854H126.333C126.333 100.854 126.312 100.843 126.296 100.843C127.284 100.87 127.783 99.6346 128.329 98.9883C128.508 98.673 128.808 98.3367 129.207 98.3577C130.29 98.5206 130.479 100.281 130.82 101.143C131.209 100.764 132.108 100.502 132.202 101.269C132.255 101.568 132.187 101.878 132.013 102.131C131.966 102.12 131.919 102.089 131.871 102.062C131.624 102.451 131.188 102.851 130.71 102.851C130.642 102.851 130.568 102.84 130.495 102.824H130.489Z" fill="#050505"/>
<path d="M86.374 121.396C85.4859 121.348 84.6346 121.065 83.7728 120.891C83.4838 120.849 83.0266 120.865 82.5116 120.876C81.1663 120.912 79.4217 120.944 79.243 120.014C79.1747 119.525 79.6161 119.099 80.0575 119.441C80.7932 119.614 81.5342 119.562 82.2751 119.514C83.0529 119.462 83.8254 119.409 84.5873 119.62C85.7487 119.951 87.0151 119.993 88.1922 120.072C89.8423 120.177 91.4293 120.676 92.9217 121.369C91.6816 121.459 90.4046 121.532 89.1276 121.532C88.208 121.532 87.2831 121.496 86.3793 121.401L86.374 121.396Z" fill="#050505"/>
<path d="M86.3414 125.542C84.6282 125.495 82.9571 124.975 81.2545 125.154C80.8867 125.253 80.6134 124.833 80.5766 124.523C80.5346 123.383 81.801 123.53 82.8415 123.677C83.2146 123.729 83.5562 123.782 83.8032 123.777C85.2693 123.95 86.6829 123.997 88.1385 124.145C89.673 124.355 91.0761 124.791 92.5212 125.253C91.2705 125.532 89.962 125.653 88.6535 125.653C87.8758 125.653 87.1033 125.611 86.3361 125.537L86.3414 125.542Z" fill="#050505"/>
<path d="M121.764 125.489C121.149 125.426 120.309 125.463 119.972 124.838C119.62 124.286 120.298 123.387 120.818 124.023C121.875 124.275 122.894 124.139 123.961 124.123C125.516 124.007 127.067 124.212 128.585 124.554C126.804 125.31 124.802 125.51 122.847 125.51C122.484 125.51 122.127 125.505 121.77 125.494L121.764 125.489Z" fill="#050505"/>
<path d="M125.865 121.196C125.67 121.159 125.423 121.159 125.161 121.159C124.409 121.159 123.542 121.159 123.505 120.36C123.505 120.118 123.632 119.787 123.889 119.714C126.443 119.761 128.976 120.187 131.467 120.754C129.811 121.049 128.051 121.201 126.333 121.201C126.175 121.201 126.017 121.201 125.865 121.201V121.196Z" fill="#050505"/>
<path d="M126.499 130.897C121.039 130.718 115.464 130.429 110.093 129.835C104.544 129.441 98.9631 129.31 93.4453 128.511C88.7947 127.917 84.0967 127.675 79.4934 126.766C79.3042 127.019 79.0782 126.987 78.8575 126.877C78.4686 127.076 77.9326 126.824 77.9169 126.12C77.9221 125.794 78.043 125.568 78.2059 125.437C78.3478 125.142 78.6315 124.932 79.0152 124.99C85.6574 125.936 92.3681 126.367 99.0314 127.113C98.7161 125.726 98.2799 121.68 99.7093 121.343C99.6725 121.086 99.7303 120.807 99.8827 120.613C99.909 120.55 99.8564 120.481 99.8459 120.418C99.7145 119 99.21 117.502 98.3325 116.32C97.3918 115.71 96.488 115.048 95.6261 114.338C95.4265 114.281 95.2846 114.144 95.1952 113.971C94.5016 113.372 93.8447 112.736 93.2246 112.058C90.1084 108.7 89.4042 104.118 88.8735 99.7141C88.7001 100.24 88.4794 100.744 88.0642 101.096C86.8503 101.748 86.7242 99.8612 86.6717 99.0678C86.4825 97.1497 86.3353 95.2316 86.1829 93.3084C86.0358 92.8144 86.5403 91.9946 87.0132 92.5832C87.339 93.0929 87.1972 93.7761 87.3023 94.3489C87.4389 96.0252 87.6018 97.6962 87.791 99.3673C88.4531 98.1639 88.5792 94.8533 90.6024 95.6047C91.6376 96.0882 92.1053 97.26 92.9934 97.9116C93.3455 97.1076 93.356 96.2511 93.4979 95.3999C93.5136 94.8639 94.2021 94.1229 94.6487 94.7167C95.5105 95.9674 95.6892 97.5491 96.3303 98.9101C97.2184 100.686 98.2641 97.9747 98.5532 97.1917C98.7266 96.5349 99.3362 96.0619 99.93 96.6032C100.403 97.1549 100.498 97.938 100.755 98.6001C101.118 99.7351 101.443 100.833 101.722 101.958C100.802 100.776 99.9878 99.4881 99.394 98.1113C98.8947 99.7614 97.1869 102.268 95.5841 100.119C94.9956 99.1413 94.7696 98.0063 94.4017 96.9448C94.3387 97.9642 93.913 99.9348 92.5047 99.2937C91.4642 98.7051 91.1489 97.2653 90.0559 96.7766C89.9455 96.8344 89.8509 96.9132 89.7773 97.0131C89.9245 97.0972 90.0506 97.2496 90.1399 97.4808C90.2556 97.8434 90.3817 98.2007 90.4973 98.5632C90.8704 98.784 91.1647 99.2412 91.2277 99.7088C91.7848 102.021 92.7937 104.154 94.0707 106.151C94.7118 107.192 95.3214 108.29 95.9677 109.362C97.2184 110.807 98.4901 112.268 100.093 113.23C99.6042 112.562 99.3256 111.727 99.3362 110.891C97.7964 110.439 96.5878 108.395 98.096 107.197C99.2731 106.451 100.671 107.286 101.838 107.665C103.03 107.991 104.202 108.679 105.022 109.62C106.141 108.9 106.93 107.775 107.897 106.908C108.527 106.729 108.769 107.57 108.706 108.054C108.527 109.635 107.061 110.797 105.758 111.522C105.789 111.637 105.821 111.758 105.837 111.879C106.599 112.321 106.267 112.573 105.737 113.004C105.448 113.824 104.744 114.338 103.945 114.564C104.087 114.717 104.218 114.895 104.323 115.053C104.612 114.486 105.364 114.596 105.579 115.158C105.731 115.006 105.915 114.901 106.126 114.859C108.68 112.436 111.318 110.103 113.935 107.738C114.334 107.381 114.733 107.024 115.127 106.661C115.39 106.283 115.663 105.904 115.926 105.526C116.121 105.247 116.404 105.027 116.741 104.964C116.788 104.958 116.841 104.953 116.883 104.953C118.007 103.781 119.011 102.515 119.726 101.033C120.093 100.387 120.356 99.6353 120.971 99.1728C121.912 98.5948 122.385 100.103 122.059 100.797C120.551 104.144 118.196 109.031 115.138 112.909C113.335 115.805 111.212 118.017 107.103 119.767C107.261 120.255 107.466 120.897 107.555 121.501C107.644 121.511 107.739 121.527 107.833 121.548C107.96 121.354 108.154 121.222 108.433 121.201C108.811 121.191 109.074 121.469 109.189 121.8C111.291 121.716 113.409 121.228 115.469 120.797C117.35 119.378 118.717 117.381 119.678 115.274C119.831 114.895 120.004 114.512 120.02 114.097C119.831 113.503 120.535 112.725 121.055 113.293C121.517 114.26 122.18 115.195 122.264 116.304C122.201 119.798 118.522 122.105 115.432 122.773C113.624 124.039 111.449 124.491 109.31 124.181C109.468 125.421 109.688 126.892 109.536 127.823C115.579 128.311 121.612 128.847 127.676 129.042C128.013 129.057 128.354 129.078 128.691 129.084C129.09 129.094 129.326 129.394 129.405 129.751C129.967 129.688 130.53 129.593 131.087 129.494C131.066 129.446 131.045 129.394 131.029 129.341C130.814 126.672 131.223 123.918 131.355 121.228C131.392 120.786 131.423 120.34 131.46 119.893C131.612 117.964 131.754 116.031 131.891 114.097C129.547 114.275 127.151 114.522 124.833 114.375C124.381 114.128 124.56 113.393 125.07 113.351C126.515 113.298 127.971 113.393 129.416 113.519C130.246 113.592 131.082 113.687 131.917 113.797C132.164 110.292 132.401 106.787 132.658 103.293C132.831 100.224 132.868 97.1497 132.884 94.0756C132.837 94.0598 132.789 94.0336 132.753 94.0073C121.144 93.5186 109.52 92.7882 97.9594 91.7109C97.9436 91.7109 97.9278 91.7109 97.9121 91.7109C93.6923 91.3746 89.6512 90.807 85.4577 90.6967C84.9848 91.3798 84.165 90.6389 84.3595 89.9768C84.4646 88.868 85.8519 89.1255 86.6454 89.1307C88.4846 89.2411 90.2345 89.4145 92.037 89.5721C96.0518 89.9557 100.009 90.2816 104.013 90.6547C111.044 91.2275 118.086 91.6216 125.133 92.0209C127.482 92.1418 129.841 92.2521 132.196 92.3467C132.427 92.3572 132.663 92.3678 132.894 92.373C132.894 92.1786 132.894 91.9842 132.894 91.7897C132.842 91.3273 132.921 90.9122 133.168 90.5233C134.198 87.8853 135.06 84.9584 135.906 82.3309C137.098 78.4266 138.291 74.4591 138.528 70.3603C138.533 70.2762 138.538 70.1763 138.538 70.0712C130.808 69.4459 123.052 69.2095 115.306 68.9835C114.129 69.2568 112.936 69.4354 111.743 69.5195C111.465 69.5195 111.181 69.4985 110.934 69.3618C110.902 69.3408 110.871 69.3198 110.839 69.2935C110.824 69.3618 110.808 69.4354 110.792 69.5037C110.041 72.9404 107.418 78.8417 103.03 76.7923C101.916 76.2405 101.228 75.1054 100.76 73.9966C100.245 72.8826 99.9142 71.7213 99.662 70.5232C99.436 69.4512 99.3362 68.3267 99.3992 67.2179C95.9152 66.9709 92.4154 66.9183 88.9208 66.8185C87.339 66.7134 85.7153 66.7975 84.123 66.6871C83.7289 70.2079 84.4015 88.1533 81.774 88.7944C79.9926 96.9027 79.7193 105.274 79.3199 113.545C79.0677 117.628 79.5354 121.884 77.8958 125.731C77.8958 125.731 77.8958 125.731 77.8906 125.731C77.2179 123.682 76.9237 121.517 77.0761 119.362C77.2074 116.078 77.3388 112.799 77.549 109.52C77.796 106.477 79.0309 87.2547 81.3694 86.7608C82.5307 80.6704 82.2417 74.4276 82.5412 68.2583C82.5938 67.7276 82.6516 67.1968 82.7146 66.6608C82.7567 66.3613 82.7987 66.0565 82.8408 65.7517C82.8776 65.4995 82.9091 65.2472 82.9459 64.995C85.4367 65.1159 87.9329 65.0896 90.429 65.0633C93.0407 65.037 95.6472 65.016 98.2484 65.1527C97.1869 63.366 96.283 61.3534 95.2373 59.6613C94.8379 58.9309 94.0602 58.2267 94.449 57.3281C96.1779 50.1605 98.0172 42.956 98.653 35.5939C97.6283 34.874 96.8295 33.8966 96.4407 32.5618C96.1989 31.122 96.3618 29.6349 96.3251 28.174C96.3303 24.7058 96.4144 21.2323 96.2883 17.7641C96.2778 17.7536 96.2673 17.743 96.2567 17.7378C94.1075 16.1035 91.7427 14.4745 90.6287 11.9206C89.1678 8.52071 89.4095 3.79129 91.5588 0.738201C91.9739 0.181182 92.8831 0.428184 92.9409 1.12183C93.0144 1.52646 92.6571 2.04142 92.2157 1.86276C90.8126 4.28526 90.5604 7.39617 91.2855 10.0551C91.9161 12.3253 93.7396 13.9333 95.5473 15.3153C96.1464 15.8723 97.024 16.2191 97.4339 16.939C97.5179 17.2018 97.4969 17.454 97.4076 17.6484C97.8385 22.4777 97.5179 27.4068 97.8858 32.215C99.4833 35.5571 105.117 35.7621 108.375 35.9723C111.501 36.0196 114.654 35.4941 117.613 34.4957C117.997 34.2592 118.28 33.9439 118.501 33.5813C118.102 29.782 118.096 25.9144 117.807 22.1624C117.849 21.8891 118.044 21.5423 118.375 21.5896C119.747 21.4793 119.021 29.8556 118.701 33.1977C119.195 32.1152 119.253 30.7331 119.442 29.6244C119.599 27.864 119.62 26.2192 119.547 24.5166C119.573 22.7877 118.764 21.0431 119.237 19.351C120.23 16.5187 121.77 13.97 122.379 11.0273C122.873 9.07247 123.073 7.05984 122.994 5.04196C122.984 4.56376 122.91 4.05929 123.052 3.59686C123.22 2.99255 123.782 2.60894 124.171 3.39717C125.133 8.5312 123.273 13.8387 121.034 18.4262C120.782 19.0358 120.498 19.6348 120.351 20.2811C120.393 21.1114 120.587 21.9417 120.656 22.7825C120.861 24.464 120.861 26.1666 120.787 27.8535C120.572 30.1446 120.619 33.0295 119.163 34.9265C119.794 35.3837 119.936 36.2718 119.946 37.0075C120.062 39.6927 119.589 42.3412 118.785 44.8898C119.962 44.3749 121.244 44.2172 122.542 44.6849C123.535 45.0843 124.387 46.3244 123.845 47.3701C123.824 47.3964 123.809 47.428 123.782 47.449C125.243 48.2162 126.221 49.6981 125.816 51.5793C125.727 51.779 125.564 51.8736 125.396 51.8841C126.363 52.336 127.077 53.1715 127.356 54.501C127.403 55.2314 127.697 57.4385 126.825 57.6644C126.578 57.7117 126.352 57.5541 126.236 57.3334C125.869 56.5136 126.084 55.5415 125.737 54.7007C124.833 53.1557 122.6 53.5498 121.129 53.8914C118.449 54.4379 116.299 56.871 113.498 56.6818C112.726 58.2477 111.99 59.8295 111.381 61.4637C111.249 61.6056 111.165 61.7895 111.118 61.9787C111.071 62.1626 111.071 62.3623 111.065 62.5515C111.065 62.6514 111.055 62.7564 111.055 62.8563C111.055 62.8773 111.055 62.8931 111.055 62.9088C111.018 62.8983 110.976 62.8826 110.939 62.8615C110.881 63.4606 111.097 64.0701 111.118 64.6745C111.176 65.4995 111.186 66.335 111.128 67.1653C111.365 67.1653 111.596 67.1653 111.833 67.1653C113.125 67.139 114.413 67.1232 115.705 67.1127C116.373 66.913 117.03 66.6924 117.687 66.4664C120.903 65.3576 123.935 63.5289 126.215 60.9803C126.399 60.686 126.799 60.3287 126.636 59.9661C125.911 58.9624 124.649 58.5262 123.483 58.3633C120.283 58.2109 117.739 60.4075 115.154 61.9367C114.281 62.3886 113.094 63.5131 112.185 62.5935C112.384 61.2378 113.956 60.9067 114.917 60.2025C116.551 59.2094 118.112 58.0638 119.904 57.3649C121.901 56.5189 124.266 56.4296 126.142 57.633C126.93 58.1006 127.687 58.8153 127.865 59.7454C128.07 61.5898 126.326 62.8878 125.128 64.0281C123.725 65.2473 122.153 66.2825 120.472 67.118C126.641 67.1758 132.81 67.4333 138.948 67.9903C138.996 67.9588 139.053 67.9325 139.111 67.9115C139.185 67.922 139.258 67.9325 139.332 67.9378C139.453 67.9536 139.579 67.964 139.7 67.9798C139.736 68.0061 139.768 68.0376 139.8 68.0692C139.821 68.0692 139.842 68.0692 139.857 68.0744C139.889 68.0849 139.92 68.1007 139.947 68.1112C139.947 68.1007 139.947 68.0901 139.947 68.0796C139.952 68.0639 139.962 68.0481 139.968 68.0323C140.12 68.0639 140.272 68.0954 140.425 68.127C140.646 68.1743 140.872 68.2005 141.092 68.2373C141.092 68.2531 141.092 68.2688 141.098 68.2898C141.087 69.5405 140.982 70.8122 141.024 72.0681C141.134 76.3088 141.497 80.5443 142.064 84.7429C142.49 87.5122 142.874 90.3288 143.967 92.9248C144.303 93.6657 145.081 94.2227 144.597 95.1161C143.373 99.8665 143.473 104.885 143.178 109.767C142.989 114.333 142.6 118.889 142.474 123.45C142.448 124.291 142.432 125.132 142.422 125.973C142.527 125.962 142.632 125.973 142.727 125.999C142.642 126.225 142.553 126.446 142.459 126.666C142.443 126.698 142.427 126.729 142.411 126.761C142.348 126.882 142.285 127.003 142.217 127.118C142.175 127.192 142.133 127.265 142.091 127.339C142.091 127.35 142.08 127.355 142.08 127.36C142.043 127.423 142.001 127.491 141.959 127.555C141.807 127.765 141.649 127.964 141.486 128.164C141.465 128.19 141.439 128.211 141.413 128.238C141.366 128.285 141.318 128.332 141.271 128.385L141.129 128.527C141.008 128.642 140.893 128.753 140.772 128.868C140.772 128.868 140.761 128.873 140.761 128.879C140.719 128.916 140.677 128.952 140.635 128.989C140.635 128.968 140.635 128.947 140.635 128.926C136.615 130.24 132.427 131.422 128.176 131.422C127.676 131.396 126.814 131.312 126.483 130.891L126.499 130.897ZM100.135 122.935C99.8144 124.333 99.5201 125.736 99.1733 127.124C99.1995 127.124 99.2258 127.129 99.2573 127.134H99.2784C101.654 127.255 104.034 127.418 106.404 127.597C105.989 127.344 105.569 127.118 105.111 127.003C104.533 127.034 103.897 127.066 103.456 126.624C104.039 125.016 105.232 125.206 106.404 125.721C106.178 125.284 106.036 124.79 105.831 124.36C105.658 123.986 105.537 123.655 105.469 123.361C103.808 123.319 102.121 123.056 100.681 122.179C100.681 122.526 100.513 122.857 100.14 122.941L100.135 122.935ZM106.851 123.303C107.318 124.218 108.007 125.311 107.534 126.283C107.671 126.356 107.807 126.425 107.939 126.488C107.876 125.689 107.786 124.89 107.718 124.097C107.713 124.097 107.707 124.086 107.702 124.086C107.424 123.86 107.361 123.461 107.46 123.13C107.387 123.119 107.308 123.104 107.234 123.093C107.129 123.188 107.008 123.256 106.856 123.303H106.851ZM120.855 116.183C120.692 116.556 120.508 116.924 120.319 117.286C120.051 117.791 119.762 118.28 119.447 118.753C120.162 118.075 121.05 117.187 120.882 116.12C120.871 116.141 120.861 116.162 120.855 116.183ZM101.596 112.951C102.064 113.251 102.636 113.398 103.199 113.335C103.33 113.319 103.451 113.298 103.577 113.272C103.204 113.256 102.762 113.198 102.353 113.067C102.289 113.093 102.221 113.104 102.137 113.093C101.937 113.067 101.801 112.909 101.675 112.767C101.654 112.83 101.622 112.893 101.585 112.951H101.596ZM100.519 111.475C100.519 111.417 100.519 111.354 100.519 111.296C100.503 111.296 100.492 111.285 100.482 111.285C100.492 111.348 100.503 111.411 100.519 111.475ZM94.9062 111.417C93.9288 110.098 93.0512 108.705 92.1263 107.339C92.0475 107.223 91.9634 107.102 91.8846 106.982C92.5783 108.642 93.6345 110.124 94.901 111.417H94.9062ZM99.6199 109.399C99.7093 109.178 99.8196 108.968 99.9457 108.763C99.9457 108.684 99.9668 108.611 99.993 108.548C99.6725 108.448 99.394 108.406 99.1785 108.406C98.4796 108.406 98.4165 108.858 99.6199 109.399ZM104.885 55.9303C104.512 58.2477 103.693 60.4811 102.689 62.5988C102.211 63.6077 101.564 64.5589 101.196 65.5993C101.175 65.6256 101.16 65.6519 101.154 65.6834C101.076 65.82 101.044 65.9935 101.013 66.1459C100.991 66.2457 100.976 66.3455 100.96 66.4454C100.923 66.7028 100.881 66.9604 100.86 67.2231C100.823 67.7171 100.813 68.211 100.944 68.6945C100.955 68.7312 100.965 68.768 100.976 68.8048C101.491 73.818 104.906 78.7313 108.333 71.5006C109.184 69.4774 109.562 67.4176 109.489 65.2473C109.279 63.7076 109.105 62.1679 109.851 60.728C110.556 58.8468 111.433 57.0023 112.342 55.1684C112.547 54.7848 112.736 54.4012 112.931 54.0123C113.167 53.5499 113.399 53.0875 113.619 52.6198L113.798 52.2624H113.787C113.913 52.0049 114.04 51.7422 114.16 51.4794L114.239 51.3271C114.239 51.3271 114.266 51.3008 114.281 51.285C114.381 51.0801 114.481 50.8804 114.576 50.6754C114.628 50.5808 114.675 50.481 114.728 50.3864C114.817 50.213 114.912 50.0396 114.996 49.8662C115.275 49.2829 115.558 48.7101 115.826 48.1268C115.816 48.1426 115.811 48.1584 115.8 48.1741C115.874 48.0323 115.921 47.8851 115.984 47.738C116.089 47.4805 116.194 47.223 116.299 46.9655C116.394 46.729 116.483 46.4873 116.551 46.2403C116.578 46.1352 116.609 46.0301 116.63 45.925C116.63 45.9093 116.636 45.8935 116.641 45.8777C117.639 43.1136 118.27 40.255 118.149 37.2019C118.123 36.75 118.16 36.2718 118.307 35.8356C118.286 35.8567 118.259 35.8724 118.238 35.8934C114.67 37.3596 110.692 38.0269 106.83 37.7957C104.759 37.6065 102.205 37.349 100.124 36.4505C100.088 36.8708 100.03 37.2912 99.9983 37.7011C99.8301 39.2986 99.5937 40.8908 99.3362 42.4778C98.5374 47.6644 97.0975 52.7038 95.7838 57.78C97.2762 59.9766 98.611 62.252 99.9405 64.5011C99.951 64.5221 99.9615 64.5378 99.9668 64.5589C100.161 64.0439 100.408 63.55 100.713 63.077C102.263 60.0239 104.155 56.1721 103.477 52.6986C102.778 52.4464 102.846 51.0854 103.656 51.0591C105.411 51.3586 105.064 54.6481 104.885 55.9566V55.9303ZM120.24 49.0359C118.906 49.5193 117.655 50.2341 116.399 50.933C115.637 52.5252 114.817 54.0964 114.024 55.6781C116.273 53.1452 121.701 50.6754 124.938 51.7317C124.865 51.6581 124.807 51.5687 124.776 51.4637C124.581 49.698 123.115 48.8467 121.544 48.8467C121.113 48.8467 120.666 48.9098 120.24 49.0412V49.0359ZM118.296 46.4347C118.075 47.0653 117.834 47.6907 117.576 48.3055C118.27 47.8326 119.011 47.4385 119.836 47.1862C120.808 46.8289 121.87 46.8236 122.831 47.0969C122.821 47.0496 122.815 46.997 122.81 46.9445C122.731 46.482 122.211 46.3034 121.822 46.1667C121.397 46.0669 120.976 46.0249 120.556 46.0249C119.783 46.0249 119.021 46.1773 118.291 46.44L118.296 46.4347Z" fill="#050505"/>
<path d="M81.6131 77.9054C81.4554 77.8686 81.2872 77.7951 81.1348 77.7268C81.056 77.7058 80.9877 77.6689 80.9246 77.6216C80.7723 77.5586 80.6146 77.4955 80.4622 77.4325C80.0733 77.2696 79.6845 77.1067 79.2956 76.9386C78.4443 76.5812 77.593 76.2239 76.7417 75.8613C75.0601 75.1519 73.389 74.4162 71.7232 73.6857C70.6984 73.2338 69.6737 72.7924 68.6437 72.3458C68.1603 72.1356 67.6768 71.9306 67.1934 71.7152C66.9622 71.6101 66.7309 71.505 66.4997 71.3946C66.2738 71.2843 66.0268 71.1739 65.9112 70.9269C65.7588 70.5906 65.8166 70.1019 66.1739 69.9128C66.3736 69.8024 66.5575 69.8602 66.7572 69.9232C66.9516 69.981 67.1461 70.0546 67.3353 70.1229C67.7557 70.2753 68.1655 70.4382 68.5859 70.6011C69.4373 70.9322 70.2938 71.2685 71.1504 71.5943C72.853 72.2512 74.5609 72.8975 76.2582 73.5649C77.2619 73.959 78.2551 74.3584 79.2536 74.7578C79.7528 74.9574 80.2573 75.1624 80.7565 75.3621C80.9982 75.4567 81.2399 75.5617 81.4817 75.6563C81.55 75.6721 81.6131 75.6931 81.6814 75.7194C81.8338 75.7824 82.0019 75.835 82.1438 75.9243C82.1438 75.9243 82.1438 75.9243 82.1438 75.9296C82.5011 76.1556 82.6588 76.6127 82.5957 77.0384C82.5379 77.4482 82.2174 77.916 81.7707 77.916C81.7234 77.916 81.6708 77.9107 81.6183 77.9002L81.6131 77.9054Z" fill="#050505"/>
<path d="M165.46 107.412C165.076 107.333 164.656 107.47 164.298 107.302C158.607 105.116 152.974 101.81 147.409 99.0253C146.731 98.6889 146.058 98.3369 145.375 98.0164C145.17 97.9165 145.023 97.6958 144.97 97.4751C144.765 96.4031 145.753 96.1404 146.594 96.503C148.439 97.0705 150.231 97.8061 152.007 98.5576C156.531 100.418 160.909 102.956 165.481 104.59C167.094 104.722 166.779 107.769 165.297 107.396L165.465 107.412H165.46Z" fill="#050505"/>
<path d="M163.059 105.179C158.603 103.24 154.162 101.285 149.732 99.2989C147.467 98.2795 145.113 97.2758 142.953 96.1092C142.27 95.8518 142.212 94.538 143.074 94.5958C143.074 94.5958 143.074 94.5958 143.074 94.5906C150.053 97.5123 156.622 101.322 163.064 105.184L163.059 105.179Z" fill="#050505"/>
<path d="M64.427 73.8434C65.0261 73.0079 65.2048 71.9622 64.7896 71.0058C65.3729 70.6957 65.9562 70.391 66.5553 70.1125C66.9231 69.9443 67.3015 69.8602 67.6536 70.1229C67.9479 70.3436 68.0897 70.8166 68.0267 71.1687C67.9636 71.5312 67.806 71.7992 67.5275 72.0305C67.3383 72.1881 67.1228 72.3142 66.9126 72.4351C66.3871 72.7451 65.8564 73.0394 65.3256 73.3389C65.0208 73.5071 64.7213 73.6753 64.4165 73.8434C64.4165 73.8434 64.4165 73.8434 64.4165 73.8382L64.427 73.8434Z" fill="#050505"/>
<path d="M0.00212712 107.102C0.00212712 106.608 0.270133 106.036 0.743082 105.862C1.14772 105.662 1.53659 105.431 1.93597 105.216C2.47724 104.922 3.0185 104.622 3.55976 104.323C4.58974 103.755 5.61445 103.187 6.64968 102.62C8.90932 101.375 11.1742 100.124 13.4339 98.8785C17.8218 96.4612 22.2097 94.0387 26.6028 91.6267C30.9802 89.2252 35.3629 86.8342 39.7508 84.4485C41.7109 83.3817 43.6763 82.3203 45.6364 81.2588C45.8991 82.1153 46.4404 82.851 47.0395 83.5184C45.3947 84.4222 43.7499 85.326 42.105 86.2246C37.6068 88.6734 33.1243 91.138 28.6208 93.5815C24.2591 95.9514 19.887 98.3004 15.5201 100.665C11.1164 103.046 6.70224 105.405 2.30907 107.801C2.05158 107.943 1.78357 108.074 1.53659 108.227C1.38419 108.332 1.21077 108.395 1.0216 108.395C0.359467 108.395 -0.00837708 107.686 -0.00837708 107.102H0.00212712Z" fill="#050505"/>
<path d="M55.5825 137.492C53.5488 136.383 51.7937 134.722 50.585 132.741C50.2592 132.216 49.9754 131.675 49.7179 131.107C49.4762 130.571 49.2765 130.019 49.1031 129.457C48.9192 128.868 48.7878 128.275 48.6827 127.665C48.5776 127.061 48.5356 126.456 48.504 125.847C48.4462 124.717 48.5881 123.577 48.8246 122.478C49.0611 121.364 49.4604 120.245 50.007 119.241C50.522 118.285 51.121 117.386 51.8567 116.588C52.6082 115.768 53.4437 115.048 54.3739 114.439C56.2446 113.214 58.4412 112.526 60.6693 112.41C61.4996 112.368 62.3246 112.405 63.1497 112.52C63.26 112.442 63.3967 112.4 63.5543 112.405C63.5858 112.405 63.6174 112.405 63.6489 112.41C63.7277 112.41 63.8065 112.431 63.8801 112.457C64.2007 112.526 64.5212 112.584 64.8365 112.668C65.3095 112.788 65.7719 112.936 66.2343 113.104C67.2381 113.472 68.205 113.971 69.0878 114.575C70.906 115.826 72.4668 117.513 73.481 119.483C74.0117 120.508 74.4426 121.59 74.6949 122.72C74.9471 123.866 75.0732 125.011 75.0627 126.183C75.0575 126.745 74.9891 127.308 74.9156 127.865C74.8473 128.39 74.7369 128.931 74.5898 129.441C74.4269 129.998 74.2482 130.55 74.017 131.081C73.7858 131.622 73.5177 132.142 73.2235 132.657C72.6875 133.598 71.9938 134.46 71.2371 135.227C70.4488 136.026 69.566 136.693 68.6201 137.287C67.6637 137.881 66.6022 138.311 65.5302 138.627C64.4477 138.942 63.3231 139.105 62.1933 139.126C62.1092 139.126 62.0251 139.126 61.941 139.126C59.7182 139.126 57.5426 138.548 55.5878 137.486L55.5825 137.492ZM61.5784 136.74C61.941 136.73 62.2984 136.714 62.6557 136.693C63.3021 136.619 63.9379 136.509 64.5685 136.362C65.2832 136.152 65.9716 135.905 66.6495 135.6C67.2223 135.306 67.7635 134.985 68.2996 134.628C68.8986 134.181 69.4451 133.703 69.9706 133.177C70.3385 132.773 70.6853 132.352 71.0111 131.911C71.3369 131.422 71.6365 130.923 71.9097 130.398C72.1462 129.893 72.3511 129.378 72.5351 128.853C72.6612 128.438 72.7715 128.022 72.8661 127.597C72.945 127.155 73.0028 126.709 73.0501 126.262C73.0763 125.826 73.0816 125.39 73.0711 124.954C73.0343 124.433 72.9712 123.918 72.8924 123.398C72.8294 123.088 72.761 122.773 72.677 122.463C72.5351 122.006 72.3827 121.564 72.204 121.123C72.0306 120.739 71.8467 120.361 71.647 119.988C71.379 119.546 71.0952 119.121 70.7904 118.705C70.5382 118.395 70.2807 118.096 70.0074 117.802C69.6711 117.465 69.3243 117.15 68.9564 116.845C68.5886 116.561 68.2155 116.299 67.8213 116.052C67.3326 115.763 66.8387 115.511 66.3184 115.285C65.814 115.08 65.3042 114.906 64.7787 114.764C64.4424 114.68 64.1008 114.601 63.754 114.544C63.7225 114.544 63.6857 114.533 63.6594 114.528C63.4913 114.502 63.3389 114.428 63.2127 114.318C62.5243 114.276 61.8359 114.286 61.1423 114.339C60.5222 114.407 59.9073 114.517 59.2978 114.659C58.5253 114.875 57.7896 115.153 57.0644 115.489C56.4601 115.8 55.8926 116.141 55.3355 116.525C54.7837 116.94 54.2635 117.381 53.7695 117.87C53.3281 118.338 52.9235 118.826 52.5451 119.347C52.2456 119.798 51.9671 120.261 51.7096 120.734C51.4573 121.259 51.2366 121.79 51.0422 122.342C50.9056 122.799 50.7847 123.256 50.6796 123.724C50.6218 124.076 50.5692 124.428 50.5272 124.791C50.5062 125.08 50.4904 125.363 50.4904 125.652C50.4904 125.983 50.5009 126.304 50.5167 126.635C50.564 127.082 50.6271 127.513 50.7006 127.954C50.7584 128.201 50.8162 128.443 50.874 128.69C50.9423 128.9 51.0054 129.11 51.0737 129.32C51.1473 129.562 51.2524 129.793 51.3417 130.03C51.5204 130.419 51.7096 130.802 51.9093 131.181C52.1405 131.554 52.377 131.911 52.624 132.268C52.9182 132.636 53.223 132.988 53.5383 133.34C53.8378 133.629 54.1426 133.913 54.4579 134.192C54.6892 134.37 54.9204 134.549 55.1621 134.717C55.4196 134.896 55.6876 135.064 55.9609 135.227C56.3182 135.421 56.6808 135.605 57.0486 135.784C57.5268 135.978 58.0103 136.152 58.3676 136.273L58.6094 136.336C58.7197 136.362 58.8301 136.393 58.9299 136.42C58.972 136.43 59.0087 136.441 59.0508 136.451H59.056C59.5553 136.572 60.0703 136.635 60.58 136.698C60.911 136.724 61.2421 136.751 61.5732 136.745L61.5784 136.74Z" fill="#050505"/>
<path d="M62.8515 138.227C56.9922 136.793 53.4556 130.45 53.403 124.701C53.1981 119.483 55.2423 114.58 60.8073 113.466C61.6323 113.309 63.4453 112.851 63.3927 114.181C63.3507 114.538 63.0722 114.859 62.7096 114.78C61.049 114.664 59.3779 115.384 58.0011 116.225C54.9269 118.248 54.5223 122.357 54.7956 125.705C55.2423 131.312 59.9665 137.471 66.0833 136.519C66.5405 136.504 67.0029 136.293 67.4548 136.425C67.9751 136.598 68.1222 137.26 67.7911 137.681C67.4916 138.133 66.9031 138.122 66.4248 138.227C65.2425 138.406 64.0338 138.469 62.8567 138.227H62.8515Z" fill="#050505"/>
<path d="M63.0829 128.637C62.0371 128.343 62.5679 127.14 62.5994 126.383C61.8217 126.42 60.571 126.54 60.592 125.432C60.5605 124.365 61.7796 124.465 62.5206 124.318C62.1738 122.594 63.6242 121.953 64.3336 123.719C64.5438 124.107 64.6541 124.333 64.8853 124.643C65.1271 124.817 65.2742 125.095 65.2322 125.411C65.2006 125.673 65.0167 125.968 64.7487 126.004C64.7487 126.782 64.0918 127.334 63.9184 128.08C63.9184 128.08 63.9132 128.08 63.9079 128.075C63.7765 128.422 63.4718 128.716 63.0881 128.637H63.0829Z" fill="#050505"/>
<path d="M66.109 122.104C66.5136 121.363 70.9436 114.963 71.1958 117.895C71.1643 118.137 71.0172 118.363 70.807 118.447C70.8175 118.447 70.8227 118.436 70.8332 118.431C69.1884 119.556 67.6645 120.869 66.1037 122.109C66.1037 122.109 66.1037 122.104 66.1037 122.099L66.109 122.104Z" fill="#050505"/>
<path d="M72.8683 127.292C72.3639 127.144 71.9645 126.714 71.7543 126.246C72.1852 125.962 72.7212 125.836 73.2204 125.878C73.9298 126.141 73.6776 127.549 72.8631 127.286L72.8683 127.292Z" fill="#050505"/>
<path d="M67.6802 135.62C66.8131 135.084 66.5451 133.802 66.0721 132.935C65.0632 130.601 64.2644 128.168 63.5287 125.751C65.0684 128.452 66.4768 131.358 68.0322 134.091C68.7627 134.359 68.5367 135.862 67.6749 135.62H67.6802Z" fill="#050505"/>
<path d="M56.2718 131.427C55.699 131.238 55.8356 130.04 56.5082 130.224C58.2424 129.367 60.0869 128.61 61.9209 128.122C60.5756 129.146 59.1672 130.108 57.6801 130.928C57.2439 131.128 56.7762 131.516 56.2718 131.427Z" fill="#050505"/>
<path d="M63.4978 123.009C60.9176 121.411 58.4688 119.609 55.9884 117.859C55.6573 117.754 55.4944 117.402 55.5312 117.076C55.7835 115.852 56.9028 116.918 57.4283 117.339C59.567 119.12 61.585 121.038 63.4925 123.009H63.4978Z" fill="#050505"/>
<path d="M63.9877 122.473C63.5933 120.597 63.241 118.706 63.1148 116.788C63.1148 116.005 62.9308 115.122 63.2936 114.402C63.73 113.834 64.3505 114.554 64.1033 115.075C63.914 117.523 64.0876 120.051 63.9877 122.473Z" fill="#050505"/>
<path d="M71.4485 131.606C70.7338 130.928 70.0244 130.182 69.5462 129.331C70.5078 129.604 71.7375 129.909 72.2682 130.823C72.5257 131.322 71.9162 132.11 71.4379 131.601L71.4485 131.606Z" fill="#050505"/>
<path d="M62.9668 135.184C62.7985 132.746 63.4453 130.208 63.9868 127.874C63.9921 130.271 63.6188 132.709 63.8764 135.089C64.1025 135.121 64.2445 135.336 64.2708 135.557C64.3128 135.846 64.1235 136.224 63.787 136.193C63.2823 136.193 63.0404 135.631 62.9668 135.184Z" fill="#050505"/>
<path d="M78.5224 134.727C77.3288 134.491 77.6811 132.452 78.9167 132.82C79.8474 133.161 79.5477 134.98 78.475 134.717L78.5276 134.733L78.5224 134.727Z" fill="#050505"/>
<path d="M77.3871 134.601C76.9299 134.333 76.9036 133.623 77.2347 133.245C77.9651 132.714 78.9898 132.735 79.8464 132.509C79.9095 131.81 80.0934 130.391 81.1129 130.849C81.8433 131.295 81.5595 132.267 81.3441 132.93C81.2337 133.886 80.5033 134.375 79.5784 134.39C78.8532 134.417 78.0912 134.779 77.3871 134.601Z" fill="#050505"/>
<path d="M75.506 137.97C74.5286 137.533 73.7456 135.253 74.0714 134.26C74.1817 133.981 74.4182 133.755 74.723 133.729C75.2695 133.461 75.5691 134.349 75.1907 134.675C75.2117 134.727 75.2275 134.78 75.2485 134.827C75.3326 135.011 75.4219 135.19 75.5218 135.368C76.5097 134.99 77.1193 136.404 76.5833 137.145C76.515 137.628 76.0315 138.169 75.506 137.97Z" fill="#050505"/>
<path d="M76.6569 132.126C76.3416 132.115 76.0893 131.915 75.9422 131.647C75.3641 131.753 74.97 131.164 74.9858 130.649C74.949 129.85 75.6742 129.609 76.3048 129.398C76.7147 129.246 77.1718 129.062 77.5922 129.246C79.0111 129.971 77.8392 132.015 76.6569 132.12V132.126Z" fill="#050505"/>
<path d="M71.4543 138.011C71.4175 137.954 71.3859 137.896 71.3597 137.833C70.7921 137.523 70.0564 137.218 69.8357 136.556C69.615 136.014 69.9881 135.163 70.6555 135.368C71.4543 135.731 72.3949 135.867 73.1253 136.356C74.355 137.528 72.5893 139.393 71.449 138.006L71.4543 138.011Z" fill="#050505"/>
<path d="M66.4724 140.818C66.4724 140.818 66.4619 140.786 66.4513 140.771C65.8523 140.366 65.0115 140.413 64.8433 139.594C64.6752 139.036 65.0115 138.327 65.6211 138.28C66.3147 138.301 67.0504 138.6 67.5969 139.021C68.2433 139.567 68.4535 140.813 67.6495 141.312C67.187 141.606 66.6721 141.312 66.4724 140.818Z" fill="#050505"/>
<path d="M57.3173 141.044C56.6604 140.497 56.7287 139.357 57.3803 138.837C58.0162 138.353 58.8412 138.232 59.6085 138.112C60.9117 138.038 63.1188 137.229 64.1383 138.232C64.627 138.832 64.0752 140.224 63.2344 139.662C62.2622 139.636 61.3058 139.862 60.3547 140.03C60.8539 140.235 61.4004 140.45 61.8523 140.702C60.4598 141.207 58.6836 141.958 57.3173 141.049V141.044Z" fill="#050505"/>
<path d="M64.7226 141.012C64.2917 140.991 63.7137 140.77 63.7137 140.266C63.7137 139.677 64.339 139.136 64.9171 139.367C65.7474 139.541 65.6055 141.112 64.7226 141.012Z" fill="#050505"/>
<path d="M49.2943 136.361C48.9002 136.162 48.7583 135.625 48.8056 135.226C48.8634 134.764 49.1682 134.333 49.6569 134.307C50.9654 134.243 52.2844 134.464 53.5877 134.328C54.5914 133.933 54.996 135.61 54.1815 136.067C53.966 136.209 53.6875 136.251 53.4353 136.282C52.4789 136.377 51.5172 136.372 50.5608 136.419C50.1351 136.466 49.6937 136.571 49.2891 136.356L49.2943 136.361Z" fill="#050505"/>
<path d="M45.3312 136.693C44.9002 136.157 45.0737 135.337 45.473 134.827C44.9423 134.071 45.0789 132.646 46.1825 132.552C47.0022 132.547 47.5698 133.293 47.4121 134.097C48.09 135.106 46.4925 137.681 45.3312 136.688V136.693Z" fill="#050505"/>
<path d="M49.6081 138.448C48.452 138.08 48.1788 136.141 48.8567 135.247C49.7185 134.386 50.7432 135.705 50.223 136.593C50.7852 137.197 50.6328 138.574 49.6081 138.448Z" fill="#050505"/>
<path d="M53.0821 140.665C52.7931 140.465 52.483 140.318 52.1677 140.166C50.5807 139.435 50.6963 137.423 52.1677 136.634C52.8193 136.272 53.5655 135.699 54.3485 135.92C54.9791 136.156 55.1578 136.908 55.0159 137.501C55.0422 138.174 54.2434 138.741 53.7652 138.106C53.6391 138.184 53.513 138.263 53.3869 138.342C53.8441 138.621 54.275 138.983 54.4116 139.519C54.6481 140.334 53.8598 141.253 53.0716 140.654L53.0821 140.665Z" fill="#050505"/>
<path d="M109.999 141.532C107.093 139.756 108.828 136.461 111.313 135.29C113.851 133.95 117.157 133.934 119.674 135.321C121.035 134.785 123.063 134.254 124.109 135.6C124.682 136.456 124.403 137.628 123.731 138.343C122.601 139.493 120.851 139.562 119.411 140.093C118.355 140.487 117.435 141.17 116.416 141.643C114.408 142.494 111.939 142.657 109.999 141.532ZM111.981 140.403C111.676 139.357 112.869 138.984 113.625 138.684C115.149 138.143 116.547 137.355 117.798 136.356C115.969 135.967 113.999 136.078 112.285 136.861C110.105 137.959 108.717 139.593 111.981 140.403ZM117.173 138.71C116.715 139.015 116.232 139.268 115.727 139.493C115.691 139.509 115.659 139.525 115.622 139.541C116.132 139.494 116.647 139.478 117.162 139.483C117.677 139.215 118.192 138.915 118.733 138.716C119.768 138.196 123.295 138.059 123.189 136.593L123.2 136.603C122.375 135.999 121.166 136.472 120.289 136.777C120.199 137.139 119.732 137.455 119.395 137.202C118.597 137.617 117.903 138.201 117.162 138.705L117.173 138.71Z" fill="#050505"/>
<path d="M112.553 140.287C112.469 137.234 118.607 136.493 120.903 136.629C118.822 137.612 116.452 138.4 114.424 139.52C114.171 139.709 113.903 139.887 113.725 140.15C113.688 140.923 112.742 141.075 112.553 140.287Z" fill="#050505"/>
<path d="M124.976 136.325C124.077 135.715 125.26 134.218 125.928 135.226C126.227 135.783 125.596 136.661 124.976 136.325Z" fill="#050505"/>
<path d="M126.132 136.515C125.859 136.483 125.748 136.168 125.738 135.937C125.717 135.495 126.09 135.196 126.368 134.901C126.316 134.423 126.636 133.829 127.172 133.877C127.409 133.73 127.635 133.53 127.908 133.446C128.954 133.288 128.975 134.733 128.123 135.148C128.076 135.353 127.982 135.511 127.803 135.637C127.645 135.742 127.472 135.763 127.293 135.737C127.12 135.863 126.946 135.989 126.778 136.121C126.72 136.436 126.421 136.557 126.132 136.515Z" fill="#050505"/>
<path d="M123.894 136.472C123.852 136.167 123.905 135.8 124.062 135.532C123.905 134.68 124.661 133.608 125.576 134.086C126.017 134.318 126.201 134.791 126.416 135.216C126.853 135.789 126.69 136.835 125.954 137.05C125.266 137.917 124.02 137.581 123.894 136.477V136.472Z" fill="#050505"/>
<path d="M95.7318 115.458C92.9467 113.361 90.5872 109.872 91.2703 106.256C91.4543 105.741 92.0638 105.594 92.4002 106.057C92.5631 106.283 92.6682 106.556 92.7733 106.813C93.3828 108.164 94.3708 109.304 95.4007 110.355C96.2521 111.206 97.4239 111.79 98.023 112.867C98.9163 114.491 97.55 116.75 95.7266 115.458H95.7318Z" fill="#050505"/>
<path d="M100.95 121.327C100.304 120.328 99.9148 119.146 99.1529 118.205C98.4434 117.385 97.5185 116.802 96.6777 116.13C94.4864 114.101 92.4317 111.411 92.0061 108.4C92.0429 108.005 92.5158 107.837 92.7155 108.231C92.8048 108.431 92.768 108.668 92.8889 108.867C93.8611 111.043 95.4428 112.94 97.3451 114.369C98.7114 115.283 100.225 116.114 101.108 117.554C101.712 118.584 102.689 119.677 102.39 120.954C102.222 121.8 101.486 121.989 100.94 121.327H100.95Z" fill="#050505"/>
<path d="M103.61 119.556C103.636 118.222 105.208 118.222 105.235 119.556C105.208 120.891 103.636 120.891 103.61 119.556Z" fill="#050505"/>
<path d="M104.334 120.644C104.134 120.36 104.066 120.045 104.082 119.703C104.082 119.682 104.082 119.661 104.082 119.64C103.551 119.162 103.672 118.148 104.302 117.806C104.623 116.981 105.506 117.433 105.479 118.179C105.853 118.831 105.973 119.682 105.721 120.397C105.537 121.022 104.702 121.232 104.334 120.644Z" fill="#050505"/>
<path d="M104.344 117.375C103.814 116.703 103.377 115.909 103.404 115.032C103.404 114.68 103.404 114.196 103.777 114.028C104.281 113.865 104.444 114.522 104.696 114.816C105.091 115.289 105.763 115.552 105.973 116.172C106.452 117.354 105.29 118.621 104.344 117.375Z" fill="#050505"/>
<path d="M103.294 115.683C102.538 115.473 101.839 115.037 101.161 114.643C100.546 114.401 100.409 113.486 100.867 113.024C100.42 111.316 99.6318 111.059 98.0763 110.507C96.9412 109.903 97.3091 107.549 98.7384 107.748C99.6107 107.953 100.289 108.568 100.872 109.214C101.277 109.614 101.786 109.955 102.06 110.465C102.286 111.122 102.527 111.773 102.969 112.325C103.457 112.972 104.303 113.423 104.419 114.285C104.529 114.958 104.046 115.793 103.3 115.683H103.294Z" fill="#050505"/>
<path d="M103.846 115.494C103.966 114.18 104.276 113.04 105.017 111.957C104.439 112.099 103.777 112.309 103.21 112.046C102.705 111.82 102.563 111.032 102.994 110.691C103.273 110.512 103.651 110.228 103.814 110.05C104.996 109.062 106.263 108.189 107.366 107.102C107.319 107.133 107.272 107.17 107.267 107.165C108.197 106.408 109.221 107.627 109.032 108.583C108.927 109.482 108.307 110.202 107.923 110.995C106.694 112.572 106.41 115.751 103.846 115.494Z" fill="#050505"/>
<path d="M99.037 126.724C98.732 126.472 98.9003 126.004 98.9108 125.673C98.8267 124.48 98.8688 123.287 99.2999 122.158C99.526 121.185 99.689 120.203 99.9256 119.231C99.9624 119.062 100.02 118.815 100.231 118.789C100.436 118.758 100.588 118.978 100.578 119.162C100.52 121.017 100.189 122.83 99.7679 124.622C99.689 125.085 99.831 127.097 99.037 126.719V126.724Z" fill="#050505"/>
<path d="M118.165 119.036C118.186 117.954 119.459 117.954 119.48 119.036C119.459 120.119 118.186 120.119 118.165 119.036Z" fill="#050505"/>
<path d="M107.314 128.952C106.252 128.432 106.284 127.029 106.158 126.015C106.168 124.995 105.359 123.613 106.195 122.788C106.51 122.525 106.841 122.709 107.183 122.757C107.592 122.746 107.992 122.704 108.407 122.709C108.98 122.683 109.547 122.73 110.12 122.736C110.877 122.594 111.581 122.284 112.306 122.031C115.128 121.107 117.545 119.299 119.784 117.391C120.262 116.971 120.183 115.174 120.972 115.368C121.187 115.452 121.276 115.657 121.36 115.857C121.734 116.876 122.028 118.132 121.397 119.105C120.367 120.471 119.085 121.664 117.666 122.615C115.648 124.076 113.263 124.822 110.819 125.179C109.868 125.389 108.99 124.864 108.06 124.738C108.417 125.468 108.36 126.283 108.465 127.055C108.875 127.849 108.339 129.278 107.309 128.942L107.314 128.952Z" fill="#050505"/>
<path d="M108.859 124.465C106.904 123.698 106.247 121.291 106.442 119.389C106.893 118.69 107.204 119.678 107.277 120.208C107.466 120.823 107.881 121.344 108.302 121.822C108.864 122.379 109.715 122.384 110.435 122.589C111.281 122.752 112.154 123.015 112.942 123.272C111.802 124.202 110.362 125.243 108.859 124.465Z" fill="#050505"/>
</svg>
