<svg width="171" height="146" viewBox="0 0 171 146" fill="none" xmlns="http://www.w3.org/2000/svg">
<path d="M115.487 22.6137C111.102 22.236 106.67 21.4491 102.615 19.697C102.578 19.697 102.542 19.7022 102.51 19.7022C102.531 19.634 102.547 19.5711 102.568 19.5029C102.668 19.1776 102.767 18.8524 102.872 18.5272C102.919 18.3803 102.967 18.2334 103.019 18.0917C103.607 18.2596 104.163 18.5953 104.75 18.7422C106.303 19.2406 107.892 19.6078 109.502 19.8754C113.51 20.6308 117.612 20.5154 121.619 21.2865C119.936 22.1678 117.947 22.6295 116.017 22.6295C115.839 22.6295 115.666 22.6295 115.493 22.619L115.487 22.6137Z" fill="black"/>
<path d="M104.089 24.156C104.063 23.7469 104.021 23.3377 103.969 22.9285C103.885 22.8026 103.827 22.6557 103.795 22.5036C103.795 22.3515 103.795 22.1993 103.795 22.0472C103.816 21.9423 103.853 21.8374 103.9 21.7429C104.252 21.0924 105.007 21.1869 105.327 21.8216C106.014 23.8885 105.789 26.1652 105.998 28.3161C106.256 30.5508 105.773 32.7594 105.579 34.9522C103.643 31.7522 104.451 27.7233 104.084 24.156H104.089Z" fill="black"/>
<path d="M108.584 24.0669C107.897 23.3115 108.978 21.5226 109.744 22.7344C110.074 23.3482 110.058 24.0721 110.1 24.7541C110.184 26.1915 110.252 27.6288 110.294 29.0715C110.357 30.3567 110.42 31.6473 110.284 32.9273C110.237 33.9555 109.812 34.9679 110.043 35.9332C108.002 33.9974 108.91 26.9941 108.59 24.0721L108.584 24.0669Z" fill="black"/>
<path d="M113.998 36.5889C113.29 35.5555 113.269 34.223 113.043 33.0217C112.755 30.96 112.666 28.8826 112.639 26.8052C112.629 25.7613 112.576 24.7121 112.639 23.6682C112.666 23.3114 112.76 22.9652 113.033 22.7239C113.3 22.4826 113.694 22.6032 113.883 22.8708C114.061 23.1278 114.092 23.4846 113.977 23.7783C113.935 25.4046 114.056 27.0361 114.098 28.6623C114.318 31.3692 113.662 33.9764 114.003 36.5889H113.998Z" fill="black"/>
<path d="M117.859 34.8263C117.177 33.9607 117.056 32.8118 116.82 31.7679C116.505 30.042 116.332 28.3003 116.232 26.5534C116.154 25.6616 116.112 24.7646 115.975 23.878C115.829 23.6 115.865 23.2537 116.023 22.9862C116.552 22.2885 117.124 23.0439 117.182 23.6629C117.418 25.2314 117.549 26.8157 117.654 28.4C117.874 30.5246 117.413 32.7699 117.859 34.8315V34.8263Z" fill="black"/>
<path d="M102.704 23.1908C102.347 22.6452 102.122 22.1154 102.012 21.6065C102.022 21.5069 102.033 21.4072 102.043 21.3128C102.132 21.0032 102.227 20.6937 102.316 20.3842C102.4 20.0904 102.479 19.7967 102.568 19.5029C102.667 19.1776 102.767 18.8524 102.872 18.5272C102.94 18.3068 103.014 18.0918 103.098 17.8767C103.171 17.7875 103.25 17.6983 103.328 17.6091C103.365 17.5881 103.396 17.5567 103.412 17.5147C105.138 15.6209 107.976 14.1415 109.822 13.1133C112.859 11.4923 115.854 9.7717 118.734 7.88316C119.982 7.0543 120.879 5.82675 121.976 4.83527C123.062 6.21495 122.275 8.16642 121.016 9.14216C117.869 11.5396 114.249 13.3179 110.74 15.1383C108.825 16.2242 104.535 17.9029 103.57 20.3108C103.465 20.3108 103.36 20.3842 103.318 20.4891C103.265 20.6203 103.255 20.7619 103.239 20.8983C103.229 21.0033 103.213 21.1082 103.202 21.2131C103.187 21.4282 103.16 21.6432 103.15 21.8583C103.118 22.3462 103.077 22.8341 103.05 23.322C102.94 23.322 102.825 23.2852 102.704 23.1961V23.1908Z" fill="black"/>
<path d="M102.169 34.0656C101.498 31.0125 101.493 27.8754 101.655 24.7698C101.687 24.539 101.687 24.1928 101.702 23.8308C101.765 23.4688 101.818 23.1069 101.87 22.7397C101.991 22.4039 102.206 22.1731 102.584 22.1731C102.888 22.2256 103.029 22.5088 103.087 22.7764C103.066 23.0544 103.05 23.3324 103.04 23.6157C103.04 23.6839 103.04 23.7521 103.035 23.8203C103.014 23.8361 102.993 23.857 102.966 23.8728C102.883 27.2879 102.867 30.7187 102.174 34.0814L102.169 34.0656Z" fill="black"/>
<path d="M85.6145 104.235C85.1896 101.675 85.9922 99.0419 86.1915 96.4766C86.2597 95.4956 86.9888 94.053 87.2511 95.9205C87.1409 98.6274 86.5377 101.308 86.1076 103.978C86.501 104.01 86.9049 103.553 87.2249 103.417C86.9836 103.774 86.5062 104.555 86.0551 104.555C85.903 104.555 85.7509 104.466 85.6145 104.235Z" fill="black"/>
<path d="M107.326 98.6694C106.675 98.2549 107.378 96.8753 107.955 97.7041C108.427 98.8005 108.327 100.133 108.327 101.282C107.929 100.432 107.583 99.5717 107.331 98.6694H107.326Z" fill="black"/>
<path d="M112.356 103.973C112.188 102.772 110.384 96.2511 112.178 96.2301C112.744 96.2301 112.97 96.8596 112.938 97.3265C112.781 99.5875 112.592 101.744 112.367 103.978L112.356 103.973Z" fill="black"/>
<path d="M117.428 99.6819C118.126 100.175 118.178 101.182 118.86 101.654C119.647 101.869 120.156 100.925 120.607 100.422C120.922 100.028 121.242 99.6452 121.572 99.2675C121.735 99.0681 121.96 98.7848 122.254 98.8635C123.141 99.1206 122.936 100.532 123.099 101.266C122.821 100.831 122.564 100.28 122.28 99.8131C120.759 102.704 118.782 104.944 116.888 100.846C116.458 100.731 116.217 101.376 115.996 101.66C115.671 102.258 115.246 102.892 114.643 103.212C114.271 101.88 115.781 98.6642 117.428 99.6767V99.6819Z" fill="black"/>
<path d="M133.778 104.655C133.117 104.492 133.002 103.721 132.86 103.165C132.729 102.683 132.598 102.195 132.404 101.728C131.722 102.614 131.135 103.774 129.991 104.104C128.25 104.492 127.73 102.315 127.772 100.988C127.683 101.125 127.594 101.313 127.494 101.418C127.463 100.401 127.442 99.2989 127.814 98.3494C128.076 97.8878 128.753 98.0557 128.774 98.5855C128.884 99.8498 128.748 100.957 129.084 102.127C129.141 102.342 129.288 102.546 129.487 102.641C129.493 102.641 129.503 102.641 129.508 102.641C129.529 102.641 129.545 102.651 129.566 102.656C129.55 102.651 129.535 102.646 129.535 102.641H129.514C129.514 102.641 129.493 102.63 129.477 102.63C130.484 102.662 130.998 101.397 131.554 100.731C131.738 100.411 132.047 100.065 132.451 100.086C133.558 100.254 133.747 102.053 134.098 102.929C134.497 102.541 135.415 102.279 135.509 103.055C135.567 103.365 135.488 103.679 135.315 103.936C135.268 103.926 135.215 103.889 135.173 103.868C134.922 104.267 134.476 104.671 133.983 104.671C133.909 104.671 133.836 104.66 133.762 104.645L133.778 104.655Z" fill="black"/>
<path d="M88.6989 123.635C87.7914 123.588 86.9207 123.299 86.0394 123.116C85.7457 123.074 85.2736 123.084 84.7491 123.1C83.3748 123.137 81.5913 123.168 81.4077 122.218C81.3396 121.72 81.7907 121.285 82.2418 121.636C82.9971 121.815 83.7524 121.762 84.5078 121.71C85.2998 121.657 86.0919 121.605 86.8682 121.814C88.0537 122.15 89.3493 122.192 90.5557 122.276C92.2395 122.386 93.8603 122.895 95.3868 123.598C94.1174 123.693 92.8165 123.766 91.5104 123.766C90.5662 123.766 89.6273 123.729 88.6989 123.63V123.635Z" fill="black"/>
<path d="M88.6623 127.874C86.9104 127.826 85.2056 127.296 83.4641 127.48C83.0865 127.585 82.8085 127.155 82.7718 126.84C82.7246 125.676 84.0202 125.822 85.0902 125.975C85.4679 126.027 85.8193 126.079 86.0711 126.074C87.5661 126.253 89.0138 126.3 90.5035 126.452C92.0719 126.667 93.5039 127.113 94.9831 127.585C93.7032 127.874 92.3709 127.994 91.0333 127.994C90.2412 127.994 89.4492 127.952 88.6676 127.874H88.6623Z" fill="black"/>
<path d="M124.866 127.821C124.237 127.758 123.376 127.795 123.036 127.155C122.679 126.594 123.371 125.676 123.896 126.326C124.971 126.583 126.015 126.447 127.106 126.426C128.695 126.305 130.285 126.515 131.832 126.866C130.012 127.637 127.966 127.842 125.968 127.842C125.601 127.842 125.233 127.837 124.866 127.821Z" fill="black"/>
<path d="M129.057 123.436C128.858 123.399 128.606 123.399 128.338 123.399C127.573 123.399 126.681 123.399 126.649 122.58C126.649 122.334 126.775 121.993 127.043 121.919C129.65 121.967 132.241 122.402 134.785 122.984C133.096 123.289 131.292 123.441 129.54 123.441C129.377 123.441 129.22 123.441 129.062 123.441L129.057 123.436Z" fill="black"/>
<path d="M129.702 134.205C124.121 134.022 118.425 133.728 112.933 133.12C107.262 132.716 101.561 132.584 95.9219 131.766C91.1695 131.158 86.37 130.911 81.6649 129.982C81.4708 130.239 81.24 130.208 81.0144 130.093C80.6158 130.297 80.0703 130.04 80.0545 129.316C80.0598 128.98 80.1804 128.75 80.3535 128.619C80.4951 128.314 80.7889 128.104 81.1823 128.162C87.9751 129.133 94.8309 129.573 101.639 130.334C101.314 128.917 100.874 124.784 102.332 124.437C102.295 124.175 102.353 123.892 102.51 123.693C102.542 123.63 102.479 123.556 102.473 123.493C102.337 122.04 101.823 120.514 100.926 119.307C99.9661 118.683 99.0429 118.006 98.1617 117.282C97.9571 117.224 97.8102 117.083 97.7211 116.91C97.0129 116.296 96.3415 115.651 95.7068 114.953C92.5229 111.517 91.8042 106.843 91.2587 102.336C91.0804 102.871 90.8548 103.386 90.4299 103.753C89.1868 104.419 89.0609 102.488 89.0084 101.681C88.8144 99.7186 88.6675 97.7566 88.5101 95.7946C88.3633 95.291 88.8773 94.4517 89.3599 95.0497C89.6956 95.5691 89.5487 96.2668 89.6589 96.8543C89.7953 98.5697 89.9684 100.275 90.1572 101.985C90.8338 100.752 90.9597 97.3684 93.0264 98.1395C94.086 98.6327 94.5633 99.834 95.4708 100.5C95.8275 99.6818 95.838 98.8006 95.9848 97.935C96.0006 97.3894 96.7035 96.6287 97.1598 97.2373C98.041 98.5173 98.2246 100.128 98.8803 101.523C99.7878 103.338 100.858 100.568 101.152 99.7658C101.33 99.0944 101.949 98.6117 102.563 99.1625C103.045 99.7291 103.14 100.526 103.407 101.208C103.774 102.373 104.11 103.496 104.393 104.645C103.454 103.433 102.62 102.121 102.017 100.715C101.503 102.405 99.7615 104.959 98.1197 102.772C97.5217 101.775 97.2857 100.61 96.9133 99.5245C96.8451 100.563 96.415 102.583 94.9725 101.927C93.9077 101.329 93.5877 99.855 92.4704 99.3514C92.355 99.4091 92.2606 99.493 92.1872 99.5927C92.334 99.6766 92.4704 99.834 92.5543 100.07C92.675 100.437 92.8009 100.804 92.9215 101.177C93.2992 101.403 93.6034 101.869 93.6716 102.347C94.2381 104.707 95.2767 106.89 96.5723 108.93C97.228 109.99 97.847 111.113 98.5131 112.209C99.793 113.689 101.089 115.178 102.73 116.165C102.232 115.483 101.944 114.633 101.959 113.778C100.386 113.316 99.1531 111.223 100.695 110.001C101.896 109.235 103.323 110.09 104.519 110.478C105.741 110.808 106.937 111.517 107.771 112.477C108.915 111.742 109.723 110.588 110.709 109.707C111.349 109.523 111.6 110.384 111.537 110.882C111.354 112.498 109.859 113.689 108.527 114.428C108.558 114.549 108.59 114.67 108.611 114.79C109.387 115.241 109.051 115.504 108.506 115.939C108.212 116.778 107.493 117.303 106.67 117.534C106.817 117.691 106.948 117.87 107.058 118.037C107.357 117.46 108.123 117.571 108.338 118.142C108.495 117.99 108.679 117.88 108.894 117.838C111.506 115.362 114.202 112.975 116.872 110.562C117.281 110.2 117.685 109.833 118.089 109.46C118.362 109.072 118.635 108.689 118.907 108.301C119.107 108.018 119.395 107.792 119.741 107.729C119.794 107.724 119.841 107.719 119.888 107.719C121.037 106.523 122.06 105.222 122.794 103.716C123.172 103.055 123.439 102.284 124.064 101.812C125.023 101.219 125.506 102.766 125.176 103.475C123.633 106.895 121.231 111.889 118.099 115.855C116.258 118.814 114.087 121.075 109.885 122.864C110.048 123.362 110.258 124.018 110.347 124.637C110.441 124.647 110.536 124.663 110.63 124.684C110.756 124.485 110.955 124.348 111.238 124.327C111.627 124.317 111.894 124.6 112.01 124.941C114.155 124.852 116.321 124.354 118.425 123.913C120.35 122.465 121.745 120.424 122.726 118.268C122.883 117.88 123.062 117.487 123.072 117.067C122.878 116.458 123.602 115.666 124.132 116.249C124.604 117.24 125.286 118.195 125.37 119.328C125.307 122.9 121.546 125.256 118.388 125.943C116.542 127.234 114.318 127.7 112.13 127.38C112.288 128.65 112.518 130.156 112.361 131.1C118.535 131.598 124.703 132.144 130.898 132.343C131.244 132.359 131.591 132.38 131.937 132.385C132.346 132.396 132.587 132.7 132.671 133.067C133.248 132.999 133.82 132.91 134.392 132.805C134.371 132.758 134.35 132.705 134.329 132.647C134.108 129.919 134.528 127.102 134.664 124.354C134.701 123.902 134.738 123.446 134.769 122.99C134.927 121.017 135.068 119.039 135.21 117.067C132.818 117.245 130.369 117.502 127.998 117.35C127.536 117.098 127.72 116.343 128.239 116.301C129.718 116.249 131.203 116.343 132.682 116.469C133.531 116.542 134.387 116.637 135.236 116.752C135.488 113.169 135.729 109.586 135.997 106.014C136.175 102.882 136.212 99.7343 136.228 96.592C136.175 96.5763 136.133 96.55 136.091 96.5238C124.231 96.0255 112.351 95.2753 100.533 94.1789C100.517 94.1789 100.501 94.1789 100.485 94.1789C96.1737 93.8379 92.0403 93.2556 87.7548 93.1455C87.2722 93.8432 86.4329 93.0877 86.6323 92.411C86.7424 91.2779 88.1534 91.5402 88.9665 91.5454C90.8443 91.6608 92.633 91.8392 94.4742 91.9966C98.5761 92.3848 102.62 92.7205 106.712 93.1034C113.898 93.691 121.095 94.0897 128.291 94.4989C130.694 94.6248 133.101 94.735 135.509 94.8346C135.745 94.8451 135.986 94.8556 136.222 94.8661C136.222 94.6667 136.222 94.4674 136.222 94.268C136.17 93.7959 136.254 93.371 136.5 92.9776C137.549 90.2864 138.436 87.291 139.301 84.605C140.518 80.6129 141.735 76.563 141.982 72.3715C141.987 72.2823 141.992 72.1827 141.992 72.0777C134.093 71.4377 126.167 71.1964 118.252 70.9656C117.05 71.2436 115.828 71.4272 114.611 71.5164C114.328 71.5164 114.04 71.4954 113.788 71.3538C113.756 71.3328 113.72 71.3118 113.688 71.2856C113.672 71.359 113.657 71.4273 113.641 71.5007C112.875 75.0155 110.195 81.043 105.71 78.9499C104.572 78.3833 103.869 77.2293 103.391 76.0961C102.867 74.9578 102.531 73.7722 102.269 72.5499C102.038 71.4535 101.933 70.3046 102.001 69.1767C98.4397 68.9249 94.8623 68.8672 91.2954 68.7675C89.6799 68.6626 88.0171 68.7465 86.391 68.6364C85.9871 72.2351 86.6742 90.5749 83.9886 91.2307C82.1684 99.514 81.8904 108.075 81.4813 116.527C81.2242 120.697 81.7016 125.046 80.0231 128.98C80.0231 128.98 80.0231 128.98 80.0178 128.98C79.3307 126.887 79.0317 124.674 79.1838 122.47C79.3149 119.118 79.4566 115.761 79.6664 112.409C79.9181 109.298 81.1823 89.6517 83.5742 89.1481C84.7597 82.9211 84.4659 76.542 84.7702 70.2364C84.8226 69.6908 84.8856 69.1505 84.9485 68.6049C84.9905 68.2954 85.0324 67.9859 85.0744 67.6764C85.1111 67.4193 85.1426 67.1623 85.1845 66.9C87.7286 67.0207 90.2831 66.9944 92.8323 66.9734C95.5023 66.9472 98.1669 66.921 100.821 67.0678C99.7353 65.2422 98.8121 63.1806 97.7473 61.4547C97.3382 60.7098 96.5461 59.9858 96.9395 59.073C98.702 51.7444 100.585 44.3844 101.235 36.8617C100.186 36.1273 99.3734 35.1306 98.9695 33.7614C98.7177 32.2873 98.8908 30.7712 98.8541 29.2761C98.8593 25.7298 98.9433 22.1783 98.8174 18.6373C98.8069 18.6268 98.7964 18.6164 98.7859 18.6059C96.5933 16.9377 94.1752 15.2694 93.0317 12.6622C91.542 9.18939 91.7833 4.35262 93.9811 1.23653C94.406 0.669964 95.3344 0.916524 95.3973 1.62997C95.4026 1.66669 95.4078 1.69818 95.4078 1.7349C95.3711 1.7349 95.3449 1.75064 95.3082 1.77162C95.1823 1.85031 95.0669 1.94475 94.9567 2.04967C94.9043 2.09689 94.8623 2.14933 94.8204 2.20179C94.7732 2.25425 94.7312 2.31196 94.6892 2.36967C94.684 2.37491 94.6787 2.38539 94.6735 2.39064C94.6735 2.39064 94.6735 2.39064 94.6682 2.39064C94.663 2.40638 94.6525 2.41688 94.6473 2.43262C94.5581 2.55327 94.4794 2.67916 94.406 2.81031C94.3483 2.90998 94.3011 3.00966 94.2539 3.11458C94.2276 3.17753 94.1909 3.24573 94.1699 3.31393C94.1437 3.39262 94.1175 3.47657 94.086 3.55526C94.065 3.61821 94.044 3.6864 94.0283 3.74935C93.1785 5.96314 93.1104 8.52316 93.7241 10.7684C94.364 13.0924 96.2314 14.7344 98.0778 16.1455C98.6915 16.7173 99.5884 17.0688 100.008 17.8085C100.097 18.0813 100.076 18.3331 99.9766 18.5324C100.417 23.4688 100.092 28.5049 100.464 33.4204C102.101 36.8355 107.855 37.0453 111.186 37.2604C114.38 37.3076 117.606 36.7673 120.628 35.7496C121.016 35.5083 121.31 35.183 121.535 34.8158C121.126 30.9338 121.126 26.9836 120.827 23.1436C120.869 22.8655 121.068 22.5141 121.404 22.556C122.81 22.4406 122.065 31.002 121.74 34.4171C122.243 33.3102 122.301 31.8991 122.495 30.7659C122.653 28.9666 122.679 27.2826 122.6 25.5462C122.626 23.7836 121.803 21.9947 122.285 20.2636C123.303 17.3678 124.871 14.7658 125.496 11.7547C125.999 9.75596 126.204 7.69953 126.125 5.63788C126.114 5.14476 126.041 4.6359 126.188 4.15852C126.361 3.5395 126.938 3.15132 127.331 3.95395C128.318 9.19989 126.413 14.6242 124.126 19.3141C123.869 19.9383 123.581 20.5468 123.429 21.2078C123.471 22.0577 123.67 22.9075 123.738 23.7626C123.948 25.4833 123.948 27.2197 123.875 28.9456C123.654 31.2853 123.702 34.2335 122.217 36.1745C122.862 36.6414 123.009 37.5489 123.014 38.2991C123.13 41.0427 122.653 43.7496 121.824 46.3569C123.03 45.827 124.336 45.6696 125.663 46.147C126.681 46.5562 127.552 47.8257 126.996 48.8906C126.975 48.9221 126.954 48.9484 126.933 48.9693C128.422 49.751 129.43 51.2671 129.01 53.1924C128.916 53.3969 128.753 53.4966 128.58 53.5071C129.566 53.9687 130.295 54.8238 130.584 56.1773C130.636 56.9274 130.935 59.178 130.043 59.4088C129.792 59.4612 129.561 59.2934 129.445 59.073C129.068 58.2337 129.288 57.2369 128.931 56.3819C128.008 54.8028 125.726 55.2068 124.221 55.553C121.483 56.1091 119.285 58.5956 116.426 58.4068C115.634 60.0068 114.884 61.6226 114.26 63.2908C114.123 63.4377 114.04 63.6265 113.987 63.8154C113.94 64.0042 113.94 64.2036 113.935 64.4029C113.935 64.5078 113.924 64.6127 113.924 64.7124C113.924 64.7334 113.924 64.7491 113.924 64.7649C113.882 64.7544 113.845 64.7387 113.809 64.7177C113.751 65.3314 113.971 65.9505 113.992 66.5748C114.055 67.4193 114.061 68.2744 114.003 69.1243C114.244 69.1243 114.485 69.1243 114.721 69.1243C116.043 69.098 117.36 69.0823 118.682 69.0718C119.364 68.8672 120.035 68.6417 120.706 68.4108C123.995 67.2777 127.09 65.4049 129.424 62.8029C129.613 62.5039 130.017 62.1367 129.854 61.7642C129.115 60.7412 127.824 60.2901 126.634 60.1275C123.366 59.9701 120.764 62.2153 118.12 63.7786C117.229 64.2403 116.017 65.3944 115.083 64.4501C115.288 63.0652 116.893 62.7242 117.879 62.0055C119.547 60.993 121.147 59.8232 122.978 59.1045C125.023 58.2442 127.436 58.1498 129.351 59.3773C130.159 59.8547 130.93 60.5839 131.113 61.5387C131.323 63.4272 129.54 64.7492 128.318 65.9138C126.886 67.157 125.275 68.2167 123.56 69.0718C129.865 69.1295 136.17 69.3918 142.443 69.9636C142.496 69.9321 142.548 69.9006 142.611 69.8797C142.685 69.8902 142.763 69.9007 142.837 69.9112C142.963 69.9269 143.089 69.9374 143.215 69.9531C143.251 69.9793 143.288 70.0108 143.319 70.0423C143.34 70.0423 143.361 70.0423 143.382 70.0476C143.414 70.0581 143.445 70.0738 143.477 70.0843C143.477 70.0738 143.477 70.0633 143.477 70.0528C143.482 70.0371 143.493 70.0213 143.498 70.0056C143.655 70.037 143.812 70.0738 143.97 70.1053C144.195 70.1525 144.421 70.1839 144.652 70.2154C144.652 70.2364 144.652 70.2521 144.657 70.2679C144.647 71.5479 144.542 72.8437 144.584 74.1289C144.694 78.4621 145.066 82.7899 145.648 87.0811C146.084 89.9087 146.472 92.794 147.594 95.4432C147.935 96.1986 148.733 96.7704 148.24 97.6831C146.991 102.541 147.086 107.671 146.787 112.655C146.593 117.319 146.199 121.977 146.068 126.641C146.042 127.501 146.026 128.361 146.016 129.217C146.12 129.206 146.231 129.217 146.33 129.243C146.246 129.474 146.152 129.699 146.058 129.925C146.042 129.956 146.026 129.988 146.005 130.019C145.942 130.145 145.879 130.266 145.806 130.381C145.764 130.455 145.722 130.528 145.675 130.607C145.675 130.617 145.664 130.622 145.664 130.628C145.622 130.691 145.58 130.759 145.543 130.827C145.386 131.042 145.229 131.247 145.061 131.451C145.04 131.477 145.014 131.504 144.987 131.525C144.94 131.572 144.893 131.624 144.846 131.672L144.699 131.819C144.578 131.939 144.458 132.049 144.332 132.165C144.332 132.165 144.321 132.17 144.321 132.175C144.279 132.212 144.237 132.249 144.195 132.285C144.195 132.264 144.195 132.243 144.195 132.217C140.088 133.56 135.808 134.767 131.46 134.767C130.951 134.741 130.07 134.651 129.729 134.221L129.702 134.205ZM102.762 126.069C102.437 127.496 102.132 128.933 101.781 130.35C101.807 130.35 101.833 130.355 101.865 130.36H101.886C104.315 130.486 106.743 130.649 109.172 130.832C108.752 130.575 108.322 130.344 107.85 130.224C107.257 130.255 106.612 130.292 106.156 129.836C106.754 128.188 107.971 128.382 109.167 128.912C108.936 128.466 108.794 127.957 108.584 127.517C108.406 127.134 108.285 126.793 108.217 126.494C106.518 126.452 104.797 126.184 103.323 125.287C103.323 125.644 103.15 125.98 102.767 126.064L102.762 126.069ZM109.623 126.441C110.1 127.375 110.808 128.493 110.321 129.489C110.462 129.563 110.599 129.636 110.73 129.699C110.661 128.881 110.578 128.068 110.504 127.255C110.499 127.255 110.494 127.244 110.488 127.244C110.205 127.013 110.142 126.604 110.242 126.268C110.168 126.258 110.085 126.242 110.011 126.232C109.906 126.326 109.78 126.399 109.623 126.447V126.441ZM123.938 119.165C123.77 119.548 123.586 119.921 123.392 120.293C123.119 120.807 122.826 121.311 122.5 121.794C123.229 121.101 124.142 120.188 123.964 119.102C123.953 119.123 123.943 119.144 123.938 119.165ZM104.252 115.866C104.734 116.17 105.311 116.322 105.893 116.254C106.025 116.238 106.156 116.217 106.282 116.191C105.899 116.175 105.453 116.117 105.033 115.981C104.97 116.007 104.897 116.018 104.813 116.007C104.614 115.981 104.467 115.818 104.341 115.677C104.32 115.74 104.288 115.803 104.252 115.866ZM103.155 114.355C103.155 114.292 103.155 114.234 103.155 114.171C103.14 114.171 103.129 114.161 103.113 114.161C103.124 114.229 103.134 114.292 103.15 114.355H103.155ZM97.4168 114.292C96.415 112.944 95.518 111.517 94.5791 110.127C94.4951 110.006 94.4112 109.885 94.3325 109.759C95.0459 111.459 96.1212 112.97 97.4168 114.292ZM102.232 112.235C102.321 112.01 102.437 111.795 102.568 111.585C102.568 111.506 102.589 111.433 102.615 111.365C102.29 111.265 102.001 111.218 101.781 111.218C101.068 111.218 100.999 111.679 102.232 112.23V112.235ZM107.619 57.5885C107.236 59.9596 106.397 62.2416 105.374 64.4029C104.886 65.4311 104.22 66.4069 103.848 67.4718C103.827 67.498 103.811 67.5243 103.806 67.5557C103.722 67.6974 103.696 67.8705 103.659 68.0279C103.638 68.1276 103.617 68.2325 103.606 68.3321C103.564 68.5944 103.522 68.862 103.502 69.1295C103.46 69.6331 103.454 70.142 103.585 70.6299C103.596 70.6666 103.606 70.7033 103.617 70.7452C104.141 75.8705 107.635 80.8909 111.134 73.4994C112.004 71.4325 112.392 69.3289 112.314 67.1046C112.099 65.5308 111.926 63.957 112.686 62.4881C113.41 60.5629 114.302 58.6849 115.235 56.8068C115.445 56.4186 115.639 56.0199 115.839 55.6212C116.08 55.1491 116.316 54.677 116.542 54.1943L116.725 53.8271H116.715C116.841 53.5648 116.972 53.2972 117.098 53.0244L117.182 52.8671C117.182 52.8671 117.208 52.8356 117.224 52.8251C117.323 52.6153 117.428 52.4107 117.528 52.2009C117.58 52.1012 117.633 52.0015 117.685 51.9019C117.78 51.7235 117.874 51.5504 117.958 51.3668C118.241 50.774 118.53 50.1812 118.808 49.5884C118.797 49.6041 118.792 49.6199 118.781 49.6356C118.855 49.4939 118.907 49.3366 118.97 49.1897C119.075 48.9274 119.185 48.6599 119.29 48.3976C119.39 48.1562 119.479 47.9097 119.552 47.6526C119.584 47.5477 119.615 47.4375 119.636 47.3274C119.636 47.3116 119.642 47.2959 119.647 47.2802C120.664 44.4526 121.315 41.5306 121.189 38.4145C121.163 37.9529 121.2 37.4598 121.346 37.0191C121.325 37.0401 121.299 37.0611 121.273 37.0768C117.627 38.5719 113.562 39.2591 109.618 39.0231C107.499 38.829 104.892 38.5667 102.762 37.6486C102.725 38.0788 102.667 38.509 102.636 38.9286C102.468 40.5601 102.227 42.1864 101.959 43.8074C101.141 49.111 99.6724 54.2625 98.3295 59.4455C99.856 61.6908 101.22 64.0147 102.573 66.3125C102.584 66.3334 102.594 66.3544 102.599 66.3754C102.799 65.8508 103.05 65.3419 103.36 64.8646C104.944 61.7432 106.88 57.8035 106.182 54.2573C105.469 54.0002 105.542 52.61 106.366 52.5838C108.159 52.8881 107.808 56.2507 107.624 57.5885H107.619ZM123.308 50.5379C121.944 51.031 120.67 51.7602 119.385 52.4789C118.608 54.1052 117.769 55.7157 116.956 57.3262C119.253 54.7347 124.803 52.2166 128.113 53.292C128.04 53.2185 127.977 53.1242 127.945 53.0193C127.746 51.2147 126.246 50.3438 124.641 50.3438C124.2 50.3438 123.744 50.4067 123.308 50.5431V50.5379ZM121.325 47.8782C121.1 48.5235 120.853 49.1635 120.591 49.793C121.299 49.3104 122.06 48.9064 122.899 48.6493C123.89 48.2874 124.976 48.2769 125.962 48.555C125.952 48.5025 125.947 48.4553 125.941 48.3976C125.857 47.9254 125.328 47.7418 124.929 47.6002C124.494 47.5005 124.064 47.4533 123.639 47.4533C122.847 47.4533 122.07 47.6107 121.325 47.873V47.8782Z" fill="black"/>
<path d="M83.8313 79.1859C83.6687 79.1492 83.4956 79.0758 83.3435 79.0024C83.2648 78.9814 83.1914 78.9447 83.1284 78.8975C82.9711 78.8345 82.8137 78.7663 82.6564 78.7034C82.2577 78.5355 81.8591 78.3676 81.4604 78.1998C80.5897 77.8326 79.7189 77.4653 78.8482 77.0981C77.1329 76.3741 75.4229 75.624 73.7182 74.8738C72.6691 74.4122 71.62 73.961 70.5762 73.5046C70.0831 73.2895 69.5848 73.0797 69.0917 72.8594C68.8557 72.7545 68.6196 72.6443 68.3836 72.5341C68.1528 72.4187 67.901 72.3085 67.7856 72.0567C67.6282 71.7157 67.6912 71.2121 68.0531 71.018C68.2525 70.9079 68.4465 70.9656 68.6511 71.0285C68.8504 71.0915 69.0498 71.1597 69.2438 71.2331C69.674 71.3905 70.0936 71.5584 70.5185 71.721C71.3892 72.0567 72.26 72.403 73.1359 72.7387C74.8774 73.4102 76.6189 74.0712 78.3551 74.7532C79.378 75.1571 80.4008 75.5611 81.4184 75.9702C81.9325 76.1748 82.4465 76.3794 82.9553 76.5892C83.2019 76.6889 83.4484 76.7886 83.6949 76.8883C83.7631 76.904 83.8313 76.9302 83.8995 76.9564C84.0569 77.0194 84.2247 77.0771 84.3716 77.1663C84.3716 77.1663 84.3716 77.1663 84.3716 77.1715C84.7388 77.4023 84.8961 77.8693 84.8332 78.3047C84.7703 78.7243 84.445 79.2017 83.9939 79.2017C83.9415 79.2017 83.889 79.1965 83.8366 79.1808L83.8313 79.1859Z" fill="black"/>
<path d="M169.52 109.345C169.127 109.266 168.702 109.403 168.33 109.235C162.513 107.005 156.758 103.622 151.072 100.778C150.38 100.432 149.693 100.075 148.995 99.7448C148.785 99.6452 148.638 99.4143 148.581 99.194C148.371 98.1028 149.383 97.8249 150.238 98.1973C152.127 98.7796 153.952 99.5297 155.772 100.301C160.399 102.2 164.873 104.797 169.541 106.465C171.188 106.596 170.868 109.712 169.353 109.329L169.52 109.345Z" fill="black"/>
<path d="M167.065 107.063C162.512 105.085 157.975 103.081 153.443 101.051C151.13 100.007 148.722 98.9842 146.514 97.7934C145.816 97.5258 145.758 96.1881 146.64 96.2458C146.64 96.2458 146.64 96.2458 146.64 96.2405C153.768 99.2254 160.482 103.123 167.065 107.068V107.063Z" fill="black"/>
<path d="M66.2748 75.0365C66.8885 74.1866 67.0721 73.1112 66.6472 72.1354C67.2399 71.8154 67.8432 71.5059 68.4516 71.2226C68.8293 71.0495 69.2175 70.9656 69.5741 71.2332C69.8784 71.4587 70.02 71.9413 69.9571 72.3033C69.8889 72.6757 69.7315 72.9486 69.4482 73.1846C69.2594 73.342 69.0339 73.4732 68.8188 73.5991C68.2838 73.9138 67.7383 74.2181 67.198 74.5224C66.8885 74.6955 66.579 74.8686 66.2695 75.0417C66.2695 75.0417 66.2695 75.0417 66.2695 75.0365H66.2748Z" fill="black"/>
<path d="M0.429199 109.03C0.429199 108.527 0.701967 107.939 1.18979 107.766C1.60418 107.561 2.00282 107.325 2.40671 107.105C2.96273 106.801 3.5135 106.496 4.06952 106.192C5.1186 105.615 6.17293 105.033 7.22201 104.45C9.52999 103.176 11.8432 101.901 14.1564 100.626C18.6413 98.1553 23.1261 95.6793 27.6162 93.2137C32.0905 90.7586 36.5701 88.3139 41.0549 85.8745C43.0587 84.7834 45.0677 83.6975 47.0714 82.6168C47.3389 83.4929 47.8949 84.2431 48.5034 84.925C46.8249 85.8536 45.1411 86.7716 43.4626 87.6897C38.8676 90.192 34.2831 92.71 29.6828 95.2071C25.2243 97.6307 20.7552 100.033 16.2966 102.447C11.8013 104.881 7.28496 107.294 2.79488 109.738C2.53261 109.885 2.25985 110.016 2.00807 110.174C1.85596 110.284 1.67237 110.347 1.48353 110.347C0.806874 110.347 0.43445 109.623 0.43445 109.025L0.429199 109.03Z" fill="black"/>
<path d="M75.1188 127.664C75.1188 127.533 75.1188 127.401 75.1188 127.27C75.0769 126.735 75.0192 126.211 74.9352 125.681C74.8671 125.361 74.8041 125.041 74.7149 124.726C74.5733 124.259 74.4107 123.808 74.2324 123.357C74.054 122.963 73.8652 122.58 73.6606 122.197C73.3879 121.746 73.0994 121.311 72.7846 120.886C72.7427 120.834 72.7007 120.781 72.6587 120.734C72.4384 120.472 72.2181 120.214 71.9821 119.963C71.9034 119.889 71.8247 119.811 71.7513 119.737C71.6569 119.643 71.5572 119.553 71.4575 119.464C71.3684 119.38 71.2792 119.302 71.1848 119.223C71.0956 119.144 71.0012 119.066 70.912 118.987C70.5396 118.698 70.1567 118.431 69.7528 118.179C69.2545 117.885 68.7457 117.623 68.2211 117.392C67.7071 117.182 67.1825 117.004 66.6475 116.862C66.5373 116.831 66.4219 116.805 66.3118 116.778C66.2174 116.757 66.123 116.736 66.0285 116.715C66.0076 116.715 65.9866 116.705 65.9708 116.705C65.845 116.679 65.7243 116.658 65.6037 116.637C65.5722 116.637 65.5355 116.626 65.5092 116.621C65.3834 116.6 65.268 116.558 65.163 116.49C65.1526 116.485 65.1473 116.479 65.1368 116.469C65.1054 116.448 65.0791 116.427 65.0529 116.406C64.35 116.364 63.6471 116.374 62.939 116.432C62.3043 116.5 61.6801 116.616 61.0559 116.763C60.2638 116.983 59.5137 117.266 58.7689 117.612C58.386 117.812 58.0135 118.022 57.6516 118.247C57.4313 118.384 57.2163 118.52 57.0012 118.667C56.4347 119.092 55.9049 119.548 55.4013 120.041C54.9502 120.519 54.5358 121.017 54.1477 121.552C53.8382 122.014 53.5602 122.486 53.2979 122.974C53.0409 123.509 52.8153 124.055 52.616 124.621C52.4744 125.088 52.3538 125.555 52.2489 126.037C52.1859 126.399 52.1387 126.761 52.0915 127.123C52.0705 127.417 52.0548 127.711 52.0495 128.005C52.0495 128.34 52.06 128.676 52.0757 129.007C52.1282 129.463 52.1859 129.909 52.2646 130.355C52.3223 130.607 52.38 130.853 52.4429 131.105C52.5111 131.32 52.5793 131.535 52.6423 131.75C52.7209 131.997 52.8258 132.233 52.9203 132.474C53.1039 132.873 53.2979 133.261 53.5025 133.649C53.7385 134.027 53.9798 134.394 54.2316 134.761C54.5358 135.134 54.8401 135.501 55.1653 135.858C55.4748 136.157 55.7842 136.445 56.1095 136.729C56.3455 136.912 56.5815 137.096 56.8281 137.264C57.0956 137.447 57.3684 137.615 57.6464 137.783C58.0135 137.982 58.3807 138.171 58.7584 138.35C59.2515 138.549 59.7445 138.727 60.1012 138.848L60.353 138.911C60.4684 138.942 60.5786 138.969 60.6782 138.995L60.8041 139.026H60.8094C60.8094 139.026 60.8303 139.032 60.8408 139.037C61.3444 139.152 61.8532 139.215 62.3672 139.278C62.7029 139.304 63.0439 139.331 63.3796 139.325C63.752 139.315 64.114 139.299 64.4812 139.278C64.8378 139.236 65.1893 139.184 65.5407 139.121C65.8397 139.068 66.1387 139.005 66.4377 138.937C67.172 138.727 67.8697 138.47 68.5673 138.156C68.7771 138.051 68.9869 137.935 69.1863 137.82C69.5482 137.615 69.8997 137.4 70.2511 137.164L70.377 137.07C70.4976 136.981 70.613 136.886 70.7284 136.797C70.7914 136.744 70.8543 136.692 70.9173 136.639C71.2792 136.34 71.6254 136.02 71.9611 135.685C72.3388 135.27 72.6902 134.84 73.0259 134.389C73.1256 134.242 73.2252 134.09 73.3197 133.938C73.54 133.581 73.7498 133.219 73.9491 132.847C73.9491 132.847 73.9491 132.841 73.9491 132.836C74.1904 132.322 74.4002 131.803 74.5891 131.268C74.7149 130.843 74.8303 130.418 74.9247 129.988C74.9405 129.888 74.9562 129.788 74.972 129.694C75.0297 129.337 75.0769 128.98 75.1083 128.624C75.1136 128.493 75.1188 128.361 75.1241 128.23C75.1241 128.167 75.1293 128.104 75.1293 128.041C75.1293 127.921 75.1293 127.8 75.1293 127.679L75.1188 127.664ZM76.7606 124.988C77.0229 126.158 77.1488 127.333 77.1331 128.529C77.1278 129.106 77.0596 129.678 76.9862 130.245C76.9128 130.785 76.8026 131.336 76.6505 131.855C76.4826 132.422 76.2991 132.988 76.0683 133.534C75.8322 134.09 75.5595 134.62 75.2605 135.144C74.7097 136.11 74.0068 136.986 73.2305 137.773C72.4227 138.591 71.5257 139.273 70.5553 139.876C70.2511 140.065 69.9416 140.238 69.6216 140.39C69.3594 140.521 69.0866 140.642 68.8138 140.752C68.347 140.941 67.8697 141.104 67.3923 141.245C66.2856 141.571 65.1368 141.733 63.9828 141.76C63.8989 141.76 63.815 141.76 63.7258 141.76C61.4545 141.76 59.2305 141.172 57.232 140.081C57.0536 139.986 56.8753 139.881 56.7022 139.777C56.1042 139.415 55.5272 139.005 54.9922 138.554C53.8644 137.61 52.8888 136.482 52.123 135.234C51.7925 134.693 51.4988 134.142 51.2365 133.565C50.99 133.02 50.7854 132.453 50.607 131.876C50.4182 131.273 50.2818 130.664 50.1769 130.04C50.072 129.421 50.03 128.807 49.9933 128.183C49.9356 127.029 50.0773 125.864 50.3185 124.736C50.5598 123.598 50.969 122.449 51.525 121.426C52.0548 120.451 52.6632 119.527 53.4133 118.714C54.1792 117.875 55.0342 117.14 55.9836 116.521C57.8929 115.273 60.1379 114.57 62.4197 114.444C63.2694 114.402 64.114 114.439 64.9532 114.559C65.0686 114.481 65.205 114.433 65.3624 114.439C65.3938 114.439 65.4306 114.439 65.462 114.449C65.546 114.449 65.6246 114.47 65.6981 114.496C66.0233 114.565 66.3538 114.628 66.6737 114.711C67.1563 114.837 67.6284 114.984 68.1005 115.157C69.1233 115.535 70.1147 116.044 71.0169 116.663C72.879 117.943 74.4684 119.669 75.507 121.678C76.0473 122.727 76.4931 123.834 76.7502 124.988H76.7606Z" fill="black"/>
<path d="M69.3592 138.995C69.8942 139.173 70.0411 139.845 69.7054 140.28C69.6791 140.322 69.6477 140.354 69.6162 140.39C69.4064 140.616 69.1126 140.695 68.8084 140.752C68.6405 140.784 68.4674 140.805 68.3048 140.842C67.0984 141.025 65.8605 141.088 64.6593 140.842C63.243 140.495 61.9579 139.866 60.8196 139.026C57.1583 136.335 55.0444 131.499 55.0025 127.013C54.8766 123.672 55.6424 120.456 57.6357 118.242C58.8264 116.92 60.442 115.955 62.5663 115.535C63.4056 115.373 65.2625 114.906 65.2048 116.264C65.1995 116.312 65.1891 116.364 65.1733 116.411C65.1628 116.437 65.1523 116.464 65.1418 116.49C65.1104 116.569 65.0684 116.637 65.0107 116.694C65.0002 116.71 64.9897 116.721 64.974 116.731C64.9687 116.742 64.9583 116.747 64.9478 116.757C64.8953 116.805 64.8324 116.841 64.7642 116.862C64.7379 116.873 64.7065 116.878 64.6802 116.883C64.6278 116.894 64.5648 116.894 64.5019 116.883C62.8024 116.763 61.0976 117.497 59.6866 118.363C59.482 118.499 59.288 118.641 59.1096 118.798C59.0519 118.84 58.9942 118.893 58.9418 118.94C58.9313 118.95 58.9208 118.961 58.9103 118.971C58.8369 119.034 58.7739 119.097 58.7057 119.171C58.3858 119.485 58.1078 119.832 57.8665 120.199C56.3925 122.423 56.2037 125.46 56.4187 128.057C56.5446 129.641 57.0062 131.273 57.7406 132.779C57.9242 133.156 58.1287 133.523 58.3438 133.885C59.9699 136.577 62.5034 138.691 65.5248 139.126C66.3063 139.242 67.1194 139.242 67.9586 139.11C68.4255 139.095 68.8976 138.88 69.3592 139.011V138.995Z" fill="black"/>
<path d="M66.7365 126.955C66.9882 127.134 67.1351 127.417 67.0931 127.737C67.0617 128.01 66.8729 128.304 66.5948 128.346V128.356C66.5948 128.403 66.5948 128.451 66.5843 128.493C66.5843 128.503 66.5843 128.508 66.5843 128.514C66.5843 128.55 66.5739 128.587 66.5686 128.618C66.5686 128.639 66.5686 128.655 66.5581 128.671C66.5581 128.697 66.5476 128.723 66.5371 128.75C66.5319 128.776 66.5214 128.802 66.5161 128.823C66.4847 128.923 66.4427 129.022 66.3955 129.117C66.385 129.143 66.3745 129.164 66.3588 129.19C66.2958 129.311 66.2329 129.426 66.1647 129.547C66.086 129.683 66.0074 129.815 65.9392 129.956C65.8605 130.119 65.7923 130.281 65.7503 130.46C65.7503 130.46 65.7451 130.46 65.7398 130.46C65.6087 130.817 65.294 131.116 64.9006 131.037C63.8305 130.733 64.376 129.505 64.4075 128.729C63.6102 128.765 62.3356 128.886 62.3565 127.758C62.3251 126.667 63.5682 126.772 64.3288 126.62C64.1557 125.744 64.4285 125.14 64.8429 124.983C64.8901 124.962 64.9425 124.952 64.9897 124.941C65.1681 124.92 65.3569 124.967 65.5405 125.098C65.5772 125.125 65.6192 125.156 65.6559 125.193C65.8447 125.366 66.0283 125.633 66.1805 126.006C66.3955 126.405 66.5057 126.635 66.7417 126.955H66.7365Z" fill="black"/>
<path d="M67.9902 124.364C68.4046 123.603 72.9314 117.067 73.1884 120.062C73.157 120.309 73.0048 120.545 72.795 120.624C72.8055 120.624 72.816 120.613 72.8213 120.608C71.1427 121.757 69.5848 123.1 67.9902 124.369C67.9902 124.369 67.9902 124.364 67.9902 124.359V124.364Z" fill="black"/>
<path d="M74.8985 129.662C74.3845 129.516 73.9753 129.07 73.7603 128.598C74.2009 128.309 74.7516 128.178 75.2604 128.225C75.9896 128.493 75.7273 129.935 74.8985 129.668V129.662Z" fill="black"/>
<path d="M70.3611 137.059C70.5289 137.594 70.2352 138.355 69.5952 138.171C69.4379 138.072 69.2962 137.951 69.1703 137.804C68.6038 137.164 68.3521 136.152 67.9534 135.423C67.1823 133.639 66.5319 131.798 65.9392 129.951C65.7399 129.327 65.5458 128.702 65.3569 128.083C65.6297 128.566 65.9025 129.054 66.1647 129.542C66.3221 129.836 66.4795 130.129 66.6368 130.423C66.9778 131.058 67.3135 131.693 67.6492 132.333C68.1213 133.23 68.5933 134.127 69.0759 135.019C69.2071 135.26 69.3382 135.496 69.4693 135.732C69.6319 136.026 69.7945 136.314 69.9572 136.603C69.9834 136.613 70.0096 136.624 70.0306 136.634C70.0516 136.645 70.0726 136.655 70.0935 136.671C70.0988 136.671 70.104 136.682 70.1093 136.682C70.125 136.692 70.1408 136.708 70.1512 136.718C70.1722 136.734 70.188 136.75 70.2037 136.771C70.2142 136.786 70.2299 136.802 70.2404 136.818C70.2614 136.844 70.2719 136.87 70.2876 136.897C70.2981 136.918 70.3086 136.939 70.3191 136.96C70.3296 136.986 70.3401 137.012 70.3506 137.038L70.3611 137.059Z" fill="black"/>
<path d="M57.9349 133.891C57.3475 133.697 57.4891 132.469 58.1762 132.663C59.9439 131.787 61.8323 131.016 63.7049 130.518C62.3254 131.567 60.8881 132.548 59.3722 133.387C58.9263 133.592 58.449 133.99 57.9349 133.896V133.891Z" fill="black"/>
<path d="M65.3204 125.287C62.682 123.651 60.1799 121.815 57.6464 120.026C57.3107 119.916 57.1376 119.559 57.1795 119.223C57.4366 117.969 58.5801 119.06 59.1203 119.496C61.3024 121.316 63.3691 123.278 65.3152 125.287H65.3204Z" fill="black"/>
<path d="M65.8187 124.736C65.4148 122.822 65.0529 120.881 64.927 118.929C64.927 118.132 64.7381 117.224 65.1053 116.49C65.5512 115.908 66.1859 116.642 65.9341 117.177C65.74 119.679 65.9184 122.26 65.8187 124.742V124.736Z" fill="black"/>
<path d="M73.4456 134.069C72.7165 133.377 71.9873 132.616 71.4995 131.745C72.4804 132.028 73.7341 132.338 74.2848 133.266C74.5471 133.775 73.9229 134.583 73.4351 134.064L73.4456 134.069Z" fill="black"/>
<path d="M64.7801 137.731C64.607 135.239 65.2679 132.647 65.8187 130.255C65.8239 132.705 65.441 135.197 65.7085 137.631C65.9393 137.662 66.0862 137.888 66.1124 138.108C66.1544 138.407 65.9655 138.79 65.6193 138.759C65.1 138.759 64.8535 138.187 64.7801 137.731Z" fill="black"/>
<path d="M80.6739 137.259C79.4517 137.017 79.8188 134.929 81.0725 135.307C82.0219 135.653 81.7177 137.51 80.6214 137.243L80.6739 137.259Z" fill="black"/>
<path d="M79.5142 137.133C79.0473 136.86 79.0159 136.136 79.3568 135.748C80.1069 135.207 81.1507 135.228 82.0267 134.998C82.0897 134.284 82.2785 132.836 83.3223 133.298C84.0672 133.754 83.7787 134.746 83.5584 135.428C83.443 136.409 82.6981 136.907 81.754 136.923C81.0144 136.949 80.238 137.322 79.5142 137.138V137.133Z" fill="black"/>
<path d="M77.5895 140.574C76.5876 140.128 75.7903 137.794 76.1207 136.781C76.2361 136.493 76.4722 136.267 76.7869 136.241C77.3429 135.968 77.6524 136.876 77.2643 137.211C77.2852 137.264 77.3062 137.316 77.3272 137.369C77.4111 137.558 77.5055 137.741 77.6052 137.92C78.6176 137.531 79.2365 138.979 78.691 139.735C78.6228 140.228 78.1245 140.784 77.5947 140.579L77.5895 140.574Z" fill="black"/>
<path d="M78.7695 134.604C78.4496 134.594 78.1873 134.389 78.0404 134.116C77.4477 134.221 77.0491 133.623 77.0648 133.099C77.0281 132.28 77.7677 132.034 78.4129 131.824C78.8325 131.666 79.2993 131.478 79.7295 131.666C81.1772 132.406 79.9812 134.494 78.7748 134.604H78.7695Z" fill="black"/>
<path d="M73.4505 140.616C73.4086 140.558 73.3771 140.495 73.3561 140.432C72.7739 140.118 72.0238 139.803 71.7982 139.131C71.5727 138.581 71.9503 137.71 72.6375 137.92C73.4558 138.287 74.4157 138.428 75.1605 138.927C76.4142 140.128 74.615 142.032 73.4453 140.616H73.4505Z" fill="black"/>
<path d="M68.3572 143.491C68.3572 143.491 68.3414 143.459 68.3362 143.444C67.7225 143.029 66.8622 143.076 66.6944 142.242C66.5213 141.676 66.8675 140.946 67.4917 140.899C68.1998 140.92 68.9499 141.225 69.5112 141.655C70.1721 142.211 70.3871 143.491 69.5636 143.994C69.0915 144.299 68.5617 143.994 68.3572 143.491Z" fill="black"/>
<path d="M59.005 143.716C58.3336 143.16 58.4018 141.99 59.068 141.461C59.7184 140.967 60.5577 140.842 61.3445 140.716C62.6768 140.637 64.9271 139.813 65.9762 140.836C66.4797 141.45 65.9132 142.872 65.0477 142.3C64.0563 142.268 63.0807 142.505 62.105 142.678C62.6138 142.887 63.1751 143.108 63.6367 143.365C62.2152 143.884 60.4003 144.65 59.005 143.716Z" fill="black"/>
<path d="M66.574 143.685C66.1334 143.664 65.5407 143.438 65.5459 142.919C65.5459 142.321 66.1859 141.765 66.7734 142.001C67.6179 142.179 67.4762 143.779 66.574 143.685Z" fill="black"/>
<path d="M50.8063 138.932C50.4077 138.727 50.2555 138.182 50.3027 137.767C50.3604 137.295 50.6752 136.855 51.1735 136.828C52.5111 136.765 53.8591 136.991 55.1915 136.849C56.2196 136.445 56.6287 138.161 55.7999 138.628C55.5796 138.775 55.2964 138.817 55.0394 138.848C54.0637 138.943 53.0776 138.937 52.1019 138.99C51.6666 139.037 51.2154 139.147 50.8011 138.927L50.8063 138.932Z" fill="black"/>
<path d="M46.7569 139.268C46.3163 138.717 46.4947 137.883 46.8986 137.363C46.3583 136.587 46.4947 135.134 47.6224 135.04C48.4617 135.034 49.0387 135.795 48.8761 136.619C49.5685 137.652 47.9319 140.28 46.7517 139.268H46.7569Z" fill="black"/>
<path d="M51.1263 141.067C49.9461 140.689 49.6681 138.706 50.3605 137.799C51.2417 136.918 52.2908 138.266 51.7558 139.173C52.3328 139.792 52.1754 141.198 51.1263 141.067Z" fill="black"/>
<path d="M54.6773 143.328C54.3835 143.129 54.0635 142.977 53.7436 142.819C52.1227 142.074 52.2434 140.018 53.7436 139.21C54.4097 138.843 55.1756 138.25 55.9729 138.481C56.6181 138.722 56.7964 139.488 56.6548 140.102C56.681 140.789 55.8627 141.371 55.3801 140.721C55.249 140.8 55.1231 140.878 54.9972 140.962C55.4641 141.245 55.9047 141.618 56.0463 142.163C56.2876 142.992 55.485 143.937 54.6773 143.328Z" fill="black"/>
<path d="M112.844 144.215C109.875 142.4 111.643 139.032 114.187 137.836C116.783 136.466 120.156 136.451 122.731 137.867C124.121 137.322 126.193 136.776 127.263 138.156C127.846 139.032 127.568 140.233 126.875 140.962C125.721 142.137 123.933 142.205 122.464 142.751C121.383 143.15 120.444 143.847 119.406 144.335C117.355 145.201 114.827 145.369 112.849 144.22L112.844 144.215ZM114.863 143.061C114.554 141.99 115.771 141.607 116.542 141.303C118.094 140.752 119.526 139.944 120.806 138.927C118.939 138.528 116.925 138.644 115.173 139.441C112.949 140.558 111.527 142.232 114.863 143.061ZM120.177 141.335C119.71 141.649 119.212 141.906 118.698 142.132C118.661 142.148 118.629 142.164 118.593 142.179C119.117 142.127 119.642 142.111 120.166 142.122C120.696 141.849 121.215 141.545 121.777 141.335C122.831 140.8 126.435 140.663 126.335 139.163L126.345 139.173C125.501 138.554 124.263 139.037 123.371 139.352C123.282 139.724 122.8 140.044 122.459 139.787C121.646 140.212 120.932 140.805 120.177 141.324V141.335Z" fill="black"/>
<path d="M115.456 142.94C115.367 139.819 121.646 139.058 123.985 139.2C121.855 140.202 119.437 141.009 117.365 142.153C117.108 142.342 116.835 142.531 116.652 142.798C116.615 143.585 115.645 143.748 115.451 142.935L115.456 142.94Z" fill="black"/>
<path d="M128.145 138.895C127.227 138.271 128.433 136.739 129.115 137.773C129.419 138.344 128.779 139.236 128.145 138.895Z" fill="black"/>
<path d="M129.325 139.089C129.047 139.058 128.931 138.733 128.921 138.502C128.9 138.045 129.277 137.741 129.566 137.442C129.513 136.954 129.839 136.346 130.389 136.398C130.631 136.246 130.862 136.041 131.14 135.958C132.21 135.795 132.231 137.274 131.36 137.699C131.313 137.909 131.218 138.072 131.035 138.198C130.877 138.303 130.694 138.323 130.515 138.302C130.337 138.428 130.159 138.56 129.986 138.691C129.923 139.011 129.618 139.131 129.325 139.095V139.089Z" fill="black"/>
<path d="M127.038 139.042C126.996 138.733 127.048 138.355 127.206 138.082C127.043 137.211 127.819 136.12 128.753 136.608C129.204 136.844 129.393 137.332 129.613 137.762C130.059 138.35 129.891 139.42 129.141 139.635C128.438 140.522 127.169 140.181 127.038 139.047V139.042Z" fill="black"/>
<path d="M98.2614 117.571C95.4132 115.43 93.0055 111.863 93.7032 108.17C93.892 107.645 94.5162 107.493 94.8572 107.965C95.025 108.196 95.1299 108.474 95.2401 108.736C95.8643 110.116 96.8714 111.281 97.9257 112.356C98.7965 113.227 99.9977 113.825 100.606 114.921C101.524 116.584 100.124 118.887 98.2614 117.571Z" fill="black"/>
<path d="M103.591 123.567C102.93 122.544 102.531 121.342 101.755 120.377C101.031 119.538 100.081 118.945 99.2265 118.258C96.9867 116.186 94.8885 113.432 94.4531 110.357C94.4898 109.953 94.9777 109.78 95.177 110.184C95.2662 110.389 95.2347 110.63 95.3553 110.835C96.3467 113.059 97.9675 115 99.9083 116.458C101.304 117.392 102.851 118.242 103.753 119.711C104.367 120.76 105.369 121.883 105.065 123.184C104.891 124.049 104.141 124.238 103.585 123.561L103.591 123.567Z" fill="black"/>
<path d="M106.313 121.757C106.339 120.388 107.95 120.393 107.976 121.757C107.95 123.126 106.339 123.121 106.313 121.757Z" fill="black"/>
<path d="M107.047 122.869C106.843 122.58 106.775 122.255 106.785 121.904C106.785 121.883 106.785 121.862 106.785 121.841C106.24 121.353 106.371 120.314 107.011 119.968C107.336 119.123 108.238 119.585 108.217 120.351C108.6 121.017 108.721 121.883 108.464 122.617C108.275 123.252 107.42 123.467 107.047 122.869Z" fill="black"/>
<path d="M107.063 119.527C106.518 118.84 106.077 118.027 106.103 117.13C106.103 116.773 106.103 116.275 106.486 116.107C107.005 115.944 107.168 116.61 107.425 116.91C107.829 117.392 108.516 117.665 108.726 118.294C109.214 119.506 108.028 120.797 107.058 119.527H107.063Z" fill="black"/>
<path d="M105.988 117.796C105.217 117.581 104.498 117.135 103.806 116.736C103.176 116.49 103.035 115.556 103.507 115.084C103.05 113.342 102.243 113.075 100.653 112.508C99.494 111.889 99.8717 109.487 101.33 109.691C102.222 109.901 102.914 110.53 103.512 111.186C103.926 111.595 104.446 111.942 104.724 112.466C104.955 113.138 105.206 113.804 105.652 114.365C106.15 115.026 107.016 115.488 107.131 116.369C107.242 117.056 106.748 117.912 105.988 117.801V117.796Z" fill="black"/>
<path d="M106.555 117.602C106.681 116.259 106.995 115.094 107.756 113.988C107.163 114.134 106.492 114.35 105.909 114.077C105.39 113.846 105.249 113.043 105.689 112.692C105.972 112.513 106.361 112.22 106.528 112.036C107.74 111.024 109.031 110.132 110.158 109.025C110.106 109.056 110.059 109.093 110.053 109.088C111.003 108.317 112.052 109.56 111.858 110.541C111.753 111.459 111.113 112.199 110.725 113.007C109.471 114.617 109.177 117.864 106.56 117.607L106.555 117.602Z" fill="black"/>
<path d="M101.64 129.08C101.33 128.823 101.503 128.346 101.509 128.005C101.425 126.782 101.467 125.565 101.907 124.411C102.138 123.42 102.306 122.413 102.547 121.421C102.584 121.248 102.647 120.996 102.862 120.97C103.072 120.933 103.224 121.159 103.219 121.353C103.161 123.247 102.82 125.098 102.395 126.935C102.311 127.407 102.458 129.463 101.65 129.08H101.64Z" fill="black"/>
<path d="M121.189 121.227C121.21 120.125 122.511 120.125 122.532 121.227C122.511 122.329 121.21 122.329 121.189 121.227Z" fill="black"/>
<path d="M110.095 131.362C109.014 130.832 109.046 129.4 108.915 128.361C108.925 127.318 108.102 125.906 108.957 125.067C109.277 124.799 109.618 124.988 109.969 125.036C110.389 125.025 110.798 124.983 111.217 124.988C111.8 124.962 112.387 125.009 112.969 125.02C113.74 124.873 114.464 124.558 115.204 124.296C118.089 123.352 120.559 121.505 122.846 119.554C123.334 119.123 123.256 117.287 124.058 117.487C124.278 117.571 124.373 117.786 124.457 117.99C124.834 119.029 125.139 120.314 124.499 121.311C123.45 122.706 122.138 123.929 120.685 124.899C118.624 126.394 116.185 127.155 113.688 127.522C112.712 127.737 111.815 127.202 110.866 127.071C111.233 127.821 111.17 128.65 111.28 129.437C111.7 130.25 111.154 131.708 110.095 131.367V131.362Z" fill="black"/>
<path d="M111.674 126.772C109.676 125.99 109.004 123.53 109.203 121.584C109.665 120.87 109.985 121.883 110.058 122.423C110.253 123.053 110.677 123.582 111.108 124.07C111.685 124.637 112.55 124.647 113.284 124.857C114.15 125.025 115.042 125.293 115.844 125.555C114.68 126.504 113.206 127.569 111.674 126.772Z" fill="black"/>
<path d="M98.3821 1.72442C97.8943 1.72442 97.4065 1.71916 96.9239 1.70866C96.4308 1.69817 95.9377 1.67718 95.4499 1.59849C95.2716 1.57226 95.0932 1.53555 94.9096 1.51457C94.747 1.50407 94.5844 1.49884 94.4218 1.48834C94.0599 1.46736 94.0651 0.82211 94.4218 0.801126C94.5844 0.790635 94.747 0.785363 94.9149 0.774871C95.13 0.743396 95.345 0.706705 95.5601 0.675229C95.8014 0.643753 96.0374 0.622767 96.2787 0.607029C96.7665 0.5808 97.2543 0.580774 97.7422 0.580774C98.2247 0.580774 98.7073 0.570282 99.1952 0.580774C99.6777 0.58602 100.16 0.612259 100.643 0.62275C102.746 0.669964 104.85 0.696201 106.953 0.696201C109.119 0.696201 111.286 0.701457 113.452 0.706703C115.645 0.706703 117.837 0.72243 120.03 0.727676C122.128 0.732922 124.231 0.738168 126.335 0.727676C126.45 0.727676 126.566 0.727676 126.681 0.727676C126.707 0.727676 126.734 0.722419 126.739 0.717174H126.749C126.749 0.717174 126.76 0.717174 126.77 0.717174H126.781C126.859 0.727665 126.922 0.743416 126.991 0.795875C127.263 1.0162 127.185 1.61424 126.817 1.64572C126.807 1.64572 126.791 1.64572 126.791 1.64572C126.749 1.65096 126.713 1.64572 126.676 1.64572C126.518 1.64047 126.356 1.64572 126.199 1.64572C125.926 1.64572 125.653 1.64571 125.38 1.64046C124.882 1.64046 124.384 1.64046 123.88 1.64046C122.81 1.64046 121.735 1.64046 120.659 1.64046C118.488 1.64046 116.316 1.64047 114.145 1.64572C111.973 1.64572 109.796 1.64571 107.625 1.64046C105.5 1.63522 103.381 1.65097 101.257 1.68769C100.785 1.69818 100.307 1.70343 99.8351 1.71917C99.4679 1.72966 99.1007 1.73489 98.7336 1.73489C98.6182 1.73489 98.508 1.73489 98.3926 1.73489L98.3821 1.72442Z" fill="black"/>
<path d="M126.922 6.56641C126.859 4.66213 126.33 2.68442 126.498 0.806378C126.854 0.559818 126.922 1.22604 127.012 1.44637C127.505 3.11458 127.143 4.91394 126.922 6.56641Z" fill="black"/>
<path d="M127.038 7.98282C127.001 5.64313 126.686 3.34539 126.67 1.01094C127.158 0.0614277 127.295 3.17227 127.342 3.43982C127.441 4.95065 127.232 6.52967 127.038 7.98804V7.98282Z" fill="black"/>
<path d="M126.923 8.17169C127.08 5.77429 126.692 3.37163 126.765 0.974238C127.295 0.192593 127.368 3.60246 127.384 3.89623C127.431 5.32837 127.211 6.81823 126.923 8.17169Z" fill="black"/>
<path d="M126.917 8.33428C126.56 6.04181 126.198 3.73884 126.125 1.41489C126.135 1.33095 126.204 1.2208 126.303 1.22604C126.408 1.23129 126.455 1.32046 126.476 1.40964C126.571 1.67718 126.629 1.96047 126.681 2.24375C127.069 4.23721 126.954 6.34607 126.917 8.33428Z" fill="black"/>
<path d="M126.686 7.57889C126.456 5.9474 126.088 4.35788 126.088 2.70017C126.12 2.44836 125.873 1.15787 126.351 1.46213C126.791 3.4451 126.901 5.59067 126.686 7.57889Z" fill="black"/>
<path d="M126.917 9.8661C127.242 6.84968 126.917 3.75457 126.802 0.780126C126.985 0.612255 127.095 0.916541 127.116 1.06343C127.846 3.95394 127.652 7.03329 126.917 9.8661Z" fill="black"/>
<path d="M129.592 59.8967C129.404 59.7551 129.482 59.4822 129.456 59.2724C129.472 58.9524 129.393 58.6114 129.446 58.3019C129.76 57.9504 129.792 58.7006 129.807 58.9C129.786 59.157 130.028 59.9806 129.592 59.8967Z" fill="black"/>
<path d="M129.786 60.2796C129.755 60.2639 129.734 60.2377 129.713 60.2114C129.241 60.3583 129.461 59.3668 129.393 59.0888C129.424 58.8265 129.34 58.5275 129.435 58.2914C129.624 58.1393 129.692 58.4592 129.713 58.5956C129.728 58.5379 129.755 58.4855 129.807 58.4383C129.854 58.3911 129.928 58.3806 129.991 58.4015C130.143 57.9294 130.536 58.2494 130.484 58.6219C130.515 58.9996 130.316 60.416 129.791 60.2849L129.786 60.2796Z" fill="black"/>
<path d="M129.854 60.2219C129.723 60.1695 129.713 59.9806 129.776 59.8652C130.221 58.7425 130.048 57.5465 130.159 56.3871C130.956 57.4625 130.757 58.9681 130.064 60.0803C130.064 60.1852 129.954 60.2796 129.854 60.2219Z" fill="black"/>
<path d="M129.907 60.0803C129.933 59.3301 130.08 58.5852 130.064 57.835C130.012 57.3052 129.928 56.7439 130.064 56.2298C130.531 56.7281 130.61 57.4205 130.584 58.0763C130.552 58.7583 130.4 59.4193 130.253 60.0803C130.258 60.3636 129.891 60.3688 129.902 60.0803H129.907Z" fill="black"/>
<path d="M129.267 59.8232C129.125 59.8022 129.099 59.5924 129.183 59.4927C129.125 58.3176 129.162 57.1058 129.22 55.9517C129.702 57.1216 129.949 58.433 129.503 59.6553C129.456 59.755 129.382 59.8442 129.267 59.8232Z" fill="black"/>
<path d="M128.381 53.9425C128.271 53.8638 128.323 53.7065 128.344 53.6068C128.386 53.1924 128.449 52.7517 128.596 52.3845C128.743 52.8251 128.811 53.3025 128.659 53.7536C128.622 53.8743 128.517 54.0474 128.381 53.9425Z" fill="black"/>
<path d="M128.449 54.3307C128.344 54.2678 128.302 54.1313 128.318 54.0159C128.459 53.4651 128.449 52.8933 128.501 52.3372C128.459 52.2271 128.512 52.0382 128.653 52.0644C128.816 52.1221 128.8 52.353 128.9 52.4789C129.063 52.7307 128.921 54.5773 128.449 54.3307Z" fill="black"/>
<path d="M128.454 53.9058C128.391 53.8533 128.391 53.7484 128.433 53.6854C128.501 53.2185 128.36 52.7045 128.622 52.2796C128.926 52.5314 128.9 52.9825 128.821 53.3445C128.764 53.5229 128.743 54.0841 128.454 53.9058Z" fill="black"/>
<path d="M128.239 54.4828C128.165 54.3307 128.092 54.1786 128.04 54.0212C128.013 53.9372 127.992 53.8533 127.977 53.7694C127.777 53.1661 127.804 52.4264 127.699 51.7811C127.667 51.5031 128.05 51.2985 128.192 51.5976C128.318 52.5313 128.564 53.57 128.244 54.4828H128.239Z" fill="black"/>
<path d="M128.475 53.911C128.627 52.8881 128.528 51.7602 128.57 50.7425C129.005 51.5871 129.278 52.5471 128.942 53.4808C128.9 53.6697 128.695 54.2258 128.475 53.911Z" fill="black"/>
<path d="M80.3905 129.495C79.8765 127.685 80.2961 125.634 80.4115 123.808C80.5164 125.628 80.5427 127.454 80.7158 129.259C80.7892 129.453 80.5479 129.704 80.3905 129.489V129.495Z" fill="black"/>
<path d="M80.4011 129.741C80.1388 129.552 80.0759 129.206 79.9919 128.912C79.63 127.249 79.9185 125.534 79.9919 123.86C80.1913 125.508 80.2909 127.312 80.6843 128.959C81.0148 129.169 80.8627 130.014 80.4011 129.741Z" fill="black"/>
<path d="M80.3378 129.447C79.4671 127.449 79.7765 125.109 79.9549 123.037C80.0283 124.626 80.0755 126.247 80.343 127.79C80.3798 128.34 80.7102 128.902 80.642 129.447C80.5843 129.578 80.3955 129.584 80.3378 129.447Z" fill="black"/>
<path d="M87.0207 130.575H86.9578C86.9578 130.575 86.9158 130.575 86.9001 130.57C86.727 130.559 86.5591 130.554 86.386 130.544C85.9769 130.523 85.5677 130.491 85.1586 130.46C84.6498 130.423 84.1462 130.381 83.6374 130.329C83.1181 130.276 82.5988 130.197 82.0795 130.15C81.7438 130.119 81.4081 130.087 81.0776 130.045C80.9885 130.035 80.8993 130.024 80.8049 130.003C80.7629 129.993 80.721 129.972 80.6738 129.961C80.6161 129.951 80.5741 129.935 80.5426 129.883C80.5059 129.82 80.5111 129.741 80.5531 129.683C80.5898 129.636 80.6318 129.62 80.679 129.62C80.7314 129.62 80.7892 129.599 80.8469 129.594C80.915 129.589 80.9885 129.594 81.0567 129.589C81.2927 129.589 81.5235 129.589 81.7595 129.599C82.0218 129.605 82.2841 129.62 82.5516 129.62C82.8191 129.62 83.0866 129.62 83.3594 129.62C83.8735 129.62 84.3875 129.641 84.9016 129.662C85.3474 129.683 85.7933 129.704 86.2339 129.731C86.4752 129.746 86.7165 129.767 86.9578 129.783C86.9682 129.783 86.984 129.783 86.9945 129.783C87.0155 129.783 87.0259 129.783 87.0259 129.783C87.0364 129.783 87.0522 129.783 87.0627 129.783C87.1466 129.794 87.2095 129.825 87.2672 129.888C87.3354 129.972 87.3669 130.087 87.3617 130.192C87.3512 130.365 87.2358 130.58 87.0417 130.58C87.0364 130.58 87.0312 130.58 87.0259 130.58L87.0207 130.575Z" fill="black"/>
<path d="M81.1037 128.687C81.1352 128.834 80.9778 128.991 80.8414 128.886C80.7627 128.797 80.7051 128.692 80.6579 128.582C80.511 128.23 80.5005 127.805 80.4375 127.438C80.3169 126.347 80.3431 125.224 80.4271 124.117C80.4795 123.373 80.5582 122.638 80.6264 121.925C80.6946 123.409 80.726 124.904 80.8362 126.394L80.8572 126.636C80.8677 126.761 80.8782 126.882 80.8887 127.008C80.8991 127.15 80.9149 127.291 80.9306 127.428C80.9463 127.564 80.9621 127.695 80.9778 127.826C80.9883 127.937 81.0041 128.047 81.0198 128.152C81.0408 128.33 81.0722 128.508 81.0985 128.681L81.1037 128.687Z" fill="black"/>
<path d="M108.915 128.361C108.936 128.508 108.946 128.666 108.962 128.828C107.829 128.372 106.712 128.283 106.151 129.836C106.602 130.287 107.252 130.255 107.845 130.224C108.317 130.344 108.747 130.575 109.167 130.832C106.743 130.649 104.315 130.486 101.881 130.36H101.86C101.828 130.36 101.802 130.35 101.776 130.35C101.891 129.872 102.007 129.395 102.117 128.918C102.227 128.718 102.279 128.398 102.311 128.068C102.463 127.401 102.61 126.735 102.762 126.069C103.145 125.985 103.318 125.644 103.318 125.293C104.792 126.19 106.512 126.457 108.212 126.499C108.28 126.798 108.401 127.139 108.579 127.522C108.705 127.784 108.805 128.068 108.915 128.351V128.367V128.361Z" fill="white"/>
<path d="M121.263 37.0821C121.263 37.0821 121.31 37.0453 121.336 37.0244C121.184 37.4703 121.152 37.9581 121.179 38.4198C121.305 41.5411 120.659 44.4631 119.637 47.2854C119.637 47.3012 119.626 47.3169 119.626 47.3326C119.605 47.4428 119.574 47.5477 119.542 47.6579C119.469 47.9097 119.38 48.1562 119.28 48.4028C119.175 48.6651 119.065 48.9274 118.96 49.1949C118.897 49.3418 118.844 49.4992 118.771 49.6408C118.782 49.6251 118.787 49.6094 118.797 49.5936C118.519 50.1917 118.231 50.7792 117.948 51.372C117.864 51.5504 117.769 51.7287 117.675 51.9071C117.622 52.0067 117.57 52.1064 117.517 52.2061C117.418 52.4159 117.318 52.6205 117.213 52.8303C117.197 52.8461 117.187 52.8619 117.171 52.8724L117.087 53.0297C116.961 53.3025 116.83 53.57 116.704 53.8376H116.715C116.652 53.953 116.594 54.0737 116.531 54.1943C116.306 54.677 116.07 55.1491 115.828 55.6212C115.629 56.0199 115.43 56.4134 115.225 56.8068C114.291 58.6849 113.4 60.5681 112.676 62.4881C111.915 63.957 112.088 65.5361 112.303 67.1046C112.382 69.3236 111.994 71.4272 111.123 73.4994C107.625 80.8909 104.131 75.8705 103.607 70.7452C103.596 70.7033 103.586 70.6666 103.575 70.6299C103.444 70.1367 103.449 69.6331 103.491 69.1295C103.512 68.862 103.554 68.5997 103.596 68.3321C103.612 68.2325 103.628 68.1276 103.649 68.0279C103.685 67.8705 103.711 67.6974 103.795 67.5557C103.801 67.5243 103.816 67.498 103.837 67.4718C104.215 66.4016 104.876 65.4311 105.364 64.4029C106.387 62.2363 107.221 59.9596 107.609 57.5884C107.792 56.2507 108.144 52.8933 106.35 52.5838C105.521 52.61 105.453 54.0002 106.166 54.2573C106.864 57.8088 104.928 61.7432 103.344 64.8646C103.035 65.3472 102.783 65.8508 102.584 66.3754C102.578 66.3544 102.568 66.3334 102.557 66.3125C101.199 64.0147 99.8404 61.6908 98.314 59.4455C99.6568 54.2573 101.125 49.1058 101.944 43.8074C102.206 42.1864 102.447 40.5601 102.62 38.9286C102.652 38.509 102.715 38.0788 102.746 37.6486C104.876 38.5667 107.483 38.8342 109.602 39.0231C113.547 39.2591 117.612 38.5719 121.257 37.0768L121.263 37.0821Z" fill="white"/>
<path d="M129.849 61.738C130.012 62.1105 129.603 62.4777 129.419 62.7767C127.085 65.3787 123.99 67.2515 120.701 68.3846C120.03 68.6154 119.358 68.841 118.677 69.0456C117.355 69.0561 116.038 69.0718 114.716 69.0981C114.48 69.0981 114.239 69.0981 113.998 69.0981C114.061 68.2482 114.05 67.3984 113.987 66.5538C113.966 65.9348 113.746 65.3105 113.804 64.6967C113.84 64.7177 113.882 64.7335 113.919 64.744C113.919 64.723 113.919 64.7073 113.919 64.6915C113.919 64.5866 113.929 64.4816 113.929 64.382C113.935 64.1879 113.94 63.9833 113.982 63.7944C114.029 63.6056 114.118 63.4167 114.255 63.2698C114.879 61.6016 115.629 59.9806 116.421 58.3859C119.28 58.5747 121.478 56.0881 124.216 55.5321C125.721 55.1858 127.998 54.7819 128.926 56.361C129.073 56.7124 129.12 57.0901 129.157 57.4678C129.141 58.0606 129.141 58.6587 129.167 59.2462C127.279 58.1341 124.95 58.2495 122.973 59.0836C121.142 59.797 119.542 60.9721 117.874 61.9846C116.888 62.7085 115.288 63.0443 115.078 64.4292C116.012 65.3735 117.224 64.2194 118.115 63.7577C120.754 62.1944 123.361 59.9491 126.629 60.1065C127.819 60.2691 129.11 60.7203 129.849 61.7432V61.738Z" fill="white"/>
<path d="M127.756 52.2324C127.788 52.5576 127.809 52.8985 127.856 53.2185C124.525 52.3425 119.191 54.8028 116.956 57.3261C117.769 55.7104 118.608 54.1051 119.385 52.4789C120.67 51.7655 121.944 51.031 123.308 50.5379C123.744 50.4067 124.195 50.3385 124.641 50.3385C125.994 50.3385 127.269 50.9576 127.756 52.2324Z" fill="white"/>
<path d="M125.942 48.3975C125.942 48.45 125.952 48.5025 125.963 48.5549C124.976 48.2769 123.891 48.2821 122.899 48.6493C122.06 48.9116 121.299 49.3104 120.591 49.793C120.854 49.1635 121.1 48.5234 121.326 47.8782C122.071 47.6159 122.847 47.4585 123.639 47.4585C124.069 47.4585 124.499 47.5005 124.929 47.6054C125.328 47.747 125.858 47.9307 125.942 48.4028V48.3975Z" fill="white"/>
<path d="M120.806 138.927C120.528 139.147 120.245 139.357 119.956 139.556C118.293 139.908 116.662 140.537 115.902 141.56C115.251 141.843 114.637 142.263 114.868 143.061C111.527 142.232 112.948 140.558 115.178 139.441C116.93 138.644 118.939 138.528 120.811 138.927H120.806Z" fill="#FCFA68"/>
<path d="M126.324 139.173C126.414 140.663 122.826 140.805 121.766 141.335C121.21 141.544 120.686 141.844 120.161 142.122C119.636 142.116 119.112 142.132 118.587 142.179C118.624 142.163 118.656 142.148 118.692 142.132C119.206 141.901 119.699 141.644 120.172 141.335C120.769 140.925 121.341 140.469 121.955 140.086C122.149 140.007 122.343 139.929 122.537 139.845C122.82 139.981 123.167 139.782 123.314 139.509C123.539 139.409 123.765 139.31 123.985 139.205C123.938 139.205 123.891 139.2 123.838 139.2C124.656 138.921 125.621 138.675 126.324 139.173Z" fill="#FCFA68"/>
<path d="M87.2567 95.9205C86.9944 94.053 86.2601 95.4956 86.1971 96.4766C85.9978 99.0419 85.1952 101.675 85.6201 104.235C85.7565 104.466 85.9086 104.555 86.0607 104.555C86.5118 104.555 86.9839 103.774 87.2305 103.417C86.9105 103.553 86.5066 104.01 86.1132 103.978C86.5433 101.313 87.1465 98.6274 87.2567 95.9205ZM91.0281 127.994C92.3657 127.994 93.7033 127.874 94.9779 127.585C93.504 127.113 92.0667 126.662 90.4983 126.452C89.0086 126.3 87.5662 126.253 86.066 126.074C85.8142 126.074 85.4628 126.027 85.0798 125.969C84.015 125.817 82.7194 125.665 82.7614 126.835C82.7981 127.15 83.0761 127.58 83.4538 127.475C85.1952 127.297 86.9 127.821 88.652 127.874C89.4335 127.952 90.2256 127.994 91.0176 127.994H91.0281ZM91.5107 123.771C92.8116 123.771 94.1177 123.698 95.3871 123.603C93.8607 122.9 92.2398 122.392 90.556 122.281C89.3496 122.197 88.0592 122.155 86.8685 121.82C86.0922 121.61 85.3001 121.662 84.5081 121.715C83.7528 121.762 82.9974 121.814 82.2421 121.641C81.791 121.295 81.3399 121.725 81.4081 122.229C81.5916 123.178 83.3751 123.142 84.7494 123.11C85.2739 123.1 85.746 123.084 86.0397 123.126C86.921 123.31 87.7917 123.593 88.6992 123.645C89.6276 123.74 90.5665 123.782 91.5107 123.782V123.771ZM108.322 101.282C108.322 100.128 108.422 98.8005 107.95 97.7041C107.373 96.8753 106.675 98.255 107.32 98.6694C107.572 99.5717 107.918 100.432 108.317 101.282H108.322ZM112.933 97.3265C112.964 96.8596 112.739 96.2248 112.172 96.2248C110.378 96.2458 112.183 102.767 112.351 103.968C112.582 101.738 112.77 99.577 112.928 97.3212L112.933 97.3265ZM122.275 99.8183C122.558 100.285 122.81 100.836 123.093 101.271C122.931 100.537 123.135 99.1205 122.249 98.8687C121.955 98.7953 121.724 99.0733 121.567 99.2727C121.236 99.6504 120.916 100.033 120.602 100.427C120.151 100.93 119.647 101.875 118.855 101.66C118.173 101.187 118.121 100.175 117.423 99.6871C115.776 98.6694 114.265 101.89 114.638 103.223C115.236 102.903 115.666 102.268 115.991 101.67C116.211 101.387 116.453 100.742 116.883 100.857C118.776 104.954 120.754 102.719 122.275 99.8235V99.8183ZM131.832 126.861C130.28 126.515 128.695 126.3 127.106 126.42C126.015 126.441 124.971 126.578 123.896 126.321C123.366 125.67 122.674 126.594 123.036 127.15C123.377 127.79 124.237 127.753 124.866 127.816C125.233 127.826 125.595 127.837 125.968 127.837C127.972 127.837 130.017 127.632 131.837 126.861H131.832ZM135.326 103.947C135.499 103.685 135.577 103.37 135.52 103.065C135.425 102.284 134.507 102.551 134.103 102.94C133.752 102.058 133.563 100.259 132.456 100.091C132.052 100.075 131.743 100.416 131.559 100.742C131.003 101.403 130.489 102.667 129.482 102.641C129.493 102.641 129.503 102.646 129.519 102.651H129.535C129.535 102.651 129.545 102.656 129.556 102.662C129.54 102.662 129.524 102.656 129.514 102.651C129.508 102.651 129.498 102.651 129.493 102.651C129.288 102.562 129.147 102.357 129.084 102.137C128.748 100.962 128.884 99.8602 128.774 98.5959C128.753 98.0661 128.076 97.8982 127.814 98.3599C127.437 99.3094 127.463 100.416 127.489 101.429C127.589 101.324 127.678 101.135 127.767 100.999C127.725 102.326 128.244 104.498 129.986 104.115C131.129 103.784 131.717 102.625 132.399 101.738C132.593 102.2 132.724 102.693 132.855 103.176C132.997 103.732 133.112 104.498 133.773 104.666C133.846 104.687 133.92 104.697 133.993 104.697C134.486 104.697 134.932 104.288 135.184 103.889C135.231 103.91 135.278 103.952 135.326 103.957V103.947ZM142.003 72.062C142.003 72.1721 142.003 72.2719 141.993 72.3558C141.751 76.5473 140.534 80.5971 139.312 84.5893C138.447 87.2805 137.56 90.2706 136.511 92.9618C136.259 93.3552 136.175 93.7802 136.233 94.2523C136.233 94.4517 136.233 94.651 136.233 94.8504C135.992 94.8399 135.756 94.8294 135.52 94.8189C133.112 94.7192 130.704 94.609 128.302 94.4831C121.1 94.0739 113.909 93.67 106.722 93.0877C102.631 92.71 98.592 92.3743 94.4849 91.9808C92.6437 91.8234 90.855 91.6451 88.9772 91.5297C88.1641 91.5192 86.7531 91.2621 86.643 92.3953C86.4437 93.072 87.2829 93.8274 87.7655 93.1297C92.051 93.2399 96.1844 93.8221 100.496 94.1631C100.512 94.1631 100.528 94.1631 100.543 94.1631C112.356 95.2648 124.237 96.0097 136.102 96.5081C136.144 96.5343 136.186 96.5605 136.238 96.5763C136.223 99.7186 136.186 102.866 136.008 105.998C135.745 109.57 135.499 113.153 135.247 116.736C134.397 116.621 133.542 116.527 132.692 116.453C131.213 116.327 129.729 116.233 128.25 116.285C127.736 116.327 127.547 117.083 128.008 117.334C130.379 117.487 132.829 117.23 135.221 117.051C135.084 119.029 134.937 121.007 134.78 122.974C132.231 122.397 129.65 121.967 127.038 121.914C126.776 121.993 126.644 122.334 126.644 122.575C126.676 123.399 127.568 123.399 128.333 123.394C128.601 123.394 128.853 123.394 129.052 123.425C129.209 123.425 129.372 123.425 129.535 123.425C131.287 123.425 133.086 123.268 134.775 122.969C134.743 123.42 134.707 123.876 134.67 124.327C134.534 127.076 134.114 129.893 134.334 132.621C134.355 132.679 134.376 132.731 134.397 132.779C133.825 132.883 133.254 132.978 132.677 133.041C132.593 132.674 132.351 132.369 131.942 132.359C131.596 132.348 131.25 132.333 130.904 132.317C124.709 132.118 118.535 131.572 112.366 131.074C112.519 130.135 112.298 128.645 112.136 127.386C112.639 127.527 113.148 127.632 113.678 127.517C113.909 127.485 114.134 127.443 114.365 127.407C115.11 127.333 115.844 127.16 116.547 126.893C117.628 126.567 118.677 126.137 119.652 125.565C122.474 124.6 125.323 122.413 125.375 119.307C125.291 118.174 124.614 117.219 124.137 116.228C123.607 115.651 122.884 116.443 123.078 117.046C123.067 117.466 122.884 117.859 122.731 118.247C122.38 119.024 121.971 119.784 121.504 120.508C121.394 120.582 121.305 120.702 121.247 120.86C119.406 122.297 117.423 123.561 115.199 124.296C114.785 124.443 114.375 124.6 113.961 124.742C113.709 124.778 113.458 124.81 113.206 124.836C112.707 124.705 112.162 124.653 111.685 124.453C111.616 124.406 111.543 124.369 111.459 124.343C111.333 124.27 111.218 124.186 111.108 124.076C110.746 123.666 110.389 123.231 110.169 122.727C114.187 120.959 116.301 118.73 118.1 115.839C121.226 111.879 123.634 106.879 125.176 103.459C125.506 102.751 125.024 101.203 124.064 101.796C123.434 102.268 123.167 103.039 122.794 103.7C122.06 105.211 121.037 106.507 119.888 107.703C119.846 107.703 119.794 107.708 119.742 107.713C119.395 107.776 119.107 108.002 118.907 108.285C118.635 108.673 118.362 109.056 118.089 109.445C117.685 109.817 117.276 110.184 116.872 110.546C114.202 112.959 111.506 115.346 108.894 117.822C108.773 117.843 108.658 117.891 108.553 117.959C108.385 117.723 108.144 117.539 107.913 117.35C109.335 116.574 109.728 114.271 110.719 112.996C111.108 112.188 111.748 111.448 111.852 110.53C112.046 109.549 111.003 108.311 110.048 109.077C110.058 109.077 110.1 109.046 110.148 109.014C109.151 109.995 108.029 110.803 106.943 111.674C106.224 111.108 105.374 110.688 104.514 110.457C103.554 110.142 102.442 109.534 101.419 109.702C101.388 109.691 101.356 109.686 101.325 109.675C100.354 109.539 99.8614 110.562 99.9821 111.438V111.448C100.035 112.445 100.921 113.452 101.954 113.757C101.939 114.612 102.227 115.462 102.725 116.144C101.084 115.157 99.788 113.668 98.5081 112.188C97.8472 111.092 97.223 109.969 96.5673 108.909C95.2664 106.869 94.2331 104.687 93.6666 102.326C93.5984 101.854 93.2994 101.382 92.9165 101.156C92.7958 100.789 92.6699 100.422 92.5493 100.049C92.4601 99.813 92.329 99.6609 92.1821 99.5717C92.2556 99.4721 92.35 99.3881 92.4654 99.3304C93.5774 99.834 93.9026 101.303 94.9674 101.906C96.4099 102.562 96.84 100.547 96.9082 99.5035C97.2859 100.589 97.5167 101.754 98.1147 102.751C99.7513 104.944 101.498 102.383 102.012 100.694C102.62 102.105 103.449 103.417 104.388 104.624C104.105 103.475 103.769 102.352 103.402 101.187C103.135 100.505 103.04 99.7081 102.558 99.1415C101.949 98.5907 101.325 99.0733 101.147 99.7448C100.853 100.547 99.7827 103.317 98.8753 101.502C98.2196 100.107 98.036 98.4963 97.1548 97.2163C96.6984 96.6078 95.9955 97.3684 95.9798 97.914C95.8329 98.7796 95.8224 99.6609 95.4657 100.479C94.5583 99.813 94.081 98.617 93.0214 98.1186C90.9547 97.3474 90.8288 100.731 90.1521 101.964C89.9633 100.254 89.7955 98.5487 89.6538 96.8333C89.5437 96.2458 89.6906 95.5481 89.3548 95.0287C88.8723 94.4307 88.3582 95.2701 88.5051 95.7737C88.6625 97.7357 88.8093 99.6976 89.0034 101.66C89.0559 102.467 89.1818 104.393 90.4249 103.732C90.8498 103.37 91.0753 102.856 91.2537 102.315C91.7677 106.57 92.4391 110.987 95.2035 114.355C96.0323 115.593 97.1076 116.684 98.2511 117.544C98.4451 117.681 98.634 117.78 98.8123 117.843C98.9487 117.974 99.0851 118.106 99.2215 118.232C99.9243 118.798 100.685 119.296 101.335 119.921C101.792 120.697 102.117 121.568 102.301 122.444C102.164 123.095 102.043 123.745 101.891 124.39C101.828 124.558 101.776 124.726 101.729 124.894C101.01 126.1 101.362 129.138 101.629 130.313C94.8206 129.552 87.9648 129.112 81.172 128.141C81.1195 128.131 81.0671 128.131 81.0146 128.136C80.9989 128.026 80.9832 127.916 80.9727 127.811C80.9569 127.679 80.9412 127.548 80.9255 127.412C80.9097 127.27 80.894 127.129 80.8835 126.992C80.873 126.866 80.8625 126.746 80.852 126.62L80.8311 126.378C81.5339 123.163 81.2822 119.763 81.4867 116.479C81.8959 108.028 82.1739 99.4668 83.994 91.1835C86.6744 90.5277 85.9925 72.1879 86.3964 68.5892C88.0225 68.6993 89.6853 68.6154 91.3009 68.7203C94.8678 68.82 98.4451 68.8777 102.007 69.1295C101.939 70.2626 102.038 71.4062 102.274 72.5026C102.537 73.7249 102.872 74.9105 103.397 76.0489C103.874 77.182 104.577 78.3414 105.715 78.9027C110.2 80.9958 112.881 74.9682 113.646 71.4534C113.662 71.38 113.678 71.3066 113.694 71.2384C113.725 71.2646 113.756 71.2909 113.793 71.3066C114.045 71.4482 114.333 71.4692 114.617 71.4692C115.834 71.3853 117.056 71.1964 118.257 70.9184C126.172 71.1492 134.093 71.3958 141.998 72.0305L142.003 72.062Z" fill="#0ECF95"/>
<path d="M105.584 34.9469C105.778 32.7541 106.261 30.5456 106.003 28.3109C105.794 26.16 106.019 23.8833 105.332 21.8164C105.012 21.1816 104.257 21.0872 103.905 21.7377C103.858 21.8321 103.821 21.937 103.8 22.0419C103.8 22.1941 103.8 22.3462 103.8 22.4983C103.827 22.6505 103.884 22.7974 103.968 22.9233C104.021 23.3324 104.063 23.7416 104.089 24.1508C104.456 27.7181 103.648 31.7417 105.584 34.9469ZM110.279 32.9273C110.415 31.642 110.357 30.3567 110.289 29.0715C110.247 27.6289 110.184 26.1915 110.095 24.7541C110.058 24.0721 110.074 23.3482 109.743 22.7344C108.972 21.5226 107.897 23.3167 108.579 24.0669C108.899 26.9941 107.992 33.9974 110.032 35.9332C109.801 34.9679 110.226 33.9555 110.273 32.9273H110.279ZM114.003 36.5889C113.667 33.9765 114.317 31.3692 114.097 28.6623C114.055 27.0361 113.94 25.4046 113.977 23.7784C114.097 23.4898 114.06 23.1279 113.882 22.8708C113.693 22.598 113.295 22.4826 113.032 22.7239C112.76 22.9705 112.665 23.3115 112.639 23.6682C112.576 24.7069 112.628 25.7561 112.639 26.8C112.665 28.8774 112.76 30.9548 113.043 33.0164C113.263 34.2178 113.284 35.5555 113.998 36.5837L114.003 36.5889ZM117.858 34.8263C117.412 32.7699 117.874 30.5246 117.654 28.4C117.549 26.8158 117.423 25.2315 117.181 23.6629C117.124 23.0439 116.547 22.2885 116.017 22.9862C115.854 23.2538 115.818 23.5947 115.97 23.878C116.111 24.7646 116.153 25.6616 116.227 26.5534C116.326 28.2951 116.5 30.042 116.814 31.7679C117.045 32.8066 117.166 33.9607 117.853 34.8263H117.858ZM121.021 9.13691C122.28 8.15592 123.067 6.20445 121.981 4.83001C120.885 5.82674 119.988 7.05429 118.739 7.8779C115.86 9.76644 112.864 11.4871 109.827 13.1081C107.981 14.1363 105.143 15.6209 103.412 17.5094C103.397 17.5514 103.365 17.5829 103.328 17.6039C103.25 17.693 103.171 17.7822 103.098 17.8767C103.071 17.9501 103.045 18.0183 103.024 18.0865L102.987 18.2019C102.951 18.3121 102.914 18.417 102.877 18.5272C102.772 18.8524 102.667 19.1776 102.573 19.5029C102.552 19.5711 102.531 19.634 102.515 19.7022C102.447 19.9278 102.384 20.1586 102.321 20.3842C102.232 20.6937 102.138 21.0032 102.048 21.3075L102.017 21.6013C102.064 21.8164 102.132 22.0367 102.227 22.2623C102.064 22.3619 101.954 22.5298 101.875 22.7344C101.828 23.1016 101.776 23.4636 101.713 23.8255C101.697 24.1875 101.697 24.5338 101.66 24.7646C101.498 27.8702 101.503 31.0072 102.174 34.0604C102.867 30.6977 102.877 27.2669 102.966 23.8518C102.987 23.8361 103.014 23.8203 103.035 23.7993C103.035 23.7311 103.035 23.6629 103.045 23.5947C103.045 23.4583 103.056 23.3167 103.066 23.1751C103.071 23.0492 103.082 22.9285 103.087 22.8026C103.087 22.7869 103.087 22.7711 103.087 22.7554C103.108 22.4511 103.134 22.1416 103.155 21.8373C103.171 21.6223 103.192 21.4072 103.208 21.1921C103.218 21.0872 103.229 20.9822 103.244 20.8773C103.26 20.7409 103.276 20.5941 103.323 20.4682C103.365 20.3632 103.465 20.2898 103.575 20.2898C103.601 20.2268 103.627 20.1691 103.659 20.1062C107.425 21.5646 111.474 22.2518 115.487 22.598C115.666 22.6085 115.839 22.6085 116.012 22.6085C117.942 22.6085 119.93 22.1469 121.614 21.2656C117.612 20.4944 113.504 20.6098 109.497 19.8544C107.892 19.5869 106.297 19.2196 104.745 18.7213H104.718C106.407 17.1265 109.271 15.9462 110.735 15.1173C114.244 13.297 117.863 11.5186 121.011 9.12119L121.021 9.13691ZM126.125 5.61165C126.204 7.66806 125.999 9.7297 125.495 11.7284C124.871 14.7343 123.303 17.3416 122.285 20.2373C121.803 21.9685 122.626 23.7521 122.6 25.52C122.679 27.2617 122.652 28.9456 122.495 30.7397C122.301 31.8728 122.243 33.284 121.74 34.3909C122.065 30.9758 122.81 22.4144 121.404 22.5298C121.068 22.4826 120.869 22.8341 120.827 23.1174C121.121 26.9574 121.126 30.9076 121.535 34.7896C121.31 35.1568 121.016 35.4821 120.628 35.7234C117.606 36.7411 114.38 37.2814 111.186 37.2342C107.855 37.0243 102.101 36.8145 100.464 33.3942C100.092 28.4787 100.417 23.4374 99.9765 18.5062C100.071 18.3068 100.092 18.0498 100.008 17.7822C99.5884 17.0478 98.6966 16.6911 98.0777 16.1193C96.2313 14.7081 94.3639 13.0661 93.724 10.7422C93.1155 8.4969 93.1837 5.94216 94.0282 3.72313C94.044 3.65493 94.0649 3.59198 94.0859 3.52378C94.1121 3.44509 94.1384 3.36114 94.1698 3.28245C94.1908 3.2195 94.2275 3.14606 94.2538 3.08311C94.301 2.97819 94.3482 2.87851 94.4059 2.77883C94.4793 2.65293 94.558 2.5218 94.6472 2.40114C94.6577 2.3854 94.6629 2.3749 94.6682 2.35916C94.6682 2.35916 94.6682 2.35916 94.6734 2.35916C94.6734 2.35392 94.6839 2.34344 94.6891 2.33819C94.7311 2.28049 94.7731 2.22802 94.8203 2.17032C94.8622 2.11786 94.9094 2.06541 94.9567 2.0182C95.0668 1.91328 95.1822 1.81884 95.3081 1.74015C95.3396 1.71916 95.371 1.70867 95.4078 1.70342C95.4078 1.6667 95.4078 1.63522 95.3973 1.5985C95.3973 1.5985 95.4183 1.5985 95.434 1.5985C95.9218 1.67194 96.4149 1.69818 96.9079 1.70867C97.3958 1.71916 97.8836 1.71918 98.3662 1.72442C98.4816 1.72442 98.597 1.72442 98.7071 1.72442C99.0743 1.72442 99.4415 1.71916 99.8087 1.70342C100.281 1.68768 100.753 1.68244 101.23 1.67195C103.355 1.63522 105.474 1.6195 107.598 1.62475C109.77 1.62475 111.947 1.63522 114.118 1.62997C116.29 1.62997 118.461 1.6195 120.633 1.62475C121.708 1.62475 122.784 1.63 123.854 1.62475C124.352 1.62475 124.85 1.62475 125.354 1.62475C125.585 1.62475 125.815 1.62472 126.051 1.62997C125.999 1.95522 126.088 2.53228 126.072 2.68966C126.072 3.19327 126.104 3.6864 126.162 4.17952C126.036 4.64116 126.104 5.12902 126.114 5.60115L126.125 5.61165Z" fill="#3087FF"/>
<path d="M75.1135 127.27C75.124 127.585 75.1187 127.9 75.1082 128.215C74.6414 128.204 74.1535 128.34 73.7601 128.598C73.9752 129.075 74.3844 129.516 74.8984 129.668C74.9194 129.673 74.9351 129.678 74.9561 129.683C74.9404 129.778 74.9246 129.878 74.9089 129.977C74.8145 130.407 74.6991 130.837 74.5732 131.257C74.3844 131.792 74.1745 132.312 73.9333 132.826C73.3038 132.228 72.3124 131.976 71.5046 131.745C71.9557 132.558 72.6219 133.272 73.2986 133.927C73.2041 134.08 73.1045 134.232 73.0048 134.379C72.6691 134.83 72.3177 135.26 71.94 135.674C71.4417 136.178 70.9171 136.634 70.3559 137.059C70.2929 136.855 70.1618 136.687 69.9572 136.608C68.6406 134.3 67.4289 131.876 66.1648 129.547C66.3851 129.169 66.5949 128.792 66.5949 128.34C66.8729 128.298 67.0618 128.005 67.0932 127.732C67.1352 127.412 66.9883 127.129 66.7365 126.95C66.5005 126.63 66.3903 126.405 66.1753 126.001C65.8501 125.198 65.378 124.883 64.9846 124.936C63.133 123.047 61.1817 121.206 59.1254 119.485C59.0101 119.391 58.8684 119.275 58.7163 119.15C59.0101 118.856 59.3353 118.583 59.7024 118.347C61.1082 117.487 62.8182 116.747 64.5177 116.868C64.7275 116.91 64.9059 116.826 65.0265 116.684C64.78 117.376 64.9374 118.195 64.9321 118.919C65.058 120.876 65.4147 122.811 65.8238 124.726C65.9288 122.245 65.7504 119.664 65.9392 117.161C66.0127 117.009 66.0127 116.841 65.9655 116.689C66.1963 116.736 66.4166 116.789 66.6421 116.847C67.1772 116.993 67.7017 117.172 68.2158 117.376C68.7455 117.607 69.2543 117.87 69.7474 118.163C70.1461 118.415 70.5342 118.683 70.9067 118.971C71.1952 119.213 71.4731 119.464 71.7459 119.721C70.2982 120.875 68.263 123.85 67.9954 124.348V124.359C69.5376 123.137 71.043 121.841 72.6534 120.718C72.6953 120.771 72.7373 120.818 72.7793 120.87C73.094 121.295 73.3877 121.731 73.6552 122.182C73.8598 122.565 74.0486 122.948 74.227 123.341C74.4053 123.792 74.568 124.243 74.7096 124.71C74.7987 125.025 74.8617 125.35 74.9299 125.665C75.0138 126.195 75.0767 126.719 75.1135 127.255V127.27Z" fill="#FF709D"/>
<path d="M65.6191 138.764C65.9601 138.796 66.1542 138.407 66.1122 138.114C66.086 137.888 65.9391 137.668 65.7083 137.636C65.446 135.202 65.829 132.71 65.8237 130.26C65.2729 132.647 64.6068 135.239 64.7851 137.736C64.8585 138.192 65.1051 138.764 65.6244 138.764H65.6191ZM69.1703 137.809C68.9657 137.93 68.7611 138.04 68.5513 138.145C67.8589 138.46 67.156 138.712 66.4217 138.927C66.1227 139 65.8237 139.058 65.5247 139.11C62.5034 138.675 59.9698 136.561 58.3437 133.87C58.7004 133.781 59.0466 133.529 59.3718 133.382C60.893 132.542 62.3303 131.561 63.7046 130.512C61.8319 131.011 59.9436 131.782 58.1706 132.658C57.987 132.605 57.8402 132.658 57.7405 132.763C57.0062 131.257 56.5446 129.626 56.4187 128.041C56.2036 125.445 56.3925 122.402 57.8664 120.183C60.1691 121.809 62.4457 123.472 64.8323 124.983C64.4179 125.146 64.1452 125.749 64.3183 126.62C63.5577 126.772 62.3145 126.667 62.346 127.758C62.325 128.886 63.6049 128.765 64.397 128.729C64.3655 129.505 63.82 130.733 64.89 131.037C65.2834 131.121 65.5981 130.817 65.7293 130.46C65.7293 130.46 65.7345 130.46 65.7398 130.46C65.7817 130.281 65.8499 130.114 65.9286 129.956C66.5213 131.803 67.177 133.644 67.9428 135.428C68.3415 136.157 68.5933 137.164 69.1598 137.809H69.1703Z" fill="#FF709D"/>
<path d="M60.8251 139.026C60.8251 139.026 60.8041 139.026 60.7936 139.021H60.7883C60.7464 139.011 60.7044 139 60.6624 138.99C60.5575 138.963 60.4474 138.932 60.3372 138.906L60.0855 138.843C59.7235 138.722 59.2305 138.544 58.7426 138.344C58.365 138.166 57.9978 137.977 57.6306 137.778C57.3578 137.61 57.0798 137.442 56.8123 137.259C56.571 137.091 56.3297 136.907 56.0937 136.723C55.7685 136.44 55.459 136.152 55.1495 135.853C54.8243 135.496 54.5201 135.129 54.2158 134.756C53.9641 134.389 53.7228 134.022 53.4867 133.644C53.2821 133.256 53.0881 132.868 52.9045 132.469C52.8101 132.228 52.7052 131.992 52.6265 131.745C52.5583 131.53 52.4901 131.315 52.4271 131.1C52.3642 130.848 52.3065 130.601 52.2488 130.35C52.1754 129.904 52.1124 129.458 52.06 129.001C52.0442 128.666 52.0285 128.335 52.0337 127.999C52.0337 127.706 52.0547 127.412 52.0757 127.118C52.1177 126.751 52.1701 126.394 52.2331 126.032C52.338 125.555 52.4639 125.088 52.6002 124.616C52.7996 124.049 53.0251 123.509 53.2822 122.969C53.5444 122.481 53.8277 122.009 54.1319 121.547C54.5201 121.017 54.9397 120.519 55.3856 120.036C55.8891 119.543 56.4189 119.087 56.9854 118.662C57.2005 118.515 57.4155 118.373 57.6358 118.242C55.6426 120.456 54.8768 123.672 55.0026 127.013C55.0446 131.498 57.1585 136.335 60.8198 139.026H60.8251Z" fill="#FF709D"/>
</svg>
