<svg width="208" height="173" viewBox="0 0 208 173" fill="none" xmlns="http://www.w3.org/2000/svg">
<path d="M150.999 46.9131C151.572 46.2983 152.119 45.6204 152.403 44.8217C151.709 45.3209 151.383 46.1774 150.999 46.9131ZM153.853 43.3766C154.783 45.1422 153.343 47.034 152.156 48.2742C152.213 48.374 152.308 48.5054 152.297 48.621C152.014 49.3566 151.026 49.7718 150.316 49.4039C150.185 50.045 150.374 50.9174 149.744 51.3167C149.454 51.4849 149.139 51.343 148.966 51.0698C148.708 50.8228 148.677 50.3761 148.84 50.0713C148.882 47.549 149.57 44.6588 151.53 42.9352C152.261 42.3467 153.406 42.52 153.853 43.3713V43.3766Z" fill="#050505"/>
<path d="M125.15 44.3487C125.928 44.4906 126.169 45.447 125.833 46.0829C125.675 46.3877 125.371 46.5979 125.124 46.8238C124.588 47.3178 123.852 48.8943 123.074 47.8223C122.927 47.5438 122.937 47.1969 123.016 46.8974C123.053 46.7608 123.111 46.6399 123.179 46.5243H123.169C122.811 46.5243 122.449 46.519 122.091 46.519C122.228 46.9447 121.745 47.4755 121.361 47.0918C120.935 46.8133 120.42 46.7345 120.126 46.3141C119.122 44.023 122.938 44.5432 124.22 44.3487C124.525 44.3382 124.856 44.2962 125.155 44.3487H125.15Z" fill="#050505"/>
<path d="M121.971 34.9584C122.344 35.6678 123.227 36.8239 122.501 37.5438C122.202 37.7908 121.797 37.6437 121.624 37.3127C121.393 36.8345 121.256 36.3037 120.946 35.8676C119.989 35.0793 121.303 33.713 121.971 34.9584Z" fill="#050505"/>
<path d="M132.854 28.7573C134.157 27.8744 134.982 30.1182 133.963 30.896C133.18 31.5371 132.47 32.2991 131.561 32.7667C131.293 33.1188 130.82 33.2134 130.474 32.9296C129.071 31.3479 131.898 29.7714 132.854 28.7573Z" fill="#050505"/>
<path d="M136.096 25.2421C138.072 24.5747 138.051 28.374 137.846 29.5669C137.71 30.56 137.053 34.6326 135.46 33.2663L135.471 33.2874C134.746 32.4623 135.534 31.5112 135.786 30.6652C136.086 29.4198 136.391 28.0535 136.059 26.7871C135.749 26.6242 135.476 26.3929 135.497 25.9883C135.497 25.6678 135.728 25.2106 136.102 25.2368L136.096 25.2421Z" fill="#050505"/>
<path d="M27.7441 97.1709C28.9737 96.2776 33.7768 94.4226 32.2634 92.4467C31.4278 91.338 30.1771 90.6758 28.8686 90.2765C25.2217 89.6091 21.312 89.9402 17.7123 90.7127C16.6718 91.049 15.3055 91.4483 14.9955 92.6359C14.9482 93.5398 14.78 94.7589 15.5052 95.4316C15.9676 95.7994 15.7522 96.8346 15.1006 96.6979C14.7537 96.6244 14.4122 96.5298 14.1862 96.2356C13.5714 95.4473 13.4978 94.3858 13.4347 93.4241C13.0459 88.8156 18.7843 88.3584 22.1685 88.1062C24.8696 88.0064 27.723 87.7121 30.2717 88.7683C36.7458 91.422 34.3548 98.1641 27.7441 97.1656V97.1709Z" fill="#050505"/>
<path d="M26.8659 103.367C28.022 102.599 29.3725 102.037 30.5654 101.301C31.1434 100.976 31.0751 100.256 30.991 99.6883C30.2921 96.7087 19.1778 97.5285 16.7185 98.1854C14.3222 98.7634 13.9859 100.266 15.6517 102.006C16.0984 102.242 15.9513 103.156 15.3942 103.083C15.0106 103.004 14.6953 102.71 14.4378 102.426C13.4079 101.275 12.9034 99.415 13.8756 98.0855C16.193 95.4055 21.4217 95.9152 24.7008 95.6683C27.0866 95.642 29.7298 95.684 31.6479 97.1922C32.6306 98.0698 32.8671 99.4886 32.7672 100.745C32.5675 103.75 29.1623 104.134 26.8711 103.367H26.8659Z" fill="#050505"/>
<path d="M16.0455 114.622C16.0087 114.591 15.9719 114.559 15.9351 114.528C15.9351 114.528 15.9351 114.528 15.9299 114.528C15.4569 114.276 15.1416 113.755 14.8999 113.282C14.2167 111.958 13.6282 110.571 13.2919 109.115C11.3843 102.972 17.5064 101.979 22.1202 102.184C25.8513 102.583 31.2849 103.624 32.3044 107.865C32.5303 111.995 27.0652 111.627 24.2117 111.601C22.7456 111.632 21.311 111.222 20.1969 110.24C20.7382 109.951 21.3688 109.772 21.9783 109.656C23.8176 109.473 25.6778 109.798 27.5329 109.593C28.6101 109.457 29.8818 109.389 30.6386 108.516C30.5545 105.899 25.0473 104.738 22.9347 104.433C20.8117 104.197 15.6513 104.223 14.758 106.525C14.6844 108.616 15.4832 110.56 16.2399 112.431C16.4501 113.004 17.0229 113.477 16.9283 114.134C16.902 114.554 16.4238 114.948 16.0455 114.628V114.622Z" fill="#050505"/>
<path d="M24.097 111.112C24.0497 111.143 23.9289 111.096 23.8606 111.101C23.0776 111.044 22.2998 111.038 21.5274 111.086C20.3608 111.154 19.2099 111.354 18.0853 111.695C17.8856 111.753 17.6912 111.821 17.4968 111.89C17.3864 112.242 16.9082 112.394 16.6297 112.137C16.5351 112 16.4616 111.869 16.4143 111.753C15.7994 110.224 18.7054 109.798 19.8563 109.893C20.1663 109.903 20.4764 109.93 20.7811 109.972C21.9478 110.14 23.0618 110.55 24.097 111.112Z" fill="#050505"/>
<path d="M30.5345 108.228C29.5676 108.596 28.2381 108.9 27.4183 108.091C26.6301 107.461 26.9874 105.395 28.2013 105.905C28.6322 106.131 28.9108 106.678 28.585 107.114C29.2155 107.503 29.9407 107.797 30.5293 108.233L30.5345 108.228Z" fill="#050505"/>
<path d="M30.8765 101.018C30.9973 101.144 31.1129 101.276 31.2233 101.407C31.0341 101.386 30.8291 101.333 30.6189 101.27C30.4035 101.202 30.1828 101.123 29.9831 101.055C28.8638 100.75 27.9284 99.636 28.4959 98.4642C28.5537 98.3328 28.6378 98.2014 28.7377 98.0805C29.137 97.5971 29.8149 97.2556 30.372 97.5971C30.7871 97.8546 30.7871 98.5693 30.4928 98.9003C30.3562 99.058 30.146 99.1263 29.8885 99.0264C29.6941 99.1105 29.4313 99.2997 29.5995 99.5256C29.589 99.4941 29.5732 99.4679 29.5627 99.4416C29.9411 100.014 30.414 100.508 30.8765 101.013V101.018Z" fill="#050505"/>
<path d="M33.4918 94.9482C32.9978 94.9955 32.4198 94.9377 31.9048 94.8746C31.7892 94.8641 31.6683 94.8484 31.5474 94.8273C30.1181 94.5856 28.4418 93.6502 28.8096 91.9949C28.9252 91.4116 29.4244 90.6707 30.1076 90.9125C30.7014 91.1805 30.9957 92.4574 30.3546 92.82C30.9063 93.3665 31.5212 93.8027 32.1675 94.1968C32.5984 94.4595 33.0399 94.7065 33.4865 94.9482H33.4918Z" fill="#050505"/>
<path d="M27.9492 109.536C28.0858 109.994 27.9492 110.514 27.8913 110.976C27.8651 111.165 27.8441 111.355 27.8178 111.539C27.6759 112.626 27.5288 113.714 27.3869 114.802C27.0033 117.04 26.5671 121.313 25.5897 125.354C25.39 126.2 25.1588 127.035 24.9065 127.834C23.4194 132.521 20.9863 136.168 16.714 134.697C12.2157 133.273 13.0513 128.443 13.5663 124.76C14.0655 121.764 14.5647 118.806 15.2689 115.863C15.3792 115.574 15.5001 114.996 15.6525 114.329C15.7996 113.682 15.9783 112.947 16.1938 112.316C16.2621 112.117 16.3357 111.927 16.4092 111.749C16.7035 111.076 17.0713 110.635 17.5285 110.766C17.9647 110.824 18.1644 111.307 18.0803 111.691C18.033 111.917 17.8859 112.111 17.6284 112.169C16.6457 115.438 16.157 118.843 15.5894 122.201C15.2111 125.049 14.4228 127.986 14.9063 130.855C15.5684 132.737 18.2222 133.588 19.9616 132.726C21.6905 131.885 22.3106 129.878 22.9622 128.207C24.5334 123.693 25.0957 118.937 25.7105 114.229C25.8104 113.357 25.9102 112.479 26.0048 111.602C26.0468 111.202 26.0941 110.803 26.1362 110.403C26.173 110.151 26.1835 109.888 26.2413 109.641C26.2886 109.426 26.3779 109.226 26.5356 109.058C26.9507 108.548 27.7442 108.837 27.9124 109.426C27.9229 109.458 27.9334 109.489 27.9439 109.526L27.9492 109.536Z" fill="#050505"/>
<path d="M38.2068 168.002C38.1647 168.885 37.2661 169.327 36.8037 168.386C35.3428 160.477 32.4421 153.031 30.1351 145.375C28.5218 139.489 26.7982 133.641 24.9011 127.839C24.8696 127.739 24.8328 127.64 24.8013 127.534C24.6647 127.077 24.486 126.573 24.4965 126.095C24.4755 125.454 25.1429 124.986 25.5843 125.354C25.6736 125.422 25.7525 125.527 25.8103 125.669C28.2118 132.406 30.4662 139.342 32.3843 146.216C34.5913 153.389 37.2714 160.519 38.2015 167.997L38.2068 168.002Z" fill="#050505"/>
<path d="M87.6666 73.9958C86.8205 73.959 85.9692 73.7699 85.1862 73.4388C83.636 72.7872 82.3853 71.6153 81.5498 70.165C80.7825 68.8355 80.4462 67.2485 80.5776 65.7194C80.7195 64.1061 81.3343 62.5506 82.3801 61.3105C83.347 60.1649 84.6607 59.3767 86.1111 59.0141C86.7732 58.8459 87.4774 58.7882 88.1553 58.8302C88.9383 58.8775 89.737 59.0299 90.4622 59.3294C90.6357 59.403 90.8038 59.4871 90.972 59.5764C91.0508 59.5344 91.1401 59.5134 91.24 59.5134C91.3398 59.5134 91.4396 59.5448 91.5237 59.5974C92.086 59.9337 92.6115 60.312 93.0845 60.7692C93.857 61.5259 94.4613 62.4508 94.8607 63.4545C95.3283 64.6264 95.4755 65.9033 95.3494 67.1592C95.2232 68.3783 94.7818 69.5449 94.1407 70.5801C93.5995 71.4577 92.8532 72.2039 91.9967 72.782C91.3188 73.2391 90.5726 73.5649 89.9 73.7436C89.2641 73.917 88.6072 74.0116 87.9451 74.0116C87.8505 74.0116 87.7507 74.0116 87.6561 74.0063L87.6666 73.9958ZM88.623 71.8466C88.9646 71.815 89.3061 71.7572 89.6425 71.6731C89.9945 71.5733 90.3414 71.4472 90.6777 71.2948C90.972 71.1529 91.2557 70.9953 91.5237 70.8114C91.776 70.638 92.0177 70.4435 92.2437 70.2385C92.4276 70.0651 92.601 69.8813 92.7639 69.6868C92.9426 69.4609 93.116 69.2296 93.2684 68.9879C93.3735 68.8092 93.4681 68.6306 93.5574 68.4467C93.6467 68.2417 93.7256 68.0315 93.7991 67.816C93.8622 67.6059 93.9147 67.3957 93.9568 67.1855C93.9936 66.9753 94.0146 66.7651 94.0356 66.5549C94.0461 66.3342 94.0514 66.1134 94.0409 65.8927C94.0251 65.6615 94.0041 65.4409 93.962 65.2149C93.9253 65.01 93.878 64.805 93.8201 64.6053C93.7518 64.3846 93.673 64.1639 93.5837 63.9537C93.4786 63.7225 93.3682 63.4965 93.2421 63.2758C93.116 63.0709 92.9846 62.8712 92.8375 62.682C92.6693 62.4718 92.4907 62.2721 92.2962 62.0829C92.0703 61.8727 91.8338 61.6731 91.5868 61.4944C91.3976 61.363 91.2032 61.2422 90.9982 61.1318C90.8196 61.053 90.6882 60.8796 90.6199 60.6852C90.4202 60.6116 90.21 60.5433 90.005 60.4855C89.6056 60.3751 89.2063 60.2963 88.8805 60.2543C88.4969 60.2227 88.1237 60.2175 87.7401 60.2385C87.3513 60.2753 86.9677 60.3436 86.6734 60.4172C86.2898 60.5223 85.9219 60.6537 85.5593 60.8166C85.2703 60.9532 84.9971 61.1108 84.7763 61.258C84.4768 61.4629 84.193 61.6836 83.925 61.9253C83.7148 62.125 83.5204 62.3352 83.3365 62.5559C83.1736 62.7608 83.0264 62.9763 82.8845 63.197C82.7532 63.4177 82.6323 63.6489 82.5219 63.8801C82.4484 64.0483 82.3853 64.2217 82.3222 64.4004C82.2592 64.6106 82.2066 64.8155 82.1646 65.031C82.1226 65.257 82.0963 65.4829 82.0753 65.7088C82.0648 65.9348 82.0595 66.1608 82.07 66.3867C82.0858 66.5969 82.1068 66.8071 82.1383 67.0173C82.1804 67.2538 82.2382 67.4903 82.3012 67.7215C82.3695 67.9369 82.4484 68.1471 82.5325 68.3521C82.6323 68.5675 82.7374 68.7777 82.8583 68.9879C82.9844 69.1876 83.1158 69.382 83.2576 69.5712C83.4311 69.7866 83.6202 69.9916 83.8199 70.1913C84.0354 70.391 84.2613 70.5748 84.4978 70.7535C84.7658 70.9374 85.0443 71.1004 85.3334 71.2475C85.6329 71.3894 85.9377 71.505 86.2477 71.6048C86.6261 71.7099 87.0097 71.7888 87.3986 71.8361C87.8032 71.8728 88.2131 71.8781 88.6177 71.8466H88.623Z" fill="#050505"/>
<path d="M101.298 46.7606C100.557 46.4243 99.9735 45.7306 99.7843 44.9371C99.6109 44.2014 99.7738 43.387 100.415 42.935C100.504 42.5146 100.772 42.1363 101.224 42.089C101.687 41.9787 102.16 41.9681 102.627 42.131C103.3 42.357 103.846 42.8247 104.199 43.4342C104.566 44.0753 104.656 44.8688 104.414 45.5677C104.167 46.2772 103.568 46.7659 102.853 46.9445C102.696 46.9813 102.538 47.0023 102.375 47.0023C102.002 47.0023 101.629 46.913 101.298 46.7606Z" fill="#050505"/>
<path d="M101.955 42.7093C102.528 43.0876 103.116 43.6919 102.995 44.4381C102.937 45.363 101.818 45.9673 101.109 45.2789C100.147 44.5695 100.499 42.1995 101.955 42.7093Z" fill="#050505"/>
<path d="M36.9662 29.8042C36.8821 29.6098 36.8768 29.3733 36.9451 29.1631C34.7801 30.2088 32.9408 32.4053 32.5047 34.7911C32.5362 34.7963 32.5625 34.8016 32.594 34.8016H32.6203C34.5384 34.1868 35.8626 32.2898 36.7139 30.5451C36.8085 30.3034 36.9347 30.0617 36.9609 29.8042H36.9662ZM37.4076 28.6901C38.7003 28.6586 38.1485 30.7553 37.7387 31.4279C36.9872 33.1095 33.9288 37.2398 31.8321 35.9471C30.8126 34.8226 31.7795 33.12 32.3313 31.9797C32.5993 31.0706 37.2499 26.11 37.4076 28.6901Z" fill="#050505"/>
<path d="M35.3062 41.3479C35.653 41.3111 35.2957 40.5229 35.1853 40.3127C35.0644 40.3443 34.9331 40.3127 34.8122 40.2286C34.7912 40.2181 34.7754 40.2024 34.7597 40.1866C34.7702 40.6123 34.912 41.1745 35.3324 41.3637L35.3009 41.3427L35.3062 41.3479ZM35.1275 38.9307C36.9457 39.0095 37.2137 43.3816 34.9383 42.6774C33.84 42.1204 33.4091 40.4967 33.8505 39.3931C34.0345 38.8781 34.6756 38.484 35.1327 38.9307H35.1275Z" fill="#050505"/>
<path d="M27.7961 75.6732C26.9658 74.4173 27.444 72.3678 27.8434 70.8702C25.547 71.3116 23.3031 71.8003 21.1381 72.5833C19.1307 73.3242 16.2772 74.0441 16.0355 76.5717C15.9567 77.1761 16.3508 77.691 16.5873 78.2218C16.8027 78.143 17.0234 78.0852 17.2494 78.0221C20.7334 77.1077 24.2543 76.2985 27.8014 75.6679L27.7961 75.6732ZM28.3899 25.4521C28.432 25.0843 28.4688 24.7217 28.5108 24.3539C28.0641 24.1227 27.6122 23.9019 27.1655 23.6707C26.4876 23.3239 25.8097 22.9823 25.1318 22.6408C23.7183 21.9261 22.3047 21.2167 20.8963 20.502C19.4617 19.7716 18.0324 19.0307 16.603 18.295C15.221 17.5856 13.8389 16.8814 12.4568 16.172C11.2009 15.5309 9.96073 14.874 8.72055 14.2067C7.53292 13.5761 6.34529 12.9403 5.19971 12.2834C4.94747 12.1363 4.69523 11.9891 4.44825 11.8367C4.4535 12.3832 4.42723 12.9245 4.40095 13.471C4.35891 14.3381 4.32212 15.2051 4.28008 16.0722C4.19075 17.9009 4.08566 19.7295 3.9753 21.5582C3.7651 25.1053 3.56015 28.6523 3.36046 32.1941C3.16077 35.7097 2.92431 39.22 2.64579 42.7302C2.4461 45.3156 2.24641 47.901 2.04672 50.4865C2.43033 50.4181 2.80869 50.3446 3.1923 50.2762C3.93325 50.1396 4.67946 50.003 5.42567 49.8663C6.9864 49.5826 8.54713 49.2936 10.1131 49.0098C11.6003 48.7418 13.0822 48.4581 14.5693 48.1901C16.0828 47.9116 17.5909 47.6331 19.1044 47.3546C20.4076 47.1128 21.7161 46.8816 23.0246 46.6399C23.6867 46.519 24.3541 46.3981 25.0215 46.272C25.4366 46.1932 25.8465 46.1249 26.2617 46.0408C26.3037 45.673 26.3352 45.3051 26.372 44.9373C26.4509 44.1543 26.5192 43.3766 26.5875 42.5989C26.7241 41.0854 26.8765 39.572 27.0236 38.0586C27.176 36.5084 27.3494 34.9688 27.5281 33.4238C27.7173 31.8106 27.8802 30.2025 28.0484 28.5893C28.1587 27.5383 28.2743 26.4926 28.3899 25.4469V25.4521ZM29.2623 81.9002C29.2518 81.5061 29.3358 81.1172 29.5355 80.8335C28.4583 80.5234 27.3652 80.2501 26.2459 80.145C25.9464 80.1345 25.6468 80.1346 25.3473 80.1346C24.6431 80.1346 23.9337 80.1346 23.2506 80.0085C23.2243 80.1976 23.1297 80.371 22.9773 80.4499C22.9773 80.6863 22.9458 80.9176 22.8985 81.1225C24.1702 81.1435 25.3841 81.2433 26.4088 81.3274C27.3862 81.3957 28.3427 81.5902 29.2623 81.9055V81.9002ZM33.2981 86.845C33.3139 86.803 33.3086 86.7662 33.2876 86.7242C32.9775 86.3301 32.5939 86.0043 32.1998 85.6942C32.1578 85.8414 32.0737 85.978 31.9581 86.0831C32.2997 86.4877 32.7043 86.8082 33.1299 87.1078C33.193 87.0237 33.2508 86.9344 33.2981 86.8398V86.845ZM43.9762 54.2227C44.1812 52.9773 44.3914 51.7371 44.5963 50.4917C44.5543 50.4865 44.5122 50.4812 44.4702 50.4759C43.9289 50.4076 43.3877 50.3288 42.8464 50.2657C41.2173 50.0713 39.5936 49.8611 37.9698 49.6457C34.4437 49.1727 30.9176 48.6788 27.3915 48.1901C27.2391 48.169 27.0867 48.148 26.9343 48.127C26.8397 48.1953 26.7294 48.2531 26.6295 48.3057C26.3458 48.4475 26.0515 48.5737 25.8465 48.663C24.3856 49.2936 22.9195 49.9084 21.4586 50.5337C20.0135 51.1486 18.5789 51.7739 17.1233 52.3572C15.7832 52.8985 14.438 53.4292 13.0927 53.9599C12.4621 54.2122 11.8262 54.4592 11.1956 54.7114C11.9576 54.7482 12.7196 54.7797 13.4816 54.827C15.3313 54.9374 17.1811 55.074 19.0308 55.2211C21.1118 55.384 23.1875 55.5785 25.1318 55.7624C25.4051 55.7887 25.6784 55.8097 25.815 55.8254C25.9306 55.836 26.041 55.8464 26.1566 55.8569C26.2249 55.8622 26.2932 55.8675 26.3563 55.878C26.4246 55.878 26.4876 55.8885 26.5087 55.8938C26.6138 55.9043 26.7189 55.9147 26.7819 55.92C26.8292 55.92 26.8765 55.9305 26.9238 55.9305H26.9396C26.9711 55.9358 27.0026 55.941 27.0394 55.941L27.2391 55.9621C27.3284 55.9726 27.4125 55.9778 27.4966 55.9883C27.5439 55.9883 27.5964 55.9883 27.6542 56.0041C31.338 56.3509 35.0112 56.745 38.6897 57.1601C40.2557 57.3388 41.8269 57.5123 43.3982 57.6699C43.5874 56.5243 43.7765 55.3735 43.9657 54.2279L43.9762 54.2227ZM47.3762 33.8968C47.5076 33.1033 47.6389 32.3098 47.7703 31.5163C47.6127 31.2746 47.4393 31.0381 47.2658 30.8069C46.9295 30.3602 46.5722 29.9346 46.1781 29.5352C45.7839 29.1516 45.3583 28.7942 44.9116 28.4684C44.4807 28.1637 44.0288 27.8904 43.5611 27.6487C43.0671 27.407 42.5626 27.2073 42.0371 27.0391C41.4381 26.8605 40.8285 26.7291 40.2294 26.6503C40.2242 26.6503 40.2189 26.6503 40.2084 26.6503H40.1926C39.5042 26.5714 38.8158 26.561 38.243 26.603C37.6545 26.6503 37.0764 26.7396 36.5036 26.8815C35.9781 27.0233 35.4684 27.202 34.9692 27.4175C34.491 27.6329 34.0285 27.8904 33.6186 28.1479C33.6081 28.1584 33.5924 28.1637 33.5819 28.1742L33.5661 28.1847C33.1247 28.479 32.7043 28.8048 32.3049 29.1516C31.9633 29.4616 31.6428 29.7927 31.338 30.1395C31.0595 30.4811 30.802 30.8279 30.5603 31.1958C30.3606 31.5111 30.1819 31.8316 30.04 32.1311C30.0347 32.1468 30.0242 32.1627 30.019 32.1784V32.1889C29.8456 32.5568 29.7037 32.9246 29.5723 33.3082C29.4725 33.6393 29.3831 33.9703 29.3096 34.3066C29.2413 34.685 29.1835 35.0686 29.1519 35.447C29.1309 35.8043 29.1204 36.1564 29.1309 36.5137C29.1519 36.8605 29.1782 37.2021 29.2255 37.5437C29.2885 37.9115 29.3621 38.2689 29.4514 38.6262C29.4567 38.642 29.462 38.663 29.4672 38.6787C29.5671 39.0098 29.6774 39.3356 29.8088 39.6614C29.8141 39.6772 29.8193 39.6929 29.8298 39.7087C29.9769 40.0607 30.1451 40.4023 30.3343 40.7386C30.5392 41.0907 30.7599 41.4323 31.0069 41.7633C31.3012 42.147 31.6218 42.5043 31.9686 42.8511C32.3049 43.1664 32.6517 43.4659 32.9302 43.6761C33.3979 44.0124 33.8814 44.3172 34.3964 44.5747C34.9114 44.8269 35.4421 45.0319 35.9414 45.1948C35.9624 45.1948 35.9781 45.2053 35.9939 45.2105H36.0044C36.572 45.3787 37.15 45.4943 37.7333 45.5731C38.3902 45.6467 39.047 45.6625 39.7039 45.6257C40.324 45.5784 40.9283 45.4838 41.4223 45.3577C42.0056 45.2105 42.5784 45.0109 43.0881 44.7954C43.1091 44.7849 43.1302 44.7744 43.1459 44.7691H43.1564C43.6294 44.5432 44.0918 44.2962 44.4807 44.0492L44.5385 44.0125C44.8433 43.8023 45.1323 43.5868 45.4213 43.3556C45.5685 43.24 45.7051 43.0981 45.8575 42.9877C46.3672 39.9609 46.8822 36.9341 47.3867 33.9125L47.3762 33.8968ZM52.3369 16.6607C52.3999 16.6922 52.463 16.729 52.5313 16.7605C52.4998 15.8777 52.4998 15.0002 52.463 14.1279C52.2371 13.9177 52.0689 13.6339 51.9691 13.3344C50.9811 13.2293 49.9932 13.1347 49.0052 13.0296C47.5233 12.8719 46.0362 12.7143 44.5595 12.5566C41.601 12.2361 38.6477 11.9261 35.6891 11.6055C32.7095 11.2902 29.73 10.9749 26.7451 10.6754C23.8391 10.3864 20.9331 10.0816 18.0324 9.76103C16.6451 9.6139 15.2577 9.46676 13.8757 9.30386C13.7128 9.28284 13.5499 9.26709 13.4027 9.25133H13.3449L13.3292 9.2408C12.6775 9.16724 12.0207 9.09364 11.3691 9.01482C11.348 9.01482 11.3218 9.00436 11.3007 9.00436C11.3007 9.00436 11.2955 9.00436 11.2902 9.00436H11.2429C11.2429 9.00436 11.2219 8.99383 11.1221 8.98332C10.9644 8.9623 10.8068 8.94655 10.7332 8.93604C10.4021 8.89401 10.0711 8.85717 9.75578 8.82039C9.59813 8.79937 9.44573 8.77836 9.30385 8.76785C8.48407 8.66801 7.66429 8.56293 6.84452 8.46309C7.33323 8.76787 7.8272 9.07265 8.32117 9.37218C9.67695 10.1919 11.0327 11.0222 12.378 11.863C15.0581 13.5235 17.7486 15.1736 20.4392 16.8184C21.7319 17.6119 23.0246 18.4001 24.3016 19.2146C25.5785 20.0238 26.845 20.8489 28.1272 21.6529C28.4162 21.8315 28.7 22.0155 28.9838 22.1994C29.0048 22.1994 29.0205 22.1994 29.0416 22.1994H29.0888C29.0888 22.1994 29.1362 22.1889 29.1624 22.1889C29.2045 22.1889 29.2465 22.1993 29.2833 22.2098C29.3937 22.2204 29.4987 22.2309 29.6091 22.2467C29.977 22.2887 30.35 22.336 30.7179 22.378C31.5114 22.4779 32.3049 22.5672 33.1037 22.6618C34.6381 22.8405 36.1778 23.0191 37.7123 23.2083C40.7392 23.5761 43.7555 23.9703 46.7771 24.3749C47.4813 24.4695 48.1907 24.5641 48.8949 24.6639C48.9527 24.3118 49.0158 23.9597 49.0736 23.6077C49.3836 21.7842 49.6884 19.9555 49.9984 18.2424C50.03 18.0533 50.0667 17.8641 50.1088 17.6801C50.1456 17.533 50.1981 17.3701 50.3085 17.2493C50.3085 17.223 50.3085 17.202 50.3085 17.1809C50.2507 17.1336 50.1981 17.0863 50.1561 17.0285C49.9984 16.8131 49.9616 16.5241 50.0457 16.2719C50.1193 16.0564 50.3032 15.8567 50.545 15.8462C50.6501 15.8462 50.7551 15.8777 50.8602 15.9198C50.9391 15.9198 51.0389 15.9513 51.144 15.9986C51.1808 16.0301 51.2123 16.0669 51.2439 16.1037C51.2439 16.1037 51.2491 16.1037 51.2544 16.1089C51.6117 16.2876 51.9691 16.4715 52.3211 16.6555L52.3369 16.6607ZM62.8048 25.2472C62.8521 24.9529 62.8941 24.6639 62.9414 24.3697C62.4895 24.1122 62.0271 23.8652 61.5699 23.6182C60.8605 23.2293 60.1458 22.8405 59.4416 22.4464C58.007 21.6529 56.5987 20.8226 55.1798 20.0133C54.2918 19.5089 53.3984 18.9939 52.5103 18.4789C52.1162 18.2529 51.7168 18.027 51.3279 17.7958C51.2701 18.3633 51.1808 18.9256 51.0704 19.4826C51.0547 19.5772 51.0389 19.6665 51.0284 19.7611C50.897 20.6124 50.7604 21.4584 50.629 22.3097C50.4819 23.2398 50.3348 24.1699 50.1876 25.1C50.2822 25.2682 50.3242 25.4732 50.3085 25.6518C50.2874 25.8568 50.1823 26.0985 50.0089 26.2351C49.9354 26.6923 49.8618 27.1442 49.7935 27.5961C49.2417 30.996 48.6847 34.3907 48.1382 37.7959C47.5969 41.1905 47.0556 44.5905 46.5039 47.9851C45.9573 51.3903 45.3951 54.7902 44.8433 58.1954C44.6751 59.2359 44.507 60.2763 44.3388 61.322C44.239 61.9211 44.1339 62.5202 44.034 63.1245C44.1286 63.114 44.2232 63.0982 44.3178 63.0824C46.8875 62.6673 49.4729 62.2627 51.9901 61.5795C53.4142 61.1644 54.8225 60.7703 56.2729 60.4918C56.6565 60.413 57.0401 60.3341 57.4185 60.2605C57.4658 59.8559 57.5393 59.4513 57.5919 59.052C57.718 58.1429 57.8283 57.2285 57.9492 56.3141C58.212 54.3225 58.4905 52.3362 58.7848 50.3498C59.4048 46.1722 60.1195 42.0051 60.8079 37.838C61.5016 33.6498 62.1742 29.4564 62.8048 25.2577V25.2472ZM65.7949 126.146C64.3183 123.325 64.0818 120.398 64.6388 116.971C62.8679 116.341 60.7344 115.757 58.79 114.901C58.3171 118.758 58.2856 122.683 58.4064 126.562C58.5063 127.555 58.5746 128.579 58.9424 129.515C59.9514 131.149 62.6787 130.871 63.5142 129.184C64.1606 128.133 64.4023 126.435 65.7949 126.146ZM68.9321 87.7068C68.9321 87.6175 68.9321 87.5334 68.9321 87.4441C68.9111 87.4231 68.8901 87.4073 68.8743 87.3863C68.6273 87.0973 68.6063 86.6349 68.806 86.3091C68.7745 85.5261 68.0861 85.1372 67.4555 84.8272C66.8301 84.5381 66.147 84.4015 65.4639 84.4015C64.5653 84.4015 63.6666 84.638 62.8836 85.0794C62.8574 85.5261 62.9782 86.0463 62.7733 86.4562C64.518 86.6243 66.3414 87.1813 67.7971 87.4441C68.1807 87.5229 68.559 87.6122 68.9374 87.7068H68.9321ZM72.2165 52.6095C73.9822 48.2269 74.9491 42.7933 72.453 38.5158C72.1219 37.88 71.1392 36.7134 71.1182 35.8674C70.1303 35.8043 69.1423 35.7413 68.1597 35.6729C67.9179 35.6572 67.6709 35.6414 67.4292 35.6203C67.0246 41.5636 66.3677 47.4754 65.7791 53.4029C65.6373 54.58 65.4954 55.7676 65.343 56.9447C65.5532 56.9185 65.7581 56.9079 65.9683 56.9079C66.9142 56.9079 67.8864 57.1076 68.8165 57.1181C69.1161 57.1391 69.4103 57.1549 69.7099 57.1654C69.8885 56.5243 70.3615 55.9042 70.7609 55.3157C71.2863 54.4381 71.7856 53.5396 72.2165 52.6095ZM74.6022 141.344C76.5203 142.689 78.4489 144.034 80.346 145.411C78.1441 141.78 75.9738 138.154 75.0279 133.966C73.8876 133.451 72.742 132.909 71.6647 132.284C70.8817 134.055 70.0988 135.826 69.3105 137.592C70.9448 139.016 72.8156 140.13 74.6075 141.338L74.6022 141.344ZM83.2572 52.457C84.4764 50.1554 84.3187 47.5384 84.1874 45.0214C84.0823 42.3519 83.5042 39.6193 81.9435 37.4228C81.5861 37.3177 81.46 36.9183 81.502 36.5557C81.46 36.5189 81.4232 36.4822 81.3917 36.4401C81.3759 36.4401 81.3549 36.4401 81.3391 36.4401C80.945 36.4401 80.5456 36.4139 80.1515 36.3929C79.2739 36.3508 78.4016 36.3088 77.524 36.2562C77.4925 36.2562 77.4662 36.2562 77.4452 36.2562H77.4347C77.4137 36.2562 77.3926 36.2562 77.3716 36.2562C76.0526 36.1827 74.7336 36.0985 73.4146 36.0145C74.9649 37.5226 76.0842 39.4617 76.3942 41.6215C77.2665 46.1932 76.4625 50.9279 74.4499 55.095C74.061 55.857 73.6143 56.5874 73.1256 57.2915C74.865 57.3493 76.6097 57.4124 78.3438 57.5858C78.8063 57.6646 79.3528 57.5648 79.7679 57.8117C79.894 57.6909 80.0675 57.6226 80.2146 57.528C80.6455 57.1917 81.0238 56.7976 81.4022 56.3982C81.4022 56.3614 81.4127 56.3299 81.418 56.2984C81.9067 54.9742 82.7212 53.7655 83.2677 52.4518L83.2572 52.457ZM86.5468 35.1422C86.6624 34.4906 86.7886 33.8547 86.9042 33.2031C85.2751 33.2451 83.6408 33.3818 82.0275 33.5289C82.1116 34.0334 82.1799 34.5431 82.2693 35.0476C82.9577 35.0318 83.6461 35.0056 84.3345 35.0056C85.0754 35.0056 85.8164 35.0371 86.5468 35.1422ZM92.033 49.2936C92.0961 48.3477 92.0383 47.386 91.9279 46.4507C91.702 44.5431 91.2973 42.6094 90.5301 40.8437C90.199 40.0818 89.8732 39.3093 89.4844 38.5788C89.3109 38.253 89.1428 37.9273 88.9641 37.6067L88.7855 37.2809C88.7066 37.1443 88.6278 36.9866 88.5122 36.8763C88.3861 36.7502 88.2284 36.6976 88.055 36.6976H88.034C88.034 36.6976 88.013 36.6976 87.9972 36.6976H87.992C87.6872 36.7134 87.4612 37.0286 87.4927 37.3177C87.5085 37.4701 87.5821 37.5962 87.6977 37.6855C87.8185 37.901 87.9236 38.1322 88.034 38.3529C88.1496 38.5946 88.2705 38.8416 88.3861 39.0834C88.5648 39.4827 88.7539 39.8821 88.9116 40.2919C89.1481 40.9015 89.3845 41.5006 89.5842 42.1206C89.8207 42.8931 90.0046 43.6709 90.1465 44.4644C90.1517 44.4906 90.157 44.5169 90.1623 44.5431C90.3094 45.4417 90.4093 46.3456 90.4565 47.2494V47.2127C90.4565 47.2127 90.4565 47.2547 90.4565 47.2757V47.2862C90.4565 47.2862 90.4565 47.2863 90.4565 47.2968C90.4776 47.8906 90.4618 48.4739 90.425 49.0624C90.362 49.693 90.3041 50.3393 90.178 50.9594V50.9699C90.136 51.1696 90.0887 51.364 90.0362 51.5637C89.91 52.0104 90.178 52.4886 90.6247 52.6147C90.6983 52.6357 90.7718 52.6462 90.8454 52.6462C91.2185 52.6462 91.5759 52.3993 91.6757 52.0262C91.7966 51.5637 91.8754 51.0908 91.9227 50.6178C91.97 50.1764 92.0015 49.735 92.033 49.2936ZM96.731 90.6969C95.4961 90.5708 94.2559 90.4604 93.021 90.3501C91.1817 90.1819 89.3477 89.998 87.5137 89.7931C83.8615 89.3779 80.2146 88.9575 76.5676 88.5056C75.2644 88.3427 73.9612 88.1903 72.6527 88.0326C72.0221 87.9591 71.3967 87.8855 70.7661 87.812C70.6452 87.8015 70.5244 87.7857 70.3983 87.7699C70.3983 87.8908 70.3983 88.0064 70.3825 88.1167C72.2743 88.7053 74.103 89.483 75.8897 90.3448C76.6307 90.7389 77.9812 91.38 79.0007 92.1473C79.0532 92.1315 79.1058 92.121 79.1636 92.121C79.1846 92.121 79.2056 92.121 79.2214 92.121C79.5367 92.1525 79.7154 92.4836 79.8467 92.7253C79.9256 92.8777 79.9939 93.0353 80.0622 93.1877C80.2093 93.4032 80.3039 93.6239 80.3407 93.8446C80.4721 94.1704 80.5982 94.4962 80.7243 94.822C82.3061 98.9786 84.0034 103.109 85.9215 107.129C85.9478 106.519 86.4733 105.831 86.7045 105.311C87.4665 103.866 88.2705 102.436 89.1165 101.033C91.2868 97.3285 93.8723 93.8919 96.7257 90.6864L96.731 90.6969ZM97.33 67.0709C97.3511 66.7136 97.3616 66.3562 97.3458 66.0042C97.3248 65.6468 97.288 65.2895 97.2302 64.9374C97.1776 64.6431 97.1094 64.3541 97.0305 64.0651C96.9254 63.7183 96.8046 63.382 96.6679 63.0457C96.505 62.6778 96.3263 62.3257 96.1267 61.9736C95.9165 61.6321 95.6958 61.301 95.454 60.9805C95.1755 60.6284 94.876 60.2921 94.5607 59.9768C94.3505 59.7771 94.1403 59.5827 93.9196 59.404C93.888 59.383 93.8618 59.362 93.8302 59.3357C93.825 59.3304 93.8145 59.3252 93.8092 59.32C93.7935 59.3094 93.7777 59.2989 93.7672 59.2884C93.7672 59.2884 93.7672 59.2884 93.7672 59.2831C93.5307 59.0729 93.3888 58.7839 93.352 58.4791C93.0473 58.3005 92.7372 58.1323 92.506 58.0167C92.0067 57.7802 91.497 57.57 91.0083 57.4229C90.9925 57.4229 90.9768 57.4124 90.9663 57.4124C90.3619 57.2443 89.7471 57.1234 89.127 57.0551C88.7802 57.0235 88.4334 57.0078 88.1076 57.0078C87.8816 57.0078 87.6609 57.0183 87.4612 57.0288C86.7991 57.0866 86.1422 57.1969 85.5011 57.3704C84.9756 57.5227 84.4554 57.712 83.9561 57.9327C83.4464 58.1744 82.9629 58.4476 82.5005 58.7577C82.1169 59.0256 81.7543 59.3094 81.4022 59.6195C81.0606 59.94 80.7453 60.2815 80.4458 60.6389C80.2093 60.9384 79.9886 61.2537 79.7784 61.5743C79.584 61.8948 79.4053 62.2259 79.2424 62.5674C79.0953 62.9038 78.9639 63.2453 78.8483 63.5921C78.7432 63.9442 78.6538 64.2963 78.5855 64.6536C78.5277 64.9899 78.4857 65.3263 78.4542 65.6678C78.4279 66.0462 78.4279 66.4246 78.4384 66.8029C78.4594 67.1497 78.5014 67.4966 78.554 67.8381C78.6171 68.1955 78.7011 68.5528 78.7957 68.8996C78.9113 69.278 79.048 69.6458 79.2004 70.0136C79.3422 70.3289 79.4999 70.639 79.6733 70.9438C79.8835 71.2959 80.1147 71.6374 80.2776 71.8581C80.5509 72.2049 80.8452 72.5308 81.1552 72.846C81.4968 73.1718 81.8594 73.4714 82.243 73.7446C82.6792 74.0441 83.1258 74.3069 83.4779 74.4856C83.9666 74.722 84.4711 74.9217 84.9861 75.0794C85.5852 75.2475 86.1895 75.3684 86.7781 75.4367C87.3929 75.4997 88.013 75.505 88.6331 75.4577C89.2269 75.3999 89.8049 75.3 90.383 75.1529C90.3935 75.1529 90.4092 75.1477 90.4198 75.1424C90.961 74.99 91.4865 74.8008 91.9963 74.5696C92.4534 74.3541 92.8948 74.1124 93.2995 73.8444L93.3205 73.834L93.3678 73.8024C93.3678 73.8024 93.4151 73.7709 93.4361 73.7604C93.7935 73.5082 94.1298 73.2349 94.3978 72.9931C94.4188 72.9721 94.4398 72.9511 94.4556 72.9353C94.7814 72.62 95.0862 72.289 95.3805 71.9369C95.6169 71.6374 95.8429 71.3274 96.0478 71.0016C96.2317 70.6968 96.3999 70.3867 96.5523 70.0609C96.6995 69.7246 96.8308 69.3883 96.9464 69.0415C97.0463 68.7157 97.1251 68.3899 97.1934 68.0536C97.2512 67.7278 97.2933 67.3967 97.3248 67.0657L97.33 67.0709ZM102.874 38.4475C103.526 38.5316 104.204 38.5684 104.866 38.6577C103.583 37.2178 101.408 36.829 99.5687 36.5977C98.7857 36.5084 98.0027 36.5189 97.2355 36.6188C97.4719 36.9761 97.4351 37.4491 97.3668 37.8589C97.4929 37.8537 97.6191 37.8484 97.7452 37.8484C99.4478 37.8484 101.182 38.2898 102.874 38.4475ZM105.486 49.5353C105.754 46.5242 106.048 43.5185 106.369 40.5127C105.328 39.9872 104.114 40.0975 102.984 39.9661C101.087 39.798 99.1956 39.4564 97.309 39.3093C97.3038 39.7402 97.3038 40.1763 97.288 40.6072C97.1724 44.3487 97.1041 48.3004 96.8413 52.0051C96.7152 54.4119 96.6417 56.5243 96.3684 58.868C97.2302 59.8979 97.9081 61.0646 98.3548 62.3415C98.4494 62.6095 98.5334 62.888 98.6123 63.1613C98.7068 62.4518 98.8067 61.7425 98.8803 61.0278C99.2796 57.7593 99.2166 54.3961 99.8577 51.1644C99.6317 50.9016 99.5897 50.4602 99.7579 50.1659C100.084 49.6089 100.798 49.5931 101.371 49.5458C102.643 49.4565 103.925 49.4408 105.197 49.467C105.302 49.4723 105.396 49.4985 105.475 49.5353H105.486ZM109.059 71.2065C109.311 69.1886 108.991 67.0814 108.77 65.0793C108.549 63.4818 107.814 62.084 107.036 60.6967C106.7 60.1923 106.337 59.7141 105.996 59.2937C105.827 64.1282 105.791 68.9627 105.381 73.8024C105.249 75.0531 105.065 76.3037 104.987 77.5597C104.987 77.6385 104.966 77.712 104.939 77.7856C105.144 77.8119 105.344 77.8329 105.549 77.8592C105.649 77.628 105.806 77.423 106.011 77.2759C106.768 76.4351 107.441 75.5155 107.982 74.5171C108.082 74.3174 108.171 74.1124 108.26 73.9075C108.471 73.3925 108.644 72.867 108.802 72.331C108.902 71.9579 108.986 71.5849 109.059 71.2065ZM128.776 147.697C130.074 145.532 131.34 143.403 132.848 141.396C131.051 140.203 129.338 138.895 127.767 137.434C127.015 137.329 126.863 136.267 127.299 135.752C128.508 133.808 129.559 131.732 130.846 129.835C127.862 130.687 124.693 131.133 121.619 130.687C108.56 128.453 104.666 114.276 104.54 102.767C104.587 96.1882 104.876 89.3674 107.509 83.2454C107.998 82.1472 108.497 81.154 109.017 80.2449C108.691 80.2029 108.36 80.1661 108.034 80.1293C107.756 80.0978 107.477 80.0662 107.199 80.0294C107.089 80.0715 106.973 80.0925 106.857 80.0925C106.805 80.0925 106.752 80.0925 106.705 80.082C106.558 80.061 106.426 80.0032 106.311 79.9296C106.059 79.8981 105.806 79.8718 105.554 79.8403C103.83 79.6406 102.107 79.4409 100.383 79.2465C96.7888 78.8366 93.1944 78.4267 89.6 78.0063C89.3057 77.9695 89.0114 77.938 88.7171 77.9065C88.4702 77.9275 88.2179 77.9327 87.9657 77.9327C86.8937 77.9327 85.8164 77.7751 84.7864 77.4545C82.8105 77.2338 80.8399 77.0079 78.8641 76.7714C75.2749 76.3458 71.6858 75.9201 68.0966 75.4945C64.4181 75.0583 60.7344 74.6222 57.0559 74.1807C53.3564 73.7341 49.6516 73.2979 45.9521 72.8303C42.3945 72.3836 38.8421 71.9264 35.295 71.4219C33.9287 71.2275 32.5677 71.0226 31.2014 70.8492C30.576 70.7703 29.9559 70.6863 29.3358 70.6022C29.3358 70.6022 29.3358 70.6022 29.3306 70.6022C29.3201 70.639 29.3096 70.681 29.2991 70.7178C29.0836 71.1224 28.9995 71.5691 28.9102 72.0157C28.7946 72.846 28.5739 73.7078 28.7578 74.5486C28.9154 74.8219 28.9417 75.2318 28.8366 75.5418C33.6712 75.5523 38.4112 76.598 43.2195 76.9501C49.5885 77.3389 55.8788 78.3689 62.2005 79.1361C67.177 79.4777 72.1797 80.0242 77.1299 80.6075C81.1605 80.9385 85.2016 81.217 89.2006 81.8003C94.1876 82.4992 99.2008 83.1561 104.188 83.524C105.213 82.8829 106.332 82.4047 107.593 82.226C106.411 84.1335 104.871 85.8256 103.137 87.2707C101.545 88.8156 100.01 90.4132 98.4861 92.0264C94.7236 95.9676 91.4287 100.455 88.6488 105.111C88.1233 105.962 87.6451 106.871 87.1039 107.712C86.9199 107.964 86.5889 108.091 86.3104 107.922C86.3104 107.922 86.2998 107.917 86.2998 107.912C88.4754 112.394 90.94 116.735 93.8302 120.807C94.8444 122.31 95.8902 123.787 96.9517 125.253C96.7835 123.014 97.7715 118.979 97.8976 117.817C98.2707 115.679 98.5912 113.55 99.0484 111.433C99.0747 110.823 99.5687 109.888 100.141 109.888C100.331 109.888 100.525 109.988 100.72 110.235C100.961 110.602 101.009 111.091 100.914 111.512C100.057 115.211 99.2902 118.931 98.5597 122.657C98.3968 123.698 98.2707 124.743 98.3022 125.805C98.3233 126.104 98.2181 126.504 97.9712 126.667C99.6107 128.937 101.25 131.207 102.79 133.54C105.37 137.56 108.376 141.27 111.229 145.096C114.036 149.037 116.779 153.025 119.385 157.098C120.268 158.49 121.125 159.899 122.028 161.281H122.044C122.344 160.923 122.638 160.566 122.927 160.214C123.815 155.695 126.569 151.68 128.781 147.686L128.776 147.697ZM129.858 68.6947C129.858 68.6947 129.869 68.6526 129.879 68.6369C129.748 68.6316 129.617 68.6211 129.485 68.6106C129.611 68.6368 129.732 68.6631 129.858 68.6999V68.6947ZM137.814 13.5971C136.448 12.7931 135.255 11.7474 133.878 10.9801C130.615 9.0621 126.863 7.87979 123.064 7.85877C120.977 7.86928 118.208 8.00589 117.068 9.88189C117.21 11.0012 117.53 12.1047 117.851 13.1872C118.939 16.4137 120.116 19.698 122.281 22.3675C122.775 23.0927 123.453 23.7023 123.836 24.4905C123.983 24.79 123.989 25.1474 123.894 25.4784C126.201 22.9771 128.256 20.1972 130.815 17.9639C132.875 16.1825 135.14 14.3065 137.814 13.5919V13.5971ZM138.671 85.4788C138.708 85.442 138.745 85.4 138.781 85.3632C138.124 85.9097 137.405 86.3879 136.585 86.6349C136.406 86.9659 136.054 87.2182 135.67 87.1446C135.276 87.071 135.035 86.7189 134.866 86.3878C134.688 86.0305 134.677 85.5944 134.83 85.2371C134.393 83.009 133.889 80.7861 133.337 78.5843C132.933 78.7472 132.423 78.6264 131.987 78.5686C131.698 78.5475 131.414 78.5371 131.125 78.5371C130.237 78.5371 129.354 78.6264 128.482 78.784C127.709 79.9033 126.6 80.7441 125.665 81.7425C121.834 85.8887 120.851 92.4468 123.174 97.5493L123.216 97.5703C125.365 96.6717 127.368 95.2582 129.28 93.997C132.806 91.5955 135.77 88.5581 138.666 85.4735L138.671 85.4788ZM139.696 11.4584C139.696 11.4268 139.706 11.4006 139.711 11.3691C137.31 11.0958 135.381 9.83983 133.074 8.15827C130.4 6.38211 127.32 5.36797 124.272 4.40633C121.324 3.28704 117.846 4.25918 117.12 7.35432C117.194 7.29126 117.267 7.23342 117.346 7.18612C119.138 6.2455 121.135 5.8409 123.185 5.8409C128.082 5.8409 133.285 8.16356 136.79 11.0853C137.583 11.7106 138.324 12.2782 139.107 12.8089C139.265 12.6302 139.428 12.462 139.601 12.3149C139.459 12.0469 139.507 11.6633 139.701 11.4636L139.696 11.4584ZM155.455 38.3214C155.702 38.4843 155.928 38.6577 156.149 38.8521C154.294 35.6046 152.371 32.6093 150.463 29.4091C148.314 25.4522 146.044 21.7527 143.574 18.0322C142.533 16.5031 141.635 14.8635 140.516 13.3869C138.519 15.4363 137.762 19.0149 138.986 21.6213C139.559 22.5462 140.61 22.9771 141.467 23.5867C142.313 24.17 143.001 24.9319 143.516 25.82C144.026 26.6923 144.388 27.6435 144.604 28.6314C144.94 30.2762 144.872 31.9735 144.735 33.634C144.756 34.0229 144.499 34.5063 144.73 34.8426C145.303 35.5205 145.918 36.1616 146.422 36.8973C147.205 37.9798 147.815 39.2305 148.162 40.5232C149.407 37.3019 152.628 36.4191 155.45 38.3319L155.455 38.3214ZM159.822 69.1676C160.038 67.8013 160.285 66.4456 160.495 65.0846C158.309 64.3068 156.964 62.0945 155.497 60.4182C154.32 58.9626 153.317 57.3809 152.313 55.8044C152.297 55.8149 152.281 55.8202 152.266 55.8254C152.208 55.8465 152.145 55.8727 152.076 55.899C152.534 58.1586 149.234 61.0435 147.068 60.7755C142.696 60.744 141.509 54.2279 144.94 52.0366C146.075 51.3325 147.846 51.6793 148.561 52.8301C148.766 53.2505 148.692 53.9809 148.172 54.1544C147.836 54.2437 147.515 54.1439 147.189 54.044C146.89 53.9494 146.59 53.8601 146.275 53.9179C144.52 54.3068 144.446 57.2022 146.023 57.9011C147.263 58.4949 148.566 57.9011 149.396 56.929C148.845 57.0393 148.361 57.0025 148.077 56.6715C147.294 55.7834 147.951 54.4276 149.107 54.3856C150.889 53.8181 152.702 53.1297 154.073 51.816C156.301 49.6247 157.631 46.1932 156.732 43.1138C156.07 40.8647 153.585 38.6419 151.146 39.509C148.955 40.8752 148.655 44.0755 148.246 46.4087C148.183 47.1181 147.41 47.8222 146.79 47.1706C146.296 46.6083 146.574 45.8254 146.706 45.1738C146.811 43.9756 146.885 42.7618 146.695 41.5689C146.349 39.1622 144.515 37.5173 143.248 35.6098C142.843 34.5483 143.285 33.4081 143.274 32.3151C143.364 30.6913 143.332 28.9519 142.623 27.4753C140.689 23.4658 136.842 24.9162 137.073 18.7207C137.121 17.6907 137.357 16.3822 137.804 15.1578C131.955 17.6171 128.382 23.3239 124.225 27.8537C122.27 29.8873 119.727 31.2062 117.252 32.4832C117.504 34.8058 119.18 36.8343 118.833 39.2673C118.665 41.6057 117.683 44.1386 117.252 46.3614C116.695 49.5091 116.479 52.7408 117.047 55.899C118.198 61.3483 121.976 64.3121 127.389 64.9847C129.322 65.279 131.293 65.3841 133.243 65.2159C134.01 65.1581 134.767 64.9584 135.534 64.9584C135.691 64.9584 135.849 64.9689 136.007 64.9899C136.879 65.0793 137.683 65.4944 138.392 65.9831C137.814 67.1812 136.611 68.0903 135.308 68.3478C134.031 68.579 132.743 68.6841 131.451 68.6841C132.092 69.4566 132.444 70.5023 132.885 71.3852C134.598 75.6206 135.623 80.0978 136.574 84.5592C137 84.5644 137.441 84.5591 137.877 84.5486C138.456 84.5329 139.034 84.5224 139.591 84.5486C141.677 82.4046 143.784 80.2869 145.86 78.1272C148.387 75.4682 151.078 72.804 154.557 71.4482C156.16 70.7809 157.92 70.2816 159.68 70.1818C159.728 69.835 159.807 69.4882 159.833 69.1729L159.822 69.1676ZM167.295 56.4402C167.432 56.2931 167.547 56.1302 167.657 55.9673C164.899 53.2085 161.115 47.3283 158.661 43.2242C158.813 43.9179 158.887 44.6325 158.876 45.3366C158.813 49.1464 156.853 53.0351 153.621 55.1003C155.471 57.8433 157.515 60.5075 160.075 62.6147C160.353 62.8249 160.584 62.9511 160.794 62.9984C160.91 62.578 161.168 62.2049 161.646 62.4361C161.698 62.4781 161.746 62.5254 161.788 62.5727C161.83 62.5307 161.877 62.4834 161.924 62.4308C163.769 60.5601 165.666 58.4213 167.295 56.4402ZM177.484 41.2904C177.852 38.9625 178.141 36.4717 178.099 34.1385C177.868 31.0696 177.017 28.0586 175.855 25.221C174.132 20.8121 170.064 18.1794 166.044 16.0722C163.58 14.7952 161.147 13.3607 158.461 12.6145C155.24 11.7316 151.924 11.2114 148.592 11.1326C149.207 12.9035 148.902 15.4205 148.219 16.6975C147.82 17.4121 146.874 19.1988 145.928 18.2582C145.723 17.7432 145.949 17.1179 146.275 16.6975C147.384 15.41 147.615 13.6234 147.153 12.0207C147.063 10.9644 145.439 11.1063 143.81 11.5004C143.742 11.5425 143.668 11.5582 143.595 11.5582C142.812 11.7579 142.045 12.0101 141.461 12.2046C141.488 12.3412 141.482 12.4936 141.44 12.6302C143.668 15.4941 145.613 18.584 147.683 21.5635C150.91 26.7869 153.974 32.1101 157.226 37.3229C159.055 40.5862 160.963 43.8075 163.149 46.85C165.277 49.6667 167.211 52.7408 169.907 55.0529C174.515 51.9788 176.502 46.5348 177.49 41.3009L177.484 41.2904ZM178.982 28.3634C179.917 31.4743 180.217 34.7165 179.849 37.9483C179.592 41.5794 178.861 45.1475 177.532 48.5316C176.47 51.3851 174.857 54.0913 172.397 55.9463C171.593 56.4665 170.9 57.4544 169.891 57.4912C169.644 57.4492 169.36 57.3283 169.055 57.1392C168.104 58.537 166.901 59.7613 165.818 61.054C164.878 61.9421 163.375 64.1754 161.919 64.9321C161.788 66.6978 161.604 68.4582 161.42 70.2186C162.46 70.329 163.48 70.6127 164.436 71.1119C165.261 71.4587 166.128 72.7252 165.182 73.4083C164.794 73.629 164.405 73.361 164.252 72.9984C162.266 71.7845 159.712 71.979 157.547 72.5465C153.459 73.5764 150.195 76.3458 147.457 79.4304C145.082 81.958 142.649 84.4278 140.258 86.9449C136.401 91.2224 132.207 95.2214 127.189 98.1168C124.462 99.8457 121.33 101.217 118.029 100.881C113.615 100.571 110.83 97.6911 111.96 93.1667C112.018 93.4452 112.081 93.834 112.128 94.1388C112.512 97.3811 115.213 98.1746 118.05 98.4426C119.359 98.5845 120.61 98.4321 121.808 98.0852C121.781 98.038 121.76 97.9959 121.734 97.9539C121.077 96.6612 120.778 95.2213 120.52 93.8078C119.832 89.6984 120.578 85.2266 122.995 81.7794C123.4 81.2854 123.841 80.681 124.33 80.0925C123.726 80.3552 123.143 80.639 122.57 80.9438C122.57 80.9438 122.564 80.9333 122.57 80.9333C125.224 78.3216 129.075 75.9306 132.917 76.8607C132.854 76.6137 132.791 76.3668 132.722 76.1251C132.418 75.1477 132.123 74.1493 131.782 73.1771C128.503 72.8671 124.793 74.4698 122.123 76.1829C117.93 79.3621 114.388 83.6554 112.543 88.616C109.663 96.5771 111.734 105.342 116.716 111.99C126.9 124.628 138.098 116.456 146.601 106.866C150.763 101.995 155.014 97.1394 159.36 92.4468C160.427 91.5482 164.315 87.4336 165.303 89.5198C165.361 90.2292 164.636 90.6549 164.047 90.8493C160.831 92.699 158.656 95.6575 156.354 98.4426C151.204 104.092 146.948 110.65 140.904 115.411C136.795 118.616 131.787 121.669 126.364 120.713C119.38 119.52 114.435 113.277 111.923 107.013C108.371 98.8997 109.154 88.9891 114.509 81.8372C117.662 77.5807 121.676 73.6237 126.921 72.2049C128.261 71.8423 129.69 71.4588 131.099 71.4693C130.904 71.0384 130.689 70.618 130.452 70.2133C129.564 70.0767 128.66 70.0924 127.762 70.1713C125.071 70.5181 122.491 71.7372 120.079 72.8618C117.819 74.0231 115.528 75.2632 113.594 76.929C112.375 78.1114 111.403 79.5197 110.504 80.949C107.456 85.7835 106.463 91.5429 106.19 97.1656C105.922 102.31 106.038 107.507 107.325 112.52C110.005 125.342 120.3 131.501 132.649 126.514C135.691 125.137 138.65 123.298 141.393 121.459C143.858 119.473 146.306 117.45 148.676 115.342C152.245 111.885 155.398 108.022 158.955 104.549C160.348 103.104 161.767 101.68 163.359 100.46C163.821 100.135 164.258 99.6144 164.878 99.7195C165.682 99.8719 165.739 100.918 165.33 101.49C161.294 104.875 157.715 108.821 154.163 112.725C150.132 117.255 145.466 121.512 140.463 124.943C138.077 126.446 135.676 127.98 133.064 129.068C133.032 129.263 132.954 129.446 132.838 129.578C131.514 131.753 130.279 133.861 129.033 136.068C132.733 138.974 136.805 141.223 141.036 143.214C144.609 144.549 148.356 145.416 152.103 146.147C154.993 146.683 157.936 146.835 160.868 146.835C161.42 146.877 161.993 146.845 162.571 146.809C163.911 146.735 165.261 146.656 166.365 147.523C165.897 148.506 164.736 148.963 163.695 148.932C161.43 149.063 159.155 149.11 156.89 149.021C151.125 148.679 145.334 147.455 139.948 145.385C137.967 144.418 135.996 143.361 134.104 142.184C133.968 142.358 133.836 142.526 133.742 142.694C132.244 144.938 130.951 147.266 129.648 149.615C128.55 151.617 127.473 153.629 126.521 155.71C125.954 157.035 125.392 158.39 124.703 159.667C124.23 160.855 123.626 162.1 122.959 162.673C123.269 163.178 123.747 163.624 123.742 164.25C123.742 164.723 123.442 165.295 122.906 165.295C122.123 165.217 121.792 164.202 121.335 163.661C119.406 160.766 117.499 157.86 115.486 155.022C110.226 147.324 104.067 140.287 99.1167 132.373C95.0809 126.498 90.9032 120.692 87.5663 114.381C84.1558 108.012 81.6702 101.165 79.1426 94.4279C75.2749 91.9528 70.9028 90.3448 66.3835 89.5513C64.313 89.2097 62.1112 88.4898 60.0354 89.1152C59.2262 89.5356 58.8793 90.4604 58.4169 91.2013C61.4648 90.1714 66.4255 92.904 69.1371 93.7395C70.414 94.2545 71.6805 94.7957 72.8471 95.5314C73.2675 95.6995 73.4094 96.2408 73.3095 96.6507C73.2202 97.0343 72.8208 97.4337 72.4109 97.2497C69.3683 95.8782 66.168 94.822 62.9782 93.8656C61.4438 93.4347 59.5783 92.925 58.1594 93.7815C58.1594 93.8025 58.1594 93.8236 58.1542 93.8393C57.9912 94.9901 56.646 95.7101 56.8719 96.9923C56.8719 97.2813 56.9403 97.5545 57.0191 97.833C60.1038 95.978 64.9594 98.285 68.0861 99.3885C69.7256 100.093 71.4703 100.66 72.9942 101.59C73.546 102.026 73.32 103.209 72.5318 103.13C69.6678 102.358 66.725 100.991 63.9136 100.245C62.5053 99.8614 61.0602 99.4463 59.5835 99.5672C58.5483 99.7143 57.5183 99.9823 56.5777 100.371C56.3359 100.492 56.0995 100.613 55.8577 100.739C55.8262 100.776 55.7999 100.818 55.7789 100.86C55.5792 102.184 56.3044 103.398 56.7616 104.601C58.3381 103.939 60.2404 103.997 61.8116 104.638C64.7492 105.584 67.3136 107.329 69.7834 109.136C70.4456 109.662 71.6227 110.203 71.2759 111.228C71.1287 111.68 70.5086 111.895 70.2143 111.443C66.5621 108.958 59.1947 103.923 55.4741 108.495C55.3165 108.805 55.1798 109.126 55.0642 109.457C55.0747 109.488 55.0905 109.525 55.101 109.557C55.5792 110.555 56.5987 111.133 57.5131 111.674C57.7968 111.832 58.0858 111.984 58.3801 112.126C58.6534 112.058 58.9109 112.195 59.0685 112.442C59.8673 112.788 60.6871 113.077 61.5121 113.34C63.1832 114.076 66.478 114.15 66.6252 116.467C66.4675 118.611 65.7634 120.807 66.5043 122.92C67.466 125.71 69.3 127.775 71.6279 129.268C71.9748 129.2 72.2428 129.42 72.3794 129.725C73.1309 130.151 73.9244 130.524 74.7494 130.85C75.5429 131.286 76.6675 131.512 76.9355 132.505C77.4452 134.386 77.75 136.325 78.554 138.117C80.43 142.142 83.005 145.794 85.0281 149.751C87.8921 154.97 90.1623 160.471 92.4219 165.973C93.0262 167.429 93.5727 168.911 94.2611 170.324C94.8077 170.997 94.692 172.468 93.6621 172.468C93.6253 172.468 93.5937 172.468 93.5517 172.468C92.9474 172.337 92.7477 171.685 92.4955 171.202C91.8334 169.757 91.2553 168.27 90.651 166.798C88.6226 161.848 86.6046 156.888 84.1138 152.158C83.7249 151.323 83.2992 150.503 82.8526 149.694C82.6371 149.709 82.3744 149.678 82.0538 149.599C78.9324 147.623 76.1525 145.064 73.0731 142.983C71.7698 142.032 70.4245 141.118 69.1844 140.082C67.3399 143.041 65.9 146.278 64.4286 149.415C63.9609 150.461 63.5195 151.512 63.0623 152.557C62.994 152.736 62.8574 152.894 62.705 153.004C63.1884 154.06 63.6719 155.117 64.1554 156.178C64.7702 157.035 64.7387 159.226 63.2357 158.769C62.8206 158.58 62.5999 158.228 62.4212 157.828C61.9955 156.877 61.5594 155.931 61.1338 154.98C60.2457 153.004 59.4153 151.013 58.5745 149.016C53.7137 137.87 49.8618 126.33 45.2059 115.106C44.7224 113.923 44.2653 112.736 43.7871 111.548C43.498 111.27 43.5453 110.665 43.9132 110.492C43.8291 107.271 43.9973 103.981 43.2616 100.839C41.8953 96.7663 38.9998 93.5293 35.4999 91.1646C34.8378 90.6969 34.7642 89.3201 35.6418 89.0416C36.2514 88.8314 36.7138 89.3884 37.1658 89.7037C40.8653 92.5361 44.0025 96.4773 45.064 101.086C45.5264 103.839 45.332 106.814 45.3005 109.562C45.2479 110.198 45.2952 110.76 45.0325 111.333C45.022 111.354 45.0115 111.375 44.9957 111.391C46.7403 115.264 48.5113 119.047 50.0983 122.957C53.3774 131.396 56.7931 139.888 60.5084 148.122C60.9498 149.131 61.3965 150.13 61.8484 151.123C61.8642 151.091 61.8799 151.065 61.8904 151.034C62.6314 149.336 63.4302 147.66 64.292 146.02C65.4008 143.918 66.5148 141.806 67.7918 139.799C67.9284 139.609 68.0546 139.404 68.1859 139.205C67.9127 138.937 67.6657 138.643 67.5343 138.29C67.3556 137.812 67.5028 137.339 67.692 136.898C68.5012 135.048 69.363 133.209 70.2511 131.391C69.0845 130.566 68.044 129.588 67.2243 128.364C66.8091 127.828 66.4413 127.292 66.126 126.751C66.5779 128.217 65.6635 129.867 64.9173 131.123C63.4407 133.593 59.7464 133.934 57.8441 131.774C55.9471 129.11 56.709 125.232 56.6828 122.132C56.8404 120.66 56.8089 116.677 57.3396 114.186C55.7894 113.309 54.4809 112.163 53.7663 110.545C53.5508 110.082 53.5508 109.11 53.9712 108.795C53.9712 107.781 54.1919 106.798 54.8698 105.983C55.0169 105.81 55.1746 105.647 55.3428 105.5C54.2024 104.086 53.5823 100.686 54.4862 99.5461C54.8015 99.131 55.1798 98.7369 55.6528 98.5057C55.6738 98.5004 55.6948 98.4951 55.7106 98.4846C55.2271 97.1026 55.2692 95.5209 56.0784 94.2702C56.11 94.2176 56.1415 94.1651 56.173 94.1126C56.3254 93.3033 56.6302 92.5361 57.1925 91.9213C57.3029 91.8162 57.4237 91.7216 57.5446 91.6375C57.3239 91.4536 57.1715 91.1436 57.0979 90.8861C56.7563 89.709 57.5919 88.5949 58.275 87.7121C58.8583 87.0973 59.5572 86.74 60.3297 86.5613C59.9514 86.514 59.5783 86.472 59.2052 86.4247C58.4537 86.3353 57.7075 86.2407 56.956 86.1514C55.3848 85.9622 53.8083 85.7731 52.237 85.5892C49.0157 85.2161 45.7997 84.8377 42.5836 84.433C39.3991 84.0337 36.2199 83.6081 33.0406 83.1614C32.5204 83.0878 32.0001 83.0142 31.4851 82.9302C31.9423 83.2034 32.3837 83.5082 32.8094 83.8392C33.5766 84.4856 34.4857 85.1372 34.7642 86.1514C34.9534 86.6927 34.8115 87.4073 34.4752 88.0432C34.4962 88.0589 34.512 88.0695 34.533 88.0852C34.5067 88.0852 34.4805 88.0852 34.4542 88.0852C33.9077 89.0994 32.8672 89.8771 31.9055 89.3096C31.7426 89.2203 31.6901 89.0889 31.7584 88.9207C31.8214 88.432 32.1157 88.101 32.4415 87.7962C31.8372 87.6333 31.2539 87.3758 30.8913 86.8503C30.4814 86.267 30.4079 85.3316 30.8756 84.7694C29.2255 83.7972 27.2811 83.3768 25.4156 83.3085C22.4413 83.1876 19.1464 83.0405 16.4664 84.5171C15.5152 85.153 15.0476 86.3406 15.0791 87.4599C15.1106 87.9801 15.3208 88.4741 15.284 88.9996C15.2525 89.42 14.9004 89.8141 14.4642 89.7563C14.4642 89.7563 14.4642 89.7563 14.459 89.7563C14.1962 89.7195 14.0123 89.4778 13.9072 89.2518C13.0979 87.4862 13.3817 85.3369 14.4642 83.7499C15.6414 82.2103 17.6382 81.5219 19.7928 81.2591C18.5368 80.7442 17.1548 80.4761 16.0039 79.7983C15.9619 79.751 15.9199 79.6984 15.8883 79.6406C15.4732 79.4987 15.0633 78.9837 14.8899 78.5738C13.7391 76.4876 14.7743 73.7656 16.6398 72.4624C19.8401 70.6074 23.5396 69.8297 27.1813 69.1886C27.2969 69.0257 27.4703 68.9206 27.6648 68.9574C27.7856 68.9574 27.9012 68.9784 28.0168 68.9889C28.0852 68.9942 28.1535 68.9994 28.227 69.0099C28.5581 68.9521 28.8839 68.8996 29.2097 68.8418C29.4777 68.8313 29.6879 68.9732 29.8193 69.1729L30.2292 69.2149C31.2697 69.3252 32.3101 69.4303 33.3506 69.5302C33.4505 69.5407 33.5556 69.5512 33.6554 69.5565C34.0285 69.5933 34.4016 69.6248 34.6749 69.651C34.7853 69.6615 34.8956 69.6721 34.9061 69.6721C38.5058 70.0084 42.0949 70.392 45.6894 70.7808C49.4046 71.1802 53.1146 71.6164 56.8247 72.0473C60.4926 72.4729 64.1606 72.9038 67.8286 73.3347C69.2632 73.5029 70.703 73.671 72.1377 73.8392C72.1166 73.8181 72.0956 73.8024 72.0799 73.7814C71.5754 73.0877 71.9327 72.1418 71.8592 71.3431C71.8907 69.052 71.9432 66.7609 72.206 64.4855C72.0273 64.4697 71.8224 64.475 71.6069 64.4855C70.8134 64.5013 69.8938 64.5223 69.7834 63.6026C69.6836 62.0525 69.4734 60.4025 69.6941 58.847C69.5102 58.826 69.3263 58.8102 69.1423 58.7892C67.7971 58.6526 66.478 58.3478 65.1538 58.3268C65.1328 58.4897 65.1065 58.6578 65.0855 58.8207C64.9016 59.3357 64.4444 59.4881 64.0765 59.3304C63.4722 59.5406 62.8521 59.7088 62.2373 59.8822C61.3755 60.0399 60.314 60.5811 59.4469 60.4602C59.3681 60.4707 59.2892 60.4707 59.2157 60.4602C59.1947 60.5969 59.1684 60.7282 59.1421 60.8649C59.1211 61.033 59.058 61.2012 58.9634 61.3483C58.9634 61.3483 58.9634 61.3535 58.9582 61.3588C58.8741 61.5164 58.748 61.6478 58.5798 61.7162C58.543 61.7267 58.5115 61.7319 58.4747 61.7372C58.4327 61.753 58.3959 61.7582 58.3486 61.7634C53.7978 62.7408 49.3153 64.0756 44.6699 64.5643C44.3441 64.5643 43.9762 64.6747 43.6294 64.701C43.5085 64.8534 43.3351 64.9584 43.1302 64.9584C43.0881 64.9584 43.0513 64.9584 43.0093 64.9479C42.5416 64.8586 42.3261 64.3121 42.3839 63.8864C42.3945 63.8076 42.405 63.734 42.4207 63.6604C42.4207 63.6394 42.4313 63.6184 42.4313 63.6026C42.5364 62.9668 42.6362 62.331 42.7361 61.6951C42.8517 60.9805 42.9725 60.2711 43.0934 59.5564C41.5274 59.4145 39.9562 59.2937 38.3849 59.1833C36.4668 59.0467 34.5488 58.8943 32.6307 58.7314C31.1278 58.6 29.6249 58.4687 28.1272 58.3268C28.0168 58.3163 27.9117 58.3057 27.8066 58.2952C27.7804 58.2952 27.7594 58.2952 27.7383 58.29H27.6805C27.6069 58.2794 27.5334 58.269 27.4598 58.2585C27.4125 58.2585 27.36 58.2532 27.3127 58.2479C27.3022 58.2479 27.2969 58.2479 27.2864 58.2479H27.2759C27.1866 58.2374 27.0972 58.2269 27.0079 58.2216H26.9553C26.8502 58.2059 26.7451 58.2007 26.6821 58.1901C26.6295 58.1901 26.577 58.1796 26.556 58.1796C26.4088 58.1639 26.2617 58.1481 26.1723 58.1428C25.8781 58.1165 25.589 58.0851 25.4314 58.0693C25.1424 58.043 24.8533 58.0167 24.5591 57.9852C20.8753 57.6436 17.1968 57.2653 13.5289 56.7871C12.6197 56.6662 11.7106 56.5401 10.8015 56.4087C10.3654 56.3457 9.92919 56.2826 9.49828 56.2196C9.30384 56.188 9.11467 56.1565 8.92549 56.1197C8.72054 56.0776 8.54188 56.0041 8.42101 55.8254C8.23709 55.5574 8.23183 55.1633 8.42101 54.8953C8.44203 54.869 8.45779 54.848 8.47881 54.827C8.53661 54.7639 8.60493 54.7219 8.6785 54.6904C8.69952 54.4539 8.82039 54.228 9.03059 54.1123C9.07263 54.0808 9.11993 54.0651 9.16723 54.0493C9.37217 53.9652 9.5771 53.8759 9.77679 53.7918C10.0238 53.6814 10.276 53.5763 10.4494 53.5028C10.544 53.4607 10.6386 53.4187 10.6544 53.4134C12.3728 52.662 14.0806 51.9053 15.7832 51.1696C15.8463 51.1433 15.9094 51.1171 15.9356 51.1013C15.9461 51.096 15.9619 51.0908 15.9724 51.0855C15.9724 51.0855 15.9829 51.0855 15.9882 51.0803C15.9934 51.075 15.9934 51.0803 15.9987 51.0803C16.1196 51.0277 16.2404 50.9751 16.356 50.9226C16.3771 50.9121 16.3981 50.9069 16.4138 50.8964C16.4243 50.8964 16.4349 50.8858 16.4401 50.8858C17.8642 50.271 19.2988 49.6877 20.7334 49.0992C21.3956 48.8312 22.0524 48.5579 22.7093 48.2899C22.7093 48.2899 22.7041 48.2899 22.6988 48.2899C21.2274 48.5474 19.7508 48.8049 18.2794 49.0519C15.2683 49.5563 12.2572 50.0818 9.24605 50.5968C7.85348 50.8333 6.46616 51.075 5.07359 51.3167C4.40621 51.4323 3.73882 51.5479 3.06618 51.6635C2.74563 51.7161 2.42508 51.7739 2.09927 51.8265C1.95213 51.8528 1.80499 51.879 1.65259 51.9C1.54224 51.921 1.41613 51.9526 1.30052 51.9526C1.29001 51.9526 1.27948 51.9526 1.26897 51.9526C0.979949 51.9368 0.801285 51.6846 0.7645 51.4218C0.748735 51.4008 0.732972 51.3798 0.717207 51.3535C0.591087 51.1591 0.554309 50.9436 0.559564 50.7492C0.559564 50.7229 0.559558 50.6809 0.570068 50.6389C0.638383 49.7193 0.675161 48.7996 0.727711 47.8748C0.827556 46.2353 0.901131 44.5905 0.99572 42.951C1.19015 39.4249 1.41086 35.9042 1.68412 32.3886C1.95738 28.8626 2.22014 25.3366 2.48289 21.8053C2.61426 20.0028 2.75088 18.2057 2.89802 16.4032C2.97159 15.4941 3.05042 14.5797 3.12924 13.6706C3.1923 12.9402 3.21858 12.1941 3.36572 11.4741C3.39725 11.2955 3.40251 11.1168 3.4971 10.9644C3.52337 10.9224 3.54439 10.8908 3.57592 10.854C3.5549 10.523 3.71781 10.1709 4.04362 10.0605C4.19076 10.0132 4.34315 10.0448 4.48504 10.0868C4.67422 10.1446 4.85814 10.2235 5.04206 10.3023C5.35736 10.4337 5.6674 10.5808 5.97745 10.7279C6.67111 11.0537 7.35951 11.4006 8.04791 11.7369C9.45625 12.4358 10.8593 13.1452 12.2519 13.8651C13.0139 14.2593 13.7758 14.6586 14.5326 15.0527C14.4327 14.9949 14.3329 14.9318 14.233 14.874C12.872 14.07 11.5109 13.2713 10.1604 12.4621C8.84667 11.6791 7.54868 10.8803 6.23494 10.1079L5.04731 9.40893C4.81609 9.27231 4.58488 9.12522 4.3484 8.9991C4.03836 8.85196 3.86494 8.46308 3.86494 8.12677C3.86494 7.70638 4.12769 7.1756 4.61115 7.1756C4.68998 7.1756 4.76355 7.1914 4.82661 7.21242C4.88967 7.13886 4.96849 7.08102 5.05783 7.04423C5.19446 6.98643 5.34684 7.01801 5.49398 7.02852C5.8303 7.04954 6.16663 7.07576 6.50295 7.10729C7.21237 7.16509 7.91653 7.2282 8.62595 7.29126C10.1184 7.42263 11.6055 7.55922 13.0979 7.70635C16.0775 7.99537 19.0571 8.3002 22.0367 8.61024C24.9374 8.91503 27.8382 9.26183 30.7389 9.57187C33.7185 9.88716 36.6981 10.1919 39.6777 10.5177C42.6467 10.8435 45.6105 11.1325 48.5796 11.4426C49.3363 11.5214 50.0878 11.6003 50.8445 11.6791C51.2281 11.7211 51.617 11.7632 52.0006 11.8052C52.1372 11.8157 52.2686 11.8367 52.4052 11.8525C52.4315 11.8525 52.4578 11.8525 52.484 11.8525C52.5524 11.8525 52.6259 11.8735 52.6942 11.8788C52.7941 11.8893 52.8939 11.8998 52.9885 11.9208C53.3248 11.9996 53.4982 12.3622 53.4877 12.688C53.4877 12.6985 53.4877 12.709 53.4877 12.7248C53.8924 13.1032 53.8714 13.76 53.8976 14.2855C53.8293 14.9056 54.0448 16.4505 53.8346 17.4384C54.0658 17.5593 54.297 17.6802 54.5335 17.8063C55.9681 18.563 57.4079 19.3092 58.8426 20.0711C59.7517 20.5546 60.6555 21.0486 61.5594 21.5478C61.8222 21.6949 62.0849 21.8368 62.3477 21.9839C62.3687 22.0785 62.4054 22.1731 62.4527 22.2624C62.9782 22.3202 63.5248 22.4779 63.4302 23.0454C63.4617 23.0612 63.4932 23.0769 63.53 23.0927C63.5616 23.1085 63.5931 23.1242 63.6299 23.14C63.6614 23.119 63.7034 23.1085 63.7507 23.1085C63.8768 23.1085 63.9556 23.1978 63.9924 23.3082C64.045 23.3344 64.1028 23.3555 64.1554 23.3817C64.2132 23.408 64.2709 23.429 64.3235 23.4553C64.3498 23.4658 64.3761 23.4816 64.4023 23.4921C64.3813 23.6707 64.355 23.8547 64.3288 24.0333C64.2604 24.5273 64.1921 25.016 64.1238 25.5099C63.9767 26.5294 63.8348 27.5436 63.6982 28.5578C63.6666 28.789 63.6351 29.0202 63.6036 29.2514C64.4706 29.3618 66.0314 31.1012 66.3309 31.511C66.6252 31.8631 66.8827 32.2572 67.2453 32.5462C67.6341 32.7564 67.7708 33.2662 67.6184 33.6655C67.6026 33.7128 67.5763 33.7549 67.5553 33.7969C67.5553 33.8442 67.5501 33.8915 67.5448 33.9335C67.5448 33.9651 67.5448 33.9966 67.5395 34.0282C67.5868 34.0282 67.6394 34.0282 67.6867 34.0282C68.0703 34.0387 68.4487 34.0544 68.8323 34.0702C69.61 34.1017 70.3878 34.1333 71.1655 34.1595C72.7157 34.2173 74.2607 34.2856 75.8109 34.3434C77.1614 34.396 78.512 34.4538 79.8625 34.5326C80.1935 34.5536 80.5246 34.5746 80.8504 34.5957C80.8136 34.2961 80.7769 34.0019 80.7033 33.7444C80.5877 33.1716 80.5667 32.4464 81.0869 32.0628C82.264 31.6371 83.6303 31.7475 84.881 31.5846C85.8794 31.5373 86.8937 31.4375 87.8869 31.49C89.0745 31.9262 90.1728 32.6093 91.1922 33.3503C92.4377 34.1175 93.6726 34.911 94.9285 35.6677C94.9653 35.5941 95.0179 35.5311 95.0757 35.468C98.0763 33.8758 103.158 34.9635 105.475 37.4123C105.77 37.6908 106.101 38.3739 106.053 38.8679C106.369 38.9572 106.668 39.0728 106.962 39.2252C107.63 39.2988 107.625 40.0608 107.535 40.5757C107.456 41.3692 107.388 42.1627 107.336 42.951C107.036 46.3299 106.516 49.756 106.332 53.1349C106.264 54.0703 106.206 55.0004 106.153 55.9358C106.164 56.0409 106.179 56.146 106.195 56.2563C107.052 56.2406 107.777 57.712 108.308 58.4634C108.923 59.1833 109.464 59.9821 109.921 60.8071C111.077 62.8985 111.723 65.258 111.876 67.6384C112.112 71.3326 111.182 75.2527 108.944 78.248C109.359 78.2953 109.774 78.3479 110.189 78.3952C112.433 75.2002 115.208 73.1718 119.559 71.1329C121.776 70.166 125.439 68.4634 128.382 68.4845C128.198 68.4634 128.014 68.4424 127.83 68.4161C117.278 67.2916 113.515 59.073 114.509 49.3251C114.661 45.6677 116.185 42.3046 116.763 38.7365C117.01 36.3508 113.825 32.0943 116.637 30.4495C118.849 29.325 121.119 28.1794 122.943 26.4611C122.717 26.4926 122.47 26.4295 122.223 26.2404C119.044 22.9193 117.068 18.7469 115.786 14.3643C114.792 11.1799 114.114 7.45942 115.854 4.40633C118.324 0.302258 122.57 0.365258 126.606 1.91545C128.497 2.5618 130.373 3.28703 132.123 4.2697C134.735 5.60444 136.627 8.17405 139.507 8.96754C140.384 9.17774 141.272 9.24608 142.166 9.25659C142.223 9.19353 142.281 9.13568 142.344 9.08313C142.928 8.64698 143.732 8.71007 144.425 8.59446C148.524 8.2529 152.697 8.54716 156.68 9.57187C160.458 10.297 163.821 12.1888 167.164 14.007C173.653 17.3911 177.174 21.1273 179.003 28.3318L178.982 28.3634Z" fill="#050505"/>
<path d="M37.6443 170.839C37.3446 170.498 37.392 169.977 37.3131 169.552C37.1133 167.387 36.8872 165.159 36.7978 163.02C37.576 165.301 38.1859 167.613 38.4278 170.009C38.7275 170.492 38.1439 171.339 37.6443 170.839Z" fill="#050505"/>
<path d="M37.3021 170.739C36.9763 168.758 36.4823 166.777 36.3615 164.78C36.3352 164.26 37.0288 163.897 37.3284 164.402C37.6542 165.632 37.775 166.94 38.0798 168.185C38.1166 169.047 39.0572 170.766 38.0798 171.265C37.7277 171.401 37.3599 171.091 37.2968 170.739H37.3021Z" fill="#050505"/>
<path d="M36.8921 91.4333C36.1407 91.2126 35.2421 90.8973 34.8164 90.1931C34.2909 89.9146 33.6183 89.9251 33.1401 89.5835C32.6146 89.0948 33.1085 87.7496 33.8442 88.4012C34.9635 88.5851 37.7697 89.2997 37.6541 90.7396C37.6173 91.1074 37.2915 91.5121 36.8921 91.4333Z" fill="#050505"/>
<path d="M34.544 90.9331C34.0342 90.6021 33.5455 90.229 33.0673 89.8454C32.7152 89.5879 32.3684 89.2254 32.4998 88.7472C32.9097 87.4229 34.4494 89.2096 35.1536 89.4671C35.9628 89.961 36.5777 90.7019 36.9875 91.5375C36.1362 91.5585 35.2639 91.4008 34.544 90.9331Z" fill="#050505"/>
<path d="M31.5061 90.5499C30.5392 89.562 32.7357 87.7175 33.6133 87.4127C33.4294 88.3744 33.0878 89.336 32.4782 90.1085C32.4257 90.5446 31.8687 90.8231 31.5113 90.5499H31.5061Z" fill="#050505"/>
<path d="M178.099 34.1383C178.141 36.4715 177.847 38.9623 177.485 41.2902C176.497 46.5241 174.505 51.9629 169.902 55.0423C167.206 52.7301 165.277 49.6507 163.144 46.8394C160.958 43.7968 159.05 40.5755 157.221 37.3123C153.963 32.0994 150.9 26.7761 147.678 21.5528C145.608 18.5733 143.669 15.4834 141.435 12.6195C141.477 12.4828 141.483 12.3357 141.456 12.1938C142.04 11.9994 142.807 11.7472 143.59 11.5475C143.663 11.5475 143.737 11.5317 143.805 11.4897C145.434 11.0956 147.058 10.9537 147.147 12.0099C147.61 13.6127 147.379 15.4046 146.27 16.6868C145.944 17.1072 145.723 17.7273 145.923 18.2475C146.869 19.1881 147.815 17.4067 148.214 16.6868C148.897 15.4099 149.202 12.8927 148.587 11.1218C151.919 11.2006 155.235 11.7209 158.456 12.6037C161.147 13.3552 163.575 14.7845 166.039 16.0614C170.064 18.1686 174.127 20.8066 175.85 25.2102C177.017 28.0479 177.868 31.0589 178.094 34.1278L178.099 34.1383Z" fill="white"/>
<path d="M167.658 55.967C167.548 56.1299 167.432 56.2927 167.296 56.4399C165.667 58.421 163.77 60.565 161.925 62.4305C161.878 62.4778 161.831 62.5303 161.788 62.5724C161.746 62.5251 161.699 62.4778 161.647 62.4357C161.168 62.2045 160.911 62.5724 160.795 62.998C160.585 62.9507 160.359 62.8193 160.075 62.6144C157.516 60.5072 155.472 57.843 153.622 55.0999C156.854 53.0347 158.814 49.1461 158.877 45.3363C158.888 44.6321 158.819 43.9175 158.662 43.2239C161.116 47.3279 164.905 53.2134 167.658 55.967Z" fill="white"/>
<path d="M133.878 10.9799C135.255 11.7471 136.448 12.7929 137.814 13.5969C135.14 14.3115 132.88 16.1823 130.815 17.9689C128.256 20.2022 126.201 22.9821 123.894 25.4834C123.989 25.1524 123.983 24.795 123.836 24.4955C123.453 23.702 122.78 23.0977 122.281 22.3725C120.116 19.6978 118.944 16.4135 117.851 13.1922C117.53 12.1097 117.21 11.0062 117.068 9.88689C118.203 8.01089 120.972 7.86902 123.064 7.86377C126.863 7.88479 130.615 9.06711 133.878 10.9851V10.9799Z" fill="white"/>
<path d="M139.717 11.3688C139.712 11.4003 139.707 11.4265 139.701 11.4581C139.512 11.6525 139.46 12.0414 139.602 12.3094C139.428 12.4565 139.265 12.6247 139.108 12.8033C138.325 12.2779 137.584 11.7103 136.79 11.0797C133.285 8.16326 128.083 5.83536 123.185 5.83536C121.136 5.83536 119.144 6.23995 117.347 7.18058C117.273 7.22787 117.2 7.28571 117.121 7.34877C117.846 4.24838 121.325 3.28149 124.273 4.40078C127.315 5.36243 130.395 6.37656 133.075 8.15272C135.382 9.83428 137.31 11.0903 139.712 11.3635L139.717 11.3688Z" fill="white"/>
<path d="M122.502 37.5484C123.222 36.8285 122.344 35.6724 121.971 34.963C121.304 33.7176 119.99 35.0839 120.947 35.8721C121.262 36.3083 121.393 36.839 121.624 37.3172C121.798 37.6483 122.202 37.7954 122.502 37.5484ZM125.839 46.0824C126.17 45.4465 125.934 44.4901 125.156 44.3482C124.856 44.2904 124.525 44.3325 124.22 44.3482C122.938 44.5427 119.128 44.0225 120.127 46.3136C120.421 46.734 120.936 46.8128 121.362 47.0913C121.745 47.475 122.234 46.9442 122.092 46.5185C122.449 46.5185 122.812 46.5238 123.169 46.5238H123.18C123.112 46.6394 123.054 46.7603 123.017 46.8969C122.938 47.1964 122.933 47.538 123.075 47.8218C123.853 48.8938 124.588 47.3226 125.124 46.8233C125.371 46.5974 125.676 46.3819 125.834 46.0824H125.839ZM133.968 30.8957C134.988 30.118 134.163 27.8742 132.86 28.757C131.898 29.7712 129.071 31.3477 130.479 32.9294C130.826 33.2131 131.299 33.1186 131.567 32.7665C132.476 32.2988 133.185 31.5421 133.968 30.8957ZM137.847 29.5662C138.046 28.3734 138.067 24.5741 136.097 25.2415C135.724 25.2099 135.492 25.6724 135.492 25.9929C135.471 26.3923 135.745 26.6288 136.055 26.7917C136.386 28.0581 136.081 29.4244 135.781 30.6698C135.534 31.5158 134.741 32.467 135.466 33.292L135.456 33.271C137.053 34.6372 137.705 30.5647 137.841 29.5715L137.847 29.5662ZM152.161 48.2737C153.349 47.0283 154.783 45.1365 153.859 43.3761C153.412 42.5248 152.272 42.3462 151.536 42.94C149.576 44.6636 148.882 47.5537 148.845 50.0761C148.688 50.3861 148.714 50.8276 148.971 51.0745C149.145 51.3478 149.455 51.4897 149.749 51.3215C150.38 50.9221 150.185 50.0446 150.322 49.4087C151.031 49.7766 152.025 49.3614 152.303 48.6257C152.314 48.5049 152.219 48.3735 152.161 48.279V48.2737ZM160.49 65.0841C160.28 66.4504 160.033 67.8061 159.818 69.1672C159.797 69.4824 159.718 69.8292 159.665 70.1761C157.905 70.2759 156.139 70.7751 154.542 71.4425C151.063 72.7983 148.372 75.4572 145.845 78.1214C143.774 80.276 141.662 82.3937 139.575 84.543C139.018 84.5167 138.44 84.5272 137.862 84.543C137.426 84.5535 136.985 84.5639 136.559 84.5534C135.613 80.0973 134.588 75.6149 132.87 71.3794C132.434 70.4966 132.077 69.4509 131.436 68.6784C132.728 68.6784 134.016 68.5733 135.293 68.3421C136.596 68.0846 137.799 67.1755 138.377 65.9774C137.673 65.4834 136.869 65.0736 135.992 64.9842C135.834 64.9632 135.676 64.9527 135.519 64.9527C134.751 64.9527 133.995 65.1524 133.227 65.2102C131.278 65.3784 129.307 65.2732 127.373 64.979C121.961 64.3063 118.182 61.3426 117.032 55.8933C116.464 52.7351 116.674 49.5033 117.237 46.3557C117.667 44.1328 118.65 41.6 118.818 39.2615C119.165 36.8285 117.489 34.8001 117.237 32.4775C119.717 31.2005 122.255 29.8816 124.21 27.8479C128.367 23.3182 131.935 17.6114 137.789 15.1521C137.342 16.3712 137.111 17.685 137.058 18.7149C136.827 24.9104 140.674 23.4601 142.608 27.4695C143.322 28.9514 143.349 30.6856 143.259 32.3093C143.27 33.4024 142.828 34.5427 143.233 35.6042C144.499 37.5117 146.339 39.1565 146.68 41.5632C146.869 42.7508 146.796 43.9699 146.691 45.168C146.559 45.8196 146.276 46.6027 146.775 47.1649C147.395 47.8113 148.167 47.1123 148.23 46.4029C148.646 44.0698 148.94 40.8695 151.131 39.5033C153.575 38.6362 156.055 40.859 156.717 43.1081C157.616 46.1875 156.286 49.6189 154.058 51.8102C152.687 53.124 150.874 53.8124 149.092 54.3799C147.936 54.4219 147.279 55.7724 148.062 56.6657C148.346 56.9968 148.83 57.0336 149.381 56.9232C148.551 57.8901 147.248 58.4892 146.008 57.8954C144.431 57.1965 144.505 54.3011 146.26 53.9122C146.575 53.8544 146.875 53.949 147.174 54.0383C147.5 54.1381 147.821 54.238 148.157 54.1486C148.677 53.9805 148.751 53.2448 148.546 52.8244C147.836 51.6736 146.065 51.332 144.925 52.0309C141.494 54.2169 142.681 60.7383 147.053 60.7698C149.218 61.0378 152.513 58.1529 152.061 55.8933C152.13 55.867 152.193 55.8407 152.25 55.8197C152.266 55.8092 152.282 55.8039 152.298 55.7987C153.301 57.3751 154.305 58.9569 155.482 60.4125C156.948 62.0888 158.294 64.3011 160.48 65.0788L160.49 65.0841Z" fill="white"/>
<path d="M205.174 106.646C205.205 104.985 207.16 104.985 207.191 106.646C207.16 108.306 205.205 108.306 205.174 106.646Z" fill="white"/>
<path d="M160.874 62.9354C160.532 62.9354 160.353 62.5098 160.5 62.2312C160.558 62.1051 160.669 62.0631 160.784 62.0316C161.047 61.937 161.315 61.7741 161.594 61.7635C161.573 62.2155 161.394 62.8618 160.874 62.9354Z" fill="white"/>
<path d="M176.266 77.1293C176.297 75.4688 178.252 75.4688 178.284 77.1293C178.252 78.7899 176.297 78.7899 176.266 77.1293Z" fill="white"/>
<path d="M160.484 62.8305C160.253 62.4785 160.557 62.1474 160.894 62.468C161.377 62.4575 161.745 62.1158 162.102 61.8268C162.323 61.7165 162.349 62.0476 162.192 62.1369C161.908 62.6099 160.983 63.3403 160.484 62.8305Z" fill="white"/>
</svg>
