<svg width="222" height="142" viewBox="0 0 222 142" fill="none" xmlns="http://www.w3.org/2000/svg">
<path d="M68.9195 27.4655C69.4713 28.4219 69.0141 29.9721 67.7424 29.888C66.3761 29.7199 67.3378 28.9684 67.9421 28.3431C67.4061 27.5285 68.3467 26.3883 68.9195 27.4655Z" fill="#050505"/>
<path d="M68.2783 33.2208C68.2941 33.6779 67.9367 33.988 67.6109 34.2403C67.8106 34.4977 68.0313 34.7762 68.1574 35.081C67.5689 35.4384 66.7649 35.3122 66.3602 34.7342C66.3287 34.6869 66.3024 34.6396 66.2814 34.5923C65.7086 34.8761 64.7522 35.2912 64.7259 34.277C64.7259 33.9512 64.8941 33.6254 65.2357 33.6149C66.1027 33.3469 66.8437 32.7163 67.7318 32.5377C68.0786 32.5114 68.2836 32.9318 68.2783 33.2208Z" fill="#050505"/>
<path d="M62.6445 23.6095C64.1947 23.436 63.5168 26.5943 62.2031 26.2002C61.1521 25.785 60.8998 23.1523 61.8142 22.5217C62.3975 22.2012 62.9756 23.0682 62.6445 23.5674V23.6095Z" fill="#050505"/>
<path d="M62.6341 20.7014C62.6026 20.7434 62.4923 20.7171 62.4397 20.7329C61.2468 20.9063 60.2694 22.0886 59.7386 23.0976C59.6966 23.4128 59.4654 23.8175 59.0975 23.6808C57.9992 22.9504 59.9173 20.6803 60.7634 20.3545C61.394 20.055 62.1559 20.1969 62.6341 20.7014Z" fill="#050505"/>
<path d="M47.632 34.4181C47.9158 35.4113 47.0697 36.6882 46.1659 35.5794C45.9242 35.1695 45.5143 34.9225 45.2568 34.5442C44.952 34.0712 45.1674 33.3408 45.7823 33.3198C45.5773 33.0886 45.3566 32.8259 45.0518 32.7313C44.2531 32.9677 44.0481 31.5332 44.8101 31.3545C45.509 31.1863 46.1554 31.8116 46.5705 32.2951C47.0908 32.8941 47.4691 33.6456 47.632 34.4233V34.4181Z" fill="#050505"/>
<path d="M31.2317 77.8228C31.5996 78.8948 31.5365 80.0562 31.1004 81.0966C30.9007 81.5748 30.5906 82.0372 30.2175 82.3998C29.8549 82.7624 29.4503 83.0304 28.9931 83.2564C28.5307 83.4823 27.9999 83.5822 27.4902 83.6085C27.4324 83.6085 27.3693 83.6085 27.3115 83.6085C26.6021 83.6085 25.9085 83.4035 25.2936 83.0567C24.3004 82.4944 23.549 81.4908 23.2599 80.3925C23.1128 79.825 23.0708 79.2522 23.1286 78.6689C23.1654 78.3168 23.2652 77.9753 23.3808 77.6442C23.5227 77.2396 23.7539 76.8402 24.0324 76.5091C24.1165 76.4093 24.2163 76.2832 24.332 76.1728C24.3635 75.9206 24.4844 75.6894 24.6946 75.5265C24.7366 75.4949 24.7839 75.4634 24.8312 75.4371C24.9783 75.3425 25.1202 75.2532 25.2779 75.1744C25.6404 74.9904 26.0451 74.8591 26.4445 74.796C27.3693 74.6541 28.289 74.817 29.114 75.2637C30.1177 75.805 30.8692 76.7508 31.2317 77.8281V77.8228Z" fill="#050505"/>
<path d="M59.3291 87.0977C59.3343 87.9963 59.1136 88.8791 58.7037 89.6778C57.9996 91.0441 56.6385 92.0793 55.1093 92.3053C54.8518 92.3473 54.5943 92.3631 54.3368 92.3631C53.8324 92.3631 53.3384 92.2895 52.8392 92.1476C52.0509 91.9269 51.3257 91.4645 50.7372 90.9022C49.4812 89.7093 48.919 87.8438 49.2448 86.1518C49.3656 85.5317 49.5758 84.9432 49.9016 84.3966C50.1591 83.9552 50.4902 83.5769 50.8633 83.2301C51.1628 82.9463 51.5097 82.7151 51.8775 82.5207C51.9563 82.3893 52.0719 82.2789 52.2243 82.2106C52.2401 82.2053 52.2611 82.1949 52.2821 82.1896C52.5922 82.0688 52.9022 81.9636 53.2333 81.9058C53.9164 81.7797 54.6469 81.785 55.3248 81.9531C56.1025 82.1475 56.8119 82.4891 57.432 83.0041C57.9996 83.4823 58.483 84.0918 58.7983 84.7645C59.1399 85.5001 59.3238 86.2832 59.3291 87.0977Z" fill="#050505"/>
<path d="M66.7907 60.965C66.9011 61.8584 66.6278 62.7832 66.055 63.4716C65.5453 64.0865 64.8043 64.428 64.0108 64.4753C63.9635 64.4753 63.9162 64.4753 63.8637 64.4753C63.0649 64.4753 62.3187 64.0864 61.7722 63.5189C61.047 62.7622 60.8 61.6061 61.0523 60.6077C61.2414 59.851 61.7512 59.0628 62.4921 58.7422C62.4974 58.7422 62.5026 58.7422 62.5079 58.737C62.6025 58.5636 62.7496 58.4269 62.9388 58.3796C63.8689 58.0538 64.8884 58.285 65.6556 58.9051C66.2862 59.4096 66.6909 60.1716 66.7907 60.9703V60.965Z" fill="#050505"/>
<path d="M122.084 41.3745C121.926 42.5464 121.295 44.3278 119.877 44.3488C119.146 44.3541 118.994 43.0771 119.761 43.0088C120.707 42.9352 121.338 41.8947 122.084 41.3745Z" fill="#050505"/>
<path d="M154.613 38.5432C155.574 37.4029 156.515 39.2054 155.422 39.8044C155.196 40.3719 155.002 40.9658 154.634 41.465C154.003 42.1271 153.341 41.3809 153.656 40.6557C152.968 40.9657 152.253 41.218 151.586 41.5701C151.413 42.001 150.85 42.0273 150.64 41.6016C150.162 40.5717 151.444 40.0619 152.18 39.7256C152.994 39.3262 153.809 38.9531 154.613 38.538V38.5432Z" fill="#050505"/>
<path d="M151.69 34.8912C150.913 35.3378 149.725 35.9001 148.974 35.1329C148.532 34.702 148.448 33.63 149.215 33.5459C149.452 33.5459 149.662 33.7403 149.73 33.9611C150.188 34.4971 151.123 34.4918 151.69 34.8912Z" fill="#050505"/>
<path d="M147.177 26.6466C147.34 27.4821 146.83 29.1532 145.732 28.47C145.133 28.0286 144.202 24.7023 145.464 24.6865C145.737 24.6865 145.921 24.8757 146.015 25.1017C146.804 24.7338 147.171 26.0633 147.177 26.6413V26.6466Z" fill="#050505"/>
<path d="M155.637 24.391C157.056 24.3385 157.061 28.4005 155.48 28.122C154.833 27.9591 154.712 27.1709 154.591 26.6086C154.46 25.8256 154.161 24.9638 154.45 24.1966C154.744 23.6081 155.516 23.7657 155.637 24.3858V24.391Z" fill="#050505"/>
<path d="M154.081 21.7114C155.92 20.4345 159.373 21.7535 158.301 24.3126C157.912 22.7992 155.884 22.3578 154.554 22.7729C153.981 22.9463 153.713 22.0582 154.086 21.7167L154.081 21.7114Z" fill="#050505"/>
<path d="M147.944 24.0455C147.775 24.0455 147.576 23.9772 147.397 23.9404C146.577 23.7775 145.747 23.6304 144.927 23.499C144.155 23.3361 144.181 22.0013 144.927 21.8384C145.511 21.7911 146.152 21.87 146.688 22.1222C147.413 22.4953 147.86 23.2415 147.944 24.0455Z" fill="#050505"/>
<path d="M170.705 29.5296C170.72 30.2653 171.173 32.2674 169.832 31.8471C169.469 31.6316 169.427 31.227 169.39 30.8434C169.38 30.7645 169.374 30.691 169.364 30.6174C169.227 30.197 169.038 29.6243 169.285 29.2512C169.353 29.1461 169.458 29.0567 169.611 28.9936C169.595 28.6888 169.611 28.3578 169.464 28.0845C169.306 27.9321 169.217 27.7167 169.238 27.496C169.211 27.0756 169.748 26.7393 170.053 27.0914C170.652 27.743 170.652 28.6941 170.71 29.5349L170.705 29.5296Z" fill="#050505"/>
<path d="M169.858 30.0094C169.884 30.3877 169.669 30.6977 169.39 30.8396C169.054 31.0183 168.633 30.9342 168.491 30.3824C168.344 29.7256 168.849 29.2317 169.285 29.2474C169.564 29.2579 169.816 29.4786 169.858 30.0094Z" fill="#050505"/>
<path d="M102.956 77.5437C101.648 77.4596 102.662 76.2773 103.398 76.1564C108.621 74.3802 114.081 73.4502 119.489 72.5043C119.257 72.6356 118.921 72.7145 118.658 72.8301C113.582 74.8164 108.196 76.0461 102.956 77.5437Z" fill="#050505"/>
<path d="M102.094 84.3029C101.689 84.2556 101.431 83.872 101.552 83.4726C101.694 82.8315 102.493 82.758 102.987 82.7054C105.814 82.1274 108.52 81.0343 111.337 80.4405C113.371 80.0202 115.504 79.6839 117.543 79.5472C112.519 81.46 107.396 83.3623 102.094 84.3029Z" fill="#050505"/>
<path d="M205.097 141.639C198.838 141.087 192.979 138.691 187.43 135.879C179.547 131.901 172.08 127.025 164.954 121.864C162.968 120.488 161.05 119.142 158.995 117.907C158.48 117.534 157.87 117.272 157.292 116.967C156.283 116.956 155.306 116.599 154.512 115.748C154.04 115.149 153.687 114.035 154.108 113.341C153.309 113.005 152.61 112.511 151.691 112.758C150.009 112.842 148.317 112.921 146.635 112.8C142.4 112.185 132.978 112.127 130.807 107.561C130.46 107.85 130.008 108.002 129.557 107.965C125.195 107.713 120.833 107.766 116.472 107.618C116.356 107.755 116.193 107.839 115.988 107.802C115.878 107.75 115.773 107.666 115.683 107.566C115.463 107.487 115.342 107.261 115.326 107.014C115.2 106.757 115.09 106.447 115 106.115C114.548 105.7 114.422 105.049 114.286 104.465C114.081 103.677 113.87 102.894 113.681 102.101C112.872 98.6063 112.115 95.0119 110.591 91.7486C110.513 91.9851 110.423 92.2215 110.344 92.4633C107.733 100.02 105.452 107.97 100.192 114.187C96.6183 118.58 91.8783 123.225 85.7878 122.889C84.6475 122.847 83.5807 122.563 82.5718 122.138C82.5665 122.143 82.5613 122.148 82.556 122.159C82.9028 122.427 83.0815 123.052 82.9396 123.525C82.1934 129.421 76.4234 132.626 71.8148 135.443C68.4096 137.361 64.5682 138.438 60.6848 138.68C60.5113 138.964 60.2328 139.148 59.9123 139.253C59.5865 139.626 59.103 139.836 58.6038 139.82C58.4777 140.214 58.1624 140.546 57.7262 140.588C56.0866 140.908 54.4103 140.982 52.7287 140.982C51.6777 140.982 50.632 140.95 49.5862 140.945C42.8388 140.735 36.1335 140.32 29.5437 139.137C22.6124 137.666 16.091 134.707 10.4524 130.414C9.18067 129.531 7.98779 128.701 6.73185 127.818C6.40604 127.555 6.02768 127.319 5.67559 127.051C5.74916 127.34 5.81748 127.629 5.88579 127.918C2.47531 125.427 2.02338 120.898 1.13003 117.077C0.336532 113.583 -0.0838649 109.962 0.557243 106.404C1.18259 101.77 3.17422 97.4975 5.07653 93.2673C7.56739 87.9336 9.17541 82.2793 11.1723 76.7616C15.7757 64.6176 19.3806 54.6964 31.982 48.8792C34.3468 47.7389 36.8902 47.0085 39.4336 46.3884C39.7226 46.3464 40.1378 46.236 40.5792 46.1362C40.6633 45.6527 40.9576 45.1482 41.1415 44.7331C41.5356 43.8345 41.9297 42.9412 42.3081 42.0321C40.0957 44.0972 37.1056 46.7983 33.9684 46.1729C31.693 44.959 33.9264 42.4735 35.2717 41.4855C33.0278 40.3452 34.4729 37.5076 36.4435 37.0189C35.7026 36.4881 35.072 35.826 34.4256 35.1849C34.2102 35.0273 34.1208 34.7383 34.1471 34.465C33.1486 32.9411 32.5864 31.1124 32.0924 29.352C30.5474 23.8554 31.7035 17.8596 33.9001 12.6993C37.0163 6.55632 45.6923 2.76753 52.2873 2.11593C54.6047 1.95303 56.9327 2.19474 59.2501 2.23152C59.329 2.19999 59.413 2.19471 59.4866 2.21048C61.1262 1.51158 62.9864 1.30142 64.8414 1.72707C68.6776 2.37342 73.7486 3.72393 73.6488 8.49011C76.497 9.15223 78.6936 12.2368 76.6757 14.8853C75.5301 16.6877 74.0902 18.5269 72.1511 19.478C72.1511 19.5831 72.1511 19.6883 72.1616 19.7934C72.1406 26.3988 73.1916 33.3405 71.0161 39.7146C69.7391 42.3368 67.285 44.917 64.2529 45.1955C64.1163 45.1798 63.9691 45.1325 63.8377 45.0694C62.5135 45.3637 61.1314 45.4898 59.9806 45.6474C59.4551 45.679 58.9138 45.7945 58.3883 45.7472C58.3568 47.2817 58.2885 48.8161 58.2044 50.3558C58.2359 50.3663 58.2622 50.3821 58.299 50.3979C60.8792 51.7221 63.8693 51.9796 66.4757 53.2565C72.7397 56.2886 73.9273 60.6554 76.8333 66.3622C78.8775 70.13 80.8008 73.9713 82.2407 78.0123C82.3405 78.3907 82.5192 78.7796 82.6926 79.1684C83.402 76.8668 84.1956 74.5966 85.2991 72.4421C88.4048 65.9103 91.9256 59.389 97.5432 54.6648C99.1933 53.1514 101.621 53.3196 103.739 52.978C103.812 52.8676 103.886 52.7573 103.949 52.6522C104.842 51.1388 105.673 49.5886 106.519 48.0436C108.747 44.2496 110.292 40.0772 112.851 36.4829C113.182 35.8891 113.891 35.7787 114.464 35.5055C116.009 34.8013 117.575 34.1392 119.183 33.5927C121.784 32.7782 124.081 31.4119 126.572 30.3977C128.732 29.2311 129.52 31.9216 129.063 33.7924C129.924 33.4823 130.786 33.1671 131.643 32.8465C132.216 32.6889 132.762 32.2947 133.366 32.3053C134.123 31.8796 134.896 31.4802 135.694 31.1282C136.688 29.3205 138.501 28.1066 140.082 26.8349C140.576 26.4513 141.06 26.0572 141.559 25.6736C141.202 24.0603 140.976 22.4208 140.997 20.7708C140.765 20.7182 140.555 20.5238 140.471 20.1507C140.471 20.1507 140.471 20.1507 140.466 20.1507C140.298 17.2132 139.956 14.1286 140.897 11.2804C144.801 1.87943 158.406 -0.301331 167.461 0.597256C173.719 1.48008 178.706 4.09699 179.6 10.8863C180.004 14.8748 180.304 18.9736 179.237 22.8833C178.228 26.4776 177.703 30.1455 177.734 33.8712C177.692 35.4739 177.44 37.1293 177.866 38.6952C177.908 38.8634 177.96 39.0315 178.002 39.2102C178.254 39.4992 178.402 40.0615 178.522 40.3558C178.948 41.4541 179.479 42.4998 180.015 43.5507C180.073 43.6821 180.141 43.8135 180.209 43.9449C181.665 43.7925 183.52 43.5875 184.308 45.0852C184.913 46.0941 185.275 47.3185 185.78 48.359C185.979 48.8319 186.615 50.2297 186.836 51.3648C193.179 51.0968 197.01 50.8392 200.184 51.4593C200.462 51.3647 200.851 51.5014 201.235 51.7063C201.954 51.9008 202.648 52.153 203.342 52.4683C203.473 52.5996 203.605 52.7363 203.736 52.8729L203.746 52.8834C203.846 52.9885 203.941 53.0884 204.041 53.1935C204.151 53.3091 204.256 53.4194 204.361 53.535C204.388 53.5613 204.414 53.5929 204.44 53.6139C204.466 53.6401 204.493 53.6664 204.514 53.6926C204.514 53.6979 204.524 53.7032 204.529 53.7084C204.808 54.008 205.081 54.3127 205.36 54.6122C205.754 55.0642 206.153 55.5109 206.553 55.9575C206.779 56.2886 207.01 56.6197 207.236 56.9455C207.483 57.308 207.745 57.6601 208.003 58.0122C208.055 58.0858 208.108 58.1593 208.161 58.2276C207.998 58.0752 207.83 57.9228 207.661 57.7652C209.301 59.9407 210.835 62.2266 212.291 64.4915C212.28 64.481 212.27 64.4705 212.259 64.46C214.446 67.676 216.448 71.0128 218.308 74.4338C219.695 76.9771 221.214 79.6308 221.267 82.5894C219.658 81.2967 218.529 79.5625 217.688 77.697C216.285 74.9382 214.782 72.2319 213.237 69.5519C210.468 64.8856 207.283 60.4242 204.303 55.8787C203.636 55.2166 202.932 54.5912 202.186 54.0237C199.437 52.9885 196.389 53.0253 193.378 53.0621C191.933 53.0831 190.493 53.0989 189.106 52.999C188.292 52.936 187.445 53.0201 186.657 52.8204C186.568 52.8992 186.452 52.9517 186.305 52.9727C186.479 53.6874 185.969 54.3075 185.659 54.9066C184.849 56.3411 183.846 57.6549 182.821 58.9423C181.88 60.1405 180.95 61.3438 180.015 62.5156C177.577 65.4531 174.261 67.5025 170.992 69.3943C170.871 69.8882 170.288 70.1615 169.862 69.8514C167.792 67.8546 166.142 65.3796 164.592 62.9518C164.423 62.915 164.297 62.8047 164.213 62.6575C163.698 63.2723 163.215 63.9187 162.752 64.5756C162.395 64.9644 161.391 66.6933 160.514 67.6234C160.445 67.9965 160.188 68.3381 159.799 68.3643C159.52 68.3643 159.221 68.1646 158.99 68.028C155.485 66.11 153.393 62.7941 152.027 59.1472C151.969 59.0211 151.922 58.8897 151.88 58.7636C151.733 58.8372 151.575 58.8793 151.412 58.874C148.038 59.5572 144.87 60.9917 141.974 62.8414C140.119 64.008 138.306 65.2482 136.467 66.441C139.026 69.6833 139.799 73.9924 141.149 77.86C141.265 76.5567 141.585 75.2535 142.011 74.0239C142.463 72.9098 142.726 71.6276 143.524 70.708C144.265 70.0301 145.264 70.7868 144.491 71.5961C143.351 74.2761 142.41 77.119 141.864 79.9829C142.5 81.943 143.671 85.5636 144.234 88.2541C145.332 88.1332 146.551 88.2909 147.508 88.6482C148.905 89.2525 149.988 90.3719 151.149 91.3282C152.989 92.7996 154.749 94.5758 156.546 96.0576C157.713 97.014 158.974 97.8128 160.246 98.6063C160.372 98.4276 160.561 98.312 160.818 98.3383C160.839 98.354 160.86 98.3698 160.887 98.3855C163.866 96.7565 166.499 97.303 169.61 98.5905C173.289 99.8306 176.767 101.602 180.194 103.399C184.308 105.306 188.581 106.841 192.58 109.016C192.711 109.084 192.842 109.158 192.974 109.226C193 109.226 193.021 109.226 193.047 109.226C193.468 109.431 193.904 109.641 194.34 109.857C194.251 109.542 194.161 109.226 194.067 108.916C192.259 103.178 191.035 97.303 190.546 91.3019C190.252 88.3539 190.01 85.3954 189.942 82.4264C189.989 81.3965 189.705 80.1248 190.467 79.2998C191.266 78.7007 192.007 79.9934 191.523 80.666C191.487 83.9766 191.891 86.9982 192.227 90.2352C192.742 94.7807 193.352 99.3262 194.603 103.735C195.186 105.884 195.701 108.055 196.263 110.209C196.326 110.498 196.447 110.766 196.5 111.05C197.687 111.812 198.754 112.726 199.458 113.929C199.695 114.649 198.985 115.411 198.313 114.87C197.624 114.092 196.868 113.399 196.053 112.784C195.964 112.758 195.874 112.71 195.78 112.647C190.746 109.689 185.322 107.592 180.004 105.254C176.284 103.33 172.537 101.423 168.554 100.109C167.13 99.5048 165.742 99.1317 164.339 99.1685C164.45 99.2473 164.565 99.3682 164.665 99.5364C166.189 103.53 164.986 108.133 163.026 111.78C162.579 112.484 162.295 113.504 161.617 113.966C162.169 112.994 162.201 111.754 162.553 110.682C163.362 107.408 164.528 103.982 163.64 100.603C163.12 100.188 163.225 99.5521 163.556 99.2368C162.952 99.3209 162.348 99.489 161.733 99.757C162.763 103.299 160.598 111.407 157.671 112.984C156.946 113.835 156.078 114.523 155.311 114.192C155.332 114.261 155.369 114.334 155.406 114.392C155.595 114.581 155.805 114.733 156.036 114.854C156.073 114.823 156.115 114.797 156.163 114.776C156.415 114.681 156.651 114.87 156.735 115.101C158.49 115.522 160.887 114.686 162.306 114.045C162.495 113.966 162.71 113.809 162.878 113.756C162.106 114.907 160.818 115.963 159.421 116.52C163.719 118.864 167.629 121.859 171.744 124.529C178.044 128.648 184.608 132.421 191.539 135.38C197.141 137.718 202.89 139.705 208.555 141.891C208.486 141.891 208.418 141.891 208.35 141.891C207.294 141.891 206.164 141.733 205.097 141.623V141.639ZM29.5963 136.221C29.6278 136.321 29.6383 136.42 29.6436 136.526C29.6436 136.615 29.6331 136.715 29.6068 136.815C32.1712 137.356 34.7724 137.713 37.3579 137.908C43.3906 138.38 49.4391 139.058 55.4718 138.664C55.414 138.627 55.3615 138.596 55.3089 138.559C55.3509 138.538 55.393 138.512 55.4298 138.48C55.703 138.27 55.8397 137.85 55.6873 137.529C55.5979 137.351 55.4928 137.167 55.3772 137.004C55.2931 136.883 55.1933 136.778 55.0934 136.667C54.9778 136.321 54.8622 135.974 54.7519 135.622C54.5522 134.975 54.3472 134.334 54.1896 133.683C54.1896 133.677 54.1896 133.672 54.1896 133.667C54.1896 133.662 54.1896 133.656 54.1896 133.646C54.1896 133.651 54.1896 133.656 54.1896 133.662C54.1791 133.625 54.1738 133.588 54.1686 133.546C54.1581 133.32 54.0004 133.126 53.7955 133.057C53.6851 132.521 53.6063 131.996 53.5485 131.491C52.9862 127.361 55.0619 122.227 59.5234 121.402C59.6758 121.412 59.8177 121.439 59.9491 121.486C60.3905 121.365 60.8477 121.281 61.2943 121.244C60.8109 120.178 59.0242 119.962 57.9784 120.151C55.4666 121.039 54.7519 124.024 53.6694 126.179C52.6709 128.401 51.7723 130.703 51.3729 133.11C51.5148 133.225 51.6304 133.404 51.6672 133.583C51.8459 135.059 52.8653 136.179 53.249 137.587C53.002 137.629 52.7129 137.545 52.4712 137.45C51.3151 137.009 50.1643 134.203 50.7476 133.131C50.9263 132.942 51.1312 132.952 51.3046 133.057C50.8159 128.654 52.9547 120.298 57.022 118.249C57.1797 118.181 57.3426 118.123 57.5055 118.07C55.5033 116.536 53.3751 115.154 51.3624 113.662C50.7896 114.739 48.241 115.117 47.2951 114.849C44.079 114.355 41.8614 111.349 41.7931 108.217C38.556 106.236 35.135 104.513 31.4355 103.619C29.5753 102.947 27.0739 103.115 26.0334 105.033C26.2331 106.2 24.7932 106.32 24.7775 105.133C25.0665 102.868 27.5679 101.465 29.6961 101.507C30.9258 101.554 32.1449 101.885 33.3378 102.222C33.4272 102.153 33.527 102.111 33.6479 102.101C36.1335 100.33 37.4052 97.3714 38.761 94.7281C41.1467 89.7255 42.1242 83.8978 40.8209 78.4642C40.7631 77.8389 40.9208 75.9786 41.8824 76.625C44.5467 78.8163 43.2224 88.9057 41.9823 91.922C41.0626 94.3287 38.1566 100.519 35.3084 102.768C38.0253 103.609 40.5372 104.986 42.9807 106.431C45.8342 108.013 48.9661 109.247 51.5779 111.218C54.6625 113.604 58.0152 115.569 60.7688 118.26C61.3784 118.512 61.9249 118.88 62.3558 119.368C62.7605 119.873 63.0337 120.624 63.0442 121.339C63.1441 121.36 63.2387 121.391 63.328 121.423C63.7221 121.586 64.1951 121.649 64.5104 121.948C64.6523 122.08 64.7416 122.259 64.7731 122.448C67.306 121.875 70.2436 121.659 72.3508 121.717C71.0213 119.925 70.7533 117.329 71.4259 115.107C71.5048 114.623 71.6414 114.161 71.8253 113.719C70.4906 112.374 69.2714 110.929 68.2835 109.316C68.0365 111.118 67.9209 112.936 67.9104 114.739C67.9209 115.49 67.9524 116.31 67.6161 116.998C67.6161 117.098 67.6213 117.193 67.6266 117.293C67.6581 118.612 67.6896 119.941 67.6424 121.265C67.6266 121.544 67.4006 121.849 67.1011 121.849C66.8016 121.849 66.5756 121.544 66.5598 121.265C66.4547 119.216 66.4442 117.161 66.6124 115.117C66.5966 114.224 66.7385 113.283 66.6807 112.448C66.6492 106.793 68.4674 101.433 70.4906 96.2258C71.9252 92.663 72.519 88.8899 72.9131 85.0959C73.0602 83.3355 73.3966 81.5541 73.4123 79.7832C73.3125 78.191 73.1496 76.6093 72.8343 75.0328C72.6609 74.0554 72.4612 73.0885 72.2457 72.1216C72.1879 71.7748 72.2247 71.2073 72.6188 71.0864C73.5752 71.0759 73.549 73.1358 73.8064 73.8452C74.5474 77.6445 75.4197 81.6803 74.1743 85.4112C74.0061 87.4449 73.7959 89.4732 73.4596 91.4859C72.4454 96.767 69.8232 101.591 68.7039 106.846C68.6671 107.009 68.6355 107.172 68.604 107.34C69.2924 108.664 70.2698 109.815 71.2578 110.929C71.7097 111.407 72.1721 111.864 72.6451 112.311C73.9799 110.293 76.455 109.09 78.846 109.048C82.4982 108.901 84.6843 112.647 84.5319 115.958C84.5319 117.445 84.2586 118.953 83.6595 120.304C84.5792 120.582 85.5093 120.693 86.4394 120.672C86.4342 120.656 86.4237 120.645 86.4184 120.635C86.2765 120.298 86.2345 119.925 86.2713 119.563C86.3606 118.591 87.049 117.813 87.8005 117.251C88.4836 116.736 89.3244 116.394 90.1652 116.247C91.0796 116.089 92.0938 116.126 92.8925 116.652C93.3182 116.93 93.6335 117.35 93.7806 117.829C94.5321 117.266 95.2415 116.631 95.8984 115.958C101.279 110.929 104.743 104.481 107.118 97.6289C108.037 95.1591 108.91 92.6735 109.761 90.1774C109.735 90.1301 109.703 90.0775 109.677 90.025C109.525 89.9882 109.409 89.9041 109.33 89.7991C106.934 90.4401 104.559 91.1443 102.178 91.8327C101.921 91.8957 101.658 91.9588 101.4 92.0271C101.332 92.0797 101.258 92.127 101.185 92.1743C101.353 92.8627 101.369 93.5931 101.227 94.2815C101.085 94.9909 100.78 95.6372 100.339 96.21C99.8186 96.8563 99.1617 97.3241 98.3893 97.6236C97.9216 97.8023 97.4118 97.8916 96.9021 97.8916C96.5132 97.8916 96.1296 97.8443 95.767 97.7497C94.984 97.55 94.2851 97.1401 93.6966 96.5936C92.9976 95.9472 92.572 95.0697 92.3513 94.1553C92.0728 93.0097 92.3092 91.7591 92.9241 90.7659C93.1816 90.3455 93.5231 89.9725 93.912 89.6677C93.933 89.468 93.9961 89.2788 94.1222 89.1317C94.1012 88.8269 94.0854 88.5168 94.0749 88.2121C94.0749 88.2016 94.0749 88.191 94.0749 88.1805C93.6966 83.2672 94.8527 78.0754 98.4891 74.5493C100.465 72.2687 103.644 71.7642 106.366 70.9707C110.192 69.8357 114.049 68.8793 117.906 67.9597C118.243 67.2555 118.568 66.5619 118.805 65.8368C117.407 67.1768 115.189 69.1473 113.166 68.6691C112.825 68.5692 112.457 68.4116 112.189 68.1962C112.904 67.5656 113.723 67.0138 114.59 66.6354C116.025 65.8262 117.617 64.8698 118.411 63.4247C118.111 63.7137 117.806 63.9765 117.565 64.2024C115.599 65.7421 112.961 66.1993 110.555 65.6475C105.289 64.4599 102.961 59.9407 103.86 54.9066C103.166 55.0169 102.43 55.059 101.71 55.1273C101.637 55.3953 101.442 55.6107 101.138 55.5739C98.9988 57.0506 102.583 62.0847 103.66 63.5561C104.38 64.5072 105.373 65.285 106.45 65.7737C107.055 66.0732 107.748 66.2834 108.347 66.5093C106.887 66.4358 105.378 66.1941 104.122 65.4058C101.332 63.3669 98.4786 59.3627 99.2879 55.7631C99.2984 55.7211 99.3089 55.6685 99.3299 55.6265C98.7361 55.8629 98.1948 56.215 97.7376 56.751C96.6026 57.7284 95.5673 58.7952 94.6162 59.925C94.6162 59.925 94.6214 59.9302 94.6267 59.9355C94.716 60.009 94.8054 60.1089 94.8789 60.1982C95.1259 60.503 95.3203 60.8288 95.4938 61.1757C95.8616 61.9271 96.035 62.8204 95.9877 63.656C95.9404 64.5073 95.7092 65.3375 95.2678 66.0679C94.8737 66.7301 94.3166 67.2819 93.6598 67.6812C93.2026 67.965 92.7086 68.1699 92.2777 68.2698C91.8994 68.3591 91.5157 68.4063 91.1374 68.4063C90.5015 68.4063 89.8709 68.2802 89.2771 68.0385C88.0632 70.2981 86.9544 72.6156 85.8456 74.8909C83.9643 79.3208 82.4982 83.9819 81.5628 88.6745C81.505 89.1212 81.3421 89.8096 80.7588 89.7307C80.2648 89.6204 80.1177 88.9793 80.3174 88.5642C80.5696 86.7828 80.9637 85.0224 81.484 83.304C81.6574 82.7102 81.8308 82.1164 82.0042 81.5226C81.4524 80.9025 81.3263 79.9881 80.9795 79.2524C80.3594 77.5814 79.7183 75.9261 79.0141 74.2866C77.6478 71.1389 75.919 68.1699 74.3845 65.1063C73.5332 63.3407 72.7082 61.5592 71.6729 59.8882C70.3802 57.802 68.2624 56.3464 66.192 55.1273C64.0059 54.0343 61.6096 53.4772 59.3395 52.5891C59.1818 52.5313 59.0189 52.463 58.856 52.3947C59.1503 53.6138 58.3936 55.4425 57.9049 56.3201C56.6805 58.8582 53.559 59.1998 51.1049 58.5272C48.8243 57.9807 46.964 56.4095 45.4611 54.6701C44.1473 53.1882 42.8914 51.6538 41.8614 49.9564C41.4883 49.247 40.9681 48.4798 40.9313 47.66C40.6475 47.7178 40.3637 47.7809 40.08 47.8492C40.08 47.8492 40.08 47.8492 40.08 47.8545C43.4432 54.0027 48.5037 59.6938 55.3404 61.8168C56.1024 62.1005 56.9327 62.3527 57.6789 62.5787C56.7225 62.5787 55.7608 62.4789 54.8202 62.3528C48.7086 61.8168 44.2314 57.308 40.9733 52.3316C40.9628 52.3474 40.9418 52.358 40.9313 52.3685C40.1378 53.0148 39.0447 53.1042 38.0621 53.0306C36.6064 52.9097 35.1771 52.1057 34.4992 50.7867C34.331 50.5503 34.1944 50.1351 34.1681 49.7463C28.6399 52.0374 23.6739 55.6738 20.295 60.6344C15.6233 68.1331 12.8381 76.6723 10.1055 85.0276C8.88113 89.1789 6.94205 93.1306 5.26045 97.1506C5.27096 97.1454 5.28147 97.1401 5.29198 97.1349C5.53371 97.0193 5.77019 96.9194 6.02243 96.8354C6.66879 96.6147 7.34668 96.5726 8.01932 96.6724C9.15439 96.8458 10.1055 97.6603 10.6836 98.622C11.4298 99.8621 11.6137 101.381 11.4771 102.8C11.3773 103.83 11.104 104.891 10.6468 105.821C10.3841 106.352 10.1055 106.872 9.75346 107.35C9.38561 107.844 8.98623 108.338 8.51329 108.738C8.05085 109.127 7.56739 109.468 7.02087 109.736C6.49012 109.999 5.92258 110.141 5.3603 110.209C5.34979 110.209 5.33402 110.209 5.31826 110.209H5.29724C5.18688 110.22 5.07127 110.225 4.96092 110.225C4.16741 110.225 3.38442 109.988 2.74331 109.515C2.48056 109.321 2.24409 109.111 2.03389 108.869C2.02338 109.037 2.01287 109.2 2.00236 109.368C1.96558 114.712 3.69972 119.826 5.11331 124.939C5.30249 124.886 5.50744 124.949 5.67559 125.201C5.78069 125.296 5.89105 125.38 5.93309 125.411C10.4419 128.186 14.751 131.328 19.5435 133.604C19.8062 133.719 20.069 133.835 20.3317 133.945C20.3895 133.719 20.4841 133.504 20.5787 133.32C20.9361 132.626 21.4616 132.059 22.15 131.686C23.0748 131.192 24.1574 131.192 25.1453 131.46C25.923 131.67 26.622 132.106 27.242 132.611C27.8937 133.141 28.4402 133.798 28.8711 134.518C29.076 134.854 29.2494 135.217 29.3861 135.59C29.4596 135.785 29.5122 135.99 29.5753 136.189C29.5647 136.168 29.5595 136.147 29.5542 136.126C29.5647 136.158 29.5805 136.189 29.591 136.226L29.5963 136.221ZM60.1067 123.126C59.8965 123.294 59.639 123.399 59.371 123.451C57.2375 124.129 55.7713 126.205 55.3404 128.344C54.9463 130.971 55.4245 135.574 57.9732 137.046C57.9942 137.025 58.0205 137.004 58.0415 136.983C58.2307 136.825 58.4934 136.799 58.7141 136.925C61.0158 137.067 63.3595 136.557 65.5719 136.011C69.0192 135.18 72.23 133.352 75.0414 131.344C77.6531 129.552 80.4225 127.266 81.195 124.066C80.3594 124.544 79.4923 124.965 78.6463 125.417C76.3183 126.604 73.9483 127.771 71.5783 128.859C70.9267 129.216 70.1858 129.195 69.4501 129.174C69.1137 129.163 68.7722 129.158 68.4411 129.184C66.2393 129.284 64.0006 129.332 61.8619 129.925C60.8424 130.277 59.4603 130.582 58.9927 131.649C59.0925 131.928 59.0189 132.29 58.7877 132.479C58.5407 132.679 58.1729 132.569 58.0415 132.28C57.5423 130.33 59.061 129.184 61.2365 128.501C60.2065 127.834 59.3237 126.788 59.5707 125.559C59.7704 124.523 60.8844 123.73 62.4347 123.136C62.0405 123.068 61.6359 123.031 61.2365 123.031C60.8582 123.031 60.4851 123.062 60.112 123.131L60.1067 123.126ZM65.1305 126.499C65.924 126.573 66.6912 126.62 67.4847 126.667C70.0491 126.83 73.2494 126.368 74.8837 124.182C71.531 123.062 67.8053 123.688 64.4053 124.324C63.6223 124.544 61.7252 124.891 61.0631 125.648C61.8408 125.947 62.6186 126.273 63.3858 126.625C63.7326 126.494 64.1057 126.431 64.4788 126.431C64.6943 126.431 64.915 126.452 65.1305 126.489V126.499ZM76.5023 124.692C76.539 124.671 76.5758 124.655 76.6126 124.634C76.5811 124.628 76.5443 124.618 76.5128 124.613C76.5128 124.639 76.5023 124.665 76.5023 124.692ZM154.003 111.491C154.539 111.775 155.164 111.954 155.553 112.442C155.637 112.542 155.711 112.653 155.774 112.773C156.094 112.647 156.404 112.495 156.714 112.327C157.187 110.971 158.37 109.925 158.916 108.58C159.92 106.052 160.761 103.162 160.319 100.424C157.786 99.0634 155.448 97.261 153.341 95.3009C151.134 93.4617 149.079 91.1443 146.493 89.8568C146.057 89.7097 145.611 89.6466 145.159 89.6256C145.279 89.8621 145.19 90.2141 145.201 90.4769C145.138 91.5068 145.101 92.5683 144.807 93.5668C144.659 93.9766 144.255 94.3603 143.808 94.3445C141.564 94.7807 139.247 94.8858 136.971 94.7387C135.757 94.6178 134.617 94.1816 133.477 93.7928C132.568 93.4459 131.27 93.262 130.802 92.3477C130.802 92.3582 130.802 92.3582 130.791 92.3687C130.734 96.5463 140.524 97.9441 143.708 98.0072C144.896 98.2962 144.507 99.384 143.514 99.6309C142.384 99.7938 141.359 99.5469 140.25 99.4312C137.418 98.7271 133.156 98.107 130.818 95.9315C130.813 95.942 130.807 95.942 130.797 95.9472C130.644 96.6461 131.133 97.2873 131.548 97.8075C133.298 99.7728 135.926 100.656 138.411 101.129C139.877 101.46 141.217 101.512 142.641 101.87C143.156 102.059 143.666 102.416 143.929 102.894C143.072 103.425 142.032 103.604 141.049 103.399C137.607 102.731 133.529 102.111 130.96 99.5994C130.455 103.336 136.866 105.306 139.62 106.373C141.501 106.914 143.235 107.829 144.99 108.685C143.971 108.827 142.888 108.738 141.848 108.601C138.091 108.039 127.15 104.066 129.94 98.9058C130.024 98.8269 130.114 98.7744 130.203 98.7376C130.014 98.4906 129.84 98.2332 129.677 97.9547C129.194 97.0561 129.115 95.7213 130.003 95.0434C130.008 95.0434 130.014 95.0329 130.019 95.0276C129.809 94.7281 129.635 94.4076 129.494 94.0608C128.842 92.5789 129.614 90.7186 131.391 90.7659C132.142 90.6924 133.114 91.0602 132.641 91.7013C134.107 91.922 135.563 92.7996 137.024 93.015C139.136 93.2936 141.307 93.2725 143.424 93.0045C143.561 92.6682 143.598 92.0796 143.666 91.4753C143.398 91.1863 143.33 90.7659 143.267 90.3823C143.22 90.1248 143.167 89.8674 143.114 89.6151C142.93 89.5941 142.757 89.4733 142.705 89.2841C142.641 89.0634 142.741 88.8374 142.894 88.6798C142.783 88.2278 142.657 87.7811 142.526 87.3345C141.533 84.1763 140.545 81.0129 139.336 77.9283C136.141 68.4432 132.305 60.997 126.104 74.0711C125.085 76.6513 124.207 79.3944 124.002 82.1322C123.871 83.4722 124.044 84.8331 123.902 86.1574C123.797 86.5462 123.345 86.6408 123.082 86.4254C123.04 86.4359 122.993 86.4464 122.946 86.4517C120.513 87.2347 118.017 87.8022 115.515 88.3224C114.149 88.6009 112.793 88.9162 111.448 89.2578C111.374 89.4732 111.301 89.6939 111.227 89.9041C111.474 90.3666 111.69 90.8448 111.895 91.3072C113.387 94.6335 114.112 98.2121 114.974 101.733C115.142 102.789 115.678 103.872 115.767 104.949C115.941 105.364 116.114 105.784 116.288 106.2C116.298 106.231 116.309 106.257 116.319 106.278C116.55 106.268 116.782 106.247 117.013 106.236C119.026 106.257 121.038 106.163 123.04 106.005C125.337 105.963 127.628 106.126 129.914 106.247C130.093 106.278 130.271 106.341 130.434 106.436C130.387 106.184 130.355 105.921 130.35 105.643C130.345 105.259 130.397 104.791 130.692 104.523C131.322 104.008 131.858 104.429 131.69 105.18C132.216 109.642 137.896 110.114 141.407 110.682C145.148 111.192 148.921 111.454 152.694 111.229C152.794 111.207 152.894 111.202 152.989 111.202C153.341 111.202 153.677 111.313 153.992 111.496L154.003 111.491ZM127.066 67.2345C125.237 67.7075 123.398 68.1174 121.558 68.5325C118.91 69.636 116.088 70.2509 113.292 70.9603C111.259 71.491 109.23 72.048 107.176 72.5052C106.792 72.626 106.414 72.7469 106.03 72.873C104.275 73.4353 102.399 73.7979 100.812 74.7753C97.3067 77.2189 95.7828 81.2073 95.499 85.2851C95.457 85.4585 95.4465 85.6372 95.4307 85.8106C95.4149 86.0103 95.3992 86.2099 95.3887 86.4096C95.3887 86.4622 95.3834 86.52 95.3782 86.5673C95.3624 86.6356 95.3466 86.7092 95.3361 86.7827C95.3466 87.1821 95.3571 87.5814 95.3676 87.9861V87.9966C95.3992 88.2541 95.4044 88.5326 95.3939 88.8269C95.4149 89.3734 95.457 89.9146 95.5305 90.4454C95.5305 90.9131 95.6987 91.4123 95.6567 91.88C97.1754 91.5331 98.6573 91.0182 100.171 90.6451C104.059 89.489 107.885 88.1333 111.774 86.9877C114.906 86.1101 118.153 85.5846 121.301 84.8805C121.459 84.8647 121.611 84.8594 121.758 84.8647C122.026 84.7859 122.299 84.7018 122.567 84.6177C122.583 84.5967 122.604 84.5704 122.625 84.5494C121.784 78.4748 124.049 71.9482 127.696 67.0874C127.486 67.1347 127.276 67.1872 127.066 67.2398V67.2345ZM135.92 37.4025C135.006 37.8859 134.065 38.3536 133.14 38.7898C132.147 39.2627 131.123 39.6726 130.093 40.0773C130.135 40.1561 130.161 40.2664 130.171 40.4136C130.192 40.9653 130.024 41.4225 129.746 41.7956C129.935 41.9901 130.04 42.3001 129.972 42.5576C129.357 45.6264 125.762 46.5145 123.445 48.0489C122.278 48.732 121.143 49.473 120.019 50.2297C120.003 50.2402 119.987 50.2507 119.971 50.2665C120.035 51.2965 120.066 52.3264 119.961 53.3511C119.777 54.5703 119.709 56.1415 119.32 57.4972C119.336 57.4972 119.351 57.5077 119.367 57.5077C119.583 57.6338 119.693 57.8546 119.714 58.091C119.809 58.6954 119.924 59.2996 120.035 59.8987C120.119 60.1825 120.176 60.6291 120.113 60.997C120.371 61.6801 120.418 62.3895 120.308 63.0727C120.576 63.2829 120.754 63.7242 120.628 64.3443C120.544 65.4636 120.166 66.5094 119.709 67.5236C122.746 66.8036 125.778 66.089 128.805 65.3113C129.078 65.243 129.409 65.1011 129.688 65.1063C131.48 63.9345 133.598 63.8872 135.426 65.3533C135.474 65.2902 135.537 65.2376 135.605 65.1903C139.136 62.8046 142.563 60.1877 146.488 58.4641C147.844 57.8808 149.221 57.4552 150.634 57.0979C150.997 56.9717 151.428 56.9454 151.775 57.061C152.001 56.0941 152.736 55.2901 153.656 54.4914C154.728 53.5035 155.826 52.4946 157.145 51.843C157.471 51.6485 157.739 51.6695 157.918 51.8009C157.939 51.7431 157.96 51.6906 157.986 51.6328C157.954 51.5697 157.928 51.5014 157.912 51.4331C157.235 51.6748 156.557 51.8114 155.889 51.8114C149.983 51.5382 148.096 44.3915 145.842 39.9826C145.364 38.9842 145.001 37.9437 144.691 36.8822C142.957 37.7808 137.686 37.4918 136.956 36.9663C136.819 36.9085 136.688 36.8455 136.561 36.7824C136.462 37.0715 136.22 37.3079 135.915 37.4077L135.92 37.4025ZM122.799 34.113C119.882 35.3426 116.861 36.278 113.976 37.5917C112.431 39.7199 111.285 42.0951 110.118 44.4388C108.479 47.5287 106.75 50.5713 104.932 53.5508C104.968 53.6874 104.979 53.8345 104.963 53.9764C105.089 54.2602 105.053 54.6596 105.016 54.9486C104.932 55.8524 104.837 56.751 104.879 57.6601C105.221 62.6155 111.443 65.1378 115.62 63.1305C116.824 62.6628 117.612 61.6486 118.463 60.771C118.442 60.4662 118.484 60.1982 118.668 59.9985C118.658 59.967 118.658 59.9302 118.647 59.8987C118.631 59.72 118.584 59.452 118.542 59.1577C118.164 59.6832 117.654 60.0879 116.96 60.3139C117.801 58.9528 117.843 57.1136 118.264 55.658C118.758 53.4562 118.826 51.2649 118.684 49.0789C118.421 49.2313 118.148 49.3627 117.854 49.4678V49.4625C118.111 47.2449 120.14 45.9417 121.427 44.2444C121.585 43.6453 121.779 43.062 122.016 42.484C122.331 41.7273 122.084 40.2349 120.986 40.8602C119.01 42.3789 117.633 44.4335 116.246 46.4672C114.596 48.7478 112.693 50.7184 111.19 53.0726C110.812 53.7715 110.423 54.4074 110.549 55.1851C110.581 55.2954 110.628 55.4005 110.717 55.4688C111.049 55.5108 111.211 55.8261 111.211 56.1414C111.211 56.4988 111.012 56.8509 110.618 56.8299C109.913 56.7405 109.472 55.9523 109.388 55.3112C109.188 52.0374 112.678 49 114.538 46.5355C115.3 45.5633 115.988 44.5334 116.713 43.5297C116.487 43.4246 116.272 43.2039 116.135 42.8676C114.669 39.2049 119.504 37.6915 122.026 36.4829C123.781 35.7157 125.573 35.0378 127.376 34.3862C127.339 33.5822 127.917 32.7519 127.533 31.9689C125.862 32.5522 124.38 33.4036 122.793 34.113H122.799ZM158.801 52.8677C158.858 56.0942 162.032 57.9596 164.161 59.9565C167.97 57.76 171.313 54.8488 174.56 51.9008C176.457 50.2192 178.491 48.5744 179.884 46.4515C179.763 46.4199 179.647 46.3516 179.537 46.2307C178.769 44.8066 178.339 43.1987 177.734 41.701C177.629 41.433 177.545 41.1597 177.456 40.8865C176.883 40.5607 176.431 40.0194 175.869 39.6674C174.618 38.9212 173.373 38.1119 172.626 36.8192C171.933 35.6946 171.129 34.6437 170.409 33.5401C170.093 33.0041 170.44 32.011 171.166 32.1844C171.985 30.3925 172.847 28.1119 171.943 26.2096C171.234 24.9432 169.163 24.5175 168.238 25.7577C167.55 27.2028 167.844 29.105 167.156 30.5344C166.72 31.002 166.173 30.5134 166.047 30.0299C165.375 28.1434 164.954 26.2464 164.155 24.4334C162.652 21.9006 162.179 20.8233 163.656 18.0487C164.355 16.6352 165.254 15.1217 165.138 13.498C163.378 12.2421 161.144 12.1843 159.063 12.1422C153.299 12.2368 147.681 14.4492 143.051 17.8228C142.941 17.9384 142.825 18.0067 142.72 18.0487C142.689 18.1854 142.641 18.322 142.589 18.4428C142.295 19.4623 142.232 20.5186 142.3 21.5695C142.358 22.836 142.536 24.0761 142.789 25.3058C143.251 25.6053 143.314 26.609 143.309 27.4655C143.603 28.569 143.934 29.6673 144.271 30.7656C144.271 30.7656 144.271 30.7708 144.271 30.7761C144.349 30.9442 144.439 31.1124 144.544 31.2753C144.922 32.2054 145.201 33.0252 145.206 33.9658C145.474 34.938 145.71 35.9154 145.905 36.9138C146.572 38.8634 147.523 40.7131 148.38 42.5891C149.142 44.2707 149.851 46.0048 151.023 47.4026C156.099 54.6018 162.831 46.3621 166.194 41.7904C166.604 41.2859 167.046 40.8603 167.629 40.6133C167.766 41.5014 167.582 42.4314 167.082 43.1829C165.422 45.4004 162.652 48.7478 159.704 50.5502C160.424 51.1861 160.908 52.1215 161.365 52.9465C162.027 54.2655 162.6 55.5477 163.12 56.8877C161.612 55.4846 160.414 53.7189 158.869 52.3842C158.837 52.5523 158.811 52.7153 158.822 52.8624L158.801 52.8677ZM42.7075 45.495C42.6497 45.5686 42.6076 45.6527 42.5708 45.7368C42.5288 45.8261 42.4815 45.9155 42.4342 46.0048C42.3291 46.2045 42.2293 46.4094 42.1977 46.6354C42.1557 46.9139 42.1452 47.1871 42.224 47.4603C42.245 47.5392 42.2713 47.6075 42.3028 47.6811C42.3028 47.7074 42.2923 47.7389 42.2871 47.7652C43.028 49.3679 44.121 50.6554 45.2036 51.9691C47.1689 54.2392 49.4338 56.6407 52.6236 56.8141C55.2038 57.1662 56.9852 55.6895 57.227 53.1146C57.2375 52.7888 57.227 52.4578 57.3111 52.1477C57.043 52.0637 56.8171 51.7957 56.8276 51.3648C56.9485 49.4625 57.0851 47.555 57.1954 45.6527C57.206 45.5423 57.2112 45.4215 57.2217 45.2953C57.0273 45.1535 56.8539 44.9853 56.7225 44.7961C57.2848 43.9501 58.3095 43.6295 59.2922 43.7083C61.6044 43.6663 64.1163 43.6926 66.2603 42.7309C66.2813 42.7309 66.3023 42.7257 66.3234 42.7152C66.6176 42.6154 66.9014 42.505 67.1799 42.3736C67.3849 42.2738 67.6476 42.1739 67.7212 41.9532C67.7369 41.9112 67.7475 41.8692 67.7422 41.8271C70.2226 39.578 70.685 36.094 70.9162 32.3105C71.0318 29.7882 71.0108 27.2711 70.9793 24.7487C70.6535 24.8328 70.2856 24.6436 70.0334 23.9657C69.8652 23.2721 69.8179 20.3924 70.9372 20.6289C70.9425 20.6289 70.9477 20.6289 70.953 20.6289C70.953 20.466 70.953 20.3031 70.953 20.1402C70.9582 20.0613 70.9635 19.9825 70.9635 19.9037C70.8269 19.9405 70.685 19.972 70.5431 20.0035C67.5162 20.4292 64.5577 18.7424 62.2034 16.9978C61.967 16.7455 61.5939 16.4723 61.247 16.178C60.8004 18.6583 58.5565 20.6289 56.4072 21.7955C54.8885 22.8359 52.8969 22.9883 51.415 24.013C50.096 25.7629 50.0276 29.9091 47.4212 30.2349C46.964 30.2664 46.5068 30.1139 46.0601 30.0456C44.862 29.9353 43.7427 30.65 43.0122 31.5538C41.5776 33.1461 42.0663 36.115 44.2734 36.6983C44.6045 36.8087 44.9724 36.7982 45.3349 36.7877C45.4453 36.7877 45.5557 36.7824 45.6608 36.7824C46.1495 36.7824 46.6119 36.8507 46.9482 37.2974C47.1269 37.6442 46.8379 38.0384 46.6329 38.3169C46.2493 38.7478 45.7133 38.9002 45.1563 38.9002C44.6045 41.0074 43.7637 43.02 42.9387 45.0326C42.8756 45.1429 42.8126 45.2848 42.7495 45.4372C42.739 45.4425 42.7285 45.453 42.718 45.4635C42.718 45.4635 42.718 45.4635 42.718 45.4583C42.7075 45.4688 42.7022 45.474 42.6969 45.4845L42.7075 45.495ZM120.592 47.2975C120.334 47.6338 120.061 47.9543 119.761 48.2433C119.798 48.3694 119.819 48.5061 119.835 48.6427C122.426 46.5985 125.552 45.2165 128.143 43.2564C128.332 43.1303 128.443 42.9622 128.527 42.7783C127.817 43.1777 127.003 43.4667 126.362 43.7609C125.048 44.3022 123.729 44.8382 122.384 45.2901C122.347 45.2901 122.315 45.2953 122.284 45.2901C121.695 46.0468 120.986 46.7562 120.592 47.2922V47.2975ZM38.2302 41.5433C36.8849 42.4104 35.4976 43.3353 34.4939 44.5859C34.6936 44.6332 34.8986 44.628 35.0982 44.6228C38.0568 44.1498 40.3059 41.9112 42.3343 39.8723C41.0311 40.5607 39.6648 41.1702 38.2302 41.5433ZM123.245 42.9149C123.277 43.0936 123.272 43.2722 123.245 43.4614C123.681 43.3037 124.128 43.1566 124.522 42.9569C126.083 42.258 127.828 41.7378 129.021 40.4924C128.973 40.5134 128.921 40.5292 128.873 40.5502C127.439 41.1177 126.015 41.7063 124.554 42.195C124.17 42.2948 123.745 42.4787 123.35 42.3368C123.329 42.5313 123.293 42.7257 123.24 42.9149H123.245ZM134.05 33.4876C133.918 33.9238 133.535 34.3231 133.03 34.3862C128.926 35.9416 124.722 37.2606 120.739 39.1156C119.409 39.8513 116.808 40.5975 117.491 42.4945C118.006 41.8429 118.553 41.2176 119.167 40.65C119.803 40.0194 120.497 39.2365 121.464 39.1944C122.52 39.1629 123.161 40.2033 123.335 41.1492C123.403 41.1177 123.482 41.1072 123.566 41.1177C125.232 40.65 126.787 39.8093 128.4 39.1682C130.45 38.3011 132.515 37.4603 134.48 36.4146C134.785 36.2938 135.174 35.9994 135.547 35.8365C135.059 35.1061 134.89 34.1708 134.985 33.2512C134.675 33.3352 134.36 33.4193 134.044 33.4876H134.05ZM35.7499 39.6568C36.1387 39.9038 36.6327 39.8933 37.0794 39.8723C38.0883 39.7935 38.8976 39.063 39.8382 38.7215C39.4283 38.7057 38.9869 38.6794 38.5508 38.6794C37.4998 38.6794 36.4435 38.8318 35.7499 39.6568ZM49.7334 4.6698C46.3754 5.65246 43.0753 6.93462 40.2429 9.03132C38.6401 10.1716 36.99 11.375 35.9758 13.0986C34.1891 16.3829 33.3904 20.1927 33.0278 23.8869C32.9174 27.1502 33.8108 30.6815 35.5554 33.4035C36.0967 34.2075 37.3316 34.6805 37.4472 35.6684C38.6716 36.3568 40.0327 36.6983 41.4252 36.8245C39.5229 33.8397 41.2256 28.9001 45.0985 28.2064C45.0985 28.2064 45.0985 28.2064 45.1037 28.2064C44.9934 27.6547 45.088 27.0136 45.0407 26.4829C45.0144 24.6752 44.9671 22.8622 45.0827 21.0545C45.3139 16.9504 47.4054 13.0198 50.5952 10.4502C51.7618 9.42547 53.333 8.95255 54.4523 7.90683C54.9253 6.25154 55.8554 4.82744 57.0693 3.74493C54.5995 3.91309 52.1034 3.93937 49.7229 4.67506L49.7334 4.6698ZM137.376 31.517C134.712 35.206 138.07 36.052 141.265 35.7945C141.927 35.7787 142.594 35.7577 143.167 35.7157C143.53 35.6789 143.892 35.6421 144.249 35.5738C143.798 35.2375 143.824 34.5964 143.845 34.0919C143.866 33.9133 143.861 33.7346 143.829 33.5559V33.5454C143.782 33.351 143.729 33.1565 143.677 32.9569C143.635 32.8255 143.593 32.6889 143.556 32.5575C143.44 32.1266 143.209 31.7482 142.999 31.3593C142.694 30.8391 142.684 30.2033 142.321 29.7146C141.801 29.0788 141.964 28.2695 141.932 27.5181C140.408 28.8213 138.663 30.0036 137.371 31.5118L137.376 31.517Z" fill="#050505"/>
<path d="M56.3588 139.105C55.4812 138.186 55.187 136.893 54.6037 135.795C54.0098 134.512 53.642 133.099 53.7576 131.685C53.7576 131.617 53.7891 131.559 53.8522 131.538C53.9258 131.528 53.9783 131.606 53.9783 131.664C53.9993 131.927 54.0466 132.19 54.0887 132.416C54.2989 134.318 55.3551 135.952 56.1907 137.623C56.3693 137.96 56.6268 138.212 56.8475 138.501C57.063 138.816 56.7214 139.399 56.3536 139.105H56.3588Z" fill="#050505"/>
<path d="M56.7759 140.85C56.613 140.818 56.6235 140.508 56.7969 140.503C57.8111 140.324 58.531 139.483 59.4191 139.026C61.6104 137.928 64.096 137.029 66.5291 137.003C64.5112 137.776 62.3777 138.217 60.4176 139.173C59.1406 139.657 58.1789 140.839 56.7759 140.85Z" fill="#050505"/>
<path d="M58.9817 137.665C58.0937 137.434 57.0111 137.302 56.4594 136.493C56.391 136.42 56.3648 136.293 56.4383 136.209C56.6012 136.067 56.7589 136.393 56.8903 136.446C57.647 136.929 58.5561 137.019 59.3969 137.25C59.5598 137.329 59.749 137.444 59.8488 137.576C59.5703 137.66 59.276 137.712 58.987 137.66L58.9817 137.665Z" fill="#050505"/>
<path d="M53.5018 139.332C54.29 139.069 55.1992 138.838 55.6931 138.071C55.7352 138.002 55.7772 137.85 55.8981 137.918C56.1346 138.202 55.6879 138.559 55.5407 138.796C55.0625 139.421 54.2165 139.426 53.5018 139.332Z" fill="#050505"/>
<path d="M67.0018 122.937C66.9807 122.874 66.965 122.811 66.9544 122.748C66.8388 122.727 66.8388 122.59 66.8598 122.501C66.8598 122.39 66.8125 122.29 66.8072 122.18C66.7441 121.019 66.6337 119.815 66.9702 118.691C67.0018 118.622 67.0701 118.57 67.1437 118.612C67.3909 118.827 67.9903 124.135 67.007 122.937H67.0018Z" fill="#050505"/>
<path d="M67.1844 122.085C67.074 119.72 66.9846 117.303 67.4999 114.98C67.3474 114.76 67.7102 114.539 67.8206 114.791C67.8049 116.089 67.6682 117.366 67.7681 118.664C67.7523 119.783 67.7102 120.929 67.8312 122.043C67.8417 122.61 67.237 122.679 67.1844 122.085Z" fill="#050505"/>
<path d="M67.2635 120.53C67.1846 118.901 67.3844 117.267 67.4843 115.648C67.4843 115.564 67.4948 115.443 67.6 115.438C67.763 115.475 67.7209 115.701 67.7472 115.827C67.7683 117.388 67.458 119.011 67.2635 120.53Z" fill="#050505"/>
<path d="M66.8644 122.49C66.5542 122.159 66.5016 121.707 66.5068 121.271C66.5174 120.036 66.6646 118.796 66.754 117.566C66.8381 117.293 66.6698 116.657 67.0432 116.615C67.1641 116.636 67.2167 116.778 67.2009 116.883C67.08 118.339 67.1168 119.815 67.08 121.281C67.1063 121.696 67.0747 122.117 66.8644 122.485V122.49Z" fill="#050505"/>
<path d="M57.264 55.4997C57.264 54.0021 57.1168 52.5044 57.101 51.0015C57.1378 50.7178 57.4007 50.8649 57.3534 51.0961C57.4007 52.5307 57.9318 54.1913 57.264 55.505V55.4997Z" fill="#050505"/>
<path d="M57.1582 55.3843C57.1319 53.9339 57.0425 52.473 57.216 51.0279C57.237 50.9701 57.2738 50.9176 57.3422 50.9176C57.4736 50.9281 57.5052 51.1278 57.4473 51.2224C57.4421 52.6149 57.3632 54.0127 57.1634 55.3895C57.1634 55.3895 57.1634 55.3895 57.1634 55.3843H57.1582Z" fill="#050505"/>
<path d="M63.4645 44.1666C63.27 44.1508 63.0283 44.1718 62.8654 44.1298C63.5223 43.9353 64.1791 43.7777 64.8255 43.5623C67.0431 42.8476 68.6144 41.0609 69.9334 39.2637C70.049 39.2532 70.091 39.3951 70.0437 39.4845C68.7878 41.8807 66.2969 44.1561 63.4645 44.1666Z" fill="#050505"/>
<path d="M59.2769 45.5531C58.6831 45.5163 58.0841 45.4585 57.5113 45.2956C57.4482 45.2536 57.4272 45.1748 57.4429 45.1065C57.5375 44.8752 57.8896 45.0697 58.0893 45.0381C59.3085 45.201 60.5802 45.0487 61.8151 44.9488C63.3233 44.7859 64.863 44.5074 66.1767 43.7244C66.3029 43.6508 66.5078 43.509 66.6287 43.6508C66.6287 43.7927 66.5341 43.9241 66.4185 43.9977C64.3585 45.4585 61.7047 45.4848 59.2769 45.5584V45.5531Z" fill="#050505"/>
<path d="M59.2813 45.6057C58.9292 45.5794 58.5771 45.5216 58.2408 45.406C58.1515 45.3745 58.0674 45.3324 57.9833 45.2903C57.915 45.2536 57.8414 45.2116 57.8257 45.1275C57.8152 45.0592 57.8414 44.9909 57.8992 44.9541C57.9308 44.9331 57.9623 44.9383 57.9886 44.9488C57.9991 44.9488 58.0096 44.954 58.0096 44.9593C58.1094 44.9908 58.2145 45.0118 58.3091 45.0223C58.5824 45.0644 58.8556 45.0854 59.1289 45.1012C59.3286 45.1117 59.523 45.1275 59.7227 45.1327C59.975 45.1327 60.2219 45.1327 60.4742 45.1222C60.6686 45.1222 60.8578 45.1117 61.0207 45.1064C61.5409 45.0854 62.0612 45.0486 62.5762 44.9803C62.965 44.933 63.3592 44.8805 63.7218 44.8017C63.9057 44.7596 64.0896 44.7123 64.2735 44.6545C64.4469 44.602 64.6256 44.5494 64.7885 44.4864L64.8148 44.4759C64.8989 44.4443 64.9724 44.4023 65.0513 44.3603C65.0933 44.334 65.1353 44.3025 65.1721 44.2762C65.1879 44.2657 65.2037 44.2499 65.2142 44.2341C65.2667 44.1553 65.3508 44.0975 65.4506 44.0975C65.6293 44.0975 65.7239 44.313 65.7186 44.4654C65.7134 44.5915 65.6451 44.7228 65.5295 44.7806C65.5295 44.7806 65.5295 44.7806 65.5347 44.7806C65.5452 44.7754 65.561 44.7648 65.5715 44.7596C65.582 44.7543 65.5873 44.7491 65.5925 44.7386C65.5925 44.7386 65.5978 44.7334 65.603 44.7281C65.519 44.8069 65.4296 44.8752 65.3245 44.9225C65.2194 44.9698 65.1038 45.0119 64.9935 45.0486C64.778 45.1222 64.5573 45.18 64.3313 45.2273C64.1001 45.2798 63.8636 45.3166 63.6272 45.3534C63.3959 45.3954 63.17 45.4375 62.9335 45.4691C62.6392 45.5111 62.3449 45.5373 62.0507 45.5689C61.6671 45.6109 61.2834 45.6319 60.9103 45.6477C60.7474 45.653 60.5845 45.6582 60.4216 45.6582C60.038 45.6582 59.6544 45.6425 59.2708 45.6109L59.2813 45.6057Z" fill="#050505"/>
<path d="M31.0992 81.1022C31.5353 80.0565 31.5984 78.9004 31.2306 77.8284C30.8627 76.7512 30.1165 75.8105 29.1128 75.264C28.293 74.8174 27.3681 74.6544 26.4433 74.7963C26.0386 74.8594 25.6393 74.9907 25.2767 75.1747C25.119 75.2535 24.9771 75.3481 24.83 75.4374C24.7827 75.4637 24.7301 75.4952 24.6934 75.5268C24.4832 75.6897 24.3623 75.9209 24.3308 76.1731C24.2152 76.2835 24.1153 76.4096 24.0312 76.5094C23.7527 76.8352 23.5215 77.2346 23.3796 77.6445C23.264 77.9756 23.1642 78.3171 23.1274 78.6692C23.0696 79.2525 23.1116 79.8253 23.2587 80.3928C23.5478 81.4911 24.2992 82.4947 25.2924 83.057C25.9073 83.4038 26.6062 83.6088 27.3103 83.6088C27.3681 83.6088 27.4312 83.6088 27.489 83.6088C27.9987 83.5878 28.5295 83.4826 28.9919 83.2567C29.4544 83.0307 29.8538 82.7627 30.2163 82.4001C30.5894 82.0375 30.8995 81.5804 31.0992 81.1022ZM58.6984 89.6782C59.1082 88.8795 59.329 87.9966 59.3237 87.098C59.3237 86.2835 59.1345 85.5058 58.7929 84.7648C58.4776 84.0922 57.9942 83.4774 57.4266 83.0045C56.8066 82.4895 56.0971 82.1479 55.3194 81.9535C54.6363 81.7853 53.9111 81.7801 53.2227 81.9062C52.8969 81.964 52.5816 82.0691 52.2715 82.1953C52.2505 82.2005 52.2295 82.211 52.2137 82.2162C52.0613 82.2845 51.9457 82.3949 51.8669 82.5211C51.499 82.7155 51.1522 82.9467 50.8527 83.2305C50.4796 83.5773 50.1538 83.9609 49.891 84.397C49.5652 84.9435 49.355 85.5321 49.2341 86.1521C48.9083 87.8495 49.4706 89.7097 50.7265 90.9026C51.3151 91.4649 52.0403 91.922 52.8285 92.148C53.3225 92.2899 53.8217 92.3635 54.3262 92.3635C54.5784 92.3635 54.8359 92.3424 55.0987 92.3057C56.6279 92.0797 57.9889 91.0445 58.6878 89.6782H58.6984ZM66.0553 63.4773C66.6281 62.7837 66.9014 61.8641 66.791 60.9707C66.6912 60.172 66.2865 59.4153 65.656 58.9055C64.894 58.2907 63.8745 58.0542 62.9391 58.38C62.7499 58.4221 62.6028 58.564 62.5082 58.7374C62.503 58.7374 62.4977 58.7374 62.4924 58.7427C61.7568 59.0632 61.247 59.8514 61.0526 60.6081C60.8004 61.6065 61.0526 62.7679 61.7725 63.5246C62.319 64.0921 63.0652 64.481 63.864 64.481C63.9113 64.481 63.9586 64.481 64.0059 64.481C64.7994 64.4337 65.5403 64.0973 66.0501 63.4825L66.0553 63.4773ZM118.805 65.8368C118.568 66.5567 118.243 67.2555 117.906 67.9597C114.049 68.8793 110.192 69.8409 106.366 70.9707C103.639 71.7642 100.46 72.2687 98.4891 74.5494C94.8526 78.0754 93.6965 83.2619 94.0749 88.1805C94.0749 88.191 94.0749 88.2016 94.0749 88.2121C94.0854 88.5169 94.1064 88.8269 94.1222 89.1317C93.9961 89.2788 93.933 89.468 93.912 89.6677C93.5231 89.9672 93.1763 90.3403 92.9241 90.7659C92.3145 91.7644 92.0727 93.0098 92.3513 94.1553C92.572 95.0749 92.9976 95.9473 93.6965 96.5936C94.2851 97.1401 94.9893 97.55 95.767 97.7497C96.1348 97.8443 96.5185 97.8916 96.9021 97.8916C97.4066 97.8916 97.9215 97.8075 98.3892 97.6236C99.1617 97.3241 99.8238 96.8564 100.339 96.21C100.775 95.6372 101.08 94.9909 101.227 94.2815C101.369 93.5931 101.353 92.8627 101.185 92.1743C101.258 92.127 101.327 92.0744 101.4 92.0271C101.658 91.9588 101.921 91.8958 102.178 91.8327C104.559 91.1443 106.934 90.4402 109.33 89.7991C109.414 89.9094 109.53 89.9882 109.677 90.025C109.708 90.0723 109.735 90.1249 109.761 90.1774C108.91 92.6735 108.037 95.1643 107.118 97.6289C104.737 104.481 101.274 110.929 95.8984 115.958C95.2415 116.631 94.5321 117.261 93.7806 117.829C93.6335 117.35 93.3182 116.93 92.8925 116.652C92.0938 116.131 91.0796 116.089 90.1652 116.247C89.3244 116.394 88.4783 116.736 87.8004 117.251C87.049 117.813 86.3658 118.585 86.2712 119.563C86.2397 119.925 86.2765 120.298 86.4184 120.635C86.4184 120.645 86.4289 120.656 86.4394 120.672C85.5093 120.693 84.5791 120.582 83.6595 120.304C84.2533 118.958 84.5318 117.445 84.5318 115.958C84.679 112.653 82.4982 108.901 78.846 109.048C76.4549 109.09 73.9798 110.293 72.6451 112.311C72.1721 111.864 71.7097 111.407 71.2578 110.929C70.2698 109.81 69.2924 108.664 68.604 107.34C68.6355 107.172 68.6671 107.009 68.7038 106.846C69.8232 101.591 72.4454 96.767 73.4596 91.4859C73.7959 89.4732 74.0061 87.4449 74.1743 85.4112C75.4197 81.6803 74.5526 77.6445 73.8064 73.8452C73.5489 73.1358 73.5752 71.0759 72.6188 71.0864C72.2247 71.2073 72.1879 71.7695 72.2457 72.1216C72.4612 73.0885 72.6608 74.0554 72.8343 75.0328C73.1496 76.6093 73.3125 78.1962 73.4123 79.7832C73.3965 81.5541 73.0602 83.3303 72.9131 85.0959C72.519 88.8899 71.9251 92.663 70.4905 96.2258C68.4674 101.433 66.6491 106.793 66.6807 112.448C66.7385 113.278 66.5966 114.224 66.6124 115.117C66.4652 116.925 66.4547 118.748 66.5283 120.566C66.5178 120.803 66.5125 121.039 66.5073 121.276C66.502 121.554 66.523 121.843 66.6281 122.101C65.9975 122.195 65.3722 122.311 64.7679 122.448C64.7363 122.259 64.647 122.08 64.5051 121.948C64.1898 121.654 63.7169 121.591 63.3227 121.423C63.2334 121.391 63.1388 121.365 63.039 121.339C63.0285 120.624 62.7605 119.873 62.3506 119.368C61.9197 118.88 61.3731 118.512 60.7636 118.26C58.0152 115.569 54.6573 113.598 51.5726 111.218C48.9609 109.253 45.8289 108.013 42.9754 106.431C40.5319 104.986 38.02 103.609 35.3032 102.768C38.1461 100.519 41.0574 94.3287 41.977 91.922C43.2224 88.9057 44.5467 78.8163 41.8772 76.625C40.9155 75.9787 40.7578 77.8389 40.8156 78.4642C42.1189 83.8925 41.1415 89.7255 38.7557 94.7282C37.3999 97.3714 36.1282 100.33 33.6426 102.101C33.5217 102.111 33.4166 102.153 33.3325 102.222C32.1397 101.885 30.9205 101.554 29.6908 101.507C27.5626 101.465 25.0612 102.873 24.7722 105.133C24.788 106.315 26.2226 106.2 26.0281 105.033C27.0686 103.115 29.57 102.947 31.4302 103.619C35.135 104.513 38.5508 106.236 41.7878 108.217C41.8561 111.349 44.0737 114.355 47.2898 114.849C48.2357 115.112 50.7791 114.739 51.3571 113.662C53.3646 115.154 55.4981 116.536 57.5002 118.07C57.3321 118.118 57.1744 118.181 57.0168 118.249C52.9547 120.304 50.8159 128.654 51.2993 133.057C51.1312 132.952 50.921 132.942 50.7423 133.131C50.159 134.198 51.3098 137.009 52.4659 137.45C52.7077 137.545 52.9967 137.624 53.2437 137.587C52.8601 136.179 51.8406 135.059 51.6619 133.583C51.6251 133.404 51.5148 133.225 51.3677 133.11C51.767 130.708 52.6656 128.401 53.6641 126.179C54.7466 124.024 55.456 121.039 57.9732 120.151C59.0189 119.962 60.8003 120.178 61.2891 121.244C60.8424 121.281 60.3852 121.365 59.9438 121.486C59.8124 121.439 59.6705 121.412 59.5181 121.402C55.0567 122.227 52.9809 127.361 53.5432 131.491C53.601 131.996 53.6851 132.521 53.7902 133.057C53.9006 134.003 54.2001 134.928 54.5995 135.79C54.9936 136.531 55.2511 137.361 55.6557 138.107C55.4981 138.349 55.2879 138.533 55.0567 138.685C49.1553 139.027 43.2435 138.37 37.3474 137.902C34.7619 137.703 32.1607 137.351 29.5963 136.809C29.6225 136.709 29.633 136.61 29.633 136.52C29.633 136.42 29.6173 136.315 29.5857 136.215C29.5857 136.205 29.5805 136.189 29.5752 136.179C29.5174 135.979 29.4596 135.774 29.3861 135.58C29.2494 135.207 29.0708 134.849 28.8711 134.508C28.4349 133.788 27.8936 133.131 27.242 132.6C26.6219 132.096 25.923 131.66 25.1453 131.449C24.1574 131.181 23.0748 131.187 22.1499 131.675C21.4615 132.043 20.9308 132.616 20.5787 133.31C20.4841 133.499 20.3895 133.714 20.3317 133.935C20.069 133.825 19.8062 133.709 19.5435 133.593C14.7509 131.318 10.4418 128.176 5.93307 125.401C5.89629 125.369 5.78593 125.285 5.67558 125.191C5.50216 124.939 5.29722 124.875 5.11329 124.928C3.6997 119.815 1.96556 114.702 2.00235 109.358C2.01286 109.19 2.02336 109.027 2.03387 108.859C2.24407 109.1 2.48055 109.31 2.7433 109.505C3.3844 109.973 4.17265 110.214 4.9609 110.214C5.07125 110.214 5.18686 110.214 5.29722 110.199H5.31824C5.31824 110.199 5.34451 110.199 5.36028 110.199C5.92256 110.13 6.4901 109.988 7.02085 109.726C7.56737 109.452 8.05083 109.116 8.51327 108.727C8.98622 108.328 9.39085 107.839 9.75344 107.34C10.1055 106.862 10.384 106.341 10.6468 105.811C11.104 104.881 11.3772 103.819 11.4771 102.789C11.6137 101.365 11.4298 99.8517 10.6836 98.6115C10.1055 97.6499 9.15963 96.8353 8.0193 96.6619C7.34666 96.5621 6.66877 96.6041 6.02241 96.8249C5.77017 96.9089 5.53369 97.014 5.29197 97.1244C5.28146 97.1296 5.27094 97.1349 5.26043 97.1401C6.94203 93.1201 8.88112 89.1685 10.1055 85.0171C12.8434 76.6618 15.6233 68.1226 20.2949 60.6239C23.6791 55.6633 28.6451 52.0269 34.1681 49.7358C34.1944 50.1246 34.3363 50.5398 34.4992 50.7762C35.1771 52.0952 36.6064 52.8992 38.062 53.0201C39.0447 53.0937 40.1378 53.0043 40.9313 52.358C40.947 52.3475 40.9628 52.3369 40.9733 52.3211C44.2314 57.2975 48.7086 61.8115 54.8202 62.3423C55.7661 62.4684 56.7225 62.5682 57.6789 62.5682C56.9327 62.3422 56.1024 62.09 55.3404 61.8062C48.5037 59.6833 43.4484 53.9923 40.08 47.844C40.08 47.844 40.08 47.844 40.08 47.8388C40.3637 47.7705 40.6422 47.7073 40.9313 47.6495C40.968 48.4693 41.4883 49.2313 41.8614 49.946C42.8861 51.6486 44.1473 53.1777 45.4611 54.6596C46.964 56.399 48.8242 57.9702 51.1049 58.5167C53.559 59.1946 56.6804 58.853 57.9049 56.3097C58.3883 55.4321 59.1503 53.6033 58.856 52.3842C59.0137 52.4525 59.1766 52.5156 59.3395 52.5786C61.6096 53.4667 64.0059 54.0238 66.192 55.1168C68.2624 56.3359 70.3854 57.7915 71.6729 59.8777C72.7081 61.5487 73.5332 63.3302 74.3845 65.0958C75.9189 68.1594 77.6478 71.1284 79.0141 74.2761C79.7183 75.9104 80.3594 77.5709 80.9795 79.242C81.3263 79.9829 81.4524 80.892 82.0042 81.5121C81.8308 82.1059 81.6574 82.6997 81.484 83.2935C80.969 85.0171 80.5748 86.7722 80.3173 88.5537C80.1177 88.9688 80.2648 89.6046 80.7588 89.7202C81.3421 89.7991 81.505 89.1107 81.5628 88.664C82.4982 83.9714 83.9643 79.3155 85.8456 74.8804C86.9544 72.6051 88.0684 70.2876 89.2771 68.028C89.8709 68.275 90.5015 68.3959 91.1374 68.3959C91.5157 68.3959 91.8993 68.3486 92.2777 68.2593C92.7086 68.1594 93.1973 67.9545 93.6598 67.6707C94.3114 67.2714 94.8684 66.7196 95.2678 66.0574C95.7092 65.327 95.9404 64.4968 95.9877 63.6455C96.0297 62.8047 95.8616 61.9166 95.4937 61.1652C95.3203 60.8183 95.1259 60.4873 94.8789 60.1878C94.8053 60.0984 94.7213 59.9986 94.6267 59.925C94.6267 59.925 94.6214 59.9198 94.6162 59.9145C95.5673 58.7847 96.6025 57.7232 97.7376 56.7405C98.1948 56.2045 98.7361 55.8524 99.3299 55.616C99.3141 55.6633 99.2983 55.7106 99.2878 55.7526C98.4838 59.3575 101.337 63.3617 104.122 65.3953C105.378 66.1835 106.887 66.4253 108.347 66.4989C107.748 66.2729 107.055 66.0627 106.45 65.7632C105.373 65.2797 104.38 64.4967 103.66 63.5456C102.583 62.0795 98.9988 57.0453 101.138 55.5634C101.442 55.6002 101.637 55.3848 101.71 55.1168C102.43 55.0485 103.166 55.0064 103.86 54.8961C102.961 59.9302 105.284 64.4495 110.555 65.6371C112.961 66.1888 115.599 65.7317 117.565 64.192C117.801 63.966 118.111 63.7032 118.411 63.4142C117.622 64.8593 116.03 65.8158 114.59 66.625C113.718 67.0034 112.903 67.5551 112.189 68.1857C112.457 68.4011 112.825 68.5588 113.166 68.6586C115.189 69.1368 117.407 67.1662 118.805 65.8263V65.8368Z" fill="white"/>
</svg>
