<svg width="84" height="92" viewBox="0 0 84 92" fill="none" xmlns="http://www.w3.org/2000/svg">
<path d="M38.9922 63.9215C38.9922 63.9215 38.9764 63.9215 38.9712 63.9268C38.9764 63.9268 38.9869 63.9268 38.9922 63.9215Z" fill="black"/>
<path d="M44.1955 73.0127C44.1955 73.0127 44.1746 73.018 44.1641 73.0232C44.1746 73.0232 44.185 73.018 44.1955 73.0127Z" fill="black"/>
<path d="M41.6042 73.7419C41.6042 73.7419 41.5885 73.7472 41.578 73.7524C41.578 73.7524 41.578 73.7524 41.5728 73.7524C41.5832 73.7524 41.5937 73.7472 41.6042 73.7419Z" fill="black"/>
<path d="M41.468 73.7839C41.468 73.7839 41.4628 73.7839 41.4575 73.7839C41.4523 73.7839 41.4418 73.7839 41.4365 73.7891C41.447 73.7891 41.4575 73.7839 41.468 73.7839Z" fill="black"/>
<path d="M22.1342 73.978C22.1342 73.978 22.1342 73.978 22.123 73.9836C22.123 73.9836 22.1231 73.9836 22.1286 73.9836L22.1342 73.978Z" fill="black"/>
<path d="M11.228 91.4627C10.4465 90.5867 10.609 88.8765 10.3835 87.7066C9.91141 83.641 9.53374 79.4338 9.04067 75.3892C7.92865 67.898 6.8376 60.412 5.73082 52.9156C5.41085 50.8277 5.06468 48.7398 4.67652 46.6624C4.67652 46.6624 4.67126 46.6624 4.66602 46.6624C4.63455 46.6624 4.60308 46.6519 4.57686 46.6414C4.57161 46.5994 4.55586 46.5522 4.53488 46.5103C4.52964 46.4945 4.52437 46.4788 4.51388 46.4578C4.49814 46.4263 4.48242 46.3896 4.46144 46.3529C4.29359 45.9909 4.13623 45.6237 3.97887 45.2565C3.82675 44.8945 3.69562 44.522 3.52252 44.1706C3.34418 43.8086 3.15532 43.4466 2.97698 43.0846C2.97173 43.0689 2.96125 43.0584 2.95601 43.0427C2.96125 43.0532 2.96649 43.0689 2.97698 43.0846C2.97173 43.0689 2.96125 43.0532 2.95601 43.0374C2.59408 42.2505 2.21642 41.4741 1.85449 40.6925C1.41387 39.722 0.968007 38.7567 0.506411 37.7967C0.391012 37.5554 0.27559 37.3089 0.154946 37.0676C0.00807404 36.6059 -0.0758244 36.1338 0.118256 35.7036C0.175955 35.6039 0.233637 35.5043 0.296582 35.4151C0.40149 35.3312 0.506412 35.2472 0.606075 35.1633C0.810646 34.9954 1.0152 34.8275 1.21453 34.6597C1.70235 34.261 2.19017 33.8623 2.68324 33.4636C2.97174 33.2328 3.26025 32.9967 3.54874 32.7659C3.61693 32.7344 3.68513 32.6977 3.74807 32.6662C4.47194 32.3147 5.19581 31.9527 5.91968 31.596C7.27299 30.9245 8.62105 30.2478 9.96387 29.5763C12.7177 28.1967 15.4768 26.8222 18.2306 25.4425C21.0055 24.0524 23.7908 22.6779 26.5761 21.3087C29.3614 19.9343 32.1467 18.5651 34.932 17.1854C37.8118 15.7638 40.6967 14.3474 43.5765 12.9257C46.3723 11.5513 49.1681 10.1769 51.9639 8.79718C53.6162 7.97882 55.2737 7.16568 56.926 6.35256C56.9575 6.31059 56.9942 6.27388 57.031 6.23716C57.1359 6.14273 57.2513 6.12174 57.3771 6.12699C58.3475 5.6496 59.3232 5.17223 60.2988 4.6896C62.8271 3.44631 65.3554 2.20302 67.8837 0.943993C67.9572 1.10137 68.0358 1.25876 68.1093 1.41089C68.1932 1.43187 68.2666 1.49483 68.3296 1.58401C68.3296 1.58401 68.3348 1.58401 68.3401 1.58401C68.5866 1.52106 68.7807 1.71516 68.8961 1.97746C68.8961 1.97746 68.8961 1.97745 68.8961 1.96696C69.9924 4.37484 71.1254 6.77223 72.122 9.23782C72.3475 10.0562 72.8511 10.9323 72.8301 11.7874C72.8459 11.8136 72.8564 11.8451 72.8669 11.8765C73.04 12.2962 73.2078 12.7159 73.3704 13.1356C73.3022 13.167 73.234 13.2038 73.1658 13.2405L71.1096 14.2477C69.7039 14.9402 68.2928 15.6274 66.8871 16.3198C64.0178 17.7258 61.1433 19.116 58.2846 20.5429C55.3681 21.9907 52.4412 23.4124 49.5195 24.8445C47.7833 25.6943 46.0418 26.5442 44.3056 27.3941C43.7758 27.6459 43.246 27.8977 42.711 28.1495C41.6881 28.6321 40.6653 29.1094 39.6424 29.5973C38.651 30.0695 37.6701 30.5626 36.6945 31.0557C36.2172 31.297 35.7451 31.5488 35.2782 31.8164C35.2258 31.8426 35.1733 31.8688 35.1261 31.8898C35.0055 31.9842 34.8639 32.0524 34.7065 32.0891C33.9564 32.4564 33.201 32.8236 32.4457 33.1908C30.4734 34.1508 28.4959 35.1108 26.5236 36.0708C26.4817 36.1023 26.4345 36.1233 26.3872 36.139C25.548 36.5482 24.7035 36.9574 23.8642 37.3666C20.995 38.762 18.1205 40.1522 15.2513 41.5476C13.4888 42.4027 11.7263 43.2578 9.96387 44.1181C10.1947 44.0447 10.4255 43.9817 10.6563 43.9083C12.1197 43.4729 13.578 43.0322 15.0414 42.5915C15.3771 42.4919 15.7129 42.3869 16.0486 42.2873C18.5401 41.5371 21.0369 40.7869 23.5337 40.042C26.3453 39.1974 29.1621 38.3633 31.9684 37.524C34.8271 36.6741 37.6911 35.8243 40.5499 34.9744C43.4139 34.1246 46.2726 33.2747 49.1418 32.4196C51.9376 31.5855 54.7387 30.7514 57.5345 29.9226C60.3356 29.0885 63.1419 28.2649 65.9377 27.436C67.3224 27.0268 68.702 26.6177 70.0868 26.2137C71.2985 25.8622 72.5154 25.537 73.7166 25.154C73.7481 25.1435 73.7796 25.1383 73.8163 25.1383C74.152 25.1383 74.388 25.5789 74.4247 25.9724C74.4614 26.3291 74.3408 26.7803 74.0471 26.838C73.6379 26.9744 73.2235 27.0793 72.8144 27.2C72.2846 27.3573 71.7548 27.5199 71.2303 27.6826C71.9699 29.3927 70.926 31.9213 70.7529 33.6052C70.5798 34.6702 70.3281 35.7666 70.1445 36.8315C70.8736 36.6374 71.608 36.4485 72.3423 36.2544C72.6675 36.1705 72.998 36.0866 73.3232 36.0026C73.2708 35.6197 73.3756 35.1843 73.4333 34.8275C73.7638 33.0649 73.9422 31.1816 74.5349 29.5658C74.5454 29.5396 74.5611 29.5186 74.5768 29.5029C74.5768 29.4977 74.5768 29.4924 74.5768 29.4872C74.5034 29.0308 74.4352 28.5691 74.367 28.1127C74.3356 27.9029 74.3093 27.6983 74.2831 27.4885C74.2516 27.2262 74.2097 26.9219 74.3041 26.6858C74.3408 26.5704 74.3985 26.476 74.4824 26.4131C74.6136 26.3081 74.8024 26.3291 74.9388 26.4708C75.1014 26.6491 75.1696 26.8694 75.2273 27.116C75.2797 27.3626 75.3269 27.6091 75.3742 27.8609C75.4581 28.3226 75.5368 28.7842 75.6207 29.2511C75.7886 30.2111 75.9564 31.1816 76.1242 32.1469C76.4547 34.0774 76.7904 36.0131 77.1261 37.9436C77.7975 41.8204 78.4585 45.6971 79.1089 49.5739C79.7541 53.4559 80.373 57.3431 81.0025 61.2304C81.6109 64.9917 82.2247 68.7531 82.8646 72.5144C82.9538 73.0285 83.0429 73.5321 83.1164 73.978C83.1793 74.1144 83.2265 74.2665 83.2528 74.4187C83.3577 74.98 83.2108 75.7616 82.723 75.8613C82.7072 75.8613 82.6862 75.8718 82.6705 75.8718C82.5131 75.9138 82.3505 75.9662 82.1879 75.9872C80.5094 76.3807 78.8256 76.7898 77.1419 77.1728C75.1853 77.6239 73.2288 78.0751 71.2722 78.521C67.3277 79.4233 63.3884 80.3518 59.4438 81.2489C55.4626 82.1564 51.4866 83.0587 47.5105 83.9715C43.5922 84.8686 39.6844 85.7814 35.766 86.6627C31.8372 87.5492 27.8979 88.4148 23.9429 89.207C21.9916 89.5952 20.0351 89.9676 18.0733 90.3191C17.1186 90.4922 16.1692 90.6549 15.2145 90.8175C14.3176 90.9696 13.4154 91.1532 12.4974 91.1899C12.4554 91.1899 12.4082 91.1899 12.361 91.1899H12.3296C12.3296 91.1899 12.3243 91.2004 12.3191 91.2057C12.1827 91.5047 11.9571 91.6673 11.7159 91.6673C11.5585 91.6673 11.3906 91.5991 11.2385 91.4575L11.228 91.4627ZM9.70685 54.8146C9.28722 54.93 8.86758 55.0349 8.45319 55.1608C10.1737 65.6107 11.7788 76.0763 13.1583 86.5682C13.3209 87.1872 13.3734 87.9952 13.1951 88.588C13.6934 88.4358 14.1917 88.3047 14.69 88.1683C13.7039 80.9446 13.0744 73.6947 11.9256 66.4921C11.3801 62.5629 10.5409 58.6861 9.75407 54.7988C9.73834 54.8041 9.72259 54.8094 9.70685 54.8146ZM21.294 77.0836C21.1104 77.0993 20.974 77.2777 20.995 77.5242C21.016 77.7446 21.1733 77.9597 21.3517 77.9597C21.3569 77.9597 21.3621 77.9597 21.3726 77.9597C21.6244 77.9387 21.8762 77.9282 22.128 77.902H22.1385C22.1385 77.902 22.1542 77.902 22.1595 77.902C22.4742 77.8758 22.7889 77.839 23.1089 77.8075C23.6806 77.7498 24.2524 77.6711 24.8189 77.5977C25.3959 77.5242 25.9781 77.4298 26.5551 77.3459C27.0534 77.2777 27.5465 77.178 28.0396 77.0941C28.5064 77.0102 28.9785 76.942 29.4401 76.8423C30.1639 76.6849 30.8878 76.5328 31.6169 76.3754C31.9789 76.2967 32.3356 76.2233 32.6922 76.1341C33.4214 75.9505 34.1505 75.7669 34.8796 75.5885C35.2048 75.5046 35.5353 75.4259 35.8657 75.342C35.9706 75.3157 36.0755 75.2947 36.1857 75.2633C36.2067 75.258 36.2277 75.2528 36.2434 75.2475H36.2224C37.6754 74.8541 39.1336 74.4554 40.5813 74.0462C40.5813 74.0462 40.5813 74.0462 40.5918 74.0462C40.5918 74.0462 40.5971 74.0462 40.6023 74.0462H40.5971C40.5971 74.0462 40.6023 74.0462 40.6076 74.0462C40.6128 74.0462 40.6181 74.0462 40.6233 74.0462C40.6233 74.0462 40.6233 74.0462 40.6286 74.0462C40.6286 74.0462 40.6338 74.0462 40.6391 74.0462C40.6548 74.0462 40.6653 74.041 40.681 74.0357H40.6862C40.6862 74.0357 40.6863 74.0357 40.6915 74.0357C40.702 74.0357 40.7072 74.0305 40.7177 74.0252C40.723 74.0252 40.7335 74.02 40.7387 74.0147H40.7492C40.7597 74.0147 40.7702 74.0095 40.7859 74.0042C40.7859 74.0042 40.7807 74.0042 40.7754 74.0042C40.7754 74.0042 40.7807 74.0042 40.7859 74.0042C40.7964 74.0042 40.8121 73.999 40.8279 73.9937C40.8384 73.9937 40.8489 73.9885 40.8594 73.9832C40.8489 73.9832 40.8384 73.9937 40.8279 73.9937C40.8436 73.9937 40.8594 73.9832 40.8699 73.978C40.8751 73.978 40.8803 73.978 40.8908 73.978C40.8856 73.978 40.8803 73.978 40.8699 73.9832C40.8803 73.9832 40.8856 73.9832 40.8908 73.978C40.9328 73.9622 40.98 73.9518 41.022 73.936C41.0325 73.936 41.0534 73.9255 41.0639 73.9255C41.0639 73.9255 41.0639 73.9255 41.0692 73.9255C41.0744 73.9255 41.0744 73.9255 41.0797 73.9255C41.1111 73.9203 41.1426 73.9098 41.1741 73.8993C41.1583 73.8993 41.1426 73.9098 41.1269 73.9098C41.1636 73.8993 41.2003 73.8888 41.237 73.8783C41.2213 73.8783 41.2056 73.8888 41.1898 73.8888C41.2265 73.8783 41.2632 73.8678 41.3052 73.8573H41.2842C41.2842 73.8573 41.2842 73.8678 41.279 73.8678H41.2842C41.3157 73.8573 41.3472 73.8521 41.3734 73.8416C41.3629 73.8416 41.3524 73.8468 41.3367 73.8521C41.3681 73.8416 41.3996 73.8364 41.4363 73.8259C41.4363 73.8259 41.4521 73.8259 41.4573 73.8206H41.4678C41.5045 73.8101 41.5412 73.7996 41.5727 73.7891C41.6514 73.7681 41.7301 73.7472 41.8035 73.7262C41.7878 73.7262 41.772 73.7367 41.7563 73.7367C41.7983 73.7262 41.8403 73.7157 41.8822 73.7C41.9137 73.6895 41.9452 73.6842 41.9766 73.6737C41.9766 73.6737 41.9766 73.6737 41.9819 73.6737C41.9819 73.6737 42.0029 73.6737 42.0134 73.6737H42.0028H42.0238C42.0238 73.6737 42.0238 73.6737 42.0186 73.6737C42.0973 73.6527 42.1759 73.6265 42.2546 73.6003C42.2546 73.6003 42.2442 73.6003 42.2442 73.6108C42.3281 73.5845 42.4172 73.5583 42.5012 73.5373C42.5012 73.5373 42.4959 73.5373 42.4907 73.5373C42.4907 73.5373 42.4959 73.5373 42.5012 73.5373C42.5326 73.5268 42.5694 73.5164 42.6061 73.5059C42.6061 73.5059 42.5956 73.5059 42.5903 73.5059C42.6743 73.4849 42.753 73.4639 42.8316 73.4377H42.8264C42.8474 73.4324 42.8631 73.4272 42.8841 73.4167C42.9628 73.3957 43.0467 73.3695 43.1254 73.3485C43.1936 73.3327 43.2618 73.317 43.3247 73.296C43.3404 73.296 43.3562 73.2855 43.3771 73.2803H43.3824C43.4558 73.2593 43.5345 73.2383 43.6079 73.2173C43.5922 73.2173 43.5765 73.2278 43.5607 73.2278C43.6079 73.2173 43.6552 73.2016 43.7076 73.1858C43.6866 73.1858 43.6709 73.1963 43.6552 73.1963C43.7286 73.1753 43.7968 73.1544 43.8702 73.1386H43.844C43.9227 73.1229 44.0014 73.1019 44.08 73.0757C44.0748 73.0757 44.0695 73.0757 44.059 73.0809C44.1115 73.0704 44.1587 73.0547 44.2059 73.039C44.2531 73.0233 44.3003 73.0075 44.3528 72.997C44.3528 72.997 44.3948 72.9865 44.4105 72.9813H44.3895C44.5154 72.9551 44.6413 72.9183 44.7619 72.8868C44.7462 72.8868 44.7305 72.8973 44.7147 72.8973C44.7567 72.8868 44.7934 72.8763 44.8354 72.8658C44.8354 72.8658 44.8406 72.8658 44.8459 72.8658C44.8459 72.8658 44.8476 72.8658 44.8511 72.8658C44.8511 72.8658 44.8878 72.8554 44.9035 72.8501C44.914 72.8501 44.9193 72.8501 44.9245 72.8501H44.9193C44.9193 72.8501 44.935 72.8501 44.9403 72.8501C44.9403 72.8501 44.9665 72.8396 44.9822 72.8396C44.9927 72.8396 44.998 72.8396 45.0032 72.8344H45.0085C45.0557 72.8239 45.1029 72.8081 45.1501 72.7924C45.1396 72.7924 45.1291 72.7976 45.1186 72.8029C45.1553 72.7924 45.1973 72.7819 45.2393 72.7662C45.2393 72.7662 45.2393 72.7662 45.234 72.7662C45.234 72.7662 45.234 72.7662 45.2393 72.7662C45.255 72.7662 45.2655 72.7609 45.276 72.7557C45.276 72.7557 45.276 72.7557 45.2812 72.7557H45.2917C45.3022 72.7557 45.3127 72.7504 45.318 72.7452C45.318 72.7452 45.3547 72.7347 45.3704 72.7294C45.3704 72.7294 45.3652 72.7294 45.3599 72.7294C45.3599 72.7294 45.3652 72.7294 45.3704 72.7294C45.3704 72.7294 45.3809 72.7294 45.3861 72.7294C45.3861 72.7294 45.3862 72.7294 45.3914 72.7294L45.4333 72.719C45.4333 72.719 45.4019 72.7294 45.3861 72.7294C45.4334 72.7189 45.4805 72.7032 45.5278 72.6875C45.5278 72.6875 45.5278 72.6875 45.533 72.6875C45.5382 72.6875 45.5435 72.6875 45.5435 72.6875C45.5487 72.6875 45.554 72.6875 45.5592 72.6875C45.5645 72.6875 45.575 72.6875 45.5802 72.6822C45.5802 72.6822 45.5855 72.6822 45.5907 72.6822C45.5907 72.6822 45.5959 72.6822 45.6012 72.6822C45.6117 72.6822 45.6222 72.677 45.6379 72.6717C45.9107 72.6035 46.1834 72.5249 46.4562 72.4514C47.0647 72.2888 47.6679 72.1262 48.2764 71.9635C48.8744 71.8062 49.4723 71.6435 50.0703 71.4809C50.3378 71.4075 50.6053 71.3446 50.8676 71.2711C51.1614 71.2082 51.4498 71.1347 51.7383 71.0613C52.3363 70.9196 52.9395 70.7779 53.5375 70.6311C54.1197 70.4947 54.702 70.3583 55.2842 70.2167C55.536 70.159 55.7878 70.1065 56.0343 70.0383C56.3018 69.9858 56.5693 69.9176 56.8369 69.8599C57.3929 69.734 57.9437 69.6134 58.4944 69.4875C59.0452 69.3616 59.6012 69.2409 60.152 69.115C60.3775 69.0626 60.6031 69.0153 60.8339 68.9629H60.8286C61.4581 68.816 62.0823 68.6586 62.7065 68.5117C63.488 68.3281 64.2696 68.1393 65.0459 67.9556C65.0459 67.9556 65.0512 67.9556 65.0564 67.9556H65.0512C65.0512 67.9556 65.0722 67.9556 65.0827 67.9504H65.0879C65.0879 67.9504 65.0879 67.9504 65.0932 67.9504C65.2663 67.9084 65.4393 67.8612 65.602 67.814C65.9796 67.7196 66.3573 67.6252 66.7297 67.5255C67.2857 67.3786 67.8418 67.2474 68.3978 67.0953C68.3978 67.0953 68.4082 67.0953 68.4135 67.0953C68.5708 67.0586 68.723 67.0114 68.8751 66.9694C69.2055 66.8855 69.536 66.7963 69.8612 66.7071C70.6218 66.5078 71.3772 66.298 72.1377 66.0934C72.3266 66.0462 72.442 65.8101 72.3843 65.5583C72.3318 65.3065 72.1273 65.1386 71.9437 65.1858C71.1883 65.3641 70.433 65.5373 69.6829 65.7156C69.1793 65.8363 68.6653 65.9412 68.1617 66.0776H68.167C67.9939 66.1143 67.8208 66.1615 67.6477 66.2035C67.27 66.2979 66.8871 66.3871 66.5094 66.4763C66.1265 66.5655 65.7436 66.6599 65.3606 66.7491C65.1875 66.7911 65.0092 66.8278 64.8361 66.875C64.8256 66.875 64.8152 66.875 64.7994 66.8803C64.8047 66.8803 64.8099 66.8803 64.8151 66.8803C64.6578 66.917 64.5057 66.9484 64.3535 66.9852C64.2067 67.0219 64.0598 67.0586 63.9077 67.09C63.9024 67.09 63.8972 67.09 63.8867 67.09C63.8552 67.0953 63.8237 67.1058 63.7923 67.1111H63.7975H63.787C63.787 67.1111 63.7871 67.1111 63.7818 67.1111C63.7818 67.1111 63.7556 67.1111 63.7451 67.1163C63.7556 67.1163 63.7661 67.1163 63.7766 67.1111C63.7398 67.1215 63.7031 67.1268 63.6664 67.1373C63.6559 67.1373 63.6507 67.1373 63.6402 67.1426C62.9635 67.2999 62.2869 67.4573 61.6102 67.6146C61.3689 67.6723 61.1224 67.7248 60.8758 67.7825C60.7919 67.8035 60.7027 67.8193 60.6136 67.8455C60.3408 67.898 60.0733 67.9661 59.8058 68.0291C59.255 68.155 58.699 68.2809 58.143 68.4068C57.587 68.5327 57.0362 68.6534 56.4854 68.7845C56.2546 68.837 56.0238 68.8789 55.7983 68.9419C55.5098 68.9996 55.2213 69.0835 54.9328 69.157C54.3348 69.3039 53.7316 69.4507 53.1336 69.6029C52.5409 69.7498 51.9429 69.8966 51.3502 70.0435C51.0984 70.1065 50.8466 70.159 50.5948 70.2324C50.5948 70.2324 50.5738 70.2376 50.5581 70.2429C50.5581 70.2429 50.5424 70.2429 50.5371 70.2481C50.5371 70.2481 50.5424 70.2481 50.5476 70.2481C50.5056 70.2586 50.4637 70.2744 50.4165 70.2849H50.406C50.3903 70.2849 50.3798 70.2901 50.364 70.2954C50.3378 70.3059 50.3063 70.3111 50.2749 70.3216C50.2539 70.3268 50.2329 70.3373 50.2119 70.3426C50.2119 70.3426 50.1962 70.3426 50.1909 70.3426C50.1804 70.3426 50.1699 70.3478 50.1595 70.3531C50.107 70.3688 50.0598 70.3793 50.0126 70.395C50.0126 70.395 50.0126 70.395 50.0178 70.395C50.0073 70.395 49.9968 70.4003 49.9916 70.4055C49.9864 70.4108 49.9759 70.4055 49.9706 70.4108C49.9392 70.4213 49.9024 70.4317 49.871 70.437H49.8762C49.8762 70.437 49.8657 70.437 49.8605 70.437C49.8605 70.437 49.8657 70.437 49.871 70.437C49.8605 70.437 49.85 70.4422 49.8447 70.4475C49.8447 70.4475 49.8133 70.4527 49.8028 70.458C49.8028 70.458 49.7975 70.458 49.7923 70.458C49.7923 70.458 49.7923 70.458 49.7871 70.458C49.7189 70.479 49.6559 70.4947 49.5929 70.5157C49.5929 70.5157 49.5615 70.5209 49.551 70.5262C49.4986 70.5367 49.4461 70.5524 49.3936 70.5681C49.3884 70.5681 49.3831 70.5681 49.3779 70.5681C49.3674 70.5681 49.3569 70.5681 49.3464 70.5786C49.3517 70.5786 49.3569 70.5786 49.3674 70.5786C49.3569 70.5786 49.3569 70.5786 49.3464 70.5786C49.1838 70.6258 49.0107 70.673 48.8481 70.715C47.7256 71.0298 46.6031 71.3393 45.4806 71.6541C45.4543 71.6646 45.4281 71.6698 45.3966 71.6802H45.3861H45.3809H45.3547C45.3547 71.6802 45.3704 71.6802 45.3809 71.6802C45.3809 71.6802 45.3809 71.6802 45.3756 71.6802H45.3651C45.3651 71.6802 45.3652 71.6802 45.3599 71.6802C45.3599 71.6802 45.3494 71.6802 45.3442 71.6802C45.3337 71.6802 45.3232 71.6855 45.3127 71.6908C44.4682 71.9268 43.6289 72.1786 42.7844 72.4252C41.9976 72.656 41.2055 72.8869 40.4135 73.1177H40.403C40.403 73.1177 40.3978 73.1177 40.3925 73.1177H40.403C40.403 73.1177 40.3872 73.1177 40.382 73.1177C40.382 73.1177 40.3663 73.1176 40.361 73.1229C40.361 73.1229 40.361 73.1229 40.3663 73.1229C39.9257 73.2488 39.4955 73.3695 39.0549 73.4954C39.0707 73.4954 39.0864 73.4849 39.1021 73.4849C38.8084 73.5688 38.5146 73.6527 38.2209 73.7367C37.7016 73.8836 37.1823 74.0304 36.663 74.1773C36.663 74.1773 36.6683 74.1773 36.6735 74.1773C36.6735 74.1773 36.6683 74.1773 36.663 74.1773C36.6525 74.1773 36.6473 74.1826 36.6368 74.1878C36.5896 74.1983 36.5424 74.2088 36.4952 74.2246C36.4217 74.2456 36.3483 74.2665 36.2696 74.2875C36.2801 74.2875 36.2906 74.2875 36.2958 74.2823C36.2329 74.298 36.1647 74.319 36.0965 74.34C36.0703 74.3452 36.0493 74.3505 36.0231 74.361H36.0126C34.8743 74.6652 33.7256 74.9432 32.5873 75.237C32.2831 75.3157 31.9736 75.3839 31.6641 75.4521C30.9612 75.6095 30.2584 75.7669 29.5555 75.919C29.1464 76.0082 28.7372 76.0869 28.3281 76.1603C27.7616 76.2652 27.1951 76.3806 26.6285 76.4698C25.4746 76.6482 24.3258 76.8266 23.1718 76.9629C22.7941 76.9944 22.4217 77.0311 22.0493 77.0731H22.0598C22.0598 77.0731 22.0598 77.0731 22.0493 77.0731C22.0493 77.0731 22.0283 77.0731 22.0178 77.0731C22.0231 77.0731 22.0283 77.0731 22.0336 77.0731C21.7923 77.0888 21.5562 77.1098 21.3149 77.1308L21.294 77.0836ZM17.213 75.4836C17.213 75.6147 17.2288 75.7407 17.2917 75.8613C17.3966 76.0397 17.5645 76.0974 17.7114 76.1131C17.7376 76.1131 17.7638 76.1131 17.79 76.1131C17.9894 76.1131 18.1887 76.0396 18.367 75.9715C18.4929 75.919 18.6188 75.8665 18.7447 75.814C18.9125 75.7406 19.0804 75.662 19.2483 75.5885C19.4476 75.4993 19.6469 75.3944 19.8515 75.3262C19.8672 75.3262 19.8829 75.321 19.8987 75.3157C19.9092 75.3157 19.9197 75.3157 19.9302 75.3157C20.0036 75.3262 20.077 75.3367 20.1505 75.3524C20.1505 75.3524 20.1557 75.3524 20.1609 75.3524C20.3865 75.3996 20.6225 75.4468 20.8428 75.4311C21.0946 75.4101 21.3412 75.3629 21.572 75.2633C21.9496 75.1059 22.2906 74.8751 22.6315 74.6233C22.9935 74.3452 23.3554 74.062 23.7121 73.7682C23.859 73.6475 23.8799 73.3747 23.7645 73.1806C23.6544 72.9813 23.4446 72.9288 23.3029 73.0442C22.92 73.3642 22.5319 73.679 22.1385 73.978C21.9287 74.1301 21.7189 74.2718 21.4881 74.3872C21.3727 74.4396 21.2625 74.4921 21.1471 74.5236C21.0579 74.5446 20.9687 74.5655 20.8796 74.5813H20.8691C20.7904 74.5918 20.7117 74.5918 20.6278 74.5918C20.5281 74.5865 20.4232 74.5761 20.3183 74.5551C20.2029 74.5341 20.0823 74.4974 19.9721 74.4921C19.7938 74.4816 19.6312 74.5131 19.4686 74.5918C19.3217 74.66 19.1748 74.7282 19.0227 74.7964C18.6818 74.9538 18.3408 75.1269 17.9841 75.2475C17.9107 75.2685 17.8372 75.2895 17.7638 75.3C17.7008 75.195 17.6169 75.1269 17.5173 75.1164C17.5068 75.1164 17.4963 75.1164 17.4858 75.1164C17.3284 75.1164 17.213 75.2738 17.213 75.4784V75.4836ZM27.0272 66.1301C26.66 66.2297 26.2876 66.3189 25.9204 66.4186C25.2648 66.5865 24.6091 66.7543 23.9482 66.9275C23.7121 66.9904 23.476 67.0324 23.2348 67.0796C22.8046 67.174 22.3798 67.2579 21.9497 67.3523C21.7766 67.3891 21.6035 67.4311 21.4251 67.4573C21.0265 67.5203 20.633 67.5779 20.2344 67.6356C19.6469 67.7248 19.0542 67.7878 18.4614 67.8455H18.4719C18.3041 67.8665 18.1362 67.877 17.9684 67.8979H17.9893C17.7953 67.9137 17.6274 67.9871 17.5592 68.2389C17.5173 68.3911 17.5592 68.5956 17.6537 68.7268C17.6904 68.7792 17.7323 68.8212 17.7795 68.8579C17.8425 68.8999 17.9054 68.9209 17.9684 68.9209C18.0261 68.9209 18.0785 68.9052 18.1257 68.8684C18.2201 68.8579 18.3146 68.8475 18.409 68.837C18.7342 68.8108 19.0542 68.7688 19.3794 68.7373C19.584 68.7163 19.7885 68.6953 19.9878 68.6638C20.376 68.6061 20.7642 68.5432 21.1471 68.4855C21.3517 68.454 21.5615 68.4278 21.766 68.3858C22.5004 68.2285 23.2348 68.0711 23.9691 67.9084C24.5042 67.793 25.0287 67.6409 25.5532 67.5045C26.1093 67.3576 26.6653 67.2212 27.2213 67.0691C27.2632 67.0586 27.3052 67.0481 27.3472 67.0376C27.3367 67.0376 27.3314 67.0376 27.3262 67.0376C28.5222 66.7176 29.7181 66.3924 30.9088 66.0671C30.9403 66.0566 30.9717 66.0514 31.0032 66.0409C31.0137 66.0409 31.0242 66.0357 31.0347 66.0304C31.7848 65.8416 32.5349 65.6317 33.2797 65.4324C33.9931 65.2435 34.7065 65.0651 35.4199 64.871H35.4094C35.4199 64.871 35.4251 64.871 35.4303 64.8658C35.4356 64.8605 35.4461 64.8658 35.4513 64.8658C35.4513 64.8658 35.4513 64.8658 35.4566 64.8658C35.4618 64.8658 35.4671 64.8658 35.4723 64.8658H35.4776C35.4776 64.8658 35.509 64.8606 35.5248 64.8553C35.7136 64.8029 35.9077 64.7504 36.0965 64.6979C36.0913 64.6979 36.086 64.6979 36.0755 64.7032C37.0355 64.4461 37.9954 64.1891 38.9553 63.932C39.0287 63.9111 39.0969 63.8953 39.1651 63.8743C39.2805 63.8428 39.3959 63.8114 39.5165 63.7851H39.5113C39.5532 63.7747 39.5952 63.7641 39.6372 63.7484C39.6214 63.7484 39.6057 63.7589 39.59 63.7589C39.7368 63.7169 39.8837 63.6802 40.0306 63.6435C40.0306 63.6435 40.0516 63.6435 40.062 63.6382C40.1092 63.6278 40.1565 63.612 40.2089 63.6015C40.2089 63.6015 40.1984 63.6015 40.1932 63.6015C40.2089 63.6015 40.2247 63.591 40.2404 63.591C40.2404 63.591 40.2351 63.591 40.2299 63.591C40.2299 63.591 40.2352 63.591 40.2404 63.591C40.2561 63.591 40.2719 63.5805 40.2823 63.5805C40.2719 63.5805 40.2614 63.591 40.2509 63.591C40.2719 63.591 40.2876 63.5805 40.3033 63.5753C40.3033 63.5753 40.3033 63.5753 40.3086 63.5753C40.3086 63.5753 40.3086 63.5753 40.3033 63.5753C40.3033 63.5753 40.3033 63.5753 40.3086 63.5753C40.3191 63.5753 40.3348 63.57 40.3505 63.5648H40.3558C40.3558 63.5648 40.3558 63.5648 40.361 63.5648H40.3715C40.3715 63.5648 40.3925 63.5595 40.4083 63.5543C40.4083 63.5543 40.4135 63.5543 40.4187 63.5543C40.4292 63.5543 40.4345 63.5543 40.4397 63.5543H40.4502C40.4659 63.5543 40.4817 63.5438 40.4974 63.5386C40.4974 63.5386 40.4869 63.5386 40.4817 63.5438C40.5079 63.5334 40.5341 63.5281 40.5551 63.5228C40.5446 63.5228 40.5394 63.5229 40.5236 63.5281C40.5341 63.5281 40.5499 63.5228 40.5656 63.5176C40.5866 63.5176 40.6076 63.5071 40.6338 63.5018C40.639 63.5018 40.6443 63.5018 40.6548 63.4966C40.66 63.4966 40.6653 63.4966 40.6705 63.4966C40.7335 63.4809 40.7912 63.4651 40.8489 63.4494C40.9013 63.4337 40.9538 63.4179 41.0115 63.4075C40.9957 63.4075 40.98 63.4179 40.9643 63.4179C41.0272 63.3969 41.0902 63.3864 41.1531 63.3654C41.1531 63.3654 41.1426 63.3654 41.1321 63.3707C41.1426 63.3707 41.1479 63.3707 41.1531 63.3654C41.2265 63.3445 41.2947 63.3287 41.3629 63.313C41.4206 63.3025 41.4783 63.2815 41.536 63.2658C41.536 63.2658 41.5413 63.2658 41.5465 63.2658C41.5465 63.2658 41.5465 63.2658 41.5518 63.2658C41.6776 63.2343 41.7983 63.2028 41.9189 63.1661C41.9032 63.1661 41.8875 63.1766 41.8717 63.1818C42.0606 63.1346 42.2441 63.0822 42.433 63.0349C42.4172 63.0349 42.4015 63.0454 42.3858 63.0454C42.4539 63.0245 42.5221 63.0087 42.5956 62.9878C42.5798 62.9878 42.5588 62.9983 42.5431 62.9983C42.648 62.972 42.753 62.9458 42.8631 62.9143C42.8526 62.9143 42.8473 62.9248 42.8421 62.9248C43.8387 62.6573 44.8354 62.3897 45.8372 62.1222C45.8372 62.1222 45.8372 62.1222 45.832 62.1222C45.832 62.1222 45.8215 62.1222 45.8163 62.1274C45.832 62.1274 45.8477 62.1169 45.8582 62.1169C46.152 62.0487 46.4405 61.9701 46.729 61.9019C47.3742 61.7445 48.0141 61.5871 48.654 61.4245C49.6454 61.1832 50.6368 60.9471 51.6282 60.69C51.6282 60.69 51.6387 60.69 51.6492 60.69C52.4098 60.5222 53.1703 60.3385 53.9309 60.1602C54.9747 59.9189 56.0186 59.688 57.0572 59.4415C57.0782 59.4415 57.0991 59.431 57.1201 59.4257C57.1464 59.4205 57.1726 59.4153 57.1936 59.4048C57.2041 59.4048 57.2146 59.4048 57.225 59.3995C57.225 59.3995 57.225 59.3995 57.2303 59.3995C57.2408 59.3995 57.2513 59.3995 57.2618 59.3943C57.2618 59.3943 57.267 59.3943 57.2722 59.3943C57.2827 59.3943 57.288 59.3943 57.2932 59.3943H57.3037H57.3142C57.9489 59.2684 58.5731 59.1162 59.2025 58.9746C59.234 58.9693 59.2603 58.9589 59.2865 58.9537C59.3022 58.9537 59.3232 58.9431 59.3442 58.9431C59.3547 58.9431 59.3599 58.9431 59.3651 58.9431C59.3704 58.9431 59.3809 58.9431 59.3862 58.9379C59.3809 58.9379 59.3704 58.9379 59.3651 58.9431C59.3756 58.9431 59.3809 58.9431 59.3862 58.9379C60.131 58.7753 60.8706 58.6126 61.6154 58.4447C61.9459 58.3713 62.2763 58.2927 62.6068 58.2245C62.6068 58.2245 62.5963 58.2245 62.5911 58.2245C63.1786 58.1038 63.7608 57.9831 64.3431 57.8572C67.3802 57.2277 70.4225 56.6139 73.4543 55.9897C73.6851 55.9425 73.8268 55.6539 73.7691 55.3496C73.7114 55.0454 73.4648 54.8356 73.234 54.8775C72.1954 55.0769 71.1621 55.2762 70.1287 55.4808C68.9485 55.7116 67.7683 55.9425 66.5881 56.189C65.1928 56.4828 63.8028 56.766 62.4127 57.0703C61.8777 57.1805 61.3427 57.3117 60.8129 57.4323C59.8267 57.6579 58.8459 57.8834 57.865 58.1037C57.8125 58.1142 57.7653 58.1248 57.7129 58.1405C57.6919 58.1405 57.6709 58.151 57.6499 58.1563H57.6447C57.6447 58.1563 57.6394 58.1563 57.6342 58.1563C57.4611 58.193 57.2932 58.2297 57.1201 58.2717H57.1096H57.0991C57.0991 58.2717 57.0834 58.2717 57.0782 58.2769C57.0782 58.2769 57.0782 58.2769 57.0729 58.2769C57.0729 58.2769 57.0572 58.2769 57.0519 58.2769C57.0572 58.2769 57.0677 58.2769 57.0729 58.2769C56.4644 58.4238 55.856 58.5707 55.2423 58.7175C55.2632 58.7175 55.279 58.707 55.3 58.707C55.195 58.7333 55.0901 58.7595 54.9852 58.7805C55.0062 58.7805 55.0219 58.77 55.0377 58.77C55.0062 58.7752 54.9695 58.7858 54.9328 58.791C54.9276 58.791 54.9223 58.791 54.917 58.791C54.917 58.791 54.917 58.791 54.9065 58.791C54.8541 58.8015 54.7964 58.8224 54.7387 58.8329C53.9676 59.0165 53.1913 59.2002 52.4202 59.389C52.0845 59.473 51.7488 59.5359 51.4184 59.6303C50.9987 59.7353 50.5791 59.8454 50.1595 59.9503C50.0965 59.9661 50.0388 59.9819 49.9759 59.9976C49.9916 59.9976 50.0073 59.9871 50.0283 59.9871C49.9759 60.0028 49.9129 60.0185 49.8605 60.029C49.8605 60.029 49.8447 60.029 49.8395 60.029C49.787 60.0395 49.7398 60.0553 49.6874 60.0658H49.6821C49.6821 60.0658 49.6769 60.0658 49.6716 60.0658C49.6402 60.0763 49.614 60.0815 49.5877 60.0867C49.5877 60.0867 49.5877 60.0867 49.5825 60.0867C49.5667 60.0867 49.5562 60.0972 49.5405 60.0972C49.5405 60.0972 49.5405 60.0972 49.5353 60.0972C49.5353 60.0972 49.5353 60.0972 49.5405 60.0972H49.5458C49.4566 60.1182 49.3674 60.1392 49.2782 60.1654C49.2835 60.1654 49.2887 60.1654 49.2992 60.1602C48.654 60.3228 48.0088 60.4907 47.3689 60.6533C46.4195 60.8946 45.4753 61.1412 44.5311 61.3982C43.0782 61.7969 41.6252 62.1851 40.1722 62.5943C40.1879 62.5943 40.2037 62.5838 40.2246 62.5838C40.2037 62.5891 40.1827 62.5943 40.167 62.5996C40.167 62.5996 40.1617 62.5996 40.1565 62.5996C40.1565 62.5996 40.1565 62.5996 40.146 62.5996C40.146 62.5996 40.146 62.5996 40.1355 62.5996H40.125C40.125 62.5996 40.125 62.5996 40.1197 62.5996C40.1197 62.5996 40.1093 62.5996 40.104 62.5996C40.104 62.5996 40.062 62.6101 40.0358 62.6153C40.0516 62.6153 40.0673 62.6048 40.083 62.6048C38.5094 63.0245 36.941 63.4599 35.3726 63.8848C35.3412 63.8953 35.3044 63.9058 35.2677 63.9163C35.2677 63.9163 35.2363 63.9215 35.2205 63.9268H35.2258C35.2258 63.9268 35.1996 63.932 35.1891 63.9373C35.1891 63.9373 35.1786 63.9373 35.1733 63.9373C35.1733 63.9373 35.1838 63.9373 35.1891 63.9373C33.7204 64.3203 32.2516 64.7084 30.7882 65.1124C30.7672 65.1176 30.7462 65.1228 30.72 65.1281C30.72 65.1281 30.7042 65.1333 30.699 65.1386C29.503 65.4586 28.3123 65.7786 27.1111 66.1091C27.1111 66.1091 27.1164 66.1091 27.1216 66.1091C27.0849 66.1196 27.0534 66.1301 27.0167 66.1353L27.0272 66.1301ZM14.968 66.172C14.7634 66.172 14.6113 66.4029 14.6375 66.6652C14.6585 66.9327 14.8474 67.1478 15.0519 67.1478C15.3719 67.1478 15.6866 67.1058 16.0013 67.0744C16.2898 67.0429 16.5783 66.9904 16.8616 66.9275C17.1763 66.854 17.491 66.7806 17.8058 66.6862C17.9684 66.6337 18.131 66.5917 18.2883 66.534C18.4509 66.4816 18.6083 66.4238 18.7709 66.3714H18.7814C18.8758 66.4448 18.9755 66.513 19.0804 66.5655C19.1905 66.6232 19.3112 66.6494 19.4266 66.6757C19.6574 66.7176 19.8934 66.7176 20.1242 66.7176C20.3183 66.7176 20.46 66.5078 20.439 66.256C20.418 66.0042 20.2396 65.7996 20.0456 65.7996C19.9039 65.7996 19.7571 65.7996 19.6154 65.7891C19.5472 65.7786 19.4843 65.7681 19.4161 65.7576H19.4056C19.4056 65.7576 19.4004 65.7576 19.3951 65.7576C19.3637 65.7471 19.3322 65.7366 19.3059 65.7261C19.2902 65.7156 19.2745 65.7104 19.2588 65.7052C19.222 65.6842 19.1853 65.658 19.1538 65.6317C19.0594 65.553 18.965 65.49 18.8548 65.4586C18.7342 65.4271 18.6136 65.4481 18.5034 65.4901C18.388 65.5216 18.2726 65.5635 18.1572 65.6002C17.9369 65.6632 17.7218 65.7314 17.5015 65.7891C17.3442 65.831 17.1868 65.8782 17.0295 65.915C16.8459 65.9569 16.6675 66.0042 16.4839 66.0304C16.1482 66.0881 15.8073 66.1301 15.4716 66.1668H15.4821C15.4821 66.1668 15.4663 66.1668 15.4611 66.1668C15.4611 66.1668 15.4663 66.1668 15.4716 66.1668C15.4663 66.1668 15.4611 66.1668 15.4506 66.1668C15.2932 66.1773 15.1411 66.1878 14.9837 66.1878L14.968 66.172ZM72.358 45.7129C71.9069 45.7863 71.4558 45.8493 71.0047 45.9332C69.9766 46.0958 68.9485 46.2794 67.9204 46.4578C66.63 46.6781 65.3397 46.909 64.0545 47.1345C63.572 47.2185 63.0894 47.2971 62.6068 47.3916C61.8882 47.5332 61.1696 47.6749 60.4562 47.8112C59.9107 47.9162 59.3599 48.0106 58.8196 48.1312C58.2217 48.2676 57.6237 48.404 57.0257 48.5352C55.9084 48.787 54.7912 49.0335 53.6844 49.3063C52.5147 49.5896 51.3449 49.8676 50.1857 50.1667C48.7904 50.5234 47.4004 50.8801 46.0104 51.2421C43.6552 51.8559 41.3105 52.4801 38.9658 53.1201C36.6998 53.7444 34.439 54.3844 32.1677 54.9772C31.4491 55.166 30.7252 55.3549 30.0066 55.5438C29.4821 55.6802 28.9575 55.7956 28.433 55.9215C27.1741 56.2257 25.9099 56.5195 24.651 56.8133C24.0793 56.9497 23.5023 57.0808 22.9305 57.2172C22.3535 57.3536 21.7818 57.5005 21.2048 57.6474C19.9774 57.9621 18.7709 58.3503 17.5697 58.7647C17.3756 58.8277 17.255 59.0691 17.3179 59.3418C17.3704 59.5569 17.5435 59.7405 17.7166 59.7405C17.7428 59.7405 17.769 59.7405 17.7953 59.7248C18.0995 59.6199 18.4037 59.5149 18.7132 59.4205C18.9335 59.347 19.1486 59.2631 19.3689 59.2002C19.862 59.0533 20.355 58.9064 20.8481 58.7595C21.1104 58.686 21.3779 58.6232 21.6402 58.5602C21.9706 58.4763 22.2958 58.3923 22.6263 58.3083C22.8676 58.2454 23.1141 58.193 23.3554 58.1405C23.7541 58.0461 24.1475 57.9516 24.5461 57.8572C25.5742 57.6159 26.6076 57.3798 27.6357 57.1333C28.412 56.9444 29.1936 56.7556 29.9699 56.5667C30.4105 56.4618 30.8511 56.3411 31.297 56.2205C32.4667 55.9162 33.6364 55.6067 34.8009 55.2815C35.9287 54.972 37.0512 54.652 38.1842 54.3477C39.3906 54.0225 40.5971 53.6762 41.8088 53.3667C43.225 53.0047 44.6308 52.6375 46.0418 52.2755C47.2325 51.9713 48.4232 51.6828 49.6139 51.3837C50.684 51.1214 51.7541 50.8696 52.8294 50.6126C53.9309 50.3503 55.0325 50.0932 56.1392 49.8571C57.309 49.6053 58.4734 49.3431 59.6484 49.1175C60.8549 48.8867 62.0613 48.6453 63.273 48.425C65.8957 47.9581 68.5131 47.4807 71.1306 46.9876C71.1358 46.9876 71.1411 46.9876 71.1411 46.9876C71.6027 46.8984 72.0695 46.8093 72.5312 46.7148C72.7357 46.6729 72.8459 46.3843 72.7882 46.1273C72.741 45.9122 72.5679 45.7234 72.3948 45.7234C72.3843 45.7234 72.3685 45.7234 72.358 45.7234V45.7129ZM13.4049 57.0441C13.237 57.0913 13.0587 57.1753 12.9643 57.3589C12.8803 57.511 12.8699 57.7523 12.938 57.9359C13.001 58.088 13.0954 58.2087 13.1898 58.3346C13.2737 58.45 13.3891 58.5234 13.4993 58.5234C13.5727 58.5234 13.6357 58.492 13.6986 58.4291C13.8035 58.3241 13.8402 58.1248 13.793 57.9517C13.835 57.9517 13.8717 57.9412 13.9137 57.9412C13.8979 57.9412 13.8822 57.9412 13.8717 57.9412C14.2756 57.9307 14.6847 57.9621 15.0886 57.9779C15.4821 57.9988 15.8965 57.9989 16.2479 57.8153C16.4157 57.7313 16.5678 57.6159 16.7147 57.4848C16.8616 57.3589 16.977 57.2067 17.0871 57.0284C17.0871 57.0284 17.0871 57.0231 17.0871 57.0179C17.0924 57.0074 17.0976 57.0021 17.1081 56.9916C17.1081 56.9864 17.1186 56.9812 17.1239 56.9759C17.1396 56.9654 17.1553 56.9602 17.1711 56.9497C17.2025 56.9392 17.2288 56.9287 17.255 56.9234C17.2393 56.9234 17.2235 56.9287 17.2078 56.9339C17.4648 56.8815 17.7323 56.8815 17.9946 56.8553C18.2097 56.8343 18.4247 56.808 18.6398 56.7766C19.0437 56.7189 19.4371 56.6402 19.841 56.572C20.0298 56.5405 20.1609 56.3202 20.119 56.0631C20.077 55.8166 19.8829 55.6225 19.6941 55.6539C19.201 55.7379 18.708 55.827 18.2149 55.9057C18.0051 55.9372 17.7953 55.9477 17.5855 55.9582C17.5015 55.9634 17.4176 55.9687 17.3284 55.9792C17.2078 55.9897 17.0767 56.0002 16.9613 56.0474C16.8564 56.0893 16.7619 56.1365 16.6675 56.21C16.5941 56.2729 16.5311 56.3674 16.4787 56.4618C16.463 56.4933 16.4472 56.5142 16.4262 56.5405C16.3843 56.5877 16.3423 56.6349 16.3003 56.6769C16.2164 56.7503 16.1272 56.8185 16.0276 56.8815C15.9699 56.9129 15.9122 56.9444 15.8492 56.9654C15.8178 56.9812 15.7863 56.9916 15.7496 57.0021C15.6499 57.0231 15.5555 57.0284 15.4506 57.0336H15.4716C15.4716 57.0336 15.4506 57.0336 15.4401 57.0336H15.4453H15.4348C14.9837 57.0441 14.5221 56.9812 14.071 56.9812H13.9871C13.7878 56.9812 13.5832 56.9812 13.3891 57.0389L13.4049 57.0441ZM8.13848 46.3739C7.81326 46.4683 7.47754 46.5837 7.14184 46.6466C7.10512 46.6571 7.06842 46.6624 7.0317 46.6624C7.40937 48.8762 7.7818 51.09 8.14898 53.3038C8.56861 53.2093 8.98822 53.0939 9.40261 52.9838C9.16656 51.7772 8.94628 50.5706 8.74171 49.3641C8.65254 48.404 8.3378 47.2709 8.3955 46.3004C8.31157 46.3266 8.22765 46.3476 8.13848 46.3739ZM11.4221 45.4138C10.6773 45.6342 9.93241 45.8545 9.18756 46.0696C9.16658 46.0748 9.14559 46.0801 9.11937 46.0906C9.11937 46.143 9.11936 46.1903 9.10887 46.2375C9.33442 48.4355 9.7488 50.6073 10.2209 52.7739C10.8451 52.6113 11.4746 52.4434 12.104 52.2808C12.361 52.2126 12.6233 52.1444 12.8803 52.0762C12.7754 50.4814 13.3419 47.8585 13.4836 47.0873C13.6094 46.7043 13.599 45.5817 13.7144 44.7424C12.9485 44.9627 12.1879 45.1883 11.4221 45.4138ZM17.1711 43.7299C17.1815 44.3594 16.9193 44.947 16.8616 45.5607C16.8091 45.9332 16.7672 46.3057 16.7252 46.6729C16.7095 46.8198 16.6937 46.9666 16.678 47.1083C16.5888 47.9057 16.5049 48.7083 16.4053 49.5004C16.3685 49.8886 16.2898 50.3818 16.1063 50.7332C16.0748 50.9011 16.0433 51.0742 16.0118 51.2473C16.2846 51.1791 16.5521 51.111 16.8196 51.0323C18.6293 50.5549 20.439 50.0723 22.2486 49.5896C22.1805 48.3988 22.8151 46.7463 22.8886 45.8545C23.1561 44.5325 23.3869 43.1948 23.6177 41.8571C23.6177 41.8466 23.6177 41.8414 23.6177 41.8309C21.4671 42.4709 19.3165 43.1004 17.1606 43.7299H17.1711ZM26.5656 40.96C26.7544 41.3325 26.8226 41.8414 26.7282 42.2138C26.4869 43.3155 26.2823 44.4276 26.0568 45.5345C25.8207 46.5889 25.6634 47.6801 25.4536 48.7398C25.6896 48.6768 25.9257 48.6139 26.1617 48.5509C27.3262 48.2414 28.4907 47.9319 29.6552 47.6224C29.566 46.4998 30.08 45.0414 30.1692 44.1496C30.4525 42.6388 30.7462 41.1331 31.0504 39.6328C29.5607 40.0787 28.0658 40.5141 26.5709 40.96H26.5656ZM34.2239 38.6938C34.3603 39.1554 34.3183 39.6171 34.1924 40.0525C33.9721 41.0807 33.7256 42.1036 33.4581 43.1109C33.2011 44.1601 32.9807 45.2355 32.7132 46.2794C32.6817 46.4473 32.6345 46.6466 32.5873 46.846C33.5263 46.5994 34.4652 46.3529 35.4041 46.1011C35.9549 45.9542 36.5057 45.8073 37.0617 45.6604C37.025 45.4296 37.0302 45.1883 37.0827 44.9784C37.2138 43.924 37.3974 42.8905 37.5967 41.8571C37.8799 40.3777 38.1842 38.9141 38.4727 37.4453C37.0564 37.8649 35.6454 38.2846 34.2291 38.7043L34.2239 38.6938ZM41.1583 36.6374C41.1111 36.6479 41.0692 36.6636 41.0272 36.6793C41.258 37.1095 41.2265 37.6551 41.0797 38.0748C40.9013 40.4564 40.3715 42.7122 39.7945 44.9312C41.1741 44.564 42.5484 44.1968 43.9227 43.8296C43.8073 42.581 44.5626 40.6505 44.6675 39.785C44.8878 38.4997 45.1396 37.2249 45.3442 35.9292C45.3809 35.7718 45.4019 35.5724 45.4386 35.3679C44.0118 35.7875 42.5851 36.2125 41.1636 36.6374H41.1583ZM3.98412 33.9305C3.8897 33.9777 3.79527 34.0249 3.70085 34.0669C3.31793 34.6597 2.90881 35.1895 2.47344 35.7089C3.79528 38.5836 5.19055 41.4007 6.45469 44.3122C7.08414 43.9975 7.70836 43.6879 8.33781 43.3837C9.71735 42.7017 11.0969 42.0145 12.4764 41.3325L12.5656 41.2905C9.81176 40.0577 3.53826 35.7036 4.27786 33.7889C4.1782 33.8361 4.07853 33.8833 3.97887 33.9357L3.98412 33.9305ZM49.6716 34.1193C49.21 34.2557 48.7484 34.3921 48.2868 34.5285C48.4495 35.0426 48.376 35.7246 48.1662 36.1285C47.8934 36.821 47.8095 37.6184 47.6731 38.3895C47.3951 39.9213 47.0542 41.4164 46.708 42.9168C46.6975 42.9745 46.6765 43.0374 46.666 43.1056C47.8305 42.7961 48.995 42.4814 50.1595 42.1719C50.0493 40.6191 50.962 38.0643 51.0617 37.0676C51.2558 36.0866 51.4393 35.1003 51.5757 34.0983C51.5967 33.941 51.6072 33.7416 51.6282 33.5475C50.9777 33.7364 50.3221 33.9305 49.6716 34.1246V34.1193ZM58.1692 31.6013C56.8579 31.9947 55.5465 32.3829 54.2299 32.7711C54.2876 33.0754 54.2981 33.4321 54.2352 33.8256C54.0673 34.7174 53.6949 39.103 52.95 41.4217C53.2543 41.3378 53.5637 41.2591 53.8732 41.1751C54.6967 40.9548 55.5203 40.7345 56.3438 40.5141C56.1707 38.8302 57.1726 36.4118 57.4348 35.221C57.7181 34.1456 57.9436 33.0439 58.1849 31.9475C58.2112 31.8321 58.2374 31.7009 58.2741 31.5645C58.2374 31.575 58.2059 31.5855 58.1692 31.596V31.6013ZM60.8654 30.7934C61.0122 31.381 60.9493 32.0105 60.8654 32.577C60.6188 34.0459 60.2254 35.4361 59.9579 36.8944C59.7743 37.8492 59.5225 38.7725 59.3337 39.7168C60.2726 39.465 61.2116 39.2132 62.1452 38.9613C62.1138 38.7882 62.1033 38.6151 62.1295 38.4577C62.2764 36.9784 62.5701 35.5515 62.8324 34.1088C63.0055 33.3954 63.3726 31.1501 63.8919 29.8859C62.8848 30.1901 61.8725 30.4891 60.8654 30.7934ZM8.09126 31.9265C7.67687 32.1259 7.26773 32.3305 6.85335 32.5351C7.55623 32.8761 8.25912 33.2013 8.95676 33.5475C11.3224 34.7646 13.7825 35.7246 16.0223 37.3718C16.678 37.7705 16.9718 38.4787 16.9298 39.124C18.3146 38.4367 19.6941 37.7495 21.0789 37.0623C21.9234 36.6426 22.7732 36.2229 23.6177 35.798C19.6574 34.8538 15.8807 32.4144 12.1093 30.4105C11.9886 30.358 11.8942 30.2531 11.826 30.1272C10.5828 30.7304 9.33442 31.3232 8.09126 31.9265ZM66.6038 29.0885C66.4727 29.1252 66.3416 29.1619 66.2104 29.2039C66.6458 31.1134 65.6964 34.6282 65.3502 36.1128C65.1404 36.8892 64.983 37.5187 64.8046 38.2531C65.7383 38.0013 66.672 37.7548 67.6004 37.5082C67.5952 37.4925 67.59 37.4767 67.59 37.4558C67.2438 35.7928 67.7893 34.2557 68.2037 32.7974C68.6128 31.3757 68.9538 29.9278 69.321 28.4852C69.3105 28.4117 69.3105 28.3436 69.3157 28.2754C68.4135 28.5482 67.5113 28.8209 66.6038 29.0832V29.0885ZM20.6907 25.8255C19.2273 26.5389 17.7638 27.2524 16.2951 27.9606C16.2007 28.0026 16.1063 28.0498 16.0118 28.097C16.0328 28.1075 16.0486 28.1127 16.0695 28.118C18.2149 29.1252 20.3655 30.059 22.5371 30.9351C24.0845 31.6957 25.6634 32.2465 27.2633 32.6924C27.6252 32.8026 27.8665 33.2065 27.9556 33.6472C28.5221 33.3639 29.0939 33.0859 29.6604 32.7974C30.3633 32.4459 31.0714 32.0944 31.7795 31.7482C28.0606 30.72 24.6458 28.0026 21.1523 25.9619C21.0789 25.8884 21.0159 25.794 20.974 25.6891C20.8848 25.7363 20.7904 25.7783 20.7012 25.8255H20.6907ZM28.9313 21.7966C27.3787 22.5625 25.826 23.3284 24.2734 24.0839C24.3573 24.1258 24.4465 24.1625 24.5251 24.1993C25.8785 24.8078 27.216 25.4373 28.5798 25.9724C30.6465 26.8012 32.7185 27.5829 34.7852 28.3803C35.1314 28.5114 35.488 28.5901 35.7346 28.9836C35.8762 29.1881 35.9549 29.44 35.9759 29.6813C36.7837 29.2826 37.5862 28.8839 38.3993 28.4904C38.8189 28.2806 39.2385 28.076 39.6581 27.8662C38.0006 27.3888 36.4165 26.3186 34.8428 25.4163C33.285 24.535 31.7008 23.3652 30.1849 22.5048C29.9751 22.5048 29.7705 22.3055 29.6709 22.0222C29.6079 21.8438 29.5817 21.6497 29.5974 21.4714C29.3771 21.5763 29.1569 21.6864 28.9365 21.7966H28.9313ZM13.7039 29.2091C13.7353 29.2196 13.772 29.2301 13.7983 29.2406C13.793 29.2196 13.7825 29.1986 13.7773 29.1724C13.7511 29.1881 13.7248 29.1986 13.6986 29.2091H13.7039ZM32.8286 19.8766C33.0857 20.034 33.3322 20.1966 33.5367 20.3172C35.2835 21.3559 37.0722 22.2215 38.8609 23.0609C40.3191 23.7953 41.793 24.4353 43.246 25.1855C43.4873 25.3219 43.7181 25.495 43.865 25.7888C44.9036 25.2799 45.9369 24.7711 46.9702 24.2675C44.0538 23.3756 41.3629 21.3297 38.672 19.394C38.1894 19.0687 37.7016 18.7487 37.219 18.413C37.0459 18.3081 36.8938 18.1402 36.7994 17.9304C35.4776 18.5809 34.1505 19.2314 32.8234 19.8819L32.8286 19.8766ZM39.7421 16.4877C41.6776 17.5369 43.6289 18.5126 45.5488 19.63C47.1591 20.5953 48.8167 21.4346 50.4427 22.3265C50.4952 22.3789 50.5476 22.4314 50.5843 22.4943C51.7278 21.9278 52.8766 21.3665 54.0253 20.7999C51.2295 19.6615 48.5334 17.9933 45.9159 16.1677C45.3757 15.6694 44.1325 15.3074 43.9594 14.4208C42.5536 15.1133 41.1531 15.8005 39.7473 16.493L39.7421 16.4877ZM46.944 12.952C49.3622 14.3579 51.817 15.5697 54.2981 16.7133C55.5413 17.4372 56.9261 17.7625 58.1115 18.6281C58.143 18.6648 58.1745 18.712 58.2007 18.754C59.0662 18.329 59.9317 17.9041 60.7919 17.4792C57.7338 16.0733 54.8069 14.0694 52.1265 11.588C51.796 11.4621 51.5442 11.1369 51.4288 10.7539C49.9391 11.4883 48.4442 12.2228 46.9493 12.9572L46.944 12.952ZM54.1145 9.42145C53.8313 9.56309 53.5428 9.70473 53.2543 9.84112C54.3191 10.3867 55.3734 11.0057 56.412 11.6457C58.72 13.1198 61.0122 14.6936 63.4408 15.7218C63.5667 15.8005 63.6664 15.9054 63.7451 16.0261C63.9077 15.9474 64.0703 15.8687 64.2277 15.79C65.0407 15.3913 65.859 14.9874 66.672 14.5887C63.2677 13.1618 60.0418 10.7959 57.031 8.20439C56.989 8.15193 56.9575 8.09947 56.926 8.04177C55.9871 8.50341 55.0482 8.96506 54.1145 9.4267V9.42145ZM59.2183 6.91388C60.3828 7.53814 61.5263 8.32505 62.654 8.96506C64.2067 9.87785 65.7751 10.7015 67.3539 11.5093C67.7106 11.7192 68.1093 11.8136 68.4345 12.0916C69.022 12.2805 69.578 12.5585 69.9032 12.9992C70.4644 12.7212 71.0257 12.4484 71.5922 12.1703C71.4243 11.8136 71.3509 11.3624 71.2093 11.0057L71.1201 10.7434C71.0415 10.7224 70.9575 10.6805 70.8736 10.6228C68.8016 9.51062 66.7612 8.28308 64.7417 6.99258C64.2276 6.56766 63.0422 6.05357 62.5281 5.29815C61.4266 5.83848 60.3251 6.3788 59.2183 6.91913V6.91388ZM66.6668 3.26272C66.2996 3.44108 65.9377 3.61942 65.5705 3.79779C66.1265 4.07057 66.6773 4.37486 67.228 4.66863C67.8418 4.99388 68.4555 5.31387 69.0639 5.63912C68.7282 4.82075 68.1722 3.61419 68.0149 2.72763C67.9729 2.71713 67.9309 2.6909 67.8994 2.65943C67.4903 2.86402 67.0707 3.06859 66.6615 3.26794L66.6668 3.26272Z" fill="black"/>
<path d="M68.0147 2.72237C68.1721 3.61418 68.7281 4.82074 69.0638 5.63387C68.4553 5.30862 67.8416 4.99387 67.2279 4.66338C66.6771 4.36436 66.1263 4.06532 65.5703 3.79254C65.9375 3.61417 66.2994 3.43583 66.6666 3.25747C67.0758 3.05813 67.4954 2.85877 67.9045 2.65417C67.936 2.68565 67.9727 2.70664 68.0147 2.72237Z" fill="white"/>
<path d="M71.5868 12.1703C71.0256 12.4483 70.4643 12.7264 69.8978 12.9992C69.5726 12.5585 69.0166 12.2805 68.4291 12.0916C68.1039 11.8136 67.7052 11.7139 67.3485 11.5093C65.7749 10.7014 64.2013 9.8726 62.6486 8.96505C61.5156 8.32505 60.3774 7.53814 59.2129 6.91387C60.3144 6.37354 61.416 5.83322 62.5227 5.29289C63.0315 6.04831 64.2223 6.5624 64.7363 6.98732C66.7611 8.27782 68.7962 9.50536 70.8682 10.6175C70.9521 10.6805 71.036 10.7172 71.1147 10.7434C71.141 10.8273 71.1724 10.9218 71.2039 11.0057C71.3455 11.3624 71.4242 11.8136 71.5868 12.1756V12.1703Z" fill="white"/>
<path d="M66.6775 14.5887C65.8645 14.9874 65.0462 15.3913 64.2332 15.79L63.7506 16.0313C63.6719 15.9107 63.5722 15.8005 63.4463 15.727C61.0177 14.6988 58.7202 13.1251 56.4122 11.651C55.3736 11.011 54.3246 10.3919 53.2598 9.84637C53.5483 9.70473 53.8315 9.56309 54.12 9.4267C55.0589 8.96506 55.9979 8.50341 56.9316 8.04176C56.963 8.09947 56.9945 8.15717 57.0364 8.20439C60.0473 10.7959 63.2732 13.167 66.6775 14.5887Z" fill="white"/>
<path d="M60.7917 17.4792C59.9315 17.9041 59.066 18.329 58.2005 18.754C58.1743 18.712 58.1481 18.67 58.1113 18.6281C56.9259 17.7625 55.5463 17.432 54.2979 16.7133C51.8221 15.5697 49.362 14.3579 46.9438 12.952C48.4388 12.2175 49.9338 11.4831 51.4234 10.7487C51.5388 11.1369 51.7906 11.4621 52.1211 11.5828C54.8015 14.0694 57.7284 16.068 60.7865 17.474L60.7917 17.4792Z" fill="white"/>
<path d="M54.0254 20.7946C52.8767 21.3612 51.7279 21.9225 50.5844 22.4891C50.5425 22.4261 50.4953 22.3737 50.4428 22.3212C48.822 21.4294 47.1592 20.5901 45.5489 19.6248C43.6343 18.5074 41.6777 17.5316 39.7422 16.4825C41.148 15.79 42.5485 15.1028 43.9542 14.4156C44.1326 15.3021 45.3705 15.6641 45.9108 16.1625C48.5283 17.9881 51.2244 19.6563 54.0202 20.7946H54.0254Z" fill="white"/>
<path d="M46.9756 24.2674C45.937 24.7711 44.9037 25.2851 43.8703 25.794C43.7234 25.5002 43.4927 25.3219 43.2514 25.1855C41.7984 24.4353 40.3192 23.8006 38.8662 23.0661C37.0723 22.2268 35.2888 21.3612 33.5421 20.3225C33.3323 20.2018 33.091 20.0392 32.834 19.8819C34.1611 19.2314 35.4881 18.5808 36.81 17.9303C36.8992 18.1402 37.0513 18.3133 37.2296 18.413C37.7122 18.7487 38.2 19.0687 38.6826 19.3992C41.3735 21.3297 44.0591 23.3756 46.9808 24.2674H46.9756Z" fill="white"/>
<path d="M39.6582 27.8662C39.2386 28.076 38.819 28.2806 38.3993 28.4852C37.5915 28.8839 36.7837 29.2826 35.9759 29.6813C35.9602 29.44 35.8815 29.1881 35.7346 28.9836C35.4881 28.5901 35.1314 28.5114 34.7852 28.3803C32.7185 27.5829 30.6466 26.8012 28.5799 25.9724C27.2161 25.4321 25.8785 24.8025 24.5252 24.1993C24.4413 24.1573 24.3574 24.1206 24.2734 24.0786C25.8261 23.3232 27.3787 22.5573 28.9314 21.7914C29.1517 21.6812 29.372 21.571 29.5923 21.4661C29.5766 21.6445 29.6028 21.8386 29.6657 22.017C29.7706 22.3002 29.97 22.4996 30.1798 22.4996C31.6957 23.3599 33.2798 24.5298 34.8377 25.4111C36.4113 26.3081 37.9954 27.3783 39.6477 27.8609L39.6582 27.8662Z" fill="white"/>
<path d="M31.7742 31.7534C31.0713 32.0997 30.3632 32.4511 29.655 32.8026C29.0885 33.0859 28.5168 33.3692 27.9503 33.6472C27.8611 33.2065 27.6198 32.8026 27.2579 32.6924C25.658 32.2518 24.0844 31.7009 22.5318 30.9403C20.3654 30.059 18.2148 29.1252 16.0694 28.118C16.0484 28.1127 16.0327 28.1022 16.0117 28.097C16.1061 28.055 16.2005 28.0078 16.295 27.9606C17.7637 27.2524 19.2271 26.5389 20.6906 25.8307C20.785 25.7835 20.8742 25.7415 20.9634 25.6943C21.0106 25.7993 21.0735 25.8937 21.1417 25.9671C24.6352 28.0131 28.0499 30.7252 31.7689 31.7534H31.7742Z" fill="white"/>
<path d="M23.6179 35.8033C22.7733 36.223 21.9236 36.6426 21.0791 37.0676C19.6943 37.7548 18.3147 38.442 16.93 39.1292C16.9719 38.4787 16.6782 37.7757 16.0225 37.3718C13.7827 35.7246 11.3226 34.7593 8.95693 33.5475C8.25405 33.2013 7.55116 32.8761 6.85352 32.5351C7.2679 32.3357 7.68228 32.1311 8.09142 31.9318C9.33459 31.3285 10.583 30.7357 11.8262 30.1272C11.8943 30.2531 11.9835 30.358 12.1094 30.4105C15.8809 32.4144 19.6628 34.859 23.6179 35.798V35.8033Z" fill="white"/>
<path d="M12.5712 41.2905L12.482 41.3325C11.1024 42.0145 9.72291 42.7017 8.34337 43.3837C7.71392 43.6932 7.0897 44.0027 6.46025 44.3122C5.19611 41.4007 3.80085 38.5836 2.479 35.7089C2.90913 35.1947 3.31825 34.6597 3.70641 34.0669C3.80083 34.0197 3.89524 33.9777 3.98965 33.9305C4.08932 33.8833 4.18898 33.8308 4.28864 33.7836C3.54904 35.6931 9.82258 40.0525 12.5764 41.2853L12.5712 41.2905Z" fill="white"/>
<path d="M8.73638 49.3641C8.94095 50.5759 9.16126 51.7825 9.3973 52.9838C8.98292 53.0939 8.56328 53.2093 8.14364 53.3038C7.77646 51.09 7.40404 48.8762 7.02637 46.6624C7.06309 46.6624 7.09978 46.6519 7.1365 46.6414C7.47221 46.5785 7.80793 46.463 8.13314 46.3686C8.21707 46.3424 8.30623 46.3214 8.39016 46.2952C8.32722 47.2657 8.64196 48.3936 8.73638 49.3536V49.3641Z" fill="white"/>
<path d="M13.7144 44.7423C13.599 45.5817 13.6095 46.7043 13.4836 47.0873C13.3472 47.8584 12.7754 50.4761 12.8803 52.0762C12.6233 52.1444 12.3611 52.2126 12.104 52.2808C11.4746 52.4434 10.8451 52.6113 10.2209 52.7739C9.74882 50.6073 9.33444 48.4355 9.10889 46.2375C9.11938 46.1902 9.12463 46.143 9.11939 46.0906C9.14037 46.0801 9.16135 46.0748 9.18758 46.0696C9.93243 45.8492 10.6773 45.6342 11.4221 45.4138C12.188 45.1935 12.9485 44.9627 13.7144 44.7423Z" fill="white"/>
<path d="M23.6229 41.8361C23.6229 41.8361 23.6229 41.8518 23.6229 41.8623C23.3921 43.2 23.1613 44.5378 22.8938 45.8597C22.8151 46.7515 22.1804 48.404 22.2539 49.5948C20.4442 50.0775 18.6345 50.5601 16.8249 51.0375C16.5574 51.1109 16.2899 51.1844 16.0171 51.2526C16.0486 51.0795 16.08 50.9116 16.1115 50.7385C16.2951 50.387 16.3738 49.8939 16.4105 49.5057C16.5102 48.7135 16.5941 47.9109 16.6832 47.1135C16.699 46.9666 16.7147 46.825 16.7305 46.6781C16.7724 46.3056 16.8144 45.9332 16.8668 45.566C16.9245 44.9469 17.1868 44.3594 17.1763 43.7351C19.3322 43.1056 21.4828 42.4761 23.6334 41.8361H23.6229Z" fill="white"/>
<path d="M31.0451 39.6328C30.7409 41.1332 30.4471 42.6388 30.1639 44.1496C30.0747 45.0414 29.5606 46.4998 29.6498 47.6224C28.4853 47.9319 27.3208 48.2414 26.1564 48.5509C25.9203 48.6139 25.6843 48.6768 25.4482 48.7398C25.6581 47.6749 25.8154 46.5837 26.0515 45.5345C26.277 44.4276 26.4816 43.3155 26.7229 42.2138C26.8173 41.8414 26.7491 41.3325 26.5603 40.9653C28.0552 40.5194 29.5501 40.084 31.0398 39.6381L31.0451 39.6328Z" fill="white"/>
<path d="M38.4728 37.44C38.1843 38.9089 37.88 40.3778 37.5968 41.8519C37.3974 42.8801 37.2139 43.9187 37.0827 44.9732C37.0303 45.183 37.025 45.4243 37.0618 45.6552C36.511 45.8021 35.9602 45.9489 35.4042 46.0958C34.4653 46.3476 33.5263 46.5942 32.5874 46.8407C32.6399 46.6414 32.6818 46.4421 32.7133 46.2742C32.9808 45.2302 33.2011 44.1548 33.4582 43.1056C33.7257 42.0984 33.9722 41.0807 34.1925 40.0473C34.3131 39.6171 34.3603 39.1554 34.224 38.6885C35.6402 38.2689 37.0513 37.8545 38.4675 37.4295L38.4728 37.44Z" fill="white"/>
<path d="M45.4385 35.3731C45.407 35.5725 45.3808 35.777 45.3441 35.9344C45.1448 37.2302 44.893 38.505 44.6674 39.7902C44.5625 40.6558 43.8124 42.5863 43.9226 43.8348C42.543 44.202 41.1687 44.5693 39.7944 44.9365C40.3714 42.7227 40.9012 40.4617 41.0796 38.08C41.2264 37.6604 41.2579 37.1148 41.0271 36.6846C41.0691 36.6741 41.1111 36.6584 41.1583 36.6426C42.585 36.2177 44.0065 35.7928 45.4332 35.3731H45.4385Z" fill="white"/>
<path d="M49.6716 34.1193C50.3221 33.9252 50.9725 33.7311 51.6282 33.5423C51.6072 33.7416 51.5914 33.9357 51.5757 34.0931C51.4393 35.0951 51.2558 36.0813 51.0617 37.0623C50.962 38.059 50.0545 40.619 50.1594 42.1666C48.995 42.4814 47.8305 42.7961 46.666 43.1004C46.6818 43.0374 46.6975 42.9692 46.708 42.9115C47.0542 41.4112 47.3951 39.9161 47.6731 38.3843C47.8095 37.6184 47.8934 36.821 48.1662 36.1233C48.376 35.7141 48.4494 35.0374 48.2868 34.5233C48.7484 34.3869 49.21 34.2505 49.6716 34.1141V34.1193Z" fill="white"/>
<path d="M60.8657 30.7934C61.8728 30.4891 62.8851 30.1901 63.8922 29.8859C63.3677 31.1501 63.0005 33.3954 62.8327 34.1088C62.5757 35.5462 62.2767 36.9784 62.1298 38.4577C62.1036 38.6151 62.1088 38.7882 62.1455 38.9613C61.2066 39.2131 60.2677 39.4649 59.334 39.7168C59.5228 38.7672 59.7746 37.8439 59.9582 36.8944C60.2257 35.4413 60.6191 34.0459 60.8657 32.577C60.9496 32.0105 61.0125 31.3862 60.8657 30.7934Z" fill="white"/>
<path d="M69.3104 28.2806C69.3051 28.3436 69.3104 28.417 69.3156 28.4904C68.9484 29.9331 68.6075 31.381 68.1983 32.8026C67.7839 34.261 67.2437 35.798 67.5846 37.461C67.5846 37.482 67.5899 37.4925 67.5951 37.5135C66.6614 37.7548 65.7278 38.0066 64.7993 38.2584C64.9724 37.5239 65.135 36.8944 65.3448 36.118C65.691 34.6334 66.6457 31.1134 66.2051 29.2091C66.3362 29.1724 66.4674 29.1304 66.5985 29.0937C67.5007 28.8262 68.4081 28.5586 69.3104 28.2858V28.2806Z" fill="white"/>
<path d="M74.1047 26.7645C73.9053 26.6963 73.8214 26.3291 74.0784 26.2924C74.3092 26.3081 74.4246 26.8537 74.1047 26.7645Z" fill="black"/>
<path d="M74.2413 26.9954C74.1049 26.9481 74.0209 26.8747 73.9423 26.775C73.8636 26.6439 73.958 26.4026 74.1206 26.4393C74.3619 26.4865 74.4668 26.7855 74.3934 26.9954C74.3409 26.9954 74.2937 27.0006 74.2413 26.9901V26.9954Z" fill="black"/>
<path d="M73.2129 25.6052C73.1657 25.5579 73.1499 25.4793 73.1814 25.4163C73.2181 25.3481 73.2811 25.3271 73.3545 25.3061C73.4384 25.2799 73.5224 25.2642 73.601 25.2327C73.6955 25.1908 73.7899 25.1383 73.8895 25.1068C73.963 25.0858 74.0312 25.0701 74.1046 25.0491C74.1833 25.0281 74.262 25.0019 74.3407 24.9756C74.4036 24.9547 74.4718 24.9337 74.54 24.9179C74.5504 24.9127 74.5662 24.9075 74.5819 24.9022C74.5872 24.9022 74.5924 24.9022 74.6029 24.9022C74.6134 24.9022 74.6239 24.897 74.6396 24.897C74.7078 24.897 74.7655 24.9127 74.8127 24.9599C74.8757 25.0176 74.9071 25.1068 74.9124 25.1907C74.9124 25.2799 74.8914 25.3743 74.8337 25.4478C74.7918 25.5002 74.7288 25.5422 74.6606 25.5475C74.6606 25.5475 74.6501 25.5475 74.6449 25.5475C74.5767 25.558 74.5033 25.5684 74.4298 25.5737C74.3459 25.5789 74.262 25.5842 74.1833 25.5947C74.1098 25.6052 74.0417 25.6157 73.9682 25.6262C73.8686 25.6367 73.7689 25.6262 73.664 25.6209C73.5801 25.6209 73.5014 25.6419 73.4175 25.6471C73.3912 25.6471 73.3597 25.6576 73.3283 25.6576C73.2916 25.6576 73.2548 25.6524 73.2286 25.6209L73.2129 25.6052Z" fill="black"/>
<path d="M74.8024 28.6741C74.7552 28.6373 74.7185 28.5901 74.6923 28.5429C74.6451 28.4642 74.6346 28.3645 74.6188 28.2754C74.6031 28.1914 74.5978 28.1075 74.5873 28.0288C74.5664 27.7403 74.5664 27.4518 74.5559 27.1632C74.5506 26.8904 74.5401 26.6229 74.5454 26.3553C74.5454 26.0773 74.5716 25.8045 74.5873 25.5265C74.5873 25.4321 74.5873 25.3376 74.5873 25.2432C74.5873 25.1802 74.5926 25.1068 74.6346 25.0544C74.6818 24.9966 74.7605 24.9599 74.8234 25.0176C74.8759 25.0596 74.8916 25.1173 74.9073 25.1802C74.9283 25.2747 74.9388 25.3743 74.9545 25.474C74.9808 25.5999 75.0175 25.7258 75.0437 25.8517C75.0804 25.9986 75.1066 26.1455 75.1329 26.2976C75.1801 26.5599 75.2063 26.8327 75.243 27.095C75.2797 27.3678 75.3217 27.6354 75.3479 27.9081C75.3637 28.1127 75.3846 28.3488 75.3007 28.5377C75.243 28.6636 75.1224 28.7422 74.9913 28.7422C74.9231 28.7422 74.8601 28.7213 74.7972 28.6741H74.8024Z" fill="black"/>
<path d="M74.1521 26.6229C74.0682 26.1979 74.042 25.7415 74.0787 25.3061C74.1889 24.7658 74.7239 25.0386 74.6399 25.4898C75.0543 25.7625 74.6609 27.394 74.1521 26.6176V26.6229Z" fill="black"/>
<path d="M74.6606 31.4649C74.5767 31.0977 74.4928 30.7252 74.4351 30.4105C74.3826 30.1324 74.3354 29.8596 74.2882 29.5921C74.2882 29.5816 74.2882 29.5763 74.2882 29.5659C74.2882 29.5554 74.2882 29.5449 74.2882 29.5449C74.2043 29.099 74.1099 28.6531 74.0364 28.2072C73.9945 27.9606 73.9525 27.7141 73.921 27.4623C73.8896 27.2157 73.8738 26.9639 73.8581 26.7173C73.8476 26.6019 73.8319 26.4865 73.8161 26.3711C73.8057 26.2924 73.7846 26.2137 73.7899 26.135C73.7899 26.093 73.8056 26.0563 73.8266 26.0301C73.8948 25.9252 74.0312 25.9462 74.0889 26.0511C74.1151 26.1036 74.1256 26.1665 74.1414 26.2242C74.1676 26.3239 74.1885 26.4235 74.2148 26.5232C74.262 26.6544 74.3092 26.7908 74.3354 26.8852C74.5295 27.5094 74.6711 28.1495 74.797 28.7895C74.9229 29.4032 75.0698 30.017 75.1799 30.6255C75.2114 30.7829 75.2376 30.9403 75.2586 31.1029C75.2691 31.1659 75.2796 31.2288 75.2901 31.2865C75.3111 31.4701 75.2272 31.7062 75.0226 31.7429C75.0016 31.7429 74.9858 31.7482 74.9701 31.7482C74.8127 31.7482 74.7078 31.6118 74.6711 31.4649H74.6606Z" fill="black"/>
<path d="M74.2883 29.5921C74.3145 29.7442 74.3407 29.9016 74.3722 30.059C73.9001 31.5593 73.727 33.2485 73.428 34.838C73.3703 35.1948 73.2654 35.6302 73.3179 36.0131C72.9927 36.0971 72.6674 36.181 72.337 36.2649C71.6026 36.459 70.8683 36.6479 70.1392 36.842C70.3227 35.7823 70.5745 34.6806 70.7476 33.6157C70.9155 31.937 71.9646 29.4085 71.225 27.6983C71.7548 27.5357 72.2845 27.373 72.8091 27.2157C73.1553 27.1107 73.5067 27.0163 73.8529 26.9114C73.8686 27.095 73.8844 27.2786 73.9054 27.4622C73.9368 27.714 73.9788 27.9554 74.0207 28.2072C74.0994 28.6531 74.1886 29.099 74.2725 29.5449C74.2725 29.5449 74.2725 29.5553 74.2725 29.5658C74.2725 29.5763 74.2725 29.5868 74.2778 29.5921H74.2883Z" fill="white"/>
<path d="M14.6953 88.1735C14.197 88.3099 13.6987 88.4411 13.2004 88.5932C13.3787 88.0004 13.321 87.1925 13.1636 86.5735C11.7841 76.0816 10.179 65.6159 8.4585 55.166C8.87288 55.0401 9.29777 54.93 9.71216 54.8198C9.72789 54.8198 9.74361 54.8093 9.75935 54.8041C10.5462 58.6913 11.3854 62.568 11.931 66.4973C13.0797 73.6999 13.7144 80.9499 14.6953 88.1735Z" fill="white"/>
<path d="M20.1189 56.0684C20.1609 56.3202 20.035 56.5458 19.8409 56.5772C19.4423 56.6454 19.0436 56.7241 18.6397 56.7818C18.4247 56.8133 18.2096 56.8447 17.9945 56.8605C17.7427 56.8815 17.4962 56.892 17.2549 56.9339C17.2235 56.9392 17.2025 56.9497 17.171 56.9602C17.1553 56.9707 17.1395 56.9812 17.1238 56.9864C17.1238 56.9864 17.1133 56.9969 17.108 56.9969C17.1028 57.0074 17.0976 57.0179 17.0871 57.0231C17.0871 57.0231 17.0871 57.0284 17.0871 57.0336C16.9769 57.212 16.8615 57.3641 16.7146 57.49C16.5678 57.6212 16.4157 57.7366 16.2478 57.8205C15.8964 58.0094 15.482 58.0041 15.0886 57.9831C14.6847 57.9621 14.2703 57.9307 13.8716 57.9464C13.8454 57.9464 13.8192 57.9464 13.7982 57.9517C13.8402 58.1248 13.8034 58.3241 13.7038 58.4291C13.6408 58.492 13.5726 58.5235 13.4992 58.5235C13.389 58.5235 13.2737 58.4553 13.195 58.3346C13.1006 58.2087 13.0061 58.088 12.9432 57.9359C12.875 57.7523 12.8855 57.511 12.9694 57.3589C13.0639 57.1753 13.2422 57.0913 13.41 57.0441C13.6041 56.9917 13.8087 56.9864 14.008 56.9864H14.0919C14.543 56.9864 15.0047 57.0494 15.4558 57.0336H15.461C15.461 57.0336 15.482 57.0336 15.4925 57.0336H15.4715C15.5764 57.0284 15.6708 57.0179 15.7705 57.0021C15.8019 56.9916 15.8387 56.9812 15.8701 56.9654C15.9331 56.9392 15.9908 56.913 16.0485 56.8815C16.1429 56.8185 16.2321 56.7556 16.3212 56.6769C16.3632 56.6349 16.4052 56.5877 16.4471 56.5405C16.4681 56.5142 16.4839 56.4881 16.4996 56.4618C16.552 56.3674 16.615 56.2782 16.6884 56.21C16.7776 56.1365 16.8773 56.0894 16.9822 56.0474C17.0976 56.0054 17.2287 55.9897 17.3493 55.9792C17.4333 55.9687 17.5172 55.9634 17.6064 55.9582C17.8162 55.9424 18.026 55.932 18.2358 55.9057C18.7289 55.8323 19.222 55.7379 19.715 55.6539C19.9039 55.6225 20.1032 55.8218 20.1399 56.0684H20.1189Z" fill="white"/>
<path d="M72.7884 46.1116C72.8461 46.3686 72.7359 46.6571 72.5314 46.6991C72.0698 46.7883 71.6082 46.8827 71.1413 46.9719H71.1308C68.5186 47.465 65.8959 47.9476 63.2732 48.4093C62.0615 48.6244 60.8551 48.8709 59.6486 49.1017C58.4737 49.3273 57.3092 49.5949 56.1395 49.8414C55.0327 50.0827 53.9311 50.3398 52.8296 50.5968C51.7595 50.8486 50.6842 51.1004 49.6142 51.368C48.4235 51.667 47.2328 51.9608 46.0421 52.2598C44.631 52.6218 43.22 52.989 41.809 53.3509C40.5973 53.6657 39.3909 54.0067 38.1844 54.3319C37.0566 54.6362 35.9341 54.9562 34.8064 55.2657C33.6419 55.591 32.4669 55.9004 31.3024 56.2047C30.8618 56.3201 30.4212 56.446 29.9754 56.551C29.199 56.7398 28.4175 56.9287 27.6411 57.1176C26.613 57.3694 25.5849 57.6054 24.5516 57.8414C24.1529 57.9359 23.7596 58.0303 23.3609 58.1247C23.1196 58.1772 22.8731 58.2297 22.6318 58.2926C22.3013 58.3766 21.9709 58.4605 21.6456 58.5444C21.3834 58.6126 21.1159 58.6703 20.8536 58.7438C20.3605 58.8907 19.8674 59.0375 19.3744 59.1844C19.1541 59.2474 18.9338 59.3313 18.7187 59.4048C18.4092 59.5045 18.105 59.6041 17.8007 59.709C17.7798 59.7195 17.7483 59.7248 17.7221 59.7248C17.5542 59.7248 17.3759 59.5464 17.3234 59.3261C17.2605 59.0533 17.3811 58.8172 17.5752 58.749C18.7764 58.3346 19.9828 57.9464 21.2103 57.6317C21.7873 57.4848 22.359 57.3378 22.936 57.2015C23.5078 57.0651 24.0848 56.9339 24.6565 56.8028C25.9154 56.509 27.1796 56.2152 28.4385 55.911C28.963 55.7851 29.4928 55.6644 30.0121 55.5333C30.7359 55.3444 31.4546 55.1555 32.1732 54.9667C34.4497 54.3686 36.7104 53.7287 38.9712 53.1097C41.3159 52.4697 43.6606 51.8453 46.0158 51.2316C47.4059 50.8696 48.7959 50.5129 50.1912 50.1614C51.3556 49.8571 52.5254 49.5843 53.6898 49.3011C54.8019 49.0283 55.9192 48.7765 57.0312 48.5299C57.6292 48.3935 58.2271 48.2571 58.8251 48.126C59.3706 48.0106 59.9162 47.9162 60.4617 47.806C61.1751 47.6643 61.8937 47.528 62.6123 47.3863C63.0949 47.2919 63.5774 47.2132 64.06 47.1293C65.3451 46.9037 66.6355 46.6781 67.9259 46.4525C68.954 46.2742 69.9821 46.0958 71.0102 45.9332C71.4613 45.8492 71.9124 45.7863 72.3635 45.7129C72.374 45.7129 72.3897 45.7129 72.4002 45.7129C72.5733 45.7129 72.7464 45.9017 72.7936 46.1168L72.7884 46.1116Z" fill="white"/>
<path d="M20.4392 66.2507C20.4601 66.5026 20.3185 66.7124 20.1244 66.7124C19.8936 66.7124 19.6576 66.7124 19.4268 66.6704C19.3114 66.6495 19.1907 66.6179 19.0806 66.5655C18.9757 66.513 18.8813 66.4448 18.7816 66.3714H18.7711C18.6085 66.4186 18.4459 66.4816 18.2885 66.5288C18.1312 66.5865 17.9686 66.6337 17.806 66.6809C17.4965 66.7754 17.1765 66.854 16.8618 66.9275C16.5785 66.9904 16.2953 67.0377 16.0015 67.0691C15.6868 67.1059 15.3721 67.1426 15.0521 67.1426C14.8475 67.1426 14.6587 66.9275 14.6377 66.6599C14.6168 66.3976 14.7636 66.1669 14.9682 66.1669C15.1256 66.1669 15.2777 66.1563 15.435 66.1459H15.4455C15.4455 66.1459 15.4612 66.1459 15.4665 66.1459C15.8022 66.1091 16.1379 66.0672 16.4684 66.0147C16.652 65.9832 16.8355 65.936 17.0139 65.8993C17.1713 65.8626 17.3286 65.8154 17.486 65.7734C17.7063 65.7157 17.9214 65.6475 18.1364 65.5845C18.2518 65.5478 18.3672 65.5111 18.4826 65.4744C18.5928 65.4376 18.7134 65.4114 18.8288 65.4429C18.939 65.4744 19.0386 65.5373 19.1331 65.616C19.1645 65.6422 19.2065 65.6685 19.2379 65.6895C19.2537 65.7 19.2694 65.7052 19.2852 65.7104C19.3166 65.7209 19.3481 65.7314 19.3743 65.7419H19.3848H19.3953C19.4635 65.7524 19.5264 65.7682 19.5946 65.7734C19.7363 65.7839 19.8831 65.7838 20.0248 65.7838C20.2188 65.7838 20.3972 65.9884 20.4182 66.2402L20.4392 66.2507Z" fill="white"/>
<path d="M73.7954 55.2972C73.8531 55.6015 73.7115 55.8953 73.4807 55.9372C70.4436 56.5563 67.4013 57.1753 64.3694 57.8048C63.782 57.9307 63.1944 58.0513 62.607 58.172C62.287 58.2349 61.9618 58.3136 61.6418 58.3871C60.897 58.5549 60.1574 58.7176 59.4125 58.8802C59.4073 58.8802 59.3968 58.8802 59.3916 58.8855C59.3863 58.8855 59.381 58.8855 59.3706 58.8855C59.3496 58.8855 59.3286 58.8959 59.3129 58.8959C59.2814 58.8959 59.2552 58.9064 59.229 58.9169C58.5995 59.0585 57.9753 59.2107 57.3406 59.3366H57.3301C57.3301 59.3366 57.3301 59.3366 57.3196 59.3366C57.3144 59.3366 57.3091 59.3366 57.2986 59.3366C57.2986 59.3366 57.2934 59.3366 57.2881 59.3366C57.2776 59.3366 57.2672 59.3366 57.2567 59.3419H57.2514C57.2409 59.3419 57.2304 59.3419 57.2199 59.3471C57.1937 59.3576 57.1727 59.3628 57.1465 59.368C57.1255 59.368 57.1045 59.3786 57.0836 59.3786C56.045 59.6251 55.0011 59.8612 53.9573 60.1025C53.1967 60.2809 52.4361 60.4645 51.6755 60.6323C51.6703 60.6323 51.6651 60.6323 51.6546 60.6323C50.6684 60.8841 49.6718 61.1202 48.6804 61.3668C48.0405 61.5294 47.4005 61.6867 46.7553 61.8441C46.4669 61.9176 46.1784 61.991 45.8846 62.0592C45.8741 62.0592 45.8584 62.0645 45.8427 62.0697C45.8479 62.0697 45.8531 62.0697 45.8584 62.0645C44.8617 62.3373 43.8651 62.5996 42.8737 62.8671C42.879 62.8671 42.8895 62.8671 42.8947 62.8566C42.8056 62.8828 42.7164 62.9038 42.6272 62.9301C42.5748 62.9458 42.5223 62.9615 42.4699 62.972C42.281 63.0192 42.0974 63.0717 41.9086 63.1189C41.9243 63.1189 41.94 63.1084 41.9558 63.1032C41.8299 63.1346 41.7145 63.1661 41.5886 63.2029C41.5886 63.2029 41.5886 63.2029 41.5834 63.2029C41.5834 63.2029 41.5834 63.2029 41.5729 63.2029C41.5204 63.2238 41.4627 63.2396 41.405 63.2501C41.3368 63.271 41.2687 63.2868 41.1952 63.3025H41.1742C41.1323 63.3182 41.0903 63.3288 41.0536 63.3393C40.9959 63.355 40.9434 63.3707 40.8857 63.3865C40.8228 63.4074 40.7651 63.4179 40.7074 63.4337C40.7074 63.4337 40.6969 63.4337 40.6917 63.4337H40.6707C40.6707 63.4337 40.6235 63.4547 40.6025 63.4547H40.592C40.5658 63.4599 40.5395 63.4652 40.5185 63.4757C40.5081 63.4757 40.4976 63.4809 40.4871 63.4861H40.4766C40.4714 63.4861 40.4661 63.4861 40.4556 63.4861C40.4556 63.4861 40.4503 63.4861 40.4451 63.4861C40.4346 63.4861 40.4189 63.4914 40.4084 63.4966C40.4084 63.4966 40.3979 63.4966 40.3927 63.4966C40.3927 63.4966 40.3927 63.4966 40.3874 63.4966C40.3874 63.4966 40.3874 63.4966 40.3822 63.4966C40.3717 63.4966 40.356 63.5071 40.3402 63.5071C40.3402 63.5071 40.3402 63.5071 40.335 63.5071C40.314 63.5124 40.2982 63.5176 40.2825 63.5229C40.2825 63.5229 40.2773 63.5229 40.272 63.5229C40.272 63.5229 40.2668 63.5229 40.2615 63.5229C40.251 63.5229 40.2405 63.5229 40.2248 63.5334C40.2248 63.5334 40.2353 63.5334 40.2406 63.5334C40.1881 63.5491 40.1409 63.5596 40.0937 63.5753C40.0937 63.5753 40.0727 63.5753 40.0622 63.5806C39.9311 63.612 39.7999 63.6487 39.6688 63.6854C39.6268 63.6959 39.5849 63.7065 39.5429 63.7222C39.4275 63.7537 39.3121 63.7851 39.1915 63.8166C39.1233 63.8376 39.0551 63.8534 38.9869 63.8691C38.027 64.1314 37.0671 64.3832 36.1124 64.6402C35.9288 64.6927 35.7452 64.7399 35.5564 64.7871C35.5459 64.7871 35.5302 64.7923 35.5144 64.7976H35.5092C35.5092 64.7976 35.4987 64.7976 35.4935 64.7976C35.4935 64.7976 35.4935 64.7976 35.4882 64.7976C35.483 64.7976 35.4725 64.7976 35.4672 64.7976C35.462 64.7976 35.4567 64.7976 35.4462 64.8028C34.7434 64.9969 34.03 65.1753 33.3219 65.3589C32.5718 65.5583 31.8269 65.7681 31.0768 65.957C31.0663 65.957 31.0558 65.9675 31.0453 65.9675C31.0139 65.978 30.9824 65.9832 30.9509 65.9937C29.755 66.3189 28.559 66.6442 27.3683 66.9642C27.3735 66.9642 27.3841 66.9642 27.3893 66.9642C27.3473 66.9747 27.3054 66.9852 27.2634 66.9957C26.7074 67.1478 26.1514 67.2894 25.5953 67.4311C25.0708 67.5675 24.5463 67.7196 24.0113 67.835C23.2769 67.9976 22.5425 68.155 21.8082 68.3124C21.6036 68.3544 21.399 68.3806 21.1892 68.412C20.8011 68.4698 20.4181 68.5327 20.03 68.5905C19.8307 68.6219 19.6208 68.6376 19.4215 68.6638C19.0963 68.7006 18.7763 68.7373 18.4564 68.7635C18.3619 68.774 18.2675 68.7845 18.1731 68.795C18.1259 68.8265 18.0682 68.8475 18.0158 68.8475C17.9528 68.8475 17.8898 68.8265 17.8269 68.7846C17.7744 68.7531 17.7377 68.7059 17.701 68.6534C17.6066 68.5275 17.5646 68.3176 17.6066 68.1655C17.6695 67.9137 17.8426 67.8402 18.0367 67.8245H18.0158C18.1836 67.8035 18.3514 67.793 18.5193 67.7721C19.1068 67.7144 19.6995 67.6514 20.2818 67.5622C20.6804 67.4993 21.0738 67.4416 21.4725 67.3839C21.6508 67.3576 21.8239 67.3157 21.997 67.279C22.4271 67.1845 22.852 67.0954 23.2821 67.0062C23.5182 66.9537 23.7595 66.917 23.9955 66.854C24.6512 66.6809 25.3069 66.513 25.9678 66.3452C26.335 66.2507 26.7074 66.1563 27.0746 66.0566C27.1113 66.0461 27.1428 66.0357 27.1795 66.0304C28.3754 65.6999 29.5609 65.3799 30.7516 65.0599C30.7516 65.0599 30.7674 65.0599 30.7726 65.0546C30.7726 65.0546 30.8146 65.0442 30.8355 65.0337C32.299 64.6298 33.7677 64.2416 35.2312 63.8586C35.2312 63.8586 35.2312 63.8586 35.2364 63.8586C35.2469 63.8586 35.2574 63.8533 35.2679 63.8481H35.2574C35.2574 63.8481 35.2889 63.8376 35.3099 63.8376C35.3466 63.8324 35.3833 63.8219 35.4148 63.8062C36.9779 63.3812 38.5358 62.951 40.0989 62.5314C40.1147 62.5314 40.1304 62.5209 40.1409 62.5209H40.1514C40.1514 62.5209 40.1514 62.5209 40.1566 62.5209H40.1671C40.1671 62.5209 40.1724 62.5209 40.1776 62.5209C40.1776 62.5209 40.1776 62.5209 40.1828 62.5209C40.1828 62.5209 40.1881 62.5209 40.1933 62.5209C40.2038 62.5209 40.2143 62.5156 40.2248 62.5104C41.6673 62.1012 43.1098 61.7182 44.5575 61.3195C45.5017 61.0625 46.4459 60.816 47.3901 60.5746C48.03 60.4173 48.6594 60.2546 49.2994 60.092C49.3833 60.071 49.4672 60.05 49.5564 60.0238C49.5564 60.0238 49.5564 60.0238 49.5616 60.0238C49.5721 60.0238 49.5879 60.0185 49.6036 60.0133C49.6036 60.0133 49.6036 60.0133 49.6089 60.0133C49.6351 60.008 49.6665 60.0028 49.6928 59.9923C49.6928 59.9923 49.698 59.9923 49.7033 59.9923C49.7033 59.9923 49.7033 59.9923 49.7085 59.9923C49.7557 59.9819 49.8082 59.9713 49.8554 59.9556C49.8659 59.9556 49.8711 59.9556 49.8764 59.9556C49.9341 59.9399 49.9918 59.9241 50.0442 59.9136C50.0862 59.9032 50.1334 59.8926 50.1806 59.8769C50.6003 59.772 51.0199 59.6566 51.4395 59.5516C51.7647 59.4572 52.1057 59.3943 52.4414 59.3104C53.2282 59.1215 54.0098 58.9327 54.7913 58.7491C54.8385 58.7386 54.8857 58.728 54.9277 58.7176C54.9277 58.7176 54.9329 58.7176 54.9382 58.7176C54.9382 58.7176 54.9487 58.7176 54.9539 58.7176C54.9906 58.7071 55.0274 58.7018 55.0588 58.6966C55.0379 58.6966 55.0221 58.7018 55.0064 58.7071C55.1113 58.6861 55.2162 58.6598 55.3211 58.6336C55.9138 58.492 56.5066 58.3451 57.0941 58.2087C57.0941 58.2087 57.094 58.2087 57.0993 58.2087C57.0993 58.2087 57.115 58.2087 57.1203 58.2035H57.1255C57.1255 58.2035 57.136 58.2035 57.1413 58.2035C57.3091 58.1667 57.4822 58.1248 57.6553 58.0881C57.6553 58.0881 57.6605 58.0881 57.6658 58.0881C57.6658 58.0881 57.7078 58.0776 57.7287 58.0723C57.7812 58.0566 57.8284 58.0461 57.8809 58.0356C58.8618 57.81 59.8427 57.5897 60.8288 57.3641C61.3586 57.2435 61.8936 57.1123 62.4286 57.0021C63.8187 56.6926 65.2087 56.4146 66.604 56.1208C67.7842 55.8743 68.9644 55.6435 70.1446 55.4127C71.1832 55.2081 72.2166 55.0087 73.2499 54.8094C73.4807 54.7674 73.722 54.9772 73.785 55.2815L73.7954 55.2972Z" fill="white"/>
<path d="M23.7593 73.1807C23.8695 73.3748 23.8485 73.6476 23.7069 73.7682C23.3502 74.062 22.9935 74.3453 22.6263 74.6233C22.2906 74.8804 21.9444 75.1059 21.5667 75.2633C21.3359 75.363 21.0894 75.4101 20.8376 75.4311C20.6173 75.4469 20.3813 75.3996 20.1557 75.3524C20.1557 75.3524 20.1505 75.3524 20.1453 75.3524C20.0718 75.3419 19.9984 75.3262 19.9249 75.3157C19.9144 75.3157 19.9039 75.3157 19.8935 75.3157C19.8777 75.3157 19.862 75.321 19.8463 75.3262C19.6364 75.3944 19.4371 75.4994 19.243 75.5885C19.0752 75.662 18.9073 75.7354 18.7395 75.8141C18.6136 75.8665 18.4877 75.919 18.3618 75.9715C18.1782 76.0397 17.9789 76.1131 17.7848 76.1131C17.7586 76.1131 17.7324 76.1131 17.7061 76.1131C17.5593 76.0974 17.3862 76.0397 17.2865 75.8613C17.2236 75.7459 17.2026 75.62 17.2078 75.4836C17.2078 75.2842 17.3232 75.1216 17.4806 75.1216C17.4911 75.1216 17.5016 75.1216 17.512 75.1216C17.6065 75.1321 17.6956 75.2056 17.7586 75.3052C17.832 75.2947 17.9055 75.2738 17.9789 75.2528C18.3356 75.1269 18.6713 74.959 19.0175 74.8016C19.1643 74.7334 19.3112 74.6652 19.4633 74.597C19.6259 74.5236 19.7885 74.4868 19.9669 74.4973C20.0823 74.5026 20.1977 74.5394 20.3131 74.5604C20.418 74.5813 20.5229 74.5918 20.6226 74.597C20.7065 74.597 20.7852 74.597 20.8639 74.5865H20.8743C20.9635 74.5761 21.0527 74.5551 21.1419 74.5288C21.2573 74.4921 21.3727 74.4449 21.4828 74.3924C21.7084 74.277 21.9129 74.1354 22.1227 73.9832C22.5214 73.679 22.9096 73.3695 23.2925 73.0443C23.4341 72.9236 23.6439 72.9813 23.7541 73.1807H23.7593Z" fill="white"/>
<path d="M72.3946 65.4796C72.4523 65.7314 72.3369 65.9675 72.1481 66.0147C71.3927 66.2193 70.6322 66.4238 69.8716 66.6284C69.5464 66.7124 69.2107 66.8015 68.8855 66.8907C68.7333 66.9379 68.5812 66.98 68.4239 67.0167C68.4186 67.0167 68.4134 67.0167 68.4081 67.0167C67.8521 67.1636 67.2961 67.2999 66.7401 67.4468C66.3624 67.5412 65.9847 67.6357 65.6123 67.7354C65.4445 67.7826 65.2766 67.8298 65.1035 67.8718H65.0983H65.093C65.093 67.8718 65.0721 67.8717 65.0616 67.877H65.0668C65.0668 67.877 65.0616 67.877 65.0563 67.877C64.28 68.0606 63.4984 68.2494 62.7168 68.4331C62.0926 68.5852 61.4684 68.7426 60.839 68.8842H60.8442C60.6134 68.9367 60.3931 68.9839 60.1623 69.0364C59.6116 69.1623 59.0556 69.2829 58.5048 69.4088C57.9488 69.5347 57.398 69.6553 56.8472 69.7812C56.5797 69.8442 56.3122 69.9124 56.0394 69.9596C55.7929 70.0278 55.5464 70.0803 55.2946 70.138C54.7124 70.2796 54.1301 70.416 53.5479 70.5524C52.9499 70.6993 52.3467 70.8409 51.7487 70.9826C51.4602 71.056 51.1717 71.1295 50.8779 71.1924C50.6157 71.2711 50.3482 71.3341 50.0807 71.4023C49.4827 71.5649 48.8847 71.7275 48.2867 71.8849C47.6782 72.0475 47.075 72.2101 46.4666 72.3728C46.1938 72.4462 45.9211 72.5249 45.6483 72.5931C45.6483 72.5931 45.6221 72.5983 45.6116 72.6036C45.6116 72.6036 45.6063 72.6036 45.6011 72.6036C45.6011 72.6036 45.6011 72.6036 45.5906 72.6036C45.5854 72.6036 45.5748 72.6036 45.5696 72.6088C45.5696 72.6088 45.5591 72.6141 45.5539 72.6141C45.5539 72.6141 45.5486 72.6141 45.5434 72.6141C45.5119 72.6245 45.4804 72.6298 45.449 72.6403L45.407 72.6508C45.407 72.6508 45.407 72.6508 45.4017 72.6508C45.4017 72.6508 45.3965 72.6508 45.3913 72.6508C45.3913 72.6508 45.3545 72.6613 45.3388 72.6613C45.3388 72.6613 45.3231 72.6613 45.3126 72.6718H45.3021C45.3021 72.6718 45.3021 72.6718 45.2968 72.6718C45.2863 72.6718 45.2758 72.677 45.2654 72.6823C45.2654 72.6823 45.2654 72.6823 45.2601 72.6823C45.2234 72.6927 45.1814 72.7033 45.1447 72.7138C45.1552 72.7138 45.1657 72.7085 45.1762 72.7033C45.129 72.719 45.0818 72.7295 45.0346 72.7452C45.0346 72.7452 45.0346 72.7452 45.0293 72.7452C45.0241 72.7452 45.0136 72.7452 45.0083 72.7505C44.9978 72.7505 44.9873 72.7557 44.9716 72.761H44.9611C44.9559 72.761 44.9506 72.761 44.9401 72.761C44.9401 72.761 44.9087 72.7715 44.8877 72.782H44.8824C44.8824 72.782 44.8824 72.782 44.8719 72.782C44.83 72.7925 44.7933 72.8029 44.7513 72.8134C44.767 72.8134 44.7828 72.8081 44.7985 72.8029C44.6726 72.8344 44.552 72.8711 44.4261 72.9079C44.4156 72.9079 44.3999 72.9131 44.3894 72.9184C44.3369 72.9341 44.2845 72.9498 44.232 72.9656C44.1901 72.976 44.1481 72.9918 44.1009 73.0023C44.0379 73.0232 43.975 73.039 43.9121 73.0547C43.8596 73.0704 43.8019 73.0862 43.7495 73.102C43.7127 73.1124 43.676 73.1229 43.6393 73.1334C43.6288 73.1334 43.6131 73.1439 43.6026 73.1439C43.5449 73.1649 43.4819 73.1754 43.4242 73.1963C43.4242 73.1963 43.4242 73.1963 43.419 73.1963C43.398 73.1963 43.3823 73.2069 43.3665 73.2121C43.3036 73.2331 43.2354 73.2488 43.1672 73.2645C43.0938 73.2855 43.0098 73.3118 42.9364 73.3327C42.9154 73.338 42.8944 73.3433 42.8734 73.3538C42.7948 73.3747 42.7161 73.3957 42.6322 73.4167C42.6374 73.4167 42.6427 73.4167 42.6479 73.4167C42.6164 73.4272 42.5797 73.4377 42.543 73.4481C42.543 73.4481 42.543 73.4481 42.5325 73.4481C42.4486 73.4691 42.3646 73.4954 42.286 73.5216H42.2965C42.2178 73.5373 42.1391 73.5636 42.0604 73.5845C42.0604 73.5845 42.0604 73.5845 42.0657 73.5845H42.0447C42.0447 73.5845 42.0289 73.595 42.0184 73.595C41.9922 73.6055 41.9608 73.6108 41.9345 73.616C41.924 73.616 41.9188 73.6161 41.9083 73.6266H41.8821C41.8821 73.6266 41.8559 73.6371 41.8454 73.6423C41.7772 73.6633 41.709 73.679 41.6408 73.7C41.5988 73.7105 41.5516 73.7262 41.5044 73.7367C41.4729 73.7472 41.4415 73.7525 41.41 73.7629C41.3838 73.7734 41.3523 73.7786 41.3208 73.7891C41.3051 73.7891 41.2841 73.7996 41.2684 73.8049C41.2421 73.8154 41.2107 73.8207 41.1792 73.8312C41.153 73.8364 41.1267 73.8468 41.1057 73.8521C41.1057 73.8521 41.1005 73.8521 41.0953 73.8521C41.0953 73.8521 41.0638 73.8626 41.0533 73.8626C41.0113 73.8783 40.9694 73.8889 40.9274 73.9046C40.9274 73.9046 40.9117 73.9046 40.9064 73.9046C40.9064 73.9046 40.9012 73.9046 40.8959 73.9046C40.8855 73.9046 40.875 73.915 40.8645 73.915C40.8487 73.915 40.8382 73.9203 40.8225 73.9255C40.8225 73.9255 40.7963 73.9256 40.7858 73.936C40.7858 73.936 40.7805 73.936 40.7753 73.936C40.77 73.936 40.7596 73.9361 40.7543 73.9465C40.7438 73.9465 40.7333 73.9518 40.7281 73.957C40.7281 73.957 40.7281 73.957 40.7228 73.957H40.7176C40.7176 73.957 40.6914 73.9675 40.6756 73.9675C40.6756 73.9675 40.6704 73.9675 40.6651 73.9675C40.6651 73.9675 40.6651 73.9675 40.6599 73.9675C40.6599 73.9675 40.6494 73.9675 40.6441 73.9675C40.6441 73.9675 40.6389 73.9675 40.6337 73.9675C40.6337 73.9675 40.6284 73.9675 40.6232 73.9675C39.1754 74.3767 37.7172 74.7754 36.2642 75.1741C36.2538 75.1741 36.238 75.1793 36.2275 75.1846C36.1226 75.2161 36.0177 75.2371 35.9076 75.2633C35.5771 75.3472 35.2466 75.4311 34.9214 75.5098C34.1923 75.6934 33.4632 75.8771 32.7341 76.0554C32.3774 76.1446 32.0207 76.2233 31.6588 76.2967C30.9349 76.4541 30.211 76.6062 29.4819 76.7636C29.0203 76.8633 28.5483 76.9315 28.0814 77.0154C27.5883 77.0993 27.0953 77.199 26.597 77.2672C26.02 77.3511 25.4377 77.4456 24.8607 77.519C24.289 77.5924 23.7172 77.6764 23.1507 77.7288C22.8307 77.7603 22.516 77.7918 22.2013 77.8233C22.1961 77.8233 22.1908 77.8233 22.1803 77.8233H22.1698C21.918 77.8495 21.6663 77.8653 21.4145 77.881C21.4092 77.881 21.404 77.881 21.3935 77.881C21.2152 77.881 21.0578 77.6712 21.0368 77.4456C21.0158 77.1991 21.1522 77.0206 21.3358 77.0049C21.5718 76.9839 21.8026 76.963 22.0387 76.9525C22.0492 76.9525 22.0544 76.9525 22.0597 76.9525H22.0702C22.0702 76.9525 22.0754 76.9525 22.0807 76.9525C22.4478 76.9105 22.8203 76.879 23.1927 76.8423C24.3467 76.7059 25.5007 76.5275 26.6494 76.3492C27.2159 76.2652 27.7824 76.1446 28.3489 76.0397C28.758 75.9662 29.1672 75.8876 29.5763 75.7984C30.2792 75.6462 30.9821 75.4889 31.685 75.3367C31.9945 75.2685 32.304 75.2003 32.6082 75.1164C33.7465 74.8226 34.8952 74.5445 36.0334 74.235H36.0439C36.0649 74.2298 36.0911 74.2246 36.1174 74.2141C36.1751 74.1931 36.2328 74.1774 36.2852 74.1616C36.3586 74.1407 36.4373 74.1197 36.5108 74.0987C36.5632 74.083 36.6052 74.0724 36.6524 74.0619C36.6629 74.0619 36.6734 74.0619 36.6786 74.0514C36.6786 74.0514 36.6839 74.0514 36.6891 74.0514C37.2032 73.9046 37.7172 73.7577 38.2313 73.6108C38.525 73.5269 38.824 73.4429 39.1177 73.359C39.5426 73.2383 39.9622 73.1177 40.3871 72.997C40.3871 72.997 40.3871 72.997 40.3819 72.997C40.3871 72.997 40.3976 72.997 40.4029 72.9917C40.4029 72.9917 40.4134 72.9917 40.4186 72.9917H40.4291H40.4343C41.2264 72.7609 42.0184 72.5301 42.8053 72.2993C43.6498 72.058 44.489 71.8009 45.3335 71.5649C45.344 71.5649 45.3545 71.5596 45.365 71.5544C45.3703 71.5544 45.3755 71.5544 45.3808 71.5544H45.386C45.386 71.5544 45.386 71.5544 45.3913 71.5544C45.3965 71.5544 45.3965 71.5544 45.4017 71.5544C45.4332 71.5439 45.4595 71.5387 45.4857 71.5282C46.6082 71.2134 47.7307 70.9039 48.848 70.5944C49.0158 70.5472 49.1837 70.4999 49.3463 70.458H49.3568C49.362 70.458 49.3673 70.458 49.3778 70.4527H49.3883C49.4407 70.437 49.4932 70.4213 49.5456 70.4108C49.5614 70.4108 49.5771 70.4055 49.5876 70.4003C49.6505 70.3793 49.7135 70.3583 49.7817 70.3426C49.7817 70.3426 49.7817 70.3426 49.7869 70.3426C49.7869 70.3426 49.7869 70.3426 49.7921 70.3426C49.8079 70.3426 49.8236 70.3373 49.8341 70.3321C49.8446 70.3321 49.8551 70.3321 49.8603 70.3216C49.8603 70.3216 49.8604 70.3216 49.8499 70.3216C49.8551 70.3216 49.8603 70.3216 49.8656 70.3216H49.8603C49.8918 70.3111 49.9285 70.3059 49.96 70.2954H49.981C49.981 70.2954 50.002 70.2849 50.0072 70.2796C50.0072 70.2796 50.0072 70.2796 50.002 70.2796C50.0492 70.2639 50.0964 70.2534 50.1488 70.2376C50.1593 70.2376 50.1698 70.2377 50.1751 70.2272C50.1803 70.2272 50.1908 70.2272 50.1961 70.2219C50.1961 70.2219 50.238 70.2114 50.259 70.2062C50.2905 70.1957 50.3219 70.1904 50.3482 70.1799C50.3586 70.1799 50.3691 70.1747 50.3849 70.1694C50.3849 70.1694 50.3849 70.1694 50.3954 70.1694C50.4373 70.1589 50.4793 70.1485 50.516 70.138C50.5265 70.138 50.5318 70.138 50.537 70.1327C50.5475 70.1327 50.558 70.1275 50.5685 70.1222C50.8203 70.054 51.072 69.9963 51.3186 69.9334C51.9113 69.7865 52.5093 69.6396 53.102 69.4927C53.7 69.3459 54.298 69.199 54.9012 69.0469C55.1897 68.9734 55.4782 68.8895 55.7667 68.8318C55.9922 68.7688 56.2283 68.7268 56.4538 68.6743C57.0098 68.5484 57.5606 68.4226 58.1114 68.2967C58.6674 68.1708 59.2234 68.0449 59.7742 67.919C60.0417 67.856 60.3144 67.7878 60.582 67.7354C60.6711 67.7144 60.7551 67.6934 60.8442 67.6724C61.0855 67.6147 61.3321 67.557 61.5786 67.5045C62.2553 67.3471 62.9319 67.1897 63.6086 67.0324C63.6191 67.0324 63.6243 67.0324 63.6348 67.0271C63.6663 67.0166 63.6977 67.0114 63.7345 67.0062C63.7397 67.0062 63.745 67.0062 63.7502 67.0062C63.7502 67.0062 63.7502 67.0062 63.7554 67.0062C63.7607 67.0062 63.7554 67.0062 63.7607 67.0062C63.7922 67.0009 63.8236 66.9904 63.8551 66.9852C63.8603 66.9852 63.8656 66.9852 63.8761 66.9852C64.023 66.9537 64.1751 66.917 64.3219 66.8803C64.4741 66.8436 64.6262 66.8068 64.7835 66.7753C64.7888 66.7753 64.794 66.7753 64.8045 66.7753C64.9776 66.7281 65.156 66.6914 65.3291 66.6494C65.712 66.555 66.0949 66.4658 66.4778 66.3766C66.8555 66.2822 67.2332 66.193 67.6161 66.1038C67.7892 66.0619 67.9623 66.0147 68.1354 65.9832H68.1301C68.6337 65.8468 69.1425 65.7419 69.6513 65.6212C70.4066 65.4429 71.162 65.2645 71.9121 65.0861C72.1009 65.0389 72.3002 65.2068 72.3527 65.4586L72.3946 65.4796Z" fill="white"/>
<path d="M68.828 2.96896C68.4083 2.43387 68.0359 1.77813 67.8838 1.13288C68.2982 0.45615 68.9381 2.68043 68.828 2.96896Z" fill="black"/>
<path d="M69.0429 3.18927C68.5708 2.80107 68.4764 2.16632 68.2561 1.62599C68.2141 1.40041 67.9414 0.991205 68.2299 0.849564C68.2981 0.839072 68.3505 0.891538 68.3715 0.954489C68.6548 1.67318 69.2003 2.38139 69.0429 3.18927Z" fill="black"/>
<path d="M68.8488 2.50731C68.7072 2.36042 67.9204 0.881068 68.4344 1.0332C68.7072 1.45812 68.8908 2.01419 68.8488 2.50731Z" fill="black"/>
<path d="M65.1299 2.95846C66.1475 2.25551 67.0549 1.29027 68.2142 0.839114C68.3768 0.723704 68.4659 0.975504 68.3873 1.09616C68.3873 1.09616 68.3873 1.0909 68.3873 1.08566C68.3663 1.21681 68.2194 1.2745 68.1145 1.33745C67.1441 1.89877 66.1055 2.48108 65.1299 2.95846Z" fill="black"/>
<path d="M69.0642 3.7506C68.5764 2.92174 68.5135 1.9145 68.2092 1.0122C68.1778 0.912528 68.2197 0.755172 68.3456 0.739434C68.4557 0.723696 68.5187 0.839077 68.5187 0.93875C68.7705 1.85679 69.1429 2.79584 69.0695 3.75585L69.0642 3.7506Z" fill="black"/>
<path d="M69.2792 3.33614C68.8544 2.53876 68.3193 1.7309 68.1357 0.828598C68.5134 -0.0317363 69.316 3.05811 69.2792 3.33614Z" fill="black"/>
<path d="M47.1014 11.8503C47.0017 11.693 46.9965 11.4779 47.0699 11.31C47.1224 11.1946 47.2168 11.0897 47.3374 11.0529C47.4896 10.9847 47.6312 10.9061 47.7781 10.8274C47.9984 10.712 48.2187 10.6018 48.4338 10.4864C48.9111 10.2346 49.3832 9.98801 49.8605 9.74145C50.8256 9.23784 51.7961 8.73948 52.7612 8.24112C53.7736 7.72177 54.7807 7.18668 55.7878 6.65684C56.7634 6.14273 57.7443 5.63913 58.72 5.12503C59.7166 4.60044 60.7133 4.08108 61.7151 3.57747C62.7013 3.08435 63.7031 2.61221 64.684 2.09811C65.1771 1.83581 65.6702 1.57351 66.1737 1.33219C66.4098 1.22203 66.6458 1.11188 66.8871 1.01745C67.1284 0.923022 67.3749 0.849579 67.6215 0.755152C67.7893 0.681708 67.9519 0.597782 68.1198 0.534831C68.1932 0.508601 68.2719 0.498109 68.3401 0.534831C68.3978 0.555815 68.4397 0.613525 68.4607 0.671231C68.4817 0.734182 68.4765 0.807628 68.4502 0.870579C68.424 0.944022 68.3663 1.00171 68.3034 1.05417C68.1775 1.15385 68.0254 1.22728 67.8837 1.30597C67.6687 1.43712 67.4746 1.59975 67.2648 1.73614C67.0444 1.88303 66.8137 2.01944 66.5829 2.14534C66.1055 2.41288 65.6177 2.65942 65.1351 2.90597C64.128 3.41483 63.1419 3.97092 62.1453 4.50076C61.1539 5.02536 60.1625 5.53946 59.1658 6.04307C58.1797 6.54143 57.2041 7.05029 56.2232 7.54865C55.2213 8.05751 54.2194 8.56636 53.2228 9.08046C52.2524 9.57882 51.282 10.0877 50.3116 10.586C49.8081 10.8483 49.3045 11.1002 48.8009 11.3572C48.5701 11.4726 48.3393 11.5985 48.1033 11.7139C47.9512 11.7926 47.7886 11.866 47.6417 11.9552C47.6417 11.9552 47.6417 11.9552 47.6364 11.9552C47.6155 11.971 47.5945 11.9867 47.5735 11.9972C47.5263 12.0234 47.4739 12.0339 47.4266 12.0339C47.3008 12.0339 47.1801 11.9605 47.1119 11.8451L47.1014 11.8503Z" fill="black"/>
<path d="M72.9877 13.2405C72.8775 13.2352 72.7726 13.167 72.7201 13.0726C72.6887 13.0149 72.6677 12.9572 72.6362 12.8995C72.6467 12.9152 72.652 12.9309 72.6625 12.9414C72.6362 12.8942 72.6205 12.8523 72.61 12.8051C72.5575 12.6739 72.4998 12.5428 72.4474 12.4116C72.332 12.1179 72.2166 11.8188 72.0959 11.5251C71.8494 10.9113 71.6029 10.2975 71.3878 9.74668C71.2882 9.48963 71.1885 9.23256 71.115 9.03846C70.9262 8.55583 70.7111 8.07321 70.5118 7.59583C70.2915 7.07123 70.0817 6.54666 69.8876 6.01682C69.5309 5.04633 69.1742 4.07583 68.8228 3.10008C68.655 2.6227 68.5028 2.14005 68.3769 1.66267C68.314 1.42135 68.2353 1.19055 68.1566 0.959729C68.1252 0.875794 68.0989 0.781357 68.1042 0.68693C68.1042 0.566273 68.1776 0.445632 68.3088 0.440386C68.4661 0.43514 68.5448 0.671193 68.592 0.786604C68.6812 0.98595 68.7703 1.18529 68.87 1.3689C69.3526 2.25546 69.7145 3.19973 70.0974 4.12827C70.5171 5.14073 70.9367 6.1532 71.3091 7.18141C71.4822 7.66403 71.6448 8.15191 71.8284 8.62929C71.8284 8.63454 71.8337 8.64502 71.8389 8.65026C72.1169 9.35322 72.3897 10.0509 72.6519 10.7591C72.7883 11.1159 72.9195 11.4674 73.0559 11.8188C73.1293 12.0129 73.2027 12.2123 73.2762 12.4064C73.2919 12.4431 73.3076 12.4798 73.3181 12.5165C73.3181 12.5165 73.3181 12.5323 73.3234 12.5375C73.3234 12.5218 73.3129 12.506 73.3076 12.485C73.3129 12.5113 73.3234 12.5323 73.3338 12.5585C73.3496 12.5952 73.3601 12.632 73.3706 12.6687C73.402 12.8156 73.3706 12.9782 73.2762 13.0988C73.2132 13.1828 73.1135 13.2457 73.0034 13.2457C73.0034 13.2457 72.9982 13.2457 72.9929 13.2457L72.9877 13.2405Z" fill="black"/>
</svg>
