<svg width="82" height="90" viewBox="0 0 82 90" fill="none" xmlns="http://www.w3.org/2000/svg">
<path d="M11.2164 89.0335C10.4492 88.1769 10.6121 86.5006 10.3861 85.3603C9.92369 81.3824 9.55584 77.2677 9.07238 73.3055C7.9846 65.975 6.91785 58.6497 5.83532 51.3191C5.52002 49.2802 5.18369 47.2308 4.80533 45.2024C4.80533 45.2024 4.8001 45.2024 4.79485 45.2024C4.49006 45.1814 4.31139 44.7347 4.33766 44.3669C4.26935 44.3616 4.19576 44.3248 4.11693 44.2565C3.13951 42.7484 2.50367 40.8724 1.69965 39.2066C1.32129 38.3343 0.963945 37.4514 0.638136 36.5476C0.412172 35.8855 0.0495794 35.134 0.343858 34.4824C0.433193 34.3248 0.527776 34.1829 0.632876 34.0463C0.622366 33.9937 0.611863 33.9412 0.606608 33.8834C0.564568 33.3316 0.94292 33.1897 1.15837 33.4577C1.46842 33.1687 1.81002 32.9427 2.17261 32.7693C2.17261 32.7168 2.17785 32.6642 2.18836 32.617C2.22515 32.412 2.3355 32.3017 2.47738 32.2281C2.64554 32.1388 2.81371 32.0547 2.98187 31.9706C3.28666 31.8182 3.5967 31.6658 3.90149 31.5134C4.61092 31.1666 5.31507 30.8093 6.02449 30.4624C7.3435 29.8108 8.66777 29.1434 9.98677 28.4866C12.6826 27.1413 15.3836 25.7909 18.0794 24.4403C20.7963 23.0793 23.5236 21.7393 26.2457 20.3941C28.973 19.0488 31.7004 17.7088 34.4224 16.3636C37.2444 14.971 40.061 13.5837 42.883 12.1964C45.6208 10.8512 48.3586 9.50591 51.0912 8.15541C52.7098 7.35666 54.3283 6.56318 55.9468 5.76444C55.9784 5.72765 56.0099 5.68563 56.0467 5.6541C56.1518 5.56477 56.2621 5.53849 56.383 5.549C57.3342 5.08131 58.2906 4.61364 59.2417 4.14595C61.7168 2.93207 64.1919 1.71292 66.6618 0.483276C66.7353 0.635668 66.8089 0.788058 66.8825 0.940449C66.9613 0.961469 67.0401 1.02453 67.0979 1.10861C67.0979 1.10861 67.1032 1.10861 67.1084 1.10861C67.3449 1.05081 67.5341 1.23472 67.6497 1.49221C67.6497 1.49221 67.6497 1.49223 67.6497 1.48172C68.7217 3.83591 69.8305 6.18484 70.8079 8.59683C71.0286 9.39557 71.5226 10.2574 71.5016 11.0876C71.5174 11.1139 71.5279 11.1454 71.5384 11.177C71.7065 11.5869 71.8695 11.9968 72.0324 12.4119C71.964 12.4434 71.901 12.4802 71.8327 12.5117C71.16 12.8375 70.4926 13.1686 69.82 13.4997C68.4432 14.1723 67.0664 14.8501 65.6843 15.5228C62.8782 16.8996 60.0667 18.2606 57.2658 19.6531C54.4124 21.0719 51.5484 22.4592 48.6897 23.8623C46.861 24.7609 45.027 25.6489 43.1982 26.5475C43.0826 26.7577 42.904 26.8944 42.6623 26.9154C42.6097 26.9154 42.5519 26.8996 42.5046 26.8838C41.7899 27.2359 41.0805 27.588 40.3711 27.9348C38.453 28.886 36.5297 29.8213 34.6116 30.7567C34.496 30.8513 34.3541 30.9144 34.2017 30.9564C33.466 31.3137 32.7303 31.6763 31.9946 32.0336C30.0661 32.9743 28.1322 33.9097 26.1984 34.8503C26.1563 34.8818 26.109 34.8976 26.0617 34.9186C25.242 35.318 24.4169 35.7226 23.5919 36.1167C20.7805 37.483 17.9743 38.844 15.1629 40.205C13.4393 41.0405 11.7104 41.8813 9.98677 42.7221C10.2127 42.6538 10.4387 42.5855 10.6594 42.5172C12.0887 42.0915 13.5181 41.6606 14.9475 41.2297C15.2785 41.1299 15.6044 41.03 15.9354 40.9354C18.3737 40.1997 20.8173 39.4641 23.2556 38.7389C26.0092 37.9139 28.7576 37.0941 31.5112 36.2796C34.3121 35.4493 37.1077 34.6191 39.9086 33.7835C42.7096 32.9533 45.5105 32.1177 48.3114 31.2822C51.0492 30.4624 53.7871 29.6479 56.5249 28.8387C59.268 28.0242 62.0111 27.2149 64.7489 26.4057C66.1047 26.0063 67.4553 25.6069 68.8111 25.2128C69.9987 24.866 71.1863 24.5507 72.3634 24.1723C72.3949 24.1618 72.4212 24.1566 72.458 24.1566C72.7838 24.1566 73.015 24.5875 73.0518 24.9763C73.0886 25.3231 72.9677 25.7646 72.684 25.8224C72.2846 25.9538 71.8799 26.0588 71.4753 26.1797C70.9603 26.3374 70.4401 26.495 69.9251 26.6526C70.6503 28.3237 69.6256 30.7988 69.4574 32.4435C69.2892 33.484 69.0423 34.5613 68.8636 35.6017C69.5783 35.4126 70.2982 35.2286 71.0129 35.0395C71.3334 34.9554 71.654 34.8713 71.9745 34.7925C71.922 34.4141 72.0218 33.9885 72.0796 33.6416C72.4002 31.918 72.5736 30.0736 73.1569 28.4918C73.1674 28.4708 73.1832 28.4498 73.199 28.434C73.199 28.4288 73.199 28.4236 73.199 28.4183C73.1306 27.9716 73.0623 27.5197 72.994 27.073C72.9625 26.8681 72.9362 26.6684 72.9099 26.4635C72.8784 26.206 72.8364 25.9065 72.9309 25.6805C72.9677 25.5701 73.0255 25.4755 73.1044 25.4125C73.2357 25.3126 73.4197 25.3284 73.551 25.4703C73.7087 25.6437 73.777 25.8592 73.8296 26.1009C73.8821 26.3426 73.9294 26.5843 73.9714 26.8261C74.0502 27.278 74.1291 27.7299 74.2079 28.1871C74.3761 29.1277 74.5337 30.0736 74.6966 31.0194C75.0224 32.9112 75.3482 34.803 75.6793 36.6895C76.3309 40.4835 76.9878 44.2775 77.6184 48.0716C78.2542 51.8709 78.8533 55.6754 79.4681 59.4747C80.062 63.1584 80.6663 66.8368 81.2916 70.5152C81.381 71.0197 81.465 71.5137 81.5386 71.9498C81.6017 72.0864 81.649 72.2335 81.6752 72.3807C81.7751 72.9272 81.6332 73.6944 81.1603 73.7943C81.1445 73.7943 81.1235 73.8048 81.1077 73.8048C80.9553 73.8468 80.7924 73.8941 80.6348 73.9151C78.99 74.2987 77.3451 74.6982 75.6951 75.0712C73.7823 75.5074 71.8642 75.954 69.9514 76.3902C66.089 77.273 62.2371 78.1821 58.3799 79.0597C54.486 79.9478 50.592 80.8306 46.7033 81.7239C42.8725 82.6015 39.0416 83.4948 35.2107 84.3566C31.364 85.2289 27.5069 86.0697 23.6445 86.8474C21.7317 87.2258 19.8188 87.5884 17.9008 87.9352C16.9706 88.1034 16.0353 88.2662 15.1051 88.4239C14.2275 88.571 13.3447 88.7497 12.4461 88.7918C12.4041 88.7918 12.3568 88.7918 12.3147 88.7918H12.2832C12.2832 88.7918 12.2779 88.8022 12.2727 88.8075C12.136 89.1018 11.9153 89.2595 11.6789 89.2595C11.5212 89.2595 11.3636 89.1964 11.2112 89.0545L11.2164 89.0335ZM9.72925 53.1741C9.31936 53.2844 8.90949 53.3896 8.4996 53.5157C10.1865 63.7417 11.7577 73.9835 13.103 84.2463C13.2606 84.8506 13.3132 85.6388 13.1398 86.2221C13.6232 86.075 14.1172 85.9436 14.6059 85.8122C13.639 78.7444 13.0241 71.6503 11.8996 64.6035C11.3636 60.7569 10.5438 56.9629 9.77656 53.1583C9.7608 53.1636 9.74502 53.1688 9.72925 53.1741ZM21.0695 74.9609C20.8908 74.9766 20.7542 75.1501 20.7752 75.3918C20.7963 75.6072 20.9539 75.8174 21.1221 75.8174C21.1273 75.8174 21.1326 75.8174 21.1431 75.8174C21.3901 75.7964 21.637 75.7859 21.884 75.7596H21.8946C21.8946 75.7596 21.9051 75.7596 21.9103 75.7596C22.2204 75.7333 22.5304 75.7018 22.8404 75.6702C23.3975 75.6177 23.9598 75.5389 24.5168 75.4654C25.0843 75.3918 25.6519 75.3024 26.2194 75.2183C26.7028 75.15 27.1863 75.0555 27.6698 74.9714C28.127 74.8925 28.5842 74.8243 29.0361 74.7244C29.7455 74.572 30.4549 74.4196 31.1643 74.2672C31.5164 74.1937 31.8685 74.1201 32.2153 74.0307C32.93 73.8521 33.6394 73.6734 34.3541 73.4948C34.6747 73.416 34.9952 73.3318 35.321 73.253C35.4261 73.2267 35.5312 73.2057 35.6311 73.1742C35.6521 73.1689 35.6731 73.1637 35.6889 73.1585C35.6836 73.1585 35.6784 73.1585 35.6679 73.1637C37.092 72.7749 38.5161 72.3859 39.9349 71.9866C39.9349 71.9866 39.9349 71.9866 39.9454 71.9866C39.9454 71.9866 39.9507 71.9866 39.9559 71.9866H39.9507C39.9507 71.9866 39.9559 71.9866 39.9612 71.9866C39.9664 71.9866 39.9717 71.9866 39.977 71.9866C39.977 71.9866 39.9769 71.9866 39.9822 71.9866C39.9822 71.9866 39.9875 71.9866 39.9927 71.9866C40.0085 71.9866 40.019 71.9814 40.0348 71.9761H40.04C40.04 71.9761 40.04 71.9761 40.0453 71.9761C40.0558 71.9761 40.061 71.9708 40.0716 71.9656C40.0768 71.9656 40.0873 71.9603 40.0926 71.9551C40.0926 71.9551 40.0978 71.9551 40.1031 71.9551C40.1136 71.9551 40.1294 71.9498 40.1399 71.9445C40.1399 71.9445 40.1346 71.9445 40.1293 71.9445C40.1293 71.9445 40.1346 71.9445 40.1399 71.9445C40.1504 71.9445 40.1661 71.9393 40.1819 71.934C40.1924 71.934 40.2029 71.9288 40.2134 71.9235C40.2029 71.9235 40.1924 71.934 40.1819 71.934C40.1977 71.934 40.2134 71.9236 40.2239 71.9183C40.2292 71.9183 40.2397 71.9183 40.2449 71.9131C40.2397 71.9131 40.2344 71.9131 40.2239 71.9183C40.2344 71.9183 40.2397 71.9183 40.2449 71.9131C40.287 71.9025 40.329 71.8867 40.3711 71.8762C40.3816 71.8762 40.4026 71.8657 40.4131 71.8657C40.4131 71.8657 40.4131 71.8657 40.4184 71.8657C40.4236 71.8657 40.4236 71.8657 40.4289 71.8657C40.4604 71.8605 40.4919 71.85 40.5235 71.8395C40.5077 71.8395 40.4919 71.85 40.4762 71.85C40.5129 71.8395 40.5497 71.8289 40.5865 71.8184C40.5708 71.8184 40.555 71.829 40.5392 71.829C40.576 71.8184 40.6128 71.8079 40.6548 71.7974C40.6548 71.7974 40.6443 71.7974 40.6391 71.8027C40.6391 71.8027 40.6391 71.8027 40.6338 71.8027H40.6391C40.6706 71.7921 40.6969 71.7869 40.7232 71.7764C40.7074 71.7764 40.6916 71.7869 40.6759 71.7869C40.7232 71.7764 40.7705 71.7606 40.8125 71.7501C40.802 71.7501 40.7915 71.7501 40.781 71.7554C40.8335 71.7396 40.8913 71.7239 40.9439 71.7081C40.9281 71.7081 40.9124 71.7186 40.8966 71.7186C40.9807 71.6976 41.0647 71.6713 41.1436 71.6503C41.1278 71.6503 41.112 71.6608 41.0962 71.6608C41.1383 71.6503 41.1856 71.6345 41.2276 71.624C41.2119 71.624 41.1961 71.6345 41.1803 71.6398C41.2276 71.6293 41.2697 71.6135 41.3117 71.603C41.3117 71.603 41.3117 71.603 41.317 71.603C41.3275 71.603 41.338 71.603 41.3485 71.5977H41.338C41.338 71.5977 41.3485 71.5977 41.359 71.5924C41.359 71.5924 41.359 71.5924 41.3538 71.5924C41.4326 71.5714 41.5062 71.5452 41.5797 71.5242C41.5797 71.5242 41.5692 71.5241 41.5692 71.5294C41.6533 71.5084 41.7374 71.4822 41.8214 71.4559C41.8214 71.4559 41.8162 71.4559 41.8109 71.4559C41.8109 71.4559 41.8162 71.4559 41.8214 71.4559C41.853 71.4454 41.8898 71.4348 41.9213 71.4243C41.9213 71.4243 41.9108 71.4243 41.9055 71.4243C41.9844 71.4033 42.0632 71.3823 42.142 71.356H42.1368C42.1578 71.3507 42.1788 71.3455 42.1998 71.335C42.1998 71.335 42.1945 71.335 42.1893 71.335C42.2681 71.3139 42.3469 71.2877 42.4258 71.2666C42.4941 71.2456 42.5571 71.2351 42.6202 71.2141C42.636 71.2141 42.657 71.2036 42.6727 71.1983H42.678C42.7516 71.1773 42.8252 71.1563 42.8987 71.1353C42.883 71.1353 42.8672 71.1458 42.8514 71.1458C42.8987 71.1353 42.946 71.1195 42.9933 71.1038C42.9776 71.1038 42.9618 71.1143 42.946 71.1143C43.0143 71.0933 43.0879 71.0775 43.1562 71.0565C43.1457 71.0565 43.1405 71.0565 43.13 71.0618C43.2088 71.0407 43.2823 71.0197 43.3611 70.9934C43.3559 70.9934 43.3506 70.9935 43.3401 70.9987C43.3927 70.9882 43.44 70.9724 43.4925 70.9566C43.4715 70.9566 43.461 70.9671 43.4452 70.9671C43.503 70.9514 43.5661 70.9356 43.6239 70.9199C43.6239 70.9199 43.666 70.9093 43.6817 70.9041C43.6765 70.9041 43.6712 70.9041 43.6607 70.9094C43.7815 70.8778 43.9024 70.841 44.0285 70.8095C44.0128 70.8095 43.997 70.82 43.9813 70.82C44.0233 70.8095 44.0601 70.799 44.0969 70.7885C44.0969 70.7885 44.1021 70.7885 44.1074 70.7885C44.1074 70.7885 44.1091 70.7885 44.1126 70.7885C44.1126 70.7885 44.1494 70.778 44.1652 70.7727C44.1757 70.7727 44.1809 70.7727 44.1862 70.7727H44.181C44.181 70.7727 44.1967 70.7727 44.202 70.7727C44.202 70.7727 44.2282 70.7622 44.244 70.7622C44.2493 70.7622 44.2598 70.7622 44.265 70.7569H44.2703C44.3176 70.7464 44.3649 70.7307 44.4069 70.7149C44.3964 70.7149 44.3859 70.7202 44.3754 70.7254C44.4122 70.7149 44.4542 70.7044 44.491 70.6886C44.491 70.6886 44.491 70.6886 44.4857 70.6886C44.4857 70.6886 44.4857 70.6886 44.491 70.6886C44.5067 70.6886 44.5173 70.6834 44.5278 70.6781C44.5278 70.6781 44.5278 70.6781 44.533 70.6781H44.5435C44.554 70.6781 44.5646 70.6729 44.5698 70.6676C44.5698 70.6676 44.6066 70.6571 44.6224 70.6519C44.6224 70.6519 44.6171 70.6519 44.6118 70.6519C44.6118 70.6519 44.6171 70.6519 44.6224 70.6519C44.6224 70.6519 44.6329 70.6519 44.6381 70.6519C44.6381 70.6519 44.6381 70.6519 44.6434 70.6519C44.6591 70.6519 44.6749 70.6413 44.6854 70.6413C44.6696 70.6413 44.6539 70.6519 44.6381 70.6519C44.6854 70.6414 44.7327 70.6256 44.7747 70.615C44.7747 70.615 44.7747 70.615 44.78 70.615C44.78 70.615 44.7853 70.615 44.7905 70.615C44.7958 70.615 44.801 70.615 44.8063 70.615C44.8115 70.615 44.8221 70.615 44.8273 70.6098C44.8273 70.6098 44.8326 70.6098 44.8378 70.6098C44.8378 70.6098 44.8431 70.6098 44.8483 70.6098C44.8588 70.6098 44.8693 70.6046 44.8851 70.5993C45.1531 70.531 45.4211 70.4522 45.6891 70.3839C46.2829 70.2262 46.8767 70.0686 47.4705 69.9056C48.0538 69.748 48.6424 69.5903 49.2257 69.4327C49.4832 69.3644 49.746 69.3014 50.0087 69.2226C50.2977 69.1647 50.5762 69.0859 50.86 69.0176C51.4486 68.881 52.0372 68.7391 52.6205 68.5972C53.1932 68.4606 53.7608 68.3292 54.3336 68.1925C54.5805 68.1347 54.8223 68.0875 55.064 68.0192C55.3268 67.9719 55.5895 67.9036 55.8522 67.8405C56.3935 67.7196 56.9348 67.5988 57.4761 67.4779C58.0173 67.357 58.5586 67.2362 59.0998 67.1101C59.3205 67.0628 59.5412 67.0155 59.762 66.9629H59.7567C60.3715 66.821 60.9864 66.6687 61.5959 66.5215C62.3579 66.3429 63.1199 66.1537 63.8871 65.975C63.8871 65.975 63.8871 65.975 63.8924 65.975C63.8924 65.975 63.9134 65.975 63.9239 65.9697H63.9292C63.9292 65.9697 63.9292 65.9697 63.9344 65.9697C64.1026 65.9277 64.2707 65.8804 64.4336 65.8384C64.8015 65.7438 65.1693 65.6492 65.5372 65.5598C66.0837 65.418 66.625 65.2866 67.1715 65.1395C67.1715 65.1395 67.182 65.1395 67.1873 65.1395C67.3396 65.1027 67.492 65.0607 67.6444 65.0186C67.965 64.9346 68.2908 64.8504 68.6114 64.7611C69.3523 64.5614 70.0985 64.3618 70.8395 64.1621C71.0234 64.1148 71.1337 63.8836 71.0812 63.6366C71.0286 63.3949 70.829 63.2319 70.645 63.274C69.9093 63.4474 69.1684 63.6208 68.4327 63.7942C67.9387 63.9098 67.4395 64.0149 66.9455 64.1463H66.9508C66.7826 64.1778 66.6092 64.2251 66.4411 64.2672C66.068 64.3565 65.7001 64.4458 65.3323 64.5352C64.9539 64.6245 64.5808 64.7138 64.2077 64.8032C64.0395 64.84 63.8661 64.882 63.6927 64.924C63.6822 64.924 63.6717 64.924 63.6559 64.9293C63.6612 64.9293 63.6664 64.9293 63.6717 64.9293C63.5193 64.9661 63.3669 64.9976 63.2145 65.0344C63.0726 65.0659 62.9255 65.1027 62.7783 65.1342C62.7731 65.1342 62.7678 65.1342 62.7573 65.1342C62.7258 65.1395 62.6942 65.15 62.6627 65.1552C62.6627 65.1552 62.6627 65.1552 62.668 65.1552C62.668 65.1552 62.6627 65.1552 62.6575 65.1552C62.6575 65.1552 62.6522 65.1552 62.6469 65.1552C62.6364 65.1552 62.6259 65.1552 62.6102 65.1605C62.6207 65.1605 62.6312 65.1605 62.6417 65.1552C62.6049 65.1657 62.5734 65.171 62.5313 65.1815C62.5208 65.1815 62.5156 65.1815 62.5051 65.1868C61.8429 65.3392 61.1808 65.4968 60.5187 65.6492C60.2822 65.707 60.0405 65.7595 59.804 65.8173C59.7199 65.8383 59.6359 65.8542 59.5518 65.8752C59.2838 65.9225 59.021 65.996 58.7583 66.0538C58.217 66.18 57.6757 66.3008 57.1345 66.4217C56.5932 66.5425 56.052 66.6634 55.5107 66.7895C55.2847 66.8421 55.0588 66.8788 54.838 66.9419C54.5543 66.9997 54.2758 67.0785 53.992 67.1521C53.4087 67.2992 52.8201 67.4411 52.2316 67.5882C51.6483 67.7354 51.065 67.8773 50.4869 68.0192C50.2399 68.0822 49.993 68.1348 49.7512 68.2031C49.7512 68.2031 49.7302 68.2083 49.7144 68.2136C49.7144 68.2136 49.6987 68.2136 49.6934 68.2188C49.6934 68.2188 49.6987 68.2188 49.7039 68.2188C49.6619 68.2294 49.6198 68.2451 49.5778 68.2556H49.5673C49.5515 68.2556 49.541 68.2609 49.5253 68.2661C49.499 68.2766 49.4674 68.2819 49.4412 68.2924C49.4201 68.2977 49.3991 68.3029 49.3781 68.3134C49.3781 68.3134 49.3624 68.3134 49.3571 68.3134C49.3466 68.3134 49.3361 68.3187 49.3256 68.3239C49.2783 68.3397 49.231 68.3502 49.1837 68.366C49.1837 68.366 49.1837 68.366 49.1889 68.366C49.1784 68.366 49.1679 68.3712 49.1627 68.3765C49.1522 68.3765 49.1469 68.3765 49.1416 68.3817C49.1101 68.3922 49.0786 68.4028 49.0418 68.408H49.047C49.047 68.408 49.0365 68.408 49.0313 68.408C49.0313 68.408 49.0366 68.408 49.0418 68.408C49.0313 68.408 49.0208 68.4133 49.0155 68.4185C49.0155 68.4185 48.984 68.4238 48.9735 68.4291C48.9735 68.4291 48.9682 68.4291 48.963 68.4291C48.963 68.4291 48.963 68.4291 48.9577 68.4291C48.8947 68.4501 48.8316 68.4658 48.7685 68.4869C48.7685 68.4869 48.7423 68.4974 48.7265 68.4974C48.6739 68.5079 48.6214 68.5236 48.5689 68.5394H48.5583C48.5478 68.5394 48.5373 68.5394 48.5268 68.5499C48.5321 68.5499 48.5373 68.5499 48.5478 68.5499C48.5373 68.5499 48.5373 68.5499 48.5268 68.5499C48.3639 68.5972 48.201 68.6392 48.0381 68.6865C46.9398 68.9913 45.8415 69.2961 44.7432 69.6061C44.7169 69.6167 44.6907 69.6219 44.6591 69.6324H44.6486H44.6434C44.6329 69.6324 44.6276 69.6324 44.6171 69.6376C44.6276 69.6376 44.6329 69.6376 44.6434 69.6324C44.6434 69.6324 44.6434 69.6324 44.6381 69.6324H44.6276C44.6276 69.6324 44.6276 69.6324 44.6224 69.6324C44.6224 69.6324 44.6119 69.6324 44.6066 69.6324C44.5961 69.6324 44.5856 69.6376 44.5751 69.6429C43.7448 69.8741 42.925 70.1211 42.1 70.3576C41.3275 70.5835 40.555 70.8095 39.7825 71.0302H39.772C39.772 71.0302 39.7667 71.0302 39.7615 71.0302H39.7668C39.7668 71.0302 39.751 71.0302 39.7457 71.0302C39.7457 71.0302 39.73 71.0302 39.7247 71.0355C39.7247 71.0355 39.7247 71.0355 39.73 71.0355C39.2991 71.1563 38.8734 71.2772 38.4425 71.4033C38.4583 71.4033 38.474 71.3928 38.4898 71.3928C38.2008 71.4716 37.9117 71.5557 37.6227 71.6398C37.6332 71.6398 37.6385 71.6398 37.649 71.6345C37.134 71.7817 36.619 71.9235 36.104 72.0707C36.104 72.0707 36.1093 72.0707 36.1145 72.0707C36.1145 72.0707 36.1093 72.0707 36.104 72.0707C36.0935 72.0707 36.0883 72.0759 36.0777 72.0812C36.0305 72.0917 35.9884 72.1022 35.9411 72.1179C35.8675 72.139 35.794 72.16 35.7204 72.1811C35.7309 72.1811 35.7362 72.1811 35.7467 72.1758C35.6836 72.1916 35.6206 72.2126 35.5522 72.2336C35.526 72.2388 35.5049 72.2441 35.4839 72.2546H35.4734C34.3594 72.5541 33.2348 72.8274 32.1208 73.1164C31.8212 73.1952 31.5217 73.2635 31.2169 73.3266C30.5285 73.479 29.8401 73.6314 29.1517 73.7838C28.7523 73.8731 28.3529 73.9467 27.9483 74.0203C27.3965 74.1201 26.8395 74.2357 26.2877 74.3198C25.1631 74.4932 24.0333 74.6666 22.9035 74.798C22.5356 74.8295 22.1731 74.8663 21.8052 74.9083H21.8157C21.8157 74.9083 21.8157 74.9083 21.8052 74.9083C21.8052 74.9083 21.7842 74.9083 21.7737 74.9083C21.779 74.9083 21.7842 74.9083 21.7894 74.9083C21.553 74.9241 21.3218 74.9451 21.0853 74.9609H21.0695ZM17.0705 73.3949C17.0705 73.5263 17.0863 73.6471 17.1493 73.7627C17.2492 73.9361 17.4173 73.994 17.5644 74.0097C17.5907 74.0097 17.6118 74.0097 17.6433 74.0097C17.8377 74.0097 18.0321 73.9362 18.2108 73.8679C18.3369 73.8206 18.4578 73.768 18.5787 73.7154C18.7416 73.6419 18.9045 73.5683 19.0674 73.4948C19.2618 73.4054 19.4562 73.3055 19.6612 73.2372C19.6769 73.2372 19.6927 73.232 19.7085 73.2268C19.719 73.2268 19.7295 73.2268 19.74 73.2268C19.8136 73.2373 19.8819 73.2478 19.9555 73.2635C19.9555 73.2635 19.9607 73.2635 19.966 73.2635C20.1867 73.3108 20.4179 73.3529 20.6333 73.3424C20.8751 73.3213 21.1168 73.274 21.348 73.1794C21.7159 73.027 22.0522 72.8011 22.3833 72.5541C22.7406 72.2809 23.0874 72.0024 23.4395 71.7186C23.5814 71.5978 23.6024 71.335 23.4921 71.1458C23.3817 70.9514 23.182 70.8988 23.0401 71.0144C22.6618 71.3297 22.2834 71.6398 21.8946 71.934C21.8946 71.934 21.8946 71.934 21.8998 71.934C21.6949 72.0812 21.4847 72.2231 21.2639 72.3387C21.1536 72.3912 21.0433 72.4385 20.9277 72.4753C20.8383 72.4963 20.749 72.5173 20.6649 72.5331H20.6544C20.5756 72.5436 20.502 72.5436 20.4179 72.5436C20.3181 72.5384 20.2182 72.5279 20.1131 72.5069C20.0027 72.4858 19.8872 72.4491 19.7715 72.4438C19.5929 72.4333 19.4352 72.4648 19.2776 72.5436C19.1304 72.6119 18.9885 72.6802 18.8414 72.7433C18.5051 72.9009 18.174 73.0638 17.8272 73.1847C17.7536 73.2057 17.68 73.2267 17.6117 73.2372C17.5539 73.1374 17.4646 73.0691 17.3753 73.0586C17.3648 73.0586 17.3543 73.0586 17.3437 73.0586C17.1914 73.0586 17.0757 73.2163 17.0757 73.4107L17.0705 73.3949ZM26.6766 64.2409C26.314 64.3354 25.9566 64.4301 25.594 64.5194C24.9529 64.6875 24.3066 64.8505 23.6655 65.0186C23.4343 65.0764 23.1978 65.1184 22.9718 65.1657C22.5514 65.2551 22.1363 65.3444 21.7159 65.4337C21.5477 65.4705 21.3743 65.5126 21.2009 65.5389C20.812 65.5967 20.4284 65.6545 20.0396 65.7175C19.4668 65.8068 18.8834 65.8647 18.3054 65.9225H18.3159C18.153 65.9382 17.9901 65.954 17.8272 65.9697H17.8482C17.659 65.9855 17.4909 66.0591 17.4278 66.3008C17.3858 66.4532 17.4278 66.6529 17.5171 66.779C17.5539 66.8263 17.5907 66.8736 17.638 66.9051C17.6958 66.9472 17.7589 66.9682 17.8219 66.9682C17.8797 66.9682 17.9323 66.9524 17.9796 66.9209C18.0742 66.9104 18.1688 66.8999 18.2581 66.8893C18.5734 66.8631 18.8887 66.8263 19.2093 66.7895C19.409 66.7685 19.6086 66.7527 19.8031 66.7212C20.1814 66.6634 20.5598 66.6056 20.9381 66.5478C21.1378 66.5162 21.3428 66.49 21.5425 66.448C22.2624 66.2903 22.9771 66.1379 23.697 65.9803C24.2172 65.8699 24.7322 65.7175 25.2472 65.5861C25.7938 65.4443 26.3403 65.3076 26.8815 65.1605C26.9236 65.15 26.9656 65.1395 27.0076 65.129C27.0024 65.129 26.9919 65.129 26.9866 65.129C28.1585 64.8189 29.3251 64.4984 30.497 64.1778C30.5285 64.1673 30.56 64.1621 30.5915 64.1516C30.6021 64.1516 30.6126 64.1463 30.6231 64.141C31.3588 63.9571 32.0892 63.7574 32.8196 63.5578C33.5186 63.3738 34.2175 63.2004 34.9112 63.0112H34.9006C34.9111 63.0112 34.9164 63.0112 34.9216 63.006C34.9269 63.006 34.9374 63.006 34.9427 63.006C34.9427 63.006 34.9427 63.006 34.9479 63.006C34.9532 63.006 34.9584 63.006 34.9637 63.006H34.969C34.969 63.006 35.0005 63.0007 35.0163 62.9955C35.2054 62.9482 35.3893 62.8957 35.5785 62.8431C35.5733 62.8431 35.568 62.8431 35.5575 62.8431C36.5034 62.5909 37.4493 62.3386 38.3952 62.0864C38.39 62.0864 38.3794 62.0864 38.3742 62.0916C38.4477 62.0759 38.5161 62.0548 38.5844 62.0338C38.5844 62.0338 38.5844 62.0338 38.5791 62.0338C38.6947 62.0023 38.8104 61.9707 38.9207 61.9445C38.9207 61.9445 38.9207 61.9445 38.9154 61.9445C38.9575 61.934 38.9995 61.9235 39.0416 61.9077C39.0258 61.9077 39.01 61.9182 38.9943 61.9182C39.1414 61.8815 39.2833 61.8394 39.4252 61.8026C39.4252 61.8026 39.4462 61.8026 39.4567 61.7974C39.504 61.7869 39.5513 61.7763 39.5986 61.7606C39.5986 61.7606 39.5881 61.7606 39.5828 61.7606C39.5986 61.7606 39.6144 61.75 39.6301 61.75C39.6301 61.75 39.6249 61.75 39.6196 61.75C39.6196 61.75 39.6249 61.75 39.6301 61.75C39.6459 61.75 39.6617 61.7395 39.6722 61.7395C39.6617 61.7395 39.6511 61.75 39.6406 61.75C39.6617 61.75 39.6774 61.7396 39.6932 61.7343C39.6932 61.7343 39.6932 61.7343 39.6984 61.7343C39.6984 61.7343 39.6984 61.7343 39.6932 61.7343C39.6932 61.7343 39.6932 61.7343 39.6984 61.7343C39.7089 61.7343 39.7247 61.7291 39.7405 61.7238H39.7457C39.7457 61.7238 39.7457 61.7238 39.751 61.7238H39.7615C39.7615 61.7238 39.7825 61.7185 39.7983 61.7133C39.7983 61.7133 39.8035 61.7133 39.8088 61.7133C39.8193 61.7133 39.8246 61.7133 39.8298 61.7133H39.8403C39.8561 61.7133 39.8718 61.7028 39.8876 61.6975C39.8876 61.6975 39.8771 61.6975 39.8719 61.7028C39.8981 61.6923 39.9191 61.687 39.9454 61.6817C39.9349 61.6817 39.9296 61.6817 39.9191 61.687C39.9296 61.687 39.9454 61.6817 39.9612 61.6765C39.9822 61.6765 40.0032 61.666 40.0295 61.6608C40.0348 61.6608 40.04 61.6607 40.0505 61.6555C40.0558 61.6555 40.061 61.6555 40.0663 61.6555C40.1241 61.6397 40.1819 61.6239 40.2449 61.6082C40.2975 61.5924 40.35 61.5766 40.4078 61.5661C40.3921 61.5661 40.3763 61.5767 40.3606 61.5767C40.4184 61.5556 40.4867 61.5451 40.5445 61.5294C40.5445 61.5294 40.534 61.5294 40.5235 61.5346C40.534 61.5346 40.5392 61.5346 40.5445 61.5294C40.6128 61.5084 40.6811 61.4925 40.7494 61.4768C40.8072 61.4663 40.865 61.4505 40.9176 61.4348C40.9176 61.4348 40.9229 61.4348 40.9281 61.4348C40.9281 61.4348 40.9281 61.4348 40.9333 61.4348C41.0542 61.4032 41.1751 61.3717 41.2959 61.335C41.2802 61.335 41.2644 61.3454 41.2487 61.3507C41.4326 61.3034 41.6165 61.2509 41.7952 61.2036C41.7794 61.2036 41.7637 61.214 41.7479 61.214C41.8162 61.193 41.8792 61.1773 41.9528 61.1562C41.937 61.1562 41.9213 61.1668 41.9055 61.1668C42.0106 61.1405 42.1105 61.1142 42.2156 61.0827C42.2051 61.0827 42.1998 61.0879 42.1946 61.0932C43.1667 60.8304 44.1442 60.573 45.1268 60.3102C45.1268 60.3102 45.1268 60.3102 45.1216 60.3102C45.1216 60.3102 45.1111 60.3102 45.1058 60.3155C45.1216 60.3155 45.1373 60.305 45.1479 60.305C45.4316 60.2366 45.7154 60.1631 45.9992 60.0948C46.6298 59.9424 47.2551 59.7848 47.8804 59.6271C48.8526 59.3906 49.8248 59.1594 50.7917 58.9072C50.7917 58.9072 50.8022 58.9072 50.8127 58.9072C51.5589 58.7443 52.2999 58.5604 53.0461 58.387C54.0656 58.1505 55.085 57.9192 56.1045 57.6828C56.1255 57.6828 56.1465 57.6722 56.1676 57.6722C56.1938 57.667 56.2148 57.6618 56.2411 57.6513C56.2516 57.6513 56.2621 57.6513 56.2726 57.646C56.2726 57.646 56.2726 57.646 56.2779 57.646C56.2884 57.646 56.2989 57.646 56.3094 57.6407C56.3094 57.6407 56.3147 57.6407 56.32 57.6407C56.3305 57.6407 56.3357 57.6407 56.341 57.6407C56.341 57.6407 56.3462 57.6407 56.3515 57.6407H56.362C56.9821 57.5146 57.5969 57.3675 58.2117 57.2309C58.238 57.2256 58.2696 57.2151 58.2958 57.2151C58.3116 57.2151 58.3326 57.2046 58.3484 57.2046C58.3589 57.2046 58.3642 57.2046 58.3694 57.2046C58.3747 57.2046 58.3852 57.2046 58.3904 57.1994C58.3852 57.1994 58.3747 57.1994 58.3694 57.2046C58.3799 57.2046 58.3852 57.2046 58.3904 57.1994C59.1209 57.0417 59.846 56.8788 60.5712 56.7159C60.9023 56.6371 61.2386 56.5582 61.5697 56.4899C61.5487 56.4899 61.5329 56.5004 61.5119 56.5004C62.0847 56.3796 62.6627 56.264 63.2355 56.1431C66.2046 55.5283 69.1841 54.9239 72.1532 54.3196C72.3792 54.2723 72.5158 53.9886 72.458 53.6943C72.4002 53.3948 72.1637 53.1898 71.9377 53.2319C70.9235 53.4316 69.9093 53.6208 68.9004 53.8257C67.7443 54.0517 66.5882 54.2776 65.4373 54.5193C64.0763 54.8083 62.71 55.0816 61.3542 55.3811C60.8287 55.4915 60.3085 55.6176 59.7882 55.7385C58.8266 55.9592 57.8649 56.1799 56.9032 56.4006C56.856 56.4111 56.8034 56.4216 56.7561 56.4374C56.7351 56.4374 56.7141 56.4479 56.6983 56.4531H56.6931C56.6931 56.4531 56.6878 56.4531 56.6825 56.4531C56.5144 56.4899 56.3462 56.5267 56.1781 56.5635H56.1676H56.1623C56.1623 56.5635 56.1465 56.5635 56.1413 56.5687C56.1413 56.5687 56.1413 56.5687 56.136 56.5687C56.136 56.5687 56.1203 56.5687 56.115 56.5687C56.1203 56.5687 56.1308 56.5687 56.136 56.5687C55.537 56.7106 54.9431 56.8578 54.3441 56.9997C54.3651 56.9997 54.3808 56.9891 54.3966 56.9891C54.2968 57.0154 54.1917 57.0364 54.0918 57.0627C54.1129 57.0627 54.1286 57.0522 54.1444 57.0522C54.1129 57.0575 54.0761 57.068 54.0393 57.0732C54.034 57.0732 54.0288 57.0732 54.0235 57.0732C54.0235 57.0732 54.0235 57.0732 54.0183 57.0732C53.9552 57.089 53.8922 57.1048 53.8291 57.1205C53.8501 57.1205 53.8659 57.11 53.8816 57.11C53.1144 57.2939 52.3472 57.4779 51.5799 57.6618C51.2541 57.7406 50.9231 57.8036 50.6025 57.8982C50.1926 57.9981 49.7828 58.1084 49.3676 58.2135C49.3098 58.2293 49.2467 58.245 49.1889 58.2608C49.2047 58.2608 49.2205 58.2503 49.2362 58.2503C49.1837 58.2661 49.1259 58.2818 49.0681 58.2923C49.0681 58.2923 49.0523 58.2923 49.047 58.2923C48.9997 58.3029 48.9472 58.3186 48.8999 58.3291H48.8947C48.8947 58.3291 48.8894 58.3291 48.8841 58.3291C48.8526 58.3396 48.8263 58.3449 48.8001 58.3501C48.8001 58.3501 48.8001 58.3501 48.7948 58.3501C48.7843 58.3501 48.7685 58.3607 48.758 58.3607C48.758 58.3607 48.758 58.3607 48.7528 58.3607C48.7528 58.3607 48.7528 58.3607 48.758 58.3607H48.7633C48.6739 58.3817 48.5899 58.4027 48.5005 58.429C48.5058 58.429 48.511 58.429 48.5215 58.4237C47.8909 58.5866 47.2604 58.7495 46.6298 58.9072C45.7049 59.1437 44.78 59.3853 43.8551 59.6376C42.431 60.0264 41.0122 60.4048 39.5933 60.8042C39.6091 60.8042 39.6249 60.7937 39.6406 60.7937C39.6196 60.7989 39.5986 60.8042 39.5828 60.8095C39.5828 60.8095 39.5776 60.8095 39.5723 60.8095C39.5723 60.8095 39.5723 60.8095 39.5618 60.8095C39.5618 60.8095 39.5618 60.8095 39.5513 60.8095H39.5408C39.5408 60.8095 39.5408 60.8095 39.5355 60.8095C39.5355 60.8095 39.525 60.8095 39.5198 60.8095C39.5198 60.8095 39.4777 60.8199 39.4515 60.8252C39.4672 60.8252 39.483 60.8147 39.4987 60.8147C37.959 61.2299 36.4246 61.6502 34.8901 62.0706C34.8586 62.0811 34.8218 62.0916 34.785 62.1021C34.785 62.1021 34.7535 62.1074 34.7377 62.1127H34.743C34.743 62.1127 34.722 62.1179 34.7062 62.1232C34.7062 62.1232 34.6957 62.1232 34.6904 62.1232C34.6904 62.1232 34.7009 62.1232 34.7062 62.1232C33.2716 62.4963 31.8317 62.8746 30.4024 63.2687C30.3813 63.274 30.3603 63.2792 30.3341 63.2845C30.3341 63.2845 30.3183 63.2898 30.313 63.295C29.1464 63.6103 27.9746 63.9256 26.8027 64.2461C26.8027 64.2461 26.808 64.2461 26.8132 64.2461C26.7764 64.2566 26.7449 64.2672 26.7134 64.2724L26.6766 64.2409ZM14.8792 64.2882C14.6795 64.2882 14.5323 64.5089 14.5534 64.7663C14.5744 65.0291 14.7635 65.2393 14.958 65.2393C15.268 65.2393 15.5833 65.2025 15.8881 65.171C16.1719 65.1395 16.4504 65.0922 16.7289 65.0291C17.0389 64.9608 17.349 64.882 17.6485 64.7926C17.8062 64.7454 17.9638 64.698 18.1215 64.6455C18.2791 64.5982 18.4368 64.5352 18.5944 64.4879H18.6049C18.6995 64.5615 18.7941 64.6245 18.8939 64.6771C19.0043 64.7349 19.1199 64.7611 19.2303 64.7821C19.4562 64.8242 19.6874 64.8242 19.9134 64.8189C20.1026 64.8189 20.2392 64.6087 20.2182 64.367C20.1972 64.12 20.0238 63.9203 19.8346 63.9203C19.698 63.9203 19.5508 63.9203 19.409 63.9098C19.3459 63.8993 19.2828 63.8888 19.2145 63.8783H19.204C19.204 63.8783 19.1987 63.8783 19.1935 63.8783C19.162 63.8678 19.1357 63.8573 19.1042 63.8467C19.0884 63.8362 19.0726 63.831 19.0568 63.8258C19.0201 63.8047 18.9886 63.7837 18.9518 63.7575C18.8572 63.6786 18.7626 63.6208 18.6575 63.5893C18.5419 63.5577 18.421 63.5788 18.3159 63.6156C18.2003 63.6471 18.0899 63.6891 17.9743 63.7259C17.7589 63.7889 17.5487 63.852 17.3332 63.9151C17.1808 63.9571 17.0232 64.0044 16.8708 64.036C16.6921 64.078 16.5134 64.1253 16.3348 64.1516C16.009 64.2041 15.6726 64.2462 15.3468 64.2829H15.3573C15.3573 64.2829 15.3416 64.2829 15.3363 64.2829C15.3363 64.2829 15.3416 64.2829 15.3468 64.2829C15.3416 64.2829 15.3363 64.2829 15.3258 64.2829C15.1734 64.2934 15.021 64.3039 14.8686 64.3039L14.8792 64.2882ZM71.0339 44.267C70.5925 44.3354 70.1511 44.3984 69.7096 44.4825C68.7007 44.6401 67.697 44.8188 66.6933 44.9922C65.4321 45.2077 64.1709 45.4284 62.9097 45.6543C62.4367 45.7384 61.9638 45.812 61.4961 45.9066C60.7919 46.0432 60.093 46.1798 59.3941 46.3165C58.8581 46.4216 58.3221 46.5161 57.7913 46.6317C57.208 46.7631 56.6247 46.8945 56.0414 47.0259C54.9484 47.2728 53.8554 47.5146 52.7676 47.7826C51.6272 48.0611 50.4816 48.3291 49.3413 48.6233C47.9803 48.9702 46.6193 49.317 45.2582 49.6743C42.9565 50.2734 40.6601 50.8829 38.3637 51.5083C36.1461 52.1178 33.939 52.7432 31.7109 53.3265C31.0067 53.5104 30.3025 53.6943 29.5931 53.8835C29.0834 54.0149 28.5631 54.1304 28.0481 54.2566C26.8185 54.5561 25.5835 54.8399 24.3486 55.1289C23.7863 55.2603 23.2241 55.3916 22.667 55.523C22.1048 55.6544 21.5425 55.8015 20.9802 55.9434C19.7821 56.2482 18.5997 56.6265 17.4226 57.0364C17.2334 57.0995 17.1178 57.336 17.1756 57.5987C17.2229 57.8089 17.3963 57.9876 17.5644 57.9876C17.5907 57.9876 17.617 57.9876 17.638 57.9718C17.9376 57.8667 18.2318 57.7668 18.5366 57.6722C18.7521 57.5987 18.9623 57.5199 19.1777 57.4568C19.6612 57.315 20.1394 57.1678 20.6229 57.0259C20.8803 56.9523 21.1378 56.8945 21.3953 56.8262C21.7159 56.7474 22.0364 56.6633 22.3623 56.5792C22.5987 56.5162 22.8352 56.4689 23.0769 56.4111C23.4658 56.3218 23.8547 56.2272 24.2435 56.1379C25.2525 55.9014 26.2562 55.6702 27.2652 55.4285C28.0271 55.2445 28.7891 55.0606 29.5511 54.8714C29.9872 54.7663 30.4129 54.6507 30.849 54.5351C31.9946 54.2356 33.1402 53.9308 34.2805 53.6155C35.3841 53.3107 36.4824 53.0007 37.5859 52.7064C38.7683 52.3858 39.9507 52.0496 41.133 51.7448C42.5151 51.3927 43.8972 51.0301 45.2792 50.678C46.4458 50.3837 47.6125 50.0947 48.7738 49.8057C49.8195 49.5482 50.8705 49.3012 51.9215 49.0542C52.9988 48.802 54.0813 48.5498 55.1638 48.3133C56.3094 48.0716 57.4498 47.8088 58.6006 47.5881C59.783 47.3622 60.9653 47.1257 62.1477 46.9155C64.7121 46.4583 67.2766 45.9906 69.8357 45.5072H69.8463C70.3035 45.4179 70.7554 45.3285 71.2073 45.2392C71.407 45.1971 71.5121 44.9187 71.4596 44.6664C71.4123 44.4562 71.2441 44.2723 71.0707 44.2723C71.0602 44.2723 71.0444 44.2723 71.0339 44.2723V44.267ZM13.3499 55.3549C13.1818 55.4022 13.0136 55.481 12.919 55.6649C12.8402 55.812 12.8297 56.0485 12.898 56.2271C12.9558 56.3743 13.0504 56.4951 13.1398 56.616C13.2186 56.7316 13.3342 56.8 13.4393 56.8C13.5076 56.8 13.5759 56.7684 13.639 56.7106C13.7388 56.6055 13.7756 56.4111 13.7336 56.2429C13.7756 56.2429 13.8124 56.2324 13.8492 56.2324C13.8334 56.2324 13.8176 56.2324 13.8071 56.2324C14.2012 56.2219 14.6059 56.2535 15 56.2692C15.3836 56.2902 15.7882 56.2902 16.1351 56.1116C16.298 56.0275 16.4504 55.9171 16.5923 55.7858C16.7342 55.6596 16.8498 55.5125 16.9549 55.3391C16.9549 55.3391 16.9549 55.3338 16.9549 55.3286C16.9601 55.3181 16.9654 55.3128 16.9759 55.3023C16.9759 55.3023 16.9864 55.2918 16.9916 55.2918C17.0074 55.2813 17.0232 55.276 17.039 55.2655C17.0652 55.255 17.0915 55.2445 17.123 55.2392C17.1073 55.2392 17.0915 55.2445 17.0757 55.2497C17.328 55.2025 17.5855 55.1972 17.8429 55.1709C18.0531 55.1499 18.2634 55.1237 18.4736 55.0921C18.8677 55.0343 19.2566 54.9555 19.6454 54.8924C19.8346 54.8609 19.9555 54.6454 19.9187 54.3932C19.8766 54.1515 19.6875 53.9623 19.5035 53.9886C19.0201 54.0674 18.5419 54.1568 18.0584 54.2303C17.8535 54.2619 17.6485 54.2724 17.4436 54.2829C17.3595 54.2881 17.2754 54.2934 17.1966 54.3039C17.0757 54.3144 16.9496 54.3249 16.8393 54.3722C16.7342 54.409 16.6396 54.4563 16.5502 54.5298C16.4767 54.5929 16.4189 54.6823 16.3611 54.7716C16.3453 54.8031 16.3295 54.8241 16.3138 54.8504C16.2717 54.8977 16.2349 54.9397 16.1929 54.9817C16.1088 55.0553 16.0247 55.1184 15.9302 55.1814C15.8724 55.213 15.8198 55.2393 15.7567 55.2655C15.7252 55.2813 15.6937 55.2918 15.6569 55.2971C15.5623 55.3181 15.4677 55.3233 15.3679 55.3286H15.3889C15.3889 55.3286 15.3679 55.3286 15.3573 55.3286H15.3626H15.3521C14.9107 55.3391 14.4588 55.2813 14.0173 55.2813H13.9385C13.7441 55.2813 13.5444 55.2813 13.3552 55.3391L13.3499 55.3549ZM8.1948 44.9186C7.87425 45.0132 7.54845 45.1288 7.21739 45.1866C7.1806 45.1972 7.1438 45.2024 7.10702 45.2024C7.47487 47.3674 7.84273 49.5324 8.20007 51.6974C8.60995 51.6028 9.01986 51.4925 9.42975 51.3822C9.19853 50.2051 8.98305 49.0227 8.78336 47.8404C8.69403 46.8997 8.38926 45.7909 8.44707 44.8451C8.36824 44.8661 8.27889 44.8924 8.20007 44.9134L8.1948 44.9186ZM11.4109 43.9728C10.6804 44.1882 9.95524 44.4037 9.22479 44.6139C9.20377 44.6191 9.18275 44.6244 9.15648 44.6349C9.15648 44.6822 9.15647 44.7347 9.14596 44.7768C9.36666 46.926 9.7713 49.0542 10.2337 51.1719C10.8486 51.0143 11.4634 50.8514 12.073 50.6885C12.3252 50.6202 12.5775 50.5519 12.835 50.4888C12.7299 48.9281 13.2869 46.3637 13.4235 45.607C13.5444 45.2287 13.5339 44.1304 13.6495 43.3106C12.9033 43.5261 12.1571 43.7468 11.4109 43.9675V43.9728ZM17.0337 42.328C17.0442 42.9428 16.7867 43.5156 16.7289 44.1199C16.6816 44.4825 16.6396 44.8451 16.5975 45.2077C16.5818 45.3495 16.566 45.4914 16.5502 45.6333C16.4609 46.4163 16.3821 47.1993 16.2822 47.9717C16.2454 48.3553 16.1666 48.8335 15.988 49.1804C15.9564 49.3485 15.9249 49.5167 15.8986 49.6848C16.1614 49.6165 16.4241 49.5482 16.6869 49.4746C18.4578 49.0069 20.2287 48.534 21.9997 48.0663C21.9313 46.8997 22.5514 45.2812 22.6303 44.4142C22.893 43.1215 23.1137 41.813 23.3449 40.5046C23.3449 40.494 23.3449 40.4888 23.3449 40.4783C21.2429 41.1036 19.1357 41.7184 17.0284 42.3332L17.0337 42.328ZM26.2299 39.6217C26.4138 39.9843 26.4821 40.4835 26.3876 40.8461C26.1511 41.9234 25.9514 43.0111 25.7307 44.0936C25.4995 45.1236 25.3471 46.1903 25.1421 47.2308C25.3733 47.173 25.6046 47.1099 25.8358 47.0469C26.9761 46.7421 28.1112 46.4426 29.2515 46.1378C29.1622 45.0395 29.6667 43.6102 29.756 42.7379C30.0293 41.2613 30.3183 39.7899 30.6178 38.3238C29.1569 38.7599 27.6961 39.1855 26.2352 39.6217H26.2299ZM33.7235 37.4042C33.8549 37.8561 33.8129 38.308 33.692 38.7284C33.4765 39.7373 33.2348 40.7358 32.9773 41.7184C32.7251 42.7484 32.5096 43.7941 32.2469 44.8188C32.2153 44.9817 32.1733 45.1761 32.1208 45.3706C33.0404 45.1288 33.96 44.8871 34.8744 44.6402C35.4156 44.4983 35.9516 44.3511 36.4929 44.2092C36.4561 43.9833 36.4614 43.7468 36.5139 43.5419C36.6453 42.5119 36.824 41.4977 37.0184 40.4888C37.2917 39.0437 37.5912 37.6091 37.875 36.1693C36.4877 36.5791 35.1056 36.989 33.7183 37.3989L33.7235 37.4042ZM40.5077 35.3915C40.4657 35.402 40.4236 35.4178 40.3816 35.4336C40.6075 35.854 40.576 36.3847 40.4341 36.7998C40.2607 39.1277 39.7405 41.3401 39.1782 43.5051C40.5235 43.1477 41.8688 42.7904 43.2193 42.4278C43.1089 41.2087 43.8446 39.3169 43.9445 38.4709C44.1599 37.215 44.4069 35.9643 44.6066 34.6979C44.6381 34.5455 44.6644 34.3458 44.6959 34.1514C43.2981 34.5613 41.9055 34.9764 40.5077 35.3915ZM4.13271 32.7431C4.04338 32.7904 3.94878 32.8324 3.85944 32.8744C3.48108 33.4525 3.08172 33.9727 2.66132 34.4824C3.95405 37.2938 5.32559 40.0474 6.56051 42.8955C7.17535 42.5907 7.79018 42.2859 8.39976 41.9864C9.75029 41.3243 11.1008 40.6517 12.4514 39.9791C12.4829 39.9633 12.5092 39.9475 12.5407 39.937C9.84488 38.7284 3.70706 34.4667 4.43225 32.5959C4.33241 32.6432 4.23782 32.6905 4.13797 32.7378L4.13271 32.7431ZM48.8369 32.927C48.3849 33.0583 47.933 33.195 47.4811 33.3264C47.6387 33.8308 47.5704 34.4929 47.3602 34.8923C47.0922 35.5702 47.0134 36.3532 46.8767 37.0994C46.6035 38.597 46.2672 40.0631 45.9308 41.5292C45.9203 41.587 45.8993 41.6501 45.8888 41.7132C47.0292 41.4084 48.1695 41.1036 49.3098 40.7988C49.2047 39.2802 50.0928 36.7788 50.1926 35.8014C50.3818 34.8398 50.5605 33.8781 50.6971 32.8954C50.7181 32.7378 50.7287 32.5486 50.7497 32.3542C50.1138 32.5434 49.4727 32.7326 48.8369 32.9165V32.927ZM57.1555 30.4572C55.8733 30.8408 54.5858 31.2192 53.3036 31.6028C53.3614 31.9023 53.3719 32.2491 53.3089 32.6327C53.146 33.505 52.7781 37.7983 52.0529 40.0684C52.3524 39.9896 52.6572 39.9107 52.9515 39.8267C53.7555 39.6112 54.5648 39.401 55.3688 39.1803C55.2006 37.5355 56.1781 35.1656 56.4355 34.0042C56.7141 32.9532 56.9348 31.876 57.166 30.7988C57.1923 30.6884 57.2186 30.5623 57.2501 30.4256C57.2133 30.4362 57.1818 30.4467 57.1502 30.4572H57.1555ZM59.7935 29.6742C59.9406 30.247 59.8776 30.8618 59.7935 31.4188C59.5518 32.8534 59.1681 34.2197 58.9054 35.6438C58.7267 36.5739 58.4798 37.4777 58.2958 38.4078C59.2155 38.1608 60.1298 37.9191 61.0494 37.6722C61.0179 37.504 61.0126 37.3358 61.0337 37.1835C61.1755 35.7384 61.4698 34.3405 61.7221 32.9322C61.8902 32.2333 62.2476 30.0368 62.7626 28.7966C61.7746 29.0909 60.7867 29.3852 59.7987 29.6847L59.7935 29.6742ZM8.14753 30.783C7.74289 30.9827 7.33826 31.1771 6.93363 31.3768C7.61678 31.7078 8.30517 32.0284 8.99357 32.3647C11.311 33.5523 13.7178 34.4929 15.9091 36.1062C16.5502 36.495 16.8392 37.1887 16.7972 37.8245C18.1477 37.1519 19.5035 36.4793 20.8541 35.8067C21.6844 35.3915 22.5146 34.9816 23.3397 34.5718C19.4667 33.6522 15.7672 31.2612 12.073 29.2959C11.9521 29.2433 11.8628 29.1382 11.7997 29.0173C10.5806 29.6111 9.36143 30.1892 8.14753 30.7777V30.783ZM65.4058 28.0031C65.2797 28.0399 65.1483 28.0767 65.0222 28.1135C65.4479 29.979 64.5177 33.4209 64.1814 34.8766C63.9765 35.6385 63.8188 36.2481 63.6507 36.968C64.565 36.7263 65.4741 36.4793 66.3885 36.2428C66.3832 36.227 66.378 36.2113 66.378 36.1955C66.0417 34.5665 66.5724 33.0636 66.977 31.6395C67.3764 30.247 67.7075 28.8282 68.0701 27.4199C68.0596 27.3515 68.0596 27.2832 68.0648 27.2149C67.182 27.4829 66.2992 27.7457 65.4111 28.0084L65.4058 28.0031ZM20.481 24.8134C19.0463 25.5071 17.617 26.206 16.1824 26.8996C16.0878 26.9417 15.9984 26.989 15.9039 27.031C15.9249 27.0415 15.9407 27.0468 15.9617 27.052C18.0584 28.0347 20.1657 28.949 22.2887 29.8108C23.8021 30.557 25.3471 31.0983 26.9131 31.5292C27.2651 31.6395 27.5016 32.0336 27.591 32.4645C28.1427 32.1913 28.705 31.9128 29.262 31.6343C29.9504 31.2927 30.6441 30.9511 31.3325 30.6096C27.6961 29.6006 24.3539 26.9469 20.9381 24.9448C20.8698 24.8712 20.8068 24.7819 20.7595 24.6768C20.6702 24.7241 20.5808 24.7661 20.4915 24.8082L20.481 24.8134ZM28.5421 20.867C27.0234 21.6132 25.5047 22.3594 23.9808 23.1056C24.0649 23.1476 24.1489 23.1844 24.2278 23.2212C25.5468 23.815 26.8605 24.4298 28.1953 24.9553C30.2132 25.7646 32.2416 26.5318 34.2648 27.3095C34.6011 27.4356 34.9532 27.5144 35.1949 27.898C35.3315 28.0977 35.4104 28.3447 35.4314 28.5812C36.2196 28.1923 37.0079 27.8035 37.8014 27.4146C38.2113 27.2097 38.6212 27.01 39.0363 26.805C37.4178 26.3374 35.8623 25.2916 34.3279 24.4088C32.8039 23.547 31.2484 22.4014 29.7665 21.5606C29.5616 21.5606 29.3619 21.3662 29.262 21.0877C29.199 20.9091 29.1727 20.7251 29.1885 20.5465C28.973 20.6515 28.7576 20.7567 28.5421 20.8618V20.867ZM13.639 28.1188C13.6705 28.1293 13.7073 28.1398 13.7336 28.1503C13.7283 28.1293 13.7178 28.1083 13.7125 28.0872C13.6863 28.0977 13.66 28.1082 13.6337 28.124L13.639 28.1188ZM32.3572 18.991C32.6095 19.1487 32.8459 19.3063 33.0509 19.4219C34.7587 20.4361 36.5087 21.2821 38.2638 22.1019C39.6879 22.8218 41.133 23.4472 42.5571 24.1776C42.7936 24.309 43.0196 24.4824 43.1615 24.7714C44.1757 24.2722 45.1846 23.773 46.1988 23.279C43.3454 22.4067 40.7126 20.4046 38.0799 18.5128C37.6069 18.1923 37.1288 17.877 36.6558 17.5512C36.4877 17.4513 36.3352 17.2832 36.2459 17.0782C34.9479 17.7141 33.65 18.3499 32.3572 18.9858V18.991ZM39.1256 15.6699C41.0174 16.6946 42.9302 17.651 44.8063 18.744C46.3828 19.6899 48.0066 20.5097 49.5936 21.382C49.6461 21.4293 49.6934 21.4818 49.7302 21.5449C50.8495 20.9931 51.9741 20.4414 53.0986 19.8896C50.3608 18.7756 47.7228 17.1413 45.1636 15.3546C44.6329 14.8712 43.419 14.5138 43.2508 13.6468C41.874 14.3194 40.5024 14.9973 39.1256 15.6699ZM46.1673 12.2122C48.5321 13.589 50.9388 14.7713 53.3614 15.8906C54.5805 16.5948 55.9311 16.9206 57.0924 17.7614C57.1239 17.7981 57.1555 17.8402 57.1818 17.8822C58.0278 17.4671 58.8739 17.0519 59.7199 16.6368C56.7246 15.26 53.8606 13.3 51.2384 10.8722C50.9178 10.7513 50.6656 10.4361 50.5552 10.0577C49.0943 10.7724 47.6335 11.4923 46.1673 12.2122ZM53.1827 8.75973C52.9042 8.89636 52.6257 9.03823 52.3419 9.17486C53.3824 9.71086 54.4124 10.3152 55.4319 10.9353C57.6915 12.3751 59.9354 13.9148 62.3106 14.9237C62.4368 14.9973 62.5313 15.1024 62.6102 15.2232C62.7678 15.1444 62.9255 15.0656 63.0831 14.992C63.8819 14.6032 64.6754 14.2091 65.4741 13.8149C62.1425 12.4224 58.9842 10.105 56.0362 7.56686C55.9942 7.51957 55.9626 7.46702 55.9363 7.40922C55.0167 7.86114 54.1023 8.31307 53.1827 8.76499V8.75973ZM58.1802 6.30571C59.3205 6.91527 60.4399 7.68775 61.5434 8.31308C63.0568 9.20641 64.6018 10.0104 66.1415 10.8039C66.4883 11.0088 66.8772 11.1034 67.1978 11.3767C67.7706 11.5606 68.3171 11.8338 68.6324 12.2647C69.1841 11.9967 69.7307 11.7235 70.2824 11.4555C70.1195 11.1034 70.046 10.662 69.9041 10.3152C69.8725 10.2311 69.8463 10.1418 69.82 10.0577C69.7412 10.0367 69.6623 9.99988 69.5783 9.93682C67.5498 8.84906 65.553 7.64568 63.5771 6.38451C63.0779 5.96937 61.9165 5.46492 61.412 4.72924C60.3348 5.25473 59.2522 5.78545 58.1749 6.31619L58.1802 6.30571ZM65.4689 2.73239C65.1115 2.9058 64.7542 3.07921 64.3969 3.25787C64.9434 3.52587 65.4794 3.82015 66.0207 4.10916C66.6197 4.42971 67.2188 4.73975 67.8179 5.0603C67.4868 4.2563 66.9455 3.07921 66.7931 2.2069C66.7511 2.19639 66.7143 2.17011 66.6828 2.13858C66.2781 2.33827 65.8735 2.5327 65.4741 2.73239H65.4689Z" fill="#050505"/>
<path d="M66.7874 2.20663C66.9398 3.07894 67.4811 4.25604 67.8121 5.06003C67.2131 4.73949 66.614 4.42945 66.015 4.11416C65.4789 3.82514 64.9377 3.53084 64.3912 3.26284C64.7485 3.08943 65.1058 2.91602 65.4632 2.73735C65.8678 2.54292 66.2724 2.34323 66.6718 2.1488C66.7034 2.18033 66.7401 2.20135 66.7822 2.21186L66.7874 2.20663Z" fill="white"/>
<path d="M70.2821 11.451C69.7304 11.7243 69.1838 11.9923 68.6321 12.2603C68.3168 11.8294 67.7703 11.5561 67.1975 11.3722C66.8769 11.099 66.488 11.0043 66.1412 10.7994C64.6015 10.0112 63.0618 9.20193 61.5431 8.30859C60.4343 7.68326 59.3202 6.91079 58.1799 6.30122C59.2572 5.77048 60.3397 5.23972 61.417 4.71423C61.9162 5.44992 63.0776 5.9544 63.582 6.36954C65.5632 7.63071 67.5548 8.83409 69.5832 9.92185C69.662 9.98491 69.7461 10.0217 69.825 10.0427C69.8512 10.1268 69.8828 10.2161 69.909 10.3002C70.0457 10.6523 70.1245 11.0937 70.2821 11.4457V11.451Z" fill="white"/>
<path d="M65.4737 13.8148C64.6749 14.2036 63.8762 14.5977 63.0827 14.9866L62.6097 15.2231C62.5361 15.1022 62.4363 14.9971 62.3102 14.9235C59.935 13.9146 57.6858 12.3802 55.4314 10.9351C54.4172 10.3098 53.3872 9.70545 52.3415 9.16946C52.6253 9.03283 52.9038 8.89618 53.1823 8.7543C54.1019 8.30238 55.0163 7.85048 55.9359 7.39856C55.9622 7.45636 55.9989 7.50891 56.041 7.5562C58.989 10.0943 62.1473 12.4117 65.4789 13.8042L65.4737 13.8148Z" fill="white"/>
<path d="M59.7146 16.6426C58.8686 17.0577 58.0278 17.4729 57.1764 17.888C57.1502 17.846 57.1239 17.8039 57.0923 17.7671C55.931 16.9211 54.5805 16.6006 53.3613 15.8911C50.9388 14.7719 48.532 13.5895 46.1673 12.2127C47.6334 11.4981 49.0943 10.7781 50.5499 10.0582C50.6603 10.4366 50.9125 10.7519 51.2331 10.8727C53.8553 13.3005 56.7193 15.2658 59.7146 16.6373V16.6426Z" fill="white"/>
<path d="M53.0984 19.8888C51.9738 20.4406 50.8545 20.9923 49.73 21.5494C49.6932 21.4863 49.6459 21.4338 49.5881 21.3865C48.0011 20.5142 46.3773 19.6891 44.8008 18.7485C42.9248 17.6555 41.012 16.7044 39.1202 15.6744C40.497 14.9965 41.8685 14.3239 43.2453 13.6512C43.4187 14.5183 44.6326 14.8756 45.1581 15.3591C47.7226 17.1457 50.3553 18.7748 53.0984 19.8888Z" fill="white"/>
<path d="M46.1989 23.2844C45.1847 23.7783 44.1705 24.2775 43.1563 24.7768C43.0144 24.4877 42.7885 24.3143 42.552 24.183C41.1331 23.4525 39.6828 22.8272 38.2587 22.1073C36.5035 21.2875 34.7589 20.4362 33.0457 19.422C32.8408 19.3012 32.6043 19.1435 32.3521 18.9911C33.6501 18.3553 34.948 17.7195 36.246 17.0836C36.3353 17.2886 36.4825 17.4567 36.6559 17.5565C37.1289 17.8823 37.607 18.1976 38.08 18.5182C40.7127 20.4047 43.3455 22.4068 46.1989 23.2844Z" fill="white"/>
<path d="M39.0355 26.8048C38.6256 27.0098 38.2158 27.2095 37.8059 27.4144C37.0124 27.8033 36.2241 28.1921 35.4359 28.581C35.4201 28.3445 35.3413 28.0975 35.1994 27.8978C34.9577 27.5142 34.6108 27.4354 34.2693 27.3093C32.2461 26.5263 30.2177 25.7644 28.1998 24.9551C26.865 24.4296 25.5513 23.8096 24.2323 23.221C24.1534 23.1842 24.0641 23.1474 23.9853 23.1054C25.5039 22.3644 27.0279 21.6182 28.5466 20.8721C28.7621 20.767 28.9775 20.6566 29.193 20.5515C29.1772 20.7302 29.2035 20.9141 29.2665 21.0928C29.3664 21.3713 29.5661 21.5657 29.771 21.5657C31.2529 22.4065 32.8084 23.552 34.3323 24.4138C35.872 25.2914 37.4223 26.3371 39.0408 26.8101L39.0355 26.8048Z" fill="white"/>
<path d="M31.3212 30.6099C30.6328 30.9515 29.9392 31.2931 29.2508 31.6346C28.6937 31.9131 28.1367 32.1864 27.5797 32.4596C27.4903 32.0287 27.2539 31.6346 26.9018 31.5243C25.3358 31.0934 23.7961 30.5521 22.2774 29.8059C20.1596 28.9441 18.0524 28.0298 15.9504 27.0471C15.9294 27.0418 15.9136 27.0313 15.8926 27.0261C15.9872 26.984 16.0765 26.9367 16.1711 26.8947C17.6057 26.2011 19.0403 25.5074 20.4697 24.8085C20.559 24.7612 20.6483 24.7192 20.7377 24.6771C20.785 24.7822 20.8428 24.8716 20.9164 24.9451C24.3321 26.942 27.6743 29.601 31.316 30.6099H31.3212Z" fill="white"/>
<path d="M23.34 34.5721C22.5149 34.982 21.6794 35.3972 20.8544 35.807C19.4986 36.4797 18.148 37.1523 16.7922 37.8249C16.8343 37.1891 16.5453 36.5007 15.9041 36.1065C13.7128 34.4933 11.306 33.5527 8.9886 32.3651C8.30545 32.0288 7.61706 31.7082 6.92866 31.3719C7.33329 31.1722 7.73792 30.9778 8.14256 30.7834C9.36171 30.1948 10.5809 29.6115 11.7948 29.0177C11.8578 29.1386 11.9524 29.2437 12.068 29.2962C15.757 31.2563 19.4565 33.6473 23.3294 34.5721H23.34Z" fill="white"/>
<path d="M12.5343 39.9379L12.4502 39.9799C11.0997 40.6473 9.74915 41.3199 8.39862 41.9873C7.78378 42.2868 7.17421 42.5916 6.55937 42.8964C5.32445 40.0482 3.95292 37.2947 2.66545 34.4781C3.08584 33.9736 3.49046 33.4534 3.86356 32.8753C3.95815 32.828 4.0475 32.786 4.13683 32.7439C4.23142 32.6966 4.33126 32.6493 4.42585 32.6021C3.70066 34.4728 9.83848 38.7345 12.5343 39.9432V39.9379Z" fill="white"/>
</svg>
