<svg width="171" height="239" viewBox="0 0 171 239" fill="none" xmlns="http://www.w3.org/2000/svg">
<path d="M142.916 146.772C142.422 146.772 142.123 146.246 142.118 145.805C142.118 145.747 142.118 145.689 142.118 145.631C142.118 145.594 142.118 145.552 142.123 145.516C142.123 144.917 142.112 144.312 142.112 143.708C142.112 142.909 142.102 142.105 142.097 141.306C142.081 139.583 142.076 137.859 142.076 136.13C142.065 132.625 142.044 129.12 142.039 125.615C142.039 122.047 142.049 118.479 142.06 114.916C142.07 111.364 142.081 107.812 142.123 104.265C142.154 101.185 142.191 98.1059 142.291 95.0476C142.291 95.0371 142.291 95.0266 142.291 95.0108V94.9688C142.291 94.8742 142.296 94.7796 142.302 94.727C142.302 94.6797 142.302 94.6377 142.302 94.6325C142.302 94.6009 142.302 94.5641 142.302 94.5326V94.5116C142.344 93.2189 142.396 91.9209 142.443 90.623C142.443 90.623 142.443 90.623 142.443 90.6125C142.443 90.581 142.443 90.5442 142.443 90.5336C142.443 90.4023 142.454 90.2761 142.454 90.1553C142.454 90.1395 142.454 90.129 142.454 90.1133C142.454 90.0922 142.454 90.0712 142.454 90.066C142.454 89.9136 142.465 89.7612 142.465 89.7139C142.496 88.6734 142.512 87.6382 142.549 86.6187V86.5977C141.408 86.4348 140.268 86.2719 139.128 86.0985C138.255 85.9671 137.378 85.8358 136.505 85.7097C136.521 86.0407 136.532 86.3718 136.537 86.7028C136.553 87.5068 136.584 88.3056 136.605 89.1043C136.653 90.6808 136.695 92.2572 136.716 93.839C136.763 96.9761 136.789 100.119 136.789 103.256C136.789 106.361 136.789 109.472 136.779 112.578C136.773 115.762 136.768 118.947 136.763 122.131C136.758 125.321 136.779 128.511 136.773 131.695C136.773 134.743 136.773 137.786 136.789 140.828C136.789 141.522 136.789 142.215 136.794 142.909C136.794 143.235 136.794 143.561 136.794 143.887C136.794 144.07 136.794 144.26 136.794 144.444C136.794 144.48 136.8 144.517 136.8 144.554V144.627C136.821 145.022 136.563 145.479 136.164 145.558C136.127 145.563 136.09 145.568 136.059 145.568C135.675 145.568 135.37 145.195 135.323 144.822C135.312 144.759 135.307 144.691 135.307 144.627C135.307 144.601 135.307 144.575 135.307 144.549C135.307 144.507 135.307 144.465 135.318 144.428C135.318 144.212 135.318 144.002 135.313 143.792C135.313 143.445 135.313 143.104 135.313 142.762C135.313 142.011 135.307 141.254 135.302 140.502C135.302 139.005 135.291 137.507 135.286 136.004C135.276 132.893 135.255 129.777 135.239 126.666C135.223 123.477 135.197 120.292 135.176 117.102C135.155 113.944 135.118 110.786 135.102 107.628C135.087 104.496 135.071 101.369 135.071 98.2373C135.071 95.1054 135.108 91.9893 135.181 88.8626C135.202 88.1322 135.213 87.3965 135.234 86.6608C135.244 86.2982 135.244 85.9304 135.26 85.5678C135.26 85.552 135.26 85.5363 135.26 85.5205C132.617 85.1264 129.979 84.7375 127.335 84.3486C123.378 83.7706 119.427 83.1768 115.475 82.583C111.534 81.9892 107.592 81.3954 103.646 80.8016C102.779 80.6702 101.912 80.5388 101.045 80.4075C101.06 80.8121 101.071 81.201 101.082 81.5425C101.087 81.6844 101.092 81.8263 101.097 81.9524C101.097 81.9734 101.097 81.9892 101.097 82.005C101.097 82.0207 101.097 82.0365 101.097 82.0417C101.103 82.1731 101.108 82.2992 101.113 82.4096C101.15 83.4343 101.208 84.4537 101.244 85.4206C101.244 85.4574 101.244 85.4889 101.25 85.5257C101.25 85.5783 101.25 85.6256 101.25 85.6466C101.25 85.7044 101.25 85.7622 101.255 85.8252C101.255 85.8305 101.255 85.8358 101.255 85.8463V85.8673C101.255 85.9146 101.255 85.9671 101.26 86.0302V86.0407C101.26 86.0775 101.26 86.1143 101.26 86.1248C101.26 86.2194 101.271 86.3192 101.271 86.398C101.271 86.4033 101.271 86.4085 101.271 86.4191V86.4768C101.281 86.6503 101.287 86.8237 101.292 86.9603C101.413 90.0765 101.455 93.2031 101.502 96.3193C101.544 99.2463 101.586 102.178 101.612 105.105C101.623 106.235 101.623 107.365 101.623 108.495C101.623 109.388 101.607 110.282 101.633 111.175C101.633 111.212 101.633 111.248 101.633 111.285V111.348C101.649 111.753 101.371 112.231 100.95 112.294C100.913 112.299 100.882 112.305 100.845 112.305C100.419 112.305 100.104 111.863 100.083 111.459C100.083 111.411 100.083 111.364 100.078 111.317C100.078 110.134 100.041 108.947 100.015 107.764C99.9885 106.393 99.9622 105.016 99.9412 103.645C99.8992 100.67 99.8834 97.6908 99.8624 94.7113C99.8413 91.6056 99.8309 88.5 99.8992 85.3943C99.9255 84.1752 99.957 82.9561 99.9728 81.737C99.9833 81.243 99.9832 80.749 99.9937 80.2551C97.939 79.9398 95.8896 79.6192 93.8402 79.2882C93.9137 80.6492 93.9663 82.0102 94.0293 83.3765C94.1029 85.0528 94.166 86.7344 94.2133 88.4107C94.3078 91.7055 94.392 95.0003 94.4445 98.2951C94.4708 99.9189 94.4655 101.543 94.4813 103.166C94.497 104.748 94.4813 106.33 94.4918 107.912C94.4918 108.763 94.4708 109.614 94.4918 110.465C94.4918 110.486 94.4918 110.513 94.4918 110.534V110.581C94.5023 110.991 94.2238 111.49 93.7666 111.49C93.3094 111.49 93.0519 110.991 93.0414 110.581C93.0414 110.565 93.0414 110.555 93.0414 110.534V110.513C93.0046 109.173 92.9468 107.833 92.8995 106.498C92.8417 104.895 92.7892 103.293 92.7366 101.685C92.6893 100.077 92.6368 98.4685 92.6105 96.8553C92.5842 95.242 92.558 93.6288 92.5369 92.0155C92.4949 88.6471 92.4791 85.284 92.5159 81.9156C92.5264 81.0538 92.5317 80.1868 92.5369 79.3249C92.5369 79.2409 92.5369 79.1568 92.5369 79.0727L92.0377 78.9939C90.0566 78.6681 88.0702 78.3476 86.0943 77.9902C84.1973 77.6487 82.3107 77.265 80.4242 76.8867C80.235 76.8499 80.0511 76.8131 79.8672 76.7763C75.5529 76.2824 67.7649 75.4626 65.8469 71.3743C65.0954 69.3879 65.3582 67.1704 65.5211 65.0684C65.5316 63.0821 65.5473 61.101 65.5631 59.1094C65.5894 55.8356 65.6262 52.5565 65.6524 49.2827C65.6787 45.8881 65.705 42.4882 65.726 39.0935C65.7523 35.6988 65.7786 32.2989 65.8101 28.9043C65.8416 25.5516 65.952 22.199 66.0571 18.8464C66.0939 17.6746 66.1306 16.5027 66.1674 15.3361C66.0308 13.5652 65.8942 11.8626 65.768 10.1233C65.684 8.15794 65.684 6.08226 66.5826 4.27983C67.1081 3.2814 67.7439 2.26196 68.569 1.45796C68.9421 1.32659 69.3204 1.22149 69.704 1.13216C70.0613 1.05859 70.4134 0.990274 70.7708 0.93247C73.887 0.0916869 78.9055 0.759056 81.5488 0.848389C88.8952 1.43694 96.1629 2.84526 103.536 3.22361C111.203 3.99608 118.97 3.98556 126.631 4.74227C135.328 5.5305 144.01 6.50791 152.649 7.78485C153.447 7.87944 154.246 7.99505 155.04 8.12642C155.108 8.13167 155.176 8.13693 155.245 8.14744C155.392 8.08438 155.539 8.03183 155.686 7.99505C159.895 7.97403 164.346 10.1338 166.706 13.6808C167.962 15.478 168.566 17.5222 168.813 19.6399C168.855 19.7134 168.881 19.7975 168.897 19.8816C168.955 20.1444 168.939 20.4386 168.95 20.7066C168.96 21.0377 168.971 21.3688 168.981 21.6946C169.002 22.4092 169.023 23.1291 169.039 23.8438C169.076 25.2731 169.118 26.7025 169.181 28.1318C169.191 28.2894 169.197 28.4418 169.197 28.4629C169.207 28.6836 169.218 28.9043 169.223 28.9883C169.233 29.1828 169.244 29.372 169.244 29.4245C169.26 29.7608 169.275 30.0971 169.286 30.281C169.486 34.3063 169.58 38.3368 169.628 42.3673C169.675 46.3242 169.701 50.2812 169.738 54.2381C169.769 58.1635 169.775 62.0889 169.827 66.0143C169.874 69.6664 169.964 73.3239 170.001 76.976C170.011 78.1741 170.016 79.367 170.016 80.5651C170.106 81.2693 169.953 82.1258 169.995 82.7091C169.969 87.0391 168.408 89.8978 163.653 89.4669C163.174 89.4301 162.701 89.3671 162.229 89.2882C162.139 89.3355 162.039 89.3566 161.939 89.3566C161.908 89.3566 161.871 89.3565 161.834 89.346C161.477 89.3092 161.12 89.2567 160.768 89.2094C160.305 89.1516 159.843 89.0886 159.38 89.0255C158.434 88.8994 157.494 88.768 156.553 88.6314C154.619 88.3476 152.691 88.0533 150.762 87.7748C148.361 87.4227 145.959 87.0864 143.558 86.7449C143.568 87.1705 143.579 87.6014 143.584 88.027C143.605 88.8994 143.621 89.7717 143.647 90.6387C143.694 92.4412 143.762 94.2436 143.805 96.046C143.889 99.6036 143.904 103.166 143.91 106.729C143.915 110.297 143.91 113.871 143.899 117.439C143.894 120.986 143.889 124.533 143.852 128.08C143.82 131.574 143.799 135.069 143.763 138.563C143.747 139.846 143.731 141.128 143.715 142.41C143.705 143.445 143.684 144.475 143.684 145.51C143.684 145.537 143.684 145.558 143.684 145.584C143.684 145.642 143.684 145.699 143.684 145.757C143.684 146.209 143.431 146.756 142.916 146.766H142.895L142.916 146.772ZM104.56 29.4613C104.555 30.0446 104.55 30.6331 104.56 31.2164C104.566 32.3147 104.571 33.4182 104.571 34.5217C104.571 36.6552 104.597 38.7835 104.597 40.917C104.597 43.0242 104.571 45.1366 104.524 47.2438C104.503 48.2423 104.471 49.246 104.439 50.2444L104.397 51.7735C104.397 51.8786 104.392 51.9837 104.387 52.0888C104.655 51.9942 104.928 51.8944 105.196 51.7998C106.021 51.5055 106.836 51.1798 107.656 50.8697C109.222 50.2759 110.787 49.6716 112.364 49.1041C115.527 47.9585 118.723 46.897 121.912 45.8197C125.002 44.7793 128.097 43.7546 131.177 42.7036C131.14 42.6458 131.108 42.5828 131.077 42.5197C130.509 42.2464 129.942 41.9732 129.38 41.6947C128.055 41.0431 126.736 40.3862 125.412 39.7293C122.701 38.3841 119.968 37.0861 117.277 35.7041C114.823 34.4429 112.364 33.187 109.947 31.8943L109.899 31.868C109.863 31.847 109.826 31.826 109.784 31.805L109.736 31.7787C108.927 31.3478 108.123 30.9116 107.324 30.465C106.489 29.9973 105.669 29.4928 104.912 29.0829C104.802 29.0199 104.686 28.9621 104.571 28.9043C104.571 29.0934 104.571 29.2773 104.571 29.4613H104.56Z" fill="#050505"/>
<path d="M1.44219 113.75C0.748535 113.314 1.45265 112.289 1.65234 111.721C2.99762 108.836 5.78806 107.039 8.59422 105.747C13.4288 103.802 18.5051 102.494 23.5972 101.438C28.6367 100.329 33.734 99.3514 38.8997 99.1517C39.6459 98.9836 40.1556 99.7192 39.8929 100.402C39.7878 100.733 39.462 100.954 39.1151 100.933C37.9117 100.98 36.6821 101.054 35.5155 101.159C28.0166 102.079 20.5808 103.687 13.392 105.994C9.13023 107.381 4.23255 108.999 2.05698 113.256C1.95188 113.456 1.79952 113.766 1.55779 113.766C1.521 113.766 1.48424 113.76 1.44745 113.745L1.44219 113.75Z" fill="#050505"/>
<path d="M119.537 116.441C119.022 116.331 118.491 116.252 117.966 116.163C117.109 116.01 116.247 115.863 115.391 115.705C113.757 115.416 112.128 115.117 110.493 114.823C107.088 114.208 103.688 113.598 100.283 112.989C96.8198 112.369 93.3567 111.738 89.8884 111.139C86.4412 110.54 82.9939 109.941 79.5414 109.347C76.0626 108.748 72.5838 108.138 69.1102 107.518C65.6419 106.898 62.1737 106.283 58.7107 105.648C55.3422 105.028 51.979 104.397 48.6263 103.693C46.9237 103.335 45.2211 102.983 43.5185 102.626C42.6567 102.447 41.7896 102.253 40.9278 102.064C40.0765 101.875 39.2147 101.706 38.3634 101.512C38.1269 101.454 37.8904 101.402 37.6539 101.339C37.4122 101.276 37.181 101.212 37.0233 101.002C36.8447 100.766 36.8605 100.314 37.118 100.13C37.2651 100.025 37.4174 99.9986 37.5908 100.009C37.7958 100.02 38.006 100.041 38.211 100.067C38.6261 100.114 39.036 100.177 39.4459 100.235C40.3077 100.356 41.1695 100.482 42.0366 100.603C43.7708 100.845 45.5101 101.107 47.2442 101.365C50.639 101.864 54.018 102.416 57.4022 102.989C60.8389 103.572 64.2704 104.187 67.7019 104.796C71.1755 105.416 74.6385 106.047 78.1068 106.678C81.5699 107.313 85.0328 107.944 88.4959 108.585C91.9379 109.221 95.3799 109.836 98.8219 110.445C102.264 111.055 105.711 111.67 109.153 112.285C112.453 112.873 115.753 113.446 119.048 114.045C119.274 114.082 119.506 114.145 119.732 114.171C119.747 114.171 119.758 114.171 119.774 114.171H119.779C120.289 114.25 120.578 114.817 120.583 115.306C120.583 115.832 120.247 116.462 119.674 116.462C119.632 116.462 119.584 116.462 119.537 116.452V116.441Z" fill="#050505"/>
<path d="M70.9556 106.609C66.594 106.236 62.4216 104.843 58.1283 104.065C55.2643 103.472 52.3425 103.235 49.489 102.568C45.6319 101.701 41.78 100.739 37.8283 100.398C36.9717 100.303 36.0993 100.324 35.248 100.193C34.8276 100.088 34.8276 99.3781 35.248 99.273C35.5371 99.1994 35.8523 99.1994 36.1466 99.1837C42.9255 98.7423 49.4102 101.012 56.0315 102.042C59.5576 102.773 63.0469 103.692 66.5415 104.554C71.0555 105.474 75.5695 106.372 80.0573 107.413C77.0672 107.208 73.9772 106.94 70.9556 106.614V106.609Z" fill="#050505"/>
<path d="M129.317 135.71C128.597 135.117 128.87 134.071 128.781 133.256C128.723 131.391 128.623 129.604 128.324 127.776C127.63 123.803 125.565 120.166 122.396 117.655C120.378 116.304 118.014 115.721 115.743 115.053C115.665 115.027 115.575 115.022 115.502 115.069C115.255 115.18 115.018 114.996 114.903 114.796C114.682 114.391 114.892 113.834 115.344 113.719C116.085 113.272 116.994 113.493 117.798 113.608C118.739 113.761 119.685 113.913 120.604 114.165C126.926 115.957 130.284 122.752 130.694 128.932C130.815 130.508 130.82 132.1 130.82 133.682C130.82 134.365 130.93 135.248 130.316 135.716C130.158 135.831 129.99 135.889 129.822 135.889C129.653 135.889 129.48 135.831 129.317 135.716V135.71Z" fill="#050505"/>
<path d="M130.215 234.286C129.648 234.286 129.259 233.624 129.27 233.067C129.27 232.977 129.264 232.883 129.264 232.794C129.264 232.72 129.269 232.646 129.28 232.568C129.291 231.806 129.275 231.044 129.28 230.282C129.28 229.173 129.27 228.069 129.264 226.966C129.254 224.906 129.264 222.846 129.249 220.781C129.222 216.214 129.191 211.648 129.175 207.081C129.159 202.567 129.149 198.053 129.143 193.545C129.133 189.015 129.07 184.48 129.038 179.95C129.007 175.337 128.991 170.723 128.98 166.104C128.97 161.642 128.98 157.186 128.97 152.725C128.959 148.279 128.996 143.833 129.133 139.393C129.149 138.889 129.17 138.379 129.185 137.869C129.185 137.827 129.185 137.79 129.185 137.748C129.185 137.712 129.185 137.675 129.185 137.638C129.185 137.559 129.191 137.475 129.196 137.396C129.217 136.802 129.243 136.214 129.264 135.625C129.264 135.505 129.27 135.389 129.275 135.326C129.275 135.194 129.285 135.063 129.285 134.974C129.296 134.58 129.312 134.18 129.322 133.818C129.322 133.749 129.322 133.681 129.322 133.671V133.613C129.343 133.061 129.359 132.504 129.422 131.952C129.453 131.668 129.506 131.411 129.611 131.153C129.685 130.975 129.858 130.828 130.047 130.822C130.252 130.822 130.415 130.97 130.499 131.138C130.631 131.385 130.673 131.689 130.704 131.963C130.767 132.499 130.788 133.04 130.804 133.581C130.846 134.7 130.883 135.82 130.935 136.939C131.035 139.193 131.104 141.448 131.146 143.702C131.23 148.106 131.219 152.509 131.224 156.908C131.235 161.411 131.256 165.915 131.245 170.418C131.235 175.053 131.235 179.682 131.203 184.312C131.172 188.826 131.156 193.34 131.156 197.849C131.156 202.357 131.156 206.913 131.156 211.443C131.156 215.836 131.119 220.234 131.125 224.627C131.125 226.078 131.114 227.528 131.114 228.979C131.114 229.751 131.114 230.518 131.119 231.291C131.119 231.706 131.119 232.116 131.119 232.536C131.13 232.604 131.135 232.678 131.135 232.752C131.135 232.809 131.135 232.846 131.135 232.883C131.135 232.988 131.135 233.093 131.125 233.198C131.072 233.713 130.751 234.275 130.221 234.291H130.205L130.215 234.286Z" fill="#050505"/>
<path d="M130.348 144.274C130.148 142.125 129.838 139.997 129.533 137.863C129.491 136.718 128.455 132.966 129.544 132.398C130.138 132.225 130.501 132.981 130.106 133.407C130.548 137.012 130.695 140.659 130.353 144.279L130.348 144.274Z" fill="#050505"/>
<path d="M129.133 135.852C129.164 135.027 129.175 134.338 129.317 133.55C129.369 133.335 129.422 133.103 129.627 132.988C129.879 132.846 130.137 133.088 130.158 133.345C129.995 137.402 130.1 141.532 129.858 145.557C129.506 142.331 129.086 139.099 129.133 135.857V135.852Z" fill="#050505"/>
<path d="M1.08478 117.743C1.11105 114.433 1.69961 111.122 4.23777 108.894C5.00499 108.211 5.84057 107.181 6.90208 107.102C7.31197 107.291 7.23309 107.916 6.84422 108.079C6.39754 108.452 6.02448 108.889 5.63561 109.32C3.14475 111.605 2.81891 114.606 2.78213 117.748C2.77162 118.442 2.35122 118.794 1.93082 118.794C1.51042 118.794 1.09529 118.447 1.08478 117.748V117.743Z" fill="#050505"/>
<path d="M2.64016 207.361C2.48776 207.298 2.32491 207.271 2.16726 207.282C1.70482 207.019 1.24238 206.751 0.779938 206.494C0.779938 206.315 0.779938 206.163 0.779938 206.084C0.779938 204.297 0.790399 202.51 0.795654 200.718C0.795654 200.645 0.795654 200.566 0.795654 200.492C0.795654 200.482 0.795654 200.477 0.795654 200.466C0.806164 198.338 0.811434 196.21 0.811434 194.087C0.811434 190.035 0.83775 185.989 0.853515 181.937C0.86928 177.818 0.879772 173.703 0.900792 169.583C0.916557 165.563 0.932294 161.538 0.937549 157.518C0.937549 154.517 0.942824 151.522 0.958589 148.727C0.958589 148.501 0.958589 148.275 0.958589 148.106C0.958589 147.959 0.958589 147.812 0.958589 147.702V147.613C0.958589 147.486 0.958589 147.366 0.958589 147.318V147.26C0.958589 147.15 0.958589 147.04 0.958589 146.877V146.567C0.958589 146.451 0.958589 146.33 0.958589 146.02C0.958589 145.789 0.958589 145.558 0.958589 145.369V145.279C0.958589 145.158 0.958589 145.043 0.958589 145.027V144.812C0.958589 144.633 0.958589 144.454 0.958589 144.397C0.958589 144.328 0.958589 144.26 0.958589 144.123C0.958589 143.945 0.958589 143.771 0.958589 143.719V143.514C0.958589 143.409 0.958589 143.304 0.958589 143.219C0.958589 142.972 0.958589 142.731 0.958589 142.563C0.974354 138.621 1.02165 134.68 1.08996 130.739C1.15302 126.861 1.25813 122.983 1.42103 119.105C1.47358 117.849 1.51564 116.588 1.57345 115.326C1.59972 114.806 1.62596 114.286 1.668 113.766C1.69427 113.435 1.69427 113.046 1.85717 112.752C1.98855 112.515 2.29335 112.473 2.46677 112.683C2.47728 112.699 2.49301 112.715 2.50352 112.736C2.62439 112.951 2.63492 113.219 2.6612 113.461C2.69273 113.782 2.70849 114.107 2.72426 114.428C2.77155 115.311 2.7926 116.194 2.81887 117.076C2.88193 118.994 2.95023 120.912 2.99753 122.83C3.09211 126.714 3.11841 130.592 3.14468 134.475C3.1657 138.416 3.14994 142.358 3.14994 146.299C3.14994 148.07 3.13941 149.841 3.1289 151.522C3.1289 151.706 3.1289 151.89 3.1289 152.069V152.284V152.079V152.442C3.1289 152.468 3.1289 152.494 3.1289 152.521V152.699V152.494V152.752C3.1289 152.909 3.1289 153.072 3.1289 153.088C3.1289 153.198 3.1289 153.314 3.1289 153.388V153.508C3.1289 153.598 3.1289 153.687 3.1289 153.698C3.1289 153.85 3.1289 154.008 3.1289 154.139V154.286C3.1289 154.481 3.1289 154.675 3.1289 154.843C3.1289 155.095 3.1289 155.342 3.1289 155.511C3.1289 155.726 3.1289 155.936 3.1289 156.11C3.1289 156.336 3.1289 156.556 3.1289 156.746C3.1289 157.234 3.11838 157.728 3.11838 158.017C3.11838 158.217 3.11838 158.417 3.11838 158.59V158.637C3.11838 158.685 3.11838 158.737 3.11838 158.784V158.711C3.11838 158.963 3.11838 159.205 3.11838 159.273V159.588C3.11838 159.783 3.11838 159.972 3.11838 159.998C3.11838 160.224 3.11838 160.45 3.11838 160.545V160.655C3.11838 160.792 3.11838 160.928 3.11838 161.039V161.433C3.11838 161.659 3.11838 161.88 3.11838 161.901C3.11838 162.71 3.11311 163.514 3.10786 164.239C3.10786 165.18 3.09734 166.115 3.09734 166.851C3.08683 169.946 3.0816 173.036 3.06058 175.931C3.06058 176.546 3.06058 177.161 3.05532 177.723C3.05532 177.896 3.05532 178.07 3.05532 178.191C3.05532 178.501 3.05532 178.811 3.05532 178.921C3.05532 179.935 3.0448 180.95 3.0448 181.906C3.03429 184.208 3.02908 186.514 3.01857 188.616C3.01857 188.911 3.01857 189.205 3.01857 189.3V189.536C3.01857 189.82 3.01857 190.098 3.01857 190.182C3.01857 190.797 3.0133 191.407 3.00805 191.822C3.00805 192.074 3.00805 192.326 3.00805 192.437V192.531C3.00805 192.778 3.00805 193.031 3.00805 193.278V193.335C3.00805 193.498 3.00805 193.661 3.00805 193.787C3.00805 193.808 3.00805 193.835 3.00805 193.856V193.882C3.00805 194.124 3.00805 194.365 3.00805 194.47V194.602C3.00805 194.702 3.00805 194.801 3.00805 195.027V195.369C3.00805 195.369 3.00805 195.411 3.00805 195.416V195.506C3.00805 195.506 3.00805 195.563 3.00805 195.821C3.00805 196.021 3.00805 196.215 3.00805 196.215V196.551C3.00805 196.578 3.00805 196.609 3.00805 196.635V196.625C3.00805 196.798 3.00805 196.977 3.00805 197.266V197.413C3.00805 197.592 3.00805 197.765 3.00805 197.876V198.017V198.07C3.00805 198.275 3.00805 198.485 3.00805 198.49C3.00805 198.769 3.00805 199.042 3.00805 199.273V199.604C3.00805 199.725 3.00805 199.846 3.00805 199.962C3.00805 199.962 3.00805 200.014 3.00805 200.046V200.445C3.0133 200.598 3.00805 200.755 3.00805 200.908V201.092C3.01856 201.27 3.00805 201.459 3.00805 201.638V201.738C3.00805 202.064 3.00804 202.384 3.00279 202.621V202.957V202.763V202.989C3.00279 203.146 3.00279 203.304 3.00279 203.419C3.00279 203.53 3.00279 203.645 3.00279 203.74V203.777C3.00279 203.824 3.00279 203.877 3.00279 203.924V203.861C3.00279 204.082 3.00279 204.297 3.00279 204.334V204.555C3.00279 204.555 3.00279 204.597 3.00279 204.618V204.959C3.00279 205.316 3.00279 205.674 3.00279 205.952C3.00279 206.388 3.00279 206.825 3.00279 207.261V207.46C2.91871 207.424 2.82938 207.387 2.7453 207.35L2.64016 207.361Z" fill="#050505"/>
<path d="M2.68894 126.393C1.83188 122.746 1.61103 119.11 1.49536 115.395C1.48484 114.481 1.36388 113.556 1.46904 112.647C1.5111 112.505 1.5795 112.373 1.71095 112.3C2.4313 112.037 2.44176 113.099 2.50486 113.566C2.61528 114.607 2.71521 115.642 2.79934 116.682C3.1674 119.914 3.1201 123.177 2.6942 126.399C2.6942 126.399 2.6942 126.399 2.68894 126.399V126.393Z" fill="#050505"/>
<path d="M0.805725 119.524C0.868821 118.379 0.695309 113.166 1.66279 112.84C1.98879 112.782 2.21489 113.139 2.19385 113.439C2.08869 116.266 2.20439 119.088 2.278 121.915C2.33058 125.615 2.07295 129.377 1.89417 133.04C1.46302 128.552 0.847789 124.012 0.805725 119.524Z" fill="#050505"/>
<path d="M40.5863 222.101C39.015 221.706 37.4437 221.307 35.8777 220.908C35.6991 220.698 35.5204 220.493 35.3313 220.293C34.7322 219.662 34.1278 219.042 33.513 218.427C33.0926 218.007 32.6617 217.587 32.2256 217.177C34.0543 217.66 35.8831 218.144 37.7065 218.622C39.4512 219.079 41.1958 219.541 42.9405 220.004C42.9457 220.119 42.9562 220.235 42.9667 220.345C43.014 220.96 43.0561 221.575 43.0876 222.195C43.0981 222.374 43.1034 222.553 43.1086 222.731C42.2731 222.521 41.4323 222.306 40.5915 222.101H40.5863Z" fill="#050505"/>
<path d="M103.237 238.128C102.407 237.891 101.566 237.692 100.735 237.476C99.6897 237.203 98.644 236.93 97.5982 236.662C95.4805 236.11 93.3627 235.563 91.245 235.017C87.0673 233.934 82.8791 232.878 78.6961 231.806C74.4238 230.713 70.1515 229.615 65.8792 228.522C62.4056 227.634 58.9373 226.751 55.469 225.868C55.5268 225.705 55.5847 225.548 55.6425 225.385C55.6425 225.4 55.632 225.416 55.6267 225.432C55.7003 225.248 55.7685 225.064 55.8526 224.885C55.8526 224.885 55.8579 224.875 55.8631 224.87C55.8631 224.87 55.8631 224.875 55.8631 224.88C55.8631 224.88 55.8631 224.875 55.8631 224.87C55.8999 224.807 55.9367 224.754 55.9787 224.696C55.9787 224.696 55.9787 224.696 55.9787 224.691C55.9787 224.691 55.9735 224.702 55.9683 224.707C56.1102 224.507 56.252 224.302 56.3676 224.087C56.4517 223.929 56.5411 223.771 56.6094 223.609C58.8165 224.187 61.0236 224.765 63.2359 225.343C67.4294 226.441 71.6228 227.529 75.8163 228.627C80.0413 229.73 84.2716 230.844 88.4966 231.943C92.7058 233.036 96.9203 234.118 101.135 235.201C101.603 235.322 102.07 235.443 102.538 235.558C102.916 235.658 103.3 235.774 103.683 235.852C103.694 235.852 103.705 235.852 103.71 235.852C103.768 235.863 103.82 235.873 103.873 235.894C103.951 235.926 104.03 235.968 104.099 236.026C104.146 236.063 104.188 236.099 104.225 236.147C104.361 236.304 104.456 236.499 104.503 236.698C104.614 237.177 104.461 237.855 103.978 238.091C103.841 238.159 103.715 238.196 103.563 238.196C103.442 238.196 103.326 238.17 103.232 238.123L103.237 238.128Z" fill="#050505"/>
<path d="M1.41568 206.85C1.44195 206.766 1.46297 206.682 1.48923 206.598C1.526 206.672 1.57329 206.803 1.63108 206.976C1.55753 206.934 1.48922 206.892 1.41568 206.855V206.85Z" fill="#050505"/>
<path d="M1.68387 207.003C1.65232 206.467 1.63657 205.931 1.63657 205.411C1.8574 206.031 2.07297 206.656 2.28329 207.281C2.24649 207.281 2.20444 207.281 2.16763 207.281C2.00463 207.187 1.84687 207.097 1.68387 207.003Z" fill="#050505"/>
<path d="M101.597 236.562V236.483C101.581 235.684 101.571 234.88 101.565 234.302C101.502 229.363 101.513 224.423 101.481 219.483C101.455 214.391 101.429 209.299 101.403 204.207C101.376 199.131 101.329 194.055 101.292 188.974C101.261 183.887 101.25 178.795 101.192 173.771C101.171 171.69 101.129 169.609 101.103 167.602C101.103 167.281 101.093 166.966 101.093 166.703C101.03 161.548 100.987 156.393 101.019 151.233C101.045 146.272 101.219 141.312 101.282 136.356C101.282 135.952 101.287 135.552 101.303 135.148C101.313 134.754 101.303 134.328 101.555 133.997C101.781 133.692 102.201 133.619 102.49 133.876C102.627 133.997 102.711 134.149 102.748 134.317C102.79 134.465 102.806 134.622 102.821 134.78C102.848 135.085 102.848 135.389 102.858 135.694C102.879 136.325 102.89 136.95 102.906 137.581C102.937 138.795 102.979 140.003 103.026 141.217C103.126 143.708 103.21 146.204 103.279 148.695C103.342 151.06 103.384 153.424 103.41 155.568C103.473 160.639 103.478 165.71 103.478 170.781C103.478 175.852 103.526 180.944 103.573 186.031C103.615 191.06 103.636 196.083 103.673 201.112C103.715 206.267 103.767 211.422 103.809 216.583C103.83 218.632 103.841 220.682 103.862 222.689V222.757C103.862 222.805 103.862 222.857 103.862 222.899C103.862 223.025 103.862 223.146 103.862 223.262C103.862 223.299 103.862 223.341 103.862 223.372V223.467C103.862 223.593 103.862 223.719 103.862 223.824C103.92 228.028 103.962 232.242 103.941 236.446C103.899 237.077 103.557 237.77 102.869 237.86C102.827 237.865 102.785 237.87 102.737 237.87C102.081 237.87 101.597 237.182 101.581 236.557L101.597 236.562Z" fill="#050505"/>
<path d="M101.533 133.702C101.46 133.256 101.817 132.725 102.28 132.762C108.701 130.959 114.876 128.495 121.171 126.319C122.506 125.846 123.841 125.384 125.17 124.9C125.67 124.716 126.101 125.137 126.211 125.599C126.326 126.072 126.153 126.713 125.654 126.897C119.821 128.968 113.972 131.027 108.055 132.846C106.415 133.324 104.781 133.797 103.115 134.175C102.842 134.243 102.521 134.338 102.232 134.338C101.88 134.338 101.591 134.196 101.533 133.702Z" fill="#050505"/>
<path d="M100.988 134.942L101.056 134.958C100.688 134.869 100.315 134.806 99.9421 134.732C99.4533 134.637 98.9699 134.543 98.4811 134.448C97.4407 134.249 96.4002 134.049 95.3597 133.849C93.305 133.455 91.2609 133.051 89.2062 132.651C84.9917 131.826 80.7771 130.985 76.5626 130.16C72.4007 129.346 68.2387 128.537 64.0715 127.733C59.8781 126.923 55.6793 126.114 51.4859 125.294C47.2504 124.464 43.0148 123.629 38.7793 122.782C34.6121 121.952 30.4397 121.122 26.2777 120.255C21.9686 119.356 17.6753 118.389 13.382 117.422C12.1523 117.144 10.9226 116.886 9.68772 116.624C9.04136 116.487 8.39502 116.345 7.74866 116.203C7.45964 116.14 7.16533 116.072 6.87106 116.004C6.73968 115.972 6.60305 115.935 6.47167 115.899C6.3981 115.878 6.3088 115.857 6.24574 115.814C5.98299 115.646 5.86211 115.352 5.89364 115.042C5.91991 114.764 6.08809 114.469 6.37712 114.406C6.519 114.375 6.67137 114.406 6.808 114.427C7.04973 114.453 7.29146 114.495 7.53319 114.538C8.0692 114.632 8.60518 114.727 9.14644 114.827C10.2027 115.016 11.259 115.21 12.31 115.405C14.3804 115.778 16.4614 116.103 18.5371 116.461C22.8041 117.196 27.066 117.99 31.3225 118.81C35.5475 119.624 39.7673 120.449 43.9923 121.285C48.2225 122.12 52.4475 122.961 56.6725 123.807C60.8187 124.637 64.9597 125.483 69.1058 126.319C73.3414 127.17 77.5821 128.011 81.8229 128.852C85.9586 129.672 90.0995 130.486 94.2299 131.322C95.5647 131.59 96.8942 131.858 98.2237 132.131C98.8543 132.257 99.4848 132.383 100.115 132.515C100.399 132.572 100.683 132.63 100.967 132.683C101.067 132.704 101.166 132.725 101.266 132.74H101.314V132.751C101.813 132.825 102.107 133.366 102.118 133.849C102.128 134.348 101.818 134.995 101.24 134.995C101.145 134.995 101.067 134.974 100.977 134.953L100.988 134.942Z" fill="#050505"/>
<path d="M106.211 238.575C105.675 238.265 105.407 237.618 105.402 236.998V236.909C105.281 234.597 105.271 232.285 105.271 229.967C105.271 227.461 105.25 224.954 105.223 222.447C105.171 217.15 105.129 211.854 105.055 206.551C104.981 201.312 104.924 196.073 104.897 190.834C104.866 185.4 104.897 179.972 104.861 174.544C104.824 169.331 104.74 164.118 104.713 158.9C104.692 153.834 104.682 148.758 105.087 143.708C105.123 143.282 105.155 142.857 105.186 142.426C105.223 141.795 105.26 141.159 105.297 140.524C105.334 139.972 105.344 139.247 105.796 138.863C106.017 138.674 106.337 138.69 106.558 138.863C106.794 139.058 106.894 139.352 106.952 139.641C107.02 139.993 107.052 140.35 107.083 140.708C107.141 141.433 107.183 142.158 107.246 142.883C107.367 144.286 107.509 145.684 107.567 146.835L107.593 147.297C107.725 149.793 107.824 152.289 107.851 154.791C107.882 157.518 107.903 160.245 107.914 162.967C107.93 168.149 107.93 173.33 107.998 178.511C108.066 183.961 108.129 189.41 108.161 194.859C108.192 200.083 108.171 205.306 108.182 210.529C108.192 215.758 108.208 220.981 108.245 226.21C108.261 228.275 108.287 230.34 108.308 232.4C108.318 233.262 108.318 234.129 108.303 234.991C108.292 235.453 108.276 235.916 108.261 236.378C108.24 236.988 108.25 237.608 107.882 238.139C107.63 238.506 107.225 238.732 106.805 238.732C106.605 238.732 106.406 238.68 106.216 238.569L106.211 238.575Z" fill="#050505"/>
<path d="M110.689 238.601C109.958 238.459 109.585 237.676 109.606 236.961C109.522 235.285 109.501 233.603 109.475 231.927C109.443 229.541 109.412 227.15 109.38 224.765C109.317 219.762 109.285 214.759 109.264 209.762C109.243 204.801 109.222 199.841 109.201 194.88C109.18 189.925 109.165 184.969 109.133 180.019C109.102 174.906 109.049 169.793 109.017 164.68C108.991 159.762 108.944 154.843 108.954 149.925C108.954 147.576 109.007 145.227 109.144 143.119C109.149 143.009 109.154 142.904 109.159 142.846C109.222 141.848 109.317 140.849 109.406 139.851C109.448 139.373 109.496 138.9 109.59 138.432C109.674 137.985 109.963 137.355 110.52 137.455C111.119 137.56 111.235 138.353 111.319 138.837C111.403 139.341 111.44 139.861 111.487 140.366C111.592 141.438 111.692 142.515 111.771 143.587C111.929 145.973 111.971 148.364 111.992 150.75C112.039 155.668 112.05 160.592 112.065 165.511C112.081 170.587 112.081 175.668 112.097 180.744C112.113 185.705 112.149 190.66 112.17 195.616C112.191 200.618 112.218 205.616 112.249 210.619C112.281 215.605 112.276 220.587 112.27 225.574C112.265 229.394 112.27 233.215 112.16 237.03C112.16 237.04 112.16 237.051 112.16 237.061C112.16 237.203 112.139 237.345 112.107 237.492C112.081 237.587 112.05 237.686 112.008 237.776C111.95 237.918 111.866 238.054 111.766 238.175C111.629 238.343 111.456 238.475 111.251 238.554C111.162 238.585 111.072 238.606 110.978 238.611C110.946 238.611 110.909 238.617 110.878 238.617C110.815 238.617 110.757 238.611 110.694 238.601H110.689Z" fill="#050505"/>
<path d="M114.566 238.305C113.83 238.09 113.457 237.217 113.515 236.455V236.387C113.515 236.355 113.515 236.324 113.515 236.292C113.51 235.572 113.489 234.858 113.478 234.133C113.468 233.097 113.468 232.062 113.463 231.027C113.463 228.757 113.452 226.492 113.442 224.222C113.421 219.839 113.384 215.457 113.336 211.079C113.284 206.518 113.315 201.962 113.284 197.406C113.258 192.876 113.263 188.341 113.247 183.812C113.231 179.025 113.242 174.237 113.242 169.45C113.242 164.663 113.231 159.981 113.237 155.241C113.237 150.664 113.216 146.071 113.536 141.499C113.594 140.685 113.678 139.87 113.752 139.056C113.788 138.662 113.809 138.262 113.862 137.868C113.92 137.448 113.983 137.006 114.272 136.675C114.519 136.392 114.955 136.392 115.207 136.675C115.57 137.09 115.607 137.7 115.659 138.226C115.717 138.809 115.764 139.387 115.822 139.97C115.938 141.11 116.006 142.251 116.069 143.396C116.2 145.682 116.248 147.973 116.269 150.264C116.311 154.889 116.321 159.518 116.321 164.143C116.321 168.767 116.363 173.838 116.363 178.683C116.363 183.223 116.363 187.763 116.369 192.304C116.369 196.886 116.369 201.468 116.369 206.045C116.369 210.428 116.316 214.805 116.311 219.182C116.3 223.681 116.306 228.179 116.3 232.672C116.3 233.46 116.3 234.243 116.29 235.031C116.29 235.388 116.279 235.746 116.274 236.103C116.274 236.171 116.274 236.245 116.274 236.319V236.387C116.274 236.471 116.274 236.555 116.274 236.639C116.311 237.417 115.754 238.357 114.902 238.357C114.792 238.357 114.682 238.336 114.577 238.31L114.566 238.305Z" fill="#050505"/>
<path d="M120.21 140.239C119.968 140.218 119.774 139.998 119.711 139.745C119.679 139.603 119.679 139.456 119.716 139.314C119.642 139.025 119.574 138.731 119.511 138.442C119.437 138.106 119.369 137.769 119.306 137.428C119.269 137.244 119.238 137.065 119.206 136.881C119.148 136.54 119.233 136.182 119.495 135.946C119.653 135.804 119.853 135.757 120.058 135.71C120.236 135.662 120.415 135.615 120.599 135.562C120.925 135.478 121.25 135.394 121.582 135.326C121.708 135.3 121.834 135.268 121.955 135.242C122.097 135.21 122.228 135.179 122.375 135.189C122.575 135.21 122.722 135.405 122.79 135.573C122.832 135.683 122.843 135.799 122.848 135.914C122.848 135.962 122.848 136.009 122.848 136.056C122.895 136.682 122.958 137.302 123.027 137.922C123.042 138.074 123.058 138.221 123.074 138.374C123.1 138.626 123.121 138.889 122.995 139.12C122.869 139.362 122.669 139.488 122.417 139.567C121.892 139.74 121.361 139.898 120.83 140.066C120.767 140.155 120.683 140.224 120.583 140.266C120.525 140.287 120.473 140.297 120.42 140.297C120.341 140.297 120.268 140.276 120.205 140.234L120.21 140.239ZM120.893 136.923L120.478 137.044C120.504 137.139 120.53 137.239 120.557 137.333C120.63 137.628 120.699 137.922 120.767 138.216C120.799 138.353 120.83 138.489 120.856 138.626C121.235 138.51 121.613 138.384 121.997 138.274C121.976 137.801 121.955 137.328 121.934 136.855C121.934 136.866 121.934 136.876 121.934 136.881C121.928 136.782 121.923 136.676 121.918 136.577C121.576 136.697 121.235 136.818 120.888 136.923H120.893Z" fill="#050505"/>
<path d="M124.183 138.61C123.936 138.562 123.742 138.368 123.658 138.142C123.595 137.974 123.584 137.79 123.574 137.606C123.537 137.175 123.495 136.749 123.464 136.324C123.332 136.224 123.248 136.056 123.227 135.888C123.19 135.614 123.316 135.236 123.616 135.162C123.69 135.136 123.758 135.105 123.837 135.073C124.015 135.005 124.199 134.937 124.373 134.858C124.425 134.831 124.478 134.795 124.536 134.774C124.662 134.726 124.788 134.679 124.914 134.637C125.072 134.584 125.229 134.527 125.387 134.479L125.424 134.469C125.492 134.448 125.56 134.427 125.629 134.406C125.77 134.358 125.902 134.332 126.049 134.385C126.285 134.469 126.433 134.7 126.48 134.937C126.564 135.336 126.627 135.741 126.685 136.145C126.727 136.429 126.743 136.718 126.758 137.002C126.758 137.07 126.769 137.138 126.769 137.207C126.769 137.438 126.706 137.638 126.559 137.816C126.438 137.969 126.228 138.021 126.049 138.079C125.786 138.168 125.534 138.284 125.271 138.368C125.03 138.442 124.793 138.51 124.567 138.578C124.483 138.604 124.394 138.62 124.304 138.62C124.268 138.62 124.231 138.62 124.194 138.61H124.183ZM125.124 136.082C125.019 136.119 124.909 136.145 124.804 136.177C124.751 136.187 124.698 136.192 124.651 136.198C124.578 136.208 124.504 136.224 124.43 136.245C124.467 136.445 124.504 136.644 124.536 136.834L124.562 136.986L124.583 137.091C124.725 137.049 124.861 137.012 124.998 136.975C125.166 136.928 125.345 136.902 125.513 136.865C125.587 136.849 125.66 136.834 125.728 136.818C125.728 136.776 125.718 136.734 125.713 136.697C125.655 136.455 125.587 136.213 125.513 135.972C125.382 136.014 125.245 136.051 125.114 136.093L125.124 136.082Z" fill="#050505"/>
<path d="M120.441 144.874C120.388 144.832 120.346 144.78 120.309 144.727C119.679 144.491 119.942 143.524 119.81 142.993C119.789 142.551 119.311 141.816 119.999 141.658C120.751 141.127 121.702 140.88 122.543 140.507C123.263 140.46 123.131 141.406 123.221 141.884C123.268 142.362 123.336 143.019 123.363 143.455C123.473 144.233 123.336 144.921 122.39 144.795C122.159 144.78 121.896 144.837 121.623 144.89C121.381 144.937 121.134 144.985 120.914 144.985C120.74 144.985 120.577 144.953 120.441 144.874ZM120.682 142.499C120.714 142.835 120.746 143.172 120.777 143.503C121.229 143.419 121.686 143.345 122.138 143.277C122.138 143.087 122.138 142.893 122.138 142.704C122.143 142.431 122.149 142.163 122.154 141.889C121.66 142.089 121.161 142.278 120.672 142.494L120.682 142.499Z" fill="#050505"/>
<path d="M121.13 149.657C120.983 149.568 120.857 149.453 120.757 149.316C119.816 149.589 120.016 148.265 120 147.703C120.058 147.135 119.764 145.8 120.704 145.958C122.171 145.385 123.053 144.702 123.216 146.836C123.237 147.813 123.957 149.757 122.444 149.847C122.286 149.862 122.123 149.878 121.96 149.878C121.671 149.878 121.388 149.831 121.135 149.663L121.13 149.657ZM121.771 146.804C121.545 146.883 121.314 146.951 121.093 147.041V147.114C121.093 147.661 121.114 148.202 121.093 148.743C121.409 148.491 121.824 148.454 122.202 148.423C122.176 147.839 122.16 147.266 122.107 146.694C121.997 146.73 121.882 146.767 121.771 146.804Z" fill="#050505"/>
<path d="M121.056 155.716C120.972 155.668 120.887 155.605 120.819 155.526C119.752 155.868 120.073 154.181 119.994 153.577C120.057 152.967 119.637 151.69 120.483 151.533C120.625 151.533 120.735 151.596 120.819 151.69C122.763 150.871 123.158 150.666 123.536 152.978C123.673 153.798 124.114 155.363 122.968 155.589C122.496 155.6 122.017 155.826 121.55 155.826C121.381 155.826 121.213 155.794 121.05 155.716H121.056ZM121.024 152.899C121.04 153.167 121.05 153.367 121.071 153.624C121.092 153.866 121.113 154.118 121.129 154.365C121.497 154.155 121.949 154.118 122.354 153.992C122.327 153.519 122.296 153.041 122.233 152.568C121.818 152.683 121.418 152.783 121.024 152.899Z" fill="#050505"/>
<path d="M120.815 160.634C120.815 160.634 120.804 160.586 120.799 160.56C120.415 160.518 120.289 160.061 120.3 159.735C120.279 159.047 120.011 158.301 120.31 157.649C120.678 157.181 121.361 157.123 121.876 156.877C122.26 156.771 122.685 156.377 123.064 156.682C123.663 157.365 123.526 158.427 123.784 159.262C124.351 161.496 122.885 161.028 121.309 161.164C121.041 161.128 120.888 160.865 120.815 160.629V160.634ZM121.782 158.311C121.603 158.358 121.424 158.406 121.246 158.458C121.277 158.858 121.303 159.252 121.361 159.646C121.745 159.599 122.128 159.551 122.507 159.493C122.486 159.352 122.465 159.21 122.449 159.073C122.412 158.763 122.386 158.453 122.349 158.143C122.134 158.211 121.918 158.274 121.776 158.311H121.782Z" fill="#050505"/>
<path d="M120.509 166.251C120.561 165.568 120.32 164.754 120.709 164.155C120.793 163.845 121.082 163.724 121.371 163.703C121.97 163.624 122.574 163.466 123.173 163.456C123.604 163.519 123.678 164.018 123.699 164.37C123.709 165.017 123.746 165.516 123.762 166.104C123.735 166.535 123.32 166.719 122.952 166.798C122.306 166.956 121.676 167.26 121.034 167.371C120.54 167.26 120.519 166.661 120.509 166.251ZM122.133 164.896C121.928 164.932 121.728 164.964 121.528 165.001C121.534 165.2 121.549 165.4 121.555 165.6C121.555 165.689 121.565 165.773 121.565 165.863C121.97 165.773 122.39 165.736 122.795 165.647C122.79 165.574 122.784 165.5 122.779 165.426V165.453C122.769 165.232 122.758 165.011 122.742 164.791C122.537 164.827 122.338 164.859 122.133 164.896Z" fill="#050505"/>
<path d="M121.062 173.566C120.541 173.293 120.725 172.573 120.631 172.09C120.673 171.485 120.153 169.977 121.083 169.919C124.115 169.509 123.3 169.346 123.778 172.111C124.02 172.652 123.558 173.146 123.022 173.172C122.507 173.314 121.96 173.361 121.445 173.519C121.361 173.561 121.277 173.587 121.193 173.587C121.151 173.587 121.104 173.582 121.062 173.561V173.566ZM121.461 171.138C121.487 171.391 121.508 171.648 121.54 171.9C121.55 172.021 121.561 172.137 121.571 172.258C121.708 172.221 121.845 172.195 121.987 172.163C122.228 172.111 122.47 172.053 122.712 171.99C122.68 171.758 122.649 171.522 122.617 171.291L122.58 171.033C122.212 171.096 121.839 171.117 121.466 171.144L121.461 171.138Z" fill="#050505"/>
<path d="M121.156 178.216C120.583 177.864 120.819 177.012 120.72 176.44C120.741 175.925 120.483 175.105 121.061 174.826C121.129 174.427 121.566 174.222 121.949 174.317C122.359 174.364 122.774 174.327 123.153 174.49C123.799 174.779 123.578 177.701 122.927 177.906C122.506 177.995 122.049 177.984 121.623 178.079C121.545 178.174 121.418 178.247 121.292 178.247C121.25 178.247 121.203 178.237 121.161 178.221L121.156 178.216ZM121.566 175.846C121.592 176.177 121.613 176.513 121.65 176.849C121.713 176.834 121.771 176.823 121.828 176.813C122.023 176.776 122.217 176.744 122.412 176.723C122.469 176.34 122.517 176.072 122.496 175.735C122.349 175.73 122.207 175.725 122.06 175.714C121.897 175.709 121.723 175.714 121.56 175.683C121.56 175.767 121.56 175.851 121.56 175.851L121.566 175.846Z" fill="#050505"/>
<path d="M120.936 183.482C120.358 183.225 120.615 182.531 120.631 182.048C120.752 181.37 120.578 180.771 120.799 180.156C120.909 180.119 121.004 180.093 121.093 180.082C121.34 179.825 121.74 179.857 122.06 179.746C122.575 179.568 123.027 179.541 123.132 180.188C123.227 180.802 123.343 181.291 123.537 181.811C123.868 182.731 122.843 182.894 122.202 183.104C121.824 183.151 121.388 183.493 121.046 183.493C121.009 183.493 120.967 183.493 120.931 183.477L120.936 183.482ZM122.197 180.976C122.023 181.018 121.85 181.065 121.677 181.107C121.677 181.186 121.677 181.27 121.682 181.349V181.885C121.924 181.817 122.171 181.754 122.418 181.685C122.355 181.443 122.302 181.207 122.255 180.96C122.234 180.96 122.218 180.971 122.197 180.976Z" fill="#050505"/>
<path d="M121.14 188.238C120.925 188.159 120.804 187.928 120.783 187.712C120.746 187.029 120.783 186.341 120.762 185.653C120.63 185.027 121.145 184.775 121.687 184.785C122.27 184.78 122.885 184.602 123.421 184.654C123.531 184.691 123.631 184.796 123.678 184.901C123.899 185.584 123.825 186.341 123.841 187.05C123.836 187.303 123.799 187.56 123.589 187.728C123 187.991 122.275 187.907 121.65 188.138C121.524 188.191 121.403 188.275 121.266 188.275C121.224 188.275 121.182 188.264 121.14 188.248V188.238ZM122.664 185.805C122.354 185.852 122.044 185.899 121.729 185.936C121.729 186.246 121.729 186.562 121.739 186.877C121.923 186.851 122.112 186.835 122.296 186.819C122.522 186.798 122.748 186.788 122.979 186.772C122.984 186.43 122.979 186.089 122.964 185.752C122.864 185.768 122.764 185.789 122.664 185.8V185.805Z" fill="#050505"/>
<path d="M121.087 192.631C120.951 192.032 120.993 191.401 120.961 190.792C120.967 190.387 120.94 189.862 121.334 189.625C121.602 189.515 121.897 189.52 122.196 189.525C122.354 189.525 122.512 189.53 122.664 189.52C123.242 189.478 123.762 189.509 123.825 190.208C123.888 190.613 123.909 191.028 123.936 191.406C123.957 191.764 123.967 192.216 123.599 192.405C123.032 192.584 122.422 192.668 121.855 192.873C121.771 192.957 121.671 192.993 121.566 192.993C121.355 192.993 121.14 192.841 121.082 192.626L121.087 192.631ZM121.965 190.913C121.97 191.117 121.981 191.328 121.991 191.533C122.149 191.491 122.307 191.454 122.464 191.417C122.617 191.38 122.764 191.354 122.916 191.317C122.9 191.154 122.885 190.986 122.864 190.823C122.78 190.823 122.695 190.834 122.611 190.839C122.396 190.86 122.175 190.886 121.955 190.913H121.965Z" fill="#050505"/>
<path d="M121.098 199.214C121.03 198.594 121.077 197.953 121.051 197.328C121.093 196.834 120.778 195.883 121.482 195.772C121.676 195.221 122.654 195.052 123.095 195.383C123.332 195.646 123.542 195.914 123.71 196.23C123.852 196.724 123.71 197.249 123.747 197.753C123.731 198.305 123.884 199.172 123.164 199.325C122.775 199.388 122.36 199.43 121.986 199.53C121.887 199.65 121.76 199.703 121.64 199.703C121.398 199.703 121.161 199.498 121.104 199.22L121.098 199.214ZM122.244 196.687C122.16 196.708 122.076 196.724 121.997 196.724C122.028 197.023 122.044 197.333 122.065 197.627C122.076 197.795 122.086 197.969 122.097 198.142C122.149 198.132 122.202 198.127 122.254 198.116C122.386 198.095 122.517 198.079 122.649 198.058C122.649 197.643 122.649 197.228 122.675 196.808C122.675 196.808 122.67 196.797 122.664 196.797C122.617 196.745 122.58 196.687 122.538 196.629C122.444 196.645 122.344 196.655 122.249 196.681L122.244 196.687Z" fill="#050505"/>
<path d="M121.581 205.226C121.355 205.142 121.256 204.905 121.219 204.685C121.161 204.133 121.145 203.576 121.098 203.024C121.072 202.562 120.882 201.579 121.613 201.663C121.839 200.849 122.974 200.885 123.62 201.085C124.282 201.537 124.277 202.441 124.204 203.161C124.135 203.718 124.246 204.485 123.652 204.79C123.121 205.031 122.522 205.026 121.965 205.184C121.881 205.226 121.797 205.257 121.713 205.257C121.671 205.257 121.623 205.252 121.581 205.231V205.226ZM121.976 202.304C122.039 202.814 122.096 203.318 122.144 203.828C122.191 203.818 122.238 203.807 122.28 203.802C122.527 203.749 122.774 203.691 123.016 203.628C123.016 203.46 123.027 203.292 123.032 203.124C123.037 202.898 123.053 202.672 123.042 202.441C122.685 202.388 122.28 202.462 121.965 202.241C121.965 202.262 121.965 202.283 121.97 202.304H121.976Z" fill="#050505"/>
<path d="M121.125 207.865C120.93 207.387 121.466 206.709 121.934 207.14C122.17 206.452 122.996 206.646 123.563 206.53C124.446 206.504 124.22 207.702 124.404 208.28C125.25 210.445 122.938 210.162 121.54 210.335C120.731 210.088 121.23 208.543 121.125 207.87V207.865ZM122.149 208.212C122.149 208.422 122.144 208.627 122.139 208.837C122.139 208.885 122.139 208.932 122.139 208.979C122.286 208.969 122.433 208.969 122.586 208.974C122.896 208.974 123.201 208.984 123.495 208.895C123.458 208.732 123.421 208.569 123.39 208.401C123.353 208.223 123.327 208.044 123.3 207.865C122.922 207.891 122.481 208.06 122.16 207.776C122.16 207.923 122.155 208.075 122.155 208.212H122.149Z" fill="#050505"/>
<path d="M121.534 208.164C120.893 208.012 120.846 206.972 121.429 206.709C121.96 206.509 122.538 206.83 122.948 207.15C122.722 207.465 122.396 207.718 122.055 207.902C121.96 208.065 121.792 208.17 121.598 208.17C121.577 208.17 121.556 208.17 121.534 208.17V208.164Z" fill="#050505"/>
<path d="M121.151 201.922C120.936 201.433 121.53 200.787 121.882 201.375C122.103 201.775 121.819 202.284 121.52 202.284C121.383 202.284 121.246 202.179 121.151 201.922Z" fill="#050505"/>
<path d="M121.004 214.859C120.915 214.055 121.067 213.23 121.077 212.436C120.647 211.359 121.866 211.38 122.586 211.453C122.675 211.464 122.775 211.464 122.869 211.464C123.095 211.464 123.321 211.464 123.5 211.606C123.92 212.1 123.742 212.846 123.894 213.45C124.01 214.049 123.92 214.901 123.158 214.948C122.654 215.048 122.097 215.048 121.645 215.295C121.592 215.316 121.545 215.326 121.498 215.326C121.261 215.326 121.056 215.084 120.999 214.859H121.004ZM121.934 212.657C121.934 212.683 121.934 212.709 121.934 212.736C121.944 212.951 121.95 213.166 121.96 213.387C121.966 213.54 121.971 213.687 121.976 213.839C122.291 213.781 122.607 213.729 122.927 213.697C122.901 213.35 122.854 213.004 122.822 212.657C122.659 212.657 122.496 212.652 122.333 212.652C122.197 212.652 122.065 212.652 121.929 212.657H121.934Z" fill="#050505"/>
<path d="M121.077 220.098C121.103 219.131 121.134 218.285 121.035 217.407C121.14 217.161 121.318 216.861 121.576 216.761C121.744 216.714 121.928 216.73 122.101 216.73C122.259 216.751 122.422 216.74 122.59 216.73C122.89 216.709 123.189 216.693 123.441 216.85C123.993 217.46 123.851 218.501 123.935 219.189C123.967 219.704 124.088 220.492 123.457 220.708C122.816 220.818 122.164 220.86 121.544 220.907C121.166 220.839 121.082 220.419 121.077 220.098ZM122.017 218.028C122.028 218.296 122.033 218.564 122.033 218.832C122.033 219.1 122.023 219.352 122.017 219.615C122.122 219.594 122.233 219.578 122.338 219.567C122.543 219.536 122.748 219.52 122.953 219.504C122.921 218.994 122.926 218.495 122.837 217.996C122.564 217.996 122.291 218.017 122.023 218.033L122.017 218.028Z" fill="#050505"/>
<path d="M121.676 226.098C120.972 225.688 121.251 224.664 121.161 223.97C121.182 223.529 121.083 223.008 121.361 222.63C121.508 222.089 122.034 222.105 122.543 222.126C122.78 222.136 123.016 222.141 123.211 222.094C123.526 222.068 123.736 221.926 124.004 222.131C124.556 222.751 124.251 223.734 124.425 224.469C124.761 225.31 123.91 225.72 123.216 225.799C122.748 225.867 122.296 226.109 121.845 226.109C121.792 226.109 121.734 226.109 121.682 226.098H121.676ZM122.832 223.497C122.643 223.518 122.449 223.534 122.254 223.544C122.254 223.907 122.281 224.27 122.302 224.632C122.465 224.606 122.627 224.58 122.796 224.553C123.001 224.527 123.211 224.506 123.416 224.48C123.389 224.301 123.379 224.117 123.358 223.933C123.342 223.776 123.332 223.613 123.316 223.455C123.158 223.476 122.995 223.487 122.832 223.502V223.497Z" fill="#050505"/>
<path d="M124.493 144.075C124.125 143.939 124.031 143.508 124.036 143.156C124.036 142.509 123.978 141.858 124.025 141.206C123.778 140.418 124.551 140.25 125.139 140.129C125.602 140.034 126.085 139.777 126.553 139.887C127.289 140.344 126.873 141.668 127.052 142.383C127.32 142.641 127.315 143.135 127.026 143.376C126.795 143.55 126.49 143.576 126.222 143.665C125.623 143.781 125.15 144.075 124.588 144.075C124.556 144.075 124.519 144.075 124.488 144.075H124.493ZM125.828 141.248C125.586 141.311 125.339 141.374 125.097 141.437C125.066 141.789 125.097 142.147 125.103 142.504C125.103 142.562 125.103 142.614 125.103 142.672C125.439 142.598 125.786 142.556 126.127 142.499C126.096 142.267 126.08 142.031 126.064 141.795C126.048 141.595 126.038 141.395 126.027 141.195C125.964 141.216 125.896 141.232 125.828 141.248Z" fill="#050505"/>
<path d="M124.619 148.711C124.199 148.311 124.403 147.639 124.367 147.124C124.44 146.645 124.172 145.931 124.629 145.61C124.897 145.101 125.602 145.221 126.085 145.069C127.105 144.953 126.71 146.619 126.931 147.25C127.041 147.738 127.078 148.395 126.458 148.506C126.033 148.59 125.554 148.831 125.102 148.831C124.934 148.831 124.771 148.8 124.619 148.711ZM125.207 146.546V146.577C125.207 146.756 125.213 146.94 125.218 147.118C125.218 147.323 125.218 147.534 125.218 147.738C125.491 147.691 125.77 147.618 126.022 147.549C126.033 147.549 126.048 147.544 126.059 147.539C125.991 147.223 125.927 146.908 125.87 146.593C125.859 146.535 125.849 146.477 125.843 146.414C125.633 146.462 125.423 146.519 125.207 146.54V146.546Z" fill="#050505"/>
<path d="M124.787 154.863C124.298 154.632 124.393 154.001 124.367 153.554C124.43 152.829 124.214 151.967 124.593 151.321C124.593 150.806 125.06 150.617 125.507 150.743C125.665 150.785 125.833 150.78 125.996 150.78C126.185 150.78 126.374 150.769 126.558 150.838C127.099 151.263 126.863 152.141 127.057 152.75C127.609 154.421 126.605 154.243 125.376 154.595C125.271 154.747 125.108 154.884 124.924 154.884C124.882 154.884 124.834 154.873 124.787 154.858V154.863ZM125.286 153.428C125.323 153.418 125.365 153.412 125.402 153.407C125.67 153.36 125.943 153.323 126.211 153.26C126.122 152.908 126.064 152.551 126.001 152.193L125.975 152.036C125.707 152.046 125.455 151.988 125.234 151.978C125.229 152.467 125.26 152.945 125.292 153.433L125.286 153.428Z" fill="#050505"/>
<path d="M124.75 159.855C124.551 159.004 124.687 158.09 124.603 157.218C124.451 156.876 124.582 156.361 124.987 156.272C125.223 156.235 125.476 156.219 125.712 156.177C126.232 156.072 126.973 155.888 127.11 156.597C127.194 157.26 127.204 157.937 127.309 158.6C127.341 158.862 127.388 159.167 127.252 159.409C127.036 159.829 126.4 159.74 126.048 159.887C125.744 159.919 125.397 160.176 125.118 160.176C124.961 160.176 124.829 160.097 124.74 159.85L124.75 159.855ZM125.407 157.528C125.423 158.011 125.449 158.494 125.475 158.973C125.78 158.873 126.085 158.778 126.4 158.715C126.337 158.363 126.269 158.011 126.216 157.659C126.206 157.575 126.19 157.486 126.18 157.401C125.922 157.454 125.665 157.491 125.402 157.533L125.407 157.528Z" fill="#050505"/>
<path d="M124.95 166.084C124.393 165.348 124.677 164.171 124.509 163.283C124.33 162.773 124.924 162.153 125.355 162.626C125.576 162.211 126.054 162.148 126.474 162.148C126.679 162.132 126.889 162.101 127.058 162.237C127.368 162.505 127.263 162.915 127.362 163.262C127.441 164.008 127.793 165.211 126.91 165.6C126.49 165.69 126.017 165.847 125.676 166.042C125.544 166.12 125.387 166.189 125.239 166.189C125.14 166.189 125.04 166.157 124.95 166.084ZM125.607 164.775C125.907 164.639 126.227 164.555 126.548 164.491C126.543 164.108 126.474 163.724 126.411 163.346C126.269 163.367 126.128 163.383 125.991 163.393C125.823 163.398 125.655 163.33 125.518 163.236C125.555 163.787 125.576 164.244 125.607 164.775Z" fill="#050505"/>
<path d="M124.541 162.905C124.473 162.448 124.909 162.206 125.313 162.264C125.429 162.274 125.55 162.264 125.671 162.264C125.902 162.248 126.133 162.237 126.328 162.348C126.559 162.516 126.559 162.957 126.328 163.125C126.112 163.236 125.865 163.231 125.623 163.22C125.45 163.215 125.277 163.21 125.119 163.246C125.056 163.299 124.993 163.32 124.93 163.32C124.735 163.32 124.551 163.11 124.546 162.905H124.541Z" fill="#050505"/>
<path d="M124.623 170.449C124.639 170.028 124.487 169.445 124.902 169.182C124.981 168.888 125.28 168.825 125.543 168.767C126.032 168.704 126.694 168.163 127.083 168.662C127.419 169.382 127.298 170.223 127.372 170.974C127.408 171.547 127.161 171.826 126.594 171.862C126.142 171.973 125.727 172.215 125.285 172.325C124.513 172.151 124.718 171.048 124.623 170.444V170.449ZM126.1 169.813C125.9 169.86 125.706 169.908 125.511 169.955C125.517 170.333 125.543 170.67 125.585 171.032C125.858 170.938 126.137 170.827 126.421 170.748C126.405 170.549 126.384 170.349 126.368 170.149C126.357 170.023 126.347 169.892 126.331 169.766C126.258 169.787 126.179 169.802 126.105 169.818L126.1 169.813Z" fill="#050505"/>
<path d="M125.024 177.055C124.22 176.588 124.624 175.379 124.63 174.617C124.609 174.565 124.593 174.507 124.582 174.449C124.472 173.472 125.744 173.634 126.385 173.561C126.663 173.561 126.952 173.424 127.215 173.561C127.851 174.023 127.483 175.153 127.62 175.799C127.709 176.299 127.451 176.745 126.915 176.751C126.369 176.803 125.812 177.071 125.265 177.071C125.181 177.071 125.103 177.066 125.024 177.05V177.055ZM125.491 174.869C125.497 174.974 125.502 175.074 125.502 175.179C125.502 175.295 125.455 175.426 125.365 175.505C125.376 175.658 125.381 175.81 125.397 175.962C125.67 175.905 125.949 175.836 126.227 175.778C126.385 175.742 126.548 175.71 126.705 175.679C126.679 175.379 126.658 175.085 126.642 174.785C126.259 174.827 125.875 174.833 125.497 174.875L125.491 174.869Z" fill="#050505"/>
<path d="M124.676 181.696C124.655 180.971 124.518 180.199 124.797 179.51C125.107 179.021 125.837 179.247 126.316 179.037C126.731 178.927 127.288 178.48 127.561 179.048C127.761 179.505 127.661 180.025 127.671 180.514C127.619 181.092 127.798 181.644 127.398 182.069C127.135 182.258 126.768 182.222 126.473 182.332C126.042 182.437 125.617 182.642 125.17 182.642C124.739 182.568 124.687 182.048 124.671 181.701L124.676 181.696ZM126.126 180.33C125.958 180.356 125.79 180.382 125.627 180.403V180.451C125.632 180.598 125.638 180.74 125.648 180.892C125.648 181.039 125.659 181.192 125.664 181.339C126.032 181.265 126.389 181.176 126.757 181.113C126.757 180.803 126.747 180.493 126.736 180.188C126.536 180.251 126.337 180.298 126.137 180.33H126.126Z" fill="#050505"/>
<path d="M124.83 187.182C124.698 186.541 124.772 185.863 124.73 185.211C124.619 184.912 124.751 184.465 125.087 184.386C125.203 183.966 125.644 183.835 126.033 183.845C126.411 183.829 126.853 183.577 127.168 183.903C127.478 184.234 127.394 184.885 127.494 185.253C127.573 185.742 127.757 186.278 127.52 186.751C127.121 187.408 126.206 187.187 125.571 187.429C125.471 187.487 125.366 187.513 125.261 187.513C125.066 187.513 124.887 187.408 124.819 187.187L124.83 187.182ZM125.634 185.432C125.634 185.6 125.644 185.763 125.649 185.931C125.649 186.042 125.655 186.157 125.66 186.268C125.791 186.241 125.928 186.215 126.065 186.194C126.28 186.162 126.501 186.152 126.716 186.11C126.664 185.863 126.601 185.616 126.548 185.364C126.522 185.243 126.506 185.127 126.49 185.006C126.191 185.054 125.907 185.096 125.634 185.085C125.634 185.201 125.634 185.322 125.634 185.432Z" fill="#050505"/>
<path d="M124.74 190.703C124.777 190.135 124.651 189.531 124.798 188.979C124.856 188.412 125.481 188.322 125.949 188.28C126.301 188.259 126.669 188.144 127.021 188.207C127.594 188.496 127.404 189.31 127.625 189.83C127.778 190.303 127.951 190.95 127.41 191.239C126.737 191.538 125.996 191.769 125.276 191.922C124.656 191.885 124.724 191.155 124.74 190.703ZM126.138 189.505C125.965 189.531 125.791 189.552 125.618 189.583C125.618 189.631 125.618 189.683 125.618 189.731C125.623 189.935 125.633 190.135 125.639 190.34C125.639 190.45 125.639 190.566 125.639 190.676C126.054 190.561 126.448 190.461 126.811 190.356C126.737 190.13 126.669 189.909 126.611 189.683C126.59 189.599 126.574 189.52 126.553 189.436C126.411 189.463 126.269 189.484 126.133 189.505H126.138Z" fill="#050505"/>
<path d="M124.955 198.012C124.776 197.822 124.787 197.565 124.787 197.323C124.871 196.645 124.698 195.899 124.923 195.258C124.845 194.743 125.344 194.501 125.796 194.543C125.98 194.554 126.174 194.507 126.369 194.459C126.684 194.386 127.004 194.307 127.272 194.47C127.745 195.027 127.43 195.868 127.572 196.535C128.145 197.26 127.167 197.67 126.579 197.801C126.174 197.922 125.764 198.038 125.354 198.148C125.333 198.148 125.307 198.154 125.286 198.154C125.16 198.154 125.044 198.096 124.955 198.001V198.012ZM126.316 195.657C126.116 195.689 125.917 195.71 125.717 195.721C125.717 195.81 125.717 195.894 125.722 195.978C125.722 196.183 125.728 196.393 125.728 196.598C125.728 196.693 125.728 196.793 125.728 196.887C125.822 196.866 125.917 196.85 126.011 196.835C126.253 196.792 126.5 196.745 126.736 196.687C126.726 196.619 126.715 196.551 126.71 196.482C126.684 196.183 126.668 195.889 126.652 195.589C126.542 195.615 126.426 195.636 126.316 195.652V195.657Z" fill="#050505"/>
<path d="M125.386 203.513C125.002 203.061 125.176 202.372 125.092 201.826C125.113 201.405 124.908 200.801 125.333 200.533C125.512 200.013 126.232 200.171 126.631 200.108C127.167 199.976 127.493 200.087 127.577 200.633C127.64 201.295 127.793 201.968 127.751 202.63C127.609 203.176 126.942 203.145 126.511 203.276C126.206 203.297 125.906 203.597 125.612 203.597C125.533 203.597 125.46 203.576 125.381 203.523L125.386 203.513ZM125.869 201.253C125.89 201.61 125.911 201.947 125.938 202.294C125.938 202.32 125.938 202.341 125.938 202.367C126.048 202.33 126.164 202.304 126.274 202.273C126.495 202.215 126.726 202.199 126.947 202.152C126.92 201.963 126.889 201.779 126.863 201.589C126.842 201.448 126.826 201.306 126.8 201.159C126.437 201.195 126.201 201.211 125.864 201.248L125.869 201.253Z" fill="#050505"/>
<path d="M125.434 207.424C125.444 207.061 125.36 206.651 125.533 206.315C125.323 205.737 125.754 205.4 126.274 205.353C126.726 205.306 127.252 204.77 127.646 205.174C128.035 205.789 127.856 206.614 128.087 207.297C128.376 207.76 128.14 208.354 127.609 208.48C127.057 208.658 126.537 208.968 125.996 209.116C125.239 208.995 125.491 207.981 125.439 207.429L125.434 207.424ZM126.642 206.514C126.537 206.546 126.437 206.572 126.332 206.599C126.343 206.719 126.343 206.846 126.343 206.972C126.343 207.14 126.343 207.308 126.343 207.476V207.797C126.458 207.744 126.579 207.692 126.705 207.639C126.858 207.576 127.01 207.523 127.168 207.466C127.12 207.292 127.084 207.119 127.052 206.94C127.015 206.767 126.989 206.593 126.963 206.42C126.858 206.457 126.753 206.483 126.647 206.514H126.642Z" fill="#050505"/>
<path d="M125.627 214.228C124.886 214.06 125.144 213.062 125.081 212.499C125.097 212.079 125.007 211.648 125.102 211.238C125.033 210.24 126.3 210.518 126.925 210.403C127.819 210.445 127.608 212.216 127.871 212.873C127.939 213.687 126.852 213.682 126.358 214.008C126.153 214.107 125.953 214.244 125.727 214.244C125.696 214.244 125.664 214.244 125.627 214.234V214.228ZM126.242 211.743C126.111 211.769 125.979 211.801 125.843 211.822C125.853 211.99 125.869 212.163 125.88 212.337C125.895 212.594 125.906 212.852 125.922 213.109C126.132 213.004 126.342 212.904 126.552 212.809C126.668 212.757 126.789 212.71 126.904 212.662C126.82 212.337 126.741 212.005 126.673 211.669C126.526 211.695 126.384 211.716 126.237 211.743H126.242Z" fill="#050505"/>
<path d="M125.318 219.017C125.155 218.922 125.076 218.744 125.05 218.565C124.966 217.924 124.85 217.272 124.913 216.626C124.524 216.237 124.656 215.386 125.265 215.338C125.849 215.338 126.353 215.254 126.91 215.134C128.114 215.202 127.735 216.978 127.819 217.756C127.893 218.229 127.662 218.754 127.12 218.738C126.605 218.77 126.08 219.048 125.57 219.048C125.486 219.048 125.402 219.043 125.318 219.022V219.017ZM125.938 216.715C125.864 216.726 125.791 216.731 125.717 216.742C125.712 216.768 125.702 216.794 125.691 216.82C125.738 217.188 125.801 217.456 125.859 217.808C126.18 217.729 126.5 217.645 126.826 217.588C126.816 217.451 126.8 217.314 126.789 217.178C126.774 216.973 126.768 216.757 126.742 216.552C126.474 216.61 126.206 216.673 125.933 216.715H125.938Z" fill="#050505"/>
<path d="M125.707 224.912C124.982 224.471 125.323 223.309 125.229 222.579C125.218 222.216 125.239 221.633 125.702 221.586C125.786 220.982 126.427 221.018 126.895 221.003C127.131 220.987 127.357 220.966 127.562 221.118C128.124 221.638 127.735 222.584 128.24 223.136C128.482 223.567 128.203 224.082 127.741 224.187C127.068 224.371 126.432 224.912 125.733 224.912C125.723 224.912 125.718 224.912 125.707 224.912ZM126.138 223.683C126.411 223.551 126.684 223.415 126.958 223.288C127.01 223.267 127.063 223.241 127.115 223.22C127.084 223.12 127.058 223.02 127.037 222.926C126.989 222.737 126.952 222.542 126.921 222.348C126.679 222.385 126.422 222.484 126.18 222.453C126.159 222.858 126.133 223.273 126.138 223.683Z" fill="#050505"/>
<path d="M121.676 232.332C120.972 231.922 121.251 230.897 121.161 230.203C121.182 229.762 121.083 229.242 121.361 228.863C121.508 228.322 122.034 228.338 122.543 228.359C122.78 228.369 123.016 228.375 123.211 228.327C123.526 228.301 123.736 228.159 124.004 228.364C124.556 228.984 124.251 229.967 124.425 230.702C124.761 231.543 123.91 231.953 123.216 232.032C122.748 232.1 122.296 232.342 121.845 232.342C121.792 232.342 121.734 232.342 121.682 232.332H121.676ZM122.832 229.73C122.643 229.751 122.449 229.767 122.254 229.778C122.254 230.14 122.281 230.503 122.302 230.865C122.465 230.839 122.627 230.813 122.796 230.787C123.001 230.76 123.211 230.739 123.416 230.713C123.389 230.534 123.379 230.35 123.358 230.166C123.342 230.009 123.332 229.846 123.316 229.688C123.158 229.709 122.995 229.72 122.832 229.736V229.73Z" fill="#050505"/>
<path d="M125.707 231.144C124.982 230.702 125.323 229.541 125.229 228.81C125.218 228.448 125.239 227.865 125.702 227.817C125.786 227.213 126.427 227.25 126.895 227.234C127.131 227.218 127.357 227.197 127.562 227.35C128.124 227.87 127.735 228.816 128.24 229.367C128.482 229.798 128.203 230.313 127.741 230.418C127.068 230.602 126.432 231.144 125.733 231.144C125.723 231.144 125.718 231.144 125.707 231.144ZM126.138 229.914C126.411 229.783 126.684 229.646 126.958 229.52C127.01 229.499 127.063 229.472 127.115 229.451C127.084 229.352 127.058 229.252 127.037 229.157C126.989 228.968 126.952 228.774 126.921 228.579C126.679 228.616 126.422 228.716 126.18 228.684C126.159 229.089 126.133 229.504 126.138 229.914Z" fill="#050505"/>
<path d="M54.2447 211.139C53.3986 210.681 52.6839 209.919 52.1216 209.121C51.7223 208.553 51.407 207.891 51.202 207.266C50.955 206.52 50.7974 205.773 50.7711 205.043C50.7396 204.066 50.9025 203.141 51.2493 202.379C47.1399 197.413 44.3811 189.068 43.7872 184.449C42.689 177.912 42.7678 171.674 42.1477 165.258C41.8849 160.813 41.5014 156.288 40.1981 151.748C39.3363 148.957 38.527 146.073 36.8927 143.445C34.1286 139.373 29.6146 136.425 25.3896 136.404C24.491 136.293 23.5818 136.209 22.741 136.288C22.9565 136.698 23.1247 137.118 23.2561 137.549C23.4925 138.332 23.5556 139.115 23.4925 139.845C23.3611 141.343 22.5676 142.604 21.3169 143.167C20.6916 143.45 19.9506 143.571 19.1886 143.487C18.9101 143.456 18.6369 143.403 18.3584 143.329C17.8224 143.182 17.2864 142.951 16.7661 142.646C16.0935 142.257 15.4682 141.711 14.9532 141.096C14.3278 140.35 13.8759 139.53 13.5553 138.658C13.508 138.537 13.4765 138.411 13.4397 138.29L13.4187 138.211C13.2137 137.391 13.1507 136.608 13.2611 135.852C13.3557 135.153 13.6184 134.501 14.0125 133.992C14.3593 133.545 14.8008 133.209 15.342 133.014C15.3998 132.872 15.4892 132.757 15.6258 132.688C16.4088 132.284 17.4545 132.289 18.4372 132.567C19.6406 132.909 20.8125 133.718 21.7111 134.754C22.5571 134.375 23.687 134.38 24.6223 134.365C29.0313 133.976 33.7922 136.735 37.0608 140.812C38.9947 143.088 40.03 145.836 40.9286 148.474C42.7941 153.829 43.5192 159.199 43.782 164.428C44.8225 173.918 43.9449 183.382 47.781 193.051C48.9266 195.647 50.3244 198.732 52.295 201.049C52.6208 200.786 52.994 200.592 53.4196 200.461C53.7034 200.371 54.0292 200.345 54.3445 200.361C54.665 200.377 55.0014 200.424 55.3324 200.555C55.5058 200.624 55.674 200.713 55.8369 200.813C55.9683 200.75 56.1259 200.739 56.3046 200.786C56.3624 200.802 56.4149 200.834 56.4465 200.855C56.8669 201.128 57.2505 201.433 57.6079 201.806C58.2385 202.473 58.7219 203.251 59.0792 204.034C59.0792 204.045 59.0897 204.055 59.0897 204.066C59.1476 204.207 59.2053 204.344 59.2579 204.486C63.1886 204.318 64.3448 201.139 65.69 197.497C66.9985 193.787 66.0316 189.252 65.8845 185.053C65.5271 178.711 66.226 172.636 68.0337 167.145C69.1951 163.955 70.6455 160.555 73.7617 159.189C75.9688 158.332 79.0902 159.452 80.9768 161.842C84.692 166.53 85.5801 173.719 86.2948 179.1C86.3631 179.189 86.4262 179.283 86.4787 179.378C87.4666 179.609 88.4388 180.103 89.3164 180.818C90.9192 182.132 92.1856 184.029 92.627 185.931C92.8793 187.008 92.8951 188.059 92.6796 189.016C92.4589 189.993 91.9807 190.813 91.3133 191.454C90.6301 192.111 89.6948 192.515 88.6806 192.631C87.9869 192.71 87.246 192.636 86.5103 192.436C86.237 192.363 85.9585 192.268 85.6852 192.158C83.7409 191.38 81.9174 189.657 80.9925 187.67C80.5196 186.646 80.241 185.631 80.1675 184.607C80.0939 183.545 80.3041 182.526 80.7245 181.69C81.271 180.597 82.2222 179.835 83.4203 179.525C83.6936 179.457 83.9774 179.415 84.2664 179.404C84.1245 177.875 83.8933 176.325 83.6515 174.78C82.9106 171.086 82.3431 167.013 79.7996 163.634C72.5635 156.257 69.132 170.224 68.3123 174.833C67.5818 178.863 67.5713 183.193 67.834 187.534C68.0495 190.676 68.4804 193.924 67.8918 196.824C67.5082 198.821 66.6885 200.592 65.8109 202.295C65.0752 203.782 64.1398 205.195 62.6369 205.899C61.7698 206.294 60.7871 206.556 59.7466 206.635C59.7729 206.924 59.7834 207.218 59.7782 207.502C59.7572 208.001 59.6836 208.48 59.5575 208.937C59.1318 210.366 58.1334 211.606 56.5621 211.722C56.1417 211.753 55.7161 211.706 55.2904 211.585C54.9436 211.491 54.5968 211.349 54.2499 211.165L54.2447 211.139ZM85.2543 180.644C85.207 180.644 85.1597 180.639 85.1177 180.639C85.0704 180.639 85.0283 180.639 84.9811 180.639C84.939 180.639 84.897 180.639 84.8497 180.644C84.8024 180.644 84.7551 180.65 84.7078 180.655C84.65 180.66 84.5922 180.665 84.5291 180.676C84.1718 180.718 83.8197 180.818 83.5202 180.981C83.2311 181.138 82.9526 181.349 82.7372 181.596C82.5165 181.843 82.3483 182.126 82.2537 182.468C82.2222 182.573 82.2064 182.689 82.1959 182.799C82.1328 182.951 82.0803 183.104 82.0278 183.261C81.9857 183.43 81.9541 183.603 81.9226 183.776C81.9069 183.913 81.8964 184.044 81.8911 184.186C81.8911 184.365 81.9017 184.554 81.9122 184.738C81.9332 184.896 81.9594 185.059 81.9857 185.216C82.033 185.411 82.0803 185.6 82.1381 185.8C82.2012 185.978 82.2695 186.162 82.343 186.341C82.4219 186.514 82.5059 186.688 82.5953 186.856C82.7214 187.071 82.858 187.287 82.9999 187.492C83.1418 187.681 83.2889 187.865 83.4413 188.049C83.641 188.269 83.8512 188.48 84.0667 188.679C84.2874 188.868 84.5133 189.047 84.7445 189.215C84.9863 189.373 85.2333 189.515 85.4803 189.646C85.7483 189.772 86.0163 189.883 86.2895 189.977C86.5996 190.061 86.8991 190.135 87.2039 190.182C87.4877 190.208 87.7609 190.224 88.0342 190.219C88.2864 190.198 88.5334 190.161 88.7751 190.109C88.9958 190.045 89.206 189.967 89.4162 189.877C89.5686 189.798 89.7211 189.714 89.863 189.609C90.0259 189.483 90.173 189.347 90.3201 189.194C90.4357 189.058 90.5461 188.916 90.6459 188.763C90.73 188.616 90.8088 188.469 90.8824 188.317C90.9402 188.169 90.9875 188.022 91.0348 187.875C91.0716 187.718 91.1031 187.56 91.1294 187.397C91.1451 187.25 91.1557 187.103 91.1609 186.95C91.1609 186.793 91.1504 186.63 91.1399 186.467C91.1189 186.283 91.0926 186.104 91.0558 185.92C91.0085 185.71 90.9507 185.505 90.8876 185.295C90.8193 185.095 90.7457 184.901 90.6617 184.707C90.5986 184.575 90.5303 184.439 90.462 184.307C90.3569 184.118 90.2413 183.939 90.1204 183.761C89.9786 183.566 89.8366 183.382 89.679 183.204C89.5108 183.02 89.3321 182.841 89.1535 182.673C88.9538 182.499 88.7489 182.337 88.5387 182.179C88.2129 181.958 87.8871 181.764 87.5455 181.585C87.3248 181.475 87.1041 181.375 86.8781 181.286C86.6364 181.065 86.3526 180.912 86.0635 180.828C86.0215 180.813 85.9742 180.802 85.9322 180.792C85.701 180.729 85.475 180.687 85.2491 180.666L85.2543 180.644ZM15.7362 134.57C15.5838 134.711 15.4471 134.869 15.3157 135.037C15.2369 135.153 15.1581 135.274 15.0898 135.395C15.0267 135.521 14.969 135.652 14.9164 135.789C14.8796 135.904 14.8481 136.025 14.8165 136.146C14.7955 136.267 14.7798 136.388 14.764 136.509C14.7587 136.619 14.7535 136.729 14.7535 136.84C14.764 136.987 14.7745 137.134 14.7902 137.281C14.8113 137.407 14.8375 137.528 14.8638 137.654C14.9111 137.817 14.9637 137.975 15.0162 138.138C15.0688 138.259 15.1213 138.379 15.1739 138.505C15.258 138.674 15.3525 138.842 15.4576 139.005C15.5522 139.147 15.6521 139.288 15.7572 139.425C15.8938 139.593 16.0357 139.756 16.1881 139.909C16.3615 140.077 16.5349 140.229 16.7241 140.376C16.908 140.513 17.0972 140.639 17.2969 140.755C17.5071 140.865 17.7173 140.965 17.9275 141.059C18.1587 141.143 18.3899 141.212 18.6211 141.264C18.8681 141.312 19.1151 141.333 19.3568 141.343C19.546 141.343 19.7247 141.327 19.9034 141.301C20.0926 141.264 20.2764 141.217 20.4499 141.154C20.597 141.086 20.7389 141.017 20.8755 140.933C20.9701 140.865 21.0595 140.797 21.1488 140.723C21.2434 140.628 21.3379 140.534 21.422 140.429C21.5061 140.308 21.5902 140.187 21.6638 140.056C21.7111 139.966 21.7531 139.867 21.7952 139.772C21.8372 139.646 21.8687 139.52 21.9002 139.388C21.9213 139.283 21.937 139.178 21.9475 139.073C21.9528 138.952 21.958 138.831 21.9528 138.71C21.9475 138.59 21.9318 138.469 21.9213 138.348C21.9003 138.227 21.8792 138.111 21.8477 137.991C21.8109 137.849 21.7636 137.712 21.7163 137.57C21.6533 137.407 21.5849 137.244 21.5061 137.087C21.4325 136.945 21.3537 136.813 21.2749 136.677C21.2644 136.666 21.2591 136.656 21.2539 136.645C21.1645 136.635 21.0752 136.603 20.9911 136.572C20.6548 136.472 20.5077 136.072 20.5603 135.778C20.5603 135.778 20.5497 135.768 20.5445 135.762C20.3868 135.61 20.2186 135.463 20.0452 135.326C19.8455 135.179 19.6459 135.048 19.4409 134.922C19.2255 134.801 19.0048 134.696 18.7788 134.606C18.5476 134.522 18.3163 134.459 18.0851 134.407C17.8276 134.359 17.5807 134.328 17.3284 134.317C17.0447 134.317 16.7714 134.338 16.5086 134.386C16.4245 134.401 16.3457 134.417 16.2669 134.443C16.1566 134.48 16.0357 134.47 15.9253 134.428C15.8623 134.475 15.794 134.528 15.7362 134.585V134.57Z" fill="#050505"/>
<path d="M150.11 148.484C149.989 148.463 149.869 148.447 149.742 148.426C149.343 148.368 148.938 148.305 148.539 148.242C147.241 148.043 145.943 147.827 144.645 147.607C141.912 147.134 139.175 146.661 136.453 146.125C135.118 145.862 133.783 145.589 132.453 145.294C131.86 145.163 131.271 145.021 130.683 144.863C130.52 144.821 130.357 144.779 130.194 144.743C129.931 144.685 129.763 144.391 129.821 144.133C129.847 144.012 129.931 143.897 130.036 143.839C130.147 143.781 130.246 143.781 130.309 143.786C130.919 143.844 131.523 143.86 132.133 143.918C132.895 143.986 133.652 144.07 134.408 144.154C135.911 144.322 137.414 144.501 138.912 144.701C140.21 144.869 141.503 145.063 142.795 145.247C144.214 145.452 145.628 145.652 147.041 145.867C147.856 145.993 148.67 146.13 149.48 146.267C149.837 146.324 150.194 146.377 150.552 146.445C151.009 146.524 151.261 147.044 151.256 147.475C151.256 147.948 150.951 148.51 150.42 148.51C150.315 148.51 150.194 148.484 150.095 148.468L150.11 148.484Z" fill="#050505"/>
<path d="M150.489 182.295C150.442 178.275 150.285 174.26 150.158 170.246C150.148 169.957 150.137 169.668 150.132 169.379C150.279 167.792 150.4 166.21 150.432 164.607C150.626 161.628 150.61 158.648 150.694 155.669C150.595 153.772 151.535 148.601 149.417 147.86C148.992 148.028 148.719 147.418 148.918 147.087C149.013 146.609 149.423 146.357 149.827 146.189C150.2 145.921 150.673 146.057 151.02 146.294C153.91 148.28 152.733 153.829 152.718 156.903C152.591 159.053 152.518 161.213 152.387 163.314C152.255 166.478 152.076 169.61 151.782 172.757C151.598 176.641 151.625 180.535 151.54 184.423C151.509 186.268 151.504 188.107 151.299 189.941C151.267 190.351 150.978 190.782 150.584 190.887C150.563 188.023 150.532 185.159 150.495 182.3L150.489 182.295Z" fill="#050505"/>
<path d="M151.293 209.104C150.978 209.083 150.741 208.826 150.583 208.474C150.562 204.154 150.526 199.835 150.489 195.515C150.478 194.296 150.463 193.077 150.447 191.858C150.494 189.357 150.547 186.86 150.61 184.359C150.678 181.606 150.731 178.852 150.799 176.098C150.936 170.449 151.114 164.8 151.298 159.157C151.34 157.769 151.377 156.377 151.409 154.99C151.43 154.259 151.44 153.529 151.461 152.804C151.472 152.457 151.482 152.105 151.493 151.763C151.503 151.464 151.503 151.138 151.587 150.864C151.666 150.602 151.855 150.381 152.065 150.449C152.207 150.497 152.302 150.644 152.36 150.822C152.36 150.822 152.36 150.822 152.36 150.828C152.386 150.912 152.407 151.006 152.412 151.096C152.428 151.217 152.433 151.337 152.438 151.469C152.449 151.789 152.449 152.11 152.449 152.425C152.449 153.071 152.449 153.713 152.449 154.359C152.449 155.599 152.449 156.839 152.46 158.037C152.47 159.425 152.491 160.807 152.496 162.068C152.496 162.357 152.496 162.651 152.507 162.888V162.998C152.507 163.534 152.517 164.07 152.523 164.606C152.523 164.874 152.528 165.147 152.528 165.315C152.533 165.815 152.538 166.309 152.538 166.613C152.538 167.128 152.544 167.638 152.549 168.106C152.596 173.828 152.591 179.551 152.607 185.273C152.617 190.707 152.607 196.141 152.491 201.574C152.449 203.518 152.407 205.473 152.339 207.418C152.328 207.68 152.281 207.964 152.197 208.216C152.092 208.547 151.923 208.831 151.692 208.978C151.587 209.047 151.466 209.089 151.34 209.089C151.324 209.089 151.314 209.089 151.298 209.089L151.293 209.104Z" fill="#050505"/>
<path d="M150.085 208.359C150.085 205.08 150.074 201.801 150.069 198.527C150.058 194.428 150.058 190.33 150.069 186.231C150.085 182.153 150.116 178.08 150.169 174.008C150.227 169.883 150.321 165.758 150.432 161.638C150.489 159.62 150.542 157.607 150.579 155.589C150.6 154.596 150.61 153.598 150.626 152.605C150.631 152.121 150.6 151.601 150.673 151.123C150.716 150.85 150.805 150.566 150.947 150.366C150.947 150.361 150.957 150.35 150.963 150.345C150.963 150.345 150.963 150.345 150.968 150.345C151.336 150.818 151.294 151.612 151.299 152.253C151.304 153.251 151.315 154.249 151.325 155.253C151.352 157.271 151.399 159.284 151.441 161.302C151.483 163.346 151.541 165.39 151.573 167.434C151.604 169.536 151.63 171.633 151.657 173.735C151.704 177.791 151.709 181.848 151.709 185.905C151.709 189.962 151.688 194.108 151.662 198.201C151.641 201.58 151.604 204.959 151.604 208.338C151.604 208.953 151.341 209.704 150.847 209.71C150.847 209.71 150.847 209.71 150.842 209.71C150.358 209.71 150.074 208.974 150.074 208.359H150.085Z" fill="#050505"/>
<path d="M141.424 158.116C141.114 158.037 140.809 157.937 140.505 157.848C139.869 157.653 139.228 157.454 138.592 157.249C137.241 156.813 135.901 156.35 134.566 155.872C133.684 155.551 132.795 155.236 131.913 154.926C131.681 154.847 131.45 154.763 131.224 154.684C131.019 154.611 130.788 154.553 130.599 154.448C130.436 154.358 130.294 154.217 130.199 154.054C130.152 153.98 130.079 153.849 130.11 153.754C130.163 153.597 130.373 153.502 130.52 153.465C130.683 153.428 130.83 153.449 130.988 153.486L131.482 153.607C132.175 153.786 132.869 153.964 133.563 154.138C134.887 154.474 136.216 154.789 137.535 155.152C138.376 155.378 139.217 155.614 140.058 155.867C140.594 156.024 141.135 156.182 141.655 156.355L141.697 156.371C141.697 156.371 141.734 156.387 141.755 156.392C141.934 156.455 142.071 156.629 142.149 156.791C142.265 157.023 142.296 157.296 142.233 157.548C142.186 157.732 142.086 157.906 141.934 158.021C141.824 158.1 141.708 158.137 141.587 158.137C141.503 158.137 141.419 158.121 141.33 158.089L141.429 158.126L141.424 158.116Z" fill="#050505"/>
<path d="M141.603 157.533C141.666 156.997 142.213 156.718 142.539 156.345C143.301 155.62 144.084 154.911 144.867 154.201C145.56 153.508 146.427 152.935 147.042 152.194C147.295 151.826 147.725 151.527 148.141 151.364C148.845 151.264 149.113 152.267 148.745 152.746C147.289 154.149 145.692 155.399 144.184 156.75C143.532 157.26 142.975 157.959 142.244 158.332C141.814 158.416 141.556 157.906 141.603 157.528V157.533Z" fill="#050505"/>
<path d="M142.003 223.85C141.85 223.156 141.871 222.347 141.845 221.617C141.819 220.818 141.787 220.024 141.766 219.226C141.714 217.57 141.677 215.92 141.645 214.265C141.577 210.912 141.519 207.56 141.462 204.212C141.404 200.839 141.383 197.46 141.372 194.081C141.356 190.686 141.341 187.292 141.351 183.897C141.378 177.113 141.635 170.339 141.724 163.561C141.74 162.578 141.735 161.595 141.745 160.613C141.745 160.176 141.745 159.746 141.761 159.309C141.772 158.921 141.761 158.49 141.877 158.132C142.034 157.638 142.429 157.654 142.597 158.127C142.749 158.553 142.728 159.131 142.739 159.457C142.817 161.28 142.849 163.109 142.917 164.759C142.917 164.869 142.928 164.985 142.928 165.058C142.938 165.258 142.949 165.458 142.954 165.631C143.106 169.126 143.29 172.615 143.422 175.826C143.432 176.083 143.443 176.335 143.453 176.587L143.464 176.771C143.49 177.418 143.522 178.059 143.537 178.4C143.695 181.99 143.79 185.584 143.863 189.178C143.931 192.568 144.015 195.957 144.063 199.341C144.11 202.657 144.136 205.978 144.157 209.294C144.178 212.647 144.199 215.999 144.178 219.347C144.173 220.098 144.168 220.844 144.157 221.596C144.157 221.911 144.147 222.226 144.142 222.542C144.142 222.873 144.152 223.225 144.094 223.545C144 224.176 143.753 224.759 143.353 224.996C143.248 225.059 143.138 225.085 143.033 225.085C142.576 225.085 142.155 224.538 142.008 223.855L142.003 223.85Z" fill="#050505"/>
</svg>
