<svg width="114" height="165" viewBox="0 0 114 165" fill="none" xmlns="http://www.w3.org/2000/svg">
<path d="M25.5083 57.4447C25.9234 57.7548 25.6922 58.6639 25.1194 58.4957C22.8282 57.5814 20.3741 57.2188 18.0146 56.6985C20.2217 56.1362 22.6443 56.0101 24.7463 57.0243C25.009 57.1399 25.2823 57.2661 25.5083 57.4447Z" fill="#050505"/>
<path d="M25.4617 9.68759C25.4617 9.57198 25.4617 9.45113 25.4617 9.33552C25.4512 9.21466 25.4354 9.09906 25.4144 8.97819C25.3934 8.88361 25.3671 8.78902 25.3461 8.69969C25.3093 8.58408 25.2673 8.47372 25.22 8.36336C25.1622 8.2425 25.0991 8.13215 25.0308 8.0218C24.9678 7.9167 24.8942 7.81686 24.8153 7.72227C24.7313 7.62242 24.6472 7.52783 24.5579 7.4385C24.479 7.36493 24.3949 7.29662 24.3109 7.23357C24.1795 7.14949 24.0481 7.07592 23.9115 7.00235C23.8064 6.96557 23.7328 6.89199 23.675 6.7974C23.5174 6.76062 23.365 6.73961 23.2073 6.72384C22.9078 6.69757 22.6082 6.70282 22.3087 6.72384C22.1195 6.75012 21.9304 6.78164 21.7412 6.82893C21.5783 6.87622 21.4206 6.93404 21.263 7.00235C21.1316 7.06541 21.0055 7.14423 20.8899 7.22831C20.7795 7.30713 20.6797 7.39646 20.5798 7.48579C20.4958 7.57512 20.4117 7.66447 20.3381 7.75906C20.2645 7.85364 20.2015 7.95348 20.1384 8.04807C20.0753 8.15842 20.0176 8.27404 19.9703 8.38439C19.9387 8.46847 19.9072 8.54729 19.8809 8.63137C19.8441 8.75223 19.8179 8.87308 19.7968 8.9992C19.7863 9.08854 19.7758 9.18313 19.7706 9.27247C19.7653 9.39333 19.7706 9.51419 19.7706 9.6298C19.7811 9.74015 19.7916 9.84524 19.8126 9.95034C19.8336 10.0449 19.8546 10.1448 19.8809 10.2394C19.9177 10.3497 19.9598 10.4548 20.0018 10.5599C20.0543 10.6703 20.1069 10.7701 20.17 10.8752C20.233 10.9698 20.2961 11.0591 20.3644 11.1485C20.4485 11.2483 20.5378 11.3481 20.6324 11.4375C20.7532 11.5478 20.8741 11.6477 21.0107 11.7423C21.1369 11.8211 21.263 11.8946 21.3891 11.9524C21.5362 12.0155 21.6886 12.0733 21.841 12.1206C22.0355 12.1679 22.2299 12.1994 22.4243 12.2257C22.6293 12.2362 22.8289 12.2362 23.0286 12.2205C23.2021 12.1994 23.3755 12.1679 23.5436 12.1206C23.675 12.0786 23.8064 12.0313 23.9378 11.9735C24.0534 11.9157 24.1637 11.8526 24.2741 11.7843C24.3845 11.7055 24.4843 11.6214 24.5841 11.5321C24.6787 11.4427 24.7628 11.3481 24.8416 11.2483C24.9257 11.1379 24.9993 11.0276 25.0781 10.912C25.1412 10.8016 25.199 10.686 25.2568 10.5704C25.3041 10.4548 25.3461 10.3392 25.3829 10.2183C25.4039 10.129 25.4249 10.0397 25.4407 9.95034C25.4565 9.85575 25.467 9.76642 25.4722 9.67183L25.4617 9.68759ZM26.4602 9.30924C26.5075 10.3234 26.1343 11.3797 25.4407 12.1206C25.0939 12.4885 24.6629 12.788 24.211 13.0139C23.7591 13.2347 23.2704 13.3713 22.7659 13.4028C22.6976 13.4028 22.624 13.4081 22.561 13.4081C21.6624 13.4081 20.7743 13.0297 20.1069 12.4306C19.3974 11.7948 18.9298 10.8699 18.8404 9.91881C18.7879 9.33551 18.8562 8.76799 19.0401 8.21097C19.203 7.72752 19.4815 7.26509 19.8231 6.88674C20.4905 6.15106 21.4259 5.6571 22.4191 5.58878C22.8973 5.552 23.3807 5.67287 23.8117 5.87255C23.8484 5.88832 23.8799 5.90408 23.9167 5.91984C24.0113 5.88306 24.1217 5.88831 24.1795 5.91984C24.3897 6.01443 24.5789 6.1353 24.7681 6.26667C25.0466 6.4611 25.3093 6.6818 25.53 6.93929C26.1028 7.60141 26.4181 8.44219 26.4602 9.3145V9.30924Z" fill="#050505"/>
<path d="M50.2863 36.147C50.1497 35.8948 50.2653 35.5059 50.5648 35.4429C50.7067 35.4429 50.8538 35.4692 50.9852 35.3903C50.549 35.1171 50.0078 35.4954 49.7135 35.8265C49.6189 36.0052 49.4192 36.1681 49.2458 35.9841C48.941 35.569 49.498 35.1486 49.7818 34.8911C50.465 34.2605 51.7524 34.4918 51.6368 35.5795C51.6053 36.147 50.6542 36.7146 50.2863 36.1418V36.147Z" fill="#050505"/>
<path d="M43.2543 38.7679C42.7762 38.5999 42.5976 38.0276 43.0651 37.7599C43.291 37.6601 43.6272 37.7756 43.6902 38.0381C43.7638 38.3426 43.6745 38.8939 43.249 38.7679H43.2543Z" fill="#050505"/>
<path d="M52.309 114.325C52.3511 114.54 52.3195 114.771 52.2092 114.955C52.1199 115.108 51.9622 115.26 51.773 115.276C51.6416 115.286 51.5103 115.286 51.4052 115.291C51.3841 115.291 51.3579 115.291 51.3369 115.291H51.3264C48.6463 115.423 45.9663 115.465 43.2862 115.496C40.5221 115.528 37.758 115.58 34.9991 115.602C34.4053 115.607 33.8115 115.612 33.2177 115.612C31.0211 115.612 28.8298 115.575 26.6385 115.475C25.9606 115.444 25.2879 115.402 24.61 115.37C24.3735 115.36 24.1423 115.355 23.9059 115.344C23.827 115.344 23.7482 115.339 23.6694 115.334C23.4644 115.318 23.1702 115.323 23.0546 115.129C23.0493 115.118 23.0388 115.102 23.0335 115.092C22.9705 114.95 22.9705 114.782 23.0493 114.65C23.1176 114.535 23.228 114.482 23.3436 114.456C23.4014 114.44 23.4644 114.435 23.5222 114.43C23.5538 114.43 23.5853 114.43 23.6116 114.419C23.9321 114.388 24.2474 114.377 24.568 114.356C25.2459 114.319 25.9185 114.251 26.5912 114.198C27.9785 114.093 29.371 114.03 30.7583 113.972C33.5172 113.862 36.2866 113.831 39.0455 113.799C41.8096 113.768 44.5737 113.726 47.3378 113.72C48.1261 113.72 48.9143 113.72 49.7026 113.72C50.0914 113.72 50.4803 113.731 50.8639 113.736C51.1424 113.736 51.4262 113.736 51.7047 113.752C51.8098 113.752 51.9149 113.783 51.9937 113.836C52.1619 113.941 52.2617 114.13 52.2985 114.325H52.309Z" fill="#050505"/>
<path d="M51.458 129.495C52.3041 129.531 52.3093 131.061 51.458 131.097C50.9693 131.103 50.4806 131.087 49.9919 131.087C43.3023 130.992 36.2028 130.919 30.2384 127.503C25.3145 124.818 22.2245 121.56 22.9602 115.606C22.9708 115.475 22.9865 115.28 23.0285 115.091C23.0863 114.818 23.1809 114.55 23.3386 114.455C23.3911 114.424 23.4542 114.413 23.5173 114.429C23.5961 114.445 23.6854 114.497 23.78 114.597C23.8694 114.834 23.8904 115.091 23.8904 115.354C23.8904 115.769 23.8273 116.205 23.8904 116.61C24.1479 120.54 25.6508 122.763 28.9141 124.876C33.8801 128.491 40.1913 129.221 46.1505 129.353C47.9214 129.39 49.6818 129.463 51.4527 129.5L51.458 129.495Z" fill="#050505"/>
<path d="M49.6759 3.35555C49.6759 3.35555 49.6444 3.35555 49.6287 3.35555C49.4605 3.35029 49.2923 3.35554 49.1242 3.35029C48.7143 3.35029 48.3044 3.33979 47.8893 3.34504C47.4111 3.34504 46.9381 3.34504 46.4599 3.32402C46.2129 3.31351 45.9607 3.30824 45.7084 3.29774C45.5928 3.29248 45.472 3.28724 45.3564 3.27673C45.2723 3.27147 45.1829 3.26096 45.1146 3.22417C44.9465 3.13484 44.8729 2.9299 44.9097 2.75124C44.9412 2.59885 45.0411 2.49374 45.1882 2.45171C45.2618 2.43069 45.3458 2.43068 45.4247 2.43068C45.6664 2.42017 45.9029 2.43068 46.1446 2.43068C46.6333 2.43068 47.1168 2.43595 47.6055 2.45697C48.2729 2.48324 48.935 2.51476 49.6024 2.53053H49.6391C49.8283 2.50951 49.9702 2.70394 49.9965 2.87735C50.0175 2.99296 49.9965 3.11908 49.9282 3.21367C49.9019 3.25571 49.8651 3.29774 49.8231 3.32402C49.7916 3.33978 49.739 3.37131 49.6969 3.37131C49.6969 3.37131 49.6864 3.37131 49.6812 3.37131L49.6759 3.35555Z" fill="#050505"/>
<path d="M49.109 9.13646C49.109 8.76862 49.109 8.40603 49.1143 8.03819C49.1195 7.42862 49.1143 6.8138 49.13 6.20424C49.1406 5.47381 49.1721 4.74863 49.2037 4.04973V3.94462C49.2142 3.79223 49.2247 3.63459 49.2247 3.55051C49.2299 3.39812 49.2405 3.24573 49.251 3.09859C49.2615 2.97248 49.2773 2.82534 49.3561 2.72024C49.4192 2.63616 49.5033 2.5731 49.6085 2.5731C49.7084 2.5731 49.8083 2.6309 49.8609 2.71498C49.9556 2.86737 49.9661 3.03027 49.9661 3.20368C49.9661 3.38235 49.9661 3.55576 49.9661 3.72917C49.9661 4.11803 49.966 4.50165 49.9608 4.89051C49.9555 5.5789 49.9345 6.26728 49.903 6.88211C49.8924 7.16587 49.8767 7.44965 49.8661 7.6651V7.72289C49.8661 7.76493 49.8609 7.80697 49.8609 7.82274C49.8451 8.15379 49.8346 8.48485 49.8188 8.75285V8.81066C49.8136 8.91576 49.8083 9.02086 49.7978 9.12596C49.7978 9.12596 49.7978 9.15222 49.7978 9.16273C49.782 9.3519 49.6664 9.55685 49.456 9.5621C49.2405 9.5621 49.1038 9.32563 49.1038 9.1312L49.109 9.13646Z" fill="#050505"/>
<path d="M45 9.57824C44.7529 9.57824 44.6372 9.32075 44.6372 9.12107C44.6372 8.68491 44.6372 8.254 44.6372 7.81785C44.6267 7.39746 44.6372 6.97181 44.6372 6.55142C44.6372 6.08899 44.653 5.62656 44.6635 5.16413C44.6793 4.69645 44.7003 4.22351 44.7108 3.75583C44.7108 3.53512 44.7214 3.31441 44.7319 3.08845C44.7424 2.89401 44.7319 2.63653 44.9001 2.50516C44.9895 2.43685 45.1052 2.42108 45.2051 2.50516C45.3944 2.65755 45.3628 2.96759 45.3681 3.18305C45.3733 3.42477 45.3734 3.67174 45.3786 3.91347C45.3786 4.43896 45.3996 4.96971 45.4049 5.49519C45.4154 6.33072 45.4154 7.16624 45.3839 8.00177C45.3734 8.37487 45.3681 8.74797 45.3681 9.1053C45.3681 9.32075 45.2471 9.57298 45.0053 9.57298L45 9.57824Z" fill="#050505"/>
<path d="M49.0242 9.96093C48.6984 9.96093 48.3778 9.95041 48.0573 9.93465C47.3006 9.89786 46.5386 9.85057 45.7977 9.77701C45.7924 9.77701 45.7819 9.77701 45.7766 9.77701H45.7661C45.4876 9.75599 45.2091 9.75598 44.9358 9.74022C44.836 9.74022 44.7414 9.68242 44.6783 9.59834C44.5207 9.37238 44.5995 8.92046 44.9306 8.90995C45.2512 8.89944 45.5769 8.90995 45.8975 8.88893C46.1182 8.87316 46.3442 8.86791 46.5649 8.8574C46.9433 8.84164 47.3216 8.83112 47.7 8.82061C48.2885 8.80485 48.8718 8.80485 49.4604 8.83638C49.4604 8.83638 49.4604 8.83638 49.4709 8.83638C49.4709 8.83638 49.4761 8.83638 49.4814 8.83638C49.5024 8.83638 49.5234 8.83638 49.5392 8.84164C49.7862 8.88368 49.9228 9.16218 49.9228 9.39865C49.9228 9.65089 49.7599 9.96093 49.4867 9.95567C49.4446 9.95567 49.4026 9.95568 49.3605 9.96093H49.04H49.0242Z" fill="#050505"/>
<path d="M15.3293 40.7599C15.4186 41.3432 15.4502 41.9423 15.3871 42.5256C15.324 43.1457 15.2032 43.7605 14.9667 44.3385C14.9194 44.4489 14.8721 44.554 14.8143 44.6591C14.5463 45.1898 14.1837 45.6733 13.6897 46.0043C13.3955 46.204 13.0539 46.3301 12.7018 46.3564C12.6545 46.3564 12.6125 46.3616 12.5704 46.3616C12.3024 46.3616 12.0449 46.2986 11.7927 46.1987C11.2094 45.9675 10.7417 45.4631 10.4317 44.9271C10.1058 44.3648 9.89564 43.7605 9.73799 43.1351C9.46473 42.0211 9.4332 40.802 9.70646 39.6827C9.84835 39.1204 10.0586 38.5739 10.3791 38.0905C10.521 37.8803 10.6786 37.6753 10.8626 37.4966C10.8993 37.3915 10.9677 37.2917 11.057 37.2234L11.099 37.1866C11.1358 37.1551 11.1726 37.1288 11.2094 37.1025C11.3092 37.029 11.4143 36.9659 11.53 36.9133C11.7717 36.7925 12.0292 36.7347 12.2972 36.7294C12.933 36.7189 13.5058 37.0763 13.8789 37.4599C14.7407 38.3532 15.1454 39.5566 15.3293 40.7599Z" fill="#050505"/>
<path d="M95.0057 2.73164C95.0057 2.79995 94.9951 2.87352 94.9689 2.94709C94.9689 3.09422 94.9373 3.24661 94.8953 3.399C94.8953 3.42002 94.8953 3.43579 94.8953 3.45681C94.9058 3.85093 94.9216 4.2398 94.9321 4.62866C94.9531 5.36434 94.9636 6.10002 94.9583 6.75688C94.9583 7.00912 94.9531 7.26135 94.9479 7.44001C94.9426 7.95499 94.9479 8.47524 94.9479 8.99547V9.03751C94.9479 9.06378 94.9479 9.09531 94.9426 9.12159C94.9846 9.20566 95.0057 9.3055 95.0057 9.39483C95.0057 9.6313 94.8533 9.90982 94.5905 9.90982C94.0335 9.90982 93.4712 9.90982 92.9142 9.89405C92.436 9.88355 91.963 9.87303 91.4901 9.85201C91.2378 9.8415 90.9856 9.83099 90.7281 9.82048C90.623 9.81522 90.5126 9.80998 90.4075 9.79947C90.3024 9.78896 90.2026 9.77844 90.1028 9.7364C90.0607 9.71538 90.0292 9.68386 89.9976 9.65233C89.9031 9.563 89.8715 9.43163 89.8821 9.30551C89.861 9.24245 89.8505 9.17938 89.8505 9.11633C89.8505 8.75899 89.8295 8.40166 89.8137 8.04958C89.7927 7.41374 89.7927 6.7779 89.7927 6.14206C89.7927 5.55351 89.8032 4.96497 89.8085 4.37642C89.8085 4.05587 89.8085 3.73007 89.8137 3.40952C89.8137 3.26238 89.8137 3.11525 89.819 2.96811C89.8242 2.79996 89.84 2.61603 89.9609 2.48991C89.9714 2.47941 89.9766 2.47415 89.9872 2.46889C90.0345 2.29022 90.1658 2.13784 90.3602 2.13259C90.7649 2.12733 91.1748 2.13258 91.5794 2.12733C91.9788 2.12733 92.3729 2.11681 92.7723 2.11681C93.3661 2.11681 93.9599 2.14309 94.5537 2.16411C94.6641 2.15886 94.7744 2.22717 94.8428 2.30599C94.9479 2.41634 94.9951 2.57924 94.9951 2.72638L95.0057 2.73164Z" fill="#050505"/>
<path d="M24.9097 139.037C24.9622 138.99 25.0148 138.943 25.0621 138.89C25.0358 138.864 25.0095 138.832 24.9885 138.806C24.9622 138.885 24.936 138.964 24.9097 139.037ZM26.833 137.293C26.833 137.177 26.854 137.067 26.8698 136.983C26.7962 137.098 26.7227 137.261 26.6491 137.45C26.7121 137.398 26.77 137.345 26.833 137.293ZM30.727 32.6521C30.8321 32.463 30.9371 32.279 31.0422 32.0899C30.8531 31.8954 30.6376 31.6379 30.4695 31.3699C30.3644 32.0058 30.2803 32.6469 30.2698 33.288C30.4484 33.0725 30.6166 32.8623 30.727 32.6521ZM32.3718 29.7094C32.3718 29.7094 32.3665 29.6884 32.3612 29.6779C32.1458 28.9054 31.9199 28.2433 31.5993 27.5286C31.552 27.3815 31.4574 27.2133 31.3628 27.0452C31.0685 28.0909 30.8426 29.1576 30.6639 30.2296C30.7322 30.2611 30.79 30.319 30.8215 30.3978C30.9792 30.7341 31.2052 31.0441 31.4679 31.3069C31.7569 30.7709 32.0565 30.2349 32.3665 29.7199L32.3718 29.7094ZM35.3145 32.6732C35.5142 31.6432 35.8401 30.5975 35.9662 29.5465C35.5668 29.8881 34.8889 29.9301 34.5263 29.4834C34.437 29.3678 34.3529 29.2102 34.3003 29.0473C33.9535 29.536 33.6277 30.0352 33.3177 30.5449C32.4716 31.9532 31.7254 33.6085 30.3906 34.5964C30.4432 34.8697 30.522 35.1377 30.6271 35.4057C30.9424 35.8734 30.6954 36.7772 30.0386 36.6879C28.7301 36.0731 29.1347 32.547 29.3607 31.3857C29.9597 26.7824 32.1405 22.6311 33.2546 18.1696C32.8027 18.3378 32.4979 18.7687 32.2246 19.2259C32.2719 19.3205 32.2982 19.4256 32.314 19.5202C32.3928 19.8092 32.3823 20.1402 31.9882 20.1034C31.9041 20.0877 31.8305 20.0456 31.7674 19.9878C31.7201 20.0614 31.6676 20.1402 31.615 20.2033C30.6166 21.8533 29.5761 23.4876 28.8036 25.2638C28.2309 26.6143 27.7526 28.0331 27.1956 29.3783C27.1326 29.5833 26.9539 29.7935 26.7121 29.6989C26.0342 29.3731 26.9171 27.7651 26.9644 27.1503C27.038 26.835 27.1168 26.5249 27.1956 26.2096C25.7715 27.1345 24.5471 28.4062 23.8377 29.9827C23.7799 30.072 23.6853 30.1298 23.5802 30.1035C22.8708 29.7409 23.7273 28.1119 24.5418 26.9821C23.6695 27.3394 22.8813 27.9437 22.4451 28.7688C22.1193 29.3573 21.8408 29.9143 21.5991 30.4871C21.5465 30.9811 20.9632 30.9863 20.8949 30.4871C20.9264 29.9038 21.2627 29.3626 21.4729 28.8055C21.2102 29.042 20.9579 29.2785 20.7162 29.5202C19.4025 30.7604 18.2359 32.1582 16.8801 33.351C17.2217 35.2165 17.6053 37.1188 17.6946 39.0105C17.826 42.2003 17.4213 45.4162 16.5648 48.4904C16.2495 49.6464 15.8816 50.75 15.5506 51.8377C16.6121 51.6486 17.6788 51.596 18.4776 51.5802C20.4902 51.5645 23.8219 52.153 26.0027 53.5456C26.0395 53.3039 26.1183 53.0569 26.1604 52.8204C26.3968 51.7904 26.5808 50.7447 26.791 49.7095C27.5845 45.9733 29.6287 42.6364 32.4716 40.1036C33.8852 37.8177 34.8048 35.3111 35.3145 32.6784V32.6732ZM36.0187 28.7425C36.0187 28.259 35.9609 27.7808 35.819 27.2974C35.4722 27.6179 35.1516 27.9595 34.8574 28.3221C34.973 28.4114 35.0623 28.5743 35.1306 28.7057C35.4039 28.7372 35.7297 28.6584 36.0187 28.7372V28.7425ZM62.6194 57.5288C62.714 56.935 62.7876 56.3254 62.9085 55.7316C58.2525 55.5162 50.7011 52.5366 50.2597 47.2502C49.6817 44.6385 49.5608 41.9743 49.5766 39.3048C49.5608 39.2838 49.545 39.268 49.5345 39.247C49.3821 39.268 49.235 39.268 49.0826 39.2628C48.0264 39.2418 46.9596 38.443 47.0174 37.3185C47.0069 36.8508 47.2013 36.0783 47.8056 36.1624C48.205 36.2517 48.1735 36.9559 47.7951 36.9979C47.7321 37.7231 48.4573 38.1172 49.0879 38.1593C50.1914 38.2696 50.9902 37.329 51.605 36.5565C52.1935 35.8313 52.635 34.9012 52.6928 33.9711C52.6928 33.4404 52.7506 32.9359 52.4195 32.5365C51.6891 32.1529 50.6486 33.3825 50.4594 34.0236C50.4069 34.2233 50.307 34.3127 50.2019 34.3284C50.1651 34.5859 50.0075 34.8066 49.729 34.7751C48.8462 34.402 48.8777 32.0636 49.1299 31.2596C49.6869 30.0352 50.2387 28.8056 50.9692 27.6652C51.6943 26.4303 52.4405 24.7383 51.5104 23.4929C50.2545 25.1639 49.4557 27.166 48.4678 29.0315C48.5624 29.3888 48.2366 30.1035 47.9213 30.0037C47.2276 31.165 46.3973 32.2265 45.2675 33.0673C45.0941 33.6401 45.0678 34.2654 44.7735 34.7909C44.453 35.1535 44.0799 35.4793 43.8329 35.9154C43.155 37.2081 42.5559 38.5534 42.0357 39.9039C40.9899 43.3195 42.2564 47.2134 45.1414 49.3154C46.4656 50.1772 47.7689 51.0968 49.0563 52.0006C48.6832 52.0479 48.2576 52.0532 47.8477 52.0111C48.0947 53.3511 48.4625 56.0784 48.1315 57.4027C48.2523 57.3869 48.3679 57.3764 48.4835 57.3606C51.894 57.0401 55.4201 57.0926 58.8096 57.4395C60.0445 57.6024 61.3372 57.6444 62.5879 57.8441C62.5984 57.739 62.6142 57.6391 62.6247 57.534L62.6194 57.5288ZM64.1066 61.5803C65.0473 61.7485 65.9826 61.9429 66.9128 62.1636C66.2033 60.7973 65.2049 59.5362 63.6599 59.1526C63.476 59.1158 63.2816 59.0842 63.0819 59.0475C62.9925 59.0632 62.9032 59.0474 62.8191 59.0054C57.3487 58.1121 46.2397 57.2871 42.4088 60.461C41.6363 61.1914 40.9374 62.048 40.6589 63.0885C40.6326 63.162 40.6116 63.2303 40.5906 63.2986C40.8218 63.2303 41.0477 63.1568 41.279 63.0885C43.0552 62.5577 44.8576 62.1373 46.6758 61.7957C48.5203 61.4489 50.3911 61.2124 52.2619 61.0653C53.2393 60.9865 54.2115 60.9339 55.1889 60.9024C56.1926 60.8761 57.1911 60.9024 58.1895 60.9392C60.1706 61.0233 62.1465 61.223 64.1014 61.5698L64.1066 61.5803ZM83.2715 60.3559C83.4239 60.2613 83.5816 60.1667 83.7392 60.0774C82.3204 57.8703 81.3429 55.2955 80.7701 52.7678C80.6966 52.4 80.6388 52.0374 80.5862 51.6696C79.9872 51.6959 79.3828 51.6958 78.7838 51.7116C78.5893 51.7116 78.3949 51.7221 78.2688 51.7274C78.2268 51.7274 78.1847 51.7274 78.1479 51.7326C78.0743 51.7326 78.006 51.7379 77.9903 51.7379C77.5278 51.7589 77.0706 51.7589 76.6082 51.7694C76.4033 51.7694 76.1931 51.7799 75.9881 51.7799H75.8935C75.7622 51.7799 75.6308 51.7694 75.4994 51.7642C75.3733 51.7537 75.2472 51.7379 75.121 51.7169C74.8793 51.7011 74.6323 51.6959 74.3906 51.6801C74.275 51.6748 74.1857 51.6118 74.1173 51.5224C73.9807 51.4226 73.8914 51.2492 73.8809 51.0863C73.8809 51.0495 73.8809 51.018 73.8809 50.9864V50.9654C73.8809 50.9654 73.8809 50.9391 73.8809 50.9286C73.8809 50.8708 73.8756 50.813 73.8703 50.7552V50.7395C73.8703 50.7395 73.8703 50.6922 73.8703 50.6817C73.8703 50.6659 73.8703 50.6501 73.8703 50.6344C73.8703 50.6186 73.8703 50.6028 73.8703 50.5976C73.8703 50.482 73.8598 50.3716 73.8546 50.2718C73.8546 50.256 73.8546 50.2403 73.8546 50.2297V50.2035C73.8546 50.2035 73.8546 50.1614 73.8546 50.1562C73.8231 49.3574 73.8178 48.5587 73.8283 47.7652C73.8388 47.3028 73.8546 46.8456 73.8546 46.3884C72.5881 47.9491 71.0747 49.3732 69.3984 50.6344C68.2896 51.5802 66.8287 51.8798 65.6621 52.6943C65.4098 52.9097 65.2154 53.1935 65.0105 53.4667C65.0105 53.6717 65.0105 53.9554 64.9684 54.1972C65.0578 54.4599 65.0052 54.7594 64.9211 55.0222C64.7635 55.6318 64.238 55.7526 63.6914 55.7579C63.5863 56.5041 63.5023 57.2503 63.4602 58.007C63.9857 58.1331 64.4955 58.3012 64.9894 58.5377C66.2559 59.2787 67.1177 60.5451 67.7641 61.8378C67.8429 62.006 67.9638 62.2214 68.0478 62.4474C70.4599 63.0832 72.8194 63.9082 75.1105 64.9014C76.8447 65.6529 78.5315 66.5199 80.1711 67.471C80.8122 67.8441 81.4481 68.233 82.0734 68.6376C81.942 67.4868 81.942 66.3885 81.6057 65.2692C81.5111 64.9802 81.2957 64.6597 81.3903 64.3654C81.364 64.3339 81.3377 64.3023 81.3114 64.2708C81.2746 64.2025 81.2431 64.1342 81.2116 64.0659C81.1853 64.0238 81.1643 63.9765 81.159 63.924C80.6913 62.4894 82.1312 61.0706 83.2768 60.3559H83.2715ZM98.5582 18.2222L98.5688 17.7545C98.3533 17.7387 98.1431 17.7282 97.9277 17.7125C97.5861 17.6915 97.2445 17.6967 96.903 17.723C96.8872 17.723 96.8714 17.723 96.8662 17.723H96.8294C96.1883 17.786 95.5419 17.8018 94.8955 17.8018C94.4856 17.8018 94.081 17.7966 93.6659 17.7913C92.6096 17.7808 91.5534 17.765 90.5024 17.7545C89.4356 17.7387 88.3741 17.7125 87.3073 17.7177C86.7713 17.7177 86.2406 17.7335 85.7046 17.744C85.1528 17.7493 84.5958 17.744 84.044 17.744C82.9773 17.7387 81.9052 17.7177 80.8385 17.7072C79.8085 17.6967 78.7733 17.7072 77.7433 17.6862C77.2336 17.6704 76.7238 17.6494 76.2193 17.6231C75.9671 17.6126 75.7149 17.6021 75.4626 17.5916C75.3418 17.5916 75.2209 17.5811 75.1053 17.5811C75.0475 17.5811 74.9897 17.5811 74.9319 17.5811C74.9319 17.6599 74.9424 17.7335 74.9424 17.8018C74.9424 17.8123 74.9424 17.8228 74.9424 17.8333V17.8544C74.9844 18.4797 75.0527 19.105 75.0843 19.6252C75.1421 20.6867 75.1894 21.743 75.2051 22.7992C75.2209 23.7293 75.2262 24.6594 75.2419 25.5948C75.2419 25.7367 75.2524 25.8838 75.2419 26.0257C75.2419 26.1676 75.2156 26.3147 75.1473 26.4461C75.636 27.3237 76.0775 28.2275 76.4821 29.1419C79.2199 35.0589 77.9693 40.813 74.5535 45.4951C74.564 45.6265 74.5693 45.7578 74.5745 45.8892C74.6008 46.4147 74.6533 46.9402 74.6954 47.4657C74.7637 48.3327 74.811 49.1998 74.832 50.0721C74.8373 50.277 74.8373 50.482 74.8425 50.6817C74.9529 50.6817 75.0685 50.6712 75.1789 50.6554C75.3313 50.6186 75.4889 50.6134 75.6465 50.6081C75.8252 50.5976 76.0091 50.5923 76.1878 50.5923C76.4926 50.5923 76.7974 50.5923 77.0969 50.5923C77.6697 50.5923 78.2425 50.6186 78.8153 50.6239C79.2042 50.6239 79.5983 50.6239 79.9872 50.6344C80.1448 50.6344 80.3077 50.6344 80.4706 50.6396C80.3708 49.6097 80.3025 48.5745 80.1396 47.5497C79.798 45.679 79.3618 43.824 79.057 41.948C78.9046 40.8182 78.4212 38.5639 80.108 38.4956C82.3414 39.1997 83.6551 41.9901 84.3383 44.649C85.0582 41.2123 85.6731 37.7967 86.9343 34.5491C85.4944 33.619 84.6115 32.0583 83.5658 30.7393C82.8196 29.7672 81.7476 28.8476 81.5269 27.5969C81.5163 27.1923 81.8159 26.856 82.1627 26.6983C83.3031 26.1781 84.517 26.8297 85.5469 27.3184C85.7203 27.3867 85.8937 27.4656 86.0566 27.5496C84.7692 25.206 85.3525 23.5034 88.9154 26.0099C89.1045 26.1308 89.2832 26.2622 89.4619 26.3988C89.9927 23.8765 94.3963 28.443 95.2949 29.2207C96.4142 30.2401 97.3181 31.454 98.1537 32.7099C98.2588 32.3736 98.3849 32.0321 98.5267 31.7063C98.5267 31.6905 98.5267 31.6695 98.5267 31.6537C98.5267 31.4855 98.5162 31.3174 98.5162 31.1545C98.511 30.7551 98.511 30.3557 98.511 29.9564C98.511 29.0263 98.5215 28.0961 98.5215 27.1608C98.5215 26.2201 98.5215 25.2795 98.5057 24.3389C98.4952 23.8712 98.4952 23.4035 98.4847 22.9358C98.4742 22.4892 98.4637 22.0425 98.4584 21.5958C98.4584 20.8496 98.4584 20.1034 98.4899 19.3625C98.5057 18.9842 98.5268 18.6058 98.5373 18.2274L98.5582 18.2222ZM102.006 29.3836C102.006 29.3836 102.006 29.3783 102.006 29.3731C102.006 29.3731 101.995 29.3783 101.99 29.3836C101.995 29.3836 102 29.3836 102.006 29.3836ZM100.566 34.6805C101.196 33.2091 102.189 31.68 102.105 30.072C102.058 30.1193 102.006 30.1561 101.953 30.1928C101.753 30.7026 101.68 31.2596 101.669 31.7798C101.68 31.8166 101.69 31.8586 101.706 31.9007C101.68 31.9217 101.622 31.8954 101.585 31.8902C100.907 31.5539 101.217 30.1455 101.685 29.5728C100.098 30.6132 99.0732 32.3526 98.553 34.1445C98.532 34.2181 98.4847 34.2811 98.4216 34.3232C98.2272 35.8524 98.2482 37.3658 98.1221 38.8949C98.0485 39.7567 98.059 40.7131 97.4442 41.3963C96.74 40.3453 97.1972 38.8792 97.2025 37.7546C97.2655 36.3778 97.3706 35.0063 97.5808 33.6453C96.2776 31.7693 94.7221 30.1245 93.051 28.5901C92.1682 27.8649 91.3221 26.8823 90.1976 26.5985C90.166 26.609 90.1345 26.6143 90.1083 26.63C90.1293 26.8875 90.371 27.0767 90.4866 27.2921C91.112 27.928 91.6585 28.6426 92.1525 29.3941C92.72 30.2191 93.3033 31.0967 93.6028 32.0531C93.7079 32.0741 93.8025 32.1634 93.8445 32.3158C94.4909 34.8434 94.6853 37.4866 94.7589 40.0878C94.7011 40.8392 93.8656 40.9443 93.6869 40.1824C93.1404 37.8492 93.4136 35.4372 93.298 33.0673C91.6217 30.7236 90.1345 28.0488 87.6279 26.5827C87.6857 26.9506 87.5911 27.392 87.3284 27.66C87.1445 27.3342 86.9342 26.6721 87.2233 26.362C86.9973 26.2464 86.7661 26.1361 86.5244 26.0415C86.7713 27.1345 87.5543 28.0121 88.0168 29C88.1954 29.1997 88.3584 29.4099 88.5055 29.6358C90.5444 31.8376 90.9701 34.8592 91.2486 37.7336C91.1908 38.3905 91.7846 39.8566 90.9858 40.1246C90.6863 40.1824 90.4761 39.8881 90.4393 39.6201C90.3447 38.4851 90.2501 37.2712 90.0452 36.1676C89.793 34.9853 89.567 33.7924 89.1361 32.6574C88.6526 31.7063 87.9537 30.8707 87.3179 30.0299C86.703 29.1944 85.7309 28.7845 84.8217 28.3484C84.6588 28.2801 84.4959 28.2065 84.333 28.1329C84.3856 28.5008 84.3435 28.8896 84.2279 29.2417C84.0387 28.9842 83.6446 28.3116 83.7234 27.907C83.4712 27.8334 83.219 27.8019 82.9562 27.8386C84.6168 29.5938 85.8254 31.7062 87.4492 33.4877C88.2375 33.3248 88.0641 34.3494 87.8959 34.8119C87.6752 35.7788 87.4335 36.7404 87.1497 37.6916C86.4193 40.3716 85.8254 43.0831 85.0109 45.7421C85.0792 45.9365 85.0267 46.1467 84.9006 46.3043C84.8743 46.3989 84.8165 46.4883 84.7429 46.5513C84.827 47.0663 84.8848 47.5445 84.9163 47.9807C84.8112 48.853 83.7655 48.7163 83.7813 47.8755C83.1927 45.185 82.4675 41.2228 79.9609 39.7567C79.8716 40.03 79.8558 40.3138 79.882 40.608C79.9871 40.6185 80.0975 40.7236 80.1711 40.8182C80.3603 41.0127 80.6125 41.0915 80.8385 41.2281C80.9488 41.2859 80.9015 41.4278 80.8595 41.5119C80.7544 41.7378 80.4548 41.8377 80.2552 41.6748C80.1921 41.6117 80.1028 41.5434 80.0187 41.4698C80.0765 41.7589 80.1343 42.0479 80.1606 42.3211C80.5337 44.2181 80.9488 46.1099 81.2641 48.0174C81.5058 50.7605 81.8842 53.4983 82.9772 56.0416C83.4607 57.3449 83.9179 58.4904 84.5327 59.6833C87.7435 58.1909 91.7425 57.986 95.1951 58.4799C94.822 55.6213 95.605 52.6207 95.9938 49.8041C96.4353 47.7074 96.6349 45.4478 97.255 43.4299C98.2272 40.4714 99.3045 37.5392 100.566 34.6858V34.6805ZM113.451 4.88528C113.477 6.83485 113.467 8.78966 113.451 10.7392C113.419 14.775 113.388 18.8055 113.346 22.8412C113.304 26.9453 113.283 31.0441 113.262 35.1482C113.251 37.2081 113.262 39.268 113.251 41.3227C113.241 43.3774 113.225 45.4373 113.225 47.4919C113.225 49.5466 113.225 51.6801 113.225 53.7768C113.225 55.8892 113.256 58.0017 113.262 60.1142C113.272 64.2708 113.283 68.4274 113.262 72.5841C113.251 74.5809 113.251 76.5725 113.246 78.5694C113.246 80.6345 113.22 82.6997 113.22 84.7702C113.22 86.8406 113.262 88.7481 113.277 90.7397C113.288 92.6367 113.304 94.5337 113.293 96.436C113.293 97.1296 113.272 97.8286 113.267 98.5275C113.256 99.2211 113.267 99.92 113.256 100.619C113.251 101.344 113.235 102.069 113.22 102.794C113.209 103.157 113.199 103.525 113.193 103.887C113.199 103.929 113.204 103.972 113.204 104.008C113.204 104.056 113.204 104.103 113.199 104.134C113.199 104.145 113.199 104.15 113.199 104.155C113.199 104.187 113.188 104.219 113.183 104.245V104.255C113.162 104.355 113.13 104.46 113.078 104.555C113.041 104.628 112.988 104.691 112.925 104.744C112.889 104.776 112.852 104.802 112.81 104.828C112.72 104.881 112.626 104.902 112.531 104.902H112.505C112.416 104.902 112.321 104.875 112.232 104.828C112.205 104.812 112.179 104.797 112.153 104.775C112.074 104.718 112.011 104.644 111.964 104.555C111.89 104.434 111.848 104.292 111.838 104.145V104.134C111.832 104.098 111.827 104.061 111.827 104.003C111.827 103.956 111.827 103.903 111.838 103.851C111.838 103.367 111.822 102.879 111.811 102.395C111.796 101.502 111.796 100.614 111.801 99.7203C111.811 97.9862 111.801 96.2521 111.811 94.518C111.827 92.5421 111.864 90.561 111.906 88.5852C111.948 86.52 111.974 84.4548 111.99 82.3844C112.001 80.356 111.995 78.3224 112.011 76.294C112.027 74.2604 112.032 72.232 112.043 70.1983C112.053 68.1331 112.085 66.068 112.106 64.0028C112.111 63.4038 112.116 62.8099 112.121 62.2109C112.053 62.2004 111.979 62.1846 111.916 62.1741C111.654 62.1216 111.401 62.0637 111.144 61.9902C110.639 61.8588 110.145 61.6906 109.667 61.4962C108.643 61.0758 107.686 60.5031 106.83 59.8042C105.963 59.0947 105.169 58.2855 104.502 57.3869C103.813 56.4568 103.261 55.4478 102.825 54.3758C102.426 53.3879 102.163 52.3317 102.027 51.2702C101.885 50.1772 101.864 49.0526 102.011 47.9544C102.31 45.7263 103.146 43.556 104.507 41.7588C105.174 40.876 105.963 40.0773 106.845 39.4047C107.691 38.7636 108.622 38.2433 109.604 37.8545C110.282 37.5865 110.992 37.4078 111.706 37.2659C111.916 37.2239 112.132 37.1818 112.347 37.1556C112.358 35.742 112.363 34.3284 112.363 32.9201C112.374 28.8266 112.384 24.7278 112.374 20.6342C112.363 16.5932 112.368 12.5469 112.374 8.50589C112.374 6.39343 112.405 4.28096 112.531 2.20002C112.542 2.03187 112.552 1.86898 112.558 1.70082C112.5 1.70082 112.447 1.70082 112.395 1.70082C112.248 1.70607 112.1 1.71657 112.037 1.72183C111.853 1.73759 111.664 1.73761 111.48 1.73761C111.244 1.73761 111.007 1.73761 110.771 1.73761C110.603 1.73761 110.44 1.73761 110.272 1.73761C109.221 1.73761 108.164 1.72709 107.108 1.71658C105.984 1.70607 104.854 1.70606 103.729 1.70606C102.778 1.70606 101.827 1.70606 100.87 1.70606C98.7212 1.69555 96.5666 1.67455 94.4173 1.66929C92.5781 1.66929 90.7441 1.66928 88.9101 1.65877C88.9101 1.79014 88.9154 1.91627 88.9206 2.04238C88.9311 2.55211 88.9574 3.0671 88.9679 3.57682C88.9995 4.61203 88.989 5.64199 88.9995 6.6772C89.0047 7.24999 89.01 7.82276 88.9995 8.39029C88.9837 9.12072 88.9522 9.84589 88.9364 10.5606V10.6551C88.9364 10.734 88.9364 10.8075 88.9311 10.8654C88.9311 10.9232 88.9311 10.981 88.9311 11.0388C88.9311 11.0598 88.9311 11.0755 88.9311 11.0913C88.9311 11.1596 88.9311 11.2332 88.9311 11.291C88.9311 11.517 88.9206 11.7429 88.9154 11.9479C88.9154 12.1738 88.7945 12.4523 88.5318 12.4628H88.516C88.516 12.4628 88.495 12.4628 88.4897 12.4628C88.4897 12.4628 88.4845 12.4628 88.4792 12.4628H88.4634C88.4319 12.4628 88.4004 12.4628 88.3636 12.4628C88.2322 12.4628 88.1009 12.4628 87.9747 12.4628H87.2075C86.6978 12.4628 86.1828 12.4576 85.673 12.4523C84.5222 12.4471 83.3714 12.4313 82.2205 12.4261C79.8663 12.4155 77.5121 12.426 75.1631 12.3998C72.7878 12.3735 70.4126 12.363 68.0321 12.3525C66.8707 12.3525 65.7094 12.3525 64.548 12.363C63.3394 12.3682 62.1255 12.3788 60.9168 12.3735C59.766 12.3735 58.6152 12.3472 57.4696 12.3472C56.8968 12.3472 56.3187 12.3682 55.7459 12.363C55.1679 12.3577 54.5898 12.3157 54.017 12.2737C53.5493 12.2421 53.0764 12.2211 52.6087 12.2001C52.3933 12.1896 52.1726 12.1791 51.9571 12.1686C51.7679 12.158 51.5314 12.1686 51.3738 12.0319C51.2792 11.9479 51.2161 11.827 51.1951 11.7009C51.111 11.5905 51.0637 11.4486 51.0637 11.312C51.0637 11.1964 51.0532 11.0808 51.048 10.9704C51.0375 10.7287 51.0375 10.4817 51.0322 10.24C51.0217 9.44653 51.0217 8.65304 51.0322 7.89108C51.0427 6.85587 51.069 5.81539 51.111 4.78018C51.132 4.25469 51.1688 3.73447 51.1899 3.21423C51.2056 2.94098 51.2109 2.66772 51.2161 2.39447C51.2161 2.26835 51.2267 2.14223 51.2319 2.01612C51.2372 1.89 51.2424 1.75336 51.2739 1.62724C49.9707 1.62724 48.6675 1.62199 47.3695 1.61148C42.9132 1.5852 38.4518 1.56419 33.9903 1.53792C29.5026 1.51164 25.0148 1.57469 20.527 1.59046C18.3305 1.60096 16.1339 1.60623 13.9373 1.57995C12.8653 1.56944 11.788 1.54317 10.716 1.50113C9.6387 1.45909 8.56145 1.38026 7.48417 1.31195C7.37908 1.30669 7.27922 1.30144 7.17938 1.29618C7.17938 1.41704 7.17938 1.54317 7.17938 1.66403C7.17938 1.98983 7.17938 2.31563 7.17938 2.64143C7.17938 3.31931 7.1899 3.99721 7.19516 4.67509C7.21618 5.99407 7.21617 7.31304 7.21617 8.62676C7.24244 8.62676 7.26873 8.63202 7.295 8.64253C7.47367 8.68457 7.65758 8.70559 7.83099 8.74763C8.12001 8.81594 8.40378 8.90527 8.68229 9.00512C9.23932 9.2048 9.75957 9.45704 10.264 9.76708C11.3098 10.4029 12.2241 11.2805 12.9493 12.2632C13.6955 13.2773 14.2736 14.3756 14.7045 15.558C15.1302 16.7193 15.4245 17.9332 15.5611 19.1628C15.6925 20.382 15.6347 21.6326 15.435 22.8412C15.2405 24.0341 14.8674 25.2059 14.3367 26.2884C13.7849 27.413 13.0702 28.4482 12.1769 29.3258C11.3413 30.1508 10.3429 30.7919 9.24984 31.2175C8.81368 31.3857 8.36701 31.5013 7.90983 31.5959C7.75743 31.6274 7.61027 31.6484 7.46313 31.6747C7.44737 31.6747 7.43162 31.6852 7.41586 31.6852C7.38958 31.6852 7.35806 31.6852 7.32127 31.6852C7.295 31.6852 7.26871 31.6852 7.24769 31.68C7.24769 32.9306 7.2372 34.1813 7.22669 35.432C7.21092 36.9191 7.19516 38.4062 7.19516 39.8881C7.19516 41.37 7.19516 42.8519 7.19516 44.3338C7.1899 47.2765 7.16888 50.2192 7.15837 53.1567C7.14786 56.0889 7.12158 59.0159 7.12158 61.9481C7.12158 63.4037 7.12159 64.8594 7.09531 66.315C7.0848 66.9245 7.07428 67.5394 7.05326 68.1489C7.3055 67.3187 7.57876 66.4936 7.8783 65.6844C9.10271 62.5577 10.5005 59.4941 11.4149 56.2571C11.499 56.0679 11.6041 55.9471 11.7197 55.884C11.5778 55.5897 11.499 55.2902 11.5305 55.0748C11.5673 53.3196 13.0387 52.4368 14.7308 51.9954C14.7255 51.9113 14.7308 51.822 14.7413 51.7326C14.9462 50.2508 15.2405 48.7373 15.498 47.2765C16.2653 42.6312 16.7172 37.7704 15.7345 33.1356C15.6767 32.4419 16.4912 32.1266 16.796 31.5749C18.2831 29.6989 19.8807 27.8702 21.8881 26.5354C22.093 26.3883 22.3505 26.2727 22.6027 26.3778C22.7341 26.4303 22.834 26.5197 22.9023 26.6248C23.3542 26.2412 23.8797 25.9311 24.4472 25.6999C24.8571 25.558 25.4772 25.2795 25.8556 25.5685C26.3811 25.1061 27.1168 24.4965 27.7789 24.3441C27.9628 23.8239 28.1678 23.3089 28.4043 22.8097C28.9403 21.6957 29.5709 20.6342 30.2172 19.578C30.1805 19.5674 30.1437 19.5517 30.1121 19.5307C29.8967 19.3678 29.7128 19.1681 29.5604 18.9474C29.4868 18.8738 29.4185 18.7897 29.3712 18.7004C29.2923 18.5743 29.2188 18.4429 29.1452 18.3115C29.0033 18.0698 28.8772 17.8228 28.7773 17.5601C28.6617 17.25 28.5724 16.9295 28.5094 16.6037C28.2729 15.3688 28.4621 14.0551 29.0138 12.9305C29.2713 12.405 29.6076 11.9268 30.007 11.4959C30.4432 11.0282 30.9529 10.6499 31.5099 10.3399C32.5242 9.77759 33.7433 9.56213 34.8889 9.70927C36.0713 9.85641 37.1643 10.3872 38.0524 11.1754C38.93 11.9584 39.529 13.0251 39.8181 14.1549C40.1386 15.4003 40.023 16.7351 39.5921 17.8228C39.3872 18.3325 39.1297 18.8055 38.8091 19.2522C38.4518 19.7409 37.9946 20.1612 37.5059 20.5133C36.6231 21.1544 35.509 21.5012 34.4212 21.5328C34.3739 21.5328 34.3214 21.5328 34.2741 21.5328C34.0901 21.5328 33.9062 21.5223 33.7223 21.5065C33.6382 21.496 33.5541 21.4855 33.4701 21.475C33.4596 21.475 33.4491 21.475 33.4385 21.4697C33.16 22.2474 32.8815 23.0304 32.5767 23.7976C32.2562 24.486 31.9829 25.1849 31.7412 25.8996C32.2299 26.1939 32.6187 27.4655 32.85 27.8544C32.9025 28.0173 33.0181 28.2853 33.1285 28.5848C33.4858 28.0909 33.8799 27.6284 34.3319 27.2081C34.8206 26.7666 35.2883 26.031 36.024 26.0625C36.3288 26.0835 36.5758 26.2674 36.6441 26.567C37.8527 29.3836 36.4969 32.3368 35.9136 35.1429C35.3986 37.2291 34.3897 39.205 33.2178 40.9864C31.6098 42.5576 30.1962 44.3285 29.3081 46.4094C28.7773 47.6496 28.3412 49.0632 28.1257 50.3611C27.926 51.5067 27.7053 52.647 27.4321 53.7768C27.3743 54.008 27.3112 54.2287 27.1536 54.4021C27.5477 54.8067 27.8472 55.2587 28.0206 55.7631C28.1783 56.1835 27.8945 57.0821 27.4794 57.5813C27.4794 57.6549 27.4531 57.7337 27.4163 57.8125C26.7279 58.6743 27.1536 59.9093 27.122 60.9287C27.2429 62.9834 27.2272 65.0433 27.2639 67.1032C27.285 67.8599 27.2639 68.6902 27.2744 69.4574C28.5409 68.6481 29.8546 67.9072 31.1789 67.1978C32.7659 66.3465 34.3949 65.5635 36.0608 64.8804C37.2484 64.3864 38.4623 63.966 39.6867 63.5772C39.7918 61.8115 41.011 60.1195 42.3983 59.0895C43.7803 58.0963 45.5408 57.7179 47.2329 57.4867C47.3642 55.595 47.3432 53.6507 47.0647 51.7694C45.3306 51.0968 43.6332 49.9407 42.598 48.3905C41.074 46.0941 40.2385 43.3879 40.7955 40.6343C41.0057 39.1524 41.878 37.9018 42.4771 36.5618C42.9132 35.5738 43.3757 34.7488 44.1166 34.0079C44.3794 33.3983 44.2743 32.5102 44.8156 32.0793C47.6217 29.4887 48.5729 25.558 51.0375 22.7362C50.9534 22.5365 50.9166 22.321 51.0112 22.1318C50.9902 22.0005 51.0112 21.8638 51.0953 21.764C51.295 21.5433 51.5577 21.4014 51.7837 21.2122C53.2235 20.1087 54.6844 19.0052 56.387 18.3325C60.2074 16.7403 65.0367 16.8822 68.484 19.2942C70.7909 20.5659 72.5987 22.4156 74.049 24.5438C74.049 24.3494 74.0438 24.155 74.0385 23.9605C74.0175 22.9884 74.0017 22.0162 74.0122 21.0441C74.0228 20.382 74.0333 19.7198 74.0595 19.063C74.0753 18.7372 74.0963 18.4061 74.1121 18.0803C74.1226 17.9122 74.1226 17.744 74.1279 17.5811C74.1384 17.3867 74.1279 17.1712 74.2225 16.9978C74.2382 16.9715 74.2592 16.94 74.2803 16.9137C74.3065 16.7666 74.3959 16.6194 74.543 16.5722C74.6061 16.5511 74.6639 16.5249 74.7322 16.5249C74.79 16.5249 74.8425 16.5249 74.9003 16.5249H75.1526C75.2787 16.5249 75.4048 16.5249 75.5309 16.5249C75.8094 16.5249 76.0879 16.5144 76.3665 16.5091C76.913 16.4933 77.4543 16.4828 78.0008 16.4828C79.0465 16.4828 80.0923 16.5196 81.138 16.5354C82.21 16.5459 83.282 16.5564 84.3488 16.5722C85.4313 16.5932 86.5139 16.6457 87.5964 16.6773C88.6631 16.7035 89.7299 16.6983 90.7967 16.7088C91.8424 16.7193 92.8829 16.7298 93.9286 16.7403C94.4646 16.7508 95.0006 16.7508 95.5314 16.7771C95.7994 16.7876 96.0674 16.8034 96.3354 16.8244C96.6087 16.8454 96.8819 16.8769 97.1552 16.9032C97.3339 16.919 97.5126 16.9295 97.6912 16.9295C97.8068 16.9295 97.9224 16.9295 98.038 16.919C98.2797 16.9085 98.5267 16.9032 98.7685 16.8875C98.8105 16.8769 98.8525 16.8717 98.8998 16.8769C98.8998 16.8769 98.9051 16.8769 98.9103 16.8769C98.9261 16.8717 98.9366 16.8664 98.9524 16.8612C99.0785 16.8402 99.1941 16.9085 99.2677 17.0031C99.336 17.0977 99.3623 17.2185 99.3728 17.3394C99.3833 17.4655 99.3833 17.5916 99.3886 17.7177C99.3938 17.9805 99.399 18.238 99.4148 18.4954C99.4358 18.9631 99.4621 19.4256 99.4779 19.8933C99.5041 20.8181 99.4989 21.743 99.4779 22.6731C99.4568 23.6347 99.4516 24.5964 99.4464 25.558C99.4464 26.4934 99.4569 27.4288 99.4622 28.3641C99.4674 28.9632 99.4726 29.5623 99.4726 30.1561C100.045 29.3783 100.765 28.7162 101.638 28.2958C101.9 28.1434 102.258 28.0909 102.499 28.3063C103.335 29.1734 103.083 30.5712 102.778 31.6222C102.279 33.1671 101.454 34.5334 100.902 36.031C99.9141 38.7373 99.0995 41.4961 98.3323 44.2707C97.6544 48.4168 96.6612 52.4946 96.2671 56.6565C96.2198 57.2923 96.2251 57.9387 96.3144 58.564C96.3144 58.5955 96.3144 58.6271 96.3144 58.6586C98.0223 59.1263 99.9298 60.0249 100.182 61.9376C100.245 62.563 100.072 63.3722 99.4831 63.698C99.5041 63.7611 99.5094 63.8399 99.5147 63.9187C99.5357 64.5598 99.5777 65.2062 99.6092 65.7579C100.098 73.5457 102.967 80.8658 104.927 88.3487C106.283 92.3477 107.965 96.3414 108.254 100.603C108.201 101.37 108.385 103.688 107.492 103.819C107.15 103.819 107.035 103.357 107.203 103.094C107.429 100.918 106.893 98.827 106.425 96.7303C105.973 94.4917 105.201 92.3529 104.291 90.2615C102.605 85.2483 101.18 80.1669 99.7511 75.0801C98.8052 71.428 98.1852 67.6917 98.4847 63.9082C98.4847 63.8714 98.4847 63.8347 98.4952 63.8031C97.6859 63.9555 96.7874 63.7558 95.9676 63.7663C93.7605 63.7716 91.464 63.9135 89.3095 64.1132C91.6637 62.0322 95.0427 62.3002 97.954 62.7259C97.9802 62.6943 98.0065 62.6681 98.038 62.6418C98.3218 62.4368 98.6792 62.5209 99.005 62.5682C99.0575 62.542 99.11 62.5104 99.1678 62.4841C99.7459 60.8709 96.4142 60.2456 95.3054 60.0249C92.184 59.3575 83.0981 59.7621 82.1049 63.4353C82.3887 63.6665 82.7513 63.8504 82.9772 64.1552C83.1401 64.1552 83.2873 64.2393 83.3346 64.4232C83.3188 64.5966 83.2295 64.7438 83.1086 64.8541C83.0245 65.0958 82.8248 65.285 82.5779 65.2272C82.5779 65.2272 82.5779 65.2377 82.5779 65.243C82.8879 66.2992 83.0403 67.2608 83.0771 68.3223C83.1034 68.6061 83.1874 68.9687 83.0666 69.2262C83.6499 69.6203 84.2279 70.0354 84.7902 70.4558C86.3457 71.6171 87.8329 72.8625 89.2727 74.1658C90.7389 75.49 92.1209 76.8931 93.4136 78.3907C94.0442 79.1211 94.6643 79.8568 95.2529 80.6188C95.8257 81.3597 96.3774 82.1217 96.9187 82.8889C97.9907 84.4023 98.9787 85.9735 99.9193 87.571C100.087 87.86 100.261 88.149 100.429 88.4381C100.503 88.5642 100.571 88.6903 100.645 88.8164C100.702 88.89 100.739 88.9741 100.765 89.0634C101.328 89.694 102.011 90.209 102.531 90.8816C102.794 91.2757 103.13 91.6961 103.104 92.1953C103.072 92.7156 102.452 93.0098 102.126 92.5264C101.727 91.7539 101.133 91.1233 100.55 90.4822C100.382 90.2878 100.219 90.0881 100.066 89.8832C99.9613 89.8306 99.8773 89.736 99.8247 89.6362C99.7354 89.447 99.6355 89.2631 99.5409 89.0844C99.3833 88.8217 99.2362 88.5537 99.0995 88.2857C99.0995 88.2752 99.0943 88.2699 99.089 88.2646C98.7106 87.5868 98.3113 86.9299 97.9014 86.273C97.8646 86.2205 97.8331 86.1627 97.7963 86.1101C97.1079 85.0329 96.3932 83.9819 95.6365 82.952C94.885 81.9272 94.0863 80.9341 93.3296 80.0197C92.4888 79.0213 91.6112 78.0544 90.7073 77.1085C89.7982 76.1521 88.8628 75.222 87.9379 74.3865C86.1618 72.7995 84.27 71.3597 82.2994 70.0459C82.2783 70.0354 82.2626 70.0197 82.2416 70.0092C81.1485 69.2945 80.0345 68.6166 78.8941 67.9808C77.6697 67.2976 76.4085 66.6775 75.1894 66.131C74.0122 65.6055 72.8194 65.1221 71.6054 64.6965C70.3443 64.2551 69.0673 63.8714 67.7746 63.5351C64.837 62.7994 61.8522 62.3213 58.9042 62.1111C56.0665 61.9271 53.2078 61.9639 50.4384 62.2687C48.9355 62.4474 47.4378 62.6838 45.9559 62.9939C44.4635 63.3039 42.9974 63.698 41.547 64.1394C41.1739 64.2551 40.8008 64.3759 40.4329 64.4968C40.4066 64.5703 40.3803 64.6492 40.3383 64.728C40.2069 64.8961 39.9337 64.8804 39.8023 64.7175C38.9037 65.038 38.0104 65.3849 37.1275 65.7527C35.7034 66.3518 34.2898 66.9823 32.9078 67.6707C31.531 68.3696 30.191 69.1263 28.872 69.9356C28.1783 70.3612 27.4899 70.8079 26.8067 71.2546C26.1499 71.6855 25.4983 72.1216 24.8624 72.5788C22.298 74.4443 19.8912 76.52 17.6841 78.685C15.3456 80.9919 13.1911 83.4774 11.2099 86.0681C10.3797 87.1664 9.58616 88.2857 8.82419 89.4365C7.95712 90.745 7.15312 92.0902 6.37538 93.446C5.87616 94.3183 5.39268 95.2011 4.94075 95.9999C4.88294 96.105 4.8199 96.21 4.7621 96.3151C4.74633 96.3414 4.7358 96.3624 4.7358 96.3624C4.70952 96.4097 4.68327 96.4518 4.65699 96.499C4.64648 96.5201 4.63072 96.5411 4.63072 96.5464C4.63072 96.5569 4.6202 96.5621 4.6202 96.5674C4.6202 96.5674 4.6202 96.5674 4.6202 96.5726L4.60968 96.5989C4.36795 97.0245 4.12622 97.4555 3.88449 97.8916C3.81618 98.023 3.74262 98.1543 3.66905 98.2805C3.59548 98.4066 3.51666 98.5537 3.37477 98.6063C3.33273 98.622 3.29593 98.6273 3.25915 98.6273C3.1593 98.6273 3.07523 98.58 3.00692 98.5064V98.5169C2.9859 98.4907 2.95963 98.4539 2.94386 98.4171C2.91233 98.3593 2.89131 98.2962 2.8808 98.2279C2.86504 98.1491 2.87556 98.0703 2.89132 97.9914C2.91234 97.8864 2.95961 97.7812 2.9964 97.6814C3.12252 97.3714 3.25915 97.0666 3.39578 96.7566C3.7321 95.9841 4.08944 95.2169 4.48357 94.4707C5.3559 92.7891 6.35433 91.1653 7.39482 89.5836C9.439 86.4727 11.6776 83.4827 14.1632 80.7081C15.3561 79.3734 16.6121 78.0912 17.91 76.8563C19.2553 75.5794 20.6584 74.3707 22.1088 73.2146C22.8287 72.6418 23.5539 72.0901 24.2949 71.5488C24.8256 71.1652 25.3564 70.7816 25.8924 70.4085C25.6506 69.7727 25.8714 68.769 25.7452 68.1699C25.5981 65.2745 25.6349 62.3685 25.8346 59.4731C25.9029 58.8005 25.9449 57.9439 26.4021 57.4079C26.3443 57.0348 26.565 56.667 26.8278 56.4042C26.9224 56.2781 27.059 56.1152 26.9329 55.9628C24.6049 53.3617 20.4272 53.0726 17.1796 53.3669C15.9973 53.5246 13.1806 53.9029 12.8915 55.2429C12.8968 55.6528 13.3908 55.905 13.2751 56.3307C13.1122 56.8352 12.8442 56.9297 12.5605 56.7983C12.5342 56.8667 12.4974 56.9297 12.4449 56.998C12.3818 57.182 12.3398 57.3448 12.282 57.5183C10.8474 62.2004 8.62449 66.6408 7.53671 71.4175C6.23348 77.5762 4.17878 83.551 3.04371 89.7518C2.41836 93.2358 2.01898 96.7671 2.05577 100.314C2.07679 102.5 1.88762 104.618 2.59705 106.678C2.6496 106.82 2.72841 106.962 2.74943 107.109C2.75994 107.156 2.75994 107.209 2.74943 107.261C3.33273 108.317 4.24709 109.158 5.49778 109.484C7.80471 109.91 10.0013 108.564 12.1401 107.881C16.57 106.268 20.6059 103.803 24.4946 101.176C24.3054 99.8359 24.2213 98.4854 24.2318 97.1296C24.2318 96.5831 24.2581 96.0419 24.2896 95.5112C24.2896 95.5006 24.2896 95.4954 24.2896 95.4849C24.2896 95.4376 24.2896 95.3903 24.2949 95.3798C24.4157 93.5248 24.6995 91.6961 25.1409 89.8884C25.5928 88.0439 26.2497 86.2625 27.0432 84.5389C27.8157 82.8574 28.7826 81.2756 29.8441 79.7675C30.8951 78.2751 32.088 76.8878 33.3807 75.6004C34.5999 74.3865 35.9347 73.2935 37.3377 72.3055C38.6935 71.3491 40.1386 70.5031 41.5732 69.8305C41.6573 69.7937 41.7361 69.7464 41.8202 69.7201C41.8412 69.7096 41.857 69.6991 41.8728 69.6939C45.2255 68.1174 48.8987 67.2083 52.5982 66.9823C56.2767 66.7564 59.9762 67.2451 63.497 68.3276C66.939 69.3891 70.1709 71.1442 73.0086 73.3513C75.7569 75.4847 78.1111 78.1279 79.9714 81.0654C81.7423 83.8663 83.035 86.9457 83.8075 90.1617C84.5958 93.4407 84.827 96.8669 84.5117 100.22C84.5117 100.235 84.5117 100.256 84.5065 100.272C85.0898 100.692 85.6415 101.192 86.2353 101.596C86.9553 102.122 87.6437 102.689 88.2533 103.341C88.3479 103.472 88.3794 103.625 88.3846 103.782C88.4214 104.197 87.9485 104.628 87.5753 104.318C86.5033 103.357 85.4208 102.379 84.3751 101.418C84.333 101.707 84.2857 102.001 84.2384 102.29C84.1649 102.721 84.0703 103.146 83.9862 103.577C83.9862 103.64 83.9704 103.698 83.9599 103.751C83.9547 103.777 83.9494 103.803 83.9389 103.83C83.8391 104.187 83.5185 104.523 83.1191 104.376C82.8038 104.255 82.6409 103.887 82.6514 103.562C82.6252 103.572 82.5936 103.583 82.5621 103.588C82.2678 103.635 82.0366 103.378 81.984 103.11C81.9788 103.083 81.9735 103.052 81.9735 103.026C81.9683 102.978 81.963 102.926 81.963 102.873C81.963 102.831 81.9683 102.784 81.9788 102.742C81.9893 102.521 81.984 102.3 81.984 102.075C81.984 101.701 81.9841 101.328 81.9683 101.05C81.9263 100.036 81.8264 99.0214 81.674 98.0282L81.6635 97.9757C81.4953 96.9773 81.2799 95.9893 81.0329 95.1065C80.7071 93.9504 80.3077 92.8206 79.8453 91.7118C79.4091 90.6977 78.9257 89.715 78.4002 88.7744C78.3897 88.7534 78.3792 88.7376 78.3686 88.7218V88.7113C77.7538 87.6709 77.0917 86.6724 76.3612 85.716C75.6045 84.7386 74.7847 83.8137 73.9124 82.9414C72.935 81.9903 71.8945 81.1127 70.8645 80.356C69.6401 79.4732 68.3579 78.6745 67.0073 77.9966C66.9128 77.9493 66.8234 77.9073 66.8077 77.8968C65.4361 77.2294 64.0278 76.6566 62.5721 76.2152C61.0219 75.7633 59.4507 75.4532 57.932 75.2798C56.2714 75.1012 54.6109 75.0696 52.9398 75.1852C51.3423 75.3166 49.7763 75.5898 48.2366 75.9734C48.2261 75.9734 48.2155 75.9734 48.2103 75.984L48.1788 75.9945C47.3537 76.2152 46.5392 76.4569 45.7299 76.7354C44.9259 77.0087 44.1429 77.3345 43.3652 77.6813C42.1828 78.2278 41.0477 78.8584 39.9494 79.5678C39.3714 79.9567 38.8039 80.3613 38.2521 80.7869C37.6793 81.2283 37.1328 81.7065 36.5915 82.19C35.6719 83.0465 34.8101 83.9556 33.9956 84.912C33.6277 85.3692 33.2651 85.8316 32.9183 86.3046C32.5714 86.7775 32.2456 87.2662 31.9303 87.7602C31.2997 88.7796 30.727 89.8254 30.212 90.9079C29.76 91.9063 29.3659 92.9205 29.0191 93.961C28.6985 95.0067 28.4253 96.0524 28.2046 97.1244C28.0154 98.1438 27.863 99.1685 27.7684 100.199C27.6738 101.517 27.658 102.836 27.7053 104.161V104.192C27.7684 105.327 27.863 106.452 28.0311 107.576C28.1152 108.081 28.2203 108.585 28.3412 109.085C28.3938 109.3 28.4516 109.515 28.5041 109.726C28.5514 109.904 28.6145 110.093 28.5619 110.277C28.5094 110.44 28.3727 110.603 28.2046 110.603C28.152 110.603 28.0995 110.587 28.0469 110.556C27.9523 110.498 27.8945 110.403 27.8472 110.293C27.7947 110.277 27.7421 110.251 27.6896 110.209C27.5687 110.109 27.4899 109.952 27.4111 109.815C27.3217 109.657 27.2324 109.494 27.1483 109.337C26.8751 108.811 26.6333 108.27 26.4231 107.797C25.719 106.184 25.1462 104.487 24.7836 102.763C24.7783 102.731 24.7678 102.7 24.7626 102.663C22.8235 104.087 20.6584 105.264 18.5984 106.494C17.2059 107.266 15.766 107.96 14.2894 108.554C14.4208 108.795 14.3157 109.19 14.0214 109.205C14.2473 110.918 15.1144 112.463 15.6504 114.087C16.5595 117.156 17.8417 120.125 19.9542 122.574C23.1388 126.956 26.6859 130.619 32.1721 131.791C38.5569 133.131 45.1204 134.429 51.6628 134.077C52.4879 133.977 52.6087 135.427 51.8362 135.595C49.4242 135.832 46.9859 135.785 44.5738 135.517H44.5949C41.9043 135.312 39.2506 134.791 36.5915 134.355C36.2184 134.303 35.8453 134.25 35.4774 134.187C35.4196 134.413 35.3671 134.639 35.3041 134.865C35.199 135.249 35.0886 135.627 34.9835 136.005C34.6945 137.035 34.4159 138.07 34.1322 139.106C33.5541 141.181 32.9603 143.257 32.3875 145.338C31.7885 147.508 31.2419 149.694 30.6534 151.87C30.0753 153.993 29.4658 156.105 28.8404 158.212C28.5304 159.263 28.2098 160.314 27.8945 161.365C27.7474 161.844 27.6003 162.322 27.4584 162.805C27.3848 163.058 27.306 163.31 27.2271 163.562C27.1588 163.783 27.1063 164.056 26.9013 164.193C26.8593 164.219 26.8172 164.229 26.7752 164.229C26.6438 164.229 26.523 164.114 26.4809 163.993C26.3968 163.746 26.4967 163.457 26.5545 163.215C26.6176 162.942 26.6911 162.669 26.7594 162.395C26.8961 161.854 27.0275 161.308 27.1641 160.766C27.4426 159.652 27.7264 158.538 28.0101 157.424C28.5567 155.286 29.1189 153.152 29.7285 151.029C30.3433 148.89 30.974 146.752 31.5625 144.608C32.1353 142.521 32.6923 140.43 33.2651 138.339C33.3439 138.055 33.4228 137.766 33.5016 137.482C32.9761 137.929 32.4453 138.365 31.9461 138.832C31.8831 138.901 31.799 138.98 31.7044 139.032C31.6571 139.169 31.6098 139.305 31.5677 139.447C30.7637 141.838 29.9387 144.224 29.1137 146.604C28.2939 148.969 27.4952 151.334 26.6701 153.699C26.2497 154.897 25.8188 156.09 25.3616 157.277C24.9149 158.444 24.4578 159.61 24.0216 160.782C23.8219 161.308 23.6432 161.833 23.4488 162.364C23.3595 162.616 23.2701 162.863 23.1755 163.115C23.1283 163.236 23.0809 163.357 23.0284 163.473C23.0021 163.52 22.9759 163.567 22.9443 163.609C22.8865 163.73 22.7814 163.83 22.6553 163.83C22.6238 163.83 22.5922 163.825 22.5555 163.809C22.34 163.73 22.2664 163.446 22.3348 163.247C22.361 163.015 22.4398 162.795 22.5082 162.579C22.608 162.269 22.7131 161.954 22.813 161.644C23.0126 161.05 23.2071 160.451 23.3962 159.857C23.7851 158.643 24.1425 157.414 24.5208 156.2C25.2723 153.798 26.1131 151.423 26.9434 149.043C27.7684 146.678 28.5777 144.308 29.4027 141.943C30.2067 139.636 31.037 137.335 31.8568 135.033C32.0355 134.539 32.2036 134.045 32.3823 133.551C31.3786 133.299 30.3854 133 29.429 132.632C29.3712 132.868 29.3081 133.105 29.2503 133.341C29.1189 133.867 28.9823 134.397 28.8509 134.928C28.5934 135.969 28.3465 137.014 28.0837 138.06C27.5477 140.183 27.0064 142.301 26.5335 144.34C26.523 144.376 26.5177 144.413 26.5124 144.429C26.5124 144.445 26.5072 144.455 26.502 144.471C26.502 144.492 26.4914 144.508 26.4809 144.56C26.4599 144.66 26.4336 144.76 26.4179 144.839V144.849C26.3968 144.918 26.3863 144.986 26.3706 145.054C26.3443 145.165 26.318 145.275 26.3128 145.291C26.2865 145.401 26.2655 145.517 26.2445 145.601C25.7452 147.761 25.1987 149.899 24.6417 152.038C24.0952 154.129 23.5329 156.216 22.9233 158.291C22.7394 158.922 22.5502 159.547 22.3768 160.178C22.298 160.472 22.2191 160.766 22.1298 161.055C22.072 161.255 22.0089 161.476 21.846 161.612C21.825 161.66 21.7935 161.707 21.7462 161.733C21.7094 161.754 21.6726 161.765 21.6411 161.765C21.557 161.765 21.4729 161.707 21.4361 161.618C21.4099 161.555 21.3994 161.492 21.4046 161.429C21.3521 161.239 21.3731 161.061 21.4099 160.866C21.4572 160.588 21.5255 160.314 21.5728 160.104C21.5885 160.046 21.5991 159.989 21.6096 159.936C21.6096 159.926 21.6096 159.915 21.6148 159.91V159.889C21.6148 159.889 21.6253 159.863 21.6253 159.852C21.8723 158.775 22.0878 157.692 22.319 156.615C22.566 155.49 22.8235 154.371 23.0862 153.252C23.5907 151.134 24.1109 149.022 24.6575 146.914C24.9412 145.827 25.2407 144.749 25.535 143.667C25.8241 142.611 26.0973 141.549 26.3653 140.488C26.5282 139.841 26.6911 139.195 26.854 138.543C26.0448 139.19 25.2565 139.862 24.4578 140.53C24.174 141.365 23.8955 142.201 23.6012 143.031C23.2281 144.093 22.8497 145.159 22.4766 146.221C22.1035 147.267 21.7409 148.318 21.3468 149.358C21.0473 150.146 20.7215 150.924 20.4325 151.691C20.4062 151.765 20.3746 151.844 20.3589 151.896C20.2538 152.18 20.1434 152.469 20.0383 152.742C20.0331 152.763 20.0226 152.784 20.0173 152.8V152.821C20.0173 152.821 20.0068 152.831 20.0068 152.837C19.928 153.052 19.8491 153.262 19.7598 153.467C19.6862 153.641 19.6179 153.835 19.4393 153.93C19.4025 153.951 19.3709 153.956 19.3342 153.956C19.1923 153.956 19.0609 153.814 19.0241 153.683C18.9558 153.441 19.0504 153.184 19.1187 152.947C19.1923 152.679 19.2869 152.416 19.3709 152.148C19.5444 151.618 19.7178 151.087 19.8754 150.551C20.1854 149.516 20.5113 148.486 20.8581 147.461C21.5886 145.312 22.3242 143.163 23.081 141.024C23.8272 138.932 24.5734 136.841 25.3301 134.749C25.6244 133.94 25.9239 133.131 26.2129 132.316C26.3338 131.975 26.4546 131.628 26.5755 131.286C25.3826 130.598 24.2686 129.768 23.2649 128.764C21.0052 126.61 19.145 124.066 17.353 121.528C15.8974 119.358 15.0671 116.741 14.3892 114.271C13.8848 112.553 13.0597 110.792 13.1858 108.969C10.8631 109.736 8.54043 110.982 6.04431 110.876C3.44835 110.577 1.85083 108.407 1.40416 106.01C0.594888 103.993 0.694729 101.617 0.57912 99.4786C0.342645 91.4176 2.87556 83.6351 5.02485 75.984C5.41897 74.4495 5.79206 72.8994 6.19144 71.3649C6.18093 71.1285 6.17042 70.892 6.16517 70.6713C6.16517 70.6503 6.16517 70.6345 6.16517 70.6187V70.603C6.15466 70.4611 6.14942 70.3192 6.14416 70.1983C5.98651 67.2661 5.99701 64.3234 6.00227 61.3859C6.00752 58.4799 5.98651 55.5792 5.98126 52.668C5.976 49.6885 5.96022 46.709 5.96022 43.7347C5.96022 42.2686 5.96548 40.7972 5.97074 39.3311C5.97074 37.8597 5.94972 36.3884 5.93921 34.917C5.91293 31.9585 5.92869 28.9947 5.96548 26.0362C6.00226 23.0987 5.9865 20.1612 5.99701 17.2238C6.00752 14.3231 5.98649 11.4171 5.98649 8.51641C5.98649 7.16591 5.99177 5.81539 6.01279 4.47014C6.0233 3.83955 6.02853 3.20372 6.02853 2.57313C6.02853 2.08443 6.04955 1.5852 6.02853 1.10175C6.02853 1.09124 6.02853 1.07548 6.02853 1.06497C5.99175 0.975633 5.97074 0.875801 5.97074 0.781213C5.97074 0.576273 6.06531 0.355562 6.24923 0.250464C6.33331 0.20317 6.4279 0.187407 6.51198 0.203172C6.61183 0.176898 6.71694 0.182152 6.81678 0.218936C6.84831 0.229446 6.8746 0.245204 6.90088 0.260968C7.75219 0.234694 8.60872 0.166386 9.46528 0.119092C10.5373 0.0612882 11.6146 0.0297524 12.6866 0.0139877C14.8516 -0.0175416 17.0167 -0.00702094 19.1818 0.00874374C23.6853 0.0350182 28.1941 0.113831 32.6976 0.129596C34.9362 0.134851 37.1748 0.119092 39.4187 0.119092C41.6731 0.119092 43.9275 0.119092 46.1871 0.119092C50.6959 0.113837 55.2047 0.129606 59.7135 0.15588C64.1854 0.182155 68.6522 0.171649 73.1241 0.192668C77.5541 0.213688 81.9893 0.255713 86.4192 0.260968C90.8282 0.260968 95.2424 0.292508 99.6513 0.271488C101.753 0.260979 103.861 0.281992 105.963 0.281992C106.635 0.281992 107.303 0.281987 107.975 0.276732C109.215 0.276732 110.456 0.266233 111.701 0.287252C111.885 0.287252 112.064 0.297756 112.247 0.31352C112.358 0.32403 112.473 0.324035 112.584 0.334544C112.678 0.334544 112.789 0.334549 112.883 0.355568C113.13 0.413372 113.272 0.613049 113.314 0.83901C113.314 0.83901 113.314 0.839015 113.314 0.84427C113.32 0.854779 113.325 0.865283 113.33 0.870538C113.367 0.954616 113.367 1.05971 113.372 1.14905C113.383 1.2594 113.388 1.36975 113.393 1.48011C113.409 1.75336 113.419 2.03188 113.435 2.31039C113.482 3.16694 113.509 4.02874 113.524 4.89054L113.451 4.88528Z" fill="#050505"/>
</svg>
