<svg width="143" height="147" viewBox="0 0 143 147" fill="none" xmlns="http://www.w3.org/2000/svg">
<path d="M33.8717 23.3846C34.2785 23.5567 34.1273 24.3599 33.6579 24.1617C33.0895 23.7184 32.5054 24.3286 32.0204 23.9113C31.4155 23.4263 31.5876 22.1328 32.4533 22.0859C32.8809 22.0963 33.1156 22.4562 33.2824 22.8109C33.491 22.9882 33.6944 23.1812 33.877 23.3846H33.8717Z" fill="black"/>
<path d="M27.3062 130.564C29.7468 127.893 32.4534 125.035 33.1783 121.374C33.2617 120.639 34.1326 120.628 34.2473 121.364C34.3099 123.226 33.2773 124.983 32.4273 126.584C31.3843 128.587 29.3348 129.802 27.3062 130.564Z" fill="black"/>
<path d="M41.0318 18.7376C41.3864 19.1026 41.4437 19.7963 41.2403 20.2396C41.0213 20.7142 40.505 20.7664 40.1765 20.5004C40.0618 20.4117 39.9731 20.2813 39.921 20.1197C39.8323 19.8902 39.8271 19.5668 39.9105 19.2695C39.9887 18.9775 40.1452 18.7167 40.3747 18.5967C40.4738 18.5446 40.5833 18.5185 40.7084 18.5289C40.8336 18.5706 40.9431 18.6437 41.0318 18.7323V18.7376Z" fill="black"/>
<path d="M40.5942 21.9607C39.7911 21.5278 40.2918 20.3335 40.2709 19.5981C40.3544 19.0087 40.2709 17.4336 41.2566 17.9291C41.4234 18.0647 41.5069 18.2942 41.5069 18.5028C41.4704 19.2278 41.4338 19.9579 41.4026 20.6881C41.4338 21.2201 41.3608 22.1641 40.5995 21.9607H40.5942Z" fill="black"/>
<path d="M39.0663 19.7232C39.0142 18.1951 40.4639 16.6356 42.0389 17.225C42.5343 17.3867 42.7168 18.1586 42.237 18.435C41.0793 18.5497 40.0728 19.2121 39.0715 19.7232H39.0663Z" fill="black"/>
<path d="M42.5702 24.5893C43.1595 24.5007 43.3472 25.3925 42.9822 25.742C42.8361 25.888 42.6588 25.9558 42.4711 26.0132C42.6067 26.4774 42.2364 27.1084 41.7045 26.8946C41.0109 26.5086 40.1921 25.0535 41.2664 24.6467C41.7045 24.6363 42.1477 24.678 42.5702 24.5893Z" fill="black"/>
<path d="M44.8339 23.6766C45.1207 24.12 44.5679 24.8449 44.1664 24.3181C43.7961 23.8435 44.4271 23.0403 44.8339 23.6766Z" fill="black"/>
<path d="M37.4284 55.1002C37.2303 54.8186 37.1729 54.4222 37.1416 54.0728C36.9382 52.7376 36.6879 51.4441 36.3802 50.135C35.671 46.9536 34.4872 43.8869 33.0166 40.9922C32.7506 40.6897 32.495 40.382 32.2552 40.0639C31.8692 39.4797 30.2891 37.3309 30.1639 36.1001C30.1483 36.0844 30.1378 36.0635 30.1222 36.0479C29.9866 37.9985 29.6424 39.9283 28.9436 41.8059C27.3322 46.8597 24.6673 51.851 20.0416 54.7195C18.5136 55.5749 16.7196 56.3363 14.9153 56.545C14.4511 57.0404 13.7054 57.1969 13.0535 57.1552C11.5099 57.1447 9.6898 56.7849 8.28175 55.9556C8.1618 56.3363 8.04187 56.7119 7.93235 57.0978C6.62339 61.3433 5.52823 65.6461 4.59996 69.9906C3.15018 76.1501 1.84644 82.3984 2.22713 88.7665C2.24799 98.2066 2.9416 102.155 7.93757 110.291C12.605 118.631 21.0846 124.368 24.7142 133.328C26.988 134.298 29.0114 132.295 30.5916 130.898C32.3647 129.239 34.0647 127.403 34.6488 124.973C34.9148 123.825 35.8327 121.703 34.8366 120.879C34.0074 120.779 33.1313 120.691 32.3334 121.072C31.9944 121.228 31.6502 121.609 31.2643 121.369C30.6959 120.764 30.8732 120.247 31.3634 119.872C30.6541 119.111 30.117 118.125 29.4286 117.374C28.3596 116.002 27.1705 114.724 26.0076 113.431C24.6204 111.861 23.2749 110.202 21.9816 108.559C20.61 106.859 19.541 104.961 18.5762 103.005C17.3924 101.638 16.2712 100.22 15.3064 98.7073C15.2438 98.6552 15.1969 98.5822 15.1708 98.4987C15.1082 98.3944 15.0456 98.2953 14.9831 98.1962C14.9831 97.5391 15.1552 97.2626 15.442 97.2783C15.5306 97.0905 15.6349 96.8871 15.7601 96.6681C15.7705 95.9327 15.7757 95.1973 15.7601 94.4567C15.7549 93.9977 15.734 93.5387 15.7444 93.0798C15.7549 92.6052 15.7705 92.1357 15.7809 91.6611C15.8331 91.0666 15.8696 90.472 15.9165 89.8774C15.927 89.7001 15.9583 89.5228 15.9843 89.3454C16.0365 88.9386 16.0886 88.5371 16.1408 88.1302C16.2711 87.1497 16.4485 86.1744 16.6258 85.1991C16.6258 85.2617 16.6258 85.3243 16.6362 85.3816C16.8761 84.1977 17.1525 83.019 17.4445 81.8507C18.9621 74.4864 22.3571 67.7218 26.0545 61.2337C27.0766 59.6899 28.3074 58.3026 29.6372 57.0143C29.1939 58.167 28.7246 59.3561 28.2604 60.467C28.469 60.321 28.6829 60.175 28.9019 60.0342C29.5329 59.6117 30.1692 59.2101 30.8262 58.8294C32.203 58.0314 33.5798 57.2282 34.9774 56.4667C35.3372 56.2685 35.697 56.0755 36.0569 55.8774C36.5106 55.6166 36.9643 55.3506 37.4232 55.095L37.4284 55.1002ZM44.8755 25.257C45.1154 24.6989 45.4752 24.2086 46.0541 23.9009C44.5782 21.1002 45.5482 17.5745 43.6917 14.9615C43.6186 14.878 43.5456 14.7946 43.4726 14.7059C42.8155 15.264 42.0594 15.6864 41.2563 15.9055C39.3476 16.4583 37.3502 16.62 35.4259 17.0999C35.2955 17.3554 35.1495 17.6058 35.0348 17.8665C34.6593 18.6854 34.3881 20.1614 33.7623 21.0845C33.7623 21.095 33.7727 21.1054 33.7727 21.1158C33.9292 21.1523 34.0648 21.3036 34.07 21.5696C34.07 21.9242 33.8196 22.0755 33.6058 22.0233C33.5589 22.0546 33.5015 22.0755 33.439 22.0807C33.2721 22.1276 33.1156 22.1537 32.9331 22.0963C32.7923 22.0129 32.6515 21.9503 32.5107 21.9034C32.4116 21.9138 32.3125 21.9086 32.203 21.8982C32.0883 21.8825 31.9631 21.8616 31.8484 21.8251C31.0035 21.8982 30.3621 22.644 30.5707 23.7079C30.8002 24.6572 31.7389 25.4395 32.7036 25.5282C32.9279 25.4916 33.1208 25.3717 33.3555 25.4082C33.6788 25.4395 33.9031 25.7889 33.9709 26.0758C34.1378 26.7851 33.731 27.2076 33.173 27.3745C33.3086 28.0577 33.0582 28.7931 32.3021 28.0733C32.1508 27.8856 32.0309 27.63 31.9892 27.3745C31.8745 27.338 31.7702 27.2962 31.6711 27.2441C30.868 26.9468 30.2057 26.3835 29.7467 25.6898C29.7363 26.347 29.7676 27.0094 29.8198 27.6665C30.0284 29.784 30.2213 31.9276 30.2161 34.0556C30.5394 34.5876 30.8158 35.1404 31.0557 35.7141C31.8432 37.1275 32.9018 38.4262 34.1065 39.5423C35.2277 40.3976 36.3489 41.6754 37.8143 41.8215C39.577 41.4147 39.3163 39.4902 38.5705 38.2593C38.5392 38.5514 38.4923 38.8382 38.4297 39.1198C38.2889 39.631 37.6162 39.9908 37.2146 39.5267C36.9382 39.2242 36.8861 38.8069 36.9382 38.4731C37.0999 37.4457 37.1886 36.4078 37.4128 35.3908C37.5067 35.0674 37.757 33.5862 38.1168 32.6056H38.0855C37.2146 32.6056 36.3437 32.4179 35.5093 32.0007C34.847 31.6512 34.9044 30.5664 35.3946 30.1439C35.5719 30.2587 35.7544 30.3682 35.9422 30.4568C36.1038 30.5351 36.2707 30.6081 36.4428 30.6603C36.6149 30.7072 36.7818 30.7385 36.9591 30.7541H36.9487C36.9487 30.7541 36.9904 30.7541 37.0112 30.7594C37.0217 30.7594 37.0269 30.7594 37.0321 30.7594C37.1677 30.7698 37.2928 30.7802 37.4284 30.7802C37.5014 30.7802 37.5797 30.7802 37.6579 30.7698C37.8717 30.8011 38.0855 30.8219 38.2993 30.848C38.3828 30.8584 38.4714 30.8584 38.5601 30.8584C38.753 30.8584 38.946 30.8428 39.1285 30.8219C39.7335 30.7593 40.3332 30.6394 40.8912 30.3838C41.371 30.1648 41.8091 29.8675 42.2367 29.5598C42.487 29.3825 42.7373 29.2051 42.9615 28.9965C43.2327 28.7462 43.4778 28.4749 43.6969 28.1777C43.8585 27.9638 44.0046 27.7395 44.1401 27.5101C44.1871 27.4266 44.234 27.3432 44.2757 27.2545C44.3018 27.2023 44.3279 27.1554 44.3488 27.1033C44.3905 27.025 44.427 26.9416 44.4635 26.8633C44.4895 26.806 44.5104 26.7486 44.5365 26.6912C44.5365 26.6912 44.5365 26.686 44.5365 26.6808C44.5365 26.6756 44.5417 26.6703 44.5469 26.6599C44.5469 26.6599 44.5469 26.6495 44.5521 26.6443C44.5521 26.6339 44.5626 26.6182 44.5678 26.6026C44.5678 26.613 44.5573 26.6234 44.5573 26.6286C44.6303 26.4356 44.6981 26.2375 44.7555 26.0289C44.8181 25.7994 44.8546 25.5751 44.8807 25.3404C44.8807 25.3091 44.8859 25.2726 44.8911 25.2413L44.8755 25.257ZM46.951 49.8639C48.1088 49.2328 49.2717 48.6121 50.4399 47.9967C48.3904 45.5975 46.4243 43.1202 43.9003 41.1904C44.6356 42.3639 45.2249 43.5218 45.2979 43.8295C46.0176 45.7905 46.5078 47.8246 46.951 49.869V49.8639ZM49.1205 132.994C49.2456 132.723 49.3499 132.441 49.4334 132.149C48.8754 132.483 48.2913 132.796 47.702 133.099C47.775 133.099 47.8428 133.088 47.9106 133.078C48.3017 133.057 48.7659 132.838 49.1153 132.994H49.1205ZM50.8414 138.919C50.8936 138.83 50.9457 138.737 50.9979 138.648C50.3356 138.716 49.668 138.731 48.9901 138.684C48.3069 138.591 47.5716 138.455 46.9928 138.074C46.3409 138.643 45.6734 139.19 45.0267 139.759C44.8911 139.926 44.6877 140.035 44.4896 140.035C44.3279 140.035 44.1715 139.962 44.0619 139.79C43.5874 139.123 44.3122 138.523 44.7659 138.132C45.8194 137.068 47.0241 136.019 47.9732 134.82C47.8637 134.82 47.7542 134.82 47.6499 134.809C47.0293 134.757 46.1792 134.642 45.9498 133.975C44.4374 134.757 42.9824 135.612 41.8403 136.869C41.6526 137.151 41.3553 137.469 40.9903 137.313C40.5522 137.172 40.5209 136.431 40.8755 136.176C40.9798 135.988 41.0894 135.8 41.2197 135.618C41.3397 135.461 41.4648 135.31 41.6004 135.164C41.444 135.112 41.2927 135.054 41.1415 134.992C41.1467 135.133 41.1467 135.279 41.1415 135.425C38.7635 134.408 38.1481 131.602 36.9434 129.552C36.5002 128.634 36.1038 127.68 35.7701 126.715C35.6397 127.09 35.5093 127.44 35.3946 127.753C34.7166 129.302 33.0948 131.602 31.1913 133.412C33.9188 137.141 37.4806 140.155 40.5314 143.603C40.5209 143.592 40.5105 143.582 40.5053 143.571C42.3723 143.217 44.1975 142.622 45.9237 141.835C47.6029 140.922 49.1518 139.795 50.8414 138.909V138.919ZM124.436 59.8307C125.88 60.1698 127.32 60.5766 128.686 61.0773C126.626 56.9309 124.556 52.7898 122.527 48.6278C120.472 44.4136 118.459 40.1786 116.451 35.9436C115.424 33.7792 114.423 31.6095 113.432 29.4346C112.895 28.2507 112.368 27.0667 111.836 25.8776C111.153 24.751 110.543 23.588 109.917 22.4197C109.39 21.3349 108.28 20.8029 107.137 20.7351C106.825 20.9072 106.47 21.0167 106.141 21.1002C105.396 21.2566 104.707 21.6061 104.008 21.8773C103.826 21.9764 103.643 22.0755 103.461 22.1693C103.054 22.3988 102.642 22.6231 102.23 22.8422C101.427 23.2803 100.624 23.7079 99.8156 24.1408H99.8051C98.7204 24.7406 97.6461 25.33 96.577 25.9037C95.6696 26.3939 94.7622 26.8842 93.8548 27.3745C93.907 27.3953 93.9591 27.411 94.0113 27.4318C94.1103 27.411 94.2094 27.4162 94.2981 27.4579C94.5797 27.5883 94.8665 27.6874 95.1481 27.8126C95.5497 27.9899 95.9408 28.1881 96.3267 28.3967C97.3437 28.9548 98.3032 29.638 99.1585 30.4256C99.8521 31.0618 100.483 31.7607 100.999 32.4283C102.668 34.5719 103.758 37.1223 104.207 39.7822C104.321 40.4759 104.394 41.1696 104.405 41.8737C104.42 42.5934 104.368 43.3236 104.269 44.0381C104.081 45.3524 103.737 46.6407 103.242 47.8715C102.241 50.3698 100.53 52.5968 98.3971 54.2449C97.3332 55.0637 96.1807 55.7418 94.9395 56.2737C93.6827 56.8109 92.3425 57.1656 90.9866 57.3429C90.7415 57.3742 90.4963 57.4003 90.2564 57.4159C89.8132 57.4472 89.3751 57.4681 88.9318 57.4681C88.7024 57.4681 88.4677 57.4629 88.2382 57.4472C87.5759 57.4107 86.9241 57.3325 86.2722 57.2178C84.9476 56.9778 83.6543 56.5502 82.4392 55.966C82.3609 55.9295 82.2827 55.8878 82.2045 55.8513C82.2045 55.8513 82.1993 55.8513 82.1941 55.8513C82.1836 55.8461 82.1732 55.8408 82.168 55.8356C79.6126 54.5526 77.4901 52.529 76.0247 50.0829C74.5854 47.6785 73.8292 44.9195 73.7614 42.124C73.7301 40.7314 73.897 39.3441 74.2464 38.0037C73.9752 38.155 73.6988 38.3062 73.4276 38.4575C69.8814 40.4342 66.3352 42.4056 62.7838 44.3667C61.4644 45.0916 60.1398 45.8218 58.956 46.4633C58.6066 46.6511 58.2624 46.8441 57.9338 47.0214L57.8765 47.0527C57.8295 47.0788 57.7826 47.1048 57.7513 47.1205C56.2077 47.9602 54.664 48.8051 53.2664 49.5666C49.6993 51.5015 46.101 53.3791 42.5027 55.2515C40.7713 56.1538 39.0347 57.0457 37.2876 57.9114C35.4415 58.8241 33.5693 59.6847 31.718 60.5922C31.1235 60.8843 30.529 61.1764 29.9397 61.4632C29.6685 61.5936 29.3921 61.7292 29.1209 61.8544C28.8863 61.9587 28.6412 62.0734 28.3856 62.0734C28.323 62.0734 28.2657 62.0682 28.2031 62.0526C28.1927 62.0526 28.1874 62.0526 28.1822 62.0473C28.1822 62.0473 28.177 62.0473 28.1718 62.0473C27.9997 62.1204 27.8328 62.1934 27.6607 62.2664C27.5929 62.2977 27.5199 62.3342 27.4521 62.3655C25.5904 66.444 23.2384 70.3505 21.6843 74.4916C19.7965 79.9262 18.4719 85.559 17.554 91.2335C17.4237 92.2714 17.3611 93.3197 17.3402 94.3628C19.1186 92.0263 21.434 89.5541 22.065 89.0534C24.9281 86.3882 28.1353 84.0308 31.6502 82.3097C37.4284 79.9158 43.8168 79.1856 50.0279 79.0552C54.2468 79.2742 58.4501 79.9001 62.5283 80.985C70.7315 83.3893 80.7912 86.5864 88.1131 80.3852C95.6592 74.2308 99.4505 63.4138 109.39 60.3679C114.209 58.7407 119.518 58.6416 124.446 59.8203L124.436 59.8307ZM135.903 75.5086C135.559 74.8202 135.21 74.1317 134.866 73.4381C133.473 70.6425 132.07 67.8522 130.673 65.0619C129.953 64.8898 129.129 64.3318 128.446 64.1388C121.197 61.2076 112.373 61.0616 105.714 65.5261C101.396 68.7597 98.152 73.5789 94.8509 77.6731C88.3425 85.9032 81.3284 88.4536 71.0652 86.2683C65.5582 85.0531 60.2284 83.0294 54.5806 82.4557C49.9497 81.7412 45.2561 82.1324 40.6461 82.8521C37.0947 83.5041 33.4702 84.2499 30.2943 86.044C26.018 88.3702 22.0703 91.3482 18.7744 94.9417C18.2737 95.4789 17.7991 96.037 17.3454 96.6159C17.3506 96.8558 17.3611 97.0905 17.3715 97.3304C17.8617 97.7112 17.9817 98.53 18.3363 99.0307C19.7652 101.816 21.1993 104.637 23.2175 107.052C25.945 110.474 28.881 113.723 31.5303 117.207C31.8901 117.754 32.4533 118.219 32.7506 118.808C33.0165 118.573 33.3816 118.433 33.7727 118.511C33.9709 118.532 34.1638 118.558 34.3412 118.594C35.3946 116.649 38.1012 114.135 38.946 113.212C41.7778 110.369 44.9798 107.881 48.5886 106.098C56.0252 102.311 64.6195 102.807 72.6871 101.727C90.392 100.006 100.478 97.5026 114.392 85.752C119.711 81.4909 125.39 77.1411 132.279 75.9624C133.478 75.7381 134.694 75.5712 135.914 75.5139L135.903 75.5086ZM138.292 92.6886C139.976 90.6076 141.176 87.7234 140.821 85.0635C140.712 84.9592 140.623 84.834 140.566 84.6827C140.128 83.8743 139.726 83.0451 139.309 82.2262C138.845 81.3135 138.381 80.3956 137.911 79.4829C137.567 78.8101 137.228 78.1373 136.889 77.4645C136.31 77.4645 135.731 77.5062 135.152 77.5531C131.705 77.9286 128.321 78.8779 125.265 80.5364C119.841 83.431 115.372 87.7338 110.47 91.3795C106.277 94.4097 101.875 97.2105 97.036 99.0829C87.2005 103.052 76.4732 103.626 66.0328 104.643C60.9064 105.081 55.8948 105.201 51.0918 107.083C46.9615 108.706 43.2171 111.172 39.9734 114.187C38.4036 115.705 36.6723 117.212 35.4572 119.027C37.1312 120.086 36.9539 122.506 36.3802 124.738C36.4428 124.837 36.4949 124.947 36.5471 125.051C37.0738 126.188 37.611 127.315 38.2159 128.415C39.0555 130.027 40.2497 131.57 40.8182 133.302C41.5691 133.537 42.3671 133.604 43.118 133.85C44.1037 133.146 45.1936 132.572 46.2418 131.988C47.0553 131.555 47.8689 131.127 48.6876 130.705C48.7398 130.71 48.7919 130.715 48.8441 130.726C49.0735 130.757 49.303 130.799 49.5273 130.851H49.5481C49.6003 130.882 49.6576 130.913 49.7098 130.945L49.8245 131.018C49.9705 131.143 50.1166 131.268 50.2521 131.409C50.3147 131.477 50.3773 131.544 50.4294 131.617L50.5129 131.743C50.5338 131.789 50.5546 131.836 50.5755 131.878C50.5963 131.941 50.6172 132.009 50.6381 132.071C50.6798 132.243 50.7111 132.421 50.7371 132.598C50.7371 132.634 50.7424 132.671 50.7476 132.707C50.492 133.897 49.8923 135.013 49.0996 135.951C48.891 136.212 48.6772 136.457 48.4477 136.697C48.6355 136.781 48.8337 136.875 49.0162 136.974C50.6433 136.942 52.2599 136.447 53.7879 135.91C55.9208 135.122 57.8869 133.964 59.853 132.853C60.9116 132.342 62.0068 131.445 63.1645 131.132C63.806 130.767 64.4474 130.397 65.094 130.032C66.8306 129.046 68.5673 128.06 70.3299 127.127C73.9387 125.218 77.5631 123.351 81.1928 121.484C84.8746 119.585 88.5668 117.713 92.2642 115.851C96.0764 113.937 99.8782 112.007 103.696 110.103C107.393 108.252 111.101 106.426 114.824 104.622C118.663 102.765 122.49 100.882 126.323 99.0098C129.958 97.2313 133.604 95.4841 137.249 93.7265C137.259 93.7213 137.275 93.7161 137.291 93.7057C137.64 93.3875 137.979 93.0485 138.287 92.6886H138.292ZM142.678 84.0986C143.048 86.2318 142.657 88.5527 141.958 90.5502C141.306 91.9688 140.367 93.3979 139.173 94.5088C139.126 94.8165 138.975 95.1034 138.704 95.239C137.15 96.0161 135.627 96.8558 134.089 97.659C132.242 98.6239 130.402 99.5835 128.55 100.538C124.806 102.473 121.051 104.387 117.307 106.332C113.594 108.262 109.875 110.176 106.147 112.07C102.345 113.994 98.5275 115.893 94.7153 117.801L93.8131 118.255C94.2042 118.792 94.5484 119.397 94.9187 119.872C96.8899 122.887 98.8039 125.979 100.207 129.312C100.796 130.715 101.234 132.175 101.537 133.667C101.714 134.387 101.135 135.633 100.259 135.159C99.9042 134.95 99.7374 134.59 99.6278 134.262C98.9655 132.191 98.1572 130.553 97.1768 128.712C96.0608 126.642 95.0178 124.54 93.9487 122.443C93.3542 121.338 92.9213 120.101 92.2486 119.048C89.396 120.477 86.5381 121.896 83.6699 123.299C79.9933 125.098 76.322 126.913 72.6245 128.676C72.2073 128.874 71.7953 129.072 71.3729 129.27C72.3377 129.818 73.5737 131.393 73.9387 131.774C74.4654 132.608 75.4511 133.37 75.4093 134.423C75.3572 134.908 74.9035 135.43 74.4028 135.221C73.1878 134.199 72.3742 132.551 71.399 131.341C71.0704 130.95 70.7784 130.517 70.3821 130.199C70.2934 130.1 70.2361 129.959 70.2256 129.808C69.2504 130.261 68.2648 130.705 67.2791 131.143C65.6051 132.175 63.8894 133.14 62.1163 133.975C62.1111 133.975 62.1058 133.98 62.1006 133.985C61.8294 134.136 61.5531 134.288 61.2923 134.449C58.4918 136.051 55.5193 137.803 52.3329 138.455C52.1817 138.825 51.7332 139.169 51.2847 139.451C50.0435 141.459 48.3591 143.279 46.1271 144.171C44.1662 144.959 42.1324 145.845 40.0307 146.064C39.6292 145.991 39.358 145.579 39.1129 145.282C36.8861 142.81 34.6019 140.385 32.6515 137.683C32.2395 137 30.8888 135.461 30.2943 134.241C28.8706 135.409 27.353 136.228 25.9867 136.228C25.825 136.228 25.6686 136.217 25.5122 136.191C22.9933 135.962 22.8368 134.131 21.846 132.275C20.7039 130.454 19.4471 128.707 18.1381 127.002C15.395 123.533 12.1982 120.456 9.58031 116.883C6.33136 112.289 3.42137 107.313 1.61177 101.967C-0.062251 96.5898 0.203732 90.8423 0.000346861 85.2773C-0.0205132 80.6146 0.902538 76.0458 1.95075 71.5187C3.12413 66.0842 4.64168 60.7278 6.75898 55.5801C6.84242 55.3714 6.92585 55.1576 7.01451 54.9438C7.00929 54.9438 7.00409 54.9333 6.99888 54.9281C1.92468 50.594 6.60774 40.0847 8.65203 35.0204C9.7889 32.0476 11.0561 29.033 12.4225 26.1853C13.1839 24.4329 13.8409 22.6648 14.6388 20.9333C17.3194 14.7476 19.9895 9.46431 26.722 6.98171C30.0805 5.87602 33.585 5.23973 37.0738 4.67124C38.7739 4.37917 40.62 4.13402 42.0281 3.05962C42.7164 2.34509 43.0502 1.38025 43.5613 0.545761C43.8898 -0.163552 44.8859 -0.20006 45.2092 0.545761C46.6381 3.37258 46.8937 6.79917 46.0019 9.84504C45.9237 11.2324 45.3292 12.6353 44.4218 13.7567C44.4426 13.7776 44.4635 13.7932 44.4843 13.8193C46.5391 15.7907 46.4608 19.014 46.6955 21.6165C46.8102 22.1798 46.9615 22.6961 47.1388 23.129C47.5143 23.7601 47.5299 24.5581 46.9145 25.0431C46.6851 25.2726 46.3982 25.4395 46.1583 25.6585C46.0801 25.8202 46.0175 25.9819 45.9654 26.154C45.9237 26.4878 45.8194 26.832 45.7568 27.0563C45.7099 27.2128 45.6525 27.3692 45.5899 27.5153C45.5534 27.6404 45.5117 27.7604 45.4648 27.8856C45.4231 28.0577 45.3396 28.1985 45.2405 28.2976C45.178 28.428 45.1049 28.548 45.0111 28.6679C45.0111 28.6783 45.0163 28.6888 45.0215 28.6992C43.676 30.5507 41.5222 32.0997 39.2537 32.5118C39.2276 33.6696 38.8938 34.8483 38.8 36.0166C39.6761 35.8497 41.4544 36.9658 42.0698 37.2423C45.3135 39.1094 48.3643 41.4512 50.6015 44.4762C51.2482 45.2846 51.874 46.1191 52.5676 46.891C54.106 46.0826 55.6445 45.2742 57.1829 44.4658C59.7643 43.1045 62.3614 41.7641 64.9585 40.4289C66.8567 39.4119 68.7498 38.3897 70.648 37.3727C72.2751 36.4964 73.897 35.615 75.5189 34.7336C75.644 34.4989 75.7692 34.2642 75.9048 34.0295C77.3285 31.5834 79.4457 29.5076 81.9542 28.1881C82.9398 27.6718 83.9672 27.2702 85.0206 26.9833C85.0362 26.9833 85.0519 26.9729 85.0623 26.9729C85.0832 26.9677 85.104 26.9624 85.104 26.9624C86.4599 26.613 87.8523 26.4357 89.2552 26.4722C89.7506 26.4826 90.2356 26.5243 90.7206 26.5921C93.2082 25.2726 95.7009 23.9531 98.1833 22.6179C99.3671 21.9764 100.551 21.3401 101.745 20.7142C101.756 20.7142 101.766 20.7038 101.776 20.6986C102.1 20.4795 102.418 20.2448 102.741 20.0049C103.007 19.8589 103.273 19.7128 103.539 19.5616C104.415 19.0765 105.297 18.5967 106.178 18.1221C106.313 18.0908 106.459 18.0699 106.6 18.0595C110.439 17.7779 111.628 21.1263 112.832 24.073C113.01 24.3964 113.187 24.7145 113.354 25.0223C115.633 29.1738 117.823 33.3723 119.982 37.5865C122.131 41.7693 124.279 45.9522 126.37 50.1612C128.451 54.3544 130.542 58.5477 132.592 62.7514C133.593 64.8064 134.584 66.8613 135.596 68.911C136.571 70.8981 137.557 72.88 138.527 74.8723C139.241 76.3431 139.945 77.8139 140.66 79.2847C140.972 79.9366 141.296 80.5886 141.614 81.2405V81.2509C141.942 81.7621 142.198 82.3045 142.386 82.8678C142.443 82.9877 142.495 83.1077 142.553 83.2224C142.673 83.4884 142.725 83.8013 142.693 84.1038L142.678 84.0986Z" fill="black"/>
<path d="M76.4681 138.773L76.4368 138.731C76.4368 138.731 76.4159 138.705 76.4055 138.695C75.5763 137.615 74.8254 136.478 74.0535 135.367C73.5373 134.627 73.021 133.886 72.5099 133.146C72.2439 132.76 71.9727 132.379 71.712 131.988C71.4512 131.597 71.2114 131.2 71.008 130.835C70.9506 130.736 70.8932 130.642 70.8411 130.548C70.669 130.246 70.4865 129.948 70.2935 129.656C70.1996 129.516 70.111 129.38 70.0275 129.234C69.9337 129.077 69.8555 128.921 69.8815 128.733C69.9024 128.566 70.0171 128.431 70.1892 128.42C70.3039 128.415 70.3978 128.498 70.4708 128.577C70.5647 128.671 70.6429 128.775 70.7264 128.874C70.8985 129.088 71.0653 129.307 71.2427 129.516C71.5921 129.922 71.9675 130.313 72.3065 130.726C72.6559 131.153 72.9792 131.602 73.3078 132.04C73.6207 132.457 73.9388 132.869 74.2517 133.286C74.8566 134.09 75.4459 134.903 76.0248 135.67C76.3429 136.092 76.661 136.52 76.9687 136.953C77.1147 137.161 77.2556 137.375 77.4068 137.584C77.412 137.594 77.4172 137.6 77.4224 137.605V137.615C77.6467 137.933 77.6363 138.403 77.4068 138.716C77.3546 138.789 77.2868 138.851 77.2086 138.903C77.0365 138.914 76.8644 138.93 76.6923 138.945C76.6089 138.909 76.5306 138.851 76.4681 138.778V138.773Z" fill="black"/>
<path d="M77.7925 138.497C77.61 138.272 77.4223 138.043 77.2449 137.813C76.6974 137.109 76.1498 136.41 75.597 135.706C74.9764 134.914 74.3662 134.105 73.7613 133.297C73.1355 132.467 72.5045 131.638 71.9308 130.767C71.6962 130.413 71.4719 130.047 71.2372 129.693C71.086 129.469 70.9243 129.255 70.7679 129.036C70.6532 128.874 70.5228 128.707 70.4602 128.519C70.4289 128.415 70.5123 128.243 70.6375 128.311C70.747 128.373 70.8409 128.478 70.9244 128.571C71.0808 128.744 71.232 128.921 71.3624 129.072C71.6962 129.453 72.0664 129.797 72.4158 130.162C72.7705 130.538 73.1094 130.924 73.4015 131.263L73.4536 131.32C74.142 132.118 74.8043 132.932 75.477 133.74C76.0716 134.455 76.6504 135.185 77.2397 135.91C77.61 136.363 77.9855 136.822 78.3453 137.287C78.5278 137.521 78.7156 137.751 78.872 138.006C79.0128 138.236 79.0024 138.564 78.8616 138.789C78.8512 138.804 78.8459 138.815 78.8355 138.83C78.6269 138.83 78.4183 138.841 78.2097 138.851C78.1732 138.851 78.1367 138.851 78.1002 138.851C77.9907 138.742 77.8916 138.611 77.7925 138.491V138.497Z" fill="black"/>
<path d="M101.541 138.111C101.338 137.996 101.229 137.798 101.156 137.584V137.573C101.156 137.568 101.156 137.563 101.15 137.553L101.098 137.375C100.931 136.828 100.764 136.29 100.624 135.738C100.42 134.945 100.253 134.147 100.029 133.359C99.7945 132.608 99.518 131.878 99.2051 131.153C98.6367 129.901 98.0266 128.671 97.479 127.414C97.1922 126.756 96.9158 126.099 96.6342 125.437C96.4933 125.108 96.3525 124.785 96.2117 124.456C96.1492 124.305 96.0814 124.154 96.0136 123.997C95.9353 123.81 95.831 123.611 95.8102 123.408C95.7893 123.158 95.977 122.855 96.2534 122.991C96.4047 123.064 96.5194 123.226 96.6342 123.345C96.7593 123.486 96.8688 123.632 96.9836 123.778C97.1922 124.039 97.3799 124.321 97.5676 124.602C97.9692 125.202 98.3395 125.823 98.6941 126.454C99.3668 127.669 99.9822 128.921 100.556 130.183C100.853 130.84 101.114 131.508 101.343 132.191C101.562 132.848 101.729 133.521 101.891 134.194C102.037 134.794 102.193 135.388 102.355 135.978C102.438 136.28 102.48 136.588 102.569 136.885C102.569 136.895 102.574 136.911 102.579 136.922C102.579 136.906 102.569 136.895 102.569 136.88V136.854C102.569 136.854 102.569 136.864 102.569 136.869C102.569 136.869 102.569 136.88 102.569 136.885C102.569 136.885 102.569 136.901 102.569 136.906C102.569 136.906 102.574 136.927 102.579 136.937V136.948C102.579 136.948 102.579 136.958 102.579 136.963C102.704 137.386 102.511 137.98 102.073 138.142C102.006 138.168 101.933 138.178 101.86 138.178C101.75 138.178 101.635 138.147 101.536 138.09L101.541 138.111Z" fill="black"/>
<path d="M100.973 138.966C100.937 138.914 100.911 138.851 100.885 138.773C100.467 136.713 100.128 134.653 99.6642 132.608C99.6329 132.478 99.6746 132.316 99.805 132.264C99.9354 132.212 100.05 132.342 100.071 132.452C100.759 134.413 101.317 136.431 101.641 138.486C101.693 138.679 101.641 138.851 101.547 138.971C101.354 138.971 101.161 138.971 100.968 138.971L100.973 138.966Z" fill="black"/>
<path d="M100.796 138.262C100.29 136.744 99.8364 135.237 99.8208 133.631C99.8469 133.448 99.7478 133.067 100.009 133.046C100.087 133.062 100.134 133.151 100.134 133.224C100.212 134.908 100.947 136.567 100.801 138.257L100.796 138.262Z" fill="black"/>
<path d="M100.744 138.966C100.713 138.966 100.687 138.966 100.655 138.966C100.421 137.193 99.9356 135.451 99.6071 133.677C99.5862 133.531 99.5549 133.359 99.6123 133.219C99.6644 133.078 99.8418 133.109 99.8626 133.25C99.8835 133.37 99.993 133.464 99.9356 133.584C100.066 133.923 101.406 137.756 101.286 138.961C101.104 138.961 100.921 138.961 100.739 138.961L100.744 138.966Z" fill="black"/>
<path d="M101.688 138.836C101.688 138.836 101.677 138.836 101.672 138.836C101.641 138.836 101.61 138.82 101.578 138.804C101.25 138.945 101.255 138.476 101.297 138.272C101.281 137.97 101.401 137.255 101.818 137.62C101.886 137.626 101.943 137.657 101.996 137.704C102.011 137.688 102.027 137.673 102.048 137.662C102.126 137.276 102.601 137.281 102.684 137.662C102.72 137.996 102.757 138.674 102.288 138.7C102.23 138.731 102.168 138.747 102.1 138.737C102.063 138.763 102.016 138.778 101.964 138.789C101.938 138.789 101.912 138.789 101.886 138.789C101.829 138.83 101.756 138.851 101.678 138.841L101.688 138.836Z" fill="black"/>
<path d="M77.4588 138.815C77.3128 138.726 77.3023 138.507 77.4014 138.382C77.318 138.017 77.829 137.704 78.1419 137.819C78.3349 137.912 78.2098 138.324 77.9907 138.173C77.9542 138.189 77.9073 138.21 77.8916 138.225C77.8656 138.241 77.8447 138.262 77.8238 138.278C77.8238 138.278 77.8238 138.283 77.8291 138.288C77.9594 138.241 78.0689 138.382 78.0742 138.497C78.1107 138.69 77.8916 138.872 77.7143 138.83C77.6257 138.851 77.537 138.862 77.4536 138.815H77.4588Z" fill="black"/>
<path d="M100.744 138.966C98.5328 138.956 96.3216 138.903 94.1052 138.914C93.5577 138.914 93.0101 138.919 92.4677 138.914C91.8941 138.909 91.3204 138.893 90.752 138.883C89.6986 138.862 88.6399 138.883 87.5865 138.846C87.0858 138.83 86.5852 138.804 86.0845 138.799C85.537 138.789 84.9894 138.799 84.4418 138.799C83.9464 138.799 83.4562 138.789 82.9608 138.789C82.4445 138.789 81.9282 138.789 81.4067 138.789C80.3428 138.799 79.2738 138.804 78.2099 138.841C77.7562 138.857 77.2973 138.883 76.8436 138.919H76.8384C76.8384 138.919 76.8383 138.909 76.8331 138.903C76.7601 138.81 76.7601 138.643 76.8749 138.58C76.9479 138.518 77.0574 138.497 77.1565 138.481C77.2451 138.465 77.3338 138.455 77.4276 138.45C77.558 138.439 77.6832 138.408 77.8136 138.382C78.3455 138.293 78.8826 138.278 79.4198 138.257C80.4889 138.215 81.5579 138.225 82.6218 138.225C83.6857 138.225 84.7652 138.205 85.8342 138.231C86.9033 138.257 87.9776 138.257 89.0467 138.262C90.1158 138.262 91.1901 138.272 92.2591 138.278C93.3751 138.283 94.4964 138.278 95.6176 138.288C96.1756 138.288 96.7284 138.309 97.2864 138.319C97.834 138.33 98.3763 138.34 98.9187 138.34C99.9565 138.351 100.999 138.366 102.037 138.398C102.121 138.398 102.204 138.408 102.288 138.408C102.303 138.408 102.319 138.403 102.335 138.403C102.34 138.403 102.345 138.403 102.35 138.403C102.371 138.403 102.392 138.403 102.413 138.403H102.418C102.418 138.403 102.439 138.403 102.449 138.403C102.569 138.424 102.632 138.564 102.627 138.674C102.627 138.789 102.554 138.935 102.423 138.94C102.397 138.94 102.371 138.94 102.35 138.94C102.34 138.94 102.329 138.94 102.319 138.94H102.314C102.314 138.94 102.282 138.94 102.267 138.935C102.162 138.935 102.058 138.945 101.959 138.95C101.86 138.95 101.766 138.956 101.667 138.961C101.354 138.961 101.046 138.961 100.734 138.961L100.744 138.966Z" fill="black"/>
<path d="M102.449 138.841C102.016 138.632 102.345 137.928 102.246 137.537C102.236 137.235 102.152 136.995 102.095 136.718C102.1 136.666 102.136 136.593 102.189 136.577C102.361 136.53 102.418 136.765 102.46 136.88C102.58 137.276 103.091 138.773 102.449 138.836V138.841Z" fill="black"/>
<path d="M102.371 138.653C101.938 138.137 102.214 137.401 102.079 136.791C102.068 136.718 102.099 136.63 102.172 136.603C102.251 136.572 102.329 136.645 102.339 136.718C102.485 137.328 102.887 138.126 102.371 138.653Z" fill="black"/>
<path d="M102.282 138.971C102.178 138.778 102.282 138.455 102.246 138.241C102.272 137.417 102.095 136.619 101.886 135.826C101.87 135.738 101.923 135.623 102.022 135.602C102.371 135.659 103.065 138.319 102.736 138.977C102.585 138.977 102.439 138.977 102.288 138.977L102.282 138.971Z" fill="black"/>
<path d="M50.998 138.648C50.9458 138.737 50.8885 138.825 50.8415 138.919C49.1519 139.806 47.603 140.937 45.9238 141.845C44.1976 142.633 42.3724 143.232 40.5054 143.582C40.5158 143.592 40.5263 143.603 40.5315 143.613C37.4807 140.166 33.9189 137.151 31.1914 133.422C33.1001 131.612 34.722 129.312 35.3947 127.763C35.5094 127.45 35.6398 127.101 35.7702 126.725C36.1039 127.69 36.4951 128.644 36.9435 129.562C38.143 131.612 38.7636 134.418 41.1416 135.435C41.1468 135.289 41.1468 135.143 41.1416 135.002C41.2929 135.065 41.4441 135.122 41.6005 135.174C41.4649 135.32 41.3398 135.466 41.2199 135.628C41.0895 135.805 40.9799 135.993 40.8756 136.186C40.521 136.436 40.5575 137.177 40.9904 137.323C41.3607 137.48 41.6527 137.167 41.8404 136.88C42.9825 135.618 44.4375 134.767 45.9499 133.985C46.1793 134.653 47.0294 134.773 47.65 134.82C47.7543 134.825 47.8638 134.83 47.9733 134.83C47.0189 136.03 45.8195 137.073 44.7661 138.142C44.3123 138.538 43.5875 139.138 44.062 139.8C44.1716 139.973 44.3228 140.046 44.4897 140.046C44.6878 140.046 44.8912 139.936 45.0268 139.769C45.6682 139.201 46.341 138.653 46.9929 138.085C47.577 138.465 48.3122 138.601 48.9902 138.695C49.6681 138.742 50.3357 138.726 50.998 138.658V138.648Z" fill="white"/>
<path d="M33.658 24.1617C34.1274 24.3599 34.2786 23.5567 33.8718 23.3846C33.6893 23.1811 33.486 22.9882 33.2774 22.8109C33.1157 22.4562 32.8758 22.0963 32.4482 22.0859C31.5877 22.1276 31.4104 23.4263 32.0153 23.9113C32.5003 24.3286 33.0844 23.7131 33.6528 24.1617H33.658ZM42.2315 18.4298C42.7165 18.1482 42.5288 17.3815 42.0333 17.2198C40.4584 16.6304 39.0138 18.1899 39.0608 19.718C39.3424 19.572 39.6188 19.4207 39.9004 19.2695C39.8222 19.5668 39.8274 19.8901 39.9108 20.1196C39.963 20.2813 40.0568 20.4065 40.1664 20.5003C40.0881 21.0845 40.062 21.6843 40.5836 21.9607C41.3449 22.1641 41.4128 21.2201 41.3867 20.6881C41.418 19.984 41.4597 19.2747 41.491 18.5706C41.7309 18.5028 41.976 18.4507 42.2263 18.4246L42.2315 18.4298ZM42.9825 25.742C43.3527 25.3925 43.1598 24.5007 42.5705 24.5893C42.1533 24.678 41.7048 24.6415 41.2667 24.6467C40.1976 25.0535 41.0112 26.5086 41.7048 26.8946C42.2367 27.1032 42.607 26.4774 42.4714 26.0132C42.6591 25.9558 42.8365 25.888 42.9825 25.742ZM44.1663 24.3181C44.5678 24.8501 45.1206 24.1199 44.8338 23.6766C44.427 23.0351 43.796 23.8383 44.1663 24.3181ZM46.0541 23.9009C45.4753 24.2086 45.1206 24.6989 44.8755 25.2569C44.8755 25.2882 44.8703 25.3247 44.8651 25.356C44.839 25.5907 44.8025 25.815 44.7399 26.0445C44.6826 26.2479 44.6148 26.4461 44.5418 26.6443C44.5418 26.6338 44.5522 26.6286 44.5522 26.6182C44.547 26.6338 44.5417 26.6495 44.5365 26.6599C44.5365 26.6651 44.5365 26.6703 44.5313 26.6756C44.5313 26.6808 44.5261 26.686 44.5209 26.6964C44.5209 26.6964 44.5209 26.7016 44.5209 26.7068C44.4948 26.7642 44.474 26.8216 44.4479 26.879C44.4114 26.9624 44.3749 27.0406 44.3331 27.1189C44.3071 27.171 44.281 27.218 44.2602 27.2701C44.2184 27.3536 44.1715 27.4422 44.1246 27.5257C43.989 27.7552 43.8429 27.9794 43.6813 28.1933C43.4622 28.4853 43.2171 28.7618 42.946 29.0121C42.7217 29.2207 42.4714 29.3981 42.2211 29.5754C41.7934 29.8779 41.3554 30.1804 40.8756 30.3995C40.3176 30.655 39.7179 30.775 39.1129 30.8375C38.9252 30.8584 38.7322 30.8741 38.5445 30.8741C38.4558 30.8741 38.3672 30.8741 38.2837 30.8636C38.0699 30.8428 37.8561 30.8167 37.6423 30.7854C37.5693 30.7906 37.4911 30.7958 37.4128 30.7958C37.2825 30.7958 37.1521 30.7854 37.0165 30.775C37.0061 30.775 37.0008 30.775 36.9956 30.775C36.9748 30.775 36.9539 30.775 36.933 30.7697H36.9435C36.7714 30.7489 36.6045 30.7228 36.4272 30.6759C36.2551 30.6237 36.0882 30.5507 35.9266 30.4725C35.7388 30.3838 35.5511 30.2743 35.379 30.1595C34.8888 30.582 34.8262 31.6668 35.4937 32.0163C36.3229 32.4335 37.1938 32.6213 38.0699 32.6213H38.1012C37.7362 33.6018 37.4911 35.0778 37.3972 35.4064C37.1782 36.4234 37.0895 37.4613 36.9226 38.4888C36.8705 38.8225 36.9226 39.2398 37.199 39.5423C37.6006 40.0065 38.2733 39.6466 38.4141 39.1355C38.4767 38.8538 38.5184 38.5618 38.5549 38.2749C39.2955 39.511 39.5614 41.4303 37.7988 41.8371C36.3333 41.6963 35.2121 40.4185 34.0909 39.5579C32.881 38.4418 31.8276 37.1431 31.0401 35.7297C30.8002 35.156 30.5238 34.6032 30.2005 34.0712C30.2057 31.938 30.018 29.7944 29.8041 27.6821C29.752 27.025 29.7259 26.3626 29.7311 25.7055C30.19 26.3991 30.8524 26.9572 31.6555 27.2597C31.7545 27.3118 31.8641 27.3536 31.9736 27.3901C32.0153 27.6456 32.1405 27.9012 32.2865 28.089C33.0427 28.8087 33.2878 28.0681 33.1574 27.3901C33.7154 27.2232 34.1274 26.8007 33.9553 26.0914C33.8875 25.8046 33.6633 25.4551 33.3399 25.4238C33.1053 25.3873 32.9123 25.5073 32.6881 25.5438C31.7233 25.4499 30.7846 24.6728 30.5551 23.7236C30.3465 22.6596 30.988 21.9138 31.8328 21.8407C31.9527 21.8773 32.0727 21.9033 32.1874 21.9138C32.2969 21.9242 32.396 21.9294 32.4951 21.919C32.6359 21.9659 32.7767 22.0285 32.9175 22.112C33.1 22.1693 33.2513 22.1432 33.4234 22.0963C33.4859 22.0859 33.5433 22.065 33.5902 22.0389C33.8041 22.0911 34.0544 21.9398 34.0544 21.5852C34.0544 21.3192 33.9136 21.1679 33.7571 21.1314C33.7571 21.121 33.7519 21.1106 33.7467 21.1001C34.3725 20.177 34.6437 18.701 35.0191 17.8822C35.1339 17.6266 35.2799 17.3762 35.4103 17.1155C37.3346 16.6356 39.332 16.474 41.2406 15.9211C42.0438 15.7021 42.7947 15.2796 43.457 14.7216C43.53 14.8102 43.6031 14.8937 43.6761 14.9771C45.5378 17.5849 44.5678 21.1158 46.0385 23.9165L46.0541 23.9009Z" fill="white"/>
<path d="M49.4332 132.144C49.3498 132.436 49.2402 132.718 49.1203 132.989C48.7709 132.833 48.3015 133.052 47.9156 133.072C47.8478 133.083 47.78 133.088 47.707 133.093C48.2963 132.791 48.8804 132.483 49.4384 132.144H49.4332Z" fill="white"/>
<path d="M99.7996 134.653C100.06 135.889 100.363 137.115 100.561 138.356C100.013 138.345 99.4606 138.34 98.913 138.335C98.3707 138.335 97.8283 138.325 97.2807 138.314C96.7227 138.304 96.1699 138.288 95.6119 138.283C94.4907 138.278 93.3747 138.283 92.2535 138.272C91.1844 138.272 90.1101 138.262 89.041 138.257C87.972 138.257 86.8977 138.252 85.8286 138.225C84.7595 138.199 83.6904 138.22 82.6161 138.22C81.5419 138.22 80.478 138.21 79.4141 138.252C79.2681 138.257 79.1169 138.262 78.9709 138.272C78.9604 138.179 78.9291 138.085 78.877 138.012C78.7205 137.761 78.5328 137.527 78.3503 137.292C77.9904 136.828 77.615 136.369 77.2447 135.915C76.6554 135.19 76.0765 134.46 75.482 133.745C75.3204 133.547 75.1587 133.354 74.9918 133.156C74.6685 132.671 74.2356 132.233 73.9384 131.769C73.6359 131.451 72.7181 130.298 71.868 129.609C71.7376 129.479 71.6125 129.349 71.4873 129.213C71.868 129.036 72.2435 128.853 72.6242 128.676C76.3216 126.913 79.993 125.103 83.6696 123.299C86.5378 121.896 89.3956 120.472 92.2482 119.048C92.921 120.101 93.3538 121.338 93.9483 122.443C95.0174 124.535 96.0604 126.642 97.1764 128.712C98.1569 130.559 98.9652 132.191 99.6275 134.262C99.6692 134.397 99.7214 134.533 99.7944 134.663L99.7996 134.653Z" fill="#0ECF95"/>
<path d="M32.4274 126.59C33.2774 124.983 34.31 123.231 34.2474 121.369C34.1327 120.628 33.2618 120.639 33.1783 121.379C32.4534 125.041 29.7469 127.899 27.3062 130.569C29.3349 129.808 31.3844 128.592 32.4274 126.59ZM37.1417 54.0728C37.173 54.4222 37.2304 54.8134 37.4285 55.1002C36.9696 55.3558 36.5159 55.6166 36.0622 55.8826C35.7024 56.0808 35.3425 56.2737 34.9827 56.4719C33.5851 57.2334 32.2083 58.0366 30.8316 58.8345C30.1745 59.2153 29.5383 59.6169 28.9072 60.0393C28.6934 60.1801 28.4796 60.3262 28.2658 60.4722C28.7299 59.3665 29.1941 58.1722 29.6425 57.0195C28.3127 58.3078 27.082 59.6951 26.0598 61.2389C22.3624 67.7218 18.9674 74.4864 17.4499 81.8559C17.1578 83.0242 16.8814 84.1977 16.6415 85.3868C16.6415 85.3243 16.6363 85.2617 16.6311 85.2043C16.4538 86.1796 16.2765 87.1549 16.1461 88.1354C16.094 88.5423 16.0418 88.9438 15.9897 89.3506C15.9688 89.528 15.9375 89.7053 15.9219 89.8826C15.8749 90.4772 15.8384 91.0718 15.7863 91.6663C15.7758 92.141 15.7602 92.6156 15.7498 93.085C15.7393 93.5439 15.7602 94.0029 15.7654 94.4619C15.7758 95.2025 15.7758 95.9379 15.7654 96.6733C15.6403 96.8871 15.536 97.0905 15.4473 97.2835C15.1605 97.2678 14.9936 97.5443 14.9884 98.2014C15.051 98.3057 15.1135 98.4048 15.1761 98.5039C15.2022 98.5873 15.2439 98.6604 15.3117 98.7125C16.2765 100.225 17.3977 101.644 18.5815 103.01C19.5463 104.966 20.6154 106.864 21.9869 108.565C23.2802 110.202 24.6257 111.866 26.0129 113.436C27.1758 114.729 28.3596 116.007 29.4339 117.379C30.1223 118.125 30.6595 119.116 31.3687 119.877C30.8733 120.258 30.7012 120.769 31.2696 121.374C31.6608 121.614 32.0049 121.233 32.3387 121.077C33.1366 120.696 34.0127 120.785 34.8419 120.884C35.838 121.708 34.9149 123.831 34.6542 124.978C34.0753 127.408 32.3752 129.244 30.5969 130.903C29.0168 132.301 26.9933 134.303 24.7196 133.333C21.0847 124.373 12.6051 118.636 7.94291 110.296C2.94693 102.16 2.25333 98.2118 2.23247 88.7717C1.85177 82.4036 3.15552 76.1553 4.60529 69.9958C5.52835 65.646 6.62351 61.3485 7.93769 57.103C8.0472 56.7223 8.16714 56.3415 8.28708 55.9608C9.69514 56.7901 11.5204 57.1499 13.0588 57.1604C13.7159 57.2021 14.4617 57.0456 14.9206 56.5502C16.725 56.3468 18.5189 55.5801 20.0469 54.7247C24.6726 51.8562 27.3375 46.8649 28.9489 41.8111C29.6425 39.9335 29.9919 38.0037 30.1275 36.0531C30.138 36.0687 30.1536 36.0896 30.1693 36.1053C30.2944 37.3361 31.8746 39.4901 32.2605 40.0691C32.5004 40.3872 32.7559 40.7001 33.0219 40.9974C34.4925 43.8973 35.6763 46.9588 36.3855 50.1403C36.6932 51.4494 36.9436 52.7428 37.1469 54.078L37.1417 54.0728Z" fill="#0ECF95"/>
<path d="M50.44 47.9914C49.2718 48.6121 48.1089 49.2328 46.9512 49.8586C46.5079 47.8193 46.0177 45.7801 45.298 43.819C45.2302 43.5165 44.6357 42.3587 43.9004 41.18C46.4245 43.1097 48.3905 45.5871 50.44 47.9862V47.9914Z" fill="#0ECF95"/>
<path d="M134.866 73.438C135.21 74.1317 135.554 74.8202 135.903 75.5086C134.683 75.5608 133.468 75.7277 132.269 75.9572C125.385 77.1359 119.706 81.4856 114.381 85.7467C100.467 97.5025 90.3764 100.001 72.6766 101.722C64.609 102.802 56.0199 102.301 48.5781 106.093C44.9745 107.876 41.7725 110.364 38.9355 113.206C38.0959 114.13 35.3841 116.644 34.3307 118.589C34.1533 118.552 33.9604 118.526 33.7622 118.505C33.3711 118.432 33.006 118.568 32.7401 118.803C32.4428 118.213 31.8796 117.754 31.5198 117.202C28.8705 113.718 25.9345 110.468 23.2071 107.047C21.1889 104.632 19.7547 101.811 18.3258 99.0255C17.9764 98.5196 17.8512 97.706 17.361 97.3252C17.3506 97.0853 17.3402 96.8506 17.335 96.6107C17.7887 96.0318 18.2632 95.4737 18.7639 94.9365C22.065 91.343 26.0075 88.3649 30.2838 86.0388C33.4597 84.2446 37.0842 83.4988 40.6356 82.8469C45.2457 82.1271 49.934 81.7412 54.5701 82.4505C60.2179 83.019 65.5477 85.0478 71.0548 86.2631C81.3127 88.4432 88.3269 85.898 94.8404 77.6679C98.1415 73.5737 101.385 68.7545 105.703 65.5209C112.363 61.0564 121.187 61.2024 128.435 64.1335C129.119 64.3265 129.948 64.8846 130.662 65.0567C132.06 67.8522 133.463 70.6373 134.855 73.4329L134.866 73.438Z" fill="#3087FF"/>
<path d="M140.821 85.0583C141.176 87.7182 139.976 90.6076 138.292 92.6834C137.979 93.0432 137.645 93.377 137.296 93.7004C137.285 93.7056 137.27 93.7108 137.254 93.7213C133.609 95.4789 129.958 97.2209 126.329 99.0046C122.496 100.877 118.668 102.76 114.83 104.617C111.106 106.416 107.398 108.247 103.701 110.098C99.8886 112.007 96.0816 113.931 92.2695 115.846C88.572 117.707 84.8798 119.585 81.198 121.478C77.5736 123.351 73.9439 125.218 70.3352 127.122C68.5725 128.055 66.8359 129.041 65.0993 130.027C64.4578 130.392 63.8164 130.762 63.1697 131.127C62.012 131.445 60.9168 132.337 59.8582 132.848C57.8869 133.959 55.9209 135.117 53.7931 135.905C52.2704 136.442 50.6537 136.937 49.0214 136.968C48.8337 136.869 48.6407 136.77 48.453 136.692C48.6824 136.452 48.8962 136.202 49.1048 135.946C49.8975 135.007 50.4972 133.891 50.7528 132.702C50.7528 132.666 50.7476 132.629 50.7424 132.593C50.7163 132.415 50.685 132.243 50.6433 132.066C50.6224 132.003 50.6068 131.941 50.5807 131.873C50.5598 131.831 50.539 131.784 50.5181 131.737L50.4347 131.612C50.3773 131.539 50.32 131.471 50.2574 131.403C50.1218 131.268 49.9758 131.138 49.8297 131.012L49.715 130.939C49.6628 130.908 49.6107 130.882 49.5533 130.856H49.5325C49.3082 130.793 49.0788 130.757 48.8493 130.72C48.7972 130.71 48.745 130.705 48.6929 130.699C47.8741 131.122 47.0554 131.55 46.247 131.982C45.1988 132.567 44.1089 133.14 43.1232 133.844C42.3775 133.604 41.5796 133.531 40.8234 133.297C40.255 131.565 39.0607 130.021 38.2211 128.41C37.6162 127.315 37.079 126.183 36.5523 125.046C36.5002 124.941 36.448 124.832 36.3854 124.733C36.9591 122.501 37.1364 120.081 35.4624 119.022C36.6827 117.212 38.4089 115.7 39.9786 114.182C43.2223 111.167 46.9667 108.7 51.097 107.078C55.9 105.19 60.9116 105.07 66.038 104.637C76.4836 103.62 87.2057 103.047 97.0412 99.0776C101.881 97.2 106.282 94.3993 110.475 91.3743C115.377 87.7286 119.846 83.4258 125.27 80.5312C128.321 78.8726 131.711 77.9182 135.158 77.5479C135.737 77.4957 136.315 77.454 136.894 77.4592C137.233 78.132 137.572 78.8048 137.916 79.4776C138.381 80.3904 138.85 81.3083 139.314 82.221C139.731 83.0399 140.133 83.8691 140.571 84.6775C140.628 84.8236 140.717 84.954 140.826 85.0583H140.821Z" fill="#3087FF"/>
<path d="M128.686 61.0773C127.319 60.5766 125.88 60.1697 124.435 59.8307C119.507 58.652 114.198 58.7511 109.38 60.3784C99.4399 63.4242 95.6485 74.2412 88.1024 80.3956C80.7858 86.5968 70.726 83.3997 62.5176 80.9954C58.4343 79.9105 54.231 79.2847 50.0173 79.0656C43.8062 79.196 37.4178 79.921 31.6396 82.3201C28.1247 84.0412 24.9174 86.3987 22.0544 89.0638C21.4234 89.5645 19.1079 92.0366 17.3296 94.3732C17.3504 93.3301 17.413 92.2818 17.5434 91.2439C18.4612 85.5694 19.7859 79.9366 21.6737 74.502C23.2278 70.3557 25.5797 66.4492 27.4415 62.3759C27.5145 62.3446 27.5823 62.3029 27.6501 62.2768C27.817 62.2038 27.9891 62.1308 28.1612 62.0578C28.1612 62.0578 28.1664 62.0578 28.1716 62.0578C28.182 62.0578 28.1872 62.0577 28.1925 62.063C28.255 62.0786 28.3124 62.0838 28.375 62.0838C28.6305 62.0838 28.8756 61.9691 29.1103 61.8648C29.3867 61.7396 29.6579 61.6092 29.929 61.4736C30.5235 61.1868 31.1129 60.8947 31.7074 60.6026C33.5587 59.7003 35.4309 58.8398 37.277 57.9218C39.024 57.056 40.7606 56.159 42.492 55.2619C46.0904 53.3895 49.6887 51.5119 53.2558 49.577C54.6534 48.8207 56.197 47.9706 57.7407 47.1309C57.7772 47.11 57.8241 47.0892 57.8658 47.0631L57.9232 47.0318C58.2465 46.8545 58.5959 46.6667 58.9453 46.4738C60.1344 45.8322 61.4538 45.1021 62.7732 44.3771C66.3246 42.4161 69.876 40.4446 73.417 38.4679C73.6882 38.3166 73.9646 38.1654 74.2357 38.0141C73.8916 39.3545 73.7195 40.7419 73.7508 42.1344C73.8133 44.93 74.5747 47.689 76.014 50.0933C77.4795 52.5394 79.602 54.5682 82.1573 55.8461C82.1573 55.8461 82.173 55.8565 82.1834 55.8617C82.1834 55.8617 82.1886 55.8617 82.1938 55.8617C82.2721 55.9034 82.3503 55.9399 82.4285 55.9764C83.6436 56.5606 84.9317 56.9831 86.2616 57.2282C86.9134 57.3481 87.5653 57.4264 88.2276 57.4577C88.4571 57.4681 88.6917 57.4785 88.9212 57.4785C89.3645 57.4785 89.8078 57.4577 90.2458 57.4264C90.4857 57.4055 90.7308 57.3846 90.9759 57.3534C92.3318 57.176 93.6721 56.8214 94.9289 56.2842C96.1701 55.7522 97.3226 55.0742 98.3864 54.2553C100.519 52.6072 102.23 50.3802 103.231 47.8819C103.727 46.6511 104.071 45.3576 104.259 44.0485C104.358 43.334 104.41 42.6038 104.394 41.8841C104.378 41.18 104.311 40.4863 104.196 39.7927C103.742 37.1275 102.658 34.5823 100.989 32.4387C100.467 31.7711 99.8414 31.0723 99.1478 30.436C98.2926 29.6484 97.333 28.9652 96.3161 28.4071C95.9302 28.1985 95.5391 28.0003 95.1375 27.823C94.8559 27.6978 94.5639 27.5987 94.2875 27.4683C94.1988 27.4266 94.0997 27.4214 94.0006 27.4422C93.9485 27.4214 93.8963 27.4005 93.8442 27.3849C94.7516 26.8998 95.659 26.4096 96.5664 25.9141C97.6355 25.3352 98.715 24.7458 99.7945 24.1565H99.8049C100.613 23.7184 101.416 23.2907 102.219 22.8526C102.631 22.6283 103.038 22.4041 103.45 22.1798C103.633 22.0807 103.815 21.9816 103.998 21.8877C104.702 21.6165 105.39 21.2671 106.131 21.1106C106.459 21.0324 106.814 20.9176 107.127 20.7455C108.269 20.8081 109.38 21.3453 109.906 22.4301C110.532 23.5984 111.142 24.7615 111.826 25.888C112.357 27.0772 112.884 28.2611 113.421 29.445C114.412 31.6199 115.419 33.7948 116.441 35.954C118.449 40.189 120.462 44.424 122.516 48.6382C124.545 52.8002 126.615 56.9413 128.675 61.0877L128.686 61.0773Z" fill="#FCFA68"/>
</svg>
