<svg width="141" height="145" viewBox="0 0 141 145" fill="none" xmlns="http://www.w3.org/2000/svg">
<path d="M33.8526 23.798C34.252 23.9662 34.1049 24.7597 33.6424 24.56C33.0854 24.1239 32.5126 24.7282 32.0344 24.3183C31.4406 23.8401 31.6088 22.5684 32.4548 22.5264C32.8752 22.5369 33.1064 22.8889 33.2693 23.2358C33.4743 23.4092 33.674 23.5984 33.8526 23.798Z" fill="#050505"/>
<path d="M27.399 129.105C29.8005 126.483 32.4595 123.677 33.1689 120.077C33.2478 119.352 34.1096 119.342 34.2199 120.067C34.2777 121.896 33.2688 123.619 32.428 125.196C31.4033 127.166 29.3853 128.354 27.399 129.105Z" fill="#050505"/>
<path d="M40.8898 19.2303C41.2421 19.5876 41.2946 20.2707 41.0948 20.7069C40.8793 21.1746 40.3745 21.2271 40.0485 20.9644C39.9381 20.875 39.8487 20.7489 39.7961 20.5913C39.712 20.3653 39.7067 20.0448 39.7856 19.7558C39.8592 19.472 40.0169 19.2092 40.243 19.0936C40.3377 19.0411 40.4481 19.0201 40.569 19.0253C40.6952 19.0674 40.8004 19.1357 40.8898 19.225V19.2303Z" fill="#050505"/>
<path d="M40.458 22.4035C39.6693 21.9778 40.1583 20.806 40.1373 20.0861C40.2214 19.508 40.1372 17.9578 41.1047 18.4465C41.273 18.5832 41.3466 18.8039 41.3466 19.0088C41.315 19.7235 41.273 20.4382 41.2414 21.1528C41.2677 21.6731 41.1994 22.6032 40.4527 22.4035H40.458Z" fill="#050505"/>
<path d="M38.9552 20.197C38.9079 18.6941 40.3267 17.1597 41.8717 17.7377C42.3604 17.8953 42.5391 18.652 42.0661 18.9305C40.9258 19.0461 39.9379 19.6925 38.9552 20.197Z" fill="#050505"/>
<path d="M42.4024 24.9848C42.9804 24.9007 43.1696 25.773 42.807 26.1198C42.6651 26.2617 42.4917 26.33 42.3078 26.3878C42.4444 26.845 42.0765 27.4599 41.5563 27.2549C40.8731 26.8766 40.0744 25.442 41.1254 25.0479C41.5563 25.0373 41.9925 25.0794 42.4024 24.9901V24.9848Z" fill="#050505"/>
<path d="M44.6246 24.0863C44.9082 24.5168 44.3619 25.236 43.9679 24.7163C43.6055 24.249 44.2201 23.4615 44.6246 24.0863Z" fill="#050505"/>
<path d="M37.3472 54.9585C37.1475 54.68 37.0949 54.2911 37.0634 53.9495C36.8637 52.6358 36.622 51.3694 36.3172 50.0819C35.6183 46.9553 34.4569 43.9442 33.0118 41.0961C32.7491 40.8018 32.5021 40.497 32.2656 40.1817C31.8872 39.6089 30.337 37.4965 30.2109 36.2879C30.1951 36.2721 30.1846 36.2511 30.1741 36.2353C30.0427 38.1533 29.7012 40.0503 29.018 41.8948C27.4363 46.8607 24.814 51.7635 20.2737 54.5854C18.7708 55.4262 17.0104 56.1776 15.2342 56.3773C14.7823 56.866 14.0466 57.0131 13.4055 56.9764C11.892 56.9659 10.1001 56.6138 8.71275 55.7993C8.59189 56.1724 8.4763 56.5455 8.3712 56.9186C7.08372 61.091 6.00643 65.3159 5.09732 69.5881C3.67322 75.6417 2.39103 81.7794 2.76414 88.038C2.78516 97.3129 3.4683 101.191 8.37646 109.184C12.9641 117.376 21.2932 123.015 24.8666 131.817C27.1 132.768 29.0916 130.802 30.6418 129.431C32.3865 127.802 34.0575 125.999 34.6251 123.614C34.8878 122.489 35.7864 120.403 34.8143 119.588C33.9997 119.494 33.1379 119.404 32.3549 119.778C32.0239 119.93 31.6876 120.303 31.3039 120.067C30.7469 119.473 30.9203 118.968 31.4038 118.595C30.7101 117.849 30.1794 116.877 29.5067 116.141C28.4557 114.791 27.2891 113.54 26.1488 112.268C24.7825 110.729 23.4635 109.094 22.1918 107.481C20.8465 105.81 19.7903 103.945 18.8444 102.021C17.683 100.681 16.5795 99.2888 15.6336 97.8016C15.5705 97.7491 15.5285 97.6807 15.5022 97.5967C15.4392 97.4968 15.3813 97.397 15.3183 97.2971C15.3183 96.6508 15.4865 96.3775 15.7702 96.3933C15.8543 96.2041 15.9594 96.0097 16.0855 95.7942C16.096 95.0691 16.1013 94.3491 16.0855 93.6187C16.0803 93.1668 16.0592 92.7201 16.0697 92.2682C16.0802 91.8058 16.096 91.3381 16.1065 90.8704C16.1538 90.2871 16.1958 89.7038 16.2379 89.1153C16.2484 88.9419 16.2799 88.7685 16.3009 88.595C16.3535 88.1957 16.4061 87.7963 16.4586 87.4022C16.59 86.4353 16.7581 85.4789 16.9368 84.5225C16.9368 84.5803 16.9368 84.6434 16.9473 84.7012C17.1838 83.5398 17.4518 82.3838 17.7408 81.2329C19.2333 73.9969 22.5649 67.3495 26.2013 60.9806C27.205 59.4619 28.4137 58.1009 29.7222 56.8345C29.286 57.9695 28.8288 59.1361 28.3717 60.2239C28.5766 60.082 28.7868 59.9401 29.0023 59.7982C29.6223 59.3831 30.2477 58.989 30.894 58.6159C32.2446 57.8329 33.5951 57.0447 34.9719 56.2985C35.324 56.1041 35.6761 55.9149 36.0334 55.7204C36.4801 55.4629 36.9268 55.2054 37.3734 54.9532L37.3472 54.9585ZM44.6674 25.6362C44.9038 25.0844 45.2559 24.6062 45.8234 24.3014C44.3731 21.5479 45.3295 18.0849 43.5007 15.5205C43.4324 15.4364 43.3589 15.3524 43.2853 15.2683C42.6389 15.8148 41.898 16.2299 41.1097 16.4454C39.2337 16.9919 37.2736 17.1495 35.3818 17.6172C35.2557 17.8694 35.1085 18.1164 34.9982 18.3687C34.6303 19.1727 34.3623 20.623 33.7475 21.5321C33.7475 21.5426 33.758 21.5531 33.758 21.5584C33.9104 21.5952 34.047 21.7476 34.047 22.0051C34.047 22.3571 33.8 22.5043 33.5898 22.4517C33.5426 22.478 33.4847 22.499 33.4217 22.5095C33.2535 22.5568 33.1011 22.5778 32.9225 22.5253C32.7858 22.4412 32.644 22.3782 32.5073 22.3361C32.4127 22.3466 32.3076 22.3414 32.2025 22.3309C32.0869 22.3151 31.9661 22.2941 31.8505 22.2573C31.0202 22.3256 30.3896 23.0613 30.5945 24.107C30.8205 25.0424 31.7401 25.8043 32.6912 25.8989C32.9119 25.8621 33.1011 25.7465 33.3324 25.7833C33.6529 25.8149 33.8683 26.1564 33.9367 26.4402C34.1048 27.1338 33.7002 27.5542 33.1484 27.7171C33.2798 28.3845 33.0381 29.1097 32.2971 28.4055C32.15 28.2163 32.0291 27.9694 31.9871 27.7171C31.8767 27.6803 31.7716 27.6436 31.6718 27.591C30.8835 27.2967 30.2319 26.745 29.78 26.0671C29.7695 26.7134 29.801 27.3598 29.8483 28.0114C30.0532 30.0923 30.2424 32.1943 30.2372 34.291C30.5525 34.8112 30.8257 35.3577 31.0622 35.92C31.8399 37.3073 32.8752 38.5842 34.0628 39.6825C35.1664 40.5233 36.2646 41.7792 37.7045 41.9211C39.4387 41.5217 39.1759 39.63 38.4507 38.4213C38.4192 38.7051 38.3771 38.9889 38.3141 39.2674C38.1774 39.7666 37.5153 40.1187 37.1212 39.6667C36.8479 39.3672 36.8006 38.9626 36.8479 38.6315C37.0056 37.6226 37.0949 36.6031 37.3104 35.5995C37.405 35.2789 37.6467 33.8286 38.004 32.8617H37.9725C37.116 32.8617 36.2594 32.6777 35.4396 32.2678C34.788 31.921 34.8458 30.8596 35.3292 30.4444C35.5027 30.56 35.6813 30.6651 35.8705 30.7544C36.0282 30.828 36.1963 30.9068 36.3645 30.9541C36.5326 31.0014 36.7008 31.0277 36.869 31.0487H36.8584C36.8584 31.0487 36.9005 31.0487 36.9163 31.054C36.9268 31.054 36.932 31.054 36.9373 31.054C37.0686 31.0645 37.1948 31.075 37.3261 31.075C37.3997 31.075 37.4785 31.075 37.5521 31.0645C37.7623 31.096 37.9725 31.117 38.1827 31.1381C38.2668 31.1486 38.3509 31.1486 38.4402 31.1486C38.6294 31.1486 38.8185 31.1328 39.0025 31.1118C39.5963 31.054 40.1849 30.9331 40.7314 30.6809C41.2043 30.4654 41.6352 30.1711 42.0556 29.8716C42.3026 29.6982 42.5496 29.5248 42.7703 29.3199C43.0383 29.0781 43.28 28.8049 43.4955 28.5158C43.6531 28.3057 43.795 28.0849 43.9264 27.859C43.9737 27.7749 44.021 27.6908 44.063 27.6068C44.0893 27.5595 44.1103 27.5122 44.1366 27.4596C44.1786 27.3808 44.2154 27.302 44.2469 27.2232C44.2732 27.1654 44.2942 27.1128 44.3205 27.055C44.3205 27.055 44.3205 27.0497 44.3205 27.0445C44.3205 27.0392 44.3258 27.034 44.331 27.0235C44.331 27.0235 44.331 27.013 44.3363 27.0077C44.3363 26.9972 44.3468 26.9814 44.352 26.9657C44.352 26.9762 44.3416 26.9867 44.3416 26.9919C44.4151 26.8028 44.4834 26.6083 44.5412 26.4034C44.6043 26.1774 44.6358 25.9567 44.6621 25.7255C44.6621 25.694 44.6674 25.6624 44.6726 25.6257L44.6674 25.6362ZM46.7063 49.8139C47.8466 49.1939 48.9869 48.5843 50.1325 47.98C48.1199 45.6258 46.186 43.1875 43.7057 41.2905C44.4309 42.4466 45.0089 43.5817 45.0772 43.8812C45.7814 45.8045 46.2701 47.8066 46.701 49.8139H46.7063ZM48.8346 131.491C48.9554 131.223 49.0605 130.944 49.1446 130.66C48.5981 130.992 48.0253 131.296 47.4472 131.591C47.5155 131.591 47.5839 131.58 47.6522 131.57C48.0358 131.549 48.493 131.333 48.8346 131.491ZM50.5266 137.313C50.5739 137.224 50.6317 137.134 50.6843 137.05C50.0327 137.119 49.3758 137.134 48.7084 137.087C48.0411 136.993 47.3158 136.861 46.7431 136.488C46.1072 137.045 45.4451 137.586 44.8145 138.143C44.6831 138.312 44.4782 138.417 44.289 138.417C44.1313 138.417 43.9789 138.343 43.8686 138.175C43.4009 137.518 44.1156 136.93 44.5623 136.541C45.5975 135.495 46.7799 134.465 47.7152 133.288C47.6101 133.288 47.4998 133.288 47.3999 133.277C46.7903 133.23 45.9548 133.109 45.7288 132.458C44.2469 133.225 42.8123 134.066 41.693 135.301C41.5038 135.579 41.2201 135.889 40.8575 135.731C40.4266 135.59 40.395 134.864 40.7419 134.617C40.847 134.428 40.9521 134.25 41.0782 134.071C41.1938 133.919 41.3199 133.771 41.4513 133.629C41.2989 133.577 41.1465 133.519 40.9994 133.461C41.0046 133.603 41.0046 133.745 40.9994 133.887C38.6609 132.889 38.0566 130.135 36.8742 128.117C36.438 127.219 36.0492 126.278 35.7234 125.332C35.5973 125.7 35.4711 126.047 35.3555 126.357C34.6881 127.875 33.0959 130.14 31.2251 131.916C33.9051 135.579 37.405 138.543 40.4003 141.927C40.3898 141.916 40.3793 141.906 40.374 141.895C42.208 141.549 44 140.96 45.6973 140.188C47.3474 139.294 48.8713 138.185 50.5266 137.313ZM122.846 59.6091C124.265 59.9401 125.678 60.3447 127.023 60.8334C125 56.7609 122.967 52.6936 120.975 48.6053C118.957 44.4645 116.976 40.3026 115.005 36.1407C113.996 34.0177 113.008 31.8842 112.036 29.7455C111.505 28.5842 110.99 27.4176 110.47 26.251C109.798 25.1475 109.199 23.9967 108.584 22.8564C108.069 21.7896 106.976 21.2641 105.851 21.201C105.541 21.3692 105.194 21.4796 104.868 21.5584C104.138 21.716 103.46 22.0523 102.772 22.3203C102.593 22.4149 102.414 22.5148 102.236 22.6094C101.836 22.8353 101.432 23.0508 101.027 23.2715C100.239 23.7024 99.4453 24.1228 98.6518 24.5484H98.6413C97.5798 25.137 96.5183 25.715 95.4673 26.2825C94.5739 26.766 93.6858 27.2494 92.7925 27.7276C92.845 27.7486 92.8976 27.7644 92.9449 27.7854C93.0395 27.7644 93.1446 27.7697 93.2286 27.8117C93.5019 27.9378 93.7909 28.0377 94.0642 28.1585C94.4583 28.3319 94.8419 28.5264 95.2203 28.7313C96.224 29.2778 97.1646 29.9504 98.0054 30.7229C98.6886 31.3482 99.3034 32.0314 99.8184 32.6882C101.458 34.7954 102.53 37.2968 102.971 39.9137C103.082 40.5968 103.155 41.2747 103.171 41.9684C103.187 42.6778 103.134 43.3925 103.034 44.0966C102.851 45.3893 102.509 46.6557 102.025 47.8644C101.038 50.3184 99.3612 52.5097 97.2645 54.123C96.2187 54.9322 95.0837 55.5943 93.8698 56.1146C92.6348 56.6453 91.3158 56.9869 89.9863 57.1655C89.7446 57.1971 89.5029 57.2233 89.2664 57.2391C88.8355 57.2706 88.3993 57.2916 87.9631 57.2916C87.7372 57.2916 87.506 57.2864 87.28 57.2706C86.6336 57.2339 85.9873 57.1603 85.3462 57.0447C84.0429 56.8082 82.7765 56.3878 81.5836 55.815C81.5048 55.7782 81.426 55.7415 81.3524 55.6994C81.3524 55.6994 81.3471 55.6994 81.3419 55.6994C81.3314 55.6942 81.3209 55.6889 81.3156 55.6836C78.809 54.4277 76.7228 52.4361 75.2829 50.0294C73.8693 47.6647 73.1231 44.9531 73.06 42.2101C73.0285 40.8438 73.1914 39.4776 73.533 38.1639C73.265 38.3162 72.997 38.4634 72.7289 38.6105C69.2449 40.5548 65.7609 42.4886 62.2663 44.4172C60.9683 45.1318 59.6703 45.8465 58.5037 46.4771C58.1621 46.6663 57.8206 46.8502 57.5 47.0236L57.4422 47.0499C57.3949 47.0761 57.3529 47.0972 57.3161 47.1182C55.7974 47.9432 54.284 48.7735 52.9072 49.5197C49.4021 51.4219 45.8707 53.2612 42.3341 55.1056C40.6315 55.9884 38.9289 56.8713 37.2105 57.7225C35.3976 58.6211 33.5583 59.4672 31.7401 60.3553C31.1568 60.639 30.5735 60.928 29.9902 61.2118C29.7222 61.3432 29.4542 61.4745 29.1809 61.5954C28.9497 61.7005 28.708 61.8109 28.4557 61.8109C28.3979 61.8109 28.3349 61.8056 28.2771 61.7898C28.2666 61.7898 28.2613 61.7898 28.256 61.7846C28.256 61.7846 28.2508 61.7846 28.2455 61.7846C28.0774 61.8529 27.9092 61.9265 27.7463 62C27.678 62.0263 27.6097 62.0631 27.5414 62.0999C25.7126 66.1041 23.4004 69.9454 21.8712 74.018C20.0162 79.3569 18.7182 84.8956 17.8144 90.4658C17.6883 91.4905 17.6252 92.5152 17.6042 93.5399C19.3489 91.2435 21.6295 88.8157 22.2443 88.3218C25.061 85.7048 28.2088 83.3874 31.6665 81.6954C37.3472 79.3412 43.6216 78.6265 49.7279 78.5004C53.8741 78.7159 58.0045 79.3307 62.0141 80.3974C70.0752 82.7621 79.9598 85.9045 87.1539 79.8089C94.5687 73.7605 98.2944 63.1351 108.063 60.1398C112.798 58.5423 118.011 58.4425 122.856 59.5985L122.846 59.6091ZM134.112 75.0112C133.771 74.3333 133.429 73.6554 133.093 72.9775C131.721 70.2292 130.345 67.4914 128.973 64.7483C128.269 64.5802 127.454 64.0284 126.782 63.8392C119.661 60.9596 110.99 60.8124 104.443 65.2002C100.202 68.3795 97.0122 73.1089 93.7699 77.1341C87.3746 85.2214 80.4801 87.7227 70.401 85.5787C64.9884 84.3859 59.7491 82.3943 54.1999 81.8373C49.6491 81.1384 45.0352 81.5167 40.5107 82.2261C37.0213 82.862 33.4585 83.5977 30.337 85.358C26.133 87.6439 22.2549 90.5709 19.0178 94.1022C18.5291 94.6276 18.0614 95.1794 17.6147 95.7469C17.6199 95.9834 17.6305 96.2146 17.641 96.4511C18.1244 96.8242 18.2401 97.6282 18.5869 98.1222C19.99 100.86 21.3983 103.629 23.3847 106.004C26.0647 109.368 28.9497 112.563 31.5509 115.984C31.9083 116.525 32.46 116.977 32.7491 117.555C33.0118 117.324 33.3691 117.187 33.7528 117.26C33.9524 117.281 34.1364 117.308 34.3098 117.345C35.345 115.432 38.0093 112.962 38.8343 112.053C41.6195 109.257 44.7672 106.814 48.3091 105.064C55.6187 101.343 64.0582 101.832 71.988 100.771C89.382 99.0785 99.2929 96.6245 112.966 85.0743C118.195 80.8914 123.776 76.6139 130.544 75.4578C131.727 75.2371 132.92 75.0742 134.118 75.0164L134.112 75.0112ZM136.456 91.8899C138.111 89.8457 139.289 87.0133 138.942 84.3964C138.837 84.2965 138.747 84.1704 138.689 84.0233C138.259 83.2298 137.864 82.4153 137.455 81.6113C136.997 80.7127 136.54 79.8141 136.083 78.9155C135.747 78.2534 135.41 77.5913 135.079 76.9292C134.512 76.9292 133.944 76.966 133.371 77.0185C129.982 77.3864 126.656 78.3217 123.66 79.9507C118.332 82.7936 113.939 87.0238 109.12 90.6024C105 93.5767 100.675 96.3302 95.9192 98.1747C86.2553 102.074 75.7138 102.641 65.4561 103.635C60.4165 104.065 55.4979 104.181 50.7736 106.036C46.7168 107.628 43.0383 110.051 39.8485 113.015C38.3036 114.507 36.6062 115.989 35.4081 117.77C37.0529 118.811 36.8795 121.191 36.3119 123.382C36.3697 123.482 36.4223 123.587 36.4748 123.692C36.9951 124.807 37.5206 125.915 38.1144 126.998C38.9394 128.58 40.1113 130.098 40.6736 131.796C41.4145 132.027 42.1975 132.095 42.9332 132.331C43.9001 131.638 44.9721 131.076 46.0021 130.503C46.8009 130.077 47.5996 129.657 48.4089 129.247C48.4615 129.252 48.514 129.257 48.5665 129.268C48.7925 129.299 49.0185 129.341 49.2392 129.394H49.2602C49.3128 129.426 49.3653 129.457 49.4179 129.483L49.5282 129.557C49.6754 129.678 49.812 129.804 49.9486 129.941C50.0117 130.004 50.0695 130.072 50.1273 130.145L50.2061 130.266C50.2271 130.314 50.2481 130.356 50.2639 130.398C50.2849 130.461 50.306 130.524 50.3217 130.587C50.3585 130.755 50.39 130.928 50.4163 131.102C50.4163 131.139 50.4215 131.175 50.4268 131.212C50.1746 132.384 49.586 133.477 48.8083 134.402C48.6033 134.654 48.3931 134.901 48.1724 135.138C48.3616 135.216 48.5508 135.316 48.7347 135.411C50.3322 135.379 51.9245 134.896 53.4221 134.365C55.5136 133.593 57.4475 132.458 59.3813 131.365C60.4218 130.86 61.499 129.983 62.6394 129.673C63.27 129.315 63.9006 128.947 64.5364 128.59C66.2443 127.623 67.9469 126.656 69.6811 125.737C73.2282 123.861 76.7911 122.027 80.3539 120.193C83.9694 118.327 87.6006 116.488 91.2318 114.654C94.9733 112.773 98.7148 110.881 102.462 109.005C106.098 107.187 109.74 105.39 113.397 103.619C117.17 101.795 120.933 99.9456 124.696 98.1012C128.264 96.3513 131.853 94.6382 135.431 92.9093C135.442 92.9041 135.458 92.8988 135.468 92.8883C135.815 92.573 136.146 92.2419 136.451 91.8899H136.456ZM140.765 83.4505C141.128 85.5472 140.744 87.8278 140.061 89.7932C139.42 91.1857 138.495 92.5888 137.328 93.6818C137.281 93.9813 137.134 94.2651 136.866 94.4017C135.337 95.1689 133.844 95.9887 132.331 96.7822C130.518 97.7281 128.71 98.6687 126.892 99.6093C123.214 101.512 119.519 103.393 115.846 105.3C112.199 107.197 108.547 109.073 104.879 110.934C101.143 112.825 97.3906 114.691 93.6438 116.567L92.7557 117.008C93.1393 117.539 93.4809 118.133 93.8435 118.595C95.7773 121.559 97.6638 124.596 99.0406 127.87C99.6187 129.247 100.717 132.657 101.017 134.118C101.195 134.828 100.622 136.047 99.7606 135.584C99.4137 135.379 99.2456 135.027 99.1405 134.701C98.4889 132.668 97.028 129.089 96.0611 127.276C94.9628 125.243 93.9381 123.177 92.8871 121.118C92.3038 120.035 91.8781 118.816 91.216 117.781C88.4098 119.184 85.6037 120.582 82.787 121.958C79.1716 123.729 75.5667 125.511 71.9302 127.24C71.5203 127.434 71.1157 127.628 70.7005 127.823C71.6464 128.359 72.8603 129.909 73.2177 130.282C73.7379 131.102 75.8977 133.535 75.8557 134.57C75.8031 135.048 75.3617 135.558 74.8625 135.358C73.6696 134.355 71.6779 131.055 70.7215 129.862C70.401 129.478 70.112 129.052 69.7179 128.737C69.6285 128.637 69.576 128.501 69.5655 128.354C68.6091 128.8 67.6421 129.236 66.67 129.662C65.0252 130.676 63.3383 131.622 61.5936 132.442C61.5884 132.442 61.5831 132.447 61.5779 132.452C61.3099 132.605 61.0419 132.752 60.7844 132.91C58.036 134.481 55.1143 136.204 51.977 136.845C51.8299 137.208 51.3885 137.55 50.947 137.823C49.7279 139.793 48.0726 141.585 45.8813 142.458C43.9579 143.23 41.9558 144.102 39.8906 144.318C39.4964 144.244 39.2284 143.84 38.992 143.551C36.8006 141.123 34.5568 138.742 32.6387 136.089C32.2341 135.416 30.9045 133.903 30.3212 132.71C28.9234 133.861 27.431 134.659 26.0857 134.659C25.9281 134.659 25.7704 134.649 25.6181 134.623C23.143 134.397 22.9905 132.6 22.0184 130.776C20.8991 128.984 19.6589 127.271 18.3714 125.595C15.6756 122.19 12.5331 119.163 9.96344 115.652C6.77366 111.139 3.90972 106.251 2.13353 100.997C0.488725 95.7154 0.751469 90.0664 0.55178 84.5961C0.53076 80.0138 1.43985 75.5261 2.46983 71.0805C3.62067 65.7415 5.11837 60.4761 7.19408 55.4209C7.27816 55.216 7.36223 55.0058 7.44631 54.7956C7.44106 54.7956 7.43579 54.7851 7.43053 54.7798C2.44356 50.5181 7.04693 40.1975 9.05434 35.2211C10.1684 32.2994 11.4191 29.3356 12.7591 26.54C13.5053 24.8217 14.1517 23.0771 14.9347 21.3797C17.5674 15.3051 20.1949 10.108 26.8057 7.67496C30.1058 6.5872 33.5531 5.96186 36.9793 5.40484C38.6504 5.12108 40.4634 4.87409 41.8454 3.81786C42.5233 3.1137 42.8491 2.16785 43.3484 1.34808C43.6689 0.654436 44.6463 0.617652 44.9721 1.34808C46.3805 4.12792 46.6275 7.49103 45.7499 10.4863C45.6711 11.8526 45.0877 13.2294 44.1944 14.3329C44.2154 14.3539 44.2312 14.3697 44.2522 14.3907C46.2701 16.3245 46.1965 19.4932 46.4225 22.0471C46.5329 22.5988 46.6853 23.1086 46.8534 23.5342C47.2213 24.1543 47.237 24.9373 46.6327 25.4155C46.4068 25.6414 46.1282 25.8043 45.8917 26.0198C45.8182 26.1774 45.7551 26.3404 45.7026 26.5085C45.6605 26.8343 45.5607 27.1759 45.4976 27.3966C45.4503 27.5542 45.3978 27.7014 45.3347 27.8485C45.2979 27.9694 45.2559 28.0902 45.2139 28.2111C45.1718 28.3792 45.093 28.5158 44.9932 28.6157C44.9354 28.7418 44.8565 28.8627 44.7672 28.9783C44.7672 28.9888 44.7724 28.9993 44.7777 29.0098C43.4587 30.828 41.3357 32.3519 39.1076 32.7513C39.0813 33.8916 38.7502 35.0477 38.6661 36.1933C39.528 36.0304 41.2726 37.1286 41.877 37.3966C45.0667 39.2306 48.0621 41.5322 50.2586 44.5013C50.8945 45.3 51.5093 46.1145 52.1872 46.8764C53.7007 46.0777 55.2089 45.2895 56.7223 44.4907C59.2604 43.156 61.8091 41.837 64.363 40.5286C66.2285 39.5249 68.0888 38.5264 69.9543 37.5227C71.5519 36.6609 73.1441 35.7939 74.7416 34.9268C74.8625 34.6956 74.9886 34.4644 75.12 34.2384C76.5178 31.8317 78.5988 29.7928 81.0686 28.5001C82.0355 27.9956 83.0445 27.6015 84.0797 27.3177C84.0955 27.3177 84.106 27.3072 84.1217 27.3072C84.1428 27.302 84.1585 27.2967 84.1638 27.2967C85.4986 26.9499 86.8649 26.7817 88.2417 26.8133C88.7251 26.8238 89.2033 26.8658 89.6815 26.9289C92.1303 25.6362 94.5792 24.3382 97.0122 23.0245C98.1736 22.3939 99.3402 21.7686 100.512 21.1538C100.523 21.1538 100.533 21.1432 100.538 21.138C100.859 20.9225 101.169 20.6913 101.484 20.4549C101.747 20.313 102.004 20.1658 102.267 20.024C103.129 19.5458 103.996 19.0728 104.863 18.6104C105 18.5841 105.136 18.5631 105.278 18.5473C109.051 18.2741 110.218 21.5584 111.406 24.4591C111.584 24.7796 111.758 25.0897 111.921 25.3944C114.159 29.4775 116.314 33.5974 118.437 37.7382C120.549 41.8475 122.662 45.9568 124.716 50.0924C126.761 54.2123 128.815 58.3321 130.828 62.4625C131.811 64.4803 132.783 66.5035 133.776 68.5161C134.738 70.4657 135.699 72.4152 136.656 74.37C137.36 75.8151 138.054 77.2602 138.747 78.7053C139.057 79.3464 139.373 79.9875 139.688 80.6286V80.6391C140.008 81.1436 140.261 81.6744 140.445 82.2314C140.502 82.347 140.555 82.4678 140.608 82.5834C140.728 82.8462 140.776 83.151 140.749 83.4505H140.765Z" fill="#050505"/>
<path d="M32.4335 125.196C33.269 123.619 34.2833 121.896 34.2255 120.067C34.1151 119.342 33.2533 119.352 33.1745 120.078C32.465 123.677 29.806 126.483 27.4045 129.105C29.3961 128.354 31.4088 127.166 32.4335 125.196ZM37.0631 53.9552C37.0947 54.2968 37.1472 54.6856 37.3469 54.9641C36.895 55.2164 36.4483 55.4739 36.0069 55.7314C35.6548 55.9258 35.3027 56.115 34.9454 56.3094C33.5686 57.0556 32.2181 57.8438 30.8675 58.6268C30.2212 58.9999 29.5958 59.394 28.9757 59.8092C28.7655 59.951 28.5553 60.0929 28.3451 60.2348C28.8023 59.147 29.2595 57.9752 29.6957 56.8454C28.3872 58.1118 27.1785 59.4729 26.1748 60.9915C22.5436 67.3604 19.2067 74.0079 17.7143 81.2439C17.4305 82.3894 17.1573 83.5455 16.9208 84.7121C16.9208 84.6543 16.9155 84.5912 16.9103 84.5334C16.7369 85.4898 16.5634 86.4514 16.4321 87.4131C16.3795 87.8125 16.327 88.2118 16.2744 88.606C16.2534 88.7794 16.2219 88.9528 16.2114 89.1262C16.1641 89.7095 16.1273 90.298 16.08 90.8813C16.0695 91.349 16.0537 91.8114 16.0432 92.2791C16.0327 92.731 16.0537 93.1777 16.059 93.6296C16.0695 94.3548 16.0695 95.08 16.059 95.8052C15.9381 96.0154 15.833 96.215 15.7437 96.4042C15.4599 96.3884 15.297 96.6617 15.2917 97.3081C15.3548 97.4079 15.4126 97.5078 15.4757 97.6076C15.5019 97.6917 15.544 97.76 15.607 97.8125C16.5529 99.2997 17.6565 100.692 18.8179 102.032C19.7637 103.955 20.8147 105.821 22.1653 107.492C23.437 109.105 24.756 110.734 26.1223 112.279C27.2626 113.551 28.4292 114.802 29.4802 116.152C30.1581 116.888 30.6836 117.86 31.3772 118.606C30.8938 118.979 30.7204 119.484 31.2774 120.078C31.661 120.314 31.9973 119.936 32.3284 119.788C33.1114 119.415 33.9732 119.505 34.7877 119.599C35.7651 120.409 34.8613 122.495 34.5985 123.625C34.0258 126.01 32.3599 127.818 30.6153 129.442C29.0598 130.813 27.0734 132.784 24.84 131.827C21.2719 123.026 12.9375 117.387 8.34991 109.195C3.44175 101.202 2.75861 97.3238 2.73759 88.0489C2.36449 81.7904 3.6467 75.6527 5.0708 69.599C5.97992 65.3268 7.05721 61.1018 8.34468 56.9295C8.45503 56.5564 8.57062 56.1833 8.68623 55.8102C10.0735 56.6247 11.8602 56.9768 13.3789 56.9873C14.0253 57.0241 14.7558 56.8769 15.2077 56.3882C16.9839 56.1885 18.7443 55.4371 20.2472 54.5963C24.7928 51.7744 27.4097 46.8716 28.9915 41.9057C29.6746 40.0613 30.0162 38.1643 30.1476 36.2462C30.1581 36.262 30.1739 36.283 30.1844 36.2988C30.3105 37.5074 31.8607 39.6199 32.2391 40.1926C32.4755 40.5027 32.7225 40.8127 32.9853 41.107C34.4304 43.9551 35.5918 46.9609 36.2907 50.0928C36.5955 51.3803 36.8372 52.6467 37.0369 53.9605L37.0631 53.9552Z" fill="white"/>
<path d="M50.6847 137.046C50.6321 137.13 50.5796 137.225 50.527 137.309C48.8665 138.181 47.3478 139.29 45.6977 140.183C44.0003 140.956 42.2084 141.544 40.3744 141.891C40.3849 141.902 40.3954 141.912 40.4007 141.923C37.4054 138.533 33.9003 135.575 31.2255 131.912C33.1015 130.136 34.6938 127.871 35.3559 126.352C35.4663 126.042 35.5976 125.701 35.7238 125.328C36.0496 126.279 36.4384 127.214 36.8746 128.113C38.057 130.131 38.6613 132.884 40.9997 133.883C41.005 133.741 41.005 133.594 40.9997 133.457C41.1469 133.52 41.2993 133.578 41.4517 133.625C41.3203 133.767 41.1995 133.914 41.0786 134.067C40.9472 134.245 40.8421 134.424 40.7423 134.613C40.3954 134.86 40.427 135.59 40.8579 135.727C41.2205 135.879 41.5095 135.575 41.6934 135.296C42.8127 134.056 44.2473 133.22 45.7292 132.453C45.9552 133.11 46.7907 133.226 47.4003 133.273C47.5054 133.278 47.6105 133.284 47.7156 133.284C46.7802 134.461 45.5979 135.491 44.5626 136.536C44.116 136.925 43.4013 137.514 43.869 138.171C43.9741 138.339 44.1265 138.412 44.2894 138.412C44.4838 138.412 44.6835 138.307 44.8149 138.139C45.4455 137.577 46.1076 137.041 46.7434 136.484C47.3162 136.857 48.0362 136.988 48.7088 137.083C49.3762 137.13 50.0331 137.114 50.6847 137.046Z" fill="white"/>
</svg>
