<svg width="170" height="185" viewBox="0 0 170 185" fill="none" xmlns="http://www.w3.org/2000/svg">
<path d="M83.8146 184.178C83.8146 184.178 83.7778 184.136 83.762 184.12C83.7042 184.062 83.6569 183.994 83.6254 183.925C83.4625 183.705 83.2733 183.495 83.1052 183.284C82.7478 182.827 82.3904 182.375 82.0279 181.923C81.3079 181.014 80.588 180.11 79.9311 179.312C79.8208 179.175 79.7104 179.044 79.6684 178.996C78.5491 177.641 77.4665 176.253 76.384 174.871C75.3172 173.51 74.2504 172.154 73.1889 170.793C70.9924 167.987 68.8063 165.176 66.6255 162.359C64.4026 159.501 62.2428 156.595 60.0778 153.694C57.918 150.809 55.8528 147.851 53.6667 144.987C53.4355 144.682 53.2043 144.372 52.973 144.062C52.7891 143.815 52.5526 143.557 52.4318 143.268C52.3687 143.105 52.374 142.916 52.4318 142.748C52.5474 142.449 52.8732 142.254 53.1622 142.454C53.2988 142.548 53.404 142.706 53.5091 142.832C53.6667 143.021 53.8191 143.216 53.9715 143.41C54.2553 143.768 54.539 144.12 54.8175 144.477C55.3851 145.192 55.9526 145.906 56.5307 146.605C56.5359 146.61 56.5412 146.621 56.5465 146.626C56.5622 146.642 56.5727 146.658 56.5727 146.658C56.6515 146.752 56.7304 146.847 56.7987 146.936C56.8092 146.952 56.8197 146.963 56.8354 146.978C56.8459 146.989 56.8512 146.999 56.8512 146.994C56.8827 147.031 56.909 147.062 56.9353 147.094C56.9616 147.125 56.9826 147.152 57.0089 147.183C57.0562 147.236 57.0982 147.294 57.1087 147.304C57.1507 147.357 57.1928 147.409 57.2296 147.446C59.4892 150.173 61.6911 152.937 63.9139 155.696C66.1788 158.513 68.3649 161.382 70.572 164.241C72.7318 167.036 74.8758 169.842 77.0146 172.643C78.0813 174.041 79.1586 175.428 80.1991 176.842C81.1608 178.145 82.1067 179.454 83.0841 180.746C83.4362 181.203 83.783 181.666 84.1351 182.128C84.298 182.344 84.4556 182.559 84.6185 182.775C84.6816 182.827 84.7342 182.89 84.7657 182.959C84.7657 182.959 84.7657 182.959 84.7657 182.964C85.0074 183.258 84.9548 183.752 84.7499 184.046C84.6185 184.23 84.4084 184.351 84.1982 184.351C84.0563 184.351 83.9144 184.299 83.804 184.172L83.8146 184.178Z" fill="#050505"/>
<path d="M84.7078 184.599C84.3768 184.594 84.2297 184.21 84.2664 183.931C84.319 183.543 84.6921 183.275 84.9706 183.033C85.2228 182.812 85.4751 182.591 85.7273 182.376C86.2896 181.903 86.8519 181.43 87.4142 180.957C88.5808 179.974 89.7369 178.981 90.9035 177.999C93.1106 176.133 95.344 174.304 97.6089 172.513C99.8475 170.736 102.081 168.95 104.314 167.168C106.548 165.387 108.781 163.606 111.009 161.814C111.923 161.073 112.848 160.342 113.768 159.607C114.236 159.228 114.709 158.855 115.181 158.482C115.534 158.198 115.901 157.93 116.248 157.641C116.275 157.615 116.301 157.594 116.327 157.573C116.327 157.573 116.327 157.573 116.332 157.573C116.585 157.363 116.931 157.473 117.1 157.725C117.315 158.046 117.262 158.482 117.021 158.766C117.015 158.776 117.005 158.782 117 158.787C116.968 158.818 116.937 158.845 116.9 158.866C116.458 159.212 116.033 159.586 115.597 159.943C115.055 160.39 114.514 160.831 113.978 161.278C112.911 162.155 111.834 163.027 110.762 163.905C108.555 165.713 106.353 167.531 104.135 169.333C101.918 171.141 99.7161 172.97 97.5037 174.788C95.2388 176.648 92.9424 178.461 90.6197 180.248C89.6213 181.015 88.6176 181.782 87.6244 182.555C87.1147 182.954 86.6049 183.353 86.0952 183.742C85.885 183.9 85.6748 184.063 85.4593 184.22C85.2702 184.357 85.0495 184.557 84.8077 184.594C84.7814 184.599 84.7499 184.604 84.7236 184.604C84.7236 184.604 84.7184 184.604 84.7131 184.604L84.7078 184.599Z" fill="#050505"/>
<path d="M117.578 158.602C117.431 158.487 117.305 158.35 117.173 158.214C116.905 157.93 116.653 157.636 116.401 157.341C115.886 156.742 115.386 156.138 114.887 155.528C113.847 154.267 112.812 152.996 111.792 151.713C109.716 149.102 107.693 146.453 105.67 143.799C103.626 141.119 101.576 138.445 99.5427 135.759C97.5195 133.09 95.4438 130.463 93.4206 127.793C91.3712 125.092 89.3217 122.391 87.2776 119.685C85.2754 117.031 83.2733 114.372 81.2659 111.718C80.4409 110.625 79.6105 109.532 78.7802 108.445C78.3493 107.882 77.9184 107.315 77.4875 106.752C77.23 106.416 76.9778 106.075 76.7151 105.738C76.6415 105.665 76.5732 105.586 76.5206 105.497C76.4733 105.439 76.426 105.376 76.384 105.318C76.1528 105.039 76.1685 104.561 76.3998 104.288C76.631 104.015 77.0093 104.051 77.2248 104.325C77.2826 104.404 77.3509 104.477 77.4087 104.561C77.4455 104.614 77.4823 104.661 77.5138 104.714C77.6137 104.84 77.7135 104.961 77.8081 105.087C78.0603 105.407 78.3073 105.728 78.5543 106.048C79.0588 106.695 79.5633 107.341 80.0625 107.982C81.0714 109.275 82.0909 110.562 83.0999 111.855C85.1283 114.456 87.1935 117.026 89.2377 119.622C91.3134 122.254 93.3944 124.882 95.4438 127.536C97.5143 130.21 99.5795 132.885 101.66 135.555C103.715 138.187 105.775 140.815 107.83 143.442C109.89 146.075 111.939 148.723 113.926 151.414C114.593 152.318 115.255 153.221 115.912 154.131C116.579 155.055 117.252 155.975 117.867 156.905C117.993 157.094 118.114 157.289 118.229 157.483C118.356 157.699 118.466 157.946 118.44 158.203C118.413 158.471 118.261 158.713 117.972 158.744C117.956 158.744 117.946 158.744 117.93 158.744C117.804 158.744 117.678 158.671 117.583 158.597L117.578 158.602Z" fill="#050505"/>
<path d="M50.5402 128.955C50.4193 128.782 50.3615 128.572 50.3615 128.361C50.3615 128.23 50.3826 128.099 50.4246 127.978C50.4561 127.883 50.5192 127.736 50.6033 127.673C50.7504 127.521 50.9186 127.384 51.071 127.242C51.3127 127.021 51.5597 126.795 51.8014 126.575C52.3006 126.118 52.8051 125.655 53.3043 125.198C54.329 124.263 55.3485 123.327 56.3732 122.387C58.4279 120.5 60.4826 118.624 62.5478 116.753C64.592 114.898 66.6415 113.054 68.6962 111.209C70.7194 109.397 72.753 107.594 74.7762 105.776C75.0862 105.497 75.3805 105.208 75.7011 104.946C75.8429 104.83 75.9849 104.714 76.1267 104.609C76.2844 104.494 76.4525 104.368 76.647 104.331C77.0936 104.252 77.3144 104.851 77.1672 105.203C77.0358 105.529 76.7836 105.786 76.5418 106.033C76.2738 106.301 75.9953 106.559 75.7168 106.816C75.1598 107.337 74.6028 107.852 74.0405 108.372C73.0526 109.286 72.0698 110.216 71.0872 111.136C69.0167 113.07 66.9357 114.982 64.8548 116.906C62.8841 118.724 60.9083 120.532 58.9219 122.329C56.862 124.2 54.802 126.07 52.7473 127.941C52.3479 128.304 51.9328 128.661 51.5439 129.034C51.4336 129.171 51.2496 129.26 51.0762 129.26C51.0762 129.26 51.0762 129.26 51.071 129.26C50.8502 129.26 50.6611 129.129 50.5349 128.95L50.5402 128.955Z" fill="#050505"/>
<path d="M121.587 147.311C121.456 147.111 121.304 146.928 121.162 146.738C120.946 146.449 120.731 146.166 120.521 145.877C120.069 145.262 119.606 144.652 119.154 144.037C118.224 142.787 117.299 141.531 116.38 140.27C114.551 137.763 112.717 135.267 110.92 132.745C109.065 130.149 107.247 127.521 105.365 124.946C104.835 124.216 104.299 123.491 103.773 122.76C103.51 122.398 103.248 122.035 102.985 121.667C102.859 121.494 102.732 121.32 102.617 121.142C102.491 120.937 102.375 120.737 102.433 120.49C102.47 120.338 102.585 120.18 102.743 120.154C102.916 120.107 103.064 120.248 103.169 120.364C103.295 120.506 103.41 120.653 103.526 120.805C103.778 121.126 104.02 121.447 104.272 121.767C104.766 122.408 105.26 123.055 105.749 123.701C106.7 124.946 107.662 126.181 108.634 127.411C110.61 129.902 112.559 132.419 114.498 134.941C116.364 137.369 118.214 139.807 120.063 142.245C120.573 142.918 121.078 143.596 121.582 144.269C121.997 144.826 122.402 145.393 122.833 145.94C123.148 146.344 123.101 147.033 122.759 147.406C122.623 147.558 122.428 147.663 122.213 147.663H122.207C121.955 147.663 121.724 147.516 121.587 147.311Z" fill="#050505"/>
<path d="M103.179 120.851C103.116 120.851 103.053 120.835 102.995 120.793C102.827 120.683 102.758 120.504 102.758 120.304C102.758 120.22 102.774 120.136 102.806 120.063C102.89 119.721 103.195 119.5 103.468 119.28C103.746 119.054 104.03 118.833 104.314 118.612C104.913 118.15 105.512 117.693 106.106 117.23C107.309 116.295 108.507 115.344 109.721 114.419C112.154 112.564 114.587 110.709 117.031 108.864C119.422 107.057 121.824 105.254 124.23 103.462C126.611 101.686 129.002 99.9259 131.388 98.1602C131.472 98.1024 131.556 98.0446 131.635 97.9816C131.666 97.95 131.708 97.9185 131.745 97.8922C132.002 97.6925 132.36 97.8292 132.528 98.0762C132.728 98.3809 132.712 98.8066 132.502 99.1061C132.465 99.1639 132.407 99.2217 132.344 99.2638C131.808 99.6526 131.288 100.068 130.762 100.478C130.179 100.924 129.596 101.371 129.012 101.823C127.835 102.732 126.653 103.631 125.471 104.529C123.09 106.342 120.704 108.15 118.313 109.947C115.864 111.786 113.431 113.641 110.956 115.444C109.716 116.347 108.486 117.251 107.246 118.155C106.642 118.597 106.043 119.043 105.439 119.485C104.855 119.915 104.272 120.357 103.662 120.746C103.547 120.819 103.415 120.877 103.289 120.877C103.252 120.877 103.216 120.877 103.184 120.861L103.179 120.851Z" fill="#050505"/>
<path d="M143.017 114.593C142.954 114.519 142.902 114.441 142.844 114.367C142.697 114.167 142.55 113.962 142.397 113.757C142.008 113.227 141.619 112.691 141.231 112.16C140.416 111.046 139.612 109.927 138.824 108.797C137.988 107.609 137.19 106.401 136.375 105.202C135.534 103.968 134.693 102.733 133.842 101.508C133.537 101.072 133.238 100.636 132.938 100.2C132.775 99.9633 132.612 99.7216 132.455 99.4798C132.308 99.2591 132.166 99.0279 132.113 98.7599C132.113 98.7336 132.103 98.7074 132.103 98.6811C132.087 98.3343 132.355 97.9875 132.718 98.1451C132.865 98.2082 132.975 98.3395 133.075 98.4551C133.206 98.6023 133.327 98.7546 133.453 98.9123C133.684 99.2118 133.921 99.5166 134.152 99.8214C134.62 100.431 135.077 101.046 135.545 101.655C136.422 102.811 137.321 103.957 138.219 105.097C139.912 107.252 141.535 109.469 143.138 111.692C143.485 112.17 143.816 112.654 144.163 113.127C144.321 113.321 144.41 113.579 144.41 113.82C144.41 114.062 144.368 114.299 144.236 114.509C144.1 114.719 143.884 114.877 143.627 114.892C143.616 114.892 143.606 114.892 143.601 114.892C143.364 114.892 143.164 114.772 143.017 114.598V114.593Z" fill="#050505"/>
<path d="M98.1345 115.081C98.1503 115.024 98.1713 114.971 98.1976 114.919C98.1976 114.919 98.1976 114.913 98.2029 114.908C98.2134 114.892 98.2238 114.871 98.2344 114.856C98.3973 114.614 98.6758 114.435 98.9017 114.267C99.2013 114.046 99.5008 113.831 99.8003 113.61C100.42 113.158 101.041 112.696 101.655 112.239C102.78 111.398 103.894 110.552 105.019 109.711C107.304 108.008 109.622 106.343 111.934 104.682C114.304 102.985 116.679 101.303 119.06 99.6216C120.163 98.8386 121.267 98.0609 122.376 97.2884C123.427 96.5528 124.488 95.8328 125.539 95.1077C126.044 94.7556 126.548 94.4087 127.053 94.0514C127.421 93.7939 127.783 93.5207 128.156 93.2684C128.382 93.0635 128.729 93.1528 128.892 93.3998C128.981 93.5364 129.023 93.6993 129.018 93.857C129.018 94.0304 128.955 94.2564 128.818 94.372C128.477 94.6557 128.098 94.9027 127.741 95.1707C127.294 95.5018 126.848 95.8276 126.401 96.1586C125.382 96.9153 124.367 97.6826 123.348 98.4393C121.088 100.11 118.808 101.755 116.532 103.41C114.215 105.102 111.887 106.779 109.543 108.445C108.376 109.27 107.215 110.1 106.038 110.914C104.892 111.708 103.747 112.486 102.601 113.274C101.923 113.742 101.245 114.204 100.573 114.677C100.242 114.908 99.916 115.145 99.5849 115.376C99.4483 115.47 99.3116 115.57 99.1698 115.66C99.0174 115.754 98.8492 115.886 98.6653 115.912C98.6443 115.912 98.6233 115.912 98.6075 115.912C98.2134 115.912 98.0347 115.428 98.124 115.087L98.1345 115.081Z" fill="#050505"/>
<path d="M97.6252 114.451C96.7108 113.394 95.8385 112.312 94.9504 111.229C94.0571 110.142 93.1638 109.054 92.2809 107.956C90.5468 105.822 88.8021 103.694 87.0732 101.555C85.3338 99.4006 83.5892 97.2461 81.8551 95.0863C80.1104 92.9108 78.3552 90.7511 76.6053 88.5808C74.9447 86.5209 73.2841 84.4504 71.613 82.401C71.4764 82.2329 71.3398 82.0647 71.2032 81.9018C70.8774 81.5497 70.8406 80.9507 71.0981 80.5513C71.2242 80.3516 71.4344 80.1992 71.6762 80.194C71.7918 80.194 71.9073 80.2203 72.0072 80.2728C72.1017 80.3201 72.2279 80.4147 72.2752 80.5093C72.312 80.5881 72.3908 80.6617 72.4434 80.7247C72.6063 80.9349 72.7691 81.1399 72.932 81.3448C73.3524 81.8755 73.7676 82.4063 74.1827 82.937C75.0183 84.0038 75.8591 85.0705 76.6999 86.132C78.3867 88.2603 80.0578 90.399 81.7447 92.522C83.4841 94.708 85.2024 96.9045 86.9313 99.0906C88.6497 101.25 90.3366 103.431 92.0392 105.601C93.7839 107.819 95.518 110.042 97.2416 112.275C97.5096 112.622 97.7776 112.974 98.0404 113.326C98.1665 113.494 98.2926 113.668 98.4135 113.841C98.5448 114.03 98.6657 114.23 98.6394 114.472C98.6237 114.645 98.5133 114.882 98.3136 114.913C98.2926 114.913 98.2716 114.913 98.2506 114.913C97.951 114.913 97.7408 114.592 97.5621 114.388L97.6095 114.445L97.6252 114.451Z" fill="#050505"/>
<path d="M128.477 93.8419C128.324 93.7 128.183 93.5476 128.041 93.39C127.673 92.9853 127.342 92.5439 127 92.1182C126.632 91.6611 126.233 91.2302 125.849 90.7783C125.439 90.2948 125.024 89.8061 124.62 89.3174C123.753 88.2664 122.886 87.2102 122.05 86.1645C121.877 85.949 121.703 85.7336 121.53 85.5181L121.414 85.3762C121.32 85.2606 121.23 85.145 121.172 85.0767C121.073 84.9506 120.973 84.8297 120.957 84.8087C120.878 84.7089 120.799 84.6143 120.72 84.5144L120.668 84.4514C120.463 84.1991 120.258 83.9416 120.053 83.6841C118.109 81.2722 116.206 78.8234 114.304 76.3693C112.412 73.9311 110.515 71.4981 108.65 69.0388C106.805 66.6057 104.95 64.178 103.095 61.7502C101.303 59.4118 99.5166 57.0681 97.7352 54.7192C97.0678 53.8311 96.4057 52.9325 95.7173 52.0602C95.7068 52.0444 95.6962 52.0287 95.6962 52.0287C95.691 52.0182 95.6857 52.0129 95.6805 52.0024C95.423 51.6188 95.4072 51.0776 95.6805 50.6887C95.7961 50.5258 95.9643 50.3944 96.1639 50.3576C96.4004 50.3156 96.6474 50.4102 96.7262 50.5153C96.7998 50.5836 96.8418 50.6151 96.8997 50.6992C96.8997 50.7045 96.9101 50.715 96.9154 50.7202C97.0678 50.9357 97.2412 51.1354 97.4041 51.3403C97.6196 51.6188 97.835 51.892 98.0505 52.1706C98.5076 52.7539 98.9648 53.3319 99.422 53.9099C100.315 55.0345 101.198 56.1695 102.081 57.2993C103.936 59.6798 105.786 62.0603 107.641 64.4355C109.543 66.8737 111.456 69.3015 113.348 71.7503C115.24 74.2043 117.126 76.6636 118.997 79.1387C120.904 81.661 122.807 84.1939 124.672 86.753C125.518 87.9144 126.364 89.0757 127.174 90.258C127.589 90.8676 128.02 91.4562 128.456 92.0447C128.645 92.2969 128.824 92.5597 128.987 92.8277C129.16 93.1062 129.318 93.3847 129.213 93.721C129.176 93.8419 129.081 93.9417 128.966 93.9838C128.923 93.9995 128.881 94.01 128.845 94.01C128.708 94.01 128.582 93.9207 128.487 93.8313L128.477 93.8419Z" fill="#050505"/>
<path d="M66.216 69.2795C66.1161 69.0798 66.1318 68.7908 66.2948 68.6226C66.342 68.5753 66.3946 68.5385 66.4052 68.5333C66.9569 68.1497 67.4982 67.745 68.05 67.3562C68.6963 66.899 69.3427 66.4418 69.9838 65.9741C71.2082 65.0913 72.4221 64.1927 73.6465 63.3099C75.3176 62.1013 76.9782 60.8769 78.6335 59.7418C78.7281 59.6788 78.8227 59.6105 78.8279 59.6105C81.2978 57.9079 83.7833 56.2316 86.2637 54.5605C88.5864 52.9998 90.9091 51.4338 93.2476 49.9047C93.5156 49.7313 93.7783 49.5579 94.0411 49.3792C94.0306 49.3844 94.0253 49.395 94.0148 49.4002C93.999 49.4107 93.9833 49.4212 93.9675 49.4317H93.957C93.957 49.4317 93.9623 49.4317 93.9675 49.4317C94.1094 49.3319 94.2565 49.2741 94.4352 49.3056C94.6402 49.3424 94.8031 49.5001 94.9029 49.684C95.0133 49.8994 95.0396 50.1517 94.9817 50.3829C94.9345 50.5826 94.8136 50.8085 94.6349 50.8926L94.6191 50.9031C94.6191 50.9031 94.6034 50.9136 94.5929 50.9189C94.5771 50.9294 94.5613 50.9399 94.5455 50.9504C94.5455 50.9504 94.5455 50.9504 94.5403 50.9504L94.5088 50.9767C94.493 50.9872 94.4773 50.9977 94.4668 51.0082C94.4563 51.0187 94.4405 51.024 94.4352 51.0292C93.4473 51.7071 92.4751 52.4113 91.503 53.0839C91.0563 53.3939 90.6096 53.704 90.247 53.9509C88.8282 54.9336 87.404 55.9058 86.0693 56.8201C84.8448 57.6662 83.61 58.4964 82.375 59.3372C81.1033 60.199 79.8316 61.0661 78.5441 61.9174C76.027 63.5779 73.4573 65.1491 70.9192 66.7676C70.1992 67.2248 69.4793 67.682 68.7646 68.1549C68.1078 68.5858 67.4404 68.9957 66.836 69.4003C66.7887 69.4371 66.7415 69.4634 66.6837 69.4897C66.6469 69.5054 66.6101 69.5107 66.5733 69.5107C66.4314 69.5107 66.3 69.4056 66.2317 69.2795H66.216Z" fill="#050505"/>
<path d="M95.3087 51.0352C94.6304 50.6778 94.1677 49.3484 95.1667 49.1592C95.987 49.3378 96.0606 50.5622 95.9238 51.2454C95.7083 51.2454 95.4875 51.156 95.3087 51.0352Z" fill="#050505"/>
<path d="M96.5425 52.0445C96.0486 51.6031 95.2341 51.3193 95.1657 50.5574C95.1184 50.1212 95.3654 49.4854 95.8962 49.5011C96.6371 49.601 96.9682 50.5258 97.1311 51.1617C97.3466 51.3824 97.3939 51.7607 97.2152 52.0235C97.0628 52.2652 96.7002 52.2862 96.5425 52.0445Z" fill="#050505"/>
<path d="M90.8935 45.0225C90.7201 45.0225 90.5782 44.9174 90.4888 44.7807C89.9581 44.1081 89.4326 43.4302 88.9649 42.8154C88.844 42.6578 88.7232 42.5054 88.6023 42.3477C88.3921 42.0955 88.1661 41.859 87.9507 41.6068C87.6774 41.2862 87.4041 40.9604 87.1309 40.6294C86.6212 40.0093 86.1062 39.384 85.6858 38.848C85.5702 38.7061 85.4598 38.559 85.3547 38.4276C85.3389 38.4066 85.3232 38.3855 85.3074 38.3645L85.2916 38.3435C85.2338 38.2699 85.1761 38.1964 85.1183 38.1228C85.071 38.0597 85.0184 37.9967 85.0184 37.9967C83.2317 35.7161 81.4818 33.4092 79.7372 31.0918C77.9925 28.7796 76.2426 26.4674 74.4874 24.1553C72.7375 21.8537 70.9929 19.5468 69.2272 17.2556C67.4983 15.0065 65.7484 12.768 64.0195 10.5189C63.2785 9.56247 62.5534 8.5903 61.8177 7.63391C61.7914 7.60238 61.7651 7.57085 61.7441 7.53407C61.7441 7.53407 61.7283 7.51306 61.7231 7.5078C61.4551 7.09266 61.4393 6.53564 61.7336 6.12576C61.8807 5.91557 62.1119 5.76843 62.3747 5.76843C62.6479 5.76843 62.8529 5.93132 63.0105 6.13627C64.6553 8.25924 66.2476 10.4243 67.8556 12.5735C69.6003 14.9067 71.3555 17.2346 73.1159 19.5573C74.8605 21.8537 76.6104 24.1448 78.3604 26.4412C80.1208 28.7481 81.9074 31.034 83.6521 33.3566C85.402 35.6793 87.1624 38.0019 88.7915 40.4087C88.9439 40.6294 89.0962 40.8553 89.2329 41.0813C89.3905 41.344 89.585 41.5858 89.7636 41.8275C90.2786 42.5211 90.8041 43.2095 91.3191 43.9084C91.5818 44.2605 91.4242 45.0172 90.9093 45.0172L90.8935 45.0225Z" fill="#050505"/>
<path d="M59.358 64.3669C59.3896 64.4878 59.3633 64.6507 59.2634 64.7295C59.2056 64.7768 59.1584 64.7926 59.1111 64.7926C59.006 64.7926 58.9272 64.6927 58.8588 64.6087C58.8326 64.5719 58.8063 64.5403 58.78 64.5036C58.7064 64.4142 58.6224 64.3302 58.5383 64.2513C58.4017 64.1935 58.3018 64.0832 58.202 63.9781C58.0443 63.8099 57.9024 63.6312 57.7553 63.4526C57.44 63.0532 57.1194 62.6538 56.7989 62.2597C56.636 62.0653 56.4678 61.8761 56.3101 61.6869C54.5392 59.5692 52.8103 57.42 51.0657 55.276C49.3473 53.1582 47.671 51.0142 45.9894 48.8703C44.3288 46.7473 42.6735 44.619 41.0129 42.4961C39.3996 40.4309 37.7811 38.371 36.1678 36.3006C34.6281 34.3247 33.1094 32.3331 31.596 30.3415C30.9812 29.5323 30.3768 28.7072 29.8198 28.0031C29.6254 27.7719 29.4414 27.5354 29.31 27.362L29.2838 27.3305C29.2523 27.2937 29.2207 27.2516 29.1892 27.2149C29.1471 27.1676 29.1051 27.1203 29.0631 27.0782C28.7267 26.7104 28.6795 26.1166 28.958 25.7014C29.0894 25.507 29.2995 25.3599 29.5413 25.3546C29.7725 25.3546 30.009 25.486 30.1404 25.6804C30.3821 26.0535 30.6606 26.4056 30.9339 26.7577C31.2965 27.2201 31.659 27.6825 32.0216 28.1397C32.8204 29.1592 33.6297 30.1786 34.4284 31.1928C35.9787 33.1634 37.5078 35.1497 39.0317 37.1361C40.6503 39.2486 42.2689 41.3558 43.8874 43.463C45.5375 45.607 47.1822 47.7562 48.8218 49.9002C50.4876 52.081 52.1324 54.2775 53.7615 56.4846C54.597 57.6091 55.4273 58.7389 56.2576 59.874C56.6675 60.431 57.0616 60.9985 57.4715 61.5608C57.8919 62.1283 58.3386 62.6854 58.7327 63.2687C58.8273 63.4105 58.9114 63.5524 58.9534 63.7153C58.9902 63.7836 59.0322 63.852 59.069 63.9203C59.1268 64.0043 59.1846 64.0779 59.2425 64.162C59.2897 64.225 59.3318 64.2829 59.3528 64.3617L59.358 64.3669Z" fill="#050505"/>
<path d="M29.1837 26.1642C29.2047 25.6702 29.6094 25.3865 29.9667 25.1132C30.2978 24.861 30.6288 24.6088 30.9599 24.3618C31.6746 23.8363 32.3788 23.3056 33.0882 22.7696C34.486 21.7133 35.8786 20.6466 37.2869 19.5956C40.03 17.5357 42.7994 15.502 45.5951 13.5157C48.2751 11.6134 50.9604 9.72165 53.6772 7.86667C54.8281 7.08369 55.9842 6.30071 57.1245 5.50197C57.5712 5.19193 58.0178 4.87663 58.4593 4.56134C58.6905 4.39844 58.9322 4.24081 59.1529 4.06739C59.258 3.98857 59.3894 3.93602 59.5312 3.94653C59.9779 3.96755 60.1777 4.44048 60.1777 4.82934C60.1777 5.09209 60.0463 5.38111 59.8308 5.5335C59.7888 5.56503 59.7467 5.59657 59.7047 5.6281C59.5418 5.74896 59.3736 5.86981 59.2054 5.99067C58.7062 6.35851 58.207 6.72112 57.7078 7.08896C56.4203 8.04009 55.1486 9.00699 53.8769 9.97915C51.2494 11.9813 48.5746 13.9203 45.8998 15.8594C43.12 17.8772 40.3085 19.8478 37.4814 21.7921C36.1045 22.7328 34.7225 23.6681 33.3457 24.6088C32.652 25.0817 31.9637 25.5651 31.2753 26.0433C30.9389 26.2746 30.6026 26.511 30.2505 26.7265C30.1244 26.8053 29.9773 26.8946 29.8249 26.8999C29.8144 26.8999 29.8038 26.8999 29.7933 26.8999C29.4044 26.8999 29.1732 26.5426 29.189 26.1695L29.1837 26.1642Z" fill="#050505"/>
<path d="M63.0002 8.72252C62.1752 7.74511 61.2975 6.82025 60.4515 5.8586C60.0521 5.36464 59.3269 4.79186 59.7 4.0877C59.8419 3.8092 60.1835 3.7041 60.4252 3.9248C61.534 3.331 62.0595 5.6379 62.6586 6.22645C63.1473 6.92535 64.4085 7.69783 63.8515 8.64896C63.6413 8.94849 63.2524 8.99052 63.0002 8.72252Z" fill="#050505"/>
<path d="M74.1408 99.6745C74.288 99.8584 74.2775 100.163 74.1251 100.337C74.0515 100.415 73.9674 100.452 73.8781 100.452C73.7835 100.452 73.6837 100.405 73.6101 100.321C73.2633 99.9372 72.948 99.5169 72.6274 99.107C72.2228 98.6025 71.8181 98.0928 71.4187 97.5883C70.6147 96.5741 69.8055 95.5651 69.0067 94.551C67.4145 92.5436 65.7959 90.5572 64.1722 88.5761C62.5431 86.5951 60.9246 84.6034 59.2955 82.6223C57.6612 80.636 56.0479 78.6339 54.4399 76.6265C52.7951 74.5824 51.1713 72.5277 49.516 70.4941C47.8554 68.4499 46.1896 66.411 44.5395 64.3563C42.9315 62.3542 41.3287 60.3574 39.7312 58.35C38.964 57.3831 38.181 56.4267 37.419 55.4546C37.419 55.4546 37.4085 55.4388 37.4032 55.4335C37.1615 55.1288 37.172 54.6243 37.4243 54.3353C37.6765 54.0462 38.0812 54.083 38.3071 54.3826C39.8679 56.3426 41.4338 58.2975 42.9945 60.2575C44.6078 62.2754 46.2211 64.288 47.8134 66.3269C49.4635 68.4341 51.1135 70.5466 52.7846 72.6433C54.3874 74.6454 55.9849 76.6475 57.5666 78.6602C59.1746 80.7043 60.7879 82.7432 62.3854 84.7926C63.9672 86.8315 65.5542 88.8652 67.1464 90.8936C68.7282 92.9167 70.3415 94.9083 71.9548 96.9052C72.3646 97.4201 72.7798 97.9351 73.1949 98.4501C73.3894 98.6918 73.5838 98.9335 73.7783 99.1753C73.9149 99.3487 74.062 99.5221 74.1671 99.6797L74.1408 99.6745Z" fill="#050505"/>
<path d="M21.7485 67.1732C21.5803 67.1417 21.4489 67.0156 21.3701 66.8737C21.2965 66.7318 21.2703 66.5636 21.2913 66.406C21.3123 66.2378 21.3859 66.0382 21.533 65.9383C21.8483 65.7176 22.1531 65.4811 22.4631 65.2552C22.9518 64.8926 23.4458 64.5353 23.9398 64.1727C24.9119 63.458 25.8946 62.7486 26.8668 62.0392C28.8795 60.5731 30.8921 59.1122 32.931 57.6829C33.9663 56.9525 34.9963 56.2168 35.9737 55.5389C36.2417 55.3497 36.5097 55.1605 36.7882 54.9924C36.9143 54.9135 37.0405 54.8452 37.1876 54.8085C37.2769 54.7822 37.3663 54.7979 37.4451 54.8347C37.7551 54.8242 37.8865 55.2288 37.7499 55.4758C37.7394 55.5284 37.7289 55.5809 37.7078 55.6282C37.6448 55.7964 37.5239 55.9225 37.3925 56.0381C37.1823 56.222 36.9564 56.3902 36.7304 56.5583C36.2312 56.9314 35.7267 57.2993 35.2274 57.6671C34.187 58.4343 33.1412 59.2015 32.1008 59.9688C30.1144 61.4244 28.1017 62.8432 26.0943 64.2673C24.7753 65.2026 23.4563 66.1485 22.1321 67.0786C22.0427 67.1417 21.9429 67.189 21.8378 67.189C21.8115 67.189 21.7852 67.189 21.7589 67.1837L21.7485 67.1732Z" fill="#050505"/>
<path d="M18.1905 60.8354C17.996 60.7776 17.9277 60.5044 17.975 60.3309C18.0118 60.1891 18.0906 60.1102 18.201 60.0209C18.2798 59.9579 18.3586 59.8948 18.4374 59.8317C18.6687 59.6531 18.9051 59.4849 19.1416 59.3115C19.6776 58.9279 20.2136 58.5548 20.7549 58.1765C21.7744 57.4618 22.7833 56.7419 23.7922 56.0167C25.7944 54.5768 27.8071 53.1423 29.7619 51.7917C29.8197 51.7497 29.8775 51.7129 29.9248 51.6814C30.5081 51.2768 31.0914 50.8827 31.6905 50.4938C32.1214 50.2153 32.5628 49.942 32.9622 49.674C33.2302 49.5059 33.5403 49.6267 33.6874 49.9052C33.8398 50.1995 33.803 50.6514 33.5245 50.8616C33.5192 50.8669 33.5087 50.8721 33.5035 50.8774C32.8834 51.3188 32.2685 51.7655 31.68 52.1754L31.6485 52.1964C31.6485 52.1964 31.6064 52.2227 31.5907 52.2384C31.5907 52.2384 31.5802 52.2437 31.5854 52.2384C30.6027 52.9163 29.6095 53.5679 28.6163 54.2248C27.5653 54.9184 26.5038 55.6068 25.4476 56.2899C24.4123 56.9626 23.3666 57.6194 22.3314 58.2973C21.2646 58.9962 20.2084 59.7161 19.1259 60.394C18.9682 60.4938 18.8105 60.5884 18.6476 60.683C18.6003 60.7093 18.553 60.7408 18.5057 60.7619C18.4322 60.8039 18.3691 60.8302 18.2955 60.8302C18.264 60.8302 18.2325 60.8249 18.1957 60.8144L18.1905 60.8354Z" fill="#050505"/>
<path d="M33.8774 50.4519C33.6199 50.289 33.4097 50.0578 33.1838 49.8476C33.0629 49.732 32.9578 49.5796 32.8474 49.4535C32.7634 49.3536 32.6792 49.2538 32.5952 49.1592C32.1748 48.6652 31.7386 48.187 31.3025 47.7036C30.4459 46.763 29.6261 45.7803 28.8957 44.908C28.8379 44.8397 28.7801 44.7714 28.738 44.7241C28.7223 44.7031 28.7065 44.6873 28.6907 44.6663C28.6802 44.6505 28.6645 44.6347 28.6277 44.5927C26.7359 42.3489 24.9019 40.0525 23.0784 37.7456C21.3442 35.549 19.5839 33.3683 17.813 31.1927C15.9159 28.8596 13.9978 26.5474 12.0797 24.23C11.0971 23.0424 10.1039 21.86 9.19477 20.7723C7.20313 18.4181 5.24303 16.0324 3.28817 13.6519C2.70487 12.9372 2.12152 12.2173 1.53296 11.5079L1.52251 11.4974C1.52251 11.4974 1.49619 11.4659 1.48043 11.4501C1.14936 11.077 1.11261 10.4674 1.38587 10.0523C1.50148 9.88413 1.66435 9.7475 1.86929 9.70546C2.10051 9.65817 2.36851 9.74226 2.52616 9.92618C2.56295 9.96822 2.59975 10.0103 2.605 10.0208C2.98336 10.5147 3.39325 10.9824 3.78737 11.4606C4.26032 12.0334 4.72804 12.6062 5.19574 13.179C6.15214 14.3455 7.09801 15.5226 8.05442 16.6892C9.95672 19.0224 11.8223 21.3818 13.7246 23.715C15.6006 26.0167 17.4661 28.3235 19.3631 30.6094C20.3458 31.7918 21.3285 32.9794 22.2797 34.1197C22.3165 34.167 22.3585 34.2143 22.3953 34.2616C22.4268 34.3036 22.4636 34.3456 22.4951 34.3824C22.4793 34.3614 22.4583 34.3404 22.4373 34.3141C22.432 34.3036 22.4215 34.2984 22.4163 34.2878C23.709 35.8223 25.0175 37.3409 26.2577 38.8123C26.3207 38.8911 26.3891 38.97 26.4521 39.0435C28.3176 41.2558 30.1306 43.5102 31.8963 45.8013C32.2851 46.3058 32.653 46.8208 33.0314 47.3252C33.4413 47.8717 33.9037 48.3815 34.219 48.8754C34.2663 48.9437 34.3083 49.0121 34.3293 49.0488C34.3398 49.0646 34.3504 49.0804 34.3609 49.0961L34.3713 49.1119C34.4502 49.238 34.529 49.3641 34.5921 49.506C34.6919 49.7425 34.6656 50.0525 34.5238 50.2627C34.4292 50.4099 34.2558 50.515 34.0824 50.5202C34.0088 50.5202 33.9352 50.4992 33.8669 50.4572L33.8774 50.4519Z" fill="#050505"/>
<path d="M1.62665 11.0979C1.06962 10.646 0.14472 10.0102 0.680728 9.20616C1.20097 8.50201 1.9104 9.35329 2.3308 9.74215C2.84579 10.2309 2.39913 11.492 1.62665 11.0979Z" fill="#050505"/>
<path d="M25.0323 21.0873C24.7591 21.0295 24.7065 20.6827 24.7853 20.462C24.8379 20.3201 24.9588 20.2255 25.0744 20.1362C25.1952 20.0416 25.3213 19.9575 25.4474 19.8681C25.6997 19.6947 25.952 19.5213 26.2042 19.3532C26.7297 19.0011 27.2552 18.649 27.7859 18.2969C28.8475 17.5875 29.9037 16.8676 30.9547 16.153C33.0619 14.7236 35.1587 13.289 37.2764 11.8807C39.3732 10.4777 41.4752 9.08511 43.5877 7.70307C44.5493 7.07249 45.5162 6.44715 46.4726 5.82707C46.4884 5.81656 46.4989 5.81132 46.5042 5.80607C46.52 5.79556 46.5357 5.78505 46.5515 5.77454C46.6145 5.7325 46.6828 5.69046 46.7301 5.65893C46.7511 5.64317 46.7774 5.63265 46.7879 5.62214C46.8562 5.5801 46.9193 5.53807 46.9824 5.49603C47.0139 5.47501 47.0402 5.45924 47.0454 5.45398C47.1505 5.38567 47.2504 5.32261 47.2977 5.29108C48.706 4.38198 50.1354 3.50442 51.4701 2.64787C51.5647 2.58481 51.6698 2.52701 51.7592 2.45344C52.0482 2.23799 52.4055 2.39038 52.5527 2.69516C52.7156 3.02622 52.6368 3.55172 52.2847 3.73564C52.2637 3.7514 52.2426 3.7619 52.2216 3.77241C51.57 4.19806 50.9289 4.63947 50.2825 5.07563C49.2946 5.743 48.3014 6.40512 47.2977 7.06198C45.8526 8.00786 44.4074 8.95374 42.9728 9.88385C42.9045 9.93115 42.831 9.97319 42.7574 10.0205C42.6155 10.1151 42.4736 10.2044 42.4105 10.2464C42.3738 10.2727 42.3317 10.2937 42.3317 10.299C42.2844 10.3305 42.2371 10.3568 42.1951 10.3831C42.1951 10.3831 42.1846 10.3831 42.1846 10.3883C42.1635 10.4041 42.1426 10.4146 42.1163 10.4304C42.1163 10.4304 42.1215 10.4304 42.1268 10.4251C42.1268 10.4251 42.132 10.4251 42.1373 10.4199C42.1373 10.4199 42.132 10.4198 42.1268 10.4251C42.1268 10.4251 42.1162 10.4304 42.1215 10.4304C42.0742 10.4619 42.0269 10.4934 41.9901 10.5144C41.9849 10.5144 41.9744 10.525 41.9691 10.5302L41.9534 10.5407C41.9061 10.5722 41.864 10.5985 41.8378 10.6143C41.8167 10.6248 41.801 10.6406 41.78 10.6511C41.7747 10.6511 41.7642 10.6616 41.7589 10.6668C41.7589 10.6668 41.7484 10.6721 41.7484 10.6773C41.6433 10.7457 41.5382 10.814 41.4331 10.8823C41.3123 10.9611 41.1914 11.0347 41.081 11.1135C41.081 11.1135 41.081 11.1135 41.0758 11.1135C41.0495 11.1293 41.0285 11.145 41.0285 11.145C41.0127 11.1555 40.997 11.1661 40.9812 11.1766C38.8109 12.5744 36.63 13.9511 34.4492 15.3279C32.2842 16.6889 30.1086 18.0289 27.9541 19.4005C27.4759 19.7053 26.9977 20.01 26.5195 20.3148C26.2778 20.4672 26.036 20.6249 25.789 20.772C25.6682 20.8456 25.5421 20.9191 25.4159 20.9927C25.3214 21.0452 25.2162 21.103 25.1059 21.103C25.0796 21.103 25.0586 21.1031 25.0323 21.0925V21.0873Z" fill="#050505"/>
<path d="M24.4071 20.7616C24.3493 20.7248 24.2915 20.6933 24.2337 20.6618C24.1549 20.6197 24.0813 20.5567 24.013 20.4989C23.766 20.2939 23.54 20.068 23.3088 19.8473C22.8043 19.3586 22.3051 18.8541 21.8006 18.3601C20.7969 17.3722 19.7985 16.3895 18.8053 15.3911C18.4584 15.0443 18.1116 14.6922 17.8489 14.4189C15.7994 12.3328 13.7973 10.2045 11.7951 8.07104C10.8808 7.09889 9.97168 6.12673 9.05205 5.15983C8.23753 4.30853 7.43878 3.44673 6.62425 2.59544C6.62425 2.59544 6.61899 2.59019 6.61373 2.58493C6.59797 2.56917 6.58223 2.5534 6.57172 2.53764C6.28269 2.19082 6.25639 1.66533 6.4771 1.27121C6.59271 1.06627 6.79243 0.892858 7.03416 0.861328C7.28114 0.824544 7.48605 0.940141 7.64895 1.11355C9.49345 3.07363 11.3327 5.03897 13.1877 6.98853C15.1846 9.09049 17.171 11.1977 19.1154 13.3469C20.056 14.3874 20.9861 15.4437 21.911 16.4946C22.3787 17.0306 22.8517 17.5666 23.3246 18.1026C23.7713 18.6124 24.239 19.1116 24.6436 19.6581C24.7277 19.7737 24.7907 19.8945 24.8643 20.0207C24.8695 20.0312 24.8801 20.0469 24.8853 20.0574C24.9904 20.2151 24.9904 20.4463 24.8958 20.6092C24.8328 20.7196 24.7066 20.8089 24.5805 20.8089C24.5279 20.8089 24.4754 20.7931 24.4281 20.7563L24.4071 20.7616Z" fill="#050505"/>
<path d="M116.458 62.2379C116.6 62.4113 116.69 62.611 116.69 62.8422C116.69 63.2048 116.474 63.6409 116.064 63.6462H116.054C115.854 63.6462 115.696 63.5411 115.586 63.3887C115.575 63.3729 115.565 63.3572 115.549 63.3414C115.502 63.2836 115.455 63.2258 115.439 63.2048C113.894 61.3288 112.375 59.4265 110.841 57.5348C109.7 56.137 108.565 54.7339 107.43 53.3466C107.42 53.3361 107.409 53.3256 107.399 53.3098L107.383 53.2941C107.262 53.1469 107.146 53.005 107.031 52.8632C106.779 52.5531 106.521 52.2431 106.332 52.0066C104.666 49.9782 103.021 47.9341 101.371 45.8952C99.7054 43.8352 98.0448 41.7806 96.3895 39.7154C95.9901 39.2162 95.5855 38.7222 95.2282 38.2808C94.3664 37.2299 93.5256 36.1684 92.6743 35.1121C91.8545 34.0979 91.04 33.0785 90.2254 32.059C89.5265 31.1815 88.8276 30.3039 88.176 29.4789C87.8817 29.1216 87.5927 28.7537 87.351 28.4384C86.9358 27.9392 86.5417 27.419 86.137 26.9093C85.7377 26.3995 85.3331 25.8898 84.9337 25.3801C84.1139 24.3291 83.2888 23.2834 82.4638 22.2324C82.1643 21.854 81.8648 21.4757 81.5705 21.0921C81.4444 20.9292 81.3183 20.7663 81.1922 20.6034C81.045 20.409 80.8768 20.2145 80.7822 19.9833C80.6771 19.7363 80.798 19.3159 81.1133 19.3107C81.2132 19.3107 81.2972 19.3475 81.355 19.4105C81.4864 19.5156 81.5915 19.647 81.7019 19.7731C81.8385 19.9307 81.9699 20.0831 82.1013 20.2408C82.364 20.5508 82.6268 20.8609 82.837 21.1184C83.3467 21.7332 83.8669 22.3427 84.3714 22.9523C84.5763 23.194 84.7813 23.4358 84.9652 23.6565C85.2017 23.935 85.4329 24.2135 85.6589 24.4815C85.9269 24.7915 86.1949 25.1068 86.4156 25.3853C86.7046 25.7216 86.9883 26.0632 87.2511 26.3838C87.5506 26.7464 87.8555 27.1037 88.0972 27.398C88.381 27.7448 88.67 28.0863 88.9327 28.4016C88.9432 28.4174 88.959 28.4332 88.9695 28.4489C89.2533 28.7905 89.5423 29.1321 89.8208 29.4736C89.8208 29.4789 89.8313 29.4894 89.8366 29.4947C89.8471 29.5052 89.8524 29.5157 89.8576 29.5157C90.1519 29.8678 90.4461 30.2198 90.7352 30.5772L90.7457 30.5877C90.8245 30.6823 90.9034 30.7821 90.9191 30.8031C91.1293 31.0554 91.3395 31.3128 91.4866 31.4968L91.5497 31.5756C91.618 31.6544 91.6863 31.7385 91.7494 31.8226C91.9911 32.1168 92.2328 32.4111 92.4693 32.7001C92.7478 33.0365 93.0211 33.378 93.2996 33.7143H93.3048C94.0195 34.5866 94.729 35.459 95.4384 36.3313C95.6539 36.594 95.864 36.8568 96.0795 37.1142C96.8257 38.0233 97.5719 38.943 98.2445 39.7785C98.4127 39.9834 98.5808 40.1884 98.749 40.3933C99.264 41.0134 99.7685 41.644 100.283 42.2693C100.819 42.9262 101.361 43.5725 101.886 44.2294C102.701 45.2173 103.5 46.221 104.251 47.1301C105.922 49.1585 107.556 51.2236 109.206 53.273C110.825 55.2804 112.449 57.2825 114.078 59.2794C114.898 60.2831 115.707 61.292 116.458 62.2169V62.2379Z" fill="#050505"/>
<path d="M116.254 62.6859C116.264 62.6334 116.28 62.5861 116.307 62.5335C116.312 62.5178 116.322 62.5073 116.328 62.4968C116.338 62.481 116.343 62.4705 116.354 62.4547C116.454 62.3023 116.59 62.1867 116.732 62.0711C116.906 61.9292 117.084 61.7979 117.195 61.7138C117.3 61.6402 117.4 61.5666 117.499 61.4931C117.515 61.4826 117.526 61.4721 117.526 61.4721L117.541 61.4616C117.946 61.1673 118.345 60.8782 118.745 60.5945C118.787 60.563 118.834 60.5314 118.876 60.4999C118.934 60.4579 118.987 60.4158 119.023 60.3895C119.05 60.3685 119.076 60.3528 119.097 60.337C119.097 60.337 119.097 60.337 119.102 60.3317L119.123 60.316C120.51 59.3018 121.893 58.2823 123.285 57.2734L123.359 57.2208C125.697 55.5078 128.072 53.8419 130.469 52.2077C132.833 50.5997 135.193 48.9969 137.558 47.3889C138.262 46.9055 138.961 46.4273 139.67 45.9491C140.154 45.6233 140.648 45.3133 141.094 44.9875C141.199 44.9139 141.315 44.8718 141.446 44.8929C141.614 44.9191 141.751 45.0453 141.83 45.1871C141.982 45.4657 141.967 45.9281 141.688 46.133C141.41 46.3432 141.115 46.5429 140.847 46.7373C140.837 46.7426 140.826 46.7531 140.816 46.7584H140.805C140.579 46.9318 140.353 47.0947 140.175 47.226C137.878 48.8971 135.561 50.5366 133.259 52.2024C130.947 53.8787 128.624 55.5445 126.265 57.163C123.858 58.8131 121.414 60.4158 118.997 62.0553C118.619 62.3128 118.24 62.5703 117.857 62.8226C117.678 62.9434 117.499 63.059 117.315 63.1746C117.137 63.2902 116.932 63.4164 116.711 63.4269C116.701 63.4269 116.695 63.4269 116.685 63.4269C116.333 63.4269 116.18 62.9697 116.243 62.6807L116.254 62.6859Z" fill="#050505"/>
<path d="M107.646 1.96986C107.93 2.37974 107.899 3.0839 107.478 3.39919C107.336 3.50429 107.179 3.59888 107.031 3.69346L106.08 4.32406C105.46 4.73394 104.835 5.14381 104.215 5.54844C102.875 6.42601 101.53 7.29832 100.184 8.16012C97.4832 9.89949 94.7821 11.6389 92.0653 13.352C90.6622 14.2348 89.2539 15.1123 87.8351 15.9741C86.4478 16.8202 85.0394 17.6399 83.6521 18.486C83.1161 18.817 82.5801 19.1481 82.0388 19.4687C81.9074 19.5422 81.7761 19.6263 81.6394 19.6999C81.5291 19.7577 81.4135 19.8155 81.2978 19.8523C81.2243 19.8785 81.1559 19.8943 81.0824 19.8943C81.0561 19.8943 81.0246 19.8943 80.9931 19.8838C80.8985 19.8628 80.8144 19.8102 80.7566 19.7366C80.662 19.6263 80.6199 19.4844 80.6199 19.3478C80.6357 19.0167 80.8407 18.8013 81.0876 18.6069C81.3819 18.3809 81.6919 18.1707 81.9967 17.9605C82.6221 17.5296 83.258 17.104 83.8886 16.6783H83.899C85.2548 15.7377 86.6002 14.7918 87.9612 13.8722C89.3222 12.9526 90.6832 12.0435 92.06 11.1449C94.7348 9.39503 97.4202 7.65565 100.111 5.92679C101.325 5.14907 102.538 4.3661 103.763 3.58838C104.315 3.2363 104.872 2.88948 105.429 2.5374C105.833 2.28516 106.243 2.04344 106.616 1.81748C106.743 1.70187 106.89 1.6283 107.068 1.6283C107.305 1.6283 107.51 1.77018 107.641 1.95936L107.646 1.96986Z" fill="#050505"/>
<path d="M144.41 41.7021C144.678 42.0279 144.71 42.5429 144.547 42.937C144.521 43.0053 144.484 43.0736 144.447 43.1314C144.326 43.3153 144.148 43.4625 143.927 43.5098C143.88 43.5203 143.832 43.5255 143.785 43.5255C143.57 43.5255 143.38 43.4204 143.218 43.2733C143.218 43.2733 143.212 43.2733 143.207 43.2628C143.113 43.1735 143.034 43.0473 142.95 42.9475C142.897 42.8844 142.845 42.8161 142.845 42.8109C142.818 42.7741 142.787 42.7426 142.766 42.7058C142.55 42.4378 142.335 42.175 142.125 41.9123C141.673 41.35 141.226 40.7877 140.769 40.2202C139.776 38.9801 138.782 37.7452 137.794 36.4998C135.777 33.9511 133.753 31.4025 131.735 28.8591C129.728 26.3315 127.71 23.8092 125.708 21.2711C123.695 18.7172 121.677 16.1633 119.717 13.5727C117.715 10.9294 115.797 8.22316 113.79 5.57995C113.485 5.18058 113.18 4.78121 112.886 4.38184C112.665 4.07705 112.392 3.76177 112.287 3.39393C112.208 3.22052 112.224 2.99455 112.35 2.85266C112.455 2.7318 112.592 2.71604 112.718 2.7791C112.723 2.7791 112.733 2.77911 112.739 2.78436C112.739 2.78436 112.739 2.78436 112.744 2.78436C112.975 2.88946 113.138 3.08915 113.312 3.27832C113.564 3.56209 113.811 3.85635 114.052 4.15062C114.557 4.75493 115.061 5.36451 115.54 5.93204C117.053 7.70819 118.593 9.45807 120.069 11.2185C120.159 11.3183 120.243 11.4181 120.248 11.4286C122.361 13.93 124.389 16.4944 126.444 19.043C128.483 21.5706 130.49 24.1192 132.508 26.6678C134.521 29.2112 136.539 31.7493 138.562 34.2822C140.385 36.5681 142.193 38.8644 143.99 41.1608C144.027 41.1976 144.058 41.2397 144.069 41.2554C144.079 41.2712 144.09 41.2817 144.095 41.2922L144.137 41.35C144.232 41.4656 144.321 41.5865 144.416 41.7021H144.41Z" fill="#050505"/>
<path d="M144.72 43.2263C144.841 43.6046 144.715 44.0513 144.41 44.2352C143.8 44.6451 143.186 45.055 142.618 45.4176C142.371 45.5699 142.129 45.7223 141.877 45.8695C141.089 46.3424 140.295 46.7943 139.518 47.2778C139.134 47.5248 138.756 47.7718 138.409 47.9872C137.931 48.2867 137.452 48.581 136.969 48.87C136.727 49.0172 136.485 49.1643 136.244 49.3114C136.149 49.3692 136.054 49.4218 135.96 49.4743C135.886 49.5164 135.802 49.5847 135.708 49.5847C135.702 49.5847 135.692 49.5847 135.687 49.5847C135.44 49.5532 135.356 49.2536 135.445 49.0434C135.487 48.9436 135.561 48.8858 135.645 48.8227C135.723 48.7597 135.802 48.6966 135.886 48.6336C136.102 48.4654 136.328 48.3025 136.548 48.1396C136.885 47.8926 137.221 47.6404 137.557 47.3934C137.568 47.3881 137.578 47.3776 137.589 47.3724C137.678 47.3041 137.773 47.241 137.862 47.1727C138.277 46.8732 138.703 46.5789 139.123 46.2794C139.512 46.0009 139.891 45.7066 140.274 45.4123C141.241 44.6714 142.213 43.9514 143.212 43.2683C143.249 43.242 143.291 43.2105 143.327 43.1895C143.517 43.0634 143.706 42.932 143.9 42.8164C144.131 42.6745 144.384 42.7691 144.547 42.9478C144.625 43.0318 144.688 43.1317 144.72 43.2368V43.2263Z" fill="#050505"/>
<path d="M144.201 43.9462C143.911 43.4995 143.396 43.1579 143.307 42.6062C143.202 42.0754 143.775 41.7496 144.174 42.1227C144.395 42.3171 144.563 42.5851 144.695 42.8426C144.842 43.1211 144.989 43.5415 144.821 43.8358C144.705 44.0775 144.39 44.1563 144.201 43.9462Z" fill="#050505"/>
<path d="M144.431 43.7308C144.416 43.6888 144.405 43.6468 144.405 43.5995C143.99 43.1213 143.496 42.8165 143.081 42.3541C142.75 41.9337 142.923 41.0403 143.564 41.1192C143.995 41.2453 144.079 41.5868 144.373 41.8548C144.789 42.3698 145.188 42.8743 145.093 43.5259C145.051 43.8412 144.573 44.1145 144.431 43.7256V43.7308Z" fill="#050505"/>
<path d="M147.852 105.848C147.821 105.827 147.789 105.801 147.763 105.775C147.737 105.748 147.716 105.722 147.716 105.722C147.132 104.944 146.523 104.188 145.929 103.42C145.199 102.485 144.473 101.55 143.738 100.614C142.224 98.6911 140.706 96.7678 139.203 94.834C137.658 92.8424 136.102 90.8508 134.531 88.8802C132.975 86.9306 131.409 84.9863 129.859 83.0368C128.314 81.0977 126.743 79.1797 125.23 77.2196C124.652 76.4734 124.079 75.7114 123.532 74.9653C123.049 74.3031 122.571 73.6305 122.108 72.9579C121.677 72.322 121.241 71.6862 120.831 71.1239C120.8 71.0819 120.768 71.0398 120.742 71.003C120.71 70.961 120.679 70.919 120.647 70.8769C120.364 70.4933 120.069 70.115 119.796 69.7209C119.623 69.4739 119.728 68.9852 120.064 68.9431C120.206 68.9221 120.311 68.9852 120.379 69.0798C120.831 69.5947 121.246 70.136 121.698 70.6562C122.113 71.1344 122.534 71.6074 122.959 72.0803C123.806 73.0314 124.625 74.0036 125.429 74.9863C127.022 76.9358 128.53 78.9537 130.059 80.9506C131.567 82.9159 133.086 84.8707 134.583 86.8413C136.113 88.8539 137.679 90.835 139.239 92.8266C140.748 94.7552 142.261 96.6785 143.764 98.6123C145.178 100.43 146.607 102.238 148.031 104.051C148.178 104.235 148.315 104.424 148.467 104.608C148.514 104.65 148.551 104.697 148.583 104.75C148.756 105.002 148.751 105.37 148.604 105.628C148.504 105.801 148.315 105.938 148.115 105.938C148.031 105.938 147.947 105.911 147.868 105.859L147.852 105.848Z" fill="#050505"/>
<path d="M147.936 48.0076C148.114 48.3596 148.041 48.8168 147.741 49.0743C145.734 50.635 143.705 52.1747 141.698 53.7354C139.223 55.6534 136.742 57.5609 134.241 59.4422C133.043 60.3408 131.839 61.2341 130.631 62.1275C129.375 63.0523 128.135 63.9929 126.879 64.9178C125.707 65.7849 124.519 66.6256 123.321 67.4559C122.748 67.85 122.176 68.2494 121.608 68.6488C121.335 68.8432 121.067 69.0429 120.794 69.2321C120.615 69.3529 120.441 69.4895 120.231 69.5263C120.189 69.5421 120.147 69.5474 120.105 69.5474C120.063 69.5474 120.016 69.5369 119.968 69.5211C119.753 69.4423 119.643 69.1585 119.685 68.943C119.706 68.8274 119.737 68.7118 119.816 68.6225C119.932 68.4438 120.089 68.3125 120.258 68.1706C120.531 67.9446 120.809 67.7292 121.088 67.5085C121.676 67.0408 122.254 66.5573 122.838 66.0844C124.01 65.128 125.192 64.1874 126.395 63.2678C127.63 62.3166 128.876 61.376 130.111 60.4249C131.309 59.5 132.512 58.5804 133.721 57.6661C136.201 55.7901 138.713 53.9508 141.22 52.1011C142.413 51.2235 143.6 50.3355 144.798 49.4579C145.324 49.0743 145.849 48.6854 146.369 48.2966C146.527 48.1757 146.69 48.0601 146.853 47.9445C146.932 47.8867 147.021 47.8341 147.095 47.7711C147.384 47.5136 147.794 47.6975 147.951 48.0076H147.936Z" fill="#050505"/>
<path d="M168.646 75.2648C168.646 75.2648 168.598 75.2175 168.577 75.1965C168.577 75.1965 168.577 75.1912 168.572 75.186C166.964 73.1471 165.293 71.166 163.638 69.1744C162.629 67.9552 161.62 66.7309 160.621 65.5065C159.618 64.2768 158.593 63.0629 157.568 61.8543C156.575 60.6825 155.603 59.5001 154.636 58.3073C153.669 57.1092 152.702 55.9163 151.777 54.6919C151.362 54.1454 150.952 53.5936 150.574 53.0786C150.484 52.9578 150.395 52.8317 150.369 52.8001C150.274 52.6688 150.174 52.5321 150.09 52.4165C149.975 52.2589 149.864 52.1065 149.764 51.9699C149.67 51.8437 149.575 51.7124 149.491 51.5968C149.386 51.4549 149.281 51.313 149.239 51.2552L149.181 51.1764C149.092 51.0555 149.008 50.9399 148.976 50.8979C148.656 50.4617 148.325 50.0361 147.994 49.6052C147.82 49.3739 147.641 49.1375 147.468 48.901C147.289 48.654 147.137 48.3808 147.211 48.0655C147.247 47.8921 147.337 47.7344 147.494 47.6556C147.888 47.4559 148.214 47.9236 148.435 48.1811C148.692 48.4754 148.945 48.7749 149.202 49.0744C149.707 49.663 150.222 50.241 150.742 50.819C151.798 51.9961 152.844 53.1732 153.853 54.3924C154.836 55.5747 155.808 56.7676 156.769 57.9657C157.752 59.1901 158.703 60.4355 159.665 61.6756C161.609 64.1612 163.596 66.6153 165.54 69.0956C166.328 70.0992 167.116 71.0977 167.915 72.0856C168.262 72.5165 168.614 72.9527 168.961 73.3836C169.108 73.5622 169.245 73.7461 169.397 73.9248C169.418 73.9458 169.439 73.9668 169.455 73.9878C169.476 74.0089 169.486 74.0299 169.502 74.0509C169.723 74.3347 169.723 74.7708 169.55 75.0756C169.429 75.2858 169.218 75.4172 168.998 75.4172C168.877 75.4172 168.751 75.3751 168.64 75.2753L168.646 75.2648Z" fill="#050505"/>
<path d="M82.2539 168.219C81.7231 167.494 82.8635 167.273 83.2366 166.916C87.5772 163.92 91.4448 160.3 95.8065 157.341C96.4266 156.926 96.847 158.03 96.3372 158.382C95.1338 159.149 94.0723 160.116 92.932 160.972C90.2152 163.059 87.472 165.266 84.6186 167.142C83.9512 167.562 83.3154 168.087 82.5639 168.34C82.4483 168.371 82.3379 168.303 82.2539 168.224V168.219Z" fill="#050505"/>
<path d="M84.7502 172.55C84.5663 172.492 84.477 172.298 84.4665 172.119C84.456 171.956 84.5296 171.777 84.6609 171.672C84.7135 171.63 84.7608 171.583 84.8134 171.541C85.013 171.367 85.2179 171.205 85.4281 171.036C85.9063 170.663 86.3951 170.29 86.8733 169.917C87.8454 169.15 88.8071 168.367 89.8003 167.626C90.1366 167.374 90.473 167.121 90.7725 166.901C90.804 166.874 90.8408 166.848 90.8723 166.827C90.8723 166.827 90.8828 166.822 90.8828 166.817L90.9144 166.796C90.9617 166.759 91.0142 166.722 91.0405 166.701C91.9496 166.034 92.8797 165.387 93.7941 164.73C94.6874 164.089 95.5808 163.438 96.4741 162.797C96.6265 162.692 96.7737 162.587 96.9261 162.481C97.1415 162.329 97.4095 162.481 97.5199 162.676C97.6512 162.912 97.6355 163.306 97.4043 163.485C97.0732 163.737 96.7527 163.995 96.4269 164.247C95.9802 164.594 95.523 164.925 95.071 165.267C94.1777 165.944 93.2949 166.633 92.4015 167.311C91.897 167.694 91.3926 168.073 90.8881 168.44C90.8566 168.461 90.8303 168.483 90.8198 168.493C89.8371 169.218 88.8281 169.907 87.8192 170.605C86.9101 171.231 86.0272 171.898 85.0918 172.481C85.013 172.529 84.9342 172.566 84.8501 172.566C84.8186 172.566 84.787 172.566 84.7555 172.55H84.7502Z" fill="#050505"/>
<path d="M83.9412 143.028C82.5118 142.345 82.3332 140.28 83.2265 139.087C83.8676 138.214 84.9449 137.652 86.0011 137.494C85.9591 135.718 87.2939 133.49 89.317 134.026C90.1789 134.231 91.109 134.767 91.3612 135.666C90.9408 135.529 90.4469 135.466 90.0002 135.356C89.3591 135.177 88.7075 134.846 88.0611 135.177C87.3779 135.513 86.9891 136.296 86.8735 137.011C86.7631 137.484 86.9155 138.157 86.4268 138.446C85.5124 138.503 84.5665 138.94 83.9622 139.638C83.3368 140.343 83.3526 141.604 84.2249 142.103C84.5875 142.371 84.4667 143.101 83.9465 143.028H83.9412Z" fill="#050505"/>
<path d="M98.0928 140.126C98.7812 141.839 99.002 144.377 97.1627 145.439C96.611 145.786 95.7544 146.011 95.2552 145.47C94.6351 144.882 95.0134 143.71 95.9173 143.778C95.8227 144.025 95.6756 144.267 95.6283 144.519C95.6125 144.619 95.6072 144.724 95.6703 144.803H95.6598C95.8174 144.971 96.0171 144.992 96.2116 144.982C98.6236 144.556 98.1086 141.419 97.1627 139.868C96.5321 138.775 95.355 138.119 94.1096 138.203C93.5736 138.25 92.9482 138.418 92.5856 138.802C92.3807 138.98 92.4648 139.38 92.16 139.448C91.7921 139.506 91.7501 138.996 91.8709 138.744C92.0969 138.077 92.7538 137.682 93.4002 137.509C95.3971 136.91 97.4254 138.239 98.0928 140.131V140.126Z" fill="#050505"/>
<path d="M81.7174 136.171C82.4111 136.507 81.791 137.647 81.1762 136.959C79.647 134.957 80.3721 132.356 80.3616 130.059C80.1304 128.614 78.5855 128.273 77.5187 127.626C77.3138 127.479 77.0352 127.39 76.8513 127.248C77.1666 127.101 77.4924 126.996 77.8445 126.985C79.0899 126.875 80.2933 127.637 80.9081 128.693C82.1431 131.005 80.225 133.869 81.7227 136.171H81.7174Z" fill="#050505"/>
<path d="M69.6473 157.153C69.1113 156.737 68.8433 156.049 68.8012 155.387C68.7802 155.009 68.8223 154.63 68.9379 154.273C68.9957 154.105 69.0693 153.958 69.1639 153.826C69.1901 153.795 69.2112 153.758 69.2427 153.732C69.2585 153.684 69.2795 153.637 69.3057 153.595C69.7261 152.896 70.5144 152.381 71.3342 152.344C71.9805 152.313 72.5796 152.597 72.979 153.106C73.3889 153.621 73.5044 154.304 73.4571 154.946C73.4203 155.497 73.1839 156.07 72.8476 156.506C72.4272 157.048 71.8544 157.436 71.1712 157.552C71.0661 157.568 70.9663 157.578 70.8612 157.578C70.425 157.578 69.9994 157.431 69.6473 157.163V157.153ZM71.0609 156.469C71.1397 156.459 71.2133 156.443 71.2921 156.422C71.3972 156.391 71.4971 156.349 71.5969 156.307C71.6757 156.265 71.7493 156.223 71.8228 156.175C71.8912 156.123 71.9595 156.065 72.0225 156.012C72.0803 155.955 72.1382 155.891 72.196 155.828C72.2118 155.807 72.2275 155.786 72.2538 155.755C72.3011 155.687 72.3484 155.618 72.3904 155.55C72.4114 155.503 72.4377 155.455 72.4587 155.408C72.4903 155.324 72.527 155.245 72.5533 155.161C72.5743 155.087 72.5901 155.009 72.6058 154.935C72.6111 154.867 72.6216 154.798 72.6269 154.735C72.6269 154.662 72.6269 154.583 72.6216 154.509C72.6164 154.452 72.6059 154.399 72.5954 154.341C72.5849 154.289 72.5691 154.236 72.5533 154.189C72.5375 154.142 72.5165 154.1 72.5008 154.052C72.4797 154.01 72.4587 153.973 72.4377 153.931C72.4114 153.889 72.3799 153.853 72.3536 153.811C72.3221 153.774 72.2906 153.742 72.259 153.711C72.217 153.674 72.175 153.642 72.1329 153.611C72.0804 153.579 72.0278 153.548 71.97 153.522C71.9122 153.495 71.8544 153.474 71.7913 153.453C71.7178 153.437 71.6442 153.422 71.5654 153.411C71.4708 153.411 71.3814 153.411 71.2921 153.411C71.2027 153.422 71.1134 153.437 71.0241 153.464C70.9242 153.495 70.8244 153.532 70.7246 153.579C70.6195 153.632 70.5196 153.695 70.4198 153.758C70.341 153.816 70.2674 153.879 70.1938 153.952C70.1255 154.021 70.0572 154.094 69.9994 154.173C69.9784 154.205 69.9521 154.236 69.9311 154.268C69.9153 154.294 69.8995 154.315 69.8785 154.336C69.8417 154.462 69.805 154.578 69.7629 154.699C69.7629 154.699 69.7629 154.709 69.7629 154.714C69.7524 154.767 69.7366 154.819 69.7261 154.872C69.7103 154.961 69.6999 155.056 69.6946 155.145C69.6946 155.203 69.6946 155.261 69.6946 155.319C69.6946 155.376 69.7051 155.434 69.7156 155.492C69.7261 155.55 69.7419 155.608 69.7577 155.665C69.7734 155.702 69.7839 155.739 69.7997 155.776C69.8207 155.823 69.847 155.876 69.8733 155.923C69.889 155.949 69.9048 155.976 69.9258 156.002C69.9784 156.065 70.0309 156.123 70.0835 156.175C70.1308 156.217 70.1781 156.254 70.2254 156.291C70.2727 156.322 70.3252 156.349 70.3725 156.375C70.4303 156.401 70.4934 156.417 70.5512 156.438C70.63 156.459 70.7141 156.47 70.7929 156.48C70.877 156.48 70.9663 156.48 71.0504 156.475L71.0609 156.469Z" fill="#050505"/>
<path d="M97.0677 93.6098C96.7314 93.5047 96.5107 93.2262 96.2742 92.9739C95.838 92.5115 95.4124 92.0386 95.0182 91.5551C95.013 91.5446 95.0024 91.5341 94.9972 91.5288C94.9867 91.5183 94.9815 91.5078 94.9815 91.5078C94.4507 90.8352 93.9515 90.1363 93.5469 89.4742C93.4943 89.3849 93.4417 89.3008 93.4312 89.2798C92.7848 88.2078 92.2068 87.0832 91.7444 85.9166C91.4974 85.286 91.2767 84.6502 91.0928 83.9986C90.9194 83.3785 90.8038 82.7532 90.7092 82.1173C90.6619 81.8231 90.6513 81.5235 90.6303 81.2293C90.6093 80.8719 90.6146 80.5041 90.6514 80.1415C90.7092 79.4636 90.8668 78.812 91.14 78.1867C91.3818 77.6454 91.7707 77.1252 92.2646 76.7889C92.5379 76.605 92.8269 76.4683 93.137 76.3632C93.7098 76.1741 94.3666 76.1793 94.9552 76.2897C96.2006 76.5261 97.3199 77.1094 98.3656 77.8031C99.3956 78.4915 100.326 79.3375 101.182 80.2308C102.874 81.9965 104.246 84.0459 105.344 86.2162C105.36 86.2529 105.381 86.2897 105.397 86.3265C105.428 86.3581 105.455 86.3948 105.47 86.4369C105.47 86.4421 105.476 86.4526 105.481 86.4579C105.528 86.5525 105.57 86.6576 105.602 86.7574C105.675 86.9992 105.639 87.3092 105.402 87.4458C105.187 87.5719 104.987 87.4458 104.882 87.2566C104.84 87.183 104.798 87.1042 104.761 87.0202C104.735 86.9729 104.714 86.915 104.703 86.8572C104.582 86.5892 104.461 86.3265 104.33 86.069C104.104 85.6276 103.862 85.1967 103.621 84.7868C103.61 84.7711 103.605 84.7606 103.594 84.7448L103.589 84.7343C103.085 83.9145 102.549 83.121 101.986 82.4169C101.918 82.3275 101.85 82.2435 101.813 82.2014C101.224 81.4815 100.604 80.8036 99.9316 80.1573C99.3378 79.6055 98.7178 79.101 98.0661 78.6439C98.0661 78.6439 98.0556 78.6386 98.0504 78.6334C97.6405 78.3496 97.1991 78.0974 96.7577 77.8766C96.3951 77.7085 96.0272 77.5666 95.7014 77.4563C95.3598 77.3617 95.0183 77.2934 94.6609 77.2566C94.4507 77.2461 94.251 77.2461 94.0408 77.2618C93.8621 77.2829 93.6887 77.3144 93.5153 77.3564C93.3787 77.4037 93.2473 77.4563 93.1107 77.5141C93.0108 77.5666 92.9163 77.6244 92.8269 77.6822C92.7324 77.7505 92.6483 77.8241 92.5589 77.9029C92.4906 77.9765 92.4223 78.0448 92.3592 78.1236C92.2962 78.2024 92.2383 78.2865 92.1858 78.3706C92.1175 78.4862 92.0597 78.6018 92.0019 78.7174C91.9441 78.8593 91.8968 79.0064 91.8495 79.1483C91.8232 79.2534 91.797 79.3585 91.7707 79.4636C91.7181 79.7684 91.6866 80.0732 91.6655 80.3832C91.6655 80.6092 91.6655 80.8299 91.6655 81.0559C91.6918 81.4657 91.7339 81.8704 91.7969 82.2802C91.8968 82.8268 92.0177 83.3733 92.1648 83.883C92.1648 83.8882 92.1648 83.8987 92.1701 83.904C92.4013 84.6607 92.6745 85.4069 92.9898 86.1321C93.3524 86.9256 93.7413 87.698 94.1827 88.4442C94.1932 88.4652 94.2089 88.4863 94.2195 88.5073C94.2405 88.5441 94.2615 88.5809 94.2983 88.6387C94.9236 89.6739 95.6226 90.6618 96.3425 91.5919C96.4949 91.7758 96.6473 91.965 96.8049 92.1437C96.9889 92.3486 97.1833 92.5378 97.3252 92.7795C97.4408 92.9739 97.5091 93.2104 97.5354 93.4311C97.5354 93.4469 97.5564 93.5625 97.5354 93.573C97.4723 93.5993 97.3987 93.6098 97.3252 93.6098C97.2306 93.6098 97.136 93.5888 97.0466 93.5625L97.0677 93.6098Z" fill="#050505"/>
<path d="M105.213 87.7502C104.761 86.9304 107.457 84.7707 108.04 84.1664C106.001 83.5568 104.172 82.469 102.407 81.3077C102.013 81.1185 101.613 80.7297 101.865 80.2672C101.986 80.036 102.254 79.9414 102.475 80.1043C104.524 81.4811 106.8 82.4638 109.107 83.3203C109.448 83.3624 109.611 83.7407 109.538 84.0613C109.275 84.6393 108.655 85.0492 108.24 85.5064C107.457 86.2421 106.632 86.941 105.843 87.6714C105.686 87.8553 105.386 88.0077 105.218 87.7502H105.213Z" fill="#050505"/>
<path d="M93.8257 96.5905C93.3475 96.4906 93.3107 95.9388 93.3054 95.5395C93.1846 93.7843 92.8536 92.2026 92.3596 90.5578C92.1441 89.9062 91.9497 89.2494 91.7237 88.603C91.5818 88.314 91.6449 87.8516 92.0285 87.7832C92.2545 87.7517 92.3964 87.9672 92.4699 88.1511C93.2056 90.3003 93.7942 92.5074 94.3092 94.725C95.3129 94.1469 96.2167 93.3219 97.3045 92.9278C97.7879 92.8647 97.9088 93.5479 97.6408 93.8422C96.5951 94.6777 95.5756 95.5658 94.4773 96.3382C94.2671 96.4381 94.0832 96.6535 93.8257 96.5957V96.5905Z" fill="#050505"/>
<path d="M98.1978 64.341C98.3082 64.5512 98.2661 64.8297 98.0874 64.9874C98.0454 65.0241 98.0034 65.0557 97.9613 65.0924C97.9298 65.1292 97.8983 65.1608 97.8563 65.1765C97.8142 65.1975 97.7722 65.2133 97.7249 65.2186C97.5094 65.3605 97.2992 65.5076 97.0838 65.6495C96.6686 65.928 96.2588 66.2065 95.8436 66.485C95.0081 67.0473 94.183 67.6201 93.3632 68.1823C93.3107 68.2191 93.2634 68.2506 93.2266 68.2769C93.1688 68.3137 93.111 68.3557 93.1057 68.361C93.0795 68.382 93.0532 68.3978 93.0374 68.4083C93.0269 68.4188 93.0164 68.424 93.0059 68.4293L92.9954 68.4346C92.9376 68.4766 92.8746 68.5186 92.822 68.5502C92.2755 68.9285 91.7342 69.3121 91.235 69.6589C89.1172 71.1356 86.9626 72.5544 84.8186 73.9995C84.167 74.4409 83.5154 74.8771 82.8585 75.3185C82.5432 75.5339 82.228 75.7441 81.9127 75.9543C81.755 76.0594 81.5921 76.1698 81.4292 76.2749C81.3031 76.3589 81.1769 76.464 81.0351 76.5166C80.9983 76.5271 80.9615 76.5376 80.9195 76.5376C80.8249 76.5376 80.7303 76.5008 80.6567 76.422C80.478 76.2276 80.4675 75.8597 80.6567 75.6653C80.7408 75.5812 80.8459 75.5182 80.9457 75.4498C81.0666 75.3658 81.1927 75.2817 81.3136 75.1976C81.5658 75.0242 81.8128 74.856 82.065 74.6879C82.5747 74.3411 83.0898 73.9942 83.5995 73.6474C84.6662 72.9222 85.7383 72.2023 86.805 71.4719C87.8297 70.773 88.8545 70.0741 89.8897 69.391C90.9354 68.6973 91.9864 68.0142 93.0374 67.3258C94.493 66.3694 95.9434 65.3972 97.378 64.4041C97.4253 64.3252 97.4937 64.2674 97.583 64.2412C97.6303 64.2149 97.6776 64.1834 97.7249 64.1623C97.8983 64.0677 98.1033 64.1518 98.1978 64.3357V64.341Z" fill="#050505"/>
<path d="M94.7979 62.0856C94.8715 62.2485 94.8399 62.5113 94.677 62.6164C94.6297 62.6479 94.5772 62.6794 94.5299 62.711C94.4931 62.7583 94.4458 62.7951 94.4195 62.8056C94.3985 62.8213 94.3775 62.8318 94.3512 62.8424C94.3302 62.8581 94.3039 62.8634 94.2776 62.8686C93.9781 63.0736 93.6838 63.2838 93.3843 63.4887C92.8851 63.825 92.3859 64.1666 91.8866 64.5029C90.8567 65.1965 89.832 65.9007 88.8072 66.5996C87.793 67.2933 86.7683 67.9869 85.7435 68.67C84.6873 69.3742 83.6258 70.0626 82.5591 70.751C82.0546 71.0768 81.5501 71.3973 81.0456 71.7231C80.8144 71.8755 80.5831 72.0279 80.3519 72.1803C80.2416 72.2486 80.147 72.3222 80.0209 72.3222C79.9998 72.3222 79.9841 72.3222 79.9631 72.3222C79.8054 72.2959 79.7161 72.1488 79.7056 72.0016C79.6951 71.8545 79.7529 71.7021 79.8527 71.597C79.9 71.5497 79.9526 71.5182 80.0104 71.4814C80.0787 71.4341 80.147 71.3921 80.2101 71.3448C80.4518 71.1819 80.6935 71.019 80.9405 70.8561C81.466 70.4987 81.981 70.1361 82.5065 69.7788C83.5417 69.0641 84.5822 68.3547 85.6332 67.6611C87.6932 66.3001 89.7742 64.9601 91.8394 63.6096C92.2913 63.3153 92.7379 63.0158 93.1951 62.7215C93.4579 62.5481 93.7312 62.3799 93.9939 62.2065C94.0202 62.175 94.0517 62.1435 94.0885 62.1224C94.0885 62.1224 94.099 62.1172 94.1042 62.1119C94.1095 62.1067 94.12 62.1014 94.12 62.1014C94.1253 62.1014 94.1305 62.0909 94.1305 62.0909C94.1305 62.0909 94.1305 62.0909 94.1411 62.0909C94.1778 62.0594 94.2199 62.0384 94.2619 62.0331C94.2987 62.0121 94.3407 61.9858 94.3775 61.9595C94.5352 61.8544 94.7244 61.9228 94.7979 62.0962V62.0856Z" fill="#050505"/>
<path d="M105.822 73.6258C105.712 72.5643 105.465 71.382 104.698 70.6042C104.088 70.0104 102.969 69.8107 102.359 70.4991C102.359 70.4991 102.364 70.4886 102.37 70.4886C102.985 71.5764 101.618 71.8707 101.513 70.7041C100.478 69.1907 97.656 68.2553 96.4053 69.9474C96.2161 70.2154 96.2529 70.5937 95.9954 70.8144C95.8115 70.9773 95.5698 70.8249 95.5067 70.62C95.3175 70.084 95.6591 69.5112 95.9534 69.0803C97.4668 67.2621 100.562 68.0556 101.849 69.7634C103.074 68.3394 105.26 69.3273 105.933 70.8197C106.427 71.6552 106.789 73.0057 105.822 73.6363V73.6258Z" fill="#050505"/>
<path d="M98.5446 100.221C97.5303 99.837 96.4689 98.9857 96.4058 97.8296C96.3743 97.5354 96.7106 97.1833 96.9944 97.3988C97.1783 97.5354 97.1783 97.7298 97.2098 97.9295C97.3517 98.3288 97.688 98.6547 98.0191 98.8964C99.3328 99.9421 100.867 99.1802 101.929 98.187C101.74 97.6405 102.402 97.3042 102.749 97.7456C104.33 98.3183 105.586 98.1082 106.059 96.3478C106.643 97.1045 106.522 98.2343 105.697 98.7545C104.777 99.3746 103.579 99.1013 102.617 98.723C101.577 99.7687 100.074 100.825 98.5446 100.226V100.221Z" fill="#050505"/>
<path d="M112.633 90.6464C112.428 90.6149 112.239 90.5098 112.076 90.3889C111.776 90.163 111.582 89.8057 111.492 89.4483C111.398 89.0542 111.408 88.6391 111.519 88.2449C111.556 88.1188 111.603 87.998 111.692 87.9086C111.692 87.8193 111.708 87.73 111.75 87.6511C111.75 87.6511 111.75 87.6511 111.75 87.6459C112.028 87.1572 112.438 86.7263 112.985 86.5424C113.242 86.4583 113.516 86.4425 113.778 86.5056C114.377 86.6527 114.793 87.2045 114.908 87.793C114.966 88.1031 114.971 88.4079 114.919 88.7179C114.871 89.0174 114.751 89.3012 114.603 89.5639C114.335 90.0369 113.883 90.452 113.358 90.6096C113.206 90.6569 113.058 90.678 112.901 90.678C112.806 90.678 112.712 90.6675 112.617 90.6517L112.633 90.6464ZM112.901 89.7846C112.969 89.7741 113.032 89.7636 113.095 89.7426C113.164 89.7163 113.227 89.69 113.29 89.6585C113.358 89.6165 113.426 89.5744 113.489 89.5271C113.547 89.4746 113.605 89.4273 113.657 89.3695C113.71 89.3064 113.757 89.2434 113.81 89.1803C113.852 89.112 113.899 89.0384 113.936 88.9649C113.962 88.9018 113.994 88.8387 114.02 88.7704C114.046 88.6864 114.067 88.6075 114.088 88.5235C114.099 88.4657 114.104 88.4079 114.115 88.35C114.115 88.2975 114.115 88.2397 114.115 88.1871C114.115 88.1346 114.104 88.0873 114.099 88.0348C114.094 88.0032 114.083 87.9665 114.078 87.9349C114.073 87.9139 114.062 87.8876 114.057 87.8666C114.046 87.8456 114.036 87.8193 114.025 87.7983C114.01 87.772 113.994 87.7457 113.978 87.7247L113.952 87.6827C113.926 87.6511 113.899 87.6249 113.868 87.6039C113.847 87.5881 113.826 87.5723 113.805 87.5618C113.778 87.546 113.752 87.5355 113.721 87.5198C113.678 87.504 113.631 87.4883 113.584 87.4725C113.547 87.4672 113.51 87.4567 113.468 87.4567C113.41 87.4567 113.353 87.4567 113.3 87.4567C113.237 87.4672 113.179 87.4777 113.122 87.4935C113.048 87.5198 112.974 87.5513 112.948 87.5618C112.874 87.5986 112.811 87.6407 112.764 87.6774C112.685 87.7352 112.607 87.8036 112.57 87.8403C112.501 87.9139 112.433 87.9927 112.386 88.061C112.386 88.061 112.381 88.0715 112.375 88.0768C112.354 88.1136 112.328 88.1451 112.312 88.1819C112.286 88.2292 112.249 88.266 112.202 88.2923C112.191 88.4131 112.16 88.5235 112.128 88.6391C112.118 88.6969 112.107 88.7599 112.102 88.823C112.102 88.8703 112.102 88.9176 112.102 88.9649C112.102 89.0122 112.107 89.0595 112.113 89.1068C112.123 89.154 112.128 89.2013 112.139 89.2381C112.139 89.2434 112.139 89.2539 112.144 89.2591C112.144 89.2591 112.155 89.3012 112.16 89.3222C112.176 89.3642 112.191 89.401 112.212 89.4431C112.228 89.4693 112.239 89.4904 112.254 89.5114C112.27 89.5324 112.291 89.5587 112.307 89.5797C112.317 89.5955 112.333 89.606 112.344 89.6165C112.375 89.6375 112.407 89.6638 112.438 89.6848C112.47 89.7058 112.501 89.7216 112.538 89.7373C112.585 89.7531 112.633 89.7689 112.649 89.7689C112.685 89.7689 112.717 89.7794 112.754 89.7846C112.796 89.7846 112.843 89.7846 112.885 89.7846H112.901Z" fill="#050505"/>
<path d="M55.5375 25.2123C55.3904 25.1913 55.28 25.0967 55.2485 24.9548C55.2117 24.8129 55.259 24.6238 55.3588 24.5134C55.4587 24.4031 55.5848 24.3242 55.7004 24.2349C55.9527 24.0457 56.1996 23.8618 56.4519 23.6726C56.9668 23.2838 57.4766 22.8949 57.9863 22.5008C58.969 21.7441 59.9517 20.9979 60.9449 20.2517C61.8593 19.5686 62.7736 18.8907 63.6932 18.2128C64.1294 17.8922 64.5656 17.5717 65.0122 17.2617C65.2277 17.1093 65.4484 16.9621 65.6639 16.8097C65.6744 16.7992 65.6902 16.7887 65.6902 16.7887C65.7585 16.7362 65.8425 16.7046 65.9371 16.7151C66.2104 16.7467 66.326 17.041 66.326 17.2774C66.326 17.4351 66.2472 17.598 66.1158 17.6873C66.0948 17.7031 66.0685 17.7188 66.0475 17.7399C65.9056 17.845 65.769 17.9553 65.6271 18.0657C65.1384 18.444 64.6391 18.8171 64.1346 19.185C63.1047 19.9364 62.0747 20.6826 61.0394 21.4288C60.062 22.1277 59.0793 22.8213 58.0914 23.515C57.6079 23.8513 57.1192 24.1929 56.641 24.5397C56.4046 24.7131 56.1628 24.8812 55.9211 25.0547C55.8107 25.1335 55.7004 25.2281 55.5585 25.2281C55.548 25.2281 55.5375 25.2281 55.5217 25.2281L55.5375 25.2123Z" fill="#050505"/>
<path d="M54.9761 22.3961V22.3856C54.9761 22.3856 54.9761 22.3488 54.9761 22.333C54.9761 22.2805 54.9918 22.228 55.0023 22.1754C55.0549 21.9967 55.1705 21.8654 55.3177 21.7603C55.5489 21.5869 55.7801 21.4082 56.0113 21.2348C56.4947 20.8722 56.9729 20.4938 57.4512 20.1207C58.4391 19.3378 59.427 18.5653 60.4255 17.7928C61.0929 17.2778 61.776 16.7891 62.4644 16.3004C62.8901 16.0009 63.3052 15.6803 63.6888 15.4334C63.7781 15.3545 63.8727 15.2968 63.9988 15.2968C64.1407 15.2968 64.2669 15.3913 64.3404 15.5069C64.4928 15.7382 64.4928 16.127 64.2721 16.3214C64.0672 16.5054 63.8307 16.6578 63.61 16.8259C63.1738 17.1465 62.7482 17.4775 62.3173 17.8033C61.3661 18.5233 60.3834 19.1906 59.4007 19.8633C58.6125 20.4045 57.8242 20.93 57.036 21.4713C56.6681 21.7287 56.295 21.9915 55.9325 22.249C55.8484 22.312 55.759 22.3751 55.675 22.4381C55.5699 22.5117 55.4805 22.58 55.3492 22.601C55.3281 22.601 55.3071 22.6063 55.2861 22.6063C55.1495 22.6063 55.0076 22.538 54.9866 22.3961H54.9761Z" fill="#050505"/>
<path d="M122.244 29.579C120.715 29.4897 119.175 27.8554 119.469 26.2894C119.653 25.3383 120.73 24.7235 121.613 25.1911C122.838 23.2311 124.493 23.9668 124.887 26.0319C126.169 25.2962 127.404 26.2264 126.821 27.6137C126.605 27.2406 126.369 26.7519 125.896 26.7098C125.623 26.6941 125.36 26.7571 125.113 26.8727C124.929 26.9726 124.719 27.1512 124.503 27.0251C124.298 26.9095 124.272 26.6573 124.235 26.4471C124.109 25.9846 123.983 25.5695 123.705 25.1859C123.19 24.6131 122.396 25.2437 122.128 25.7639C122.259 26.3262 121.571 26.6835 121.419 26.0162C121.272 25.9373 121.025 25.8848 120.893 25.8795C120.425 25.8953 120.031 26.3262 120.068 26.7781C120.068 26.7676 120.068 26.7571 120.068 26.7466C120.068 26.7308 120.068 26.7098 120.068 26.6941C120.152 27.7188 121.245 28.6909 122.233 28.8065C122.648 28.8223 122.648 29.5737 122.233 29.5895L122.244 29.579Z" fill="#050505"/>
<path d="M101.682 35.229C99.7324 34.178 99.0335 31.5926 99.5747 29.5432C91.5766 31.5558 93.0848 21.9814 96.6424 22.3019C96.9524 22.4754 96.9735 22.9431 96.6897 23.148C96.3534 23.3267 95.9067 23.3319 95.6335 23.642C94.2829 24.9031 94.1358 27.6199 95.9803 28.4764C97.252 29.023 98.6971 28.7024 100.011 28.4975C100.158 28.4765 100.31 28.5448 100.394 28.6656C100.62 28.9862 100.394 29.3645 100.295 29.6903C99.8532 31.1617 100.268 32.9011 101.393 33.9468C102.575 35.1607 104.125 34.0887 105.318 33.4633C104.625 34.6404 103.153 36.0487 101.687 35.2237L101.682 35.229Z" fill="#050505"/>
<path d="M99.5744 14.5408C99.4482 14.0837 99.8423 13.7789 100.189 13.5687C102.995 11.5298 105.744 9.4068 108.66 7.52555C108.86 6.7741 109.785 7.20501 109.664 7.86187C109.59 8.39787 109.007 8.59229 108.634 8.88656C106.921 10.0637 105.292 11.2092 103.594 12.4231C102.564 13.1535 101.529 13.8787 100.504 14.6197C100.242 14.8982 99.7057 15.0243 99.5744 14.5408Z" fill="#050505"/>
<path d="M102.664 15.3762C102.817 15.2554 102.964 15.1345 103.111 15.0136C103.232 14.9191 103.347 14.8192 103.468 14.7299C103.468 14.7299 103.474 14.7246 103.479 14.7194C103.526 14.6826 103.573 14.6405 103.626 14.6038C103.626 14.5827 103.626 14.5565 103.626 14.5354C103.636 14.3936 103.721 14.2307 103.841 14.1518C103.91 14.1098 103.978 14.0625 104.046 14.0152C104.299 13.8471 104.551 13.6842 104.803 13.5213C105.339 13.1692 105.875 12.8224 106.416 12.4703C106.711 12.2758 107.005 12.0814 107.299 11.8922C107.431 11.8029 107.567 11.7083 107.699 11.619C107.919 11.4666 108.145 11.3195 108.371 11.1723C108.45 11.1198 108.534 11.0672 108.566 11.0462C108.734 10.9464 108.897 10.8465 109.06 10.7414C109.244 10.6206 109.427 10.5049 109.611 10.3841C110.011 10.1266 110.415 9.8691 110.815 9.61161C111.03 9.47499 111.251 9.3331 111.466 9.19647C111.666 9.0651 111.866 8.92322 112.076 8.80762C112.171 9.10189 112.27 9.39616 112.365 9.69044C111.356 10.342 110.347 10.9989 109.333 11.64C109.191 11.7346 109.054 11.8239 108.928 11.9133C108.891 11.9395 108.844 11.9658 108.818 11.9868L108.429 12.2286C108.177 12.3862 107.919 12.5438 107.662 12.6962C107.11 13.0431 106.564 13.3846 106.012 13.7314C105.565 14.0152 105.113 14.299 104.666 14.588C104.504 14.6931 104.335 14.7929 104.172 14.898C104.067 14.9663 103.947 14.9926 103.831 14.9401C103.789 14.919 103.757 14.898 103.726 14.8665C103.374 15.0452 103.027 15.2238 102.67 15.392C102.67 15.392 102.664 15.3815 102.67 15.3815L102.664 15.3762Z" fill="#050505"/>
<path d="M103.658 40.4254C103.647 40.315 103.674 40.1994 103.731 40.1101C103.8 39.9892 103.926 39.9157 104.036 39.8368C104.168 39.7475 104.299 39.6582 104.43 39.5688C104.672 39.4007 104.914 39.2378 105.161 39.0696C105.655 38.7386 106.149 38.397 106.637 38.0607C107.599 37.3986 108.561 36.7417 109.538 36.1059C109.575 36.0796 109.617 36.0533 109.654 36.0323C109.78 35.943 109.922 35.9482 110.032 36.0113C110.079 36.0375 110.122 36.0796 110.158 36.1269C110.174 36.1531 110.19 36.1742 110.206 36.2057C110.248 36.3003 110.263 36.4001 110.258 36.4947C110.248 36.6524 110.179 36.81 110.053 36.8993C110.032 36.9151 110.006 36.9309 109.985 36.9466C109.985 36.9466 109.974 36.9519 109.969 36.9572C109.953 36.9729 109.932 36.9834 109.917 36.9939C109.055 37.5825 108.193 38.1605 107.321 38.7333C106.811 39.0644 106.301 39.4059 105.791 39.7422C105.297 40.068 104.809 40.4096 104.304 40.7249C104.21 40.7827 104.126 40.8405 104.005 40.8405C103.8 40.8405 103.674 40.604 103.663 40.4306L103.658 40.4254Z" fill="#050505"/>
<path d="M125.75 131.325C125.382 131.257 125.03 131.099 124.72 130.894C124.552 130.779 124.405 130.637 124.289 130.479C118.114 131.861 117.368 121.793 124.084 123.758C124.578 123.958 125.865 124.126 125.676 124.862C125.561 125.161 125.303 125.109 125.093 124.946C118.603 122.076 118.398 130.4 124.031 129.743C124.047 128.976 124.904 129.181 124.793 129.859C125.361 130.416 126.333 130.511 127.032 130.169C127.652 129.759 128.251 129.291 128.997 129.144C128.877 130.6 127.137 131.614 125.755 131.325H125.75Z" fill="#050505"/>
<path d="M146.349 99.1916C146.028 99.0602 145.997 98.624 146.128 98.356C147.027 96.2961 148.03 94.1626 148.934 92.1395C149.444 90.9677 149.98 89.8063 150.511 88.645C150.784 87.9566 151.231 87.263 151.882 86.9161C151.935 87.7412 151.74 88.5662 151.357 89.2966C150.332 91.6087 149.255 93.8999 148.151 96.17C147.72 97.0581 147.284 97.9462 146.864 98.8447C146.822 99.0707 146.585 99.2861 146.349 99.1916Z" fill="#050505"/>
<path d="M150.389 84.2678C146.285 83.8579 142.265 82.9435 138.303 81.8032C137.903 81.593 137.036 81.777 137.073 81.1569C137.12 80.4265 139.065 81.3093 139.574 81.3198C142.649 82.0607 145.754 82.6861 148.913 82.9436C150.053 83.0802 151.367 82.9593 152.218 83.8789C151.713 84.2362 151.009 84.3729 150.389 84.2678Z" fill="#050505"/>
<path d="M152.592 77.3987C149.145 76.1323 145.913 74.0619 143.049 71.8022C142.776 71.4764 143.207 70.8406 143.543 71.2557C143.601 71.3188 143.717 71.3976 143.753 71.4239C145.661 72.7376 147.61 73.9725 149.681 75.013C151.31 75.8275 153.049 76.3057 154.389 77.5774C153.827 77.6509 153.165 77.5406 152.597 77.3987H152.592Z" fill="#050505"/>
<path d="M158.005 75.9908C156.46 74.4301 156.208 72.0549 155.44 70.0843C155.309 69.1017 152.865 64.5667 154.647 64.6035C155.062 64.6876 155.151 65.2551 154.941 65.5809C155.855 69.0702 157.742 72.3807 158.01 75.9961L158.005 75.9908Z" fill="#050505"/>
<path d="M156.386 89.8532C153.47 86.5374 154.19 81.1722 157.979 78.8337C158.998 78.1191 161.836 77.4044 162.671 78.5815C162.992 79.0807 162.414 79.9688 161.878 79.4433C161.783 79.3802 161.662 79.3802 161.557 79.354C157.7 78.9966 154.515 83.395 155.866 86.963C156.103 87.6882 156.386 88.3976 156.88 88.9809C157.29 89.3067 156.907 90.2263 156.386 89.8532Z" fill="#050505"/>
<path d="M159.528 83.8932C157.594 83.2416 161.431 78.3913 161.346 80.7718C161.304 80.9084 161.205 80.9872 161.078 81.045C160.406 81.4601 159.991 82.2852 159.749 83.0051C160.879 83.1102 161.767 80.6089 161.846 79.7155C161.325 79.0009 162.413 78.4859 162.566 79.4318C162.765 80.798 161.257 84.3661 159.528 83.8984V83.8932Z" fill="#050505"/>
<path d="M161.972 78.6548C161.662 77.8088 161.626 76.8892 161.589 75.9959C161.584 75.2917 161.515 74.4825 161.967 73.8992C162.808 72.948 164.085 74.1409 164.484 74.9764C164.826 75.649 163.954 76.5266 163.764 75.4546C163.549 75.1393 162.845 74.2092 162.456 74.6559C162.177 75.8487 162.288 77.1782 162.593 78.3606C162.729 78.7967 162.135 79.1646 161.967 78.6338V78.6548H161.972Z" fill="#050505"/>
<path d="M128.577 74.1518C128.388 73.9994 128.367 73.6841 128.504 73.4897C128.567 73.4003 128.667 73.332 128.751 73.2637C128.882 73.1638 129.008 73.064 129.14 72.9589C129.376 72.7697 129.618 72.5858 129.859 72.3966C130.348 72.0183 130.837 71.6347 131.326 71.2511C132.334 70.4576 133.333 69.6588 134.347 68.8811C135.351 68.1086 136.37 67.3572 137.379 66.5952C137.863 66.2326 138.351 65.8701 138.835 65.5075C139.282 65.1764 139.728 64.8506 140.17 64.5143C140.191 64.4985 140.212 64.4828 140.233 64.467C140.264 64.4302 140.301 64.3987 140.338 64.3777C140.338 64.3777 140.338 64.3777 140.343 64.3777C140.348 64.3777 140.359 64.3724 140.364 64.3672H140.369C140.369 64.3672 140.369 64.3672 140.375 64.3672C140.375 64.3672 140.375 64.3672 140.369 64.3672C140.369 64.3672 140.369 64.3672 140.364 64.3672C140.364 64.3672 140.364 64.3672 140.369 64.3672C140.369 64.3672 140.38 64.3672 140.38 64.3619C140.38 64.3619 140.422 64.3409 140.448 64.3409C140.695 64.3041 140.848 64.5563 140.848 64.7718C140.848 64.8559 140.827 64.9399 140.79 65.0083C140.774 65.0398 140.753 65.0661 140.727 65.0976C140.721 65.1081 140.711 65.1134 140.711 65.1186C140.674 65.1606 140.637 65.1922 140.585 65.2132C140.222 65.4812 139.875 65.7702 139.523 66.0487C139.05 66.4323 138.572 66.8054 138.089 67.1838C137.096 67.9615 136.113 68.755 135.114 69.5222C134.121 70.2842 133.123 71.0251 132.124 71.7765C131.11 72.5333 130.101 73.311 129.087 74.0677C129.013 74.1202 128.94 74.1885 128.856 74.2201C128.819 74.2358 128.782 74.2411 128.745 74.2411C128.682 74.2411 128.619 74.2201 128.561 74.1728L128.577 74.1518Z" fill="#050505"/>
<path d="M125.991 71.1553C125.823 71.0135 125.797 70.7402 125.897 70.551C125.949 70.4564 126.033 70.3934 126.117 70.3303C126.238 70.2357 126.359 70.1464 126.48 70.0571C126.732 69.8679 126.984 69.6787 127.242 69.4895C127.731 69.1217 128.219 68.7539 128.708 68.386C129.712 67.6293 130.721 66.8884 131.735 66.1422C132.481 65.5957 133.233 65.0439 133.979 64.4974C134.347 64.2294 134.709 63.9614 135.072 63.6934C135.235 63.5725 135.403 63.4517 135.571 63.3361C135.629 63.2993 135.687 63.2572 135.734 63.2204C135.923 63.0628 136.17 63.1732 136.27 63.3728C136.38 63.5935 136.338 63.9561 136.097 64.077C135.97 64.1663 135.855 64.2662 135.729 64.3555C135.492 64.5342 135.25 64.7076 135.009 64.881C134.525 65.2331 134.047 65.5852 133.569 65.9372C132.56 66.6834 131.546 67.4349 130.526 68.1706C129.801 68.696 129.071 69.2268 128.335 69.747C127.967 70.0098 127.599 70.2725 127.237 70.5405L126.695 70.9294C126.617 70.9872 126.538 71.0397 126.464 71.0923C126.391 71.1448 126.312 71.2079 126.222 71.2236C126.207 71.2236 126.186 71.2236 126.17 71.2236C126.107 71.2236 126.044 71.2026 125.986 71.1553H125.991Z" fill="#050505"/>
<path d="M20.7233 51.8337C18.8526 51.6761 16.8032 49.8789 16.4248 48.0555C16.4248 46.8363 17.4285 47.3461 18.1642 47.5668C19.4674 46.6892 20.8127 45.8747 22.1737 45.0865C22.3209 44.9919 22.5153 44.9656 22.6572 45.0865C23.4507 46.2163 23.9184 47.6929 23.9447 49.0697C23.8816 50.6777 22.2578 51.8705 20.7233 51.8337ZM20.9914 50.5988C23.6766 50.1574 23.1774 47.9819 22.3104 46.0901C21.0229 46.7628 19.7302 47.4091 18.5215 48.2131C18.3954 48.7544 18.0013 48.581 17.6072 48.5337C18.4164 49.5899 19.5883 50.6672 20.9966 50.5988H20.9914Z" fill="#050505"/>
<path d="M25.9943 51.8283C25.1115 51.5865 23.9711 50.7931 24.3337 49.7473C24.0604 49.658 23.9921 49.3112 24.0762 49.0642C24.4125 48.1183 25.7 48.0342 26.4673 48.4914C27.8756 49.1483 28.0122 52.2854 25.9943 51.8283ZM26.462 50.7931C26.4935 50.7773 26.5461 50.7615 26.5776 50.7247C26.7878 50.2308 26.4147 49.6107 25.9523 49.3953C25.6002 49.2429 24.9643 49.143 24.7646 49.5476C25.0379 50.2833 25.6843 50.7983 26.4673 50.7878L26.462 50.7931Z" fill="#050505"/>
<path d="M21.2229 54.2719C19.7883 54.0933 19.4309 51.7548 20.6869 51.0927C20.9864 50.9141 21.3174 51.0192 21.6327 51.0612C22.0637 51.0612 22.2108 51.6602 22.0269 51.9755C22.8782 52.5904 22.3054 54.3403 21.2229 54.2667V54.2719ZM21.3858 53.263C21.4593 53.2525 21.4909 53.2315 21.5434 53.1894C21.5277 53.2052 21.5171 53.2157 21.5014 53.2315C21.5854 53.1632 21.6538 53.0528 21.6696 52.953V52.9635C21.6696 52.9792 21.659 52.995 21.6538 53.0055C21.7168 52.7375 21.6958 52.4485 21.8219 52.1963C21.4541 52.3592 20.9076 51.9388 20.8866 52.6166C20.8971 52.8058 20.9706 53.0055 21.1125 53.1369C21.102 53.1264 21.0915 53.1159 21.081 53.1053C21.081 53.1053 21.0757 53.0948 21.0652 53.0896C21.1546 53.1789 21.2597 53.263 21.391 53.2577L21.3858 53.263Z" fill="#050505"/>
<path d="M23.1616 48.024C22.7202 47.9189 22.7412 47.199 23.1564 47.0676C23.4717 46.7681 23.6872 46.3739 23.9184 46.0114C24.5595 44.7239 25.9888 43.9357 26.961 45.386C26.2568 45.5279 25.3897 45.675 24.9168 46.2899C24.3755 46.8626 24.0182 47.9189 23.1616 48.0292V48.024Z" fill="#050505"/>
<path d="M19.9926 48.712C20.618 48.402 21.6743 48.5912 22.3364 48.6752C21.6953 49.0694 21.0016 49.4845 20.2397 49.5476C19.856 49.5476 19.7456 48.9485 19.9926 48.712Z" fill="#050505"/>
<path d="M13.4033 51.0399C13.2825 50.6458 13.6923 50.5197 13.8868 50.2937C14.4438 49.5002 14.4175 48.4019 15.1638 47.724C15.5999 47.3142 16.2147 47.0777 16.7717 46.9043C17.0765 46.6258 17.1711 46.2106 17.4864 45.9426C17.891 45.5695 18.4481 45.4592 18.9789 45.3909C18.6951 45.8165 18.2011 46.1686 17.9279 46.6205C17.7124 46.9989 17.5495 47.414 17.2237 47.7135C16.7087 48.0288 16.0256 48.0709 15.5789 48.5333C14.9273 49.332 14.964 50.5827 14.0759 51.2185C13.85 51.413 13.4611 51.3709 13.4033 51.0451V51.0399Z" fill="#050505"/>
<path d="M8.90451 49.6209C8.76263 49.5525 8.61548 49.4475 8.56819 49.2898L8.54721 49.2267C8.74165 48.9535 9.07269 48.8957 9.38273 48.8379C10.975 48.2546 11.3743 46.4154 11.9787 45.0281C12.1889 44.5289 12.5042 44.0664 12.9719 43.7774C13.5131 43.3886 14.3224 43.3886 14.685 42.7685C15.1369 42.0275 15.0003 40.903 15.8726 40.4826C16.2773 40.3092 16.7082 40.4879 17.1338 40.4511C17.0498 40.9818 16.519 41.2341 16.0986 41.4653C15.5941 42.4059 15.5626 43.7722 14.3802 44.2136C13.8863 44.4343 13.3187 44.5814 12.9771 45.0333C11.9839 46.7044 11.3271 49.7365 8.90451 49.6156V49.6209Z" fill="#050505"/>
<path d="M24.7485 14.0245C24.6487 13.9562 24.5856 13.8564 24.5908 13.7355C24.5908 13.6987 24.5908 13.6567 24.6013 13.6199C24.6224 13.5358 24.6591 13.457 24.7117 13.3887C24.801 13.2784 24.9429 13.2048 25.0533 13.1207C25.316 12.9315 25.5788 12.7476 25.8468 12.5584C26.3565 12.2011 26.8662 11.8385 27.3707 11.4759C28.3849 10.7507 29.3939 10.0203 30.4029 9.28988C31.044 8.82745 31.685 8.37027 32.3314 7.9131C32.6309 7.7029 32.9305 7.49271 33.2248 7.28777C33.3404 7.20894 33.4508 7.13012 33.5664 7.04604C33.6032 7.01977 33.6452 6.99875 33.6767 6.96722C33.8764 6.79381 34.1496 6.90943 34.26 7.11962C34.3178 7.22997 34.3388 7.36135 34.3231 7.48221C34.3073 7.60833 34.2495 7.77121 34.1391 7.84478L34.1128 7.86056C33.9815 7.9499 33.8501 8.03922 33.745 8.11279C33.4718 8.30196 33.1985 8.49114 32.9673 8.65404L32.941 8.6698C32.8727 8.7171 32.8044 8.7644 32.7466 8.80644C30.7024 10.2253 28.6214 11.5863 26.5667 12.9946C26.2146 13.2363 25.8678 13.478 25.5157 13.7145C25.4421 13.7671 25.3686 13.8144 25.3003 13.8669C25.2583 13.8932 25.2214 13.9194 25.1794 13.9457C25.1373 13.9772 25.09 14.014 25.0427 14.0298C25.0007 14.0456 24.9482 14.0561 24.8957 14.0561C24.8431 14.0561 24.7958 14.0456 24.7538 14.014L24.7485 14.0245Z" fill="#050505"/>
<path d="M23.1459 11.6561C22.9304 11.4196 23.0723 11.036 23.3719 10.9677C25.1533 9.64345 26.9662 8.45585 28.8528 7.29978C29.9353 6.61139 31.0126 5.94401 32.011 5.22935C32.526 4.87727 32.8676 5.78637 32.4578 6.0859C29.7672 8.0197 26.8191 9.56463 24.0655 11.3986C23.7975 11.53 23.4349 11.9451 23.1511 11.6561H23.1459Z" fill="#050505"/>
<path d="M120.993 37.7776C120.804 37.6409 120.731 37.3782 120.762 37.1417C119.459 35.9278 118.187 34.6614 116.889 33.4318C116.632 33.6209 116.385 33.8206 116.148 34.0361C115.933 34.2515 115.723 34.4722 115.528 34.7087C115.365 34.9189 115.218 35.1343 115.076 35.3603C114.966 35.5495 114.866 35.7439 114.771 35.9383C114.672 36.1801 114.577 36.4218 114.498 36.6688C114.435 36.8842 114.383 37.1049 114.351 37.2415C114.299 37.5463 114.256 37.8459 114.246 38.0666C114.235 38.282 114.23 38.4975 114.246 38.7182V38.776C114.262 39.0072 114.293 39.2332 114.33 39.4591C114.377 39.7061 114.435 39.9478 114.504 40.1896C114.582 40.447 114.677 40.694 114.782 40.941C114.877 41.1459 114.976 41.3456 115.092 41.5453C115.103 41.5663 115.113 41.5821 115.124 41.5979C115.124 41.5979 115.129 41.5979 115.134 41.5979C117.677 41.8081 119.506 39.5379 120.999 37.7723L120.993 37.7776ZM126.842 38.8601C126.858 38.6078 126.858 38.3608 126.853 38.1979C126.837 37.951 126.811 37.7092 126.774 37.4675C126.732 37.2521 126.679 37.0314 126.621 36.8159C126.606 36.7634 126.59 36.7108 126.579 36.6688C126.516 36.4533 126.432 36.2431 126.343 36.0329C126.233 35.8017 126.117 35.5705 125.991 35.3498C125.823 35.0818 125.649 34.8296 125.455 34.5826C125.297 34.3934 125.134 34.2147 124.961 34.0361C124.698 33.7891 124.42 33.5631 124.125 33.3529C123.836 33.1585 123.537 32.9904 123.227 32.838C122.896 32.6908 122.565 32.5647 122.218 32.4649C121.86 32.3755 121.503 32.3072 121.14 32.2652C120.788 32.2389 120.442 32.2231 120.09 32.2494C120.047 32.2494 120.005 32.2599 119.963 32.2599H119.948C119.601 32.302 119.27 32.365 118.939 32.4543C118.571 32.5594 118.219 32.6961 117.872 32.8537C117.846 32.8642 117.825 32.88 117.798 32.8905C118.439 33.5211 120.447 35.3078 121.514 36.6267C121.771 36.6583 122.018 36.7686 122.149 37.0156C122.202 37.1417 122.228 37.2626 122.244 37.3834C123.201 38.571 124.204 39.7429 125.35 40.7518C125.775 40.983 125.534 41.8764 125.024 41.6241C123.936 40.6572 122.843 39.559 122.023 38.3346C121.713 38.9074 121.177 39.4381 120.846 39.9268C119.643 41.3194 117.998 42.8643 116.075 42.859C116.322 43.0692 116.569 43.2637 116.826 43.4476C117.099 43.621 117.373 43.7734 117.657 43.9153C118.014 44.0729 118.376 44.2095 118.692 44.3041C119.133 44.4197 119.569 44.4933 120.021 44.5406C120.352 44.5616 120.683 44.5721 121.014 44.5406C121.088 44.5406 121.162 44.5248 121.235 44.5196C121.624 44.467 122.008 44.3935 122.323 44.3041C122.622 44.2095 122.917 44.1044 123.211 43.9783C123.579 43.8049 123.931 43.6 124.267 43.374C124.488 43.2111 124.698 43.0377 124.903 42.8538C125.108 42.6541 125.302 42.4491 125.486 42.2337C125.649 42.0235 125.802 41.8081 125.949 41.5874C126.075 41.3719 126.196 41.1512 126.306 40.9252C126.422 40.6677 126.516 40.405 126.6 40.1317C126.653 39.9531 126.7 39.7744 126.732 39.6273C126.779 39.3698 126.811 39.1123 126.837 38.8548L126.842 38.8601ZM135.434 43.868C135.608 44.5616 135.04 45.2027 134.709 45.7702C134.078 46.8055 132.969 47.888 131.656 47.4308C129.774 46.5848 128.587 44.693 127.326 43.1375C127.189 42.9484 127 42.7487 126.979 42.507C126.974 42.4702 126.974 42.4281 126.979 42.3914C126.9 42.2915 126.826 42.1917 126.774 42.0971C126.48 42.6173 126.101 43.085 125.691 43.5159C125.302 43.931 124.856 44.2884 124.372 44.5826C125.733 46.6478 128.723 50.2632 126.585 52.3756C126.17 52.8959 125.308 53.4109 124.745 52.8171C124.157 52.2811 124.672 50.7729 125.471 51.5611C127.263 50.4576 125.46 48.2926 124.877 46.9211C124.52 46.2537 124.12 45.5811 123.768 44.9242C123.384 45.1186 122.985 45.2763 122.575 45.4024C121.955 45.5968 121.277 45.6914 120.631 45.6914H120.605C119.979 45.6914 119.343 45.6178 118.739 45.4392C118.235 45.292 117.735 45.1029 117.278 44.8454C116.795 44.5669 116.343 44.2463 115.922 43.8785C115.597 43.5947 115.302 43.2742 115.029 42.9273C114.924 42.9063 114.782 42.8117 114.745 42.7014C114.729 42.6804 114.719 42.6646 114.703 42.6436C114.656 42.6278 114.614 42.6016 114.572 42.5753C114.44 42.4386 114.383 42.2915 114.377 42.1496C114.341 42.0866 114.299 42.0183 114.262 41.9499C113.983 41.4612 113.757 40.9357 113.605 40.3945C113.284 39.2752 113.221 38.0876 113.421 36.942C113.631 35.7492 114.141 34.6351 114.861 33.6682C115.187 33.2321 115.565 32.8432 115.985 32.5016C114.609 30.962 113.452 29.2436 112.118 27.7039C112.06 27.7512 111.992 27.7933 111.929 27.8248C111.781 27.9141 111.603 27.9036 111.461 27.8248C111.319 27.8878 111.172 27.9404 111.019 27.993C110.751 28.0823 110.441 28.1348 110.163 28.1401C110.116 28.1401 110.068 28.1401 110.016 28.1401C109.764 28.1401 109.511 28.1243 109.259 28.0823C108.686 27.9929 108.15 27.767 107.646 27.4832C107.094 27.1732 106.579 26.7475 106.169 26.2641C105.749 25.7754 105.386 25.2394 105.118 24.6508C104.845 24.0465 104.661 23.4212 104.561 22.7643C104.461 22.0864 104.503 21.3823 104.65 20.7202C104.798 20.0633 105.097 19.4642 105.528 18.9493C105.733 18.7023 105.985 18.4973 106.248 18.3082C106.505 18.1243 106.821 17.9719 107.12 17.8825C107.441 17.7879 107.761 17.7301 108.092 17.7196C108.439 17.7091 108.765 17.7512 109.101 17.8142C109.727 17.9351 110.305 18.2399 110.835 18.5814C111.109 18.7548 111.356 18.9703 111.592 19.191C111.823 19.4065 112.049 19.6429 112.244 19.8952C113.037 20.9146 113.589 22.118 113.731 23.4159C113.799 24.0255 113.794 24.6666 113.652 25.2657C113.505 25.9015 113.216 26.5058 112.811 27.0155C112.806 27.026 112.796 27.0313 112.79 27.0418C113.353 27.7617 113.967 28.4501 114.488 29.1543C115.244 30.0949 115.975 31.0565 116.8 31.9131C117.105 31.7292 117.42 31.5663 117.751 31.4296C119.264 30.7938 121.014 30.7307 122.512 31.1511C123.137 31.3298 123.752 31.5768 124.304 31.9236C124.866 32.2704 125.36 32.6751 125.817 33.148C126.264 33.6052 126.632 34.1412 126.931 34.6982C127.231 35.2447 127.462 35.8437 127.604 36.4533C127.883 37.683 127.888 38.9652 127.562 40.1843C127.473 40.5206 127.357 40.8464 127.221 41.167C127.289 41.167 127.357 41.188 127.41 41.2353C127.736 41.6399 128.04 42.0813 128.298 42.5385C128.298 42.5385 128.298 42.5385 128.298 42.5437C128.587 42.9274 128.855 43.3267 129.102 43.7313C129.449 44.115 129.801 44.488 130.184 44.8296C130.815 45.3446 131.472 46.075 132.344 46.075C133.379 45.8806 134.078 44.7876 134.556 43.9573C134.635 43.4791 135.261 43.353 135.424 43.8522L135.434 43.868Z" fill="#050505"/>
<path d="M92.0229 142.654C94.5978 146.637 95.4281 152.68 91.8599 156.327C91.1295 157.021 90.2887 157.589 89.4059 158.067C87.6402 159.659 85.4699 160.699 82.9895 160.342C80.9874 160.158 79.0115 159.249 77.724 157.683C76.8517 156.553 75.312 154.725 76.5785 153.374C76.8675 153.101 77.3194 153.138 77.5191 153.474C78.8224 152.344 80.1676 151.246 81.5234 150.158C80.3148 149.149 79.1744 148.061 78.0236 146.989C77.4403 146.432 76.8465 145.881 76.3262 145.266C76.1738 145.077 76.1475 144.798 76.2894 144.593C76.7834 144.062 77.1881 145.113 77.5822 145.345C78.8591 146.59 80.1518 147.715 81.5024 148.865C80.1624 146.58 78.6174 144.472 77.2721 142.202C77.0409 141.792 76.7203 141.361 76.8149 140.862C76.8149 140.316 77.4876 140.31 77.4928 140.862C77.3299 141.692 81.2396 146.516 82.6795 149.218C82.937 149.013 83.1945 148.808 83.4467 148.597C80.7088 144.746 78.2495 140.684 75.848 136.622C75.5642 136.206 75.2279 135.476 75.7377 135.108C76.2054 134.924 76.4629 135.523 76.6626 135.844C78.6752 139.128 80.6878 142.423 82.8687 145.602C83.3626 146.333 83.8618 147.063 84.3611 147.783C84.3768 147.799 84.3874 147.814 84.3979 147.835C86.379 146.222 88.3234 144.567 90.1258 142.775C90.6093 142.491 91.0822 141.377 91.7023 141.787C91.9125 141.96 91.9808 142.244 91.9282 142.502C91.965 142.544 91.9966 142.591 92.0281 142.638L92.0229 142.654Z" fill="#050505"/>
<path d="M104.641 91.4719C104.767 91.8608 104.835 92.2864 104.793 92.6963C104.761 93.0011 104.662 93.2796 104.472 93.5161C104.299 93.7263 104.042 93.8419 103.774 93.8629C103.732 93.8629 103.69 93.8629 103.647 93.8629C103.106 93.8629 102.565 93.6002 102.129 93.3164C101.609 92.9801 101.12 92.5807 100.694 92.1288C100.473 91.8923 100.248 91.6558 100.043 91.4036C99.8271 91.1303 99.6274 90.8571 99.4277 90.5733C99.249 90.3158 99.0756 90.0373 98.9338 89.7588C98.7866 89.475 98.6447 89.1913 98.5291 88.8918C98.3137 88.3295 98.1455 87.7252 98.1981 87.1839C98.2138 87.0473 98.2349 86.9107 98.2769 86.7793C98.3084 86.6847 98.3662 86.5901 98.4398 86.5271C98.5238 86.3852 98.6395 86.2696 98.7919 86.175C98.9705 86.0646 99.1965 86.0436 99.4014 86.0646C99.7114 86.0962 100.022 86.2118 100.3 86.3484C100.668 86.5323 101.02 86.7583 101.304 86.9737C101.545 87.1576 101.782 87.3416 102.008 87.5465C102.244 87.762 102.476 87.9932 102.691 88.2244C103.106 88.6606 103.458 89.1545 103.784 89.659C104.147 90.216 104.436 90.8256 104.641 91.4614V91.4719Z" fill="#050505"/>
<path d="M66.0109 53.7892C65.8743 53.6736 65.7587 53.537 65.6431 53.4056C65.2437 52.9537 64.8759 52.4702 64.4975 52.0025C64.0876 51.4928 63.6829 50.9778 63.2836 50.4628C63.2836 50.4628 63.2783 50.4576 63.273 50.4523C63.2205 50.5417 63.1785 50.631 63.1365 50.7203C62.4481 52.549 64.2978 53.6841 66.0057 53.7944L66.0109 53.7892ZM70.5039 51.3404C70.4724 51.3036 70.4409 51.2668 70.4094 51.2301C70.3516 51.167 70.3147 51.0934 70.299 51.0146C69.8838 51.3667 69.4687 51.7135 69.0535 52.0656C68.5963 52.4492 68.1444 52.8328 67.6925 53.2217C67.5086 53.3793 67.3247 53.537 67.1355 53.6999C67.2143 53.6788 67.2931 53.6578 67.372 53.6263C68.6805 53.2374 69.6211 52.3231 70.4986 51.3404H70.5039ZM69.248 50.6205C69.7629 50.1896 70.2832 49.7639 70.7982 49.333C69.9679 47.8301 68.8749 46.4954 67.7398 45.1974C67.2773 44.6457 66.8464 44.0729 66.4366 43.4949C65.7534 43.9783 65.0755 44.4565 64.4134 44.9137C63.5148 45.539 62.6267 46.1801 61.7281 46.8054C61.9015 47.0261 62.075 47.2468 62.2011 47.4097C62.2589 47.4781 62.3114 47.5464 62.3587 47.6094L62.427 47.6988C62.4585 47.7356 62.4848 47.7723 62.5164 47.8091C62.5164 47.8144 62.5269 47.8249 62.5321 47.8301C62.5321 47.8301 62.5322 47.8354 62.5427 47.8407L62.5899 47.8984C62.8947 48.2768 63.1995 48.6552 63.5043 49.0335C63.5884 48.9967 63.6725 48.9652 63.7618 48.9442C64.1612 48.8811 64.5238 49.2174 64.4081 49.6221C64.3766 49.7482 64.3083 49.8533 64.2085 49.9111C64.24 49.9479 64.2715 49.9899 64.3031 50.0267C64.9284 50.8149 65.5485 51.6137 66.1213 52.3493C66.1633 52.4071 66.2106 52.4597 66.2369 52.5017C66.2421 52.5123 66.2527 52.5228 66.2632 52.5333C66.2684 52.5385 66.2737 52.549 66.2737 52.549C66.3578 52.6489 66.4418 52.7487 66.5312 52.8381C66.9831 52.486 67.4245 52.1181 67.8712 51.7503C68.3283 51.3772 68.7856 51.0041 69.2375 50.6257L69.248 50.6205ZM71.0872 50.6783C71.166 50.5837 71.2502 50.4944 71.329 50.405C71.3027 50.3472 71.2764 50.2842 71.2449 50.2264C71.124 50.3262 71.0032 50.4261 70.8823 50.5259C70.9454 50.5627 71.0189 50.6152 71.082 50.6783H71.0872ZM76.1635 44.8296C76.2108 44.7876 76.2529 44.7403 76.3002 44.693C76.2003 44.425 76.0847 44.1675 75.9849 43.9047C75.8693 43.621 75.7589 43.3425 75.6486 43.0587C75.6118 42.9589 75.5697 42.8643 75.5277 42.7644C75.4436 42.8327 75.3385 42.8643 75.2019 42.8538C74.545 42.5595 74.545 41.5611 74.8078 40.983C74.4767 40.1528 74.1456 39.3172 73.7988 38.4922C73.7673 38.4239 73.741 38.3556 73.7147 38.282C71.7073 39.7691 69.6631 41.2142 67.6189 42.6593C67.5716 42.6909 67.5296 42.7224 67.4823 42.7539C67.9868 43.5054 68.486 44.2621 69.0798 44.94C70.0888 46.054 71.0557 47.189 71.949 48.3766C71.97 48.3556 71.9963 48.3399 72.0173 48.3189C72.6952 47.7513 73.3784 47.1838 74.051 46.611C74.7552 46.0172 75.4751 45.4444 76.1635 44.8349V44.8296ZM75.4699 53.4266C75.9376 53.1166 76.4 52.8118 76.8677 52.507C75.9954 51.4718 75.2754 50.3105 74.4399 49.2437C74.2244 48.8969 73.8198 48.5448 73.7673 48.1244C73.3522 48.4712 72.9423 48.8128 72.5271 49.1544C72.6532 49.3278 72.7793 49.5064 72.9002 49.6904C73.1157 50.1475 72.7268 50.9358 72.1645 50.6783C71.9963 50.878 71.8229 51.0829 71.6443 51.2879C71.7861 51.456 71.9123 51.6031 72.0016 51.6767C72.648 52.4229 73.1787 53.085 73.762 53.8312C73.8882 53.9784 73.9564 54.2411 73.9249 54.4618C74.4399 54.115 74.9497 53.7734 75.4646 53.4319L75.4699 53.4266ZM90.1523 44.4933C90.3257 44.8349 90.2469 45.2658 89.9631 45.5127C89.9474 45.5232 89.9421 45.5285 89.9264 45.539C89.8896 45.5758 89.8423 45.6021 89.795 45.6231C88.8438 46.2642 87.9084 46.9211 86.9626 47.5674C85.8958 48.3031 84.829 49.044 83.7623 49.785C81.3082 51.4981 78.8594 53.2217 76.4 54.9295C75.4436 55.5916 74.4819 56.2537 73.5255 56.8948C73.4782 56.9264 73.4309 56.9526 73.3889 56.9842L73.3679 56.9999C73.3101 57.0367 73.2628 57.0682 73.2523 57.0787L73.2313 57.0945C73.1314 57.1628 73.0263 57.2311 73.0158 57.2364C70.5092 58.9127 67.971 60.5522 65.4119 62.1497C64.6919 62.6017 63.972 63.0641 63.2573 63.5265C62.9158 63.7472 62.5741 63.9679 62.2273 64.1834C62.0644 64.2832 61.9015 64.3883 61.7334 64.4776C61.6178 64.5407 61.5074 64.5933 61.3865 64.5933C61.3655 64.5933 61.3498 64.5933 61.3287 64.5933C61.045 64.5617 60.9136 64.2202 60.9451 63.9679C60.9977 63.6001 61.334 63.3951 61.6073 63.1902C61.9015 62.9747 62.201 62.7593 62.4953 62.5438C63.0996 62.1129 63.704 61.6873 64.3031 61.2564C65.5432 60.3578 66.7781 59.4434 68.0288 58.5554C69.7945 57.2942 71.5812 56.0488 73.3784 54.8297C73.1893 54.7613 73.0631 54.5827 72.9475 54.4198C72.2854 53.5685 71.6863 52.7645 71.0399 51.971C69.6263 53.4844 67.929 54.8244 65.7744 54.5984C64.2873 54.4618 62.653 53.5895 62.3167 52.0341C62.1643 51.3247 62.2957 50.3893 62.7213 49.7272C62.2273 49.0913 61.7439 48.466 61.2762 47.8722C61.2289 47.8091 61.1816 47.7461 61.1763 47.7461C60.9661 47.4833 60.7507 47.2258 60.593 47.0262C60.4774 46.9105 60.4301 46.7319 60.4301 46.5742C60.4301 46.301 60.6035 45.9752 60.9083 45.9804C61.0397 45.9804 61.1396 46.0382 61.2184 46.1276C61.2184 46.1276 61.2237 46.1381 61.2289 46.1433C61.3761 46.0382 61.5179 45.9331 61.6651 45.828C62.1748 45.4602 62.6897 45.0923 63.2047 44.7245C64.1191 44.0676 65.0283 43.416 65.9426 42.7644C65.601 42.26 65.2647 41.7502 64.9336 41.2353C64.7445 41.1827 64.5448 41.1564 64.3871 41.1407C62.8737 40.941 61.376 41.9814 60.8715 43.3845C60.9346 43.5789 60.9136 43.7891 60.7769 43.9678C60.5825 44.2043 60.2305 44.0309 60.1727 43.7681C59.2373 43.3582 57.9445 43.6578 57.2456 44.3882C56.8357 44.9715 56.573 45.6441 56.3418 46.3115C56.326 46.6268 55.9529 46.9473 55.7164 46.611C53.4988 42.2757 52.5372 38.7024 55.7742 34.509C57.913 31.4244 61.9856 29.974 65.6273 30.6519C67.8817 31.004 69.7945 32.3492 71.6232 33.6157C72.2643 33.9677 73.1156 34.9189 72.3432 35.56C71.9543 35.7544 71.5287 35.4128 71.124 35.4128C70.1151 35.3708 68.8801 35.8542 68.5438 36.8895C68.4282 37.3414 68.3073 37.8406 68.4597 38.2978C68.6121 38.4975 68.6226 38.8022 68.4755 39.0072C68.3704 39.1596 68.155 39.2489 67.9868 39.1386C67.4456 38.776 66.6835 38.9073 66.2369 39.354C65.9005 39.6588 65.806 40.1107 65.5747 40.4838C65.7061 40.4733 65.827 40.5626 65.9268 40.6625C66.3157 41.0881 66.6626 41.5505 66.9936 42.0235C67.7608 41.477 68.5281 40.9252 69.3006 40.3787C70.341 39.6378 71.3815 38.8968 72.4325 38.1769C72.6848 38.0035 72.9318 37.8353 73.184 37.6672C73.3259 37.5726 73.4782 37.436 73.6516 37.3992C73.8566 37.3571 74.0563 37.4149 74.1771 37.5884C74.2612 37.7092 74.3138 37.8564 74.3716 37.993C74.4189 38.1033 74.4662 38.2137 74.5135 38.324C74.7867 38.9651 75.0653 39.6062 75.3385 40.2473C76.4421 39.2174 78.3076 39.8953 78.9171 41.4139C79.821 43.3582 79.2535 48.5501 76.4946 48.5816C76.0269 48.5028 75.7011 48.0403 75.6171 47.5884C75.4699 47.168 75.8903 46.5479 76.3107 46.9473C76.5051 47.0997 76.3843 47.4571 76.6628 47.4518C77.7243 47.1365 77.9555 45.8175 78.1447 44.8927C78.3181 43.8942 78.4285 42.7382 77.8924 41.8291C77.4983 41.0881 76.4263 40.673 75.8115 41.3456C75.8115 41.3561 75.8167 41.3666 75.8219 41.3771C76.2266 42.3125 76.6312 43.2479 77.0306 44.1727C77.1357 44.4197 77.2198 44.6614 77.1673 44.94C77.1095 45.25 76.8993 45.4917 76.6681 45.6967C76.4421 45.9016 76.2108 46.1013 75.9796 46.2957C75.5119 46.6898 75.039 47.0787 74.5661 47.4728C74.5188 47.5096 74.4715 47.5516 74.4189 47.5937C74.4925 47.641 74.545 47.7198 74.5765 47.8249C75.1966 48.6447 75.9165 49.4119 76.5419 50.2054C76.8414 50.7624 77.656 51.3089 77.7191 51.95C79.469 50.7887 81.2241 49.6378 82.9845 48.4923C83.8305 47.9405 84.6714 47.3835 85.5174 46.8212L85.5752 46.7844C85.5752 46.7844 85.6067 46.7634 85.6225 46.7529H85.633C85.6698 46.7214 85.7014 46.7003 85.7276 46.6793C85.7854 46.6373 85.8485 46.6005 85.8905 46.569C85.901 46.5637 85.9116 46.5532 85.9221 46.548L85.9325 46.5374C85.9325 46.5374 85.9851 46.5007 86.0008 46.4901C86.19 46.3588 86.3845 46.2327 86.5001 46.1538C86.5579 46.1171 86.6157 46.075 86.6682 46.0435C86.6893 46.0277 86.7155 46.0119 86.7366 45.9962C86.7366 45.9962 86.7366 45.9962 86.7471 45.9962C86.8101 45.9541 86.8732 45.9121 86.8837 45.9016C86.9205 45.8753 86.9625 45.8491 86.9993 45.8228C87.0203 45.807 87.0414 45.7912 87.0781 45.7702C87.1149 45.744 87.1517 45.7177 87.157 45.7124C87.1727 45.7019 87.1885 45.6914 87.2043 45.6809C87.2148 45.6756 87.2253 45.6651 87.2411 45.6546C87.2621 45.6389 87.2884 45.6231 87.3094 45.6126L87.3251 45.6021C87.3461 45.5863 87.3619 45.5758 87.3829 45.5653C87.4092 45.5443 87.4355 45.5338 87.4355 45.5285L87.5458 45.4549C87.6299 45.3971 87.714 45.3446 87.7613 45.3131C87.8034 45.2815 87.8506 45.2552 87.8559 45.2447C88.1449 45.0503 88.4287 44.8611 88.6441 44.7192C88.7702 44.6352 88.8964 44.5511 88.9437 44.5196C88.9962 44.488 89.0382 44.4565 89.0908 44.425L89.1276 44.3987C89.1802 44.3672 89.2275 44.3356 89.2748 44.3041C89.3063 44.2778 89.3325 44.2568 89.3693 44.2358C89.3798 44.2305 89.3904 44.22 89.4061 44.2148C89.5112 44.1622 89.6215 44.1359 89.7424 44.157C89.9211 44.1938 90.063 44.3304 90.147 44.4933H90.1523Z" fill="#050505"/>
<path d="M134.373 118.881C134.404 119.291 134.341 119.722 134.189 120.1C134.131 120.253 134.063 120.4 133.984 120.547C133.905 120.689 133.816 120.82 133.721 120.957C133.543 121.204 133.322 121.424 133.091 121.619C132.192 122.381 131.015 122.801 129.838 122.817H129.801C129.512 122.817 129.218 122.791 128.934 122.743C128.629 122.696 128.33 122.596 128.046 122.481C127.715 122.349 127.41 122.139 127.142 121.908C126.885 121.682 126.68 121.398 126.522 121.093C126.385 120.831 126.317 120.547 126.27 120.258C126.228 119.979 126.249 119.68 126.306 119.407C126.37 119.107 126.469 118.818 126.611 118.55C126.885 118.025 127.284 117.578 127.757 117.221C128.345 116.779 129.05 116.516 129.759 116.359C129.938 116.322 130.122 116.29 130.306 116.269C130.5 116.248 130.7 116.269 130.889 116.306C130.894 116.306 130.905 116.306 130.91 116.306C130.952 116.248 131.015 116.206 131.089 116.201C131.11 116.201 131.131 116.201 131.141 116.201C131.141 116.201 131.152 116.201 131.157 116.201H131.194C131.194 116.201 131.204 116.201 131.209 116.201H131.23C131.267 116.201 131.299 116.206 131.325 116.222C131.693 116.264 132.05 116.338 132.397 116.453C132.959 116.648 133.464 116.989 133.821 117.452C133.931 117.599 134.031 117.751 134.11 117.919C134.263 118.219 134.336 118.55 134.362 118.886L134.373 118.881Z" fill="#050505"/>
</svg>
