<svg width="131" height="120" viewBox="0 0 131 120" fill="none" xmlns="http://www.w3.org/2000/svg">
<path d="M79.1537 42.0912C80.2257 42.3277 79.5636 44.3088 78.5546 43.7412C77.7927 43.1212 77.903 41.8705 78.1132 41.0087C78.2183 40.6829 78.6283 40.4727 78.9173 40.7197C79.3114 41.0455 79.1275 41.6445 79.159 42.0912H79.1537Z" fill="#050505"/>
<path d="M81.4936 47.2038C81.4989 47.6347 80.6103 48.6646 80.1581 48.2915C79.8636 48.0498 79.8952 47.4192 80.3001 47.3194C80.563 47.0987 80.7312 46.631 81.1308 46.6783C81.3727 46.7098 81.4884 46.9883 81.4936 47.2038Z" fill="#050505"/>
<path d="M79.8953 50.1417C80.2684 50.2257 80.3997 50.7354 80.2211 51.0455C80.0056 51.4501 79.4328 51.4711 79.0334 51.3818C78.3503 51.2977 76.6267 50.0471 77.3886 49.3902C77.4937 49.3377 77.5673 49.3377 77.6724 49.3534C78.1454 49.6162 78.5027 50.0733 79.0597 50.1889C79.354 50.3203 79.6062 50.1259 79.8953 50.1417Z" fill="#050505"/>
<path d="M69.4484 44.4772C68.9174 44.2512 67.871 42.5907 68.9174 42.5066C69.5536 42.8219 69.8849 43.8886 69.459 44.4772C69.459 44.4772 69.459 44.4772 69.4537 44.4772H69.4484Z" fill="#050505"/>
<path d="M71.1983 56.6469C71.4243 55.8691 71.7239 55.1177 72.0287 54.3662C70.9724 53.7724 69.9687 53.0157 69.3381 52.2012C69.3486 52.3851 69.3538 52.5691 69.3591 52.753C69.4169 54.3557 69.6849 55.969 70.5835 57.33C70.6781 57.4771 70.7779 57.6243 70.8725 57.7714C70.9829 57.3721 71.13 56.9779 71.1983 56.6469ZM74.9924 52.4062C75.1133 52.443 75.2604 52.4587 75.4076 52.4797C75.0765 52.2696 74.7612 52.0436 74.4617 51.7914C74.4302 52.0068 74.4512 52.2117 74.5037 52.4219C74.6246 52.2643 74.8295 52.196 74.9924 52.4062ZM75.3918 58.2549C75.3708 57.824 75.6178 57.3615 75.9594 57.0567C75.3235 56.568 74.6982 55.9848 74.1937 55.3384C73.7891 55.2018 73.3581 55.0283 72.9167 54.8234C72.8747 54.9338 72.8379 55.0441 72.8064 55.1545C72.4123 56.2527 72.1547 57.2722 71.934 58.402C71.934 58.6174 71.892 58.9012 71.8027 59.1324C72.2861 59.8418 72.7696 60.5618 73.2058 61.2974C73.232 61.2817 73.2583 61.2712 73.2845 61.2607C73.1637 60.2622 73.4738 59.0956 74.4512 58.6332C74.7612 58.5334 75.0817 58.5124 75.397 58.5544C75.3865 58.4808 75.3813 58.4073 75.3865 58.3442C75.3865 58.3127 75.3865 58.2811 75.397 58.2496L75.3918 58.2549ZM83.0431 46.7887C82.1235 45.7535 82.0972 44.2296 81.971 42.9211C81.8659 40.9873 81.9395 39.0272 81.4455 37.146C81.0987 35.9741 80.2895 34.8128 79.1649 34.2925C78.9232 34.1612 78.6446 34.1086 78.4134 33.9563C78.3819 35.333 78.1402 36.7361 77.683 38.0551C77.7408 38.013 77.7881 37.9815 77.8354 37.95C78.4187 37.5191 79.4592 37.7871 79.517 38.57C78.8023 38.9379 77.909 39.0955 77.394 39.7629C77.1995 39.9784 77.0156 40.4408 76.6635 40.2726C76.3745 40.7613 76.054 41.229 75.6914 41.6652C74.7087 42.7004 73.4685 43.394 72.0864 43.7041C71.4821 43.8092 70.841 43.7671 70.2892 43.4834C69.7374 43.1155 69.9477 42.3904 69.79 41.8386C69.6849 40.7403 68.6077 41.2132 68.1557 41.9174C67.4883 42.9474 67.625 44.4818 68.5446 45.3173C68.986 45.9111 69.8583 45.4382 70.2051 46.074C70.3575 46.4892 70.2524 46.7782 70.0317 46.9568C70.0212 47.0304 69.9949 47.0987 69.9687 47.1723C69.811 47.5349 69.6587 47.9027 69.5378 48.2811C69.3959 48.7698 69.3223 49.2637 69.296 49.7629C69.5588 49.7314 69.8373 49.8575 69.9792 50.1676C70.0528 50.3252 70.1316 50.4776 70.2156 50.63C70.7306 51.4288 71.5347 51.97 72.2756 52.5428C72.5384 52.7004 72.8011 52.8686 73.0691 53.0315C72.964 52.464 72.985 51.8702 73.1742 51.2659C73.2951 50.9663 73.4369 50.5985 73.6787 50.3567C73.7312 50.3462 73.789 50.341 73.8416 50.341C73.9257 50.341 74.0045 50.341 74.0833 50.3515C74.0938 50.3515 74.1043 50.3515 74.1096 50.3515C74.1464 50.3515 74.1779 50.3568 74.2147 50.362C74.2882 50.383 74.3671 50.4093 74.4407 50.4356C74.4669 50.4461 74.4932 50.4619 74.5142 50.4724C74.5142 50.4724 74.5458 50.4934 74.5615 50.4986C74.6036 50.5302 74.6456 50.5564 74.6929 50.588C74.6929 50.609 74.6929 50.63 74.6929 50.651C74.7612 50.6878 74.8243 50.7246 74.8926 50.7614C74.9399 50.7982 74.9925 50.835 75.0503 50.8612C75.0765 50.8717 75.0975 50.8822 75.1238 50.8875C75.6283 51.1713 76.1275 51.4498 76.6477 51.702C77.6619 52.1171 78.6446 52.5165 79.5958 52.9211C80.1843 52.5007 80.6625 51.9437 80.92 51.2186C81.2669 50.5564 81.3562 49.8313 81.3877 49.1009C81.5086 48.0972 82.3967 47.4771 83.0378 46.7834L83.0431 46.7887ZM90.3685 73.7095C90.3475 68.8802 90.6102 63.72 87.6201 59.7C85.7809 57.5875 83.1692 56.3263 80.7151 55.0757C80.5627 54.9758 80.405 54.876 80.2474 54.7866C80.1213 54.7078 79.9899 54.6395 79.8533 54.5764C79.827 54.5607 79.806 54.5449 79.7797 54.5291C79.7272 54.5029 79.6746 54.4714 79.6221 54.4503C79.5905 54.4346 79.559 54.424 79.5223 54.4083C79.475 54.3873 79.4277 54.3767 79.3804 54.361H79.3698C79.1439 54.2559 78.9126 54.1561 78.6867 54.051C78.6394 54.0299 78.5868 54.0089 78.5395 53.9879C78.3346 53.8986 78.1297 53.8197 77.9195 53.7409C77.3992 53.4782 76.8737 53.2364 76.343 52.9947H76.3325C76.3325 52.9947 76.3324 52.9947 76.3272 52.9947C76.3272 52.9947 76.3272 52.9947 76.3219 52.9947C76.1958 52.9317 76.0697 52.8739 75.9436 52.8108C75.9541 52.8371 75.9594 52.8633 75.9646 52.8896C75.9489 53.2364 75.602 53.5202 75.2604 53.4204C75.1658 53.3993 75.066 53.3731 74.9714 53.3363C75.1501 53.599 75.3445 53.8513 75.5179 54.0877C76.2063 55.0757 76.9315 55.8481 77.8826 56.4945C78.0508 56.6048 78.2085 56.6258 78.3819 56.6994C78.4187 56.6994 78.4555 56.7099 78.4922 56.7152C79.1018 56.8045 79.6852 56.9832 80.2369 57.2512C80.5102 57.3878 80.7887 57.5349 81.0409 57.7136C81.2038 57.824 81.3562 57.9501 81.5086 58.0762C81.5191 58.0867 81.5349 58.0972 81.5454 58.1077C81.6348 58.1813 81.6663 58.3179 81.6663 58.4283C81.8397 58.7751 81.6348 59.3111 81.1618 59.3111C81.1145 59.3111 81.0672 59.3111 81.0199 59.2953C79.6431 58.8224 78.1717 57.6348 76.6635 58.2811C76.5111 58.4388 76.4638 58.6752 76.3061 58.8276C77.1207 59.1534 77.9037 59.7367 78.5553 60.1781C78.9231 60.4777 79.1754 60.8823 79.4434 61.2659C79.5958 61.4341 79.5905 61.7336 79.4644 61.9175C79.354 62.0752 79.1176 62.1487 78.9652 62.0016C78.0981 60.9769 76.8422 60.4514 75.581 60.0783C74.8874 59.7683 74.4354 60.4041 74.5195 61.0347C74.5405 61.1608 74.5405 61.2764 74.5195 61.3815C77.0682 61.9543 79.0072 63.8671 81.0567 65.3962C84.1571 67.6769 86.7321 70.5408 89.6118 73.0789C89.8745 73.2943 90.1373 73.5203 90.3948 73.7463L90.3685 73.7095ZM107.416 87.9082C107.395 86.5367 107.416 85.3701 107.184 84.0722C107.169 84.0249 107.163 83.9723 107.158 83.925C106.118 83.3785 105.414 82.3275 104.73 81.3974C104.168 80.5409 103.464 79.7211 103.143 78.7384C102.959 77.8451 103.963 77.2303 104.299 76.4578C104.841 75.5908 105.298 74.5345 106.154 73.9722C106.218 73.6517 106.417 73.3784 106.717 73.4625C106.953 73.4941 107.153 73.5886 107.337 73.7148C107.263 73.0737 107.2 72.4273 107.127 71.7862C106.853 68.8435 106.139 66.0426 105.755 63.1419C105.734 63.0683 105.718 62.9895 105.708 62.9002C105.613 62.9002 105.519 62.9002 105.424 62.9002C104.767 62.9002 104.11 62.8634 103.459 62.7846H103.432C103.196 62.7531 102.97 62.7215 102.739 62.6795C101.998 62.6585 101.252 62.5744 100.521 62.4535C98.2405 62.0804 96.0334 61.3342 93.9577 60.32C91.8557 59.2953 89.8903 57.9869 88.0721 56.5208C87.1419 55.7693 86.2539 54.9601 85.4236 54.093C85.0452 53.6989 84.6721 53.2995 84.32 52.8791C83.9679 52.4587 83.6369 52.0278 83.3163 51.5864C83.0588 51.2343 82.8118 50.8717 82.5596 50.5092C82.5228 50.4514 82.4808 50.3935 82.444 50.3357C82.2548 51.5023 81.7924 52.6321 81.0462 53.5465C86.5744 56.0163 90.6208 58.8749 91.346 66.3789C91.6718 69.2166 91.6507 71.9754 91.5877 74.8078C94.4043 77.451 96.8899 80.4252 99.5805 83.1998C99.6751 83.2944 99.7697 83.389 99.8643 83.4889C100.038 83.5362 100.201 83.6833 100.295 83.9303C101.772 85.4699 103.149 87.1095 104.431 88.8016C105.319 89.863 106.233 90.9403 107.037 92.0753C107.458 90.7406 107.353 89.285 107.421 87.903L107.416 87.9082ZM113.338 73.9617C113.149 73.3259 113.075 72.6427 113.018 71.9701C112.981 71.8703 112.965 71.7652 112.96 71.6654C112.897 71.3501 112.834 71.0347 112.77 70.7195C111.935 71.5918 110.527 72.0437 109.423 72.0384C109.102 72.0122 108.719 71.9018 108.388 71.7179C108.467 72.3432 108.54 72.9633 108.614 73.5834C108.64 73.7988 108.672 74.0143 108.708 74.2297C108.813 74.4399 108.814 74.7237 108.735 74.9654C109.633 75.5329 110.758 75.6906 111.783 75.3858C112.77 75.1336 113.154 74.5766 113.333 73.9617H113.338ZM120.411 89.5583C121.31 87.3617 122.166 84.9392 121.872 82.5377C121.704 81.3448 120.989 80.4095 120.264 79.5057C120.18 80.0311 120.059 80.5566 119.907 81.0559C119.644 81.7075 119.534 82.7899 118.667 82.874C118.514 82.874 118.378 82.7794 118.315 82.6428C117.889 81.6969 118.64 80.7773 118.851 79.8682C119.134 78.586 119.481 76.9728 118.851 75.7589C118.562 77.8136 117.095 79.8314 115.64 81.1294C115.96 79.8945 116.218 78.6333 116.691 77.5666C117.059 76.6733 117.495 75.7484 117.479 74.7605C117.321 73.4625 116.349 72.4851 115.162 72.0857C115.503 73.1367 114.852 75.1336 114.468 75.7799C113.753 77.0148 112.292 77.6296 110.9 77.5613C110.311 77.5403 109.733 77.3984 109.197 77.1567C109.481 77.8714 109.78 78.791 108.919 78.8961C108.698 78.854 108.545 78.6701 108.435 78.4809C108.104 77.6244 107.847 76.7363 107.495 75.8798C107.468 75.8535 107.447 75.8272 107.426 75.801C107.148 75.5119 107.011 75.081 106.701 74.8235C106.296 76.2213 105.272 77.4142 104.42 78.5965C105.429 80.0942 106.412 81.6654 107.752 82.8898C107.889 82.9739 107.983 83.1368 108.036 83.3154C108.099 83.3785 108.151 83.4626 108.199 83.5677C108.761 85.7485 108.782 88.0343 108.582 90.2677C108.556 90.7826 108.335 92.501 107.805 93.2524C108.277 94.0354 108.677 94.8552 108.971 95.7275C107.253 94.9235 106.165 93.3838 105.056 91.9282C103.953 90.583 102.933 89.2902 101.903 87.9975C101.43 87.4353 100.936 86.894 100.432 86.3633C100.274 88.6439 99.2074 90.8037 98.067 92.7795C97.0896 94.4243 95.7864 95.8904 94.2099 96.9834C91.7611 98.9382 89.0128 100.42 86.1488 101.65C88.5398 103.415 90.7574 105.507 92.9592 107.498C94.6986 108.98 96.5851 110.278 98.4454 111.603C102.035 113.841 105.54 116.505 109.691 117.572C111.068 117.835 112.492 117.872 113.89 118.008C120.133 116.017 121.094 106.127 120.621 100.368C120.49 98.4548 120.49 96.5262 120.317 94.6135C120.206 93.9251 120.091 93.2734 120.091 92.6218C119.938 91.9913 119.817 91.3554 119.754 90.7248C119.807 90.6565 119.854 90.604 119.902 90.5672C119.859 90.0207 119.98 89.6266 120.395 89.553L120.411 89.5583ZM124.547 36.0267C124.584 35.2279 124.584 34.4239 124.563 33.662C124.563 33.6147 124.563 33.5726 124.563 33.5253C124.505 31.7334 124.337 29.9573 124.095 28.2494C123.89 26.9042 123.612 25.5694 123.265 24.2504C122.808 22.6004 122.261 20.9714 121.662 19.4895C121.042 17.9709 120.343 16.489 119.597 15.149C118.872 13.8615 118.068 12.6319 117.2 11.4705C116.365 10.3723 115.472 9.3213 114.515 8.34914C113.559 7.38224 112.534 6.49416 111.457 5.68491C111.451 5.68491 111.446 5.67442 111.441 5.67442L111.43 5.6639C110.548 5.01229 109.623 4.43426 108.651 3.92979C107.589 3.38854 106.496 2.9156 105.456 2.5898C105.067 2.46894 104.673 2.35859 104.278 2.264C103.727 2.264 103.143 2.10635 102.607 2.06431C101.725 2.00125 100.737 2.05379 99.8905 2.11685C99.4754 2.15889 99.0707 2.2167 98.6609 2.29027C98.1354 2.42164 97.6256 2.57404 97.1369 2.72643C97.0896 2.7422 97.0423 2.75268 97.0266 2.76319C95.9966 3.09425 94.9982 3.50415 94.0365 4.00337C92.9382 4.59191 91.8924 5.26979 90.9623 5.96343C90.0427 6.66233 89.1809 7.42428 88.4242 8.18624C87.5781 9.06381 86.7741 9.9729 86.0384 10.9451C85.4814 11.707 84.9821 12.5005 84.5197 13.3255C84.1098 14.077 83.742 14.839 83.4214 15.6272C83.1744 16.263 82.959 16.9146 82.7856 17.5767C82.6437 18.1337 82.5333 18.696 82.4545 19.2373C82.4545 19.2478 82.4545 19.2583 82.4545 19.2688V19.2898C82.3915 19.768 82.3442 20.2515 82.3337 20.6351C82.3337 20.6771 82.3337 20.7192 82.3337 20.7665C82.3284 21.1921 82.3494 21.6177 82.3809 21.9435C82.423 22.3587 82.486 22.7633 82.5543 23.0734V23.1049C82.98 23.2573 83.3847 23.4254 83.7788 23.6041C88.5818 25.6378 90.2056 29.4265 89.1021 34.4239C88.5345 37.1144 85.886 40.0204 83.1797 40.7824C83.2533 40.9558 83.3216 41.1397 83.3847 41.3131C83.5108 41.6494 83.6369 41.9857 83.7735 42.322C84.5145 44.1245 85.3763 45.8901 86.3274 47.5874C87.0526 48.8696 87.8566 50.1098 88.7289 51.2921C89.6696 52.5428 90.6943 53.7304 91.7138 54.7604C92.5598 55.6064 93.469 56.3841 94.4254 57.1093C95.4448 57.8608 96.5169 58.5439 97.6414 59.1324C98.5611 59.5949 99.5174 59.9942 100.495 60.3095L100.558 60.3306C101.535 60.6301 102.529 60.8455 103.427 60.9611C104.426 61.082 105.429 61.1135 106.422 61.0557C107.316 60.9927 108.204 60.856 109.071 60.6511C109.912 60.4409 110.732 60.1571 111.53 59.8156L111.588 59.7945C112.418 59.4267 113.217 58.9905 113.984 58.5018C114.72 58.0236 115.414 57.4929 116.065 56.9201H116.071L116.092 56.8938C116.749 56.3053 117.363 55.6695 117.863 55.0914L117.962 54.9758C118.635 54.1876 119.25 53.352 119.749 52.5901C120.296 51.7388 120.79 50.856 121.231 49.9416C121.888 48.5386 122.408 47.0725 122.865 45.743C123.249 44.6184 123.559 43.4676 123.811 42.3063C124.095 40.9347 124.274 39.5527 124.389 38.302C124.458 37.5453 124.521 36.7939 124.552 36.0372L124.547 36.0267ZM129.029 34.9494C129.103 33.5043 129.103 32.0645 129.029 30.735C129.029 30.6772 129.019 30.6194 129.019 30.5668C128.924 29.106 128.74 27.6556 128.483 26.2105C128.231 24.8811 127.91 23.5673 127.516 22.3009C127.075 20.8926 126.539 19.5158 125.939 18.1653C125.351 16.8621 124.684 15.6009 123.948 14.387C123.254 13.2677 122.503 12.1905 121.693 11.1815C121.683 11.1658 121.667 11.15 121.657 11.1343C121.646 11.1237 121.641 11.1132 121.641 11.1132C121.599 11.0607 121.557 11.0081 121.52 10.9608C120.653 9.90461 119.718 8.90091 118.724 7.96554C117.836 7.14053 116.896 6.37855 115.908 5.68491C115.897 5.6744 115.881 5.66389 115.871 5.65864C115.871 5.65864 115.86 5.65863 115.86 5.65338C115.813 5.62185 115.771 5.59032 115.724 5.55879C114.71 4.87566 113.648 4.26085 112.539 3.7301C111.583 3.28344 110.595 2.90509 109.628 2.5898C109.917 2.74745 110.196 2.91035 110.479 3.08376C113.023 4.63921 115.235 6.65181 117.137 8.93769C118.167 10.1778 119.087 11.5021 119.933 12.8736C120.742 14.1873 121.473 15.5536 122.119 16.9567C122.382 17.5242 122.624 18.1022 122.818 18.5752C123.428 20.0676 123.943 21.5915 124.331 23.0366C125.151 26.0476 125.74 29.127 125.934 32.2432C126.118 35.1806 126.045 38.1497 125.582 41.0556C125.346 42.5375 125.046 44.0036 124.668 45.454C124.463 46.2369 124.226 47.0094 123.958 47.7714C123.696 48.5018 123.38 49.2165 123.06 49.8786C122.424 51.2028 121.725 52.485 120.995 53.6148C120.306 54.6815 119.534 55.6957 118.677 56.6416C119.313 56.1529 119.923 55.6274 120.501 55.0757C121.326 54.2769 122.103 53.4256 122.823 52.527C122.855 52.4902 122.881 52.4534 122.907 52.4219C122.907 52.4219 122.913 52.4167 122.918 52.4114L122.928 52.4009C123.617 51.5181 124.237 50.588 124.799 49.6579C125.377 48.67 125.897 47.6558 126.313 46.6994C126.339 46.6416 126.365 46.5785 126.391 46.5154C126.854 45.4382 127.253 44.3399 127.595 43.2259L127.637 43.0787C128.015 41.7913 128.33 40.4881 128.541 39.2795C128.551 39.2217 128.562 39.1638 128.567 39.1113C128.803 37.7293 128.951 36.3367 129.035 34.9389L129.029 34.9494ZM130.207 30.5248C130.291 31.7807 130.333 33.0366 130.301 34.2978C130.27 35.4959 130.17 36.6888 130.012 37.8764C129.692 40.3514 129.114 42.795 128.262 45.1439C127.427 47.4613 126.318 49.6841 124.962 51.7388C123.633 53.7514 122.051 55.5959 120.222 57.1618C119.292 57.9553 118.299 58.6858 117.248 59.3164C116.223 59.9364 115.156 60.4619 114.053 60.9191C113.385 61.1924 112.702 61.4236 112.009 61.6232C111.945 61.6443 111.882 61.66 111.819 61.6758C112.65 64.4189 113.438 67.0568 114.005 69.8577C114.032 70.1204 114.121 70.4357 114.205 70.7562C115.876 70.5828 117.505 71.4289 118.351 72.895C118.598 73.3364 118.756 73.7883 118.84 74.256C119.329 74.4452 119.844 75.2439 119.965 75.596C120.28 76.4105 120.401 77.2776 120.385 78.1499C125.015 80.6197 123.401 87.1725 120.984 90.7616C121.089 91.2503 121.168 91.7443 121.221 92.2382C121.804 93.4311 121.888 94.8867 122.009 96.1952C122.251 100.268 122.886 104.424 122.14 108.471C121.163 113.873 118.152 121.098 111.446 119.816C111.241 119.753 110.994 119.742 110.768 119.706C110.537 119.69 110.306 119.658 110.075 119.611C107.048 119.143 104.294 117.667 101.751 116.032C97.3471 113.415 93.0958 110.515 89.4699 106.878C88.009 105.46 86.5114 104.072 85.1451 102.559C85.0505 102.449 84.9453 102.333 84.8508 102.207C84.0625 102.527 83.2691 102.827 82.4703 103.116C82.423 103.41 82.113 103.678 81.8187 103.547C79.4434 101.508 77.4886 98.975 75.1711 96.8573C70.284 92.1909 64.8924 85.8588 66.5424 78.6071C66.5529 78.1183 67.0206 77.5351 67.4148 78.1236C67.5672 78.4021 67.4883 78.7805 67.462 79.08C66.7894 85.6959 71.7028 91.1189 75.9856 95.5488C78.0298 97.6245 79.8585 99.9051 81.8291 102.054C84.3147 100.946 86.8424 99.9314 89.2387 98.644C91.2829 97.4721 93.1694 96.006 94.9561 94.4716C97.3577 91.9755 99.1023 88.5441 99.1338 85.0443C98.4507 84.3507 97.757 83.657 97.0791 82.9581C94.9824 80.7878 93.038 78.4704 90.8414 76.4C87.0894 73.205 83.826 69.4793 79.9374 66.4525C78.0035 64.9654 76.2116 63.0946 73.8048 62.4325C74.5143 63.8513 74.982 65.3542 74.9242 67.02C74.7034 73.6254 68.0664 78.5913 61.7079 78.2707C56.3478 78.2445 52.2594 73.5308 52.2856 68.4231C51.9441 68.7594 51.634 69.0484 51.4501 69.2639C48.3234 72.1751 44.4873 73.3469 40.2622 72.8214C34.7498 72.4431 30.8506 66.1319 32.837 61.0084C33.2048 59.8944 33.7513 58.8119 34.5396 57.9343C34.4082 57.7872 34.2978 57.619 34.2032 57.4404C32.3798 57.1041 31.4181 55.186 30.9924 53.5412C30.0991 49.4319 32.4481 45.1334 35.6169 42.6373C35.9322 42.4166 36.3315 42.4219 36.6416 42.6373C38.1918 43.5884 40.1309 43.3678 41.8808 43.4151C42.9161 43.3362 44.0354 43.6147 45.0286 43.3047C46.9992 42.2169 48.7543 40.7613 50.4359 39.2742C53.8096 36.2894 57.0992 29.4686 61.6027 28.5963C62.5486 27.8553 63.1214 26.7518 63.8991 25.8532C64.9869 24.5605 66.5109 23.725 68.0348 23.0418C70.7779 21.7544 74.1517 21.4654 77.4045 21.8647C77.4728 21.4338 77.5516 21.0029 77.6462 20.5773C77.8196 19.7628 78.0508 18.9535 78.2925 18.2231C78.9915 16.0949 80.0267 14.1033 81.2038 12.243C81.9448 11.0712 82.8118 9.98342 83.7314 8.94821C84.5985 7.9708 85.5497 7.04595 86.5482 6.19991C87.0264 5.79003 87.5361 5.4064 88.0406 5.02804C88.5661 4.63393 89.102 4.26086 89.6486 3.90878C90.7521 3.19937 91.8925 2.53723 93.0959 2.01174C95.0087 1.17621 97.0528 0.661259 99.1338 0.493102C99.4228 0.451063 99.7119 0.408997 99.9956 0.366958C100.542 0.298644 101.12 0.235596 101.688 0.246106C101.735 0.235596 101.782 0.225098 101.835 0.225098C101.851 0.225098 101.866 0.225098 101.882 0.225098C102.134 0.240862 102.387 0.261879 102.618 0.288154C102.917 0.267134 103.222 0.261881 103.522 0.256626C104.079 0.251371 104.636 0.272383 105.193 0.314422C105.718 0.356461 106.249 0.398494 106.775 0.472062C107.342 0.545631 107.899 0.661231 108.456 0.792603C109.055 0.934485 109.649 1.09213 110.238 1.28656C112.487 2.02225 114.61 3.15206 116.538 4.51308C118.509 5.89511 120.327 7.53464 121.883 9.37385C122.986 10.6771 123.99 12.0643 124.862 13.5042L124.873 13.52C126.139 15.5904 127.195 17.7922 127.999 20.0781C128.178 20.5773 128.341 21.0817 128.467 21.4916L128.493 21.5757C128.977 23.1154 129.355 24.6814 129.639 26.2421C129.907 27.6872 130.101 29.148 130.185 30.5038L130.207 30.5248Z" fill="#050505"/>
<path d="M14.4759 88.7441C14.066 88.1135 14.6073 87.5039 14.9436 86.9837C16.147 85.0026 17.4134 83.0688 18.7902 81.2033C22.8471 75.3861 27.1299 69.6898 31.7438 64.314C32.0959 64.004 32.3376 63.4575 32.8158 63.3419C33.231 63.2999 33.4779 63.7203 33.4254 64.0986C33.1416 65.013 32.1904 65.6593 31.6492 66.4423C26.226 72.6956 22.1377 79.816 17.1665 86.3951C16.6147 87.1833 16.0576 87.9821 15.4165 88.702C15.2273 89.0804 14.6914 89.1014 14.4759 88.7441Z" fill="#050505"/>
<path d="M58.8282 101.613C60.268 98.8126 63.6102 98.2871 66.306 97.2781C68.5499 96.3217 71.3612 95.0763 72.4332 92.78C72.5594 92.6171 72.7696 92.5225 72.9587 92.6381C73.4527 92.9796 73.1953 93.668 72.9956 94.1147C71.4821 97.1783 67.9297 98.5078 64.8135 99.338C62.8009 100.011 60.762 100.809 58.8282 101.613Z" fill="#050505"/>
<path d="M38.3706 102.2C33.1682 101.486 28.4544 99.0211 24.1559 96.1046C22.1537 94.917 20.2515 93.5823 18.4753 92.0689C17.0932 90.876 15.4589 89.7988 14.492 88.2328C14.2923 87.7704 14.6812 87.0084 15.2382 87.2975C15.606 87.5497 15.9266 87.865 16.305 88.112C21.2499 91.2912 26.0057 94.7962 31.2396 97.5024C33.0579 98.338 34.9286 99.0684 36.8572 99.5991C37.8136 99.9197 38.8908 99.8987 39.7947 100.361C40.152 100.603 40.4831 100.96 40.6093 101.375C40.1994 102.179 39.2009 102.395 38.3759 102.195L38.3706 102.2Z" fill="#050505"/>
<path d="M0.828611 100.552C0.744532 98.3025 2.18437 96.6052 3.82393 95.2547C6.75095 92.4801 10.4505 90.8301 13.7348 88.5652C14.5809 87.9661 15.285 87.1779 15.9471 86.4002C16.0838 86.211 16.3255 86.1217 16.5304 86.2898C16.9298 86.6366 16.6566 87.1726 16.3781 87.4984C14.4127 90.6934 11.039 92.5169 8.13299 94.7344C6.74042 95.7854 5.38462 96.9047 4.11817 98.1081C3.16702 99.1223 2.14761 100.094 0.828611 100.552Z" fill="#050505"/>
<path d="M66.5534 79.3426C65.9964 78.6385 66.9317 75.9112 67.8408 75.7798C68.2087 75.8113 68.3821 76.216 68.298 76.547C68.0983 76.9727 67.72 77.2879 67.6202 77.7766C67.431 78.2233 67.3784 80.1361 66.5534 79.3374V79.3426Z" fill="#050505"/>
<path d="M67.0626 83.415C65.9433 82.1853 66.39 80.304 66.5004 78.7959C66.8262 77.6924 66.8525 76.2998 67.9455 75.6535C67.914 75.6745 67.8824 75.7008 67.8614 75.727C68.3028 75.2961 68.6549 76.1264 68.2766 76.4207C67.9297 76.7675 67.7038 77.2194 67.6302 77.6871C67.2519 79.0376 67.0889 80.4564 67.1467 81.8542C67.1993 82.385 67.194 82.9105 67.0679 83.4097L67.0626 83.415Z" fill="#050505"/>
<path d="M67.7559 86.0691C67.3355 85.9482 67.2619 85.4647 67.1726 85.1022C66.2845 81.8546 66.0164 77.9345 68.3812 75.2545C68.8331 75.0653 69.0171 75.7275 68.7964 76.0322C67.656 77.924 67.2829 80.2099 67.5667 82.3486C67.7086 83.1 67.8505 83.8988 67.9608 84.6345C68.0291 85.0444 68.4128 86.0796 67.7559 86.0691Z" fill="#050505"/>
<path d="M67.498 85.6963C67.2458 85.5439 67.1301 85.2812 67.046 85.0132C66.7202 83.999 66.3734 83.0163 66.2578 81.9548C66.0318 79.9107 65.8899 77.5565 66.9777 75.7908C67.2825 75.6279 67.582 75.9485 67.5978 76.2427C67.6346 76.6316 67.4507 77.0205 67.3614 77.3568C66.8937 78.97 67.1669 80.7252 67.3614 82.3647C67.5295 83.2265 67.8921 83.9727 68.1128 84.8082C68.2284 85.2076 68.0445 86.0326 67.4927 85.691L67.498 85.6963Z" fill="#050505"/>
<path d="M121.866 82.5422C122.161 84.9437 121.309 87.3662 120.405 89.5627C119.99 89.6363 119.869 90.0357 119.912 90.5769C119.864 90.6137 119.817 90.6663 119.764 90.7346C119.827 91.3652 119.948 91.9957 120.101 92.6316C120.101 93.2779 120.211 93.9348 120.327 94.6232C120.5 96.536 120.5 98.4593 120.631 100.377C121.104 106.137 120.143 116.026 113.9 118.018C112.502 117.887 111.073 117.845 109.701 117.582C105.55 116.515 102.045 113.851 98.4554 111.612C96.5951 110.288 94.7086 108.99 92.9692 107.508C90.7621 105.511 88.5497 103.42 86.1587 101.659C89.0227 100.43 91.7658 98.948 94.2199 96.9931C95.7964 95.9001 97.0996 94.434 98.0771 92.7892C99.2174 90.8134 100.284 88.6536 100.442 86.373C100.946 86.909 101.435 87.4503 101.913 88.0073C102.943 89.3 103.963 90.5927 105.066 91.9379C106.175 93.3988 107.263 94.9385 108.981 95.7372C108.687 94.8702 108.287 94.0504 107.815 93.2622C108.345 92.5107 108.566 90.7924 108.592 90.2774C108.797 88.0441 108.771 85.7582 108.209 83.5774C108.161 83.4671 108.104 83.383 108.046 83.3252C107.993 83.1465 107.899 82.9836 107.762 82.8995C106.422 81.6699 105.439 80.1039 104.43 78.6063C105.282 77.4292 106.306 76.2311 106.711 74.8333C107.021 75.0855 107.158 75.5164 107.436 75.8107C107.457 75.8369 107.478 75.8632 107.505 75.8895C107.857 76.7408 108.114 77.6341 108.445 78.4907C108.555 78.6746 108.708 78.8585 108.929 78.9058C109.79 78.8007 109.486 77.8811 109.207 77.1664C109.743 77.4082 110.321 77.5501 110.91 77.5711C112.302 77.6394 113.763 77.0246 114.478 75.7897C114.861 75.1433 115.513 73.1464 115.172 72.0955C116.359 72.4948 117.337 73.4723 117.489 74.7702C117.505 75.7581 117.069 76.683 116.701 77.5763C116.228 78.6431 115.97 79.9042 115.65 81.1391C117.105 79.8412 118.566 77.8233 118.861 75.7687C119.486 76.9825 119.144 78.5958 118.861 79.878C118.65 80.787 117.894 81.7014 118.325 82.6526C118.388 82.7892 118.524 82.889 118.677 82.8838C119.544 82.8049 119.654 81.7224 119.917 81.0656C120.064 80.5611 120.19 80.0409 120.274 79.5154C120.999 80.4139 121.709 81.3546 121.882 82.5474L121.866 82.5422Z" fill="white"/>
<path d="M97.0839 82.947C97.7618 83.6459 98.4555 84.3343 99.1386 85.0332C99.1071 88.5329 97.3624 91.9696 94.9609 94.4605C93.1794 95.9949 91.2877 97.461 89.2435 98.6328C86.8472 99.9203 84.3143 100.935 81.8339 102.043C79.8633 99.8993 78.0346 97.6187 75.9904 95.5377C72.3539 91.7752 68.2603 87.2928 67.5246 81.9749C67.5246 81.9749 67.5246 81.9696 67.5246 81.9643C67.3512 80.1829 67.6402 78.3175 68.4443 76.6832C72.0597 74.7494 74.7975 71.2076 74.9394 67.0036C74.9972 65.3378 74.5243 63.8297 73.8201 62.4161C76.2216 63.0783 78.0188 64.949 79.9527 66.4361C83.8414 69.463 87.1047 73.1887 90.8568 76.3836C93.0533 78.4593 94.9977 80.7715 97.0944 82.9417L97.0839 82.947Z" fill="white"/>
</svg>
