<svg width="143" height="149" viewBox="0 0 143 149" fill="none" xmlns="http://www.w3.org/2000/svg">
<path d="M0.652016 39.439C0.42661 35.2566 0.455371 31.031 0.277925 26.839C0.162824 22.5894 -0.244831 18.3159 0.210776 14.0711C0.666382 9.44262 2.4936 4.9916 6.71396 2.61261C7.0209 2.43035 7.42855 2.19054 7.89375 1.95552C7.92253 1.94592 7.9561 1.93633 7.98968 1.92194C8.29181 1.81642 8.59394 1.71572 8.90087 1.615C8.88648 1.615 8.87211 1.62457 8.85292 1.62937C9.1167 1.55263 9.38048 1.4615 9.64425 1.39435C9.92721 1.31761 10.2149 1.23127 10.5027 1.17371C10.6945 1.13054 10.8864 1.0874 11.083 1.04423C11.3708 1.0778 11.6345 1.16413 11.8455 1.332C12.1381 1.64856 12.1285 2.32963 11.7065 2.55026C11.2077 2.74211 10.6801 2.88122 10.2006 3.13063C6.07132 5.22663 3.3329 8.47377 2.68546 13.131C1.84138 18.5269 2.20107 24.0139 2.44566 29.4434C2.48883 30.8199 2.57993 32.2013 2.66625 33.5826C2.67584 34.2829 2.68546 34.9832 2.69026 35.6882C2.69985 37.0072 2.70942 38.3214 2.7286 39.6404C2.53677 40.1584 2.12913 40.4222 1.71668 40.4222C1.26108 40.4222 0.810279 40.1057 0.652016 39.4486V39.439Z" fill="black"/>
<path d="M32.9044 2.90991C28.9095 2.90032 24.9097 2.86198 20.9148 2.72768C18.9437 2.66053 16.9726 2.5454 15.0015 2.44468C14.0615 2.39672 13.1167 2.36795 12.1767 2.33437C11.7067 2.31999 11.2415 2.3056 10.7715 2.27682C10.5461 2.26723 10.3207 2.25282 10.0953 2.22884C9.88429 2.20486 9.67806 2.17128 9.5102 2.04177C9.34714 1.91707 9.27521 1.70606 9.28001 1.49982C9.39991 1.46144 9.5198 1.42785 9.6397 1.39428C9.92265 1.31754 10.2104 1.23119 10.4981 1.17364C10.7955 1.10649 11.0928 1.03456 11.395 0.977001C11.6923 0.924241 11.9897 0.871468 12.2822 0.813912L12.2199 0.823514C12.4884 0.780347 12.7618 0.737175 13.0352 0.698804C13.227 0.670026 13.4236 0.646053 13.6155 0.617275C14.1622 0.593293 14.7137 0.569324 15.2604 0.540546C17.2939 0.425434 19.3273 0.315116 21.3656 0.238374C25.3174 0.0896873 29.2787 0.0560918 33.2401 0.0369064C37.2974 0.0177211 41.3547 0.00812486 45.412 0.00332851C49.4981 -0.00146783 53.5889 0.0033332 57.675 0.00812954C61.7275 0.0129259 65.7752 0.0081436 69.8277 0.0225326C73.9473 0.0369217 78.067 0.046498 82.1866 0.0656833C86.196 0.0848687 90.2102 0.113664 94.2195 0.113664C96.2242 0.113664 98.2288 0.113664 100.238 0.113664C101.231 0.113664 102.229 0.113664 103.221 0.113664C103.519 0.113664 103.821 0.113664 104.118 0.113664C104.602 0.118461 105.087 0.123257 105.571 0.113664C105.605 0.108868 105.643 0.104062 105.677 0.104062H105.696C105.96 0.0800806 106.185 0.190391 106.363 0.367855C106.54 0.540524 106.66 0.775542 106.717 1.02495C106.732 1.07771 106.737 1.13048 106.746 1.17844V1.18804C106.756 1.2456 106.756 1.30315 106.756 1.3607C106.756 1.70604 106.641 2.05617 106.406 2.31517C106.228 2.50702 105.96 2.64613 105.691 2.62214H105.672C105.638 2.62214 105.605 2.62214 105.571 2.61734C104.766 2.59816 103.95 2.62694 103.145 2.62694C102.123 2.62694 101.102 2.62695 100.08 2.63175C98.0322 2.63654 95.9891 2.64132 93.9413 2.64612C89.8504 2.66051 85.7644 2.70367 81.6735 2.73245C77.5539 2.76123 73.4294 2.78043 69.3098 2.80921C65.2621 2.83799 61.2096 2.84277 57.1619 2.85716C53.0854 2.87155 49.0089 2.89074 44.9324 2.89554C42.5441 2.89554 40.1557 2.90034 37.7674 2.90034C36.1464 2.90034 34.5206 2.90033 32.8996 2.89554L32.9044 2.90991Z" fill="black"/>
<path d="M7.97048 2.42072C9.03036 1.90751 10.1814 1.59095 11.342 1.3943C12.9822 1.1257 14.6463 1.25042 16.2961 1.4039C13.6776 2.25765 10.9151 3.00588 8.15272 3.23131C7.74508 3.20732 7.58681 2.59819 7.97048 2.42072Z" fill="black"/>
<path d="M9.32311 1.90263C11.9704 1.56209 14.6225 1.14481 17.2938 1.15441C17.9317 1.20717 18.6223 1.32229 19.2026 1.52373C18.1859 2.00337 17.0828 2.25757 15.9558 2.26716C13.7449 2.29594 11.5005 2.69404 9.31833 2.72282C8.93946 2.65087 8.93946 1.97938 9.31833 1.90263H9.32311Z" fill="black"/>
<path d="M9.82624 2.39195C11.7494 1.92671 13.7397 1.81159 15.7012 1.58137C18.2094 1.2792 20.7704 1.36072 23.245 1.56697C18.7609 2.61257 14.1329 2.40154 9.63919 3.19293C9.19798 3.02986 9.37542 2.42074 9.82144 2.39675L9.82624 2.39195Z" fill="black"/>
<path d="M118.012 8.3969C116.937 6.24335 115.086 4.06582 112.751 3.28401C110.631 2.75162 108.415 2.82837 106.305 2.24802C103.418 2.03698 100.468 2.21443 97.6149 1.84511C97.1401 1.83552 97.1401 0.957789 97.6149 0.948196C99.4181 0.526118 101.274 0.28151 103.135 0.204768C104.847 0.0800633 106.559 0.0129109 108.262 0.291099C110.875 0.468564 113.825 0.195171 115.892 2.11851C118.947 4.47831 120.904 8.05638 120.952 11.9462C120.956 12.0325 120.961 12.1237 120.966 12.21C120.261 12.6273 119.575 13.083 118.923 13.577C118.884 11.7975 118.741 10.0229 118.012 8.38733V8.3969Z" fill="black"/>
<path d="M111.513 2.76126C109.465 2.69411 107.417 2.59341 105.369 2.51187C104.842 2.48309 104.309 2.4543 103.791 2.34878C103.403 2.26724 103.403 1.58139 103.791 1.49985C105.436 1.23125 107.12 1.28399 108.779 1.24083C109.652 1.21205 110.53 1.20724 111.402 1.23122C111.848 1.17847 112.28 1.43748 112.314 1.90753C112.376 2.3392 112.074 2.77566 111.642 2.77566C111.599 2.77566 111.561 2.77565 111.517 2.76126H111.513Z" fill="black"/>
<path d="M4.7334 5.52395C4.7334 5.25055 4.90608 4.95318 5.17944 4.9244C9.54367 0.9914 16.819 -0.0206145 22.4158 1.22164C22.833 1.30797 23.2982 1.35593 23.6818 1.45666C21.9218 1.7972 20.1665 2.1617 18.4735 2.31039C14.1429 2.62215 9.371 3.00586 5.85084 5.78774C5.6734 5.99398 5.43841 6.11392 5.23219 6.11392C4.97321 6.11392 4.75258 5.93164 4.7334 5.52395Z" fill="black"/>
<path d="M3.87938 7.41375C2.89623 6.89094 4.32541 5.65831 4.7906 5.21704C7.74485 2.65579 11.7014 1.87876 15.4806 1.47107C18.454 1.0298 21.4898 0.833174 24.4105 1.70131C22.6648 2.26728 20.7656 2.55985 18.9096 2.59343C14.4063 2.95315 9.60085 3.21695 5.74498 5.83576C5.22223 6.22426 4.69467 6.60798 4.29662 7.13078C4.24866 7.28906 4.09999 7.42335 3.93693 7.42335C3.91774 7.42335 3.89857 7.42334 3.88418 7.41855L3.87938 7.41375Z" fill="black"/>
<path d="M120.203 132.569H120.194C120.194 132.569 120.175 132.569 120.165 132.569C119.944 132.56 119.767 132.454 119.633 132.306C119.604 132.272 119.57 132.234 119.546 132.195C119.431 132.028 119.378 131.84 119.359 131.649C119.35 131.596 119.345 131.543 119.345 131.49V131.466C119.345 131.428 119.345 131.394 119.345 131.361C119.354 131.025 119.34 130.689 119.335 130.354C119.331 129.505 119.321 128.656 119.311 127.807C119.297 126.056 119.287 124.301 119.249 122.55C119.211 120.761 119.215 118.967 119.191 117.178C119.167 115.427 119.172 113.677 119.158 111.926C119.129 108.29 119.115 104.65 119.105 101.014C119.095 97.278 119.052 93.5368 119.009 89.8005C118.966 86.1169 118.865 82.4381 118.817 78.7593C118.769 75.0325 118.702 71.3058 118.64 67.579C118.582 64.0585 118.515 60.5332 118.491 57.0079C118.472 53.8663 118.467 50.7246 118.539 47.583C118.568 46.3456 118.611 45.1033 118.654 43.8611C118.654 43.8323 118.654 43.8035 118.654 43.7747C118.88 43.7652 119.105 43.746 119.331 43.7316C119.302 43.7316 119.273 43.7316 119.244 43.7364C119.34 43.7316 119.431 43.722 119.527 43.7124L120.011 43.6788C120.064 43.6788 120.117 43.6692 120.17 43.6692C120.218 44.5374 120.266 45.4055 120.304 46.2497C120.443 49.3145 120.505 52.3794 120.558 55.4491C120.616 58.9552 120.621 62.4661 120.621 65.9674C120.621 69.6702 120.616 73.373 120.63 77.0758C120.649 80.7881 120.63 84.5005 120.635 88.2129C120.645 91.9061 120.692 95.6041 120.721 99.2972C120.75 103.019 120.822 106.741 120.865 110.468C120.908 113.95 120.937 117.432 120.971 120.914C120.99 122.723 120.98 124.536 120.995 126.344C121.009 127.898 121.023 129.457 121.038 131.011C121.038 131.131 121.038 131.255 121.038 131.38C121.038 131.418 121.043 131.457 121.043 131.5C121.043 131.51 121.043 131.519 121.043 131.529C121.052 131.816 120.932 132.138 120.721 132.349C120.587 132.493 120.405 132.589 120.184 132.589L120.203 132.569Z" fill="black"/>
<path d="M104.885 148.364C104.53 148.335 104.151 148.345 103.768 148.354C102.808 148.373 101.816 148.393 101.058 147.836C100.837 147.606 100.933 147.045 101.307 147.069C102.247 146.858 103.226 146.8 104.175 146.652C109.12 146.157 115.513 145.639 117.772 140.455C118.836 137.562 119.484 134.454 119.527 131.37C119.551 130.598 119.287 129.428 120.275 129.164C120.639 129.111 120.894 129.279 121.061 129.533C121.061 130.565 121.061 131.591 121.085 132.617C121.095 133.121 121.109 133.62 121.133 134.119C121.109 134.296 121.081 134.478 121.052 134.656C120.395 137.879 119.896 141.246 117.748 143.817C114.827 147.232 110.026 148.388 105.652 148.388C105.393 148.388 105.139 148.388 104.88 148.378L104.885 148.364Z" fill="black"/>
<path d="M119.993 135.514C119.499 133.716 119.518 131.855 119.374 130.018C119.436 129.404 118.923 128.296 119.676 128.003C120.501 127.951 120.213 129.538 120.333 130.085C120.458 131.917 120.492 133.74 119.998 135.519L119.993 135.514Z" fill="black"/>
<path d="M119.632 135.184C119.277 133.826 119.364 132.43 119.512 131.049C119.556 130.67 119.589 130.286 119.632 129.912C119.671 129.773 119.771 129.634 119.93 129.634C120.481 129.754 120.198 130.689 120.237 131.102C120.203 132.483 120.198 133.898 119.627 135.188L119.632 135.184Z" fill="black"/>
<path d="M119.839 135.893C119.517 134.095 119.316 132.219 119.46 130.406C119.613 129.96 120.179 130.152 120.155 130.584C120.304 132.354 120.501 134.186 119.844 135.898C119.844 135.898 119.844 135.898 119.839 135.898V135.893Z" fill="black"/>
<path d="M119.594 136.095C119.532 134.066 119.417 132.114 119.465 130.095C119.479 129.903 119.623 129.697 119.839 129.74C119.954 129.759 120.05 129.864 120.088 129.97C120.251 130.694 120.198 131.452 120.251 132.191C120.323 133.524 120.078 134.853 119.599 136.1C119.599 136.1 119.599 136.1 119.599 136.095H119.594Z" fill="black"/>
<path d="M119.752 130.848C119.704 129.327 119.493 127.788 119.628 126.267C119.695 125.907 120.169 125.898 120.237 126.267C120.352 127.433 120.481 128.584 120.568 129.749C120.697 131.759 121.085 134.009 119.987 135.798C119.719 134.157 119.896 132.488 119.752 130.848Z" fill="black"/>
<path d="M119.537 129.198C119.503 128.718 119.489 128.258 119.489 127.778C119.489 127.601 119.604 127.39 119.8 127.39C119.997 127.39 120.112 127.601 120.112 127.778C120.088 128.31 120.246 128.824 120.304 129.342C120.438 131.582 120.759 134.028 119.589 136.037C119.22 133.773 119.704 131.476 119.541 129.198H119.537Z" fill="black"/>
<path d="M119.614 134.79C119.254 133.855 119.46 132.79 119.556 131.845C119.599 131.102 119.575 130.358 119.575 129.61C119.599 128.867 119.527 128.075 119.638 127.342C119.753 126.953 120.232 126.991 120.314 127.38C120.4 128.886 120.414 130.406 120.429 131.912C120.414 132.925 120.309 133.994 119.623 134.79C119.623 134.79 119.623 134.79 119.618 134.79H119.614Z" fill="black"/>
<path d="M119.589 135.649C119.134 134.474 119.402 133.347 119.513 132.152C119.599 130.8 119.513 129.447 119.56 128.09C119.57 127.768 119.589 127.111 120.059 127.217C120.481 127.452 120.217 128.095 120.309 128.478C120.424 129.965 120.496 131.409 120.481 132.886C120.491 133.884 120.323 134.915 119.594 135.654L119.589 135.649Z" fill="black"/>
<path d="M119.848 135.759C119.637 133.5 119.412 131.188 119.647 128.943C119.767 128.512 119.522 126.459 120.227 126.742C120.385 126.838 120.424 127.044 120.381 127.198C120.194 130.051 120.539 132.968 119.853 135.769C119.853 135.769 119.853 135.769 119.853 135.764L119.848 135.759Z" fill="black"/>
<path d="M119.484 129.016C119.474 128.843 119.503 128.661 119.642 128.55C121.105 127.807 119.436 135.275 119.273 135.951C119.115 133.62 119.278 131.327 119.484 129.016Z" fill="black"/>
<path d="M17.3369 148.124C17.2505 147.932 17.1642 147.736 17.0683 147.549C16.982 147.376 16.8861 147.208 16.7949 147.04C16.7758 147.007 16.7566 146.973 16.7422 146.935C17.3081 146.935 17.874 146.93 18.4447 146.925C22.4876 146.915 26.5305 146.887 30.5782 146.877C34.7027 146.867 38.8223 146.853 42.9468 146.839C47.1527 146.829 51.3539 146.805 55.5598 146.781C59.6363 146.757 63.7176 146.757 67.7941 146.757C71.8706 146.757 75.8128 146.738 79.8221 146.738C83.8315 146.738 87.9319 146.752 91.9844 146.757C95.8499 146.762 99.7153 146.752 103.576 146.709C103.902 146.709 104.233 146.7 104.559 146.695C104.713 146.695 104.871 146.695 105.024 146.695C105.072 146.685 105.12 146.676 105.168 146.676C105.173 146.676 105.183 146.676 105.192 146.676H105.245C105.365 146.676 105.475 146.714 105.571 146.781C105.59 146.791 105.609 146.805 105.624 146.82C105.816 146.963 105.907 147.208 105.921 147.448C105.94 147.736 105.849 148.057 105.614 148.225C105.595 148.239 105.581 148.249 105.561 148.258C105.475 148.316 105.379 148.354 105.274 148.354C105.235 148.354 105.197 148.359 105.159 148.359C105.111 148.359 105.063 148.354 105.02 148.34C104.856 148.34 104.693 148.34 104.526 148.34C104.43 148.34 104.329 148.34 104.233 148.34C103.835 148.34 103.437 148.335 103.039 148.335C102.099 148.335 101.154 148.335 100.214 148.335C98.2622 148.335 96.3055 148.326 94.3536 148.335C90.2963 148.364 86.2438 148.412 82.1865 148.436C78.1915 148.455 74.1966 148.469 70.1968 148.489C66.1155 148.508 62.0343 148.546 57.953 148.556C53.7614 148.561 49.5746 148.556 45.383 148.565C41.2682 148.575 37.1534 148.585 33.0337 148.604C28.9428 148.623 24.852 148.623 20.7611 148.633C19.7012 148.633 18.6413 148.642 17.5815 148.642C17.5047 148.465 17.4184 148.287 17.3321 148.11L17.3369 148.124Z" fill="black"/>
<path d="M55.301 105.101C55.1091 104.717 54.8981 104.334 54.6631 103.979C56.3848 103.964 58.1065 103.95 59.833 103.935C64.7728 103.897 69.7125 103.835 74.6523 103.792C79.5009 103.748 84.3495 103.691 89.1981 103.638C93.9939 103.585 98.7946 103.504 103.59 103.465C108.329 103.422 113.067 103.374 117.805 103.36C117.897 103.36 117.988 103.36 118.079 103.36C118.237 103.36 118.391 103.36 118.549 103.36C118.578 103.36 118.606 103.355 118.635 103.355C118.654 103.355 118.678 103.355 118.702 103.355H118.717C118.755 103.355 118.798 103.36 118.841 103.365C119.163 103.441 119.374 103.772 119.402 104.108C119.436 104.501 119.23 105.005 118.793 105.072C118.726 105.082 118.654 105.082 118.587 105.082C118.558 105.082 118.53 105.082 118.501 105.077C118.434 105.077 118.367 105.077 118.299 105.077L117.47 105.087C116.913 105.096 116.357 105.101 115.805 105.106C114.621 105.12 113.436 105.125 112.252 105.134C109.883 105.149 107.509 105.173 105.14 105.192C100.339 105.23 95.5382 105.23 90.7328 105.254C85.865 105.274 80.9972 105.293 76.1294 105.331C71.2136 105.37 66.293 105.389 61.3725 105.422C59.411 105.437 57.4495 105.451 55.488 105.47L55.3106 105.106L55.301 105.101Z" fill="black"/>
<path d="M0.795811 51.5353C0.786219 47.9812 0.762231 44.4319 0.78621 40.8778C0.795802 39.6116 0.814978 38.3502 0.838957 37.0887C0.858141 36.0719 0.867748 35.0599 0.944481 34.0431C0.958869 33.8512 1.11235 33.645 1.31377 33.6497C1.52479 33.6497 1.65905 33.856 1.68303 34.0479C1.8365 35.4148 1.89404 36.7961 1.97557 38.1679C2.07629 39.8946 2.15784 41.6213 2.23457 43.348C2.39763 47.0412 2.53671 50.7391 2.65661 54.4323C2.70936 56.111 2.7621 57.7898 2.81965 59.4685C2.70455 59.5596 2.59904 59.6507 2.48873 59.7514C2.16262 60.0584 1.84609 60.4181 1.59191 60.8067C1.34732 61.0321 1.10753 61.2671 0.877332 61.5069C0.838965 58.1831 0.800602 54.8592 0.79101 51.5353H0.795811Z" fill="black"/>
<path d="M1.41908 58.7777C1.34235 55.4539 1.31838 52.1252 1.28481 48.8014C1.25603 45.4103 1.24642 42.0193 1.23203 38.6283C1.21765 35.1701 1.16489 31.7216 1.23203 28.2634C1.2656 26.4935 1.29439 24.7285 1.32796 22.9586C1.36153 21.1744 1.4095 19.3901 1.43348 17.6011C1.44307 16.7665 1.43348 15.9272 1.46225 15.0974C1.47185 14.8912 1.57734 14.6514 1.80274 14.6082C2.04253 14.565 2.23916 14.8048 2.24875 15.0303C2.29671 15.8696 2.30153 16.7138 2.3303 17.558C2.36387 18.4405 2.40223 19.323 2.4406 20.2055C2.51733 22.0042 2.59408 23.798 2.66122 25.5966C2.64683 26.4648 2.64682 27.3329 2.64682 28.2058C2.64682 29.4481 2.62762 30.6951 2.63722 31.9374C2.64681 33.1844 2.6756 34.4315 2.68039 35.6785C2.68998 37.0023 2.69958 38.3213 2.71877 39.6403C2.76673 42.2687 2.81468 44.8971 2.86744 47.5207C2.86744 47.4632 2.86744 47.4104 2.86744 47.3576C2.9154 49.9189 2.92499 52.4754 2.95856 55.0366C2.97774 56.4563 3.01131 57.876 3.04488 59.2958C2.84825 59.4349 2.66122 59.5835 2.48377 59.7514C2.15766 60.0584 1.8411 60.4181 1.58692 60.8066C1.54856 60.845 1.50542 60.8833 1.46225 60.9217C1.44787 60.207 1.43346 59.4876 1.41428 58.7729L1.41908 58.7777Z" fill="black"/>
<path d="M1.26091 43.065C1.22255 41.8707 1.17941 40.6812 1.16502 39.4869C1.02594 39.3382 1.03074 39.0888 1.16502 38.9353C1.16502 38.6715 1.19377 38.2159 1.55825 38.2542C1.7405 38.2878 1.81725 38.4749 1.82205 38.6427C1.80287 40.096 1.91315 41.5493 1.92274 43.0026C1.92754 43.2616 1.75488 43.4103 1.58703 43.4103C1.43836 43.4103 1.28969 43.3 1.26571 43.065H1.26091Z" fill="black"/>
<path d="M1.65448 43.9091C1.47224 43.3719 0.321244 37.4916 1.42429 38.0144C1.55858 38.0911 1.60654 38.2638 1.60654 38.4125C1.78878 40.2399 1.84152 42.0913 1.65448 43.9139V43.9091Z" fill="black"/>
<path d="M60.6386 65.4351C60.0056 65.4351 59.6315 64.7588 59.6315 64.1929C59.6315 63.9243 59.6123 63.6509 59.6027 63.3823C59.5787 62.6341 59.5596 61.881 59.5452 61.1328C59.5164 59.5068 59.5404 57.8761 59.5452 56.2549C59.5548 54.581 59.5883 52.9023 59.5787 51.2284C59.5691 49.4345 59.5644 47.6407 59.6267 45.8469C59.6555 45.0075 59.7034 44.1729 59.761 43.3336C59.7849 42.9643 59.8089 42.5949 59.8425 42.2256C59.8713 41.8899 59.9096 41.487 60.1111 41.2088C60.3413 40.8874 60.7585 40.873 60.9935 41.1992C61.2237 41.5206 61.2525 41.9714 61.2861 42.3503C61.3244 42.7772 61.3532 43.2041 61.382 43.6309C61.4539 44.5998 61.5067 45.5735 61.5355 46.5423C61.5882 48.3122 61.5882 50.0772 61.5978 51.8471C61.6122 55.1278 61.7369 58.4085 61.6889 61.6844C61.6793 62.3031 61.665 62.9218 61.6506 63.5358C61.6458 63.7468 61.6314 63.9579 61.6314 64.1641C61.6314 64.7349 61.2909 65.4255 60.6434 65.4303H60.6338L60.6386 65.4351Z" fill="black"/>
<path d="M52.0253 55.2237C51.8334 54.7537 52.0445 54.2692 52.2411 53.8472C52.4185 53.4682 52.6055 53.099 52.8022 52.7296C53.1715 52.039 53.56 51.3531 53.8717 50.8159C54.5767 49.588 55.2912 48.3649 56.0346 47.1563C56.9074 45.7365 57.8571 44.3648 58.7779 42.9739C59.032 42.5901 59.291 42.2064 59.55 41.8227C59.6411 41.6884 59.7418 41.5541 59.7754 41.5062C59.8905 41.3095 60.0343 41.1368 60.2502 41.0505C60.5139 40.945 60.8065 40.9978 61.0271 41.1704C61.4731 41.5158 61.617 42.2736 61.334 42.7676C61.334 42.7676 61.3244 42.7916 61.3196 42.8012C61.3004 42.83 61.2861 42.8587 61.2717 42.8875C61.2237 42.9739 61.171 43.0602 61.171 43.0602C60.701 43.89 60.2166 44.7053 59.761 45.5015C58.9505 46.9117 58.116 48.3026 57.2383 49.6696C56.5238 50.7871 55.7804 51.8903 55.0227 52.9838C54.6534 53.521 54.2793 54.0486 53.9245 54.5235C53.7182 54.7921 53.5168 55.0654 53.2866 55.3148C53.1667 55.4491 53.042 55.5547 52.8837 55.6314C52.807 55.6698 52.7255 55.689 52.6487 55.689C52.3802 55.689 52.1356 55.4731 52.0253 55.2141V55.2237Z" fill="black"/>
<path d="M68.6574 56.9408C68.3744 56.936 68.0963 56.7633 67.9524 56.5187C67.9524 56.5187 67.9524 56.5091 67.9524 56.5139C67.3146 55.4587 66.7102 54.3843 66.106 53.31C65.4441 52.1301 64.7871 50.9501 64.1397 49.7655C63.569 48.7198 63.0223 47.6695 62.4851 46.6095C61.9432 45.5447 61.3821 44.4799 60.9744 43.4919C60.8018 43.0842 60.5764 42.7005 60.4037 42.2928C60.2838 42.005 60.1783 41.7028 60.2119 41.3959C60.2167 41.3287 60.231 41.2568 60.255 41.1896C60.255 41.18 60.2646 41.1656 60.2694 41.1512C60.2838 41.1225 60.2982 41.0937 60.3126 41.0649C60.3893 40.921 60.538 40.7723 60.7154 40.7579C61.1135 40.7196 61.3485 41.0649 61.5595 41.3479C61.7993 41.674 61.9767 42.0433 62.2117 42.3743C62.6098 42.9355 62.9743 43.5302 63.334 44.1154C64.0821 45.3432 64.8207 46.5807 65.5305 47.8373C66.1923 49.0076 66.8445 50.1827 67.4872 51.3626C68.1298 52.5473 68.7773 53.732 69.3912 54.9263L69.4487 55.051C69.7221 55.5546 69.7029 56.2262 69.2904 56.6578C69.1274 56.8209 68.9116 56.936 68.6814 56.936H68.6718L68.6574 56.9408Z" fill="black"/>
<path d="M63.967 49.0267C62.8784 47.3288 61.8473 45.607 60.8353 43.8803C60.6435 43.6309 60.6483 43.1272 61.0368 43.0889C61.5547 43.2232 61.7705 44.0002 62.0487 44.4175C62.8064 45.8995 63.4203 47.4727 63.9718 49.0315L63.967 49.0267Z" fill="black"/>
<path d="M55.3874 73.0469C53.33 72.9798 51.2822 72.8743 49.2391 72.644C47.5078 72.481 45.3449 72.0445 44.6878 70.1979C43.9445 67.5647 43.815 64.7588 43.7095 62.0345C43.7766 61.1472 44.8317 60.5669 45.4072 61.4158C45.6422 61.7563 45.7381 62.188 45.8532 62.5861C46.4671 64.5766 46.5246 66.6774 46.8268 68.7254C47.0906 69.9053 49.9824 69.7806 50.9992 69.9917C56.5959 70.5097 62.2119 70.2747 67.8183 70.2363C74.8682 70.3514 75.6979 70.8646 75.391 63.3104C75.4293 62.1544 74.7099 59.9913 76.3741 59.7467C77.9711 59.9577 77.362 62.1592 77.5922 63.2912C77.7649 68.9221 77.6019 73.0229 70.7198 72.7591C68.5185 72.74 66.3267 72.8359 64.1302 72.9318C62.116 73.023 60.0969 73.1093 58.0779 73.1093C57.181 73.1093 56.2794 73.0901 55.3778 73.0469H55.3874Z" fill="black"/>
<path d="M55.0898 119.97C55.0898 119.643 55.1091 119.317 55.1138 118.996C55.1138 118.703 55.1138 118.411 55.1138 118.118C55.2242 118.008 55.3344 117.897 55.4399 117.782C55.7277 117.49 56.0106 117.192 56.284 116.89C56.2984 116.957 56.3128 117.025 56.3224 117.101C56.3224 117.931 56.9315 120.747 55.7661 120.804C55.3344 120.804 55.0946 120.348 55.0946 119.97H55.0898Z" fill="black"/>
<path d="M57.3345 119.912C57.8285 119.13 59.1521 118.713 59.1761 117.638C58.898 117.26 58.3225 117.61 58.0395 117.821C57.7997 117.945 57.5263 117.821 57.4352 117.562C57.2722 117.082 57.6175 116.66 57.9964 116.406C60.2984 115.044 61.1088 118.19 59.6365 119.634C59.7228 119.643 59.8188 119.639 59.9099 119.634C60.1833 119.634 60.4614 119.624 60.6485 119.845C61.013 120.243 60.8499 121.073 60.2456 121.106C60.0058 121.073 59.6845 121.087 59.3344 121.097C59.1473 121.106 58.9507 121.111 58.7589 121.111C57.8716 121.111 57.066 120.953 57.3393 119.907L57.3345 119.912Z" fill="black"/>
<path d="M61.5836 120.176C61.2096 119.677 61.0369 119.087 61.0129 118.473C61.0033 118.065 61.0513 117.672 61.1664 117.322C61.1664 117.303 61.176 117.288 61.1808 117.274L61.1904 117.255C61.2863 116.981 61.4206 116.722 61.6029 116.497C61.6988 116.382 61.7994 116.281 61.9145 116.185C62.068 116.056 62.2407 115.989 62.3654 115.969C62.4421 115.95 62.5236 115.931 62.6052 115.917C62.6771 115.869 62.7586 115.84 62.8258 115.835H62.8546C62.8546 115.835 62.8833 115.835 62.9025 115.835C62.9121 115.835 62.9217 115.835 62.9313 115.835C63.1183 115.845 63.2957 115.883 63.4732 115.96C63.8041 116.099 64.0631 116.368 64.2597 116.66C64.6002 117.169 64.7249 117.826 64.7106 118.425C64.701 118.775 64.6338 119.111 64.5283 119.442C64.3077 120.051 63.9 120.66 63.243 120.838C63.1279 120.867 63.0128 120.881 62.8929 120.881C62.3798 120.881 61.9002 120.593 61.5933 120.181L61.5836 120.176ZM62.7778 117.145C62.7778 117.145 62.7634 117.154 62.7586 117.159C62.7011 117.212 62.6387 117.269 62.586 117.327C62.5476 117.37 62.514 117.413 62.4805 117.461C62.4517 117.509 62.4277 117.552 62.4037 117.6C62.3797 117.658 62.3558 117.715 62.3366 117.773C62.3174 117.835 62.2982 117.902 62.2838 117.965C62.2742 118.032 62.2647 118.099 62.2551 118.161C62.2551 118.233 62.2503 118.3 62.2503 118.372C62.2503 118.435 62.2599 118.497 62.2647 118.555C62.2743 118.617 62.2886 118.679 62.303 118.737C62.3174 118.79 62.3318 118.838 62.351 118.89C62.3702 118.934 62.3893 118.977 62.4133 119.02C62.4277 119.049 62.4469 119.077 62.4661 119.106C62.4853 119.13 62.5044 119.154 62.5284 119.178C62.5428 119.193 62.5572 119.207 62.5764 119.221C62.5955 119.236 62.6195 119.25 62.6435 119.265C62.6579 119.274 62.6723 119.279 62.6915 119.289C62.7154 119.293 62.7394 119.303 62.7634 119.308H62.8258C62.8497 119.308 62.8737 119.308 62.9025 119.308C62.9313 119.298 62.9553 119.293 62.9841 119.284C63.0128 119.274 63.0368 119.26 63.0608 119.245C63.0943 119.221 63.1279 119.197 63.1567 119.173C63.1855 119.145 63.219 119.116 63.2478 119.082C63.2814 119.044 63.3102 119.006 63.339 118.962C63.3629 118.924 63.3869 118.881 63.4061 118.842C63.4301 118.794 63.4492 118.742 63.4684 118.694C63.4876 118.641 63.502 118.588 63.5164 118.531C63.526 118.468 63.5355 118.406 63.5451 118.344C63.5451 118.334 63.5451 118.324 63.5451 118.32C63.5451 118.257 63.5451 118.195 63.5451 118.128C63.5451 118.07 63.5355 118.017 63.5307 117.96C63.5211 117.898 63.5068 117.835 63.4924 117.773C63.478 117.725 63.4636 117.682 63.4444 117.634C63.4205 117.581 63.3965 117.528 63.3725 117.48C63.3533 117.447 63.3341 117.418 63.3101 117.384C63.291 117.356 63.267 117.327 63.243 117.298C63.2238 117.279 63.2046 117.26 63.1806 117.24L63.1135 117.193C63.1135 117.193 63.0704 117.173 63.0464 117.164C63.0272 117.159 63.008 117.154 62.9888 117.149C62.9504 117.145 62.9121 117.14 62.8737 117.14H62.8642C62.8402 117.14 62.8162 117.14 62.7922 117.13C62.7922 117.13 62.7874 117.13 62.7826 117.13L62.7778 117.145Z" fill="black"/>
<path d="M108.55 21.2176C108.55 21.0881 108.545 20.9538 108.545 20.8195C108.569 20.8003 108.598 20.7811 108.622 20.7572C108.631 20.7524 108.636 20.7476 108.646 20.7428C108.646 20.7428 108.66 20.7332 108.665 20.7284C108.665 20.7284 108.67 20.7284 108.674 20.7236C108.674 20.7236 108.679 20.7236 108.684 20.7188C108.684 20.7188 108.684 20.7188 108.679 20.7188C108.679 20.7188 108.684 20.714 108.689 20.7092C109.231 20.3063 109.787 19.9274 110.363 19.5725C110.372 20.1193 110.372 20.6612 110.363 21.208C110.358 21.7164 110.046 22.3352 109.461 22.3352C108.876 22.3352 108.569 21.7164 108.559 21.208L108.55 21.2176Z" fill="black"/>
<path d="M117.024 44.2305C114.621 44.1921 112.218 44.1682 109.811 44.1538C109.739 44.1394 109.662 44.1346 109.59 44.149C109.508 44.149 109.427 44.149 109.345 44.1442C109.173 44.1442 108.995 44.1346 108.818 44.1346C108.468 44.1298 108.118 44.1346 107.768 44.1394C107.724 44.1394 107.676 44.1394 107.633 44.1442C100.876 44.101 94.1234 44.053 87.3756 43.6597C87.1454 43.8084 86.9344 43.7269 86.7186 43.6645C86.7042 43.6501 86.6897 43.631 86.6754 43.6166C86.5075 43.4295 86.3301 43.252 86.1478 43.0794C86.1047 43.0362 86.0615 42.9978 86.0183 42.9547C86.0279 42.9019 86.0472 42.854 86.0663 42.806C85.51 41.9714 85.2174 41.0073 84.9968 40.0337C84.2774 37.4437 83.9609 34.7241 84.4693 32.0622C85.4189 27.851 88.8 24.3017 92.8956 22.9875C95.706 22.0378 102.008 23.1698 104.42 25.3233C104.43 25.3377 104.444 25.3473 104.458 25.3569C104.578 25.4672 104.689 25.5775 104.785 25.6926C105.701 23.6398 107.087 21.9563 108.756 20.666C109.149 20.3735 109.552 20.0953 109.964 19.8315C114.156 17.2463 119.69 16.8146 124.337 18.853C128.745 20.9011 132.505 25.0979 133.162 30.0141C136.183 29.1364 139.166 31.4338 140.993 33.6498C142.907 35.7937 143.828 39.343 142.044 41.8227C141.411 42.4366 140.456 42.5662 139.66 42.8827C137.564 43.4679 135.368 43.511 133.214 43.7221C129.008 44.1346 124.783 44.2737 120.563 44.2737C119.383 44.2737 118.203 44.2641 117.024 44.2449V44.2305ZM94.1137 25.0451C90.5169 25.8509 87.5339 28.7767 86.3589 32.2253C85.6683 35.2805 86.0615 38.7243 87.4187 41.5158C87.529 41.7172 87.6346 41.9186 87.7401 42.1249C87.7928 42.2256 87.8312 42.3359 87.8552 42.451C100.2 41.6548 112.568 41.4918 124.932 41.3623C129.157 41.2712 133.368 40.8443 137.593 40.8539C137.938 40.8299 138.303 40.8299 138.667 40.8299C139.569 40.8299 140.499 40.8299 141.286 40.4942C142.245 38.8682 141.588 36.801 140.437 35.4436C138.629 33.2325 135.368 30.7911 132.495 32.4555C131.406 33.3428 130.649 31.4338 131.545 30.7719C131.646 27.6927 128.764 24.1866 126.356 22.4791C123.057 20.0905 118.597 19.16 114.63 20.1241C113.484 20.4742 112.348 20.8531 111.259 21.3567C110.118 21.9898 109.13 22.8628 108.161 23.7261C106.952 24.8485 106.219 26.3545 105.475 27.803C105.317 28.2683 104.78 28.6808 104.329 28.297C103.988 28.038 104.017 27.5584 103.816 27.2226C102.569 25.7837 98.1231 24.9492 95.4278 24.9492C94.9194 24.9492 94.4686 24.978 94.1185 25.0403L94.1137 25.0451Z" fill="black"/>
<path d="M109.542 44.149C109.475 44.149 109.408 44.149 109.34 44.149C109.168 44.149 108.99 44.1394 108.813 44.1394C108.659 44.1394 108.506 44.1346 108.353 44.1394C108.362 43.9763 108.376 43.8132 108.391 43.6454C108.405 43.4679 108.429 43.2952 108.468 43.1226C108.506 42.9403 108.544 42.7197 108.683 42.5854C108.813 42.4559 109.019 42.4175 109.168 42.547C109.388 42.7484 109.432 43.1273 109.475 43.4151C109.513 43.6597 109.537 43.9092 109.552 44.1538H109.547L109.542 44.149Z" fill="black"/>
<path d="M119.455 18.8914C119.253 18.853 119.081 18.7235 118.966 18.5557C118.807 18.3302 118.764 18.0664 118.774 17.7978C118.774 17.7882 118.774 17.7834 118.774 17.7738C118.774 17.7738 118.774 17.7786 118.774 17.7834C118.774 17.7882 118.774 17.793 118.774 17.793C118.774 17.793 118.774 17.8218 118.774 17.8362C118.774 17.8362 118.774 17.8362 118.774 17.841C118.774 17.841 118.774 17.8362 118.774 17.8314C118.774 17.8218 118.774 17.8122 118.774 17.8026C118.774 17.8362 118.774 17.8698 118.774 17.8074V17.793C118.774 17.793 118.774 17.7738 118.774 17.7594C118.774 17.7451 118.774 17.7307 118.774 17.7163C118.774 17.7307 118.774 17.7403 118.774 17.7546C118.774 17.7594 118.774 17.769 118.774 17.7738V17.7642V17.7355C118.774 17.6779 118.783 17.6156 118.783 17.558C118.827 16.6467 118.836 15.7354 118.86 14.8241C118.879 14.1766 118.879 13.5339 118.899 12.8864C118.913 12.258 118.923 11.6297 118.899 11.0014C118.899 10.9822 118.899 10.963 118.899 10.9438C118.884 10.7376 118.865 10.5362 118.831 10.3347C118.731 9.8167 118.606 9.30349 118.457 8.79987C118.309 8.34902 118.136 7.91734 117.983 7.56241C117.819 7.19789 117.647 6.83818 117.474 6.47366C117.306 6.12352 117.143 5.77338 116.951 5.43763C116.927 5.40406 116.908 5.3705 116.884 5.33693C116.879 5.32733 116.87 5.32251 116.865 5.31292C116.865 5.31292 116.875 5.32252 116.88 5.32252C116.884 5.32732 116.894 5.33211 116.899 5.3417C116.846 5.29373 116.812 5.25057 116.774 5.19301C116.678 5.02994 116.755 4.65104 116.999 4.67023C117.162 4.68462 117.268 4.80451 117.378 4.91962C117.493 5.03953 117.594 5.16904 117.7 5.29375C117.925 5.57193 118.146 5.85972 118.366 6.14271C118.807 6.69908 119.196 7.3034 119.493 7.95091C119.512 7.98928 119.527 8.03245 119.536 8.04684C119.546 8.06603 119.551 8.08043 119.556 8.09002C119.56 8.10441 119.565 8.11398 119.575 8.12837C119.872 8.80945 120.121 9.52413 120.275 10.2484C120.409 10.8911 120.5 11.5434 120.548 12.1957C120.596 12.872 120.606 13.5483 120.596 14.2293C120.582 14.9104 120.529 15.5915 120.486 16.2726C120.472 16.4692 120.457 16.6659 120.448 16.8482C120.428 17.1503 120.4 17.4573 120.38 17.7594C120.376 17.841 120.371 17.9225 120.366 17.9993C120.366 17.9897 120.366 17.9849 120.366 17.9753C120.366 17.9513 120.366 17.9225 120.366 17.8985C120.366 17.8889 120.366 17.8794 120.366 17.8794C120.366 17.9177 120.366 17.9561 120.366 17.9561C120.366 17.9657 120.366 17.9705 120.366 17.9801C120.366 17.9849 120.366 17.9945 120.366 17.9993C120.366 18.0136 120.366 18.0232 120.366 18.0376C120.337 18.4501 120.002 18.8914 119.57 18.8914C119.532 18.8914 119.493 18.8914 119.45 18.8818L119.455 18.8914Z" fill="black"/>
<path d="M120.002 18.7235C119.58 18.57 119.595 18.0328 119.599 17.6587C119.599 16.6418 119.614 15.6202 119.619 14.6034C119.619 13.6201 119.628 12.6369 119.595 11.6536C119.619 11.2843 119.403 10.5217 119.945 10.4881C120.069 10.5121 120.151 10.6272 120.18 10.7423C120.314 11.8023 120.367 12.8719 120.41 13.9415C120.458 15.2125 120.467 16.4836 120.472 17.7546C120.482 18.0999 120.439 18.6899 120.002 18.7235Z" fill="black"/>
<path d="M120.295 18.7378C119.729 17.8793 119.901 16.8097 119.882 15.836C119.887 14.7329 119.892 13.6297 119.901 12.5266C119.916 11.999 119.877 11.4666 119.94 10.9438C119.978 10.8095 120.069 10.6752 120.227 10.6752C120.515 10.6896 120.549 11.0397 120.539 11.2651C120.582 12.1812 120.625 13.1021 120.649 14.0182C120.568 15.5675 121.076 17.3277 120.299 18.733L120.295 18.7378Z" fill="black"/>
<path d="M120.587 17.9225C120.083 16.1526 120.179 14.306 120.193 12.4834C120.213 12.023 120.184 11.5673 120.222 11.1117C120.241 10.963 120.347 10.7999 120.51 10.7999C120.673 10.7999 120.778 10.963 120.802 11.1117C120.831 13.3803 121.229 15.7162 120.591 17.9273L120.587 17.9225Z" fill="black"/>
<path d="M120.117 18.1863C120.122 15.9608 120.242 13.7401 120.251 11.5194C120.232 11.3035 120.275 10.9822 120.549 10.9678C121.009 11.0398 120.846 11.6921 120.894 12.0278C120.918 12.848 120.928 13.673 120.928 14.4979C120.918 15.7498 120.928 17.0112 120.913 18.263C120.841 18.8914 120.108 18.805 120.112 18.1911L120.117 18.1863Z" fill="black"/>
<path d="M4.12927 140.512C4.11968 140.436 4.11967 140.349 4.11967 140.272C4.11967 140.244 4.11967 140.22 4.11967 140.191C4.11487 139.98 4.10049 139.764 4.0957 139.548C4.08611 139.083 4.07171 138.618 4.05732 138.152C4.03334 137.232 4.01415 136.306 3.99017 135.38C3.94221 133.438 3.87028 131.495 3.81753 129.553C3.70722 125.495 3.58732 121.442 3.48181 117.384C3.37151 113.25 3.25643 109.115 3.14133 104.981C3.02623 100.942 2.93028 96.9039 2.81518 92.8702C2.70008 88.8173 2.60417 84.7595 2.49387 80.7066C2.38836 76.7928 2.29725 72.8838 2.21093 68.9748C2.16297 66.9891 2.12459 65.0082 2.07663 63.0225C2.02867 61.0608 1.97592 59.0991 1.93276 57.1374C1.89439 55.1853 1.84163 53.2284 1.80326 51.2763C1.76969 49.3913 1.73134 47.5064 1.70257 45.6214C1.67379 43.818 1.66418 42.0097 1.77449 40.2303C1.79367 39.861 1.80327 39.4869 1.80806 39.1175C1.80806 38.9545 1.80807 38.7914 1.81766 38.6235C1.82246 38.518 1.82724 38.4125 1.86561 38.3118C1.91837 38.1727 2.08142 38.1055 2.19173 38.2254C2.23009 38.2638 2.24928 38.3118 2.25887 38.3645C2.28285 38.4461 2.29246 38.5276 2.30205 38.6139C2.32603 38.8297 2.33561 39.0456 2.35 39.2614C2.37877 39.7267 2.43154 40.1871 2.4843 40.6476C2.58501 41.5349 2.63776 42.4318 2.69051 43.3239C2.78643 45.1034 2.83439 46.8876 2.89673 48.6671C2.92551 50.7918 2.93508 52.9166 2.96865 55.0414C3.00702 57.6746 3.08377 60.3126 3.13653 62.9458C3.13653 62.8882 3.13653 62.8259 3.13653 62.7683C3.17969 64.989 3.22283 67.2145 3.29477 69.4352V69.2578C3.40987 73.2291 3.51059 77.2005 3.60171 81.1719C3.72161 86.515 3.82233 91.863 3.94223 97.2109C4.06212 102.544 4.17241 107.888 4.28751 113.221V113.211C4.28751 113.211 4.28751 113.221 4.28751 113.226C4.28751 113.24 4.28751 113.25 4.28751 113.259C4.28751 113.283 4.28751 113.307 4.28751 113.331C4.28751 113.346 4.28751 113.36 4.28751 113.375C4.28751 113.384 4.28751 113.394 4.28751 113.403V113.384C4.31629 114.996 4.34506 116.612 4.37384 118.224C4.42659 120.919 4.49854 123.61 4.56568 126.305C4.63282 129.001 4.68558 131.697 4.74793 134.387C4.79589 136.656 4.86782 138.92 4.92057 141.184C4.90139 141.189 4.87741 141.193 4.85822 141.198C4.82465 141.203 4.7911 141.208 4.76233 141.208C4.40744 141.208 4.17721 140.853 4.13404 140.522L4.12927 140.512Z" fill="black"/>
<path d="M2.36401 142.882C2.2633 142.532 2.16737 142.177 2.08584 141.822C2.08584 141.769 2.08584 141.716 2.08584 141.663C2.07146 141.16 2.05228 140.651 2.0331 140.148C1.99953 139.126 1.96594 138.105 1.92757 137.083C1.88921 136.033 1.83165 134.982 1.7741 133.932C1.73573 133.169 1.69257 132.407 1.6494 131.644V131.14C1.59665 126.526 1.5583 121.912 1.51994 117.293C1.48157 112.607 1.4336 107.921 1.38564 103.235C1.35686 100.914 1.33767 98.5971 1.31849 96.2756C1.2993 93.8823 1.27054 91.4841 1.24177 89.0907C1.19381 84.563 1.14584 80.0304 1.11227 75.5027C1.09309 73.2436 1.06913 70.9797 1.04515 68.7206C1.02117 66.4807 1.00678 64.236 0.978001 61.9961C0.949226 59.7083 0.934836 57.4157 0.915653 55.1278C0.896469 52.8831 0.89166 50.6336 0.872477 48.3889C0.853294 46.2785 0.838907 44.1682 0.843703 42.053C0.848499 39.9426 0.853308 37.837 0.886879 35.7218C0.89647 35.1414 0.90607 34.5563 0.925254 33.9759C0.944437 33.4051 0.982781 32.8296 1.02115 32.302C1.04992 31.8272 1.04993 31.3571 1.05952 30.8823C1.06432 30.6424 1.05951 30.4026 1.10747 30.1676C1.11706 30.1005 1.16502 30.0285 1.23217 30.0285C1.3041 30.0285 1.34727 30.1005 1.35686 30.158V30.1676C1.38564 30.3211 1.40002 30.4746 1.40961 30.6281C1.42879 31.0501 1.4384 31.4722 1.45759 31.8559C1.48636 32.326 1.53911 32.796 1.57268 33.2661C1.61105 33.7649 1.63502 34.2637 1.6542 34.7625C1.69257 35.7985 1.73095 36.8345 1.75973 37.8705C1.82687 39.9809 1.85563 42.0961 1.894 44.2113C1.93236 46.3505 1.94195 48.4896 1.97552 50.6336C2.00909 52.8927 2.03309 55.147 2.05707 57.4061C2.08105 59.6987 2.09543 61.9962 2.11462 64.2888C2.1338 66.5479 2.16258 68.807 2.18177 71.0661C2.20095 73.3012 2.2297 75.541 2.24889 77.7761C2.26807 80.0448 2.28726 82.3087 2.31123 84.5774C2.35919 89.2394 2.39277 93.9015 2.44073 98.5587C2.48869 103.278 2.52227 107.998 2.57023 112.722C2.61339 117.356 2.67573 121.989 2.7141 126.617C2.73328 128.876 2.75727 131.14 2.77645 133.399C2.79563 135.668 2.82441 137.941 2.8436 140.21C2.85319 141.203 2.84839 142.196 2.86757 143.189C2.86757 143.208 2.86757 143.232 2.86757 143.251C2.86757 143.275 2.86757 143.299 2.86757 143.323C2.86757 143.452 2.8436 143.582 2.78125 143.702C2.76207 143.735 2.74288 143.764 2.7237 143.793C2.58942 143.486 2.4647 143.179 2.36878 142.863L2.36401 142.882Z" fill="black"/>
<path d="M2.40212 142.45C2.25825 142.028 2.14796 141.601 2.06163 141.174C2.05204 140.834 2.03765 140.493 2.02326 140.153C1.98969 139.16 1.9609 138.167 1.92253 137.174C2.06641 135.241 2.39254 133.299 2.34937 131.38C2.36856 127.893 1.99928 124.593 2.08081 121.159C2.17193 119.687 2.39254 118.224 2.46927 116.746C2.45009 111.317 2.40214 105.873 2.4501 100.439C2.63234 88.2945 1.1504 76.1837 1.70672 64.0442C1.77386 63.555 1.66837 63.0082 1.87939 62.5621C1.9849 62.4183 2.17672 62.4326 2.25825 62.5957C2.38294 63.5598 2.29663 64.5814 2.39255 65.5599C2.57479 69.9149 2.96326 74.2556 3.02081 78.6155C3.28937 84.0833 3.67782 89.3593 3.72578 94.7984C3.86007 101.528 3.54835 108.257 3.73538 114.986C4.15262 122.176 4.01353 129.385 3.32772 136.551C3.32772 138.282 3.34692 140.014 3.34212 141.75C3.33732 142.105 3.34213 142.551 2.96326 142.704C2.9153 142.723 2.86732 142.733 2.82416 142.733C2.65151 142.733 2.49324 142.613 2.40212 142.45Z" fill="black"/>
<path d="M2.35491 103.264C2.25899 101.839 2.16785 100.41 2.12949 98.9855C2.1151 98.5203 2.10553 98.0502 2.11992 97.585C2.12471 97.4363 2.21583 97.254 2.38848 97.2636C2.3741 95.7864 2.28775 94.3091 2.36928 92.8366C2.42203 92.5201 2.1151 90.8126 2.63785 91.038C2.82489 93.3882 2.84409 95.8775 2.92562 98.2757C2.8345 98.7073 3.29968 102.026 2.49398 101.408C2.45561 102.026 2.41244 102.645 2.36928 103.264C2.36928 103.264 2.36931 103.264 2.36451 103.264C2.35971 103.264 2.35971 103.264 2.35971 103.264H2.35491Z" fill="black"/>
<path d="M3.16951 141.553C3.00645 136.469 2.76664 131.351 2.60837 126.258C2.55082 121.955 3.01125 117.662 2.95849 113.36C3.03043 107.197 2.37818 101.029 2.55563 94.8798C2.57481 94.7791 2.67074 94.688 2.77625 94.7072C2.89614 94.7264 2.96327 94.8751 2.94409 94.9902C2.88654 95.3163 2.91052 95.6521 2.91532 95.9878C3.39011 101.892 3.74499 107.806 3.83611 113.725C3.88887 119.087 3.4141 124.445 3.80257 129.807C3.97042 133.423 4.22459 137.045 4.23418 140.671C4.22459 140.978 4.27256 141.289 4.15746 141.587C3.95603 142.124 3.37093 142.172 3.16471 141.558L3.16951 141.553Z" fill="black"/>
<path d="M4.1531 141.002C3.98045 140.968 3.86534 140.795 3.81259 140.642C3.803 140.613 3.79341 140.584 3.78861 140.551C3.18913 141.069 2.95413 140.157 3.06444 139.683C3.14117 138.426 3.29943 137.174 3.333 135.913C3.43372 133.27 3.61597 130.637 3.25628 128.008C3.28506 127.884 3.40494 127.768 3.53922 127.816C3.65912 127.864 3.71668 128.013 3.69749 128.138C3.76943 128.43 3.86055 128.713 3.93248 129.006C4.40727 130.934 4.36411 132.934 4.43604 134.905C4.56074 136.546 4.61829 138.186 4.64706 139.831C4.65665 140.234 4.73341 140.982 4.16271 140.997L4.1531 141.002Z" fill="black"/>
<path d="M13.6679 148.393C12.608 148.325 11.553 148.21 10.5171 147.975C10.2293 147.913 9.95113 147.841 9.66818 147.769C9.42838 147.707 9.1886 147.64 8.9584 147.558C8.42606 147.376 7.89371 147.189 7.39494 146.939C6.96811 146.724 6.53169 146.508 6.13363 146.239C5.76914 145.99 5.40946 145.745 5.08814 145.438C4.77161 145.141 4.49343 144.791 4.26323 144.416C3.7261 143.534 3.29928 142.551 3.10744 141.534C3.06428 141.299 3.0259 141.064 3.00672 140.819C2.98274 140.57 2.97794 140.316 2.97314 140.061C2.97314 139.596 3.0163 139.126 3.05947 138.661C3.10263 138.22 3.17458 137.783 3.25611 137.351C3.29448 137.155 3.33762 136.953 3.38558 136.761C3.41436 136.642 3.44316 136.526 3.47193 136.407C3.49112 136.33 3.5055 136.234 3.55345 136.167C3.62539 136.071 3.75008 136.061 3.82202 136.167C3.90355 136.287 3.87956 136.455 3.87477 136.594C3.86997 136.762 3.86997 136.934 3.86997 137.102C3.86997 137.423 3.88435 137.745 3.89394 138.066C3.91312 138.704 3.92752 139.342 3.96109 139.985C3.98987 140.311 4.02344 140.637 4.08099 140.958C4.12895 141.174 4.18171 141.39 4.24406 141.606C4.34477 141.908 4.45985 142.21 4.58455 142.503C4.72363 142.805 4.87231 143.107 4.98741 143.323C5.12649 143.553 5.27516 143.774 5.43822 143.99C5.55332 144.124 5.67322 144.253 5.79791 144.373C5.95138 144.508 6.10964 144.637 6.2727 144.762C6.383 144.834 6.4885 144.91 6.59401 144.982C6.7235 145.069 6.86259 145.146 6.99688 145.232C7.25106 145.39 7.52443 145.524 7.78821 145.659C8.11433 145.807 8.44044 145.956 8.77615 146.076C9.11186 146.191 9.44757 146.301 9.78807 146.402C10.3492 146.556 10.9151 146.695 11.4858 146.791C11.8215 146.848 12.1572 146.901 12.4929 146.944C12.7903 146.983 13.0924 147.011 13.313 147.035C14.1139 147.107 14.9148 147.136 15.7205 147.155C16.109 147.165 16.5023 147.165 16.8907 147.165C17.2264 147.165 17.5669 147.165 17.8691 147.136C17.8835 147.136 17.9027 147.136 17.9171 147.131C17.9171 147.131 17.9266 147.131 17.9314 147.131C18.0417 147.074 18.1616 147.069 18.2911 147.102C18.3679 147.122 18.435 147.184 18.4878 147.237C18.6173 147.366 18.6652 147.563 18.67 147.74C18.6796 147.951 18.5837 148.158 18.4254 148.297C18.3487 148.369 18.2384 148.402 18.1377 148.421C17.9362 148.46 17.7204 148.465 17.519 148.469C17.2792 148.479 17.0346 148.479 16.7948 148.479C16.7564 148.479 16.7229 148.479 16.6845 148.479C15.6726 148.479 14.6607 148.455 13.6487 148.393H13.6679Z" fill="black"/>
<path d="M16.9819 147.947C13.6536 147.975 10.2437 147.668 7.15041 146.349C4.41198 145.189 3.98993 141.841 4.34962 139.222C4.32084 139.112 4.45035 138.977 4.54626 139.078C4.77167 139.572 4.72371 140.272 4.8436 140.776C5.12656 142.517 5.64929 144.493 7.43335 145.232C10.6849 146.584 14.1907 146.762 17.6438 146.776C17.9411 146.781 18.1089 147.093 18.1089 147.357C18.1137 148.028 17.4615 147.961 16.9723 147.947H16.9819Z" fill="black"/>
<path d="M32.1565 147.386C32.1565 147.386 32.1229 147.386 32.1133 147.381C31.979 147.381 31.8495 147.381 31.7152 147.381C31.4994 147.381 31.2788 147.381 31.063 147.381C30.5786 147.381 30.099 147.381 29.6146 147.371C28.6411 147.362 27.6675 147.362 26.694 147.357C25.6772 147.352 24.6557 147.352 23.639 147.347C22.6127 147.347 21.5912 147.333 20.5648 147.314C19.5817 147.294 18.6034 147.285 17.6202 147.266C16.6658 147.251 15.7066 147.251 14.7475 147.227C14.2103 147.213 13.6684 147.189 13.1313 147.165C13.0018 147.16 12.8723 147.151 12.7428 147.146C12.6709 147.146 12.5989 147.141 12.5318 147.141C12.4646 147.141 12.3975 147.141 12.3304 147.136C12.1913 147.117 12.0618 147.069 11.9419 147.002V146.992C12.0282 146.944 12.1242 146.906 12.2249 146.882C12.3256 146.853 12.4311 146.863 12.5318 146.863C12.6613 146.863 12.7908 146.863 12.9202 146.853C13.3806 146.839 13.8458 146.824 14.3062 146.815C14.877 146.805 15.4525 146.81 16.028 146.815C16.4021 146.815 16.7713 146.82 17.1454 146.82C18.1381 146.82 19.1309 146.82 20.1236 146.82C21.1356 146.82 22.1475 146.82 23.1594 146.829C24.1953 146.844 25.2264 146.863 26.2623 146.877C27.2359 146.887 28.2095 146.901 29.183 146.911C29.7393 146.911 30.2956 146.915 30.8472 146.925C31.1013 146.925 31.3555 146.93 31.6097 146.935C31.7776 146.935 31.9454 146.944 32.1181 146.944C32.1325 146.944 32.1468 146.939 32.1612 146.939H32.1708C32.1996 146.939 32.2332 146.939 32.2619 146.949C32.4634 146.992 32.449 147.347 32.2619 147.381C32.238 147.381 32.2092 147.381 32.1852 147.386C32.1804 147.386 32.1708 147.386 32.166 147.386H32.1565Z" fill="black"/>
<path d="M4.2299 142.33C4.04287 142.297 3.99972 142.105 3.98054 141.942C3.98054 141.755 3.8942 141.5 4.05246 141.356C4.05246 141.342 4.05246 141.323 4.05246 141.309C4.02848 140.886 4.55603 140.757 4.66154 141.193C4.7143 141.539 4.62797 141.932 4.44572 142.229C4.39297 142.301 4.31623 142.345 4.2299 142.33Z" fill="black"/>
<path d="M2.71924 143.822C2.71924 143.822 2.72875 143.841 2.73351 143.85C2.73828 143.865 2.74305 143.874 2.74782 143.888C2.74782 143.893 2.75256 143.903 2.75732 143.908C2.75732 143.908 2.75732 143.908 2.75732 143.912C2.74303 143.884 2.72876 143.855 2.71924 143.827V143.822Z" fill="black"/>
<path d="M6.1333 147.836C6.1333 147.836 6.17189 147.856 6.19118 147.87C6.17189 147.861 6.1526 147.851 6.1333 147.836Z" fill="black"/>
<path d="M12.9056 148.757C10.9201 148.748 8.52695 148.68 6.49351 148.014C6.36402 147.951 6.23933 147.889 6.10984 147.817C5.85566 147.673 5.60626 147.515 5.36646 147.347C5.14106 147.179 4.93006 146.997 4.72383 146.805C4.47924 146.565 4.24424 146.316 4.02843 146.052C3.75506 145.702 3.51528 145.328 3.28508 144.949C3.08845 144.613 2.92057 144.263 2.75751 143.908C2.75751 143.918 2.76711 143.927 2.76711 143.937C2.76232 143.927 2.75754 143.913 2.75274 143.903C2.75274 143.903 2.75274 143.903 2.75274 143.899C2.75274 143.894 2.74794 143.884 2.74314 143.879C2.73835 143.865 2.73354 143.855 2.72874 143.841C2.58966 143.524 2.46019 143.203 2.35948 142.877C2.31632 142.719 2.27314 142.56 2.22998 142.402C2.27794 141.822 2.39783 141.241 2.52252 140.68C2.5417 140.579 2.63284 140.45 2.74794 140.507C2.84386 140.56 2.87263 140.714 2.80549 140.805C1.9854 148.177 10.1335 148.014 15.9749 147.846C16.9485 147.817 17.8597 147.788 18.651 147.798C19.0922 147.668 19.2217 148.431 18.838 148.57C17.3993 148.733 15.9461 148.762 14.493 148.762C13.9607 148.762 13.4283 148.762 12.9008 148.752L12.9056 148.757Z" fill="black"/>
<path d="M9.5774 147.928C9.21292 147.865 8.87239 147.793 8.51271 147.894C7.96598 147.913 7.44324 147.697 6.93488 147.525C6.53203 147.309 5.79345 147.41 5.75509 146.805C5.1556 146.513 4.51297 146.239 3.99981 145.803C3.96624 145.836 3.93266 145.865 3.89429 145.884C3.67848 145.587 3.47707 145.275 3.28524 144.963C3.26605 144.925 3.24207 144.891 3.22289 144.853C2.99748 143.841 2.57546 142.824 2.7529 141.807C2.84882 141.587 3.10298 141.275 3.36676 141.433C3.49625 141.529 3.67369 141.572 3.75042 141.731C3.89909 142.09 3.89431 142.493 3.97584 142.872C4.10053 143.122 4.29236 143.371 4.26358 143.664C4.21562 143.664 4.16767 143.664 4.11971 143.649C4.30195 144.191 4.61368 144.661 5.01653 145.074C5.70234 145.429 6.69029 145.505 7.08835 146.239C7.9516 146.455 8.82446 146.652 9.7021 146.805C9.98505 146.848 10.1097 147.194 10.081 147.448C10.0522 147.688 9.87474 147.928 9.63015 147.928C9.61097 147.928 9.59178 147.928 9.5726 147.928H9.5774Z" fill="black"/>
<path d="M8.00422 105.7C6.66138 105.686 5.31376 105.686 3.97092 105.652C3.78867 105.652 3.61122 105.643 3.42898 105.643C3.39061 105.643 3.35705 105.643 3.31869 105.643C3.2995 105.643 3.28509 105.643 3.26591 105.643C3.26591 105.643 3.25633 105.643 3.25154 105.643C3.1796 105.643 3.11246 105.643 3.04052 105.633C3.04052 105.633 3.03571 105.633 3.03092 105.633C3.00214 105.633 2.97337 105.633 2.94939 105.624C2.63766 105.59 2.47461 105.206 2.47461 104.933C2.47461 104.636 2.67124 104.233 3.01654 104.238C3.09328 104.233 3.17 104.228 3.24674 104.228C3.25153 104.228 3.25632 104.228 3.26591 104.228C3.2803 104.228 3.29469 104.228 3.30428 104.228C3.31867 104.228 3.32827 104.228 3.34266 104.228C3.51531 104.223 3.68316 104.218 3.85102 104.214C4.20112 104.204 4.54642 104.194 4.89651 104.19C5.55355 104.175 6.21538 104.166 6.87721 104.156C8.16729 104.137 9.45258 104.108 10.7427 104.094C13.4188 104.065 16.09 104.075 18.7613 104.051C21.3991 104.031 24.0368 104.012 26.6745 104.007C29.341 104.007 32.0027 103.993 34.6644 103.979C37.3357 103.959 40.007 103.931 42.6831 103.916C44.4623 103.907 46.2368 103.907 48.0161 103.911H50.6826C53.3107 103.911 55.9388 103.926 58.567 103.935C59.8666 103.945 61.1663 103.959 62.4612 103.979C63.665 103.993 64.8687 103.998 66.0725 104.065C66.7967 104.103 67.5161 104.175 68.2402 104.209C68.4992 104.218 68.7678 104.238 69.022 104.295C69.1898 104.329 69.42 104.381 69.5255 104.521C69.6118 104.636 69.6022 104.813 69.5255 104.928C69.5111 104.947 69.4967 104.967 69.4776 104.976C69.3912 105.053 69.2713 105.087 69.1658 105.115C69.0219 105.158 68.8781 105.182 68.7294 105.202C68.4705 105.235 68.2067 105.245 67.9429 105.259C67.6743 105.274 67.4058 105.298 67.2091 105.317C65.9622 105.432 64.7105 105.485 63.4588 105.499C62.1639 105.518 60.8738 105.552 59.5789 105.566C56.9747 105.6 54.3706 105.629 51.7665 105.648C49.1 105.667 46.4383 105.686 43.7766 105.696C42.357 105.696 40.9422 105.696 39.5274 105.696C38.2805 105.696 37.0288 105.686 35.7771 105.696C33.1106 105.696 30.4441 105.696 27.7776 105.715C25.1111 105.729 22.4446 105.739 19.7781 105.729C17.078 105.72 14.3779 105.729 11.6827 105.729C11.582 105.729 11.4812 105.729 11.3805 105.729C10.2535 105.729 9.12168 105.71 7.99465 105.7H8.00422Z" fill="black"/>
<path d="M55.56 120.358C55.4401 120.301 55.373 120.152 55.325 120.032C55.2866 119.931 55.2627 119.83 55.2531 119.797C55.2051 119.643 55.1524 119.49 55.1188 119.327C55.0804 119.159 55.066 118.986 55.0517 118.818C55.0325 118.559 55.0277 118.3 55.0421 118.041C55.0516 117.811 55.066 117.576 55.0852 117.341C55.1092 117.049 55.1524 116.698 55.373 116.483C55.5169 116.344 55.7039 116.262 55.9053 116.3C56.1068 116.339 56.265 116.492 56.3513 116.674C56.3657 116.708 56.3801 116.742 56.3945 116.775C56.4424 116.886 56.4425 117.01 56.4473 117.125C56.4473 117.192 56.4377 117.264 56.4329 117.327C56.4281 117.408 56.4185 117.49 56.4089 117.576C56.3897 117.768 56.3513 117.965 56.3274 118.157C56.3034 118.368 56.2746 118.574 56.2458 118.785C56.2266 118.929 56.2074 119.073 56.1787 119.212C56.1499 119.36 56.1115 119.509 56.078 119.663C56.0396 119.883 56.0396 120.123 55.8861 120.305C55.8382 120.363 55.771 120.387 55.7039 120.387C55.6559 120.387 55.6079 120.372 55.5648 120.353L55.56 120.358Z" fill="black"/>
<path d="M54.3511 117.95C53.7852 117.312 55.1424 116.353 55.7083 116.286C56.0008 116.286 56.092 116.761 55.833 116.847C55.4733 117.159 54.8882 118.44 54.3511 117.95Z" fill="black"/>
<path d="M56.4277 117.336C56.4325 117.274 56.4469 117.202 56.4422 117.135C56.4422 117.02 56.4326 116.895 56.3894 116.785C56.375 116.751 56.3606 116.718 56.3462 116.684C56.2551 116.502 56.1016 116.348 55.9002 116.31C55.8571 116.3 55.8139 116.3 55.7755 116.3C55.7755 116.3 55.7372 116.291 55.718 116.291C55.1521 116.358 53.7948 117.312 54.3607 117.955C54.5909 118.166 54.8355 118.046 55.0609 117.821C55.0561 117.898 55.0513 117.974 55.0465 118.051C55.0322 118.31 55.0418 118.569 55.0561 118.828C55.0657 118.982 55.0849 119.14 55.1137 119.293C55.1089 119.519 55.0993 119.749 55.0993 119.979C55.0993 120.358 55.3391 120.814 55.7707 120.814C56.7011 120.766 56.4997 118.958 56.3798 117.811C56.3894 117.734 56.4038 117.663 56.4085 117.591C56.4181 117.509 56.4278 117.427 56.4325 117.341L56.4277 117.336ZM60.2404 121.106C60.8399 121.073 61.0078 120.238 60.6433 119.845C60.4563 119.624 60.1781 119.629 59.9047 119.634C59.8088 119.634 59.7177 119.634 59.6313 119.634C61.1037 118.19 60.2932 115.049 57.9912 116.406C57.6123 116.66 57.267 117.082 57.4301 117.562C57.5164 117.826 57.7946 117.95 58.0343 117.821C58.3173 117.61 58.8928 117.26 59.171 117.639C59.147 118.713 57.8233 119.13 57.3294 119.912C57.056 120.958 57.8665 121.116 58.7489 121.116C58.9408 121.116 59.1374 121.106 59.3245 121.102C59.6746 121.087 59.9958 121.073 60.2356 121.111L60.2404 121.106ZM64.7006 118.425C64.715 117.826 64.5903 117.169 64.2498 116.66C64.0531 116.368 63.7942 116.099 63.4633 115.96C63.2858 115.883 63.1084 115.845 62.9214 115.835C62.9118 115.835 62.9021 115.835 62.8926 115.835C62.8782 115.835 62.8638 115.835 62.8446 115.835H62.8158C62.7487 115.84 62.6672 115.869 62.5952 115.917C62.5137 115.926 62.437 115.95 62.3554 115.969C62.2307 115.989 62.0581 116.056 61.9046 116.185C61.7895 116.281 61.6888 116.382 61.5929 116.497C61.4107 116.722 61.2812 116.981 61.1805 117.255L61.1709 117.274C61.1709 117.274 61.1613 117.308 61.1565 117.322C61.0462 117.672 60.9934 118.07 61.003 118.473C61.0318 119.087 61.2044 119.682 61.5737 120.176C61.8806 120.593 62.365 120.876 62.8734 120.876C62.9885 120.876 63.1036 120.862 63.2235 120.833C63.8853 120.66 64.2882 120.051 64.5088 119.437C64.6191 119.111 64.6862 118.77 64.691 118.42L64.7006 118.425ZM119.345 130.349C119.345 130.445 119.345 130.545 119.345 130.646C119.239 132.061 119.177 133.476 119.22 134.901C118.927 136.795 118.429 138.661 117.772 140.45C115.513 145.635 109.12 146.153 104.175 146.647C104.017 146.671 103.859 146.695 103.696 146.714C103.657 146.714 103.614 146.714 103.576 146.714C99.7104 146.757 95.8449 146.767 91.9843 146.762C87.9318 146.757 83.8793 146.743 79.822 146.743C75.7647 146.743 71.8033 146.762 67.7939 146.762C63.7846 146.762 59.6362 146.762 55.5597 146.786C51.3537 146.81 47.1526 146.834 42.9466 146.843C38.8222 146.858 34.7025 146.867 30.5781 146.882C29.5709 146.882 28.5638 146.887 27.5567 146.891H27.5423C27.1155 146.887 26.6886 146.882 26.2618 146.877C25.2259 146.867 24.1948 146.843 23.1589 146.829C22.1469 146.82 21.135 146.82 20.1231 146.82C19.3605 146.82 18.5932 146.82 17.8259 146.82C17.7779 146.796 17.7203 146.781 17.6532 146.781C14.1954 146.772 10.6896 146.589 7.44283 145.237C5.78346 144.556 5.21755 142.8 4.92021 141.16C4.86745 138.901 4.80032 136.637 4.74756 134.378C4.69001 131.682 4.63246 128.991 4.56532 126.296C4.49817 123.6 4.42143 120.91 4.37347 118.214C4.3447 116.603 4.31592 114.986 4.28715 113.375V113.365C4.28715 113.341 4.28715 113.312 4.28715 113.288V113.259C4.28715 113.259 4.28715 113.24 4.28715 113.226V113.212C4.23439 110.693 4.18166 108.18 4.12891 105.662C5.42379 105.691 6.71866 105.691 8.01354 105.705C9.14536 105.715 10.2724 105.734 11.4042 105.734H11.7016C14.4016 105.724 17.1017 105.72 19.797 105.734C22.4635 105.744 25.13 105.734 27.7965 105.72C30.463 105.705 33.1295 105.705 35.796 105.7C37.0429 105.7 38.2946 105.7 39.5463 105.7C40.9659 105.7 42.3807 105.71 43.7955 105.7C46.4572 105.691 49.1236 105.672 51.7853 105.652C54.3895 105.633 56.9937 105.605 59.5978 105.571C60.8927 105.552 62.1828 105.518 63.4776 105.504C64.4128 105.494 65.3528 105.456 66.2928 105.393C69.5732 105.374 72.8487 105.355 76.1291 105.331C80.9969 105.293 85.8647 105.274 90.7325 105.254C95.5332 105.235 100.339 105.23 105.139 105.192C107.508 105.173 109.882 105.154 112.252 105.134C113.436 105.125 114.621 105.115 115.805 105.106C116.362 105.101 116.918 105.096 117.469 105.087L118.299 105.077C118.366 105.077 118.433 105.077 118.501 105.077C118.529 105.077 118.558 105.082 118.587 105.082C118.654 105.082 118.726 105.082 118.793 105.072C118.932 105.053 119.047 104.986 119.143 104.89C119.153 107.235 119.162 109.581 119.182 111.926C119.196 113.677 119.191 115.427 119.215 117.178C119.239 118.967 119.239 120.761 119.273 122.55C119.311 124.301 119.321 126.056 119.335 127.807V128.339C119.21 128.646 119.297 129.083 119.349 129.476C119.349 129.768 119.354 130.061 119.359 130.354L119.345 130.349Z" fill="white"/>
<path d="M140.437 35.4435C141.588 36.7961 142.245 38.8633 141.286 40.4893C140.494 40.8298 139.569 40.8298 138.667 40.8298C138.303 40.8298 137.943 40.8298 137.593 40.849C133.368 40.8394 129.157 41.2663 124.932 41.3574C112.563 41.4917 100.2 41.65 87.8552 42.4462C87.8312 42.3311 87.7976 42.2207 87.7401 42.12C87.6346 41.9186 87.5242 41.7124 87.4187 41.5109C86.0663 38.7194 85.6683 35.2805 86.3589 32.2204C87.5387 28.7718 90.5216 25.8412 94.1185 25.0402C94.4686 24.9779 94.9146 24.9491 95.4278 24.9491C98.1231 24.9491 102.569 25.7837 103.816 27.2226C104.017 27.5535 103.988 28.038 104.329 28.297C104.78 28.6807 105.312 28.2634 105.475 27.8029C106.219 26.3544 106.952 24.8484 108.161 23.726C109.13 22.8627 110.113 21.9898 111.259 21.3567C112.348 20.853 113.484 20.4741 114.63 20.1288C118.597 19.1647 123.057 20.0952 126.356 22.4838C128.764 24.1961 131.641 27.6974 131.545 30.7767C130.653 31.4386 131.411 33.3475 132.5 32.465C135.373 30.8007 138.629 33.2372 140.442 35.4531L140.437 35.4435Z" fill="#3087FF"/>
<path d="M69.2759 56.6674C69.6884 56.2357 69.7076 55.5643 69.4342 55.0606L69.3766 54.9359C68.7628 53.7368 68.1201 52.5522 67.4727 51.3723C66.8301 50.1924 66.1778 49.0124 65.5159 47.8469C64.8062 46.5951 64.0676 45.3576 63.3195 44.125C62.9598 43.535 62.6001 42.9451 62.1973 42.3839C61.9623 42.053 61.7848 41.6836 61.545 41.3575C61.334 41.0697 61.099 40.7292 60.7009 40.7675C60.5523 40.7819 60.4228 40.8922 60.3365 41.0169C60.3125 41.0265 60.2885 41.0409 60.2645 41.0601C60.2597 41.0601 60.2501 41.0601 60.2453 41.0649C60.0247 41.1512 59.8856 41.3239 59.7705 41.5205C59.7369 41.5685 59.6362 41.7028 59.5451 41.8371C59.2862 42.216 59.0272 42.5997 58.773 42.9883C57.8522 44.3744 56.9026 45.7461 56.0298 47.1707C55.2864 48.3793 54.5718 49.5976 53.8668 50.8303C53.5599 51.3675 53.1666 52.0533 52.7973 52.744C52.6007 53.1133 52.4137 53.4826 52.2362 53.8616C52.0348 54.2884 51.8286 54.7681 52.0204 55.2381C52.1259 55.4971 52.3705 55.7129 52.6439 55.7129C52.7206 55.7129 52.8021 55.6938 52.8789 55.6554C53.0371 55.5739 53.1618 55.4683 53.2817 55.3388C53.5119 55.0894 53.7134 54.816 53.9196 54.5474C54.2793 54.0726 54.6485 53.545 55.0178 53.0078C55.7708 51.9142 56.5141 50.8159 57.2335 49.6935C58.0632 48.3985 58.8593 47.0795 59.6267 45.7414C59.6267 45.7797 59.6267 45.8181 59.6267 45.8613C59.5643 47.6551 59.5691 49.4489 59.5787 51.2427C59.5883 52.9215 59.5547 54.5954 59.5451 56.2693C59.5355 57.8953 59.5164 59.5212 59.5451 61.1472C59.5547 61.8954 59.5787 62.6485 59.6027 63.3967C59.6123 63.6653 59.6314 63.9387 59.6314 64.2073C59.6314 64.7732 60.0103 65.4495 60.6386 65.4495H60.6482C61.2956 65.4399 61.6361 64.7492 61.6361 64.1833C61.6361 63.9722 61.6505 63.766 61.6553 63.555C61.6697 62.9362 61.6841 62.3223 61.6937 61.7036C61.7416 58.4229 61.617 55.1422 61.6026 51.8663C61.593 50.0964 61.593 48.3314 61.5402 46.5615C61.5258 46.0387 61.5019 45.5159 61.4731 44.9931C61.8376 45.6118 62.2068 46.2306 62.5857 46.8445C63.0893 47.8326 63.6024 48.8158 64.1347 49.7895C64.7822 50.9742 65.4393 52.1588 66.1011 53.3339C66.7054 54.4083 67.3096 55.4827 67.9475 56.5379C67.9475 56.5379 67.9475 56.5379 67.9475 56.5427C68.0914 56.7825 68.3695 56.96 68.6525 56.9648H68.6621C68.8971 56.9648 69.1129 56.8545 69.2711 56.6866L69.2759 56.6674ZM70.729 72.7544C77.6111 73.0182 77.7742 68.9173 77.6016 63.2864C77.3714 62.1544 77.9804 59.9529 76.3834 59.7419C74.7192 59.9865 75.4386 62.1496 75.4002 63.3056C75.7071 70.8598 74.8775 70.3514 67.8276 70.2315C62.2212 70.2699 56.6052 70.5049 51.0085 69.9869C49.987 69.771 47.0999 69.9005 46.8361 68.7206C46.5292 66.6726 46.4716 64.5766 45.8625 62.5813C45.7474 62.1832 45.6515 61.7563 45.4165 61.411C44.841 60.562 43.7859 61.1424 43.7188 62.0297C43.8243 64.7492 43.9538 67.5551 44.6972 70.1931C45.3494 72.0397 47.5123 72.4762 49.2484 72.6392C51.2963 72.8695 53.3441 72.975 55.3967 73.0421C56.2935 73.0853 57.1951 73.1045 58.092 73.1045C60.111 73.1045 62.1253 73.0182 64.1443 72.927C66.3408 72.8311 68.5325 72.7352 70.7338 72.7544H70.729ZM119.114 101.01C119.114 101.849 119.114 102.688 119.124 103.528C119.043 103.451 118.942 103.393 118.832 103.369C118.788 103.36 118.745 103.355 118.707 103.355H118.692C118.692 103.355 118.649 103.355 118.625 103.355C118.597 103.355 118.568 103.355 118.539 103.36C118.381 103.36 118.227 103.36 118.069 103.36C117.978 103.36 117.887 103.36 117.796 103.36C113.057 103.374 108.319 103.422 103.581 103.465C98.7848 103.509 93.9842 103.59 89.1883 103.638C84.3397 103.691 79.4911 103.748 74.6425 103.791C69.7028 103.835 64.763 103.897 59.8233 103.935C59.6123 103.935 59.3965 103.935 59.1854 103.94C58.984 103.94 58.7778 103.94 58.5716 103.935C55.9434 103.926 53.3153 103.907 50.6872 103.911H48.0207C46.2414 103.911 44.4669 103.911 42.6877 103.916C40.0164 103.926 37.3451 103.959 34.669 103.979C32.0025 103.993 29.3408 104.007 26.6791 104.007C24.0414 104.007 21.4036 104.027 18.7659 104.051C16.0898 104.075 13.4186 104.065 10.7473 104.094C9.45717 104.108 8.17188 104.137 6.8818 104.156C6.22477 104.166 5.56293 104.175 4.90111 104.19C4.62774 104.194 4.35437 104.199 4.081 104.209C4.02825 101.873 3.98029 99.5372 3.92753 97.2013C3.80764 91.8582 3.70694 86.5103 3.58704 81.1623C3.50072 77.2485 3.4 73.3395 3.2801 69.4305C3.20816 67.2098 3.16499 64.9843 3.12183 62.7636C3.12183 62.8211 3.12183 62.8787 3.12183 62.941C3.09785 61.7276 3.06908 60.5093 3.04031 59.2958C3.02113 58.586 3.00675 57.8761 2.99236 57.1662C2.97798 56.4564 2.96358 55.7465 2.95399 55.0367C2.9444 54.3988 2.93481 53.756 2.93001 53.1181C2.93001 52.6961 2.92041 52.274 2.92041 51.8519C2.91082 50.7775 2.90122 49.6983 2.88204 48.624C2.87724 48.2594 2.87246 47.8949 2.86287 47.5256C2.81011 44.8972 2.76215 42.2688 2.71419 39.6452V39.6356C2.69022 38.3166 2.68541 37.0024 2.67582 35.6834C2.67582 35.2757 2.67101 34.868 2.66622 34.4651C2.66622 34.1726 2.65665 33.8752 2.65665 33.5826C2.65665 33.5778 2.65665 33.573 2.65665 33.5634C2.65185 33.0214 2.64224 32.4794 2.63744 31.9423C2.62785 30.6952 2.64705 29.4529 2.64705 28.2107C2.64705 27.3425 2.64706 26.4744 2.66145 25.6015C2.59431 23.8029 2.51756 22.009 2.44083 20.2104C2.40246 19.3279 2.3641 18.4453 2.33053 17.5628C2.31614 17.1887 2.31135 16.8194 2.30176 16.4453C2.38329 15.3373 2.50797 14.2294 2.68062 13.131C3.1698 9.5961 4.86752 6.87176 7.46688 4.84291C10.848 3.20256 14.747 2.91958 18.4686 2.6318C18.4686 2.6318 18.4734 2.6318 18.4782 2.6318C19.2887 2.67017 20.0992 2.70852 20.9145 2.7373C24.9046 2.8764 28.9044 2.90997 32.9041 2.91957C34.5299 2.91957 36.1509 2.92437 37.7767 2.92437C40.1651 2.92437 42.5534 2.92436 44.9418 2.91957C49.0182 2.91957 53.0947 2.90037 57.1712 2.88119C61.2189 2.862 65.2714 2.85722 69.3191 2.83324C73.4387 2.80446 77.5584 2.78528 81.6828 2.75651C85.7689 2.72293 89.8597 2.67974 93.9506 2.67015C95.9937 2.66535 98.0415 2.66057 100.085 2.65577C101.106 2.65577 102.128 2.65577 103.149 2.65097C103.955 2.65097 104.77 2.62218 105.576 2.64137C105.605 2.64137 105.643 2.64617 105.676 2.64617H105.7C105.844 2.65576 105.988 2.62219 106.123 2.55984C106.832 2.58862 107.547 2.6174 108.257 2.65097C109.758 2.85721 111.278 2.93395 112.75 3.30327C115.086 4.08507 116.937 6.26263 118.011 8.41619C118.654 9.85509 118.841 11.3995 118.899 12.9583C118.884 13.5866 118.879 14.215 118.865 14.8385C118.841 15.7498 118.832 16.6611 118.788 17.5724C118.788 17.5772 118.788 17.582 118.788 17.5916C115.839 17.4669 112.87 18.1623 110.352 19.6108V19.6013C110.228 19.678 110.108 19.7547 109.988 19.8315C109.863 19.913 109.739 19.9946 109.614 20.0809C109.547 20.1241 109.48 20.172 109.408 20.2152C109.374 20.2392 109.336 20.2632 109.302 20.2919C109.12 20.4166 108.938 20.551 108.76 20.6852C108.736 20.7044 108.707 20.7236 108.683 20.7428C108.683 20.7428 108.683 20.7428 108.674 20.7476C108.674 20.7476 108.669 20.7476 108.664 20.7524C108.66 20.7572 108.655 20.762 108.645 20.7668C108.64 20.7716 108.636 20.7764 108.626 20.7812C108.602 20.8003 108.573 20.8195 108.549 20.8387C106.971 22.1145 105.667 23.7405 104.789 25.707C104.693 25.5919 104.583 25.4816 104.463 25.3713C104.449 25.3617 104.434 25.3521 104.425 25.3377C102.012 23.1841 95.7107 22.0522 92.9004 22.9971C88.8047 24.3113 85.4236 27.8654 84.474 32.0718C83.9704 34.7337 84.2822 37.4533 85.0015 40.0433C85.2221 41.0169 85.5147 41.9762 86.0758 42.8156C86.0566 42.8635 86.0374 42.9115 86.0279 42.9642C86.071 43.0074 86.1142 43.0506 86.1573 43.089C86.3396 43.2616 86.517 43.4391 86.6849 43.6261L86.7233 43.6741C86.9391 43.7365 87.1501 43.818 87.3803 43.6693C94.1281 44.0626 100.885 44.1106 107.643 44.1538C107.691 44.1538 107.734 44.1538 107.777 44.1538C107.974 44.149 108.17 44.1442 108.367 44.1442C108.52 44.1442 108.674 44.1442 108.827 44.149C109 44.149 109.177 44.1585 109.355 44.1585C109.388 44.1585 109.422 44.1585 109.456 44.1585C109.494 44.1585 109.528 44.1585 109.561 44.1585H109.6C109.671 44.1489 109.743 44.1489 109.815 44.1633C112.223 44.1825 114.626 44.2017 117.028 44.2401C117.575 44.2497 118.117 44.2545 118.659 44.2593C118.621 45.3672 118.582 46.4752 118.553 47.5831C118.481 50.7247 118.486 53.8664 118.505 57.008C118.529 60.5333 118.592 64.0538 118.654 67.5791C118.716 71.3059 118.784 75.0326 118.832 78.7594C118.88 82.4382 118.98 86.1218 119.023 89.8006C119.067 93.5369 119.11 97.2781 119.119 101.014L119.114 101.01Z" fill="#FFB0B4"/>
</svg>
