<svg width="154" height="160" viewBox="0 0 154 160" fill="none" xmlns="http://www.w3.org/2000/svg">
<path d="M1.30013 42.3951C1.0584 37.9284 1.08993 33.4145 0.900748 28.932C0.779883 24.3918 0.343712 19.8253 0.82717 15.2903C1.31588 10.3455 3.2655 5.5898 7.77427 3.05169C8.10008 2.85726 8.54148 2.59975 9.03545 2.34752C9.06698 2.33701 9.10377 2.32653 9.1353 2.31076C9.45585 2.20041 9.78168 2.09003 10.1075 1.98493C10.0917 1.98493 10.0759 1.99546 10.0602 2.00071C10.3439 1.91663 10.6225 1.82205 10.9062 1.74849C11.211 1.66966 11.5158 1.57507 11.8206 1.51201C12.0255 1.46472 12.2305 1.41741 12.4407 1.37012C12.7507 1.4069 13.0293 1.5015 13.2552 1.67491C13.5653 2.01648 13.5547 2.74164 13.1081 2.97285C12.5721 3.17779 12.0098 3.33021 11.5 3.59296C7.09111 5.8368 4.15884 9.30501 3.47044 14.2814C2.56658 20.046 2.95543 25.9105 3.21292 31.7119C3.31802 35.2642 3.75945 38.8585 3.58078 42.4003C3.42313 43.0887 2.92917 43.4408 2.44045 43.4408C1.95174 43.4408 1.47355 43.0992 1.30539 42.4003L1.30013 42.3951Z" fill="#050505"/>
<path d="M35.7624 3.37221C31.4953 3.3617 27.2177 3.32491 22.9507 3.17252C20.8435 3.09895 18.7362 2.97808 16.6342 2.87299C15.6305 2.82044 14.6216 2.78892 13.6126 2.75739C13.1134 2.74163 12.6142 2.72587 12.1097 2.6996C11.868 2.68909 11.6262 2.6733 11.3897 2.64703C11.1638 2.62075 10.9484 2.58922 10.7644 2.44734C10.591 2.31071 10.5122 2.09002 10.5174 1.86406C10.6488 1.82727 10.7749 1.79051 10.901 1.75372C11.2058 1.6749 11.5106 1.58031 11.8154 1.51725C12.136 1.44893 12.4512 1.36484 12.7718 1.30704C13.0871 1.24923 13.4077 1.19142 13.723 1.13362L13.6547 1.14414C13.9437 1.09684 14.2327 1.0548 14.527 1.01277C14.7319 0.986491 14.9421 0.954976 15.1471 0.928701C15.7304 0.902427 16.3189 0.876134 16.9075 0.844605C19.083 0.723743 21.2534 0.602883 23.4289 0.518804C27.6539 0.361158 31.8842 0.319133 36.1145 0.303368C40.4498 0.282348 44.7852 0.271835 49.1205 0.26658C53.4874 0.261325 57.8543 0.266585 62.2264 0.27184C66.5565 0.277095 70.8814 0.271823 75.2115 0.287588C79.6152 0.303353 84.0136 0.313876 88.4121 0.334896C92.7001 0.355916 96.9829 0.387432 101.271 0.387432C103.415 0.387432 105.559 0.387432 107.703 0.387432C108.765 0.387432 109.826 0.387432 110.893 0.387432C111.213 0.387432 111.529 0.387432 111.855 0.387432C112.37 0.392687 112.89 0.397942 113.41 0.387432C113.447 0.382177 113.484 0.376912 113.526 0.376912H113.547C113.83 0.350638 114.072 0.471521 114.261 0.660697C114.45 0.844618 114.582 1.09683 114.64 1.36483C114.655 1.42264 114.661 1.47519 114.666 1.52773V1.53825C114.676 1.60131 114.676 1.6591 114.676 1.72216C114.676 2.09001 114.556 2.46836 114.303 2.74161C114.114 2.94655 113.825 3.09369 113.541 3.07267H113.52C113.484 3.07267 113.447 3.0727 113.41 3.06745C112.548 3.04643 111.681 3.07793 110.819 3.07793C109.732 3.07793 108.638 3.07794 107.545 3.08319C105.359 3.08845 103.173 3.09372 100.987 3.09897C96.615 3.11474 92.2482 3.15677 87.876 3.19356C83.4724 3.22509 79.0687 3.24609 74.665 3.27762C70.3401 3.3039 66.0101 3.31443 61.6852 3.33019C57.3288 3.34596 52.9777 3.36695 48.6213 3.36695C46.0674 3.36695 43.5187 3.37221 40.9648 3.37221C39.2307 3.37221 37.4965 3.3722 35.7624 3.36695V3.37221Z" fill="#050505"/>
<path d="M9.11968 2.84586C10.2548 2.29935 11.4844 1.96305 12.7246 1.7476C14.4745 1.46384 16.2559 1.59519 18.0164 1.75809C15.2207 2.67244 12.2674 3.46594 9.31411 3.70767C8.87795 3.68139 8.70979 3.02978 9.11968 2.84586Z" fill="#050505"/>
<path d="M10.5597 2.28902C13.3869 1.92118 16.2246 1.47979 19.078 1.4903C19.7612 1.5481 20.4969 1.66896 21.117 1.88441C20.0292 2.39414 18.8521 2.67262 17.6487 2.67788C15.2892 2.7094 12.8929 3.12979 10.5597 3.16658C10.1551 3.08775 10.1551 2.36784 10.5597 2.28902Z" fill="#050505"/>
<path d="M11.1007 2.81393C13.1554 2.31471 15.2836 2.19387 17.3804 1.94689C20.0604 1.62634 22.7983 1.7104 25.4415 1.93111C20.6542 3.04515 15.704 2.82443 10.9062 3.66522C10.4333 3.49181 10.6225 2.8402 11.1059 2.81393H11.1007Z" fill="#050505"/>
<path d="M126.695 9.2305C125.549 6.92885 123.568 4.60618 121.072 3.76539C118.807 3.19787 116.442 3.2767 114.183 2.66188C111.093 2.43592 107.95 2.62509 104.897 2.23098C104.393 2.22047 104.393 1.28509 104.897 1.27458C106.826 0.82266 108.807 0.559905 110.798 0.475827C112.627 0.344455 114.456 0.270915 116.274 0.570443C119.065 0.75962 122.217 0.46533 124.43 2.52525C127.693 5.0476 129.785 8.86789 129.837 13.0245C129.842 13.1191 129.848 13.2137 129.853 13.3083C129.102 13.755 128.371 14.2384 127.667 14.7691C127.625 12.8721 127.472 10.9751 126.695 9.22524V9.2305Z" fill="#050505"/>
<path d="M127.672 14.7755C127.672 14.7755 127.7 14.7538 127.71 14.7484C127.7 14.7593 127.683 14.7701 127.672 14.7755Z" fill="#050505"/>
<path d="M119.753 3.20894C117.567 3.13537 115.375 3.03027 113.184 2.94619C112.622 2.91992 112.054 2.88315 111.497 2.76755C111.082 2.68347 111.082 1.94776 111.497 1.85843C113.252 1.56941 115.055 1.62723 116.826 1.57993C117.761 1.55366 118.696 1.54314 119.626 1.56941C120.105 1.51161 120.567 1.79012 120.599 2.29459C120.667 2.75177 120.341 3.22472 119.879 3.22472C119.837 3.22472 119.789 3.2247 119.742 3.20894H119.753Z" fill="#050505"/>
<path d="M5.66206 6.15772C5.66206 5.86345 5.85122 5.54817 6.13499 5.51664C10.8014 1.31272 18.5683 0.235461 24.5537 1.56495C24.9952 1.65428 25.4996 1.71211 25.9095 1.81721C24.0282 2.17979 22.1575 2.57391 20.3445 2.73155C15.7201 3.06261 10.6228 3.4725 6.85495 6.44677C6.66578 6.66747 6.41353 6.79357 6.19282 6.79357C5.91431 6.79357 5.68308 6.59914 5.66206 6.16298V6.15772Z" fill="#050505"/>
<path d="M4.74767 8.1795C3.69668 7.61723 5.22586 6.30349 5.71983 5.83055C8.87808 3.09275 13.1031 2.26248 17.1389 1.82632C20.3129 1.35338 23.5605 1.1432 26.6767 2.07332C24.8112 2.67763 22.7828 2.98767 20.8016 3.02445C15.9881 3.40806 10.8539 3.69181 6.73404 6.48741C6.17701 6.90255 5.60947 7.31243 5.18381 7.86945C5.13126 8.03761 4.97362 8.18476 4.80021 8.18476C4.77919 8.18476 4.76343 8.18476 4.74241 8.1795H4.74767Z" fill="#050505"/>
<path d="M129.038 141.895H129.028C129.028 141.895 129.007 141.895 129.002 141.895C128.765 141.885 128.576 141.775 128.434 141.612C128.402 141.575 128.371 141.538 128.339 141.496C128.219 141.317 128.161 141.118 128.14 140.913C128.129 140.855 128.124 140.797 128.124 140.745V140.718C128.124 140.681 128.124 140.645 128.124 140.603C128.134 140.245 128.119 139.883 128.113 139.525C128.108 138.622 128.098 137.712 128.087 136.803C128.071 134.933 128.061 133.057 128.024 131.186C127.987 129.273 127.987 127.36 127.961 125.448C127.935 123.577 127.94 121.706 127.924 119.835C127.898 115.952 127.877 112.063 127.866 108.175C127.856 104.181 127.809 100.187 127.761 96.1936C127.714 92.2629 127.609 88.327 127.556 84.3963C127.504 80.4131 127.43 76.4299 127.367 72.452C127.304 68.6895 127.236 64.927 127.21 61.1592C127.189 57.8013 127.183 54.4435 127.262 51.0908C127.294 49.7666 127.336 48.4424 127.388 47.1181C127.388 47.0866 127.388 47.0551 127.388 47.0236C127.63 47.013 127.866 46.9973 128.108 46.9763C128.077 46.9763 128.045 46.9762 128.014 46.9815C128.113 46.9762 128.213 46.9657 128.313 46.9552L128.828 46.9184C128.886 46.9184 128.944 46.908 128.996 46.908C129.049 47.8381 129.101 48.7629 129.138 49.6615C129.285 52.9353 129.354 56.2091 129.411 59.4882C129.474 63.2349 129.48 66.9816 129.48 70.7284C129.48 74.6853 129.474 78.6422 129.49 82.5992C129.511 86.5666 129.49 90.5341 129.495 94.4963C129.506 98.4427 129.559 102.394 129.59 106.341C129.622 110.319 129.7 114.297 129.748 118.275C129.795 121.995 129.827 125.716 129.863 129.436C129.884 131.37 129.874 133.304 129.89 135.237C129.905 136.898 129.916 138.559 129.937 140.219C129.937 140.35 129.937 140.482 129.937 140.613C129.937 140.655 129.942 140.697 129.942 140.739C129.942 140.75 129.942 140.76 129.942 140.766C129.953 141.07 129.821 141.412 129.595 141.643C129.448 141.796 129.259 141.895 129.022 141.901L129.038 141.895Z" fill="#050505"/>
<path d="M112.67 158.764C112.291 158.732 111.887 158.743 111.477 158.753C110.452 158.774 109.391 158.795 108.581 158.201C108.345 157.96 108.45 157.355 108.844 157.382C109.848 157.156 110.894 157.093 111.913 156.935C117.194 156.41 124.026 155.853 126.438 150.314C127.578 147.224 128.267 143.903 128.314 140.608C128.34 139.783 128.056 138.532 129.113 138.249C129.501 138.191 129.775 138.37 129.953 138.643C129.953 139.741 129.953 140.839 129.98 141.938C129.99 142.474 130.006 143.01 130.027 143.54C130.001 143.729 129.969 143.924 129.943 144.113C129.239 147.555 128.708 151.155 126.417 153.898C123.295 157.55 118.166 158.779 113.495 158.779C113.216 158.779 112.943 158.78 112.67 158.769V158.764Z" fill="#050505"/>
<path d="M128.813 145.044C128.282 143.126 128.303 141.134 128.151 139.169C128.219 138.512 127.672 137.33 128.471 137.015C129.355 136.957 129.045 138.654 129.176 139.237C129.307 141.197 129.344 143.142 128.818 145.044H128.813Z" fill="#050505"/>
<path d="M128.429 144.682C128.05 143.231 128.139 141.739 128.302 140.262C128.35 139.858 128.387 139.448 128.434 139.049C128.476 138.896 128.581 138.749 128.755 138.749C129.344 138.88 129.044 139.874 129.086 140.32C129.049 141.797 129.044 143.31 128.439 144.682H128.429Z" fill="#050505"/>
<path d="M128.65 145.443C128.309 143.525 128.093 141.523 128.245 139.579C128.414 139.101 129.013 139.306 128.987 139.768C129.145 141.655 129.355 143.615 128.656 145.443C128.656 145.443 128.656 145.443 128.65 145.443Z" fill="#050505"/>
<path d="M128.387 145.66C128.324 143.49 128.197 141.403 128.25 139.249C128.266 139.044 128.418 138.823 128.65 138.87C128.776 138.892 128.876 139.002 128.912 139.117C129.091 139.89 129.033 140.704 129.086 141.493C129.165 142.917 128.897 144.336 128.392 145.67C128.392 145.67 128.392 145.67 128.392 145.665L128.387 145.66Z" fill="#050505"/>
<path d="M128.555 140.058C128.503 138.434 128.277 136.789 128.419 135.166C128.492 134.782 129.002 134.771 129.071 135.166C129.197 136.411 129.333 137.641 129.428 138.886C129.565 141.035 129.98 143.437 128.808 145.35C128.518 143.6 128.708 141.813 128.555 140.058Z" fill="#050505"/>
<path d="M128.329 138.291C128.292 137.781 128.276 137.287 128.276 136.772C128.276 136.583 128.397 136.357 128.608 136.357C128.818 136.357 128.944 136.583 128.939 136.772C128.913 137.34 129.081 137.886 129.144 138.444C129.286 140.834 129.633 143.451 128.376 145.595C127.982 143.178 128.497 140.724 128.329 138.286V138.291Z" fill="#050505"/>
<path d="M128.408 144.265C128.024 143.267 128.245 142.127 128.345 141.118C128.393 140.324 128.366 139.526 128.366 138.732C128.392 137.933 128.314 137.093 128.429 136.31C128.55 135.894 129.066 135.936 129.15 136.352C129.239 137.96 129.26 139.583 129.276 141.197C129.26 142.279 129.15 143.419 128.414 144.276C128.414 144.276 128.414 144.276 128.408 144.276V144.265Z" fill="#050505"/>
<path d="M128.387 145.181C127.898 143.925 128.187 142.721 128.303 141.444C128.398 139.999 128.303 138.554 128.35 137.104C128.361 136.762 128.382 136.058 128.887 136.168C129.339 136.421 129.055 137.104 129.155 137.514C129.276 139.101 129.355 140.646 129.344 142.222C129.355 143.289 129.176 144.392 128.392 145.175L128.387 145.181Z" fill="#050505"/>
<path d="M128.661 145.302C128.434 142.89 128.193 140.421 128.445 138.019C128.571 137.557 128.308 135.365 129.065 135.665C129.234 135.765 129.276 135.991 129.234 136.154C129.034 139.202 129.402 142.318 128.671 145.308C128.671 145.308 128.671 145.308 128.671 145.302H128.661Z" fill="#050505"/>
<path d="M128.272 138.097C128.261 137.913 128.293 137.719 128.44 137.598C130.007 136.799 128.219 144.781 128.046 145.506C127.877 143.016 128.051 140.567 128.272 138.097Z" fill="#050505"/>
<path d="M19.1249 158.512C19.0303 158.307 18.941 158.097 18.8359 157.897C18.7413 157.713 18.6415 157.535 18.5469 157.351C18.5259 157.314 18.5101 157.277 18.4891 157.241C19.0934 157.241 19.6977 157.235 20.3073 157.23C24.6269 157.22 28.9517 157.193 33.2713 157.183C37.675 157.172 42.084 157.156 46.4876 157.146C50.9806 157.135 55.4737 157.109 59.9667 157.083C64.3231 157.057 68.6847 157.057 73.0411 157.057C77.3975 157.057 81.6067 157.036 85.8947 157.036C90.1828 157.036 94.5602 157.051 98.8903 157.057C103.021 157.062 107.146 157.051 111.276 157.004C111.623 157.004 111.975 156.994 112.327 156.988C112.49 156.988 112.658 156.988 112.827 156.988C112.874 156.978 112.926 156.967 112.979 156.967C112.984 156.967 112.995 156.967 113.005 156.967H113.063C113.194 156.967 113.31 157.009 113.41 157.078C113.431 157.088 113.447 157.104 113.468 157.114C113.673 157.272 113.772 157.53 113.788 157.787C113.809 158.097 113.715 158.433 113.462 158.617C113.441 158.633 113.426 158.644 113.405 158.654C113.315 158.717 113.21 158.754 113.095 158.759C113.058 158.759 113.016 158.764 112.974 158.764C112.921 158.764 112.869 158.759 112.821 158.743C112.648 158.743 112.469 158.743 112.296 158.743C112.191 158.743 112.086 158.743 111.98 158.743C111.555 158.743 111.129 158.738 110.704 158.738C109.7 158.738 108.691 158.738 107.687 158.738C105.601 158.738 103.509 158.728 101.423 158.738C97.0879 158.77 92.7578 158.822 88.4224 158.849C84.1554 158.87 79.8831 158.885 75.6108 158.906C71.2491 158.927 66.8928 158.969 62.5311 158.975C58.0539 158.98 53.5766 158.975 49.0993 158.985C44.7009 158.996 40.3078 159.006 35.9041 159.027C31.5319 159.048 27.1598 159.048 22.7929 159.059C21.6631 159.059 20.528 159.069 19.3929 159.069C19.3089 158.88 19.2143 158.691 19.1302 158.502L19.1249 158.512Z" fill="#050505"/>
<path d="M59.6883 112.547C59.4834 112.137 59.2574 111.727 59.0052 111.344C60.8444 111.328 62.6837 111.312 64.5282 111.296C69.8094 111.254 75.0854 111.186 80.3614 111.144C85.5428 111.097 90.7243 111.033 95.9057 110.981C101.029 110.923 106.158 110.839 111.282 110.792C116.342 110.744 121.408 110.697 126.469 110.681C126.563 110.681 126.663 110.681 126.758 110.681C126.926 110.681 127.094 110.681 127.262 110.681C127.294 110.681 127.325 110.676 127.357 110.676C127.378 110.676 127.404 110.676 127.425 110.676H127.441C127.483 110.676 127.525 110.681 127.572 110.687C127.919 110.771 128.14 111.123 128.171 111.48C128.208 111.901 127.982 112.437 127.52 112.51C127.446 112.521 127.373 112.521 127.299 112.521C127.267 112.521 127.236 112.521 127.21 112.515C127.136 112.515 127.068 112.515 126.994 112.515L126.106 112.526C125.512 112.536 124.918 112.542 124.325 112.547C123.058 112.563 121.792 112.568 120.525 112.578C117.992 112.594 115.459 112.62 112.927 112.636C107.798 112.673 102.669 112.678 97.5347 112.699C92.3376 112.72 87.1351 112.741 81.9327 112.783C76.6777 112.82 71.4227 112.846 66.1625 112.883C64.0657 112.899 61.969 112.915 59.8775 112.93C59.8145 112.799 59.7514 112.673 59.6883 112.542V112.547Z" fill="#050505"/>
<path d="M1.44798 55.317C1.43747 51.523 1.41122 47.7237 1.43749 43.9296C1.448 42.5791 1.46901 41.2286 1.49529 39.8781C1.51631 38.7904 1.5268 37.7078 1.60562 36.6253C1.62139 36.4204 1.78429 36.205 1.99975 36.205C2.22571 36.205 2.36759 36.4257 2.39387 36.6306C2.56203 38.0915 2.61985 39.5681 2.70919 41.0342C2.81954 42.8787 2.9036 44.7231 2.98242 46.5676C3.15584 50.514 3.303 54.4657 3.43438 58.4121C3.49218 60.204 3.54996 62.0012 3.60777 63.7931C3.4869 63.8877 3.3713 63.9928 3.25569 64.0979C2.90886 64.4237 2.56729 64.8126 2.29928 65.2225C2.03653 65.4642 1.78429 65.7112 1.5373 65.9686C1.49526 62.4163 1.45849 58.864 1.44798 55.3117V55.317Z" fill="#050505"/>
<path d="M2.1199 63.0566C2.03582 59.5043 2.00953 55.952 1.978 52.3945C1.94647 48.7739 1.94122 45.1479 1.9202 41.5273C1.90444 37.8331 1.84663 34.1442 1.9202 30.4553C1.95699 28.5688 1.98852 26.677 2.02531 24.7905C2.06209 22.883 2.11463 20.9755 2.1409 19.0679C2.15141 18.1746 2.1409 17.2813 2.17243 16.3932C2.18294 16.1725 2.2933 15.915 2.54029 15.873C2.79778 15.8257 3.00271 16.0832 3.01848 16.3249C3.07103 17.2235 3.0763 18.1273 3.10783 19.0259C3.14462 19.9665 3.18139 20.9124 3.22343 21.853C3.30751 23.7921 3.39159 25.7311 3.45991 27.6702C3.52297 29.5252 3.61757 31.3801 3.66486 33.2351C3.71216 35.0796 3.74369 36.924 3.76471 38.7738C3.80675 42.3891 3.8908 46.0045 3.9381 49.6199C3.98539 53.1879 4.03271 56.756 4.05899 60.3241C4.06424 61.3751 4.05899 62.4313 4.05899 63.4875C3.77522 63.6662 3.5072 63.8711 3.26022 64.1076C2.91339 64.4334 2.57181 64.8223 2.30381 65.2322C2.26177 65.269 2.21447 65.311 2.17243 65.353C2.15667 64.5858 2.14092 63.8238 2.12516 63.0566H2.1199Z" fill="#050505"/>
<path d="M1.94641 46.2672C1.90435 44.9903 1.86228 43.7186 1.84124 42.4417C1.68876 42.284 1.69928 42.0161 1.84124 41.8531C1.84124 41.5694 1.87278 41.0859 2.26188 41.1227C2.45643 41.1595 2.54058 41.3592 2.54583 41.5378C2.5248 43.0933 2.64574 44.6435 2.651 46.1989C2.65626 46.4774 2.47223 46.6298 2.2882 46.6298C2.13045 46.6298 1.9727 46.5142 1.94641 46.262V46.2672Z" fill="#050505"/>
<path d="M2.37253 47.1654C2.17798 46.5926 0.947593 40.313 2.13065 40.8647C2.27788 40.9488 2.33045 41.1275 2.3252 41.2904C2.525 43.24 2.5776 45.221 2.37779 47.1654H2.37253Z" fill="#050505"/>
<path d="M65.3896 70.1668C64.7117 70.1668 64.3123 69.4416 64.3123 68.8373C64.3123 68.5483 64.2913 68.2592 64.2808 67.9702C64.2545 67.1715 64.2335 66.3675 64.223 65.5687C64.1967 63.8294 64.2177 62.09 64.223 60.3559C64.2335 58.564 64.2703 56.7773 64.2597 54.9854C64.2492 53.0726 64.244 51.1546 64.3123 49.2366C64.3439 48.338 64.3964 47.4446 64.4542 46.5513C64.4805 46.1572 64.5067 45.7631 64.5383 45.369C64.5698 45.0116 64.6119 44.5807 64.8273 44.2812C65.0743 43.9396 65.5209 43.9239 65.7732 44.2707C66.0202 44.6122 66.0517 45.0957 66.0885 45.5003C66.1306 45.9575 66.1568 46.4147 66.1936 46.8719C66.2672 47.9071 66.3249 48.9475 66.3565 49.9827C66.4143 51.8693 66.4143 53.761 66.4195 55.6528C66.4353 59.1578 66.5667 62.6628 66.5142 66.1625C66.5036 66.8247 66.4879 67.4815 66.4721 68.1436C66.4669 68.3696 66.4511 68.5956 66.4511 68.8163C66.4511 69.4259 66.0832 70.1615 65.3948 70.172H65.3843L65.3896 70.1668Z" fill="#050505"/>
<path d="M56.1883 59.2581C55.9834 58.7589 56.2094 58.2386 56.4196 57.7867C56.6087 57.3821 56.8084 56.988 57.0186 56.5939C57.4128 55.8529 57.8279 55.1225 58.1589 54.5497C58.9104 53.236 59.6776 51.9328 60.4711 50.6401C61.4013 49.1214 62.4154 47.6553 63.4034 46.1734C63.6766 45.7635 63.9499 45.3536 64.2285 44.9437C64.3283 44.7966 64.4334 44.6548 64.4702 44.6075C64.5963 44.3973 64.7434 44.2133 64.9799 44.1188C65.2636 44.0084 65.5737 44.0609 65.8102 44.2449C66.2884 44.6127 66.4408 45.4272 66.1413 45.9527C66.1413 45.9527 66.1307 45.979 66.1255 45.9895C66.1045 46.0158 66.0887 46.0473 66.073 46.0788C66.0204 46.1734 65.9626 46.268 65.9626 46.2627C65.4581 47.1456 64.9431 48.0231 64.4596 48.8692C63.5978 50.3773 62.7045 51.8644 61.7691 53.3253C61.0019 54.5182 60.2084 55.7005 59.4044 56.8619C59.0102 57.4347 58.6109 58.0022 58.2325 58.5067C58.0118 58.7957 57.7964 59.0899 57.5494 59.3527C57.418 59.4946 57.2866 59.6049 57.1184 59.6942C57.0344 59.7363 56.9503 59.7573 56.8662 59.7573C56.5772 59.7573 56.3144 59.5261 56.1988 59.2528L56.1883 59.2581Z" fill="#050505"/>
<path d="M73.961 61.0921C73.6614 61.0868 73.3619 60.9029 73.2095 60.6402C73.2095 60.6402 73.2095 60.6297 73.2095 60.6349C72.5263 59.5104 71.88 58.3595 71.2389 57.214C70.5347 55.9581 69.8305 54.6916 69.1369 53.4252C68.5273 52.3112 67.944 51.1814 67.3659 50.0516C66.7879 48.9112 66.1888 47.7762 65.7527 46.7199C65.5688 46.2838 65.327 45.8739 65.1431 45.443C65.0117 45.1382 64.9013 44.8124 64.9381 44.4866C64.9434 44.413 64.9591 44.3395 64.9854 44.2659C64.9854 44.2554 64.9959 44.2396 65.0012 44.2239C65.017 44.1923 65.0274 44.1608 65.0485 44.1293C65.1325 43.9769 65.2902 43.8192 65.4794 43.7982C65.9051 43.7562 66.1573 44.124 66.378 44.4288C66.6355 44.7756 66.8247 45.1698 67.0717 45.5271C67.4973 46.1262 67.8862 46.762 68.2698 47.3873C69.0685 48.701 69.8621 50.0253 70.6188 51.36C71.3282 52.6107 72.0219 53.8666 72.7103 55.1278C73.3987 56.3942 74.0871 57.6554 74.7439 58.9376L74.807 59.0689C75.096 59.6049 75.0802 60.3249 74.6388 60.7873C74.4654 60.966 74.2342 61.0816 73.9872 61.0816H73.9767L73.961 61.0921Z" fill="#050505"/>
<path d="M68.9476 52.6366C67.7863 50.8237 66.6827 48.9845 65.6002 47.14C65.3953 46.872 65.4005 46.336 65.8157 46.2939C66.3675 46.4358 66.6039 47.2661 66.8982 47.7128C67.7074 49.2997 68.3643 50.9761 68.9529 52.6419L68.9476 52.6366Z" fill="#050505"/>
<path d="M59.7821 78.2957C57.5855 78.2221 55.3995 78.1117 53.2134 77.8647C51.3636 77.6861 49.0514 77.2237 48.3525 75.2478C47.559 72.4312 47.4171 69.4359 47.3067 66.5299C47.375 65.5841 48.5049 64.964 49.1197 65.8678C49.372 66.2357 49.4771 66.6928 49.598 67.1185C50.2548 69.2467 50.3126 71.4906 50.6384 73.6766C50.9222 74.9378 54.0069 74.8011 55.0999 75.0324C61.0801 75.5841 67.0812 75.3371 73.0719 75.2951C80.6023 75.4212 81.4904 75.9677 81.1594 67.891C81.2014 66.6561 80.4289 64.3439 82.2103 64.0812C83.9182 64.3071 83.2666 66.6613 83.5136 67.8699C83.6975 73.8868 83.5241 78.2694 76.1671 77.9856C73.8181 77.9646 71.4744 78.0697 69.1254 78.1695C66.9709 78.2641 64.8164 78.3587 62.6618 78.3587C61.7002 78.3587 60.7385 78.3377 59.7769 78.2957H59.7821Z" fill="#050505"/>
<path d="M52.2056 131.745C51.9743 131.498 51.7011 131.288 51.4278 131.083C51.4804 131.051 51.5329 131.014 51.5802 130.983C52.1425 130.678 52.689 130.352 53.2355 130.021C53.246 130.909 53.1777 131.855 52.5997 131.855C52.4893 131.855 52.3632 131.818 52.2108 131.745H52.2056Z" fill="#050505"/>
<path d="M59.462 128.432C59.462 128.085 59.483 127.738 59.4883 127.392C59.4883 127.082 59.4883 126.766 59.4883 126.451C59.604 126.335 59.7249 126.215 59.8406 126.094C60.1456 125.778 60.4505 125.463 60.7397 125.143C60.7555 125.211 60.766 125.29 60.7765 125.369C60.7765 126.251 61.4285 129.262 60.1823 129.32C59.7196 129.32 59.4673 128.832 59.4673 128.427L59.462 128.432Z" fill="#050505"/>
<path d="M61.8583 128.369C62.3838 127.534 63.7974 127.087 63.8237 125.942C63.5242 125.537 62.9146 125.91 62.6098 126.136C62.3575 126.273 62.058 126.136 61.9634 125.858C61.79 125.348 62.1579 124.896 62.5625 124.623C65.0218 123.167 65.8837 126.525 64.3124 128.07C64.407 128.08 64.5068 128.075 64.6067 128.07C64.8957 128.07 65.1952 128.059 65.3949 128.296C65.7838 128.716 65.6104 129.61 64.964 129.646C64.7118 129.61 64.3649 129.625 63.9918 129.636C63.7921 129.646 63.582 129.652 63.377 129.652C62.4311 129.652 61.5641 129.483 61.8583 128.369Z" fill="#050505"/>
<path d="M66.3987 128.652C65.9993 128.122 65.8154 127.491 65.7891 126.834C65.7786 126.403 65.8312 125.978 65.9521 125.604C65.9521 125.583 65.9625 125.568 65.9678 125.552L65.9783 125.531C66.0834 125.242 66.22 124.963 66.4197 124.722C66.5248 124.601 66.6299 124.49 66.756 124.391C66.9242 124.254 67.1081 124.18 67.2395 124.159C67.3236 124.138 67.4077 124.117 67.4917 124.102C67.5653 124.049 67.6547 124.023 67.7282 124.017H67.7597C67.7597 124.017 67.7913 124.017 67.807 124.017C67.8175 124.017 67.8281 124.017 67.8386 124.017C68.0383 124.028 68.2274 124.065 68.4166 124.149C68.7687 124.301 69.0472 124.585 69.2574 124.9C69.62 125.447 69.7566 126.146 69.7409 126.787C69.7304 127.16 69.6621 127.522 69.5412 127.875C69.3047 128.526 68.8738 129.178 68.1644 129.367C68.0383 129.398 67.9174 129.414 67.7913 129.414C67.2448 129.414 66.7298 129.109 66.404 128.663L66.3987 128.652ZM67.6756 125.415C67.6756 125.415 67.6599 125.426 67.6547 125.431C67.5916 125.489 67.5286 125.547 67.4655 125.61C67.4287 125.657 67.3866 125.704 67.3551 125.757C67.3288 125.804 67.2973 125.857 67.2711 125.904C67.2448 125.962 67.2185 126.025 67.1975 126.088C67.1765 126.156 67.1607 126.225 67.1397 126.293C67.1292 126.361 67.1186 126.435 67.1081 126.503C67.1081 126.577 67.1029 126.655 67.1029 126.729C67.1029 126.792 67.1134 126.86 67.1186 126.929C67.1292 126.992 67.1449 127.06 67.1607 127.128C67.1764 127.186 67.1922 127.239 67.2132 127.291C67.2342 127.339 67.2552 127.386 67.2815 127.433C67.2973 127.465 67.3183 127.491 67.3393 127.522C67.3603 127.549 67.3814 127.575 67.4024 127.596C67.4182 127.612 67.4339 127.628 67.4497 127.643C67.4707 127.659 67.497 127.675 67.5233 127.691C67.5391 127.701 67.5548 127.706 67.5758 127.717C67.6021 127.722 67.6231 127.733 67.6494 127.738C67.6704 127.738 67.6967 127.738 67.7177 127.743C67.744 127.743 67.7703 127.743 67.7966 127.738C67.8228 127.727 67.8543 127.722 67.8859 127.712C67.9121 127.701 67.9437 127.685 67.97 127.675C68.0067 127.649 68.0382 127.628 68.075 127.601C68.1066 127.57 68.1381 127.538 68.1696 127.507C68.2064 127.465 68.2327 127.423 68.2642 127.381C68.2905 127.339 68.3115 127.296 68.3378 127.249C68.364 127.197 68.3851 127.144 68.4008 127.092C68.4219 127.034 68.4377 126.976 68.4482 126.918C68.4587 126.855 68.4692 126.787 68.4797 126.718C68.4797 126.708 68.4797 126.697 68.4797 126.692C68.4797 126.624 68.4797 126.556 68.4797 126.487C68.4797 126.429 68.4691 126.366 68.4639 126.309C68.4534 126.24 68.4376 126.172 68.4219 126.109C68.4061 126.062 68.3904 126.009 68.3746 125.962C68.3483 125.904 68.322 125.851 68.2958 125.799C68.2747 125.762 68.2537 125.731 68.2274 125.694C68.2064 125.662 68.1801 125.636 68.1539 125.604C68.1328 125.583 68.1118 125.568 68.0908 125.547L68.0172 125.499C68.0172 125.499 67.9699 125.478 67.9489 125.468C67.9279 125.463 67.9121 125.457 67.8911 125.452C67.8491 125.447 67.807 125.442 67.7703 125.442H67.7597C67.7335 125.442 67.7072 125.442 67.6809 125.431C67.6809 125.431 67.6756 125.431 67.6704 125.431L67.6756 125.415Z" fill="#050505"/>
<path d="M116.691 22.4155C116.691 22.4155 116.691 22.4155 116.684 22.4222C116.684 22.4222 116.684 22.4222 116.691 22.4155Z" fill="#050505"/>
<path d="M116.59 22.9304C116.59 22.7886 116.584 22.6467 116.584 22.5048C116.611 22.4838 116.642 22.4628 116.669 22.4417C116.679 22.4365 116.684 22.4312 116.689 22.426C116.689 22.426 116.705 22.4155 116.711 22.4102C116.711 22.4102 116.716 22.4102 116.721 22.405C116.721 22.405 116.726 22.4049 116.732 22.3997C116.732 22.3997 116.732 22.3997 116.726 22.3997C116.726 22.3997 116.732 22.3944 116.737 22.3892C117.315 21.9583 117.909 21.5536 118.523 21.1753C118.534 21.7586 118.534 22.3419 118.523 22.9252C118.518 23.4664 118.182 24.1285 117.562 24.1285C116.942 24.1285 116.611 23.4717 116.6 22.9252L116.59 22.9304Z" fill="#050505"/>
<path d="M116.689 22.4158C116.689 22.4158 116.695 22.4158 116.701 22.4098C116.701 22.4098 116.701 22.4098 116.695 22.4158H116.689Z" fill="#050505"/>
<path d="M116.71 22.4051C116.71 22.4051 116.716 22.4051 116.722 22.399L116.71 22.4051Z" fill="#050505"/>
<path d="M125.638 47.512C123.068 47.4699 120.499 47.4437 117.929 47.4279C117.85 47.4121 117.771 47.4069 117.698 47.4227C117.608 47.4227 117.519 47.4226 117.435 47.4174C117.246 47.4174 117.056 47.4069 116.873 47.4069C116.499 47.4016 116.126 47.4069 115.753 47.4121C115.706 47.4121 115.659 47.4121 115.611 47.4174C108.391 47.3701 101.176 47.3228 93.9661 46.9024C93.7191 47.0601 93.4984 46.976 93.2672 46.9077C93.2515 46.8919 93.2357 46.8761 93.2251 46.8604C93.0465 46.6607 92.8573 46.4715 92.6629 46.2876C92.6156 46.2456 92.5683 46.1983 92.5263 46.151C92.5368 46.0932 92.5525 46.0406 92.5788 45.9933C91.9797 45.1 91.6697 44.07 91.4332 43.0348C90.666 40.2655 90.3297 37.3595 90.8709 34.5166C91.8851 30.0184 95.5006 26.2244 99.8727 24.8214C102.873 23.8072 109.61 25.0158 112.19 27.3174C112.201 27.3332 112.217 27.3437 112.232 27.3542C112.359 27.4698 112.474 27.5907 112.579 27.7115C113.557 25.5203 115.039 23.7178 116.825 22.3411C117.246 22.0258 117.677 21.7315 118.118 21.4477C122.595 18.6836 128.512 18.2265 133.478 20.402C138.187 22.588 142.207 27.0705 142.906 32.3254C146.138 31.39 149.322 33.844 151.277 36.2087C153.321 38.4998 154.304 42.2886 152.402 44.9423C151.724 45.5992 150.709 45.7358 149.853 46.0721C147.614 46.6975 145.265 46.7395 142.964 46.9707C138.465 47.4069 133.957 47.5593 129.443 47.5593C128.181 47.5593 126.92 47.5488 125.659 47.5278L125.638 47.512ZM101.16 27.0179C97.3188 27.8797 94.129 31.0064 92.8731 34.6901C92.1322 37.9533 92.5578 41.6317 94.0029 44.6165C94.1185 44.832 94.2341 45.0474 94.3497 45.2629C94.4075 45.368 94.4443 45.4888 94.4706 45.6097C107.661 44.7584 120.872 44.585 134.088 44.4484C138.602 44.3486 143.1 43.8966 147.614 43.9019C147.982 43.8756 148.371 43.8809 148.76 43.8809C149.727 43.8809 150.715 43.8809 151.561 43.5235C152.585 41.7894 151.887 39.5771 150.657 38.132C148.723 35.7726 145.244 33.1609 142.175 34.9423C141.014 35.8882 140.205 33.8493 141.156 33.1399C141.261 29.8503 138.187 26.1036 135.612 24.2801C132.086 21.7262 127.32 20.733 123.084 21.763C121.86 22.1361 120.646 22.5407 119.479 23.0767C118.255 23.7546 117.204 24.6847 116.168 25.6096C114.876 26.8077 114.093 28.4209 113.299 29.9659C113.126 30.4598 112.553 30.9065 112.075 30.4966C111.712 30.2234 111.744 29.7084 111.523 29.3511C110.194 27.8166 105.438 26.9233 102.558 26.9233C102.011 26.9233 101.533 26.9548 101.16 27.0232V27.0179Z" fill="#050505"/>
<path d="M117.652 47.4238C117.578 47.4238 117.51 47.4238 117.436 47.4238C117.247 47.4238 117.057 47.4132 116.873 47.4132C116.705 47.4132 116.542 47.408 116.379 47.4132C116.39 47.2346 116.4 47.0612 116.416 46.8877C116.432 46.6986 116.458 46.5094 116.5 46.3307C116.542 46.1363 116.579 45.8998 116.726 45.758C116.868 45.6213 117.084 45.574 117.241 45.7212C117.478 45.9366 117.52 46.3413 117.573 46.646C117.615 46.9035 117.641 47.1715 117.657 47.4343H117.652V47.4238Z" fill="#050505"/>
<path d="M128.24 20.4449C128.025 20.4081 127.841 20.2662 127.72 20.0875C127.552 19.8458 127.505 19.562 127.515 19.2783C127.515 19.2678 127.515 19.2625 127.515 19.252C127.515 19.252 127.515 19.2572 127.515 19.2625C127.515 19.2678 127.515 19.273 127.515 19.273C127.515 19.273 127.515 19.3046 127.515 19.3203C127.515 19.3203 127.515 19.3203 127.515 19.3256C127.515 19.3256 127.515 19.3203 127.515 19.3151C127.515 19.3046 127.515 19.2941 127.515 19.2835C127.515 19.3203 127.515 19.3519 127.515 19.2888V19.273C127.515 19.273 127.515 19.252 127.515 19.2362C127.515 19.2205 127.515 19.2047 127.515 19.189C127.515 19.2047 127.515 19.2152 127.515 19.231C127.515 19.2362 127.515 19.2468 127.515 19.252V19.2415V19.21C127.515 19.1469 127.526 19.0839 127.526 19.0208C127.573 18.0486 127.583 17.0765 127.61 16.0991C127.631 15.4107 127.631 14.7223 127.647 14.0287C127.662 13.356 127.673 12.6886 127.647 12.016C127.647 11.995 127.647 11.974 127.647 11.953C127.631 11.7375 127.61 11.5168 127.578 11.3014C127.468 10.7496 127.337 10.2031 127.174 9.66184C127.016 9.18364 126.832 8.72121 126.669 8.34285C126.49 7.95399 126.312 7.56512 126.123 7.18151C125.944 6.80841 125.771 6.43533 125.56 6.078C125.534 6.04121 125.513 6.00442 125.487 5.96763C125.481 5.96238 125.471 5.95187 125.466 5.94136C125.466 5.94136 125.476 5.94663 125.481 5.95188C125.487 5.95714 125.497 5.96238 125.503 5.97289C125.445 5.9256 125.408 5.87831 125.371 5.81525C125.266 5.64184 125.35 5.23722 125.613 5.25823C125.792 5.274 125.902 5.40538 126.017 5.52624C126.138 5.65236 126.249 5.78896 126.359 5.92558C126.601 6.22511 126.837 6.52991 127.074 6.82944C127.547 7.4285 127.962 8.06959 128.277 8.76324C128.298 8.80528 128.314 8.84732 128.324 8.86834C128.335 8.88936 128.34 8.90511 128.345 8.91562C128.351 8.93138 128.356 8.9419 128.361 8.95767C128.677 9.68284 128.945 10.4501 129.107 11.2225C129.255 11.9057 129.349 12.6046 129.396 13.3035C129.449 14.0286 129.46 14.7486 129.444 15.4737C129.428 16.2042 129.375 16.9293 129.328 17.6545C129.312 17.8647 129.302 18.0749 129.286 18.2694C129.265 18.5952 129.239 18.9157 129.213 19.2415C129.207 19.3256 129.202 19.4149 129.197 19.499C129.197 19.4885 129.197 19.4832 129.197 19.4727C129.197 19.4464 129.197 19.4202 129.197 19.3886C129.197 19.3781 129.197 19.3676 129.197 19.3676C129.197 19.4096 129.197 19.4464 129.197 19.4464C129.197 19.457 129.197 19.4622 129.197 19.4727C129.197 19.478 129.197 19.4885 129.197 19.4937C129.197 19.5095 129.197 19.52 129.197 19.5358C129.171 19.9772 128.808 20.4501 128.351 20.4501C128.309 20.4501 128.267 20.4501 128.225 20.4396L128.24 20.4449Z" fill="#050505"/>
<path d="M128.823 20.261C128.376 20.0981 128.387 19.5201 128.392 19.1207C128.392 18.033 128.408 16.9452 128.413 15.8574C128.413 14.8065 128.424 13.7555 128.387 12.7045C128.413 12.3104 128.182 11.4959 128.76 11.4591C128.897 11.4854 128.981 11.6063 129.013 11.7324C129.16 12.8622 129.212 14.0077 129.254 15.1481C129.302 16.5038 129.318 17.8648 129.318 19.2206C129.328 19.5884 129.281 20.219 128.813 20.2558L128.823 20.261Z" fill="#050505"/>
<path d="M129.139 20.2821C128.534 19.3624 128.718 18.2222 128.697 17.1817C128.702 15.9993 128.708 14.8222 128.718 13.6451C128.734 13.0829 128.697 12.5101 128.755 11.9531C128.797 11.8112 128.897 11.6693 129.06 11.6693C129.37 11.6851 129.402 12.0581 129.391 12.2999C129.439 13.2825 129.481 14.26 129.507 15.2426C129.423 16.8979 129.964 18.7792 129.134 20.2821H129.139Z" fill="#050505"/>
<path d="M129.449 19.4045C128.913 17.5127 129.012 15.5422 129.028 13.5926C129.049 13.1039 129.018 12.6099 129.06 12.1265C129.081 11.9688 129.191 11.7902 129.37 11.7902C129.549 11.7902 129.659 11.9636 129.68 12.1265C129.712 14.549 130.138 17.0451 129.454 19.4098L129.449 19.4045Z" fill="#050505"/>
<path d="M128.95 19.6888C128.955 17.3136 129.081 14.9384 129.097 12.5632C129.076 12.332 129.123 11.9851 129.418 11.9694C129.912 12.0482 129.733 12.7418 129.786 13.1044C129.812 13.982 129.822 14.8648 129.822 15.7424C129.812 17.0824 129.822 18.4276 129.807 19.7676C129.728 20.4403 128.944 20.3457 128.955 19.6888H128.95Z" fill="#050505"/>
</svg>
