<svg width="318" height="203" viewBox="0 0 318 203" fill="none" xmlns="http://www.w3.org/2000/svg">
<path d="M12.6706 57.156C11.9506 56.4781 12.6233 55.6216 13.091 54.9647C13.1383 54.8912 13.1908 54.8228 13.2328 54.7598C14.2418 53.3357 15.3296 51.9747 16.4647 50.64C16.9271 50.0987 17.3895 49.5627 17.8625 49.032C18.4143 48.4119 18.9713 47.8023 19.5336 47.2032C20.1064 46.5884 20.6792 45.9841 21.2677 45.3851C21.294 45.3535 21.3255 45.322 21.357 45.2905C22.077 44.5548 22.8074 43.8244 23.5431 43.1097C23.7586 42.8995 23.974 42.6893 24.1895 42.4844C24.5153 42.1691 24.8464 41.8538 25.1827 41.5437C26.3966 40.3982 27.6368 39.2789 28.8927 38.1806C29.3078 37.8128 29.7282 37.4502 30.1486 37.0876C30.3851 36.8826 30.6216 36.683 30.8581 36.4833C31.1891 36.8774 31.5517 37.24 31.8985 37.5815C32.0667 37.7497 32.2349 37.9126 32.4083 38.0808C32.1981 38.2489 31.9931 38.4171 31.7829 38.5852C26.6856 42.8732 21.7774 47.3977 17.316 52.3478C16.2965 53.5249 15.2928 54.7282 14.3469 55.9684C13.9633 56.352 13.6217 57.2874 13.0542 57.2874C12.9386 57.2874 12.8124 57.2453 12.6706 57.156Z" fill="#050505"/>
<path d="M76.2134 4.42292C77.9948 3.47704 79.8445 2.65202 81.7889 1.99516C84.2009 1.0703 87.2803 -0.0332214 89.519 1.83752C90.9168 2.77289 90.4543 5.24793 88.6887 3.86064C86.5341 2.07398 83.6491 3.86065 81.4158 4.62787C80.9008 4.82755 80.3858 5.03247 79.8813 5.25843C79.4767 5.43184 79.0826 5.61578 78.6832 5.80496C77.8319 6.20958 76.9963 6.64049 76.1713 7.09241C76.1871 6.20433 76.2028 5.31625 76.2186 4.42292H76.2134Z" fill="#050505"/>
<path d="M90.948 8.51174C93.4442 8.71668 95.6828 6.96156 98.1158 7.8076C96.5761 9.81497 93.8803 10.3089 91.4893 10.4245C90.3647 10.4613 88.2365 9.836 88.8671 8.34361C89.0089 8.0651 89.3768 7.84962 89.6763 8.05456C90.0232 8.37511 90.4961 8.44868 90.948 8.51174Z" fill="#050505"/>
<path d="M84.9422 5.39462C86.1614 5.22121 87.3122 5.11611 88.4946 5.13188C86.1876 6.79242 83.2659 8.38993 80.3494 7.64899C79.0724 7.24962 78.6678 6.4456 78.6835 5.794C78.6993 4.93219 79.4508 4.32264 79.8817 5.2475C79.9079 5.31056 79.9395 5.38411 79.9657 5.46294C81.3951 6.48764 83.3552 5.52073 84.9422 5.38936V5.39462Z" fill="#050505"/>
<path d="M13.8617 30.9695C13.3887 30.5491 13.62 29.8555 13.9931 29.4508C14.6447 28.568 15.3068 27.6957 15.9742 26.8234C16.7362 25.8617 17.5139 24.9053 18.3021 23.9647C18.6647 24.3063 19.0273 24.6479 19.3952 24.9842C18.0709 26.4713 16.8097 27.99 15.6274 29.5717C15.2017 29.9711 14.8233 31.0693 14.198 31.0693C14.0929 31.0693 13.9825 31.0378 13.8617 30.9695Z" fill="#050505"/>
<path d="M16.0168 40.918C16.0168 40.8024 16.043 40.6815 16.0798 40.5711C16.1114 40.4871 16.1481 40.4082 16.1954 40.3452L16.227 40.3084C16.227 40.3084 16.2375 40.2926 16.248 40.2874C17.2885 39.0262 18.35 37.7808 19.4115 36.5354C19.4115 36.5354 19.4115 36.5249 19.422 36.5249C19.9002 35.9626 20.3784 35.4056 20.8514 34.8433C22.2334 33.2196 23.626 31.6011 25.0238 29.9825C25.4022 30.2978 25.7858 30.6026 26.1694 30.9074C26.0328 31.0703 25.9014 31.2332 25.7648 31.3909C25.5861 31.6063 25.4074 31.8217 25.2288 32.0372C24.5456 32.8622 23.8572 33.6872 23.1688 34.507L22.2071 35.6526C21.9969 35.8995 21.792 36.1465 21.5818 36.3935C21.4714 36.5249 21.3663 36.651 21.256 36.7771C21.2455 36.7929 21.2297 36.8139 21.2139 36.8297C20.1577 38.0803 19.0962 39.3257 18.0347 40.5711C17.9979 40.6184 17.9611 40.6605 17.9191 40.7025C17.6668 40.9968 17.4146 41.2911 17.2359 41.5013C17.0993 41.6694 16.9311 41.7955 16.6999 41.7955C16.2532 41.7955 16.0063 41.2963 16.0168 40.9075V40.918Z" fill="#050505"/>
<path d="M15.7013 47.2926C15.3387 47.0824 15.2021 46.6252 15.2231 46.2311C15.2809 45.2747 15.3702 44.3235 15.4648 43.3672C15.675 42.4738 15.3807 40.9447 16.2741 40.4297C18.6441 40.6609 21.1034 40.7975 23.4997 40.9236C24.393 41.1338 24.393 42.663 23.4997 42.8732C22.8691 42.9993 22.207 42.9678 21.5659 43.0046C21.5396 43.9977 20.5254 44.0713 19.8212 44.3603C20.641 45.0908 22.1754 45.1275 21.5448 46.6252C21.0141 47.4923 19.7687 47.1034 18.9121 47.24C17.9609 47.2873 16.9888 47.24 16.0481 47.3924C15.9273 47.3924 15.8064 47.3609 15.696 47.2978L15.7013 47.2926ZM16.9362 44.1449C16.9047 44.5337 16.8732 44.9226 16.8469 45.3167C16.9415 45.3115 17.0413 45.3062 17.1359 45.301C17.4407 45.2852 17.7455 45.2694 18.0503 45.2537C17.8716 44.9909 17.7665 44.6861 17.735 44.3551C17.7297 44.292 17.7245 44.229 17.7297 44.1606C17.6824 44.1764 17.6351 44.1869 17.5826 44.2027C17.3408 44.2605 17.1254 44.1764 16.952 44.024C16.952 44.0661 16.9467 44.1081 16.9415 44.1501L16.9362 44.1449Z" fill="#050505"/>
<path d="M16.9687 45.606C15.76 45.9844 15.0822 44.3606 15.6287 43.441C15.8914 42.905 16.4957 42.4951 17.1053 42.6791C18.1721 42.4689 19.7643 42.3217 20.6156 42.6318C21.4775 42.5635 23.117 41.4126 23.3955 42.7999C23.8475 43.483 23.4638 44.3344 22.8122 44.7285C22.2342 45.1278 21.6614 45.7269 21.015 45.254C19.717 45.5745 18.2929 46.0264 16.9739 45.606H16.9687Z" fill="#050505"/>
<path d="M24.5943 42.6631C24.4629 42.6421 24.3735 42.5685 24.2631 42.5159C23.7373 42.3898 23.7373 41.4755 24.2578 41.3441C24.4261 41.26 24.5575 41.1602 24.7679 41.2127C25.5092 41.3704 25.3883 42.7577 24.5943 42.6631Z" fill="#050505"/>
<path d="M25.7919 37.6395C24.1524 37.4031 22.4603 37.2506 20.9048 36.6673C20.374 36.4519 20.4896 35.4429 21.115 35.506C22.702 35.7372 24.289 35.9579 25.8865 36.1156C26.5224 36.2154 27.1424 36.5885 27.5576 37.0615C27.0584 37.4451 26.4278 37.6815 25.7919 37.6448V37.6395Z" fill="#050505"/>
<path d="M25.449 32.5358C25.1232 32.2783 25.1495 31.6635 25.5121 31.448C25.9167 31.3324 26.3581 31.3587 26.7995 31.4007C27.0255 31.5741 27.2515 31.7476 27.4827 31.9157C28.0029 32.3046 28.5337 32.6882 29.0644 33.0665C27.84 32.9562 26.6209 32.8248 25.4543 32.5305L25.449 32.5358Z" fill="#050505"/>
<path d="M29.9281 38.6636C29.8755 38.6058 29.8335 38.5427 29.8072 38.4744C26.4808 37.3078 22.7866 37.2027 19.3761 36.5249C21.5306 36.4513 30.3275 35.5737 30.9633 37.9805C31.0737 38.5427 30.3905 39.1523 29.9333 38.6636H29.9281Z" fill="#050505"/>
<path d="M13.1904 55.1429C12.6807 54.4019 13.0486 53.4403 13.2272 52.6415C12.9277 52.6205 12.6282 52.6153 12.3339 52.6415C12.3339 52.6415 12.3339 52.6415 12.3339 52.6363C11.2671 52.589 11.1147 50.7971 12.0711 50.4397C13.4322 50.2085 15.0717 50.1927 16.396 50.6131C17.4207 51.1859 17.179 52.5679 16.375 53.2248C15.6235 53.8449 14.1941 56.4776 13.1904 55.1481V55.1429Z" fill="#050505"/>
<path d="M242.486 104.092C240.852 103.067 240.626 100.923 239.675 99.373C238.992 97.8228 237.836 96.5039 237.137 94.9904C236.963 94.4387 237.52 93.6557 238.093 94.0919C238.477 94.3756 238.981 94.6384 238.86 95.2007C240.116 97.0136 241.12 98.9842 241.966 101.018C242.418 101.969 242.702 103.041 242.486 104.092Z" fill="#050505"/>
<path d="M305.908 202.706C305.472 202.138 305.667 201.35 305.535 200.683C305.267 197.719 304.453 194.85 303.586 192.018C303.202 190.772 302.85 189.516 302.508 188.26C302.356 188.439 302.177 188.591 301.993 188.717C300.091 189.853 297.789 190.499 295.577 190.11C290.506 189.674 286.46 186.227 282.965 182.816C281.609 181.508 280.185 180.257 279.034 178.759C278.141 178.04 276.985 177.777 275.918 177.425C270.043 176.032 261.42 174.167 260.899 166.836C260.889 166.547 260.905 166.227 260.957 165.911C258.193 166.589 255.429 167.256 252.644 167.866C248.897 168.849 245.008 169.548 241.151 169.411C238.471 170.572 236.301 172.637 234.136 174.556C233.269 175.386 232.444 176.258 231.619 177.13C231.02 177.666 230.436 178.512 229.664 178.817C229.664 178.833 229.664 178.849 229.664 178.865C229.664 179.274 229.443 179.742 229.054 179.905C229.259 184.193 229.196 188.491 228.849 192.764C232.176 187.377 240.079 185.459 244.698 190.614C247.32 193.373 248.371 198.318 252.565 199.122C258.839 199.248 262.302 192.795 267.789 190.825C273.858 188.36 276.643 194.098 277.006 199.264C277.121 200.126 277.815 201.287 276.869 201.907C276.407 202.18 275.887 201.849 275.708 201.376C275.125 199.637 275.125 197.777 274.61 196.038C273.117 191.734 269.786 191.723 266.333 193.878C263.7 195.438 261.609 197.751 258.997 199.343C253.763 202.538 249.754 201.918 246.501 196.563C245.019 194.235 243.784 191.466 241.13 190.262C236.742 188.281 231.088 190.462 229.243 194.934C229.08 195.26 228.944 195.596 228.755 195.911C228.713 195.969 228.671 196.011 228.628 196.048C228.576 197.004 228.518 197.961 228.46 198.933C228.392 200.121 228.397 201.576 227.309 202.312C226.111 200.72 226.936 198.586 226.905 196.763C227.031 194.74 227.168 192.716 227.336 190.699C227.62 187.094 227.598 183.536 227.483 179.968C226.432 179.958 225.376 179.947 224.325 179.952C222.039 179.963 219.758 179.984 217.472 179.994C216.306 179.994 215.139 179.994 213.978 179.994C210.483 179.994 206.983 179.984 203.483 179.984C198.822 179.984 194.161 179.952 189.495 179.926C184.791 179.9 180.088 179.884 175.38 179.873C170.619 179.858 165.858 179.858 161.102 179.858C156.362 179.858 151.627 179.826 146.887 179.779C142.163 179.732 137.439 179.7 132.715 179.69C131.364 179.69 130.013 179.69 128.668 179.69C127.996 179.69 127.328 179.69 126.656 179.69C126.114 179.69 125.568 179.674 125.026 179.7C124.858 179.747 124.664 179.732 124.464 179.632C124.343 179.574 124.233 179.458 124.165 179.348C124.107 179.248 124.06 179.148 124.023 179.038C123.986 179.038 123.954 179.043 123.918 179.043C123.424 179.043 123.072 178.665 122.898 178.213C122.898 178.213 122.888 178.218 122.888 178.223C122.762 177.835 122.656 177.44 122.536 177.052C122.52 177.015 122.509 176.978 122.499 176.936V176.92C122.457 176.789 122.441 176.657 122.431 176.521C122.278 175.964 122.126 175.412 121.979 174.855C121.669 173.709 121.364 172.564 121.064 171.418C120.423 168.975 119.793 166.526 119.13 164.083C117.754 158.975 116.387 153.867 114.989 148.765C114.785 148.013 114.58 147.262 114.375 146.515C113.649 143.914 112.93 141.313 112.215 138.707C110.975 134.172 109.692 129.652 108.458 125.117C107.212 120.551 105.967 115.979 104.737 111.402C103.844 108.086 102.966 104.771 102.11 101.444C100.696 96.3154 99.3401 91.1762 97.9791 86.0316C97.8004 85.359 97.6218 84.6811 97.4484 84.0085C97.3905 83.793 97.338 83.5776 97.2802 83.3674C97.2592 83.3096 97.2381 83.2465 97.2224 83.1887C97.2014 83.1099 97.1909 83.0311 97.1803 82.9575C97.112 82.6843 97.049 82.3952 97.0805 82.122C96.7652 81.896 96.6654 81.4231 96.7705 81.0342C94.9785 80.5613 93.1866 80.1041 91.3946 79.6364C88.2101 78.8061 85.0256 77.9443 81.8516 77.072C80.5851 76.7252 79.3239 76.3731 78.0575 76.0211C77.3691 75.8319 76.6807 75.6374 75.9923 75.443C75.987 75.443 75.9765 75.443 75.9712 75.4378C72.03 77.0142 68.4146 79.4157 65.0724 82.0011C62.7655 83.9454 60.7476 86.1998 58.593 88.3123C55.7238 91.1762 52.7915 93.9928 50.2481 97.1667C48.7977 98.9902 47.4157 100.871 45.9863 102.716C43.5112 105.874 40.705 108.77 38.4612 112.106C36.5326 114.997 34.541 117.845 32.481 120.646C32.0186 121.292 31.5614 121.944 31.12 122.606C30.7836 123.157 30.379 123.783 29.7957 124.061C30.2108 126.247 30.6418 128.433 31.0727 130.614C31.1357 130.877 31.1252 131.124 31.0516 131.334C31.0727 131.413 31.0779 131.497 31.0621 131.581C31.0727 132.159 30.6785 132.611 30.3317 133.037C24.6511 139.747 20.2264 147.482 16.3324 155.338C14.7349 159.048 13.19 162.785 11.624 166.505C11.3034 167.225 10.9566 167.934 10.552 168.607C10.368 168.97 10.0422 169.348 9.59029 169.253C7.96124 168.591 9.98967 166.458 10.2629 165.428C11.0039 163.704 11.6975 161.949 12.4595 160.236C12.1495 159.9 12.0969 159.432 12.0286 158.996C11.5399 155.89 10.6571 152.895 7.97701 151.061C7.70901 150.761 7.68273 150.267 7.91395 149.936C8.08211 149.658 8.51302 149.568 8.74949 149.8C10.079 150.714 11.2246 151.886 11.934 153.347C12.5594 154.576 12.8904 155.932 13.2005 157.267C13.2372 157.514 13.2951 157.766 13.3581 158.024C15.8647 151.944 18.8969 146.079 22.5491 140.604C23.7472 138.801 24.9138 136.967 26.2538 135.265C27.1997 133.946 28.4399 132.842 29.4384 131.571C29.3911 131.481 29.349 131.381 29.3175 131.271C27.7936 124.781 26.4903 115.979 24.3988 107.603C23.6158 110.01 22.3546 112.285 20.9095 114.329C19.0703 117.156 15.7807 119.337 12.3176 118.339C10.8094 117.903 8.89663 117.419 8.1294 115.911C7.77207 115.175 8.54981 113.93 9.35907 114.555C10.7306 115.738 12.7275 116.163 14.5195 116.095C17.1522 115.869 18.8233 113.578 20.1896 111.565C21.6137 109.458 22.5859 107.072 23.2427 104.623C23.2953 104.429 23.3741 104.266 23.474 104.14C21.4403 96.9828 18.7024 90.4405 14.6035 86.3364C12.964 84.6706 11.3297 82.8682 9.67437 81.2865C9.32229 80.9607 8.9124 80.6716 8.61286 80.2933C8.18721 79.7836 8.52878 78.659 9.27499 78.7904V78.7799C10.4679 79.153 11.2509 80.204 12.1915 80.9922C14.2567 83.0469 16.5742 85.0069 18.3556 87.3085C24.2517 95.8372 26.2959 106.326 28.4136 116.31C28.6974 118.034 29.0022 119.758 29.3175 121.471C29.3385 121.439 29.3543 121.413 29.3753 121.381C30.2897 119.968 31.2881 118.612 32.2761 117.251C34.4096 114.44 36.2541 111.434 38.3666 108.607C41.7876 104.34 45.403 100.251 48.6979 95.9108C51.6722 92.2324 55.1668 89.0217 58.4721 85.6533C60.0854 84.0348 61.6199 82.3374 63.3172 80.8135C66.9432 77.7341 70.9843 75.0646 75.3144 73.0783C79.2136 71.3705 83.4806 70.866 87.6793 70.5244C90.2438 70.2774 92.7819 69.8623 95.2938 69.3316C95.4725 68.8271 95.7195 68.3174 95.8088 67.9285C96.0978 67.1718 96.4026 66.3888 96.8808 65.7267C99.0564 63.2201 103.013 63.1466 106.067 63.3778C105.215 63.9295 104.238 64.4182 103.297 64.8491C101.684 65.6899 99.6975 65.7162 98.2471 66.8513C97.7111 67.4503 97.3853 68.1912 97.0858 68.9427C98.1683 68.6905 99.2455 68.4225 100.323 68.144C101.784 67.7183 103.276 67.2717 104.543 66.3993C106.056 65.4062 106.807 63.6721 106.913 61.9064C106.886 61.8907 106.855 61.8696 106.828 61.8486C106.828 61.8171 106.828 61.7855 106.828 61.7487C106.828 61.6489 106.813 61.5491 106.802 61.4492C106.781 61.2548 106.755 61.0604 106.708 60.8712C106.739 60.8239 106.781 60.7819 106.823 60.7451C105.746 57.8812 97.7847 58.1071 95.4147 57.8444C93.5597 57.7025 91.6889 57.7288 89.8181 57.755C86.3814 57.8076 82.9393 57.8549 79.6234 56.8617C77.7684 56.3572 76.0185 54.786 76.4074 52.7051C76.5756 51.8013 76.6964 50.6767 77.4321 50.0566C77.553 49.9883 77.6633 49.9515 77.7684 49.9358C80.2751 44.7912 89.0404 34.8227 90.4014 33.1096C92.5139 30.6713 94.5686 28.191 96.6023 25.7002C96.6023 25.7002 96.6023 25.6949 96.597 25.6897C96.7442 25.5058 96.8913 25.3166 97.0385 25.1327C97.1068 25.0486 97.1698 24.9645 97.2381 24.8804C97.2539 24.8594 97.2697 24.8384 97.2854 24.8226C97.2959 24.8226 97.3065 24.8226 97.317 24.8226C98.8252 22.9729 100.318 21.1179 101.82 19.263C103.061 17.6812 104.395 16.1363 105.252 14.3023C106.624 10.8709 105.483 8.47467 101.505 9.64126C99.3769 10.3507 97.4536 11.554 95.5303 12.7154C95.6406 12.8362 95.7562 12.9518 95.8929 13.0464C96.2292 13.2619 96.576 13.2514 96.9491 13.2356C98.6622 12.9886 100.244 12.1846 101.831 11.512C102.703 11.1021 104.143 10.3139 104.737 11.512C104.847 12.8625 103.418 13.3932 102.383 13.7979C100.491 14.5388 98.5571 15.574 96.4762 15.4847C95.462 15.4216 94.6317 14.7648 94.1219 13.9187C94.0641 13.8399 94.0116 13.7558 93.9538 13.6665C90.6589 15.6791 87.4113 17.7706 84.3004 20.0565C79.0927 23.9871 73.9218 28.0439 69.3657 32.7313C69.2816 33.3671 68.4198 33.6456 68.115 32.994C67.516 31.7118 69.5864 30.4559 70.2906 29.5521C71.9407 27.9493 73.6275 26.3833 75.3617 24.8804C81.4785 19.5152 88.084 14.7333 95.0153 10.4768C95.8456 9.97759 96.7074 9.43633 97.5902 8.9266C97.2171 8.89507 96.802 8.57451 96.5182 7.83357C94.8629 4.86456 91.0846 6.76159 88.5149 7.16096C83.386 8.49571 79.0191 11.5908 74.689 14.5178C73.8692 15.1011 73.0442 15.6896 72.2244 16.2782C72.3138 15.4059 72.4136 14.5388 72.4924 13.6665C77.3901 9.99332 82.4243 6.27812 88.4098 4.76996C92.1408 3.94495 96.2502 2.62073 98.2576 6.98754C98.5571 7.62864 98.5204 8.18041 98.3049 8.53248C100.391 7.41845 102.625 6.6407 104.989 7.26078C107.858 8.35379 108.048 12.2056 107.139 14.7175C106.014 17.7128 103.697 20.0932 101.768 22.5735C101.064 23.4984 100.349 24.4128 99.6292 25.3219C100.029 25.4165 100.428 25.511 100.827 25.6056C102.646 26.0313 104.464 26.4569 106.282 26.872C109.955 27.7128 113.618 28.5956 117.286 29.468C120.964 30.3403 124.638 31.2283 128.306 32.1322C131.963 33.036 135.61 33.9609 139.262 34.8963C142.962 35.8474 146.656 36.7933 150.361 37.7234C154.002 38.6378 157.644 39.5311 161.286 40.4402C164.933 41.3493 168.575 42.2531 172.221 43.157C175.847 44.0556 179.479 44.9541 183.105 45.8632C183.693 46.0104 184.276 46.168 184.865 46.3151C184.918 46.3204 184.954 46.3362 185.023 46.3519C185.096 46.3729 185.17 46.3887 185.243 46.4097C185.259 46.4097 185.28 46.4202 185.296 46.4202C185.317 46.4255 185.338 46.4308 185.364 46.4413C185.38 46.4413 185.401 46.4518 185.417 46.457C185.869 46.6409 186.074 47.1612 186.016 47.6289C185.99 47.8496 185.89 48.0966 185.732 48.2752C185.774 48.3961 185.806 48.5064 185.816 48.5485C185.842 48.6378 185.869 48.7219 185.884 48.8112C186.047 49.0319 186.084 49.363 185.984 49.6205C185.984 49.6468 185.984 49.6678 185.99 49.694C186.032 50.1722 186.068 50.6452 186.105 51.1234C186.184 52.0745 186.258 53.0256 186.331 53.9768C186.405 54.9174 186.478 55.858 186.547 56.8039C186.583 57.2979 186.699 57.8706 186.489 58.3383C186.394 58.5485 186.268 58.7377 186.137 58.9321C185.333 60.125 184.571 61.3336 183.798 62.5422C182.774 64.1502 181.744 65.7582 180.719 67.3715C178.832 70.3352 176.935 73.2885 174.996 76.2207C174.408 77.1141 173.824 78.0022 173.23 78.8902C173.01 79.2213 172.794 79.5523 172.574 79.8834C176.741 79.8466 180.913 79.8098 185.08 79.7888C192.516 79.752 199.952 79.7573 207.393 79.7047C214.755 79.6522 222.118 79.5891 229.475 79.5418C231.235 79.5313 232.995 79.5208 234.756 79.5155C235.654 78.1913 236.548 76.8618 237.452 75.5376C239.443 72.6054 241.44 69.6784 243.421 66.7409C244.499 65.1487 245.576 63.5617 246.643 61.9642C246.664 61.9274 246.685 61.8854 246.711 61.8539C246.763 61.7803 246.811 61.7015 246.863 61.6279C246.853 61.4913 246.863 61.3546 246.905 61.2285C247.173 60.5979 247.578 60.1092 248.067 59.7519C248.182 59.5785 248.34 59.4471 248.54 59.4103C248.629 59.3315 248.734 59.2632 248.844 59.2001C249.028 59.1108 249.202 59.1003 249.354 59.1371C251.919 58.4539 255.303 60.1145 255.276 63.136C255.24 63.651 255.166 64.7388 254.709 65.1592C254.677 65.2485 254.641 65.3379 254.588 65.4219C254.578 65.443 254.562 65.464 254.546 65.485C254.536 65.5008 254.525 65.5165 254.515 65.5323C254.415 65.6847 254.32 65.8476 254.225 66C254.036 66.2995 253.852 66.5938 253.663 66.8933C253.322 67.4398 252.975 67.9916 252.633 68.5381C251.756 69.9359 250.868 71.3337 249.99 72.7262C248.561 74.9911 247.11 77.2402 245.655 79.4893C247.562 79.4893 249.475 79.4893 251.383 79.484C254.588 79.484 257.794 79.4735 260.994 79.463C262.497 79.4577 264 79.4472 265.503 79.4367C266.244 79.4367 266.979 79.4262 267.72 79.4262C268.104 79.4262 268.498 79.4472 268.882 79.4367C268.897 79.4367 268.913 79.4262 268.929 79.4262C269.302 79.2791 269.733 79.4262 270.122 79.463C270.689 79.5786 271.662 79.8624 272.466 80.3038C273.984 80.5665 276.254 82.7 276.228 83.7615C276.228 83.8876 276.197 84.019 276.155 84.1346C276.244 84.287 276.312 84.4446 276.36 84.6075C276.36 84.6075 276.36 84.6075 276.36 84.6128C276.575 85.0752 276.78 85.5324 276.99 85.9948C277.489 87.1089 277.989 88.2229 278.493 89.3369C279.491 91.544 280.506 93.7458 281.536 95.9423C282.592 98.2072 283.653 100.472 284.725 102.732C285.734 104.849 286.749 106.967 287.742 109.095C289.765 113.457 291.793 117.813 293.764 122.196C295.756 126.631 297.695 131.087 299.66 135.533C301.604 139.926 303.586 144.308 305.546 148.696C307.469 153.01 309.387 157.325 311.242 161.671C313.087 165.985 314.984 170.278 316.907 174.556C316.928 174.608 316.954 174.655 316.975 174.708C317.017 174.766 317.054 174.829 317.08 174.897C317.133 175.013 317.18 175.123 317.227 175.239C317.322 175.459 317.443 175.685 317.511 175.917C317.511 175.917 317.511 175.917 317.506 175.917C317.648 176.347 317.611 176.836 317.364 177.22C317.448 177.645 317.306 178.134 316.975 178.413C315.987 179.385 314.579 179.269 313.307 179.253C309.256 179.164 305.225 178.633 301.184 178.481C302.498 182.217 303.549 186.032 304.563 189.863C304.952 191.124 308.693 202.942 306.544 202.942C306.381 202.942 306.182 202.874 305.945 202.722L305.908 202.706ZM262.502 166.805C262.581 168.255 263.38 169.569 264.436 170.536C268.346 174.23 274.063 174.167 278.687 176.437C279.996 177.025 280.7 178.329 281.762 179.238C283.396 180.73 284.999 182.254 286.696 183.667C290.553 186.941 296.738 189.642 301.394 186.568C301.389 186.2 301.562 185.89 301.804 185.706C301.604 184.96 301.394 184.219 301.184 183.478C300.511 181.334 299.608 179.269 298.94 177.125C298.257 174.913 297.805 172.637 297.353 170.373C297.143 169.248 296.885 168.134 296.712 167.004C296.187 166.284 295.64 165.575 294.983 164.965C292.634 162.911 289.875 160.998 286.822 160.236C281.972 160.299 277.195 161.797 272.565 163.063C269.88 163.688 267.2 164.356 264.52 165.018C264.604 165.796 263.774 166.552 263.19 165.68C263.112 165.633 263.017 165.601 262.923 165.596C262.45 165.685 262.502 166.421 262.497 166.81L262.502 166.805ZM196.915 177.609C201.124 177.609 205.333 177.63 209.548 177.645C214.141 177.661 218.733 177.687 223.326 177.735C224.682 177.745 226.038 177.745 227.394 177.74C227.378 177.409 227.367 177.073 227.352 176.742C227.041 172.228 226.269 167.756 225.129 163.378C224.792 162.138 224.482 160.888 224.167 159.642C223.91 159.243 223.736 158.822 223.836 158.37C223.284 156.269 222.669 154.188 221.829 152.18C219.543 147.088 216.621 142.296 213.326 137.798C212.49 136.536 211.644 135.28 210.788 134.04C209.711 135.932 208.886 138.002 207.582 139.737C205.028 140.95 202.348 141.949 199.931 143.447C199.274 143.699 198.344 144.823 197.713 144.051C197.519 143.772 197.524 143.41 197.64 143.1C198.349 140.567 198.749 138.118 198.885 135.554C198.633 135.333 198.586 134.855 198.785 134.561C199.815 133.247 203.147 127.519 204.929 126.174C204.739 125.943 204.55 125.711 204.361 125.485C201.907 122.259 198.891 118.013 200.609 113.819C201.234 112.574 202.317 111.224 203.62 110.451C203.552 110.146 203.567 109.794 203.557 109.516C203.468 105.99 203.305 102.453 203.573 98.9271C203.725 95.8425 204.724 92.3743 207.398 90.5508C208.56 89.7573 209.795 89.0847 211.077 88.5277C209.59 88.5487 208.103 88.5697 206.615 88.5855C202.312 88.638 198.008 88.6853 193.704 88.7379C189.326 88.7957 184.949 88.8482 180.572 88.8903C176.194 88.9323 171.817 88.9323 167.434 88.9481C163.046 88.9691 158.658 89.0217 154.276 89.069C149.862 89.111 145.447 89.1478 141.038 89.174C136.53 89.2003 132.026 89.2266 127.517 89.2634C123.15 89.2949 118.784 89.358 114.417 89.3895C114.443 89.6049 114.417 89.8309 114.354 90.0201C114.259 90.6034 114.396 91.6176 113.954 92.0642C113.975 92.1168 113.991 92.1641 114.012 92.2114C114.17 92.6265 114.291 93.0574 114.427 93.483C114.685 94.3028 114.932 95.1278 115.184 95.9529C115.688 97.6187 116.188 99.2897 116.692 100.95C117.701 104.287 118.705 107.624 119.698 110.966C120.702 114.345 121.711 117.729 122.714 121.113C123.729 124.529 124.737 127.95 125.752 131.371C126.729 134.681 127.712 137.992 128.684 141.303C129.672 144.65 130.665 147.997 131.648 151.345C132.63 154.692 133.618 158.039 134.601 161.387C135.279 163.694 135.946 166.006 136.64 168.313C136.651 168.334 136.656 168.36 136.661 168.381C136.75 168.67 136.703 169.033 136.545 169.316C137.008 170.735 138.054 171.965 139.672 171.949C139.804 171.975 139.909 172.033 139.993 172.117C140.108 172.112 140.224 172.112 140.334 172.107C140.807 172.096 141.275 172.096 141.748 172.086C142.625 172.075 143.503 172.075 144.381 172.065C146.299 172.054 148.217 172.038 150.135 172.023C153.876 171.986 157.618 171.97 161.359 171.954C165.196 171.939 169.032 171.912 172.868 171.897C176.583 171.881 180.293 171.876 184.008 171.839C187.85 171.807 191.691 171.797 195.533 171.781C199.248 171.765 202.968 171.765 206.684 171.781C210.436 171.797 214.188 171.823 217.94 171.818C219.579 171.818 221.219 171.807 222.859 171.786C223.873 171.77 224.882 171.749 225.896 171.749C226.343 171.749 226.584 172.243 226.579 172.632C226.574 173.032 226.316 173.494 225.87 173.494C224.75 173.494 223.636 173.484 222.517 173.473C220.714 173.457 218.912 173.468 217.104 173.484C213.379 173.515 209.653 173.562 205.927 173.604C202.201 173.646 198.475 173.667 194.75 173.673C190.924 173.678 187.093 173.688 183.267 173.694C179.494 173.694 175.727 173.704 171.953 173.715C168.186 173.73 164.418 173.731 160.65 173.741C156.851 173.752 153.051 173.752 149.247 173.752C147.549 173.752 145.847 173.752 144.149 173.752C143.288 173.752 142.426 173.752 141.564 173.752C141.117 173.752 140.671 173.752 140.224 173.741C140.003 173.741 139.782 173.73 139.567 173.709C139.436 173.694 139.325 173.652 139.236 173.578C139.215 173.578 139.199 173.568 139.183 173.562C137.171 173.347 135.825 171.544 135.41 169.632C135.2 169.485 135.085 169.264 135.048 169.148C134.659 167.903 134.312 166.647 133.944 165.396C133.466 163.767 132.983 162.143 132.504 160.514C131.516 157.162 130.528 153.814 129.541 150.462C128.558 147.12 127.575 143.778 126.592 140.436C125.615 137.114 124.638 133.793 123.665 130.472C122.667 127.067 121.669 123.667 120.675 120.262C119.687 116.878 118.694 113.488 117.712 110.104C116.739 106.757 115.772 103.41 114.816 100.057C114.411 98.6434 114.002 97.2298 113.597 95.8162C113.392 95.0963 113.187 94.3711 112.987 93.6512C112.898 93.3201 112.809 92.9943 112.74 92.6633C112.662 92.3007 112.614 91.9224 112.793 91.5966C112.704 91.2918 112.704 90.9449 112.725 90.6507C112.767 90.2092 112.746 89.5104 112.951 89.0374C112.793 88.7274 112.809 88.3175 113.066 88.0653C113.219 87.9181 113.366 87.8656 113.555 87.8761C113.844 87.9024 114.143 87.8761 114.427 87.8761C114.916 87.8656 115.41 87.8656 115.899 87.8551C117.013 87.8446 118.127 87.8288 119.236 87.813C121.469 87.7815 123.702 87.7552 125.936 87.7237C130.408 87.6606 134.885 87.5923 139.352 87.5188C143.803 87.4399 148.254 87.3769 152.704 87.3191C157.124 87.2613 161.549 87.2245 165.968 87.1509C170.309 87.0773 174.644 86.9775 178.979 86.9144C183.383 86.8514 187.787 86.8041 192.196 86.7621C196.542 86.72 200.887 86.6727 205.233 86.6254C209.301 86.5886 213.368 86.5519 217.435 86.494C217.651 86.494 217.866 86.494 218.082 86.4835C218.119 86.4783 218.15 86.473 218.187 86.473C218.203 86.473 218.213 86.473 218.229 86.473H218.281C218.339 86.4783 218.397 86.4888 218.45 86.5046C220.021 86.2944 221.603 86.1945 223.169 86.184C224.451 86.1682 226.526 86.0526 228.087 86.5624C227.982 86.2313 228.066 85.8109 228.329 85.5902C228.986 85.1278 229.853 85.2329 230.594 85.5166C230.867 85.1173 231.135 84.7126 231.408 84.3133C231.897 83.5933 232.381 82.8734 232.869 82.1535C230.773 82.164 228.671 82.1745 226.574 82.1798C219.248 82.2008 211.918 82.1903 204.587 82.2166C197.209 82.2481 189.826 82.3164 182.448 82.3374C178.065 82.348 173.682 82.3479 169.3 82.3479C167.933 82.3479 166.562 82.3479 165.196 82.3479C165.106 82.4478 164.996 82.5319 164.859 82.5791C164.78 82.6054 164.707 82.6212 164.628 82.6212C164.449 82.6212 164.271 82.5529 164.129 82.432C164.097 82.4058 164.071 82.3795 164.045 82.3532C162.731 82.3532 161.417 82.3532 160.103 82.3532C158.012 82.3532 155.921 82.3637 153.829 82.3637C153.819 82.3637 153.808 82.3689 153.803 82.3742C153.745 82.39 153.687 82.3952 153.629 82.3952C153.561 82.3952 153.498 82.3847 153.43 82.3637C148.338 82.3742 143.251 82.39 138.159 82.3952C130.728 82.4057 123.303 82.4163 115.872 82.4268C114.159 82.4268 112.446 82.4268 110.733 82.4268C109.335 82.4268 107.937 82.4268 106.534 82.4268C104.884 82.4268 103.229 82.4268 101.579 82.4268H101.516C101.358 83.257 101.284 84.1031 101.248 84.9491C101.574 87.0984 101.836 89.2581 102.078 91.4021C102.246 92.1746 102.42 92.9471 102.588 93.7195C102.966 94.9649 103.339 96.2103 103.707 97.4557C105.026 101.943 106.261 106.457 107.496 110.977C108.736 115.538 109.971 120.104 111.195 124.676C112.415 129.222 113.597 133.778 114.816 138.323C116.056 142.963 117.275 147.608 118.495 152.254C119.083 154.503 119.703 156.741 120.313 158.985C120.933 161.261 121.542 163.541 122.168 165.817C122.725 167.85 123.292 169.889 123.855 171.923C124.107 172.827 124.359 173.725 124.611 174.629C124.774 175.212 124.906 175.806 125.084 176.347C125.09 176.368 125.095 176.389 125.1 176.41C125.21 176.757 125.195 177.178 125.058 177.546C125.526 177.567 125.993 177.556 126.461 177.561C127.002 177.561 127.544 177.567 128.085 177.572C129.257 177.577 130.429 177.582 131.6 177.582C133.897 177.582 136.188 177.593 138.485 177.593C143.251 177.588 148.017 177.546 152.789 177.53C157.592 177.514 162.4 177.551 167.198 177.567C171.901 177.582 176.604 177.582 181.307 177.588C186.037 177.588 190.766 177.582 195.491 177.572H196.904L196.915 177.609ZM302.582 176.673C302.965 176.694 303.349 176.71 303.733 176.71C307.595 176.826 311.473 177.43 315.336 177.073C315.415 177.052 315.488 177.015 315.556 176.973C315.436 176.731 315.32 176.484 315.215 176.237C315.178 176.153 315.146 176.064 315.125 175.969C314.406 174.319 313.649 172.685 312.908 171.04C311.941 168.885 310.969 166.736 309.976 164.592C308.01 160.331 306.066 156.053 304.143 151.77C302.156 147.356 300.222 142.926 298.241 138.512C296.265 134.103 294.253 129.71 292.287 125.301C290.332 120.914 288.435 116.505 286.544 112.091C284.626 107.624 282.781 103.121 280.879 98.6434C279.917 96.3838 278.955 94.1241 277.973 91.8803C277.069 89.8151 276.134 87.7657 275.245 85.69C275.125 85.5692 275.046 85.3905 275.03 85.2276C274.62 84.6338 274.279 83.9717 274.026 83.2886C273.821 83.0836 273.606 82.8892 273.369 82.7158C273.101 82.8577 272.744 82.8209 272.455 82.6369C271.646 82.2323 270.611 81.896 269.707 81.7541C269.596 81.8329 269.475 81.896 269.334 81.9328C269.265 81.9486 269.186 81.9486 269.113 81.9538C269.092 81.9538 269.076 81.9538 269.055 81.9538C268.997 81.9538 268.934 81.9486 268.876 81.9328C268.771 81.9328 268.666 81.9381 268.566 81.9433C268.167 81.9433 267.768 81.9486 267.373 81.9538C266.543 81.9591 265.708 81.9591 264.872 81.9643C263.175 81.9643 261.477 81.9748 259.78 81.9906C256.038 82.0169 252.297 82.0432 248.555 82.0747C247 82.0852 245.439 82.1009 243.884 82.1115C242.996 83.4935 242.118 84.8755 241.235 86.2576C241.325 86.2891 241.414 86.3259 241.498 86.3679C241.903 86.4415 242.307 86.5046 242.717 86.5676C247.567 87.2192 252.449 87.1877 257.331 87.1509C259.859 87.1299 262.386 87.1141 264.909 87.193C265.545 87.1246 266.359 87.4609 266.359 88.1966C266.133 88.8272 265.345 88.8587 264.783 88.8114C262.35 88.7011 259.896 88.7011 257.436 88.7011C255.991 88.7011 254.541 88.7011 253.096 88.6801C254.278 89.379 255.361 90.3144 256.333 91.4021C256.885 91.1236 257.52 91.0395 258.114 90.9029C264.867 89.5944 268.524 97.5451 271.178 102.437C276.706 112.947 279.917 124.524 282.692 136.016C283.853 141.691 285.088 147.356 286.349 153.01C286.738 154.729 287.153 156.442 287.547 158.16C289.224 158.56 290.732 159.584 292.235 160.404C294.395 161.723 296.418 163.331 297.879 165.412C298.246 165.817 298.383 166.342 298.43 166.873C298.735 168.528 299.024 170.183 299.355 171.833C299.45 171.833 299.544 171.823 299.634 171.812C299.897 171.77 300.17 171.713 300.443 171.686C300.711 171.371 301.021 171.077 301.289 170.756C301.037 170.183 300.785 169.605 300.532 169.027C300.501 168.959 300.475 168.891 300.443 168.822C299.76 167.262 299.093 165.685 298.415 164.125C298.367 164.014 298.32 163.904 298.273 163.793C298.257 163.762 298.241 163.725 298.225 163.688C297.574 162.191 296.927 160.693 296.286 159.19C295.698 157.808 295.099 156.437 294.51 155.076C294.148 154.24 293.785 153.405 293.475 152.69C293.417 152.553 293.359 152.422 293.317 152.322C293.191 152.033 293.065 151.744 292.939 151.455C292.886 151.334 292.834 151.213 292.792 151.119C292.776 151.087 292.76 151.05 292.75 151.019C292.75 151.014 292.745 151.003 292.739 151.003C292.702 150.924 292.671 150.84 292.639 150.772C292.639 150.761 292.634 150.756 292.629 150.746C292.613 150.714 292.603 150.683 292.597 150.672C292.398 150.21 292.198 149.742 292.004 149.301C291.956 149.19 291.909 149.085 291.862 148.975C291.841 148.938 291.83 148.906 291.814 148.87C291.814 148.87 291.814 148.87 291.814 148.864C291.804 148.843 291.793 148.817 291.783 148.796C291.783 148.786 291.778 148.78 291.772 148.775C291.646 148.491 291.525 148.207 291.41 147.934C291.257 147.593 291.11 147.251 290.963 146.91C290.958 146.899 290.953 146.883 290.942 146.867C290.664 146.226 290.385 145.585 290.107 144.944C290.096 144.928 290.091 144.907 290.085 144.892C290.012 144.723 289.938 144.555 289.875 144.408C289.586 143.751 289.302 143.094 289.024 142.453C289.008 142.417 288.992 142.38 288.977 142.343C288.977 142.343 288.977 142.338 288.977 142.333C288.856 142.054 288.73 141.775 288.609 141.492C288.588 141.45 288.572 141.413 288.556 141.371C288.047 140.199 287.537 139.027 287.074 137.966C286.917 137.598 286.754 137.235 286.596 136.862C286.575 136.831 286.565 136.794 286.549 136.757C286.491 136.626 286.439 136.5 286.386 136.389C286.065 135.654 285.745 134.913 285.451 134.235C285.361 134.035 285.277 133.835 285.188 133.636C285.177 133.615 285.172 133.599 285.167 133.583C284.788 132.721 284.415 131.854 284.053 131.019C283.984 130.866 283.921 130.719 283.864 130.588L283.832 130.514C283.795 130.435 283.764 130.351 283.727 130.278C283.706 130.236 283.69 130.194 283.68 130.173C283.669 130.157 283.664 130.141 283.664 130.141C283.659 130.125 283.653 130.11 283.643 130.094C283.622 130.047 283.601 129.999 283.596 129.978C283.559 129.894 283.522 129.815 283.496 129.747C283.438 129.61 283.375 129.474 283.328 129.358C283.307 129.311 283.286 129.258 283.28 129.253L283.222 129.122C283.191 129.043 283.154 128.964 283.117 128.885C283.081 128.806 283.049 128.728 283.012 128.649C283.007 128.633 282.997 128.617 282.991 128.596C282.991 128.586 282.981 128.575 282.975 128.565C282.886 128.365 282.802 128.165 282.713 127.971C282.671 127.876 282.629 127.787 282.592 127.692C282.581 127.677 282.576 127.661 282.571 127.64C282.555 127.598 282.539 127.561 282.518 127.524C282.503 127.482 282.487 127.445 282.466 127.409C282.418 127.293 282.366 127.177 282.313 127.067C282.224 126.878 282.124 126.678 282.056 126.473C282.045 126.452 282.035 126.431 282.024 126.41C281.956 126.258 281.893 126.1 281.856 126.016C281.814 125.922 281.777 125.827 281.735 125.738C281.657 125.559 281.578 125.38 281.536 125.275C281.184 124.466 280.826 123.651 280.527 122.952C280.306 122.443 280.085 121.938 279.891 121.486C279.78 121.234 279.67 120.977 279.554 120.719C279.533 120.682 279.518 120.646 279.502 120.609C279.47 120.53 279.434 120.446 279.434 120.441C279.255 120.031 279.076 119.626 278.95 119.337C278.856 119.122 278.761 118.906 278.719 118.806C278.687 118.733 278.656 118.665 278.624 118.591C278.614 118.57 278.603 118.544 278.593 118.517C277.857 116.836 277.127 115.144 276.417 113.504C276.123 112.832 275.829 112.159 275.54 111.486C275.519 111.444 275.498 111.397 275.482 111.355C274.331 108.712 273.185 106.074 272.061 103.42C270.637 100.062 269.213 96.6991 267.794 93.3412C267.452 92.5319 267.116 91.7227 266.795 90.9029C266.717 90.6927 266.622 90.4825 266.564 90.2671C266.543 90.1935 266.527 90.1147 266.517 90.0358C265.897 89.8256 266.091 88.554 266.843 88.7484C267.079 88.8377 267.2 89.0847 267.211 89.3369C267.5 89.5892 267.641 89.9518 267.804 90.2881C268.177 91.0553 268.524 91.8278 268.876 92.6002C269.607 94.245 270.337 95.8898 271.073 97.5293C272.56 100.84 274.058 104.15 275.456 107.356C275.619 107.734 275.787 108.107 275.897 108.37C275.997 108.596 276.091 108.817 276.16 108.969C276.212 109.09 276.265 109.211 276.312 109.321L276.365 109.432C276.412 109.537 276.454 109.642 276.491 109.721C276.533 109.81 276.57 109.899 276.612 109.989C276.612 109.999 276.622 110.01 276.622 110.02C276.628 110.031 276.633 110.046 276.638 110.057C276.696 110.183 276.748 110.309 276.806 110.435C276.859 110.535 276.895 110.64 276.938 110.74C276.948 110.761 276.953 110.782 276.964 110.798L276.985 110.84C277.027 110.929 277.064 111.024 277.09 111.082C277.1 111.108 277.116 111.139 277.127 111.166C277.169 111.26 277.206 111.355 277.242 111.429C277.253 111.444 277.258 111.465 277.263 111.481C277.263 111.481 277.263 111.481 277.263 111.486C277.29 111.544 277.316 111.607 277.321 111.628L277.379 111.76C277.41 111.833 277.447 111.912 277.447 111.922C277.468 111.965 277.489 112.012 277.489 112.022C277.5 112.043 277.505 112.059 277.516 112.075C277.568 112.196 277.621 112.317 277.621 112.322C277.652 112.39 277.678 112.453 277.689 112.485C277.721 112.553 277.747 112.621 277.757 112.642C277.768 112.669 277.784 112.7 277.794 112.726L277.805 112.747C277.841 112.826 277.873 112.91 277.899 112.968C277.915 113 277.931 113.031 277.941 113.068C277.941 113.079 277.952 113.089 277.957 113.1C277.962 113.11 277.967 113.121 277.978 113.152C278.046 113.31 278.115 113.467 278.13 113.504C278.183 113.615 278.23 113.725 278.272 113.825C278.288 113.856 278.304 113.888 278.314 113.925C278.314 113.93 278.32 113.94 278.32 113.94V113.951C278.335 113.977 278.351 114.003 278.351 114.014C278.393 114.108 278.43 114.203 278.461 114.266C278.498 114.35 278.535 114.429 278.572 114.513C278.661 114.729 278.756 114.939 278.798 115.033C278.829 115.102 278.856 115.17 278.866 115.191L278.934 115.343C278.982 115.449 279.024 115.554 279.045 115.59C279.055 115.606 279.061 115.622 279.061 115.627C279.071 115.653 279.082 115.68 279.092 115.695C279.155 115.848 279.223 115.995 279.292 116.147L279.318 116.21C279.36 116.3 279.397 116.389 279.407 116.421C279.428 116.463 279.449 116.51 279.46 116.531C279.465 116.542 279.47 116.557 279.476 116.568L279.491 116.605C279.523 116.673 279.554 116.746 279.56 116.767C279.618 116.894 279.67 117.02 279.691 117.062C279.717 117.12 279.744 117.183 279.765 117.235L279.786 117.277C279.786 117.277 279.807 117.319 279.812 117.33V117.34C279.812 117.34 279.817 117.34 279.823 117.34C279.865 117.44 279.912 117.54 279.954 117.64C279.996 117.729 280.033 117.818 280.07 117.903L280.127 118.029C280.164 118.113 280.201 118.202 280.222 118.244L280.248 118.302C280.28 118.37 280.306 118.439 280.327 118.481C280.395 118.633 280.458 118.78 280.527 118.932V118.943L280.558 119.011C280.584 119.074 280.611 119.137 280.621 119.164C280.658 119.248 280.695 119.332 280.721 119.395L280.732 119.421C280.784 119.537 280.842 119.652 280.884 119.773L280.895 119.805C280.91 119.847 280.926 119.884 280.937 119.899C280.947 119.915 280.952 119.936 280.958 119.952L280.984 120.01C281 120.041 281.015 120.073 281.021 120.089C281.031 120.104 281.036 120.12 281.042 120.141C281.052 120.162 281.063 120.188 281.063 120.194C281.11 120.304 281.157 120.414 281.199 120.504L281.21 120.525C281.283 120.693 281.357 120.856 281.399 120.956C281.41 120.977 281.42 120.998 281.425 121.019C281.436 121.04 281.441 121.055 281.515 121.218C281.557 121.308 281.593 121.402 281.625 121.471C281.688 121.618 281.756 121.765 281.798 121.865C281.819 121.907 281.835 121.949 281.851 121.991C281.893 122.08 281.93 122.169 281.935 122.185C281.977 122.275 282.019 122.374 282.051 122.448C282.093 122.548 282.135 122.642 282.193 122.769C282.287 122.989 282.382 123.21 282.429 123.31C282.576 123.646 282.718 123.982 282.828 124.235C282.907 124.419 282.991 124.603 283.018 124.666C283.144 124.955 283.27 125.244 283.396 125.527C283.412 125.559 283.427 125.59 283.438 125.627C283.585 125.964 283.727 126.295 283.874 126.631C283.9 126.683 283.927 126.731 283.942 126.789L284.284 127.577C284.294 127.603 284.31 127.635 284.321 127.661C284.757 128.665 285.193 129.673 285.624 130.661C285.635 130.677 285.64 130.698 285.645 130.714L285.666 130.756C285.734 130.919 285.808 131.077 285.839 131.155C285.897 131.287 285.955 131.413 286.002 131.518C286.013 131.544 286.023 131.565 286.034 131.592C286.044 131.607 286.05 131.623 286.05 131.623C286.097 131.733 286.15 131.844 286.197 131.954C286.197 131.954 286.197 131.959 286.197 131.965V131.98C286.249 132.075 286.286 132.17 286.291 132.18C286.328 132.259 286.36 132.343 286.396 132.422C286.433 132.501 286.47 132.579 286.502 132.664C286.549 132.763 286.591 132.868 286.633 132.968C286.665 133.047 286.701 133.121 286.733 133.194C286.733 133.194 286.733 133.194 286.733 133.2L286.754 133.247C286.78 133.305 286.806 133.368 286.822 133.399C286.896 133.562 286.964 133.725 287.001 133.804C287.059 133.93 287.111 134.061 287.116 134.072C287.153 134.151 287.185 134.229 287.222 134.308C287.311 134.513 287.4 134.718 287.437 134.802C287.5 134.955 287.568 135.102 287.616 135.207L287.663 135.312C287.684 135.359 287.705 135.407 287.726 135.459C287.758 135.533 287.789 135.601 287.805 135.648L287.847 135.748L287.852 135.759C287.868 135.79 287.878 135.816 287.894 135.848C287.899 135.864 287.91 135.88 287.91 135.885L287.936 135.937C287.936 135.937 287.936 135.948 287.941 135.953C287.968 136.006 287.989 136.063 287.994 136.079C288.005 136.1 288.015 136.121 288.026 136.142C288.036 136.163 288.041 136.179 288.083 136.279C288.104 136.321 288.12 136.363 288.141 136.405C288.141 136.41 288.146 136.416 288.152 136.426C288.157 136.437 288.162 136.452 288.167 136.458C288.199 136.526 288.225 136.589 288.251 136.647C288.251 136.647 288.251 136.657 288.257 136.662C288.273 136.699 288.288 136.731 288.294 136.741L288.357 136.888C288.393 136.967 288.43 137.051 288.456 137.114C288.493 137.193 288.525 137.272 288.546 137.319C288.551 137.335 288.556 137.346 288.567 137.361C288.577 137.382 288.583 137.398 288.588 137.403C288.593 137.409 288.593 137.419 288.598 137.43L288.614 137.466C288.682 137.624 288.751 137.777 288.782 137.855C288.798 137.892 288.814 137.929 288.824 137.955C288.835 137.981 288.845 138.002 288.856 138.029L288.866 138.06L288.966 138.292C288.998 138.36 289.024 138.433 289.035 138.449L289.056 138.502C289.087 138.575 289.119 138.649 289.145 138.712C289.145 138.722 289.15 138.728 289.155 138.733L289.176 138.775C289.197 138.827 289.224 138.875 289.245 138.927C289.255 138.954 289.266 138.98 289.276 139.001C289.281 139.011 289.287 139.027 289.287 139.027C289.366 139.201 289.439 139.374 289.497 139.511C289.581 139.705 289.665 139.9 289.749 140.094V140.099C289.754 140.115 289.76 140.131 289.765 140.136C289.786 140.178 289.802 140.22 289.812 140.246L289.838 140.304L289.854 140.336C289.875 140.378 289.891 140.414 289.907 140.457C289.98 140.598 290.038 140.751 290.096 140.898C290.164 141.061 290.238 141.218 290.301 141.366C290.311 141.381 290.317 141.397 290.322 141.418C290.332 141.439 290.343 141.465 290.348 141.471C290.48 141.77 290.611 142.07 290.737 142.359C290.863 142.653 290.995 142.947 291.11 143.226C291.121 143.252 291.131 143.278 291.142 143.299L291.152 143.331C291.152 143.331 291.163 143.352 291.168 143.362C291.179 143.383 291.184 143.399 291.189 143.41C291.189 143.41 291.189 143.415 291.189 143.42C291.2 143.436 291.205 143.457 291.21 143.473L291.231 143.525C291.289 143.657 291.341 143.788 291.399 143.914C291.478 144.061 291.531 144.224 291.557 144.282C291.578 144.324 291.594 144.361 291.609 144.403C291.625 144.434 291.641 144.466 291.657 144.503C291.704 144.613 291.751 144.718 291.788 144.808L291.82 144.881C291.82 144.881 291.841 144.923 291.851 144.944C291.867 144.981 291.883 145.013 291.888 145.028C291.898 145.049 291.909 145.07 291.914 145.086C291.925 145.107 291.93 145.128 291.946 145.154L291.972 145.212L291.988 145.249C292.019 145.328 292.056 145.407 292.077 145.459C292.093 145.491 292.109 145.522 292.119 145.559C292.119 145.564 292.124 145.57 292.13 145.58L292.161 145.648C292.203 145.748 292.256 145.853 292.298 145.958C292.335 146.037 292.366 146.116 292.398 146.195C292.429 146.268 292.461 146.342 292.466 146.352C292.508 146.452 292.555 146.552 292.587 146.62C292.634 146.731 292.681 146.841 292.713 146.92C292.724 146.936 292.729 146.952 292.734 146.973L292.745 146.988C292.771 147.051 292.797 147.109 292.813 147.151L292.839 147.209C292.839 147.209 292.86 147.251 292.871 147.288C292.881 147.309 292.892 147.335 292.902 147.356C292.907 147.372 292.918 147.388 292.928 147.409C292.97 147.498 293.007 147.593 293.007 147.598C293.044 147.687 293.081 147.771 293.086 147.777C293.107 147.829 293.133 147.876 293.154 147.929C293.212 148.045 293.259 148.171 293.275 148.213C293.296 148.265 293.317 148.313 293.338 148.355C293.354 148.397 293.375 148.433 293.391 148.475C293.407 148.518 293.428 148.554 293.443 148.596C293.47 148.654 293.496 148.712 293.501 148.722L293.522 148.77C293.575 148.891 293.622 149.006 293.669 149.101L293.711 149.195C293.743 149.264 293.769 149.327 293.785 149.369L293.801 149.406C293.843 149.5 293.885 149.6 293.911 149.658L293.932 149.7L293.953 149.747L293.99 149.826V149.842C294.027 149.91 294.053 149.978 294.069 150.01C294.079 150.036 294.095 150.062 294.106 150.089L294.116 150.104C294.153 150.183 294.184 150.267 294.221 150.341C294.242 150.388 294.263 150.436 294.274 150.462C294.321 150.572 294.368 150.683 294.395 150.74C294.416 150.782 294.437 150.83 294.447 150.856L294.479 150.924V150.935C294.51 151.003 294.542 151.071 294.557 151.103C294.636 151.292 294.726 151.481 294.804 151.67V151.681C294.804 151.681 294.82 151.702 294.825 151.718V151.739C294.825 151.739 294.841 151.76 294.847 151.765L294.873 151.823C294.899 151.881 294.925 151.938 294.946 151.996L294.957 152.023C295.02 152.164 295.078 152.301 295.13 152.422C295.141 152.448 295.157 152.474 295.167 152.501L295.178 152.522C295.199 152.574 295.22 152.622 295.235 152.658C295.235 152.669 295.246 152.674 295.246 152.685C295.256 152.716 295.272 152.742 295.272 152.748C295.293 152.795 295.314 152.837 295.319 152.858C295.33 152.884 295.346 152.911 295.356 152.937C295.361 152.947 295.367 152.963 295.367 152.968C295.404 153.052 295.44 153.137 295.477 153.221C295.493 153.257 295.509 153.289 295.524 153.326L295.535 153.357C295.535 153.357 295.535 153.357 295.535 153.363C295.572 153.447 295.603 153.525 295.635 153.588C295.645 153.604 295.651 153.62 295.656 153.641C295.666 153.662 295.677 153.683 295.677 153.683C295.714 153.767 295.75 153.851 295.777 153.92C295.787 153.941 295.792 153.956 295.803 153.972L295.819 154.004C295.85 154.082 295.887 154.161 295.919 154.23C295.919 154.23 295.919 154.24 295.924 154.245L295.95 154.303C296.008 154.429 296.06 154.555 296.097 154.634C296.123 154.692 296.15 154.755 296.176 154.818C297.29 157.356 298.42 159.884 299.508 162.38C299.55 162.475 299.597 162.574 299.639 162.669C299.692 162.769 299.728 162.874 299.77 162.974C300.412 164.435 301.063 165.89 301.641 167.22C302.014 168.071 302.382 168.928 302.755 169.779V169.789C302.755 169.789 302.766 169.805 302.771 169.81C302.782 169.837 302.792 169.863 302.803 169.889V169.9H302.808L302.824 169.942C302.834 169.968 302.845 169.989 302.855 170.01C302.855 170.01 302.855 170.021 302.86 170.026C302.871 170.052 302.881 170.078 302.897 170.105C303.092 170.557 302.934 171.208 302.503 171.466C302.282 171.707 301.967 171.876 301.61 171.954C301.599 172.969 300.616 173.384 299.686 173.452C299.928 174.55 300.196 175.638 300.517 176.715C300.564 176.684 300.611 176.652 300.669 176.626C300.927 176.6 301.184 176.594 301.442 176.594C301.804 176.594 302.172 176.615 302.54 176.631L302.582 176.673ZM229.527 177.031C232.139 174.324 234.603 171.424 237.767 169.327C237.877 169.259 237.988 169.19 238.098 169.122C237.289 168.991 236.479 168.817 235.675 168.591C232.086 167.635 228.991 165.407 226.526 162.658C227.325 165.964 228.019 169.29 228.45 172.669C228.602 173.935 228.728 175.202 228.828 176.474C228.865 176.468 228.896 176.463 228.933 176.463C229.228 176.463 229.48 176.742 229.522 177.036L229.527 177.031ZM205.044 123.446C207.22 126.31 209.464 128.869 211.466 131.817C212.559 133.415 213.589 135.054 214.745 136.605C218.802 142.243 222.554 148.313 224.561 155.013C224.913 156.337 225.26 157.666 225.607 158.996C225.633 159.033 225.665 159.064 225.696 159.096C231.802 167.566 241.246 168.407 250.673 165.843C257.252 164.398 263.758 162.653 270.337 161.219C275.519 159.968 280.516 158.292 285.839 158.003C283.68 149.484 282.303 140.719 280.122 132.191C278.236 125.165 276.086 118.207 273.369 111.455C271.914 107.855 270.148 104.397 268.346 100.961C266.133 96.7043 262.749 91.3391 257.347 92.6002C257.883 93.3096 258.382 94.0611 258.845 94.8336C260.689 97.9129 262.544 101.197 262.844 104.834C261.12 103.031 260.179 100.724 259.055 98.5382C256.327 93.3307 252.376 87.6659 245.686 89.132C245.66 89.132 245.634 89.1425 245.602 89.1425C248.161 91.6491 249.99 95.0543 251.503 98.2072C252.155 99.5892 252.744 101.003 253.337 102.416C253.558 103.126 254.168 103.819 253.931 104.581C253.842 104.87 253.532 105.049 253.248 104.944C252.943 104.828 252.828 104.529 252.707 104.25C251.919 102.448 251.146 100.672 250.3 98.9061C248.109 94.3291 245.26 89.5944 240.568 87.3243C239.869 88.4226 239.175 89.5209 238.476 90.6191C236.542 93.6565 234.619 96.6938 232.68 99.7259C230.699 102.826 228.697 105.916 226.705 109.017C225.896 110.272 225.081 111.534 224.272 112.79C224.897 112.758 225.244 113.525 225.512 114.014C226.4 115.759 226.385 117.813 226.106 119.71C226.011 120.273 225.796 121.329 225.229 121.586C227.01 123.588 228.865 125.522 230.715 127.456C231.519 128.433 232.554 129.337 233.037 130.514C233.295 131.308 232.57 132.448 231.687 131.975C228.823 128.512 225.433 125.454 222.564 121.965C219.185 118.107 215.838 113.53 210.825 111.786C208.723 111.392 206.242 111.213 204.293 112.211C204.004 112.39 203.736 112.585 203.499 112.784C203.457 113.047 203.273 113.305 202.989 113.305C202.979 113.305 202.968 113.305 202.958 113.305C202.7 113.583 202.49 113.877 202.322 114.177C202.742 114.13 203.095 114.729 202.9 115.175C203.688 116.746 204.519 118.449 205.922 119.558C206.878 120.22 208.649 120.651 209.243 119.332C209.616 117.966 208.554 116.673 207.945 115.538C207.614 115.012 207.262 113.756 207.987 113.436C209.096 113.278 209.521 114.623 209.973 115.391C210.698 116.773 211.287 118.365 210.814 119.926C210.325 121.849 208.129 122.774 206.358 121.97C204.576 121.318 203.562 119.621 202.727 118.023C202.48 117.445 202.012 116.731 201.781 116.021C201.628 118.36 203.173 121.024 205.039 123.452L205.044 123.446ZM199.3 141.97C200.793 140.972 202.406 140.183 204.035 139.442C203.289 139.132 202.601 138.722 202.254 138.454C201.481 137.834 200.619 137.088 200.062 136.205C199.994 138.313 199.411 141.36 199.295 141.975L199.3 141.97ZM222.301 115.843C222.054 116.221 221.808 116.599 221.561 116.978C221.513 117.051 221.466 117.125 221.419 117.198C221.813 117.629 222.196 118.055 222.575 118.47C223.158 119.19 223.752 119.894 224.356 120.593C224.382 120.525 224.419 120.462 224.467 120.409C224.698 118.428 224.829 116.168 223.563 114.497C223.5 114.376 223.458 114.235 223.437 114.082C223.058 114.671 222.68 115.254 222.301 115.843ZM213.999 110.782C213.999 110.782 214.02 110.745 214.03 110.73C214.135 110.551 214.251 110.372 214.361 110.199C214.613 109.815 214.86 109.426 215.113 109.048C215.596 108.307 216.085 107.571 216.568 106.83C217.435 105.506 218.302 104.182 219.164 102.853C217.935 101.449 216.673 100.062 215.496 98.6328C214.923 97.8446 214.062 97.0774 213.993 96.058C214.02 95.2855 214.787 95.1173 215.139 95.811C216.605 97.8183 218.602 99.379 220.178 101.292C221.582 99.132 222.979 96.9723 224.388 94.8493C224.572 94.5708 224.761 94.2923 224.866 94.1294C225.045 93.8562 225.229 93.5829 225.328 93.4305L225.407 93.3096C226.379 91.8383 227.362 90.3722 228.345 88.9061C228.287 88.864 228.219 88.8272 228.14 88.801C226.406 88.0495 224.472 88.2019 222.627 88.2124C217.309 88.1914 211.571 89.3527 207.351 92.7474C204.329 96.1105 205.018 101.066 204.902 105.243C204.923 106.673 204.95 108.097 204.981 109.521C204.997 109.631 205.002 109.757 205.002 109.889C205.091 109.868 205.175 109.852 205.265 109.842C205.948 109.642 206.631 109.531 207.167 109.479C207.693 109.4 208.202 109.363 208.707 109.363C210.614 109.363 212.364 109.91 213.988 110.782H213.999ZM229.033 87.009C229.175 87.0983 229.306 87.1982 229.427 87.3085C229.559 87.1089 229.695 86.9039 229.832 86.7043C229.574 86.8409 229.306 86.9512 229.033 87.009ZM172.111 53.6457C172.111 53.6457 172.111 53.6667 172.111 53.6772C172.064 53.8769 171.959 54.0609 171.812 54.187C171.791 54.2185 171.775 54.2448 171.759 54.2763C171.512 54.6914 171.26 55.1013 171.002 55.5112C170.508 56.3152 170.009 57.1139 169.52 57.9179C168.527 59.5365 167.529 61.1445 166.525 62.7577C164.591 65.8686 162.631 68.969 160.682 72.0694C159.074 74.6338 157.444 77.1771 155.8 79.7205C156.604 79.7362 157.413 79.752 158.217 79.7625C158.227 79.7625 158.227 79.7731 158.217 79.7731C157.376 79.8151 156.53 79.8519 155.684 79.8939C155.663 79.9307 155.642 79.9622 155.616 79.999C158.033 79.9832 160.445 79.9622 162.862 79.9412C163.435 79.9412 164.003 79.9307 164.57 79.9254C166.331 77.2192 168.096 74.5129 169.867 71.8119C171.969 68.5959 174.071 65.3799 176.173 62.1692C178.286 58.9374 180.414 55.7162 182.521 52.4791C182.952 51.817 183.383 51.1549 183.819 50.4928C184.082 50.0987 184.329 49.6888 184.602 49.3104C184.592 49.1107 184.602 48.9111 184.629 48.7219C184.65 48.6115 184.665 48.5012 184.681 48.4119H184.634C184.576 48.3961 184.529 48.3803 184.476 48.3593C183.851 48.2016 183.22 48.0598 182.595 47.8969C181.686 47.6709 180.782 47.4397 179.867 47.2137C178.06 46.7618 176.252 46.3046 174.444 45.8527C170.776 44.9226 167.108 43.9977 163.435 43.0781C159.788 42.1638 156.141 41.2442 152.5 40.3246C148.853 39.405 145.195 38.5011 141.543 37.613C137.88 36.7197 134.217 35.8369 130.56 34.9173C126.855 33.9872 123.156 33.036 119.456 32.0691C117.643 31.5962 115.83 31.118 114.017 30.6346L113.739 30.561C113.623 30.8027 113.408 30.9814 113.082 30.9919C111.984 31.4018 110.891 31.8274 109.808 32.2793L110.165 32.3687C111.101 32.5999 112.036 32.8258 112.972 33.0571C114.853 33.5195 116.734 33.9767 118.61 34.4338C122.388 35.3587 126.162 36.2888 129.935 37.2137C133.718 38.1438 137.502 39.0686 141.291 39.9725C144.964 40.85 148.637 41.7329 152.305 42.642C155.973 43.5511 159.636 44.4917 163.309 45.3903C164.486 45.6793 165.658 45.9631 166.835 46.2573C167.634 46.457 168.433 46.6672 169.231 46.8617C169.294 46.8774 169.363 46.8932 169.431 46.9089C169.673 46.9667 169.851 47.1086 169.972 47.2978C171.244 47.529 172.426 48.0177 173.304 49.0004C173.914 49.8202 173.956 51.034 173.372 51.8643C173.309 52.6683 172.989 53.9978 172.127 53.6089C172.127 53.6194 172.116 53.6352 172.111 53.6457ZM90.5275 72.6632C89.6605 72.7945 88.7881 72.8944 87.9158 72.9942C88.084 73.0415 88.2521 73.0888 88.415 73.1361C88.6778 73.2097 88.9353 73.2833 89.135 73.3358C89.2926 73.3831 89.4503 73.4251 89.5186 73.4461C89.6762 73.4882 89.8286 73.5355 89.9705 73.5723C89.9915 73.5723 90.0073 73.5828 90.0125 73.5828C90.0809 73.6038 90.1492 73.6196 90.1597 73.6248C90.2122 73.6406 90.27 73.6564 90.3016 73.6669C90.3331 73.6774 90.3594 73.6826 90.3909 73.6931L90.4435 73.7089C92.2144 74.2028 93.9801 74.7126 95.751 75.2118C97.5061 75.711 99.2666 76.1892 101.011 76.7042C102.309 77.0878 103.602 77.4872 104.9 77.8813C105.552 78.081 106.208 78.2754 106.86 78.4698C107.149 78.5592 107.449 78.6275 107.732 78.7273C108.053 78.8166 108.268 79.1319 108.342 79.463C108.699 79.4525 109.057 79.4367 109.414 79.421C113.266 79.3106 117.118 79.2581 120.97 79.2423C119.845 78.9112 118.715 78.5854 117.591 78.2491C117.328 78.1703 117.07 78.0915 116.818 78.0179C113.092 76.9091 109.346 75.8529 105.604 74.7756C103.844 74.2712 102.088 73.7614 100.328 73.2465C99.4347 72.9837 98.5414 72.7262 97.648 72.4635C97.2171 72.3374 96.7862 72.2113 96.3553 72.0851C96.1188 72.0168 95.8876 71.9432 95.6511 71.8749C95.546 71.8434 95.4357 71.8119 95.3306 71.7698C93.7331 72.1167 92.125 72.4214 90.5118 72.6632H90.5275ZM144.727 76.2365C146.167 76.6201 147.602 77.0195 149.042 77.4188C150.445 77.8077 151.853 78.1861 153.251 78.6012C153.54 78.6432 153.761 78.8219 153.913 79.0636C154.612 77.9601 155.306 76.8618 156.005 75.7583C155.952 75.7425 155.9 75.7268 155.847 75.711C155.8 75.7005 155.758 75.69 155.716 75.6742C155.306 75.5639 154.896 75.464 154.486 75.3537C153.561 75.1119 152.636 74.8755 151.706 74.6443C150.109 74.2449 148.511 73.835 146.919 73.4146C146.194 74.3552 145.463 75.2959 144.733 76.2365H144.727ZM134.428 73.609C137.36 74.3395 140.287 75.0804 143.209 75.8371C143.219 75.8213 143.225 75.8109 143.235 75.7951C143.955 74.865 144.685 73.9401 145.416 73.0152C142.442 72.2217 139.467 71.402 136.509 70.5402C135.815 71.5597 135.116 72.5843 134.422 73.6038L134.428 73.609ZM149.888 69.5418C149.389 70.1934 148.895 70.845 148.395 71.4913C149.72 71.8802 151.039 72.2743 152.363 72.6737C153.703 73.0783 155.048 73.4829 156.399 73.8508C156.651 73.9191 156.824 74.0925 156.93 74.3132C157.455 73.4829 157.986 72.6579 158.522 71.8329C160.125 69.3736 161.722 66.9091 163.325 64.4498C160.487 63.6668 157.665 62.8365 154.838 62.022C154.066 63.2359 153.293 64.4498 152.515 65.6689C152.405 65.8371 152.3 66.0105 152.195 66.1787C152.704 66.3205 153.214 66.4572 153.729 66.6043C155.469 67.093 157.197 67.5975 158.958 68.0073C159.01 68.0073 159.063 68.0231 159.11 68.0389C159.152 68.0494 159.189 68.0599 159.226 68.0704C159.226 68.0704 159.231 68.0704 159.236 68.0704C159.278 68.0809 159.315 68.0914 159.357 68.1072C159.557 68.1702 159.72 68.3647 159.814 68.5486C159.951 68.8166 159.977 69.1372 159.904 69.4262C159.809 69.7993 159.489 70.1671 159.1 70.1671C159.021 70.1671 158.932 70.1513 158.848 70.1146C158.832 70.1146 158.816 70.1093 158.806 70.104C158.727 70.0935 158.658 70.0725 158.59 70.041C157.134 69.6311 155.674 69.2632 154.202 68.9112C153.114 68.6484 152.027 68.3804 150.944 68.1072C150.602 68.5959 150.25 69.0741 149.893 69.547L149.888 69.5418ZM123.182 70.845C125.662 71.4545 128.143 72.0589 130.628 72.6684C131.501 72.8839 132.373 73.0993 133.245 73.3148C133.671 72.6842 134.086 72.0483 134.512 71.4178C134.78 71.0131 135.053 70.6033 135.321 70.1986C135.153 70.1461 134.985 70.0988 134.817 70.0515C131.758 69.1477 128.705 68.2281 125.647 67.3242C124.827 68.5013 124.002 69.6731 123.182 70.845ZM137.854 68.5591C138.989 68.8586 140.124 69.1581 141.254 69.4682C143.156 69.9884 145.053 70.5244 146.95 71.0762C147.308 70.6243 147.66 70.1776 148.012 69.7257C148.233 69.4472 148.448 69.1739 148.663 68.9007C148.663 68.9007 148.674 68.8902 148.674 68.8849C148.69 68.8639 148.705 68.8429 148.705 68.8429L148.732 68.8061C148.805 68.7115 148.879 68.6169 148.895 68.5959C148.958 68.5118 149.026 68.4277 149.089 68.3437C149.241 68.144 149.389 67.9495 149.541 67.7499C149.079 67.629 148.611 67.5134 148.148 67.3978C145.442 66.7146 142.736 66.0262 140.029 65.3378C139.304 66.4098 138.579 67.4818 137.854 68.5538V68.5591ZM113.891 66.9511C113.586 67.403 113.282 67.8549 112.972 68.3016C114.611 68.7168 116.256 69.1319 117.895 69.5365C119.151 69.8465 120.407 70.1566 121.663 70.4666C121.842 70.2144 122.021 69.9569 122.199 69.7047C122.861 68.764 123.524 67.8287 124.186 66.888C123.823 66.783 123.466 66.6779 123.103 66.5728C120.597 65.8476 118.085 65.1382 115.573 64.4288C115.01 65.2695 114.448 66.1051 113.886 66.9406L113.891 66.9511ZM128.784 62.8208C128.111 63.7824 127.444 64.7493 126.771 65.7162C127.717 65.9632 128.663 66.2049 129.614 66.4466C131.958 67.0404 134.296 67.6342 136.635 68.2386C136.687 68.1597 136.745 68.0756 136.798 67.9968C137.46 67.0036 138.122 66.0157 138.789 65.0226C137.948 64.8071 137.108 64.5916 136.267 64.3762C133.85 63.7561 131.443 63.1151 129.031 62.4687L128.789 62.8208H128.784ZM107.969 65.7582C107.769 66.1471 107.538 66.5045 107.275 66.8355C107.548 66.9091 107.827 66.9826 108.1 67.0509C109.183 67.3347 110.276 67.6132 111.358 67.8917L112.026 66.8933C112.672 65.9212 113.324 64.949 113.975 63.9873C113.14 63.7509 112.304 63.5144 111.463 63.2727C110.623 63.031 109.782 62.7945 108.946 62.5475C108.81 63.672 108.458 64.7913 107.964 65.7582H107.969ZM141.522 63.1413C141.49 63.1886 141.464 63.2306 141.433 63.2779C141.532 63.3042 141.632 63.3305 141.727 63.3567C143.718 63.8875 145.705 64.4235 147.691 64.9595C148.753 65.2485 149.814 65.5323 150.871 65.8213C151.139 65.4114 151.401 65.0068 151.664 64.5969C152.3 63.6195 152.936 62.6421 153.572 61.6594C150.713 60.8397 147.859 60.0042 145.001 59.1844C144.769 59.1213 144.544 59.053 144.318 58.9899C143.387 60.372 142.452 61.7593 141.517 63.1413H141.522ZM116.545 62.9994C117.028 63.1308 117.512 63.2622 117.995 63.3883C120.428 64.0452 122.861 64.6915 125.3 65.3273C126.067 64.2448 126.834 63.1623 127.601 62.0851C126.582 61.8118 125.563 61.5333 124.543 61.26C122.609 60.7398 120.675 60.2249 118.742 59.7046C118.011 60.8029 117.281 61.9011 116.545 62.9994ZM252.696 63.7351C252.749 63.7299 252.807 63.7194 252.859 63.7141C252.78 62.1481 250.657 62.1113 249.475 61.9484C250.016 63.1623 251.414 63.8087 252.702 63.7351H252.696ZM157.429 57.9495C156.84 58.8691 156.252 59.7939 155.663 60.7136C157.418 61.218 159.179 61.7172 160.934 62.227C161.906 62.5055 162.868 62.8155 163.84 63.0888C163.882 63.0993 163.929 63.1151 163.971 63.1256C164.029 63.1413 164.082 63.1676 164.124 63.1991C164.25 63.0047 164.376 62.8155 164.502 62.6211C165.217 61.5228 165.937 60.4245 166.656 59.3368C166.635 59.3368 166.614 59.3262 166.593 59.321C165.49 59.053 164.381 58.8008 163.404 58.5591C162.584 58.3594 161.769 58.1597 160.971 57.9705C159.946 57.7182 158.926 57.4608 157.907 57.198C157.744 57.4503 157.586 57.7025 157.423 57.9547L157.429 57.9495ZM130.481 60.3772C133.723 61.2022 136.95 62.0693 140.177 62.9416C140.587 62.3268 140.996 61.7172 141.406 61.1024C141.958 60.2774 142.51 59.4524 143.067 58.6273C140.518 57.9022 137.964 57.1875 135.405 56.4886C134.785 56.3205 134.165 56.147 133.55 55.9736C132.525 57.4397 131.506 58.9059 130.486 60.372L130.481 60.3772ZM96.7705 55.2274C99.8499 55.3115 102.914 55.6058 105.82 56.578C107.927 57.3294 108.852 59.0635 108.999 60.9868C109.046 60.9973 109.088 61.0078 109.135 61.0236C110.108 61.2758 111.08 61.5333 112.047 61.7908C113.014 62.0483 113.981 62.3058 114.942 62.5685C115.683 61.4702 116.424 60.3772 117.17 59.2842C115.541 58.8428 113.912 58.4014 112.283 57.96C108.169 56.8354 104.07 55.6636 99.9497 54.5653C99.172 54.3551 98.3995 54.1502 97.6218 53.9452C97.338 54.3761 97.049 54.8018 96.7705 55.2327V55.2274ZM146.246 56.1365C145.894 56.662 145.537 57.1875 145.185 57.713C147.271 58.3121 149.357 58.9059 151.443 59.5049C152.436 59.7887 153.435 60.0777 154.428 60.3615C155.138 59.2685 155.852 58.1702 156.562 57.0772C156.604 57.0089 156.651 56.9405 156.693 56.8775C154.071 56.1891 151.454 55.4744 148.837 54.7755C148.364 54.6494 147.896 54.5233 147.423 54.4024C147.034 54.9857 146.64 55.5638 146.251 56.1418L146.246 56.1365ZM120.055 57.7235C123.061 58.4907 126.067 59.2579 129.073 60.0199C129.682 59.1581 130.297 58.3016 130.907 57.4398C131.343 56.8249 131.779 56.2154 132.21 55.6006C130.045 54.991 127.89 54.3604 125.731 53.7298C125.168 53.5669 124.606 53.404 124.044 53.2411C123.76 53.1623 123.482 53.0782 123.198 52.9941H123.187C122.147 54.5758 121.101 56.1523 120.055 57.7235ZM167.592 57.9285C167.592 57.9285 167.608 57.9074 167.613 57.8917C168.454 56.6252 169.279 55.3483 170.13 54.0871C169.662 53.9768 169.2 53.8559 168.732 53.7456C167.949 53.5564 167.171 53.3672 166.394 53.1728C164.602 52.7366 162.81 52.311 161.023 51.8591C157.613 50.9973 154.207 50.0987 150.802 49.2316C150.755 49.3788 150.676 49.5154 150.592 49.6468C150.492 49.8044 150.387 49.9621 150.282 50.1197C150.093 50.4087 149.898 50.6925 149.709 50.9815C149.378 51.4807 149.047 51.9747 148.711 52.4686C151.023 53.0519 153.33 53.6352 155.642 54.2238C156.43 54.4235 157.219 54.6231 158.007 54.8281C158.227 54.4918 158.448 54.1607 158.695 53.8454C158.974 53.4723 159.215 53.0834 159.468 52.6893C159.61 52.4686 159.757 52.2584 160.019 52.1638C160.146 52.1165 160.356 52.0955 160.44 52.2217C160.44 52.2269 160.45 52.2374 160.45 52.2427C160.466 52.2689 160.477 52.3005 160.487 52.332C160.513 52.4108 160.519 52.5001 160.524 52.5842C160.534 52.847 160.445 53.115 160.303 53.3357C160.072 53.6983 159.835 54.0504 159.615 54.4182C159.478 54.6547 159.352 54.8964 159.215 55.1276C159.956 55.3168 160.703 55.5165 161.444 55.7214C163.278 56.2259 165.101 56.7461 166.935 57.2558C166.956 57.2558 166.972 57.2663 166.988 57.2716C166.956 57.2663 166.93 57.2558 166.903 57.2506C166.888 57.2506 166.872 57.2506 166.861 57.2506C167.224 57.2873 167.481 57.5764 167.592 57.9127V57.9285ZM134.528 54.5706C134.528 54.5706 134.522 54.5811 134.517 54.5811C136.955 55.301 139.388 56.0314 141.832 56.7461C142.526 56.9511 143.225 57.1507 143.918 57.3504C144.643 56.2679 145.369 55.1854 146.094 54.1081C146.104 54.0871 146.12 54.0714 146.131 54.0556C142.967 53.2201 139.804 52.3898 136.64 51.5543C135.936 52.558 135.232 53.5669 134.528 54.5706ZM102.052 47.3188C100.917 48.9951 99.7868 50.6767 98.6675 52.3635C100.953 52.9521 103.234 53.5354 105.531 54.0976C109.629 55.1013 113.723 56.1103 117.811 57.1507C118.043 57.2085 118.274 57.2663 118.505 57.3294C119.041 56.5412 119.577 55.7529 120.118 54.9647C121.627 52.7629 123.135 50.5664 124.653 48.3698C124.496 48.3278 124.338 48.2857 124.18 48.2437C121.511 47.5395 118.836 46.8354 116.167 46.1207C115.646 46.8932 115.105 47.6552 114.564 48.4066C114.065 49.0424 112.903 50.9237 112.309 49.4103C112.126 49.5889 111.852 49.631 111.637 49.4576C110.617 48.806 109.346 48.6431 108.216 48.27C106.298 47.7392 104.374 47.2347 102.451 46.7408C102.32 46.93 102.188 47.1244 102.062 47.3136L102.052 47.3188ZM85.5248 53.0729C84.994 53.8139 84.458 54.5601 83.9325 55.3063C85.1412 55.3536 86.3656 55.3063 87.5795 55.2695C88.4466 55.238 89.3084 55.2064 90.1492 55.2117C90.9006 55.2117 91.6574 55.2117 92.4141 55.2064C93.2706 55.2012 94.1272 55.1959 94.989 55.2064C94.9995 54.9962 95.0626 54.786 95.1782 54.6074C95.2202 54.5443 95.2675 54.476 95.3201 54.4129C95.4409 54.2395 95.5618 54.0556 95.6827 53.8822C95.772 53.7561 95.8561 53.6299 95.9454 53.5038C93.2917 52.8049 90.6431 52.1165 87.9894 51.4176C87.6268 51.3231 87.2694 51.2285 86.9068 51.1339C86.4444 51.7802 85.9872 52.4266 85.5248 53.0729ZM77.8946 52.9153C77.8788 53.3777 77.9997 53.7981 78.4568 54.0661C79.6707 54.6862 80.9635 55.012 82.293 55.1749C82.3298 55.1224 82.3665 55.0698 82.4033 55.0225C82.6083 54.744 82.8132 54.4602 83.0182 54.1765C83.4438 53.5932 83.859 52.9994 84.2794 52.4108L85.467 50.7503C85.2778 50.6977 85.0886 50.6504 84.8942 50.5979C84.416 50.4718 83.9378 50.3457 83.4596 50.2143C83.0602 50.1039 82.6556 49.9936 82.2825 49.8149C82.1774 49.7624 82.0828 49.6993 82.0092 49.61C81.1001 50.4507 80.233 51.323 79.4238 52.2584C79.1558 52.5422 79.0401 53.0572 78.5672 53.0309C78.4043 53.0204 78.2834 52.9468 78.1888 52.8417C78.0995 52.8785 77.9997 52.8995 77.8946 52.91V52.9153ZM124.627 50.7976C124.459 51.0603 124.286 51.3178 124.112 51.5805C124.401 51.6646 124.695 51.7487 124.984 51.8328C125.804 52.064 126.629 52.3057 127.449 52.5369C129.041 52.9889 130.634 53.4408 132.226 53.9085C132.552 54.003 132.883 54.1029 133.209 54.1975C133.913 53.199 134.617 52.2059 135.321 51.2022C132.21 50.3772 129.099 49.5469 125.988 48.7271C125.536 49.4155 125.079 50.1039 124.627 50.7976ZM139.872 46.9405C139.761 47.0929 139.656 47.2453 139.551 47.4029C139.32 47.7392 139.084 48.0703 138.852 48.4066C138.548 48.8428 138.238 49.2842 137.933 49.7203C139.798 50.1933 141.659 50.6714 143.519 51.1496C144.822 51.4807 146.125 51.817 147.423 52.1481C147.639 51.8275 147.854 51.507 148.075 51.1812C148.401 50.6977 148.726 50.2143 149.052 49.7361C149.215 49.4943 149.373 49.2579 149.536 49.0267C149.557 48.9951 149.578 48.9689 149.599 48.9374C146.446 48.1439 143.293 47.3609 140.14 46.5569C140.061 46.6935 139.961 46.8196 139.877 46.9457L139.872 46.9405ZM90.9427 45.4534C90.0493 46.7408 89.135 48.0125 88.2259 49.2894C88.1575 49.3893 88.084 49.4891 88.0104 49.589C89.8129 50.0619 91.6153 50.5296 93.4178 51.0025C94.6212 51.3178 95.8246 51.6331 97.028 51.9431C97.3065 51.5438 97.5902 51.1391 97.8687 50.7398C98.883 49.2842 99.8919 47.818 100.89 46.3519C100.286 46.1995 99.6765 46.0419 99.0721 45.8895C96.6654 45.3009 94.2743 44.6388 91.8623 44.0871C91.5575 44.5442 91.2527 45.0014 90.9427 45.4481V45.4534ZM129.125 43.9032C128.936 44.229 128.726 44.5443 128.521 44.8596C128.095 45.5112 127.665 46.1627 127.239 46.8144C127.207 46.8669 127.176 46.9142 127.139 46.9668C128.374 47.2821 129.604 47.5973 130.838 47.9126C132.762 48.4013 134.68 48.89 136.598 49.3787L136.661 49.2894C137.113 48.6536 137.56 48.0177 138.006 47.3766C138.227 47.0613 138.448 46.7461 138.674 46.4308C138.726 46.3572 138.774 46.2836 138.826 46.2101C138.758 46.1943 138.684 46.1733 138.611 46.1575C135.479 45.3535 132.347 44.5285 129.22 43.7035C129.188 43.7718 129.157 43.8348 129.12 43.8926L129.125 43.9032ZM85.2778 46.7881C84.642 47.3188 84.0061 47.8496 83.3755 48.3908C83.7223 48.4644 84.0639 48.559 84.4055 48.6483C85.1254 48.8322 85.8506 49.0214 86.5653 49.2106C86.6914 49.0319 86.8175 48.8532 86.9436 48.6798C88.105 47.0508 89.2821 45.4323 90.3594 43.8664C90.3804 43.8348 90.4014 43.8033 90.4224 43.7718C90.1229 43.7087 89.8286 43.6509 89.5291 43.5931C88.084 44.6231 86.6651 45.6898 85.2725 46.7881H85.2778ZM103.292 45.4849C104.658 45.8527 106.024 46.2153 107.391 46.5727C108.321 46.9773 111.926 47.4029 112.451 48.58C112.509 48.5012 112.583 48.4381 112.667 48.3908C113.429 47.5711 114.08 46.6567 114.737 45.7476C113.697 45.4691 112.651 45.1906 111.605 44.9068C109.372 44.3078 107.133 43.7035 104.9 43.1044C104.364 43.8979 103.828 44.6914 103.292 45.4849ZM118.41 41.6908C118.615 42.3372 118.111 42.9468 117.827 43.4933C117.643 43.8086 117.449 44.1239 117.254 44.4339C117.596 44.518 117.938 44.6021 118.274 44.6914C120.796 45.3325 123.324 45.9841 125.846 46.6252C126.319 45.9421 126.792 45.2589 127.26 44.5758C127.528 44.1817 127.801 43.7928 128.08 43.4039C127.801 43.3304 127.528 43.2568 127.249 43.1832C123.492 42.2006 119.729 41.26 115.972 40.293C113.318 39.6099 110.659 38.932 108.006 38.2594C107.953 38.6693 107.669 39.0109 107.449 39.3367C107.217 39.6887 106.981 40.0303 106.744 40.3771C106.476 40.7765 106.203 41.1811 105.93 41.5857C109.256 42.4265 112.583 43.2568 115.909 44.0976C116.487 43.2778 117.034 42.4843 117.48 41.6068C117.559 41.4123 117.738 41.3178 117.916 41.3178C118.127 41.3178 118.342 41.4491 118.405 41.6908H118.41ZM93.5649 40.8501C93.5649 40.8501 93.5649 40.8553 93.5649 40.8606C93.5807 40.9341 93.5859 41.0129 93.5754 41.0918C93.5544 41.2652 93.4966 41.4123 93.4073 41.5595C93.3179 41.6961 93.2391 41.838 93.1655 41.9798C93.0604 42.19 92.9658 42.4002 92.845 42.5999C92.8029 42.663 92.7662 42.7313 92.7241 42.7891C95.7562 43.467 98.7621 44.2657 101.763 45.075C102.304 44.2815 102.845 43.4933 103.386 42.6998C101.905 42.3057 100.428 41.9115 98.946 41.5279C97.4273 41.1286 95.9086 40.7187 94.3847 40.3246C94.1114 40.498 93.8329 40.6767 93.5649 40.8501ZM91.1686 42.4528C91.2212 42.4633 91.2685 42.4738 91.321 42.4843C91.3788 42.395 91.4419 42.3109 91.4997 42.2268C91.3894 42.3004 91.279 42.3792 91.1686 42.4528ZM96.308 39.1317L99.482 39.9515C101.127 40.3719 102.766 40.7923 104.411 41.2074C104.8 40.6346 105.194 40.0566 105.588 39.4838C105.835 39.1212 106.082 38.7586 106.329 38.4013C106.434 38.2489 106.539 38.0807 106.65 37.9283C105.919 37.7444 105.194 37.5605 104.464 37.3766C103.697 37.1822 102.929 36.993 102.162 36.7985C101.773 36.6987 101.379 36.6041 100.99 36.5043C100.974 36.5043 100.953 36.4938 100.938 36.4885C99.3717 37.3293 97.8267 38.2121 96.3028 39.1317H96.308Z" fill="#050505"/>
<path d="M135.594 134.89C133.944 134.701 133.093 133.287 132.573 131.863C131.874 130.224 131.311 128.532 130.728 126.85C129.362 122.919 128.038 118.973 127.023 114.932C126.503 112.988 126.067 111.027 125.699 109.052C125.652 108.279 125.105 107.123 125.794 106.55C126.14 106.351 126.493 106.645 126.571 106.986C127.906 113.713 130.04 120.192 132.383 126.592C132.925 128.122 133.461 129.661 134.112 131.148C134.396 131.653 134.538 132.352 135.1 132.62C137.302 133.534 138.437 132.872 138.211 130.429C137.796 126.077 136.146 121.963 135.084 117.743C133.939 113.802 132.946 109.903 131.437 106.114C130.481 106.114 129.346 106.398 128.642 105.568C129.23 104.611 130.397 104.606 131.401 104.601C132.567 104.559 132.683 106.009 133.061 106.829C134.801 112.178 136.277 117.612 137.912 122.993C138.232 124.096 138.8 125.804 139.21 127.591C139.262 127.869 139.32 128.143 139.383 128.416C139.388 128.453 139.399 128.484 139.404 128.521C140.019 131.769 139.877 134.969 136.587 134.969C136.283 134.969 135.952 134.942 135.594 134.885V134.89Z" fill="#050505"/>
<path d="M143.681 162.831C143.266 162.763 142.95 162.5 142.593 162.306C142.32 162.222 142.052 162.085 141.889 161.843C141.227 160.608 140.917 159.058 140.475 157.765C138.468 151.118 136.487 144.455 134.642 137.76H134.647C134.437 137.087 135.294 136.52 135.62 137.292C136.487 139.857 137.27 142.547 138.074 145.112C139.703 150.183 141.29 155.275 143.071 160.298C143.413 160.393 143.676 160.703 144.033 160.75C144.443 160.761 144.826 160.571 145.199 160.414C147.154 159.489 145.62 154.844 145.467 153.183C144.238 146.972 143.013 140.661 140.375 134.87C139.046 135.479 137.553 136.105 136.103 135.6C136.734 134.78 137.527 134.018 138.494 133.609C139.272 133.388 140.055 132.694 140.875 132.82C141.589 133.246 141.857 134.171 142.199 134.891C142.73 136.157 143.166 137.466 143.602 138.764C145.131 143.272 146.051 147.944 147.002 152.605C147.743 156.173 149.319 162.973 143.686 162.836L143.681 162.831Z" fill="#050505"/>
<path d="M126.498 107.592C126.525 106.378 127.844 106.288 128.065 107.318C128.002 107.339 127.939 107.36 127.876 107.381C127.718 107.439 127.55 107.492 127.403 107.571C127.255 107.649 127.108 107.76 127.04 107.917C127.008 107.996 126.982 108.07 126.982 108.154C126.982 108.217 126.982 108.275 126.992 108.333C126.992 108.39 126.998 108.448 127.003 108.506C126.73 108.38 126.509 108.075 126.498 107.586V107.592Z" fill="#050505"/>
<path d="M127.439 107.208C126.162 107.04 127.018 105.574 127.854 105.406C128.658 105.106 129.499 104.917 130.345 104.796C130.665 104.549 131.122 104.817 131.227 105.18C131.627 106.399 130.04 106.504 129.236 106.735C128.626 106.851 128.064 107.266 127.433 107.203L127.439 107.208Z" fill="#050505"/>
<path d="M135.184 137.409C134.443 137.231 134.333 136.19 134.722 135.633C136.02 134.283 138.358 134.745 139.987 135.087C138.574 135.88 137.281 136.49 135.857 137.131C135.699 137.336 135.436 137.457 135.184 137.409Z" fill="#050505"/>
<path d="M128.559 111.312C127.797 110.466 128.412 108.953 129.573 108.953C130.193 107.108 132.427 108.475 132.09 110.02C131.901 111.538 129.662 112.442 128.564 111.312H128.559Z" fill="#050505"/>
<path d="M138.306 140.31C137.139 140.226 136.814 138.623 137.544 137.846C138.301 137.036 139.657 137.078 140.603 137.52C141.086 137.814 141.559 138.355 141.412 138.96C141.307 139.448 140.834 139.685 140.377 139.475C139.951 140.142 139.058 140.368 138.306 140.31Z" fill="#050505"/>
<path d="M143.231 159.842C142.211 159.921 142.29 157.998 143.283 158.313C143.825 158.26 144.361 158.355 144.849 158.613C144.849 158.613 144.849 158.618 144.849 158.623C144.502 159.206 143.94 159.779 143.231 159.842Z" fill="#050505"/>
<path d="M134.343 129.967C134.963 129.326 137.895 127.24 139.193 127.519C139.251 127.818 139.314 128.123 139.377 128.423C139.43 128.654 139.482 128.89 139.53 129.121C139.54 129.164 139.546 129.211 139.556 129.253C139.351 129.416 139.057 129.421 138.873 129.116C137.591 129.652 136.224 129.983 134.832 129.983C134.669 129.983 134.506 129.983 134.343 129.967Z" fill="#050505"/>
<path d="M201.697 161.969C193.956 161.123 196.983 157.135 193.851 154.891C191.975 154.276 190.073 154.97 188.213 155.206C185.811 155.606 183.357 156.005 180.919 155.705C174.135 154.791 174.471 149.662 177.908 145.069C180.525 141.57 183.783 138.611 186.804 135.469C188.181 133.903 190.115 132.468 190.709 130.408C189.421 130.04 188.008 130.781 186.71 130.971C183.157 131.806 179.747 133.104 176.273 134.218C172.711 135.18 168.701 136.688 165.091 135.232C162.148 133.892 162.137 130.104 163.299 127.518C164.55 124.439 166.846 121.953 168.974 119.457C171.959 116.083 174.855 112.636 177.713 109.158C179.531 106.782 181.618 104.381 182.306 101.396C182.585 100.24 182.196 98.9315 181.003 98.4849C179.032 97.6336 177.088 97.1554 174.991 96.9399C174.655 96.8769 174.508 96.488 174.539 96.178C174.566 94.8537 178.218 96.1044 179.006 96.2095C185.296 97.334 184.308 102.289 181.549 106.53C178.486 111.128 174.765 115.258 171.213 119.483C168.78 122.526 162.227 128.606 164.644 132.747C167.976 136.115 177.33 131.843 181.329 130.687C184.124 129.778 186.894 128.963 189.773 128.49C190.767 128.317 191.865 128.821 192.086 129.867C192.448 132.542 189.847 134.476 188.302 136.331C185.774 139.3 175.102 148.222 177.429 152.111C180.735 155.159 186.09 153.278 190.031 152.768C192.191 152.337 194.918 152.263 196.121 154.476C197.031 155.674 196.994 157.361 197.971 158.485C200.714 160.482 204.498 159.778 207.688 159.662C212.433 159.184 217.126 158.548 221.855 157.944C222.769 157.849 223.731 157.676 224.609 157.602C217.136 159.83 209.553 162.516 201.676 161.985L201.697 161.969Z" fill="#050505"/>
<path d="M164.87 162.416C161.828 162.306 156.583 160.818 155.501 157.671C155.364 157.061 156.047 156.389 156.415 157.135C157.208 158.748 159.258 159.363 160.861 159.915C163.257 160.661 166.011 160.556 168.37 159.894C174.55 158.406 177.603 155.532 181.534 150.803C185.323 146.562 189.642 142.547 194.787 140.025C196.164 139.489 199.08 138.548 199.616 140.524C199.6 140.661 199.464 140.803 199.364 140.892C198.838 141.465 198.066 141.354 197.367 141.407C196.111 141.549 194.965 142.116 193.893 142.752C189.647 145.443 185.911 148.885 182.632 152.679C181.071 154.434 179.584 156.283 177.787 157.807C174.224 160.782 169.484 162.332 164.865 162.416H164.87Z" fill="#050505"/>
<path d="M174.134 106.967C166.93 106.457 159.215 104.639 153.682 99.7519C150.792 96.9458 148.38 93.6878 145.784 90.6137C145.001 90.435 145.248 89.0162 146.067 89.1738C146.814 89.5206 147.234 90.3719 147.812 90.9447C149.893 93.3357 151.9 95.8055 154.186 98.0073C160.088 103.204 168.753 104.828 176.394 105.08C180.03 105.017 183.866 105.117 187.298 103.782C189.526 102.668 191.082 100.619 192.632 98.7325C193.499 97.7498 194.114 96.5044 195.186 95.7267C195.522 95.5165 195.916 95.3483 196.3 95.3536C196.279 95.5428 196.258 95.7267 196.231 95.8581C196.09 96.8407 195.575 97.692 194.939 98.4329C193.84 99.8728 192.747 101.328 191.512 102.653C189.253 105.396 186.231 106.525 182.758 106.746C179.894 107.072 177.003 107.156 174.129 106.972L174.134 106.967Z" fill="#050505"/>
<path d="M90.4968 6.31968C89.882 5.47364 89.7086 4.28604 89.656 3.27185C90.5231 3.80785 91.4637 4.65389 91.5163 5.74166C91.5583 6.28291 90.933 6.79263 90.4968 6.32494V6.31968Z" fill="#050505"/>
<path d="M286.202 176.793C283.696 175.595 281.389 174.003 279.003 172.579C277.053 172.884 275.088 172.49 273.307 171.691C270.569 170.582 267.794 169.284 265.634 167.235C264.331 166.136 263.385 163.64 265.193 162.563C266.727 161.953 269.16 162.81 270.274 163.966C270.527 163.919 270.8 163.95 271.068 164.013C271.152 161.575 273.864 161.27 275.561 162.4C276.833 160.734 278.656 162.563 279.954 163.251C282.319 164.686 284.684 166.115 287.069 167.524C288.388 168.485 290.622 169.09 290.827 170.939C291.983 172.631 290.932 175.91 288.588 175.411C288.236 176.389 287.227 177.208 286.202 176.788V176.793Z" fill="#050505"/>
<path d="M296.912 187.252C293.648 186.647 290.653 184.729 288.183 182.559C285.776 180.305 283.848 178.303 281.226 176.432C278.94 174.934 276.091 174.745 273.511 174.009C268.792 173.021 263.232 170.746 262.176 165.486C261.719 163.92 262.576 161.524 264.557 162.443C265.014 162.238 265.476 162.696 265.581 163.127C265.744 163.994 265.271 164.398 264.483 164.572C267.831 170.315 276.754 168.465 282.093 171.056C282.019 170.93 281.951 170.809 281.877 170.683C281.399 169.863 281.494 168.665 282.077 167.893C280.175 165.008 278.278 162.049 276.491 159.122C279.407 161.808 282.25 164.524 284.999 167.372C286.444 166.553 288.635 169.296 289.838 170.068C289.245 168.823 290.485 166.831 291.872 167.84C294.726 170.131 297.684 172.359 300.112 175.118C301.762 177.068 303.055 179.564 302.75 182.186C302.503 185.16 299.965 187.667 296.896 187.252H296.912Z" fill="#050505"/>
<path d="M291.068 174.281C289.229 173.488 288.267 171.486 286.959 170.062C285.388 168.601 283.58 167.339 282.151 165.742C278.246 165.994 274.347 165.485 270.49 164.938C269.166 164.938 267.169 165.485 266.396 164.076C265.997 163.693 265.839 163.073 265.902 162.531C266.076 161.044 267.253 161.154 268.388 160.834C272.403 159.52 276.291 157.544 280.579 157.371C281.804 157.161 283.044 157.003 284.274 156.856C284.931 156.777 285.624 156.614 286.229 156.998C288.83 158.858 291.131 161.165 293.27 163.535C294.605 165.385 297.469 167.329 296.886 169.857C296.565 171.528 294.563 172.253 293.233 171.197C293.701 172.594 292.813 174.859 291.058 174.286L291.068 174.281Z" fill="#050505"/>
<path d="M298.32 174.192C297.017 172.71 295.855 171.102 295.041 169.295C293.596 165.585 291.925 161.144 287.726 159.878C287.442 160.056 287.064 159.925 286.806 159.71C285.981 158.953 286.664 157.608 287.736 157.634C291.509 157.518 294.747 160.419 296.538 163.519C298.509 166.693 298.788 170.582 298.32 174.192Z" fill="#050505"/>
<path d="M299.351 178.817C297.275 177.083 296.581 170.735 295.614 167.966C295.294 166.731 294.895 165.501 294.653 164.245C294.18 162.69 295.714 160.467 297.343 161.723C297.906 162.169 298.116 162.879 298.179 163.567C298.757 166.3 299.466 169.011 300.239 171.691C300.67 173.299 301.479 174.839 301.915 176.421C302.183 177.834 300.843 179.642 299.351 178.817Z" fill="#050505"/>
<path d="M230.079 175.154C229.485 174.313 229.99 173.199 229.827 172.242C229.349 170.035 228.918 167.823 228.45 165.616C228.287 164.57 227.856 163.514 227.951 162.447C227.688 162.043 227.462 161.622 227.389 161.149C227.257 160.493 227.877 159.668 228.571 160.041C228.844 160.172 229.028 160.529 229.17 160.782C229.438 161.402 229.906 161.885 230.342 162.395C230.936 163.041 231.792 163.74 232.465 164.245C233.59 165.033 234.719 165.585 235.313 166.856C236.191 166.467 236.842 167.644 236.601 168.406C236.186 169.741 234.74 170.54 233.884 171.512C233.027 172.589 232.213 173.698 231.425 174.828C231.178 175.338 230.515 175.658 230.079 175.159V175.154ZM231.861 170.719C231.871 170.776 231.876 170.834 231.887 170.892C231.919 170.845 231.955 170.797 231.987 170.75C231.961 170.74 231.934 170.734 231.908 170.724C231.892 170.719 231.871 170.708 231.855 170.703V170.724L231.861 170.719ZM233.59 168.585C233.758 168.375 233.926 168.165 234.105 167.96C233.884 167.912 233.668 167.844 233.463 167.755C233.358 167.708 233.253 167.655 233.153 167.597C233.248 167.823 233.343 168.049 233.442 168.275C233.49 168.38 233.542 168.485 233.595 168.585H233.59Z" fill="#050505"/>
<path d="M234.399 169.531C232.36 169.657 232.024 166.798 234.073 166.525C233.033 166.005 232.003 165.458 230.999 164.87C230.715 164.702 230.615 164.318 230.689 164.013C230.762 163.703 231.062 163.393 231.404 163.535C233.143 164.318 234.898 165.075 236.769 165.479C237.358 165.653 238.114 165.606 238.461 166.199C238.487 166.178 238.508 166.157 238.535 166.142C238.535 166.142 238.535 166.142 238.535 166.147C239.791 165.254 240.658 167.361 239.785 168.212C239.276 168.795 238.445 168.916 237.725 169.074C236.627 169.279 235.513 169.526 234.388 169.536L234.399 169.531Z" fill="#050505"/>
<path d="M236.132 200.027C234.424 200.016 232.716 199.953 231.009 199.969C230.252 200.011 229.395 200.053 228.886 199.385C227.115 197.11 229.521 190.894 231.644 189.286C233.384 187.635 239.579 185.833 241.582 187.399C242.144 187.83 242.517 188.439 242.701 189.117C242.307 189.312 241.907 189.459 241.503 189.622C243.321 190.552 245.118 192.444 244.456 194.635C246.28 194.446 247.472 196.385 246.437 197.898C245.691 199.002 244.204 198.976 243.037 199.307C240.767 199.774 238.45 200.037 236.132 200.021V200.027ZM232.401 192.754C232.963 192.423 233.547 192.139 234.167 191.934C234.272 191.897 234.382 191.866 234.487 191.839C234.482 191.619 234.493 191.398 234.524 191.177C233.704 191.524 232.932 192.034 232.401 192.754Z" fill="#050505"/>
<path d="M249.187 197.783C246.596 197.01 245.235 194.436 243.827 192.334C243.595 193.836 242.166 194.688 240.737 194.74C238.924 194.861 236.633 194.903 235.45 193.274C235.219 193.353 234.988 193.442 234.762 193.547C234.651 193.605 234.546 193.663 234.436 193.726C234.657 197.089 229.491 193.516 234.93 190.663C235.419 188.356 237.857 187.32 239.743 186.317C241.325 185.392 243.007 186.569 244.247 187.546C245.929 188.965 247.311 190.82 248.004 192.922C248.561 194.493 248.693 196.212 249.187 197.783Z" fill="#050505"/>
<path d="M246.963 198.161C243.636 197.147 241.576 193.526 242.138 190.137C242.265 188.87 243.71 189.165 243.578 190.342C242.932 193.153 245.565 194.772 247.325 196.422C247.908 197.005 248.502 197.62 249.075 198.187C248.376 198.371 247.661 198.376 246.963 198.151V198.161Z" fill="#050505"/>
<path d="M249.369 200.135C247.955 200.041 246.542 200.24 245.144 200.235C243.988 199.994 243.757 198.312 244.466 197.513C244.382 197.377 244.309 197.235 244.256 197.082C244.119 196.699 244.098 196.273 244.203 195.884C243.326 195.059 242.28 193.367 243.562 192.442C243.851 192.232 244.23 192.269 244.503 192.479C244.745 192.663 244.871 192.889 244.976 193.157C245.706 194.008 246.694 194.607 247.64 195.201C248.985 195.711 250.751 196.016 251.44 197.429C251.881 197.75 252.233 198.207 252.401 198.722C252.417 198.759 252.317 198.885 252.28 198.937C251.965 199.405 251.476 199.762 250.956 199.957C250.52 200.351 249.895 200.393 249.38 200.135H249.369Z" fill="#050505"/>
<path d="M260.311 201.87C259.933 201.802 259.617 201.55 259.412 201.234C259.092 200.746 258.976 200.115 259.113 199.542C256.985 200.346 254.636 200.168 252.549 199.311C251.845 198.985 250.789 198.675 250.773 197.75C250.71 197.22 251.451 196.694 251.814 197.193C253.49 197.624 255.313 197.735 257 197.33C258.409 196.847 259.78 196.253 261.178 195.743C261.698 194.944 262.76 194.287 263.39 193.652C264.483 192.632 265.482 191.497 266.722 190.651C270.642 187.671 274.999 188.838 275.724 193.972C276.628 195.654 279.076 198.512 276.922 200.189C276.417 200.478 275.719 200.378 275.345 199.91C275.088 199.563 274.851 199.18 274.505 198.927C274.321 199.027 274.121 199.101 273.911 199.153C273.485 199.253 273.049 199.285 272.613 199.269C272.187 199.642 271.62 199.731 271.073 199.81C269.365 200.042 267.657 200.299 265.955 200.556C263.974 200.567 262.276 201.917 260.316 201.87H260.311Z" fill="#050505"/>
<path d="M22.2496 43.6194C22.0604 42.8732 22.733 42.6367 23.2901 42.4055C23.3269 42.1743 23.516 41.9326 23.7735 41.9799C24.0205 42.0272 24.1204 42.2636 24.1309 42.4949C24.6353 43.22 23.763 43.6457 23.2533 43.9767C22.9012 44.3078 22.3442 44.0976 22.2548 43.6246L22.2496 43.6194Z" fill="#050505"/>
<path d="M25.5441 42.668C25.3759 42.5997 25.2025 42.5419 25.0606 42.4999C25.0448 42.4999 25.0291 42.4893 25.0133 42.4893H25.0028C24.5246 42.3632 24.0306 42.2896 23.6102 42.2529C23.4526 42.2371 23.3002 42.2266 23.1425 42.2161C23.0059 42.2056 22.8693 42.2003 22.7379 42.1635C22.7326 42.1635 22.7274 42.1635 22.7221 42.1635C22.1809 42.2213 21.6449 42.3002 21.1036 42.3632C20.7095 42.4105 20.5361 41.9323 20.6517 41.617C20.7042 41.4751 20.8146 41.3438 20.9722 41.3175C21.3979 41.2439 21.8235 41.1704 22.2492 41.102C22.4857 41.0653 22.7169 41.0074 22.9534 40.9917C23.3738 40.9654 23.7994 40.9707 24.141 41.0022C24.7033 41.0495 25.2393 41.1546 25.7805 41.3017C26.1274 41.3595 26.2955 41.7799 26.2587 42.1005C26.2377 42.2844 26.1536 42.4683 26.0118 42.5892C25.9224 42.6575 25.8068 42.7048 25.6965 42.7048C25.6439 42.7048 25.5914 42.6943 25.5441 42.6732V42.668Z" fill="#050505"/>
<path d="M80.1182 51.0652C80.6648 48.7216 82.5093 46.9033 83.9701 45.0641C85.0054 43.7662 85.678 45.3269 84.6585 46.1466C83.3763 47.6916 82.0784 49.1315 81.0431 50.8078C80.8434 51.0337 80.8644 51.4646 80.5334 51.5382C80.2601 51.596 80.1025 51.3017 80.1182 51.0442V51.0652Z" fill="#050505"/>
<path d="M81.1104 53.7813C79.082 53.3977 83.5908 48.7944 84.1478 48.064C83.3017 49.9295 82.4399 51.7844 81.4362 53.5711C81.4047 53.713 81.2628 53.8444 81.1104 53.7866V53.7813Z" fill="#050505"/>
<path d="M126.036 107.492C125.71 107.187 126.089 106.746 126.446 106.714C126.63 106.677 126.814 106.698 126.988 106.756C126.946 106.882 126.83 107.003 126.746 107.114C126.552 107.266 126.304 107.671 126.031 107.492H126.036Z" fill="#050505"/>
<path d="M126.414 107.844C125.442 107.518 126.393 105.953 127.203 106.531C127.534 106.736 126.756 108.018 126.414 107.844Z" fill="#050505"/>
<path d="M126 107.34C125.469 106.941 125.743 106.137 126.331 105.974C126.988 105.643 127.797 105.17 128.549 105.385C128.922 105.606 128.953 106.194 128.675 106.499C128.58 106.615 128.444 106.673 128.297 106.699C127.697 106.799 127.146 107.041 126.599 107.298C126.484 107.519 126.152 107.561 126 107.345V107.34Z" fill="#050505"/>
<path d="M133.234 130.787C132.887 130.714 132.819 130.178 133.081 129.967C133.749 129.531 134.437 129.3 135.136 128.964C136.182 128.517 137.201 127.971 138.315 127.718C138.61 127.661 138.841 127.918 138.904 128.181C138.978 128.486 138.862 128.89 138.547 129.006C136.755 129.51 135.089 130.54 133.234 130.787Z" fill="#050505"/>
<path d="M135.669 138.742C135.085 138.028 134.196 137.082 134.517 136.094C134.638 135.847 134.974 135.742 135.164 135.973C135.18 135.973 135.201 135.973 135.216 135.973C135.537 135.989 135.584 136.478 135.369 136.64C135.532 137.36 135.626 138.038 135.669 138.742Z" fill="#050505"/>
<path d="M141.564 159.879C141.055 158.875 145.427 157.351 146.231 157.315C146.814 157.32 147.019 158.124 146.772 158.56C146.478 159.106 145.7 158.933 145.195 159.159C144.097 159.385 143.009 159.642 141.953 160.021C141.811 160.115 141.638 160.021 141.57 159.879H141.564Z" fill="#050505"/>
<path d="M13.9935 55.1787C13.9935 55.1787 4.43468 67.4016 2.82666 71.7737" stroke="#050505" stroke-width="3" stroke-miterlimit="10"/>
<path d="M13.1115 83.472C13.1115 83.472 4.65627 73.9922 1.99725 76.4042" stroke="#050505" stroke-width="3" stroke-miterlimit="10"/>
<path d="M10.9731 116.604C10.9731 116.604 2.96452 113.114 2.36545 109.268" stroke="#050505" stroke-width="4" stroke-miterlimit="10"/>
<path d="M10.7096 166.479C10.7096 166.479 4.67692 177.43 2.43829 178.145" stroke="#050505" stroke-width="3.5" stroke-miterlimit="10"/>
<path d="M14.4558 29.9825C14.4558 29.9825 3.75666 44.8854 2.56378 48.5796" stroke="#050505" stroke-width="2.7" stroke-miterlimit="10"/>
<path d="M14.457 53.199C14.457 53.199 6.26452 52.3477 2.77521 52.4108" stroke="#050505" stroke-width="10" stroke-miterlimit="10"/>
</svg>
