<svg width="254" height="274" viewBox="0 0 254 274" fill="none" xmlns="http://www.w3.org/2000/svg">
<path d="M81.4692 41.6967C81.3115 41.6862 81.1434 41.6651 81.0067 41.5758C80.5443 41.2658 80.4707 40.4776 80.9279 40.1202C81.1329 39.9573 81.3746 39.931 81.6216 39.9048C82.0104 39.8627 82.4046 39.847 82.7934 39.8259C83.5922 39.7839 84.391 39.7471 85.1897 39.7103C86.9133 39.6315 88.6422 39.5579 90.3659 39.4791C93.8447 39.3215 97.3182 39.1586 100.797 39.0062C107.67 38.7014 114.549 38.4702 121.428 38.218C128.464 37.9605 135.501 37.6977 142.537 37.4402C149.605 37.1827 156.673 36.9515 163.741 36.6888C170.762 36.426 177.777 36.158 184.793 35.9005C191.771 35.6431 198.75 35.3803 205.723 35.1228C212.765 34.8653 219.801 34.6078 226.843 34.3556C233.512 34.1244 240.185 33.8879 246.854 33.6725C247.027 33.6672 247.196 33.6567 247.369 33.6567C247.816 33.6304 248.063 34.1612 248.063 34.5238C248.063 34.8758 247.879 35.2437 247.548 35.354C247.49 35.375 247.427 35.3908 247.364 35.3908C247.08 35.4066 246.801 35.4171 246.523 35.4329C243.633 35.5695 240.748 35.6746 237.857 35.7954C234.489 35.932 231.121 36.0687 227.752 36.2106C220.721 36.5101 213.69 36.7781 206.659 37.0513C199.664 37.3246 192.67 37.5926 185.675 37.8659C178.665 38.1391 171.655 38.4019 164.64 38.6699C157.588 38.9431 150.535 39.2374 143.488 39.5264C136.463 39.8155 129.431 40.0677 122.405 40.3514C115.474 40.6247 108.548 40.9242 101.612 41.1449C98.1958 41.2553 94.7748 41.3551 91.3591 41.4602C89.5671 41.5128 87.7752 41.5706 85.9885 41.6231C85.2685 41.6442 84.5381 41.6652 83.8182 41.6915C83.7393 41.6915 83.6553 41.6915 83.5764 41.6967C83.1823 41.7072 82.7882 41.723 82.3941 41.7282C82.3152 41.7282 82.2364 41.7282 82.1628 41.7282C81.9316 41.7282 81.6951 41.7229 81.4639 41.7072L81.4692 41.6967Z" fill="#050505"/>
<path d="M248.295 77.8713C247.738 77.5455 247.849 76.8098 247.817 76.2581C247.77 73.3258 247.775 70.3936 247.743 67.4666C247.717 57.2721 247.144 47.0409 246.64 36.8727C246.409 37.0671 246.093 36.941 245.973 36.694C245.71 36.1685 246.088 35.8848 246.435 35.5695C246.466 35.5169 246.498 35.4696 246.53 35.4223C246.866 34.9704 247.276 35.0387 247.56 35.3435C247.743 35.5432 247.875 35.8375 247.901 36.158C248.222 38.4964 248.227 40.7456 248.39 43.0735C248.39 43.0577 248.39 43.0419 248.39 43.0156C249.01 52.1434 249.33 61.2764 249.33 70.4357C249.378 72.0016 249.252 73.5991 249.42 75.1545C249.336 75.9585 249.735 77.9291 248.663 77.9291C248.558 77.9291 248.437 77.9081 248.306 77.8713H248.295Z" fill="#050505"/>
<path d="M89.7938 273.573C89.7097 273.573 89.6309 273.552 89.5626 273.52C89.2893 273.394 89.1422 273.047 89.1422 272.748C89.1422 272.427 89.1317 272.112 89.1159 271.791C89.1054 271.502 89.0896 271.219 89.0844 270.93C89.0529 269.879 89.0161 268.828 88.9898 267.782C88.9215 265.643 88.8584 263.504 88.7954 261.36C88.6482 256.799 88.4958 252.233 88.3592 247.666C88.0754 238.365 87.8022 229.059 87.5184 219.757C87.2294 210.146 86.9351 200.53 86.6356 190.919C86.336 181.229 86.0575 171.533 85.7685 161.843C85.4795 151.974 85.1852 142.101 84.8804 132.232C84.5809 122.563 84.3024 112.894 84.0028 103.225C83.7033 93.5033 83.3722 83.7871 83.0885 74.0655C82.8047 64.3702 82.605 54.675 82.4105 44.9797C82.3948 44.2177 82.3843 43.461 82.379 42.699C82.379 42.3785 82.358 42.0369 82.3948 41.7111C82.4106 41.564 82.4368 41.4116 82.4841 41.275C82.6365 40.8073 83.2093 40.6181 83.5562 40.9965C83.6297 41.0753 83.6875 41.1751 83.7243 41.2802C83.7716 41.4011 83.7979 41.5377 83.8136 41.6691C83.8294 41.8005 83.8347 41.9371 83.8452 42.0632C83.882 42.5677 83.903 43.0669 83.924 43.5714C83.9765 44.7169 84.0186 45.8625 84.0606 47.0081C84.1552 49.4043 84.2446 51.8005 84.3339 54.202C84.5178 59.0838 84.686 63.9708 84.8384 68.8526C85.1379 78.5111 85.3691 88.1696 85.6214 97.8281C85.8789 107.481 86.1574 117.135 86.4201 126.793C86.6934 136.704 86.9614 146.609 87.2399 156.515C87.5131 166.236 87.7969 175.958 88.0702 185.679C88.3382 195.28 88.5957 204.881 88.8584 214.481C89.1159 223.861 89.3734 233.241 89.6361 242.621C89.8936 251.571 90.1196 260.52 90.3561 269.469C90.3771 270.225 90.3876 270.982 90.4086 271.739C90.4139 272.038 90.4244 272.343 90.4349 272.648C90.4349 272.674 90.4349 272.7 90.4349 272.727V272.753C90.4454 273.047 90.2773 273.394 89.9987 273.52C89.9304 273.552 89.8569 273.567 89.778 273.567L89.7938 273.573Z" fill="#050505"/>
<path d="M90.014 273.528H89.9299C89.809 273.528 89.6882 273.528 89.562 273.528C89.3729 273.528 89.1784 273.528 88.984 273.522C88.9367 273.522 88.8894 273.522 88.8421 273.522C88.6897 273.522 88.5321 273.522 88.3797 273.496C88.3009 273.486 88.2325 273.465 88.1642 273.428C88.159 273.428 88.1537 273.428 88.1485 273.423C88.0644 273.37 87.9855 273.302 87.9277 273.218C87.6702 272.85 87.7123 272.167 88.1485 271.935C88.3376 271.836 88.5426 271.841 88.7475 271.83C88.8684 271.82 88.9945 271.815 89.1154 271.809C89.2257 271.804 89.3308 271.799 89.4412 271.794C89.767 271.778 90.0928 271.767 90.4186 271.757C90.571 271.751 90.7234 271.746 90.8758 271.741C91.911 271.709 92.9515 271.678 93.9867 271.646C95.9836 271.589 97.9858 271.515 99.988 271.463C104.139 271.347 108.291 271.258 112.442 271.163C116.546 271.074 120.656 270.984 124.765 270.937C128.228 270.895 131.691 270.9 135.154 270.858C135.428 270.858 135.696 270.848 135.969 270.848C136.531 270.848 136.846 271.452 136.841 271.946C136.841 272.445 136.526 273.044 135.964 273.044C134.539 273.044 133.121 273.097 131.702 273.128C130.073 273.17 128.444 273.218 126.815 273.254C122.689 273.354 118.564 273.391 114.439 273.433C110.335 273.475 106.231 273.512 102.127 273.533C100.818 273.533 99.5097 273.533 98.2012 273.533C97.455 273.533 96.7088 273.533 95.9626 273.533C94.6173 273.533 93.2773 273.533 91.9373 273.533C91.2962 273.533 90.6498 273.533 90.0087 273.533L90.014 273.528Z" fill="#050505"/>
<path d="M98.1439 248.403C97.6342 248.403 97.1244 248.388 96.6147 248.335C96.3152 248.304 96.0419 248.235 95.7739 248.099C95.322 248.004 95.1013 247.526 95.1065 247.048C95.1118 246.575 95.343 246.107 95.7897 246.002C96.2048 245.776 96.6567 245.708 97.135 245.66C97.8969 245.581 98.6641 245.545 99.4261 245.508C101.139 245.419 102.852 245.345 104.566 245.25C107.923 245.072 111.281 244.841 114.639 244.657C118.234 244.462 121.828 244.289 125.181 244.168C125.522 244.152 125.864 244.142 126.158 244.131C132.627 243.895 139.096 243.695 145.565 243.59C147.315 243.564 149.065 243.548 150.809 243.548C150.851 243.548 150.899 243.548 150.946 243.548C151.96 243.632 152.475 244.699 152.423 245.618C152.375 246.48 151.839 247.373 150.962 247.499C150.342 247.557 149.722 247.584 149.101 247.615C147.383 247.699 145.665 247.762 143.983 247.825C143.452 247.846 142.922 247.862 142.643 247.873C142.412 247.883 142.181 247.888 142.013 247.894C141.955 247.894 141.897 247.894 141.844 247.899H141.802C138.607 248.02 135.407 248.088 132.207 248.162C128.87 248.24 125.528 248.319 122.185 248.361C118.486 248.409 114.786 248.393 111.092 248.382C107.939 248.372 104.786 248.361 101.633 248.382C100.75 248.388 99.8728 248.398 98.9952 248.398C98.7115 248.398 98.4277 248.398 98.1439 248.398V248.403Z" fill="#050505"/>
<path d="M96.8773 254.524C96.8352 254.524 96.7985 254.524 96.7564 254.524C96.5778 254.524 96.3781 254.525 96.2257 254.456C95.9839 254.351 95.842 254.115 95.8105 253.862C95.779 253.594 95.8736 253.216 96.1416 253.09C96.4201 252.953 96.7669 252.959 97.0665 252.943C97.4606 252.917 97.8547 252.901 98.2488 252.88C99.1737 252.838 100.099 252.811 101.023 252.775C102.842 252.712 104.66 252.649 106.473 252.585C110.104 252.465 113.735 252.339 117.361 252.218C120.998 252.097 124.634 251.976 128.276 251.86C131.844 251.75 135.412 251.645 138.98 251.54C140.452 251.498 141.923 251.461 143.394 251.419L145.486 251.361C146.074 251.345 146.663 251.34 147.252 251.314C147.278 251.314 147.304 251.309 147.336 251.309H147.362C147.362 251.309 147.388 251.309 147.399 251.309C147.877 251.282 148.15 251.845 148.15 252.249C148.15 252.691 147.882 253.164 147.404 253.19C147.383 253.19 147.362 253.19 147.341 253.19H147.299C146.553 253.2 145.801 253.237 145.05 253.258C144.188 253.284 143.326 253.311 142.459 253.337C140.646 253.389 138.833 253.447 137.015 253.51C133.431 253.626 129.842 253.726 126.253 253.82C122.621 253.915 118.996 254.01 115.364 254.104C111.707 254.204 108.049 254.299 104.387 254.383C102.931 254.414 101.475 254.461 100.014 254.488C99.2893 254.504 98.5641 254.525 97.8389 254.53C97.6603 254.53 97.4868 254.53 97.3082 254.53C97.161 254.53 97.0139 254.53 96.8668 254.53L96.8773 254.524Z" fill="#050505"/>
<path d="M134.982 258.124C131.098 258.124 127.215 258.119 123.326 258.119C119.437 258.119 115.544 258.103 111.65 258.077C107.787 258.051 103.93 258.045 100.073 258.019C99.3477 258.019 98.6173 258.019 97.8869 258.003C97.54 258.003 97.1931 258.003 96.8463 257.982C96.6729 257.977 96.4942 257.977 96.3261 257.94C96.0423 257.883 95.8689 257.699 95.7743 257.425C95.7008 257.21 95.7165 256.952 95.8164 256.742C95.8847 256.59 95.995 256.443 96.1474 256.364C96.2578 256.306 96.3839 256.296 96.51 256.28C96.7465 256.254 96.9882 256.254 97.23 256.248C97.7029 256.238 98.1864 256.233 98.6593 256.227C99.6262 256.217 100.598 256.212 101.56 256.206C103.504 256.196 105.454 256.185 107.393 256.175C111.25 256.143 115.102 256.096 118.954 256.091C122.864 256.08 126.768 256.07 130.673 256.054C134.54 256.038 138.403 256.038 142.27 256.038C142.99 256.038 143.705 256.038 144.42 256.038C144.625 256.038 144.835 256.038 145.04 256.038C145.45 256.038 145.865 256.038 146.275 256.049C146.569 256.049 146.784 256.238 146.911 256.49C147.005 256.669 147.047 256.879 147.047 257.068V257.11C147.037 257.326 146.968 257.541 146.853 257.714C146.706 257.94 146.474 258.098 146.185 258.098C145.581 258.114 144.982 258.114 144.378 258.114C144.141 258.114 143.899 258.114 143.658 258.114C142.696 258.114 141.745 258.124 140.783 258.124C139.816 258.124 138.844 258.124 137.877 258.124H134.971H134.982Z" fill="#050505"/>
<path d="M96.0741 263.757C95.6011 263.668 95.4488 263.053 95.5959 262.654C95.6747 262.444 95.8376 262.254 96.0689 262.207C96.2685 262.154 96.505 262.165 96.7047 262.154C96.9465 262.139 97.1829 262.128 97.4247 262.118C97.8608 262.097 98.297 262.076 98.7331 262.06C99.7263 262.018 100.719 261.976 101.713 261.934C103.715 261.855 105.717 261.766 107.719 261.676C111.629 261.498 115.544 261.324 119.453 261.161C123.337 261.004 127.226 260.856 131.109 260.72C134.898 260.588 138.692 260.468 142.486 260.352C143.206 260.331 143.921 260.31 144.641 260.289C144.898 260.278 145.161 260.263 145.424 260.263C145.933 260.263 146.222 260.804 146.222 261.256C146.222 261.703 145.939 262.249 145.429 262.249C144.993 262.249 144.562 262.281 144.126 262.302C143.206 262.338 142.286 262.375 141.372 262.412C139.496 262.491 137.625 262.564 135.749 262.633C131.85 262.775 127.946 262.901 124.046 263.032C120.163 263.163 116.269 263.274 112.386 263.368C108.413 263.463 104.445 263.573 100.478 263.678C99.7105 263.699 98.9486 263.72 98.1813 263.741C97.8135 263.752 97.4509 263.757 97.0883 263.768C96.9097 263.768 96.7362 263.773 96.5576 263.778C96.4893 263.778 96.4209 263.778 96.3474 263.778C96.2528 263.778 96.1634 263.778 96.0741 263.757Z" fill="#050505"/>
<path d="M121.897 51.3858C120.404 51.3858 118.912 51.3858 117.42 51.3858C116.747 51.3858 116.074 51.3701 115.407 51.3386C115.055 51.3228 114.703 51.2912 114.356 51.2439C114.083 51.2019 113.794 51.1494 113.578 50.9602C113.131 50.6292 113.089 49.8409 113.468 49.4468C113.804 49.0947 114.298 49.0264 114.755 48.9423C115.228 48.853 115.706 48.8004 116.153 48.7531C116.179 48.7531 116.206 48.7531 116.232 48.7479C116.258 48.7479 116.279 48.7479 116.29 48.7426C118.991 48.4746 121.702 48.2802 124.409 48.0332C127.026 47.7967 129.643 47.6286 132.26 47.4867C137.483 47.1977 142.712 46.9192 147.941 46.772C148.718 46.751 149.501 46.7247 150.279 46.709C150.762 46.6985 151.251 46.6774 151.735 46.6984V46.709C152.034 46.709 152.302 46.7931 152.554 46.9927C152.948 47.3028 153.169 47.7967 153.232 48.2854C153.343 49.1472 152.927 50.2403 151.987 50.4295C151.666 50.4925 151.309 50.4925 150.983 50.5135C150.4 50.5555 149.811 50.5924 149.223 50.6292C148.019 50.6975 146.821 50.7605 145.618 50.8183C142.938 50.9497 140.258 51.0338 137.578 51.1283C134.966 51.2177 132.354 51.307 129.742 51.3648C128.292 51.3963 126.836 51.4016 125.381 51.4016C124.219 51.4016 123.053 51.4016 121.892 51.4016L121.897 51.3858Z" fill="#050505"/>
<path d="M114.645 56.257C114.524 56.257 114.393 56.2464 114.293 56.1781C113.957 55.9574 113.925 55.4214 114.198 55.1429C114.214 55.1219 114.235 55.1062 114.256 55.0904C114.267 55.0799 114.277 55.0746 114.288 55.0693C114.335 55.0431 114.382 55.0168 114.435 55.0063C114.54 54.98 114.65 54.9748 114.771 54.9643C114.971 54.9485 115.171 54.9432 115.37 54.938C115.759 54.9222 116.148 54.9117 116.537 54.9012C117.367 54.8802 118.197 54.8592 119.028 54.8329C120.778 54.7804 122.528 54.7225 124.283 54.67C127.609 54.5596 130.936 54.4388 134.262 54.3389C137.657 54.2338 141.046 54.1339 144.441 54.0551C147.794 53.9763 151.146 53.9028 154.494 53.8187C155.608 53.7924 156.722 53.7661 157.836 53.7398C158.33 53.7241 158.824 53.7136 159.318 53.6978C159.428 53.6978 159.538 53.6926 159.654 53.6873C159.712 53.6715 159.775 53.661 159.843 53.661C159.927 53.661 160.017 53.661 160.101 53.661C160.327 53.661 160.558 53.6348 160.779 53.6506C161.262 53.6926 161.525 54.1603 161.514 54.6122C161.504 55.0063 161.262 55.474 160.847 55.537C160.847 55.537 160.831 55.537 160.821 55.537C160.579 55.5633 160.327 55.558 160.08 55.5633C159.985 55.5633 159.896 55.5685 159.801 55.5685C159.754 55.5685 159.707 55.5633 159.665 55.5528C159.27 55.5581 158.866 55.5685 158.472 55.5738C157.636 55.5896 156.801 55.6054 155.965 55.6211C154.341 55.6527 152.717 55.6894 151.094 55.7262C147.688 55.7998 144.283 55.8734 140.878 55.9312C137.541 55.989 134.204 56.0468 130.867 56.0783C127.483 56.1098 124.094 56.1466 120.709 56.1886C119.579 56.2044 118.444 56.2202 117.315 56.2412C116.826 56.2517 116.332 56.257 115.843 56.2622C115.57 56.2622 115.302 56.2675 115.029 56.2675C114.908 56.2675 114.787 56.2675 114.661 56.2622L114.645 56.257Z" fill="#050505"/>
<path d="M94.0718 65.5057C92.18 64.8121 90.572 63.5509 89.3213 61.985C88.0549 60.398 87.3087 58.4169 87.0775 56.4095C86.841 54.3601 87.2036 52.2371 88.0864 50.3769C88.9272 48.6007 90.2252 47.1031 91.8437 45.989C92.6215 45.4583 93.4991 45.0484 94.3977 44.7541C95.2753 44.4651 96.1896 44.2812 97.1145 44.2287C98.0709 44.1761 99.0168 44.2549 99.9522 44.4651C100.02 44.4441 100.089 44.4336 100.168 44.4336C100.231 44.4336 100.273 44.4336 100.299 44.4441C101.697 44.7962 103.016 45.3952 104.182 46.2465C105.622 47.2975 106.799 48.7689 107.546 50.3874C107.961 51.2807 108.25 52.2161 108.434 53.183C108.76 55.0432 108.628 56.977 108.034 58.769C107.446 60.5294 106.395 62.1478 105.023 63.3985C104.335 64.0238 103.562 64.5546 102.743 64.9855C101.87 65.4427 100.94 65.7579 99.9837 65.9681C99.2953 66.1205 98.5859 66.1941 97.8817 66.1941C96.589 66.1941 95.291 65.9524 94.0824 65.511L94.0718 65.5057ZM97.4824 62.0112C97.4298 62.6628 97.6085 63.409 97.4981 64.0606C97.8923 64.0764 98.2916 64.0606 98.691 64.0343C99.248 63.9765 99.7945 63.8714 100.336 63.7296C100.399 63.7138 100.457 63.6928 100.52 63.6718C100.215 62.8625 100.204 61.5015 100.157 60.7763C99.4162 60.9655 98.5438 60.9707 97.5244 60.75C97.5033 60.75 97.4823 60.7448 97.4613 60.7395C97.4613 61.2177 97.4351 61.6906 97.4876 62.0112H97.4824ZM91.5547 48.7584C91.2447 49.0632 90.9557 49.3837 90.6824 49.72C90.4354 50.0405 90.2095 50.3716 89.994 50.7184C89.8311 51.0127 89.6787 51.307 89.5316 51.6118C89.3739 51.9902 89.232 52.3737 89.1111 52.7626C89.0218 53.0884 88.9482 53.4142 88.8852 53.7453C88.8379 54.0553 88.8064 54.3601 88.7748 54.6701C88.7591 55.0012 88.7591 55.327 88.7748 55.658C88.8011 56.0154 88.8431 56.3675 88.8957 56.7195C88.964 57.0506 89.0428 57.3764 89.1322 57.6969C89.2478 58.0543 89.3792 58.4011 89.5263 58.7532C89.6787 59.0737 89.8363 59.3785 90.015 59.6833C90.2252 60.0144 90.4459 60.3296 90.6824 60.6344C90.9294 60.9287 91.1869 61.2125 91.4654 61.4857C91.4812 61.4121 91.4917 61.3438 91.5022 61.2808C92.0487 58.2697 91.3445 55.2587 91.4759 52.2424C91.5494 51.2177 91.8332 49.3889 92.4375 48.0069C92.1275 48.2381 91.8332 48.4798 91.5495 48.7426L91.5547 48.7584ZM105.806 54.05C105.859 55.8419 105.817 57.6339 105.833 59.4258C105.964 59.1894 106.09 58.9424 106.2 58.6954C106.358 58.3275 106.5 57.9545 106.573 57.7127C106.668 57.3817 106.752 57.0453 106.815 56.709C106.873 56.3675 106.915 56.0259 106.941 55.6791C106.957 55.3375 106.957 55.0064 106.941 54.6701C106.92 54.3496 106.883 54.0343 106.836 53.719C106.768 53.3512 106.684 52.9938 106.579 52.6365C106.468 52.2949 106.342 51.9586 106.2 51.6328C106.048 51.3017 105.88 50.9812 105.691 50.6712C105.628 50.5713 105.565 50.4662 105.496 50.3716C105.685 51.5855 105.769 52.8204 105.796 54.05H105.806ZM95.2279 51.6853C95.2385 52.1793 95.2595 52.6733 95.2963 53.162C95.4171 54.77 95.6904 56.357 96.0792 57.9019C96.4156 58.9844 97.8292 58.9739 98.8592 58.9687C98.98 58.9687 99.0956 58.9687 99.206 58.9687C101.876 58.7112 102.249 55.7789 102.233 53.1409C102.233 52.9465 102.233 52.7573 102.222 52.5682C102.201 51.7221 102.154 50.9339 102.144 50.3033C99.8471 50.5135 97.5296 50.6344 95.2227 50.5608C95.2122 50.9339 95.2122 51.307 95.2227 51.6853H95.2279Z" fill="#050505"/>
<path d="M97.9239 56.7094C97.8398 56.5781 97.7872 56.4047 97.7819 56.1892C97.7819 55.4693 97.7662 54.7336 97.8871 54.0242C98.1132 53.1414 99.149 53.4094 99.1175 54.2659C99.2016 54.8807 99.0649 55.5534 99.1385 56.1892C99.1385 56.4993 99.0281 56.72 98.8809 56.8619C98.76 56.9722 98.6127 57.0247 98.4655 57.0247C98.2604 57.0247 98.0606 56.9196 97.9292 56.7147L97.9239 56.7094Z" fill="#050505"/>
<path d="M97.8288 58.1282C97.3349 58.144 96.7305 57.9076 96.7726 57.3138C96.7884 57.0352 96.9197 56.7094 97.2298 56.6516C97.4295 56.6359 97.6659 56.5675 97.8393 56.7042C97.8656 56.7042 97.8971 56.7042 97.9287 56.7042C98.2492 56.7147 98.5698 56.7672 98.8798 56.8513C99.2845 56.9669 99.6785 57.1456 100.015 57.3716C99.4578 57.8287 98.7432 58.1282 98.018 58.1282C97.955 58.1282 97.8919 58.1282 97.8288 58.123V58.1282Z" fill="#050505"/>
<path d="M95.9315 53.556C95.8 52.6522 96.9305 52.2055 97.1934 53.2039C97.3406 53.8135 96.941 54.2392 96.5519 54.2392C96.2785 54.2392 96.0156 54.0342 95.9315 53.556Z" fill="#050505"/>
<path d="M99.8988 53.9093C99.8778 53.6046 99.9462 53.3786 100.057 53.2209C100.109 53.1526 100.167 53.0948 100.235 53.0528C100.288 53.0213 100.34 53.0002 100.393 52.9845C100.582 52.9319 100.787 52.9687 100.95 53.1001C101.155 53.263 101.292 53.573 101.213 54.0092C101.145 54.4716 100.861 54.6923 100.577 54.6923C100.256 54.6923 99.9356 54.4191 99.8936 53.9146L99.8988 53.9093Z" fill="#050505"/>
<path d="M95.2587 53.1621C95.1378 53.1621 95.0117 53.1148 94.9119 52.9991C94.5913 52.6418 94.6228 51.6907 95.2219 51.6802H95.2324C95.8315 51.2703 96.7144 50.9813 97.3607 51.4437C97.7128 51.6644 98.0071 52.027 98.0859 52.4369C98.0859 52.4474 98.0648 52.4474 98.0438 52.4474C98.0333 52.4474 98.0228 52.4474 98.0228 52.4474C97.2609 52.5998 96.399 52.4684 95.7264 52.9099C95.6213 53.057 95.4584 53.1463 95.2902 53.1568H95.2534L95.2587 53.1621Z" fill="#050505"/>
<path d="M99.4841 53.0789C98.7747 52.3485 99.3633 51.4762 100.288 51.471C101.066 51.3501 101.938 51.8388 102.222 52.5692C102.285 52.7427 102.322 52.9266 102.311 53.1263C102.285 53.1315 102.259 53.142 102.232 53.1473C101.796 53.2524 101.376 53.1893 100.95 53.1C100.766 53.0632 100.577 53.0212 100.393 52.9844C100.356 52.9739 100.32 52.9686 100.283 52.9634C100.272 52.9949 100.257 53.0264 100.236 53.058C100.194 53.1315 100.131 53.1893 100.057 53.2261C99.9887 53.2629 99.9151 53.2786 99.8415 53.2786C99.7049 53.2786 99.5735 53.2156 99.4894 53.0789H99.4841Z" fill="#050505"/>
<path d="M192.776 169.379C191.531 168.197 191.494 166.273 191.205 164.676C190.774 161.859 190.454 159.001 190.685 156.152C190.658 155.227 191.741 154.854 191.935 155.895C191.773 158.139 191.846 160.414 192.203 162.658C192.492 164.875 193.149 167.062 192.818 169.305C192.818 169.305 192.855 169.295 192.85 169.305C192.834 169.332 192.829 169.374 192.787 169.374H192.776V169.379Z" fill="#050505"/>
<path d="M156.774 170.252C156.501 170.252 156.27 169.999 156.207 169.731C156.128 169.4 156.249 168.938 156.601 168.812C158.398 168.108 160.285 167.404 162.129 166.952C160.474 168.202 158.839 169.411 156.937 170.225C156.879 170.246 156.827 170.257 156.769 170.257L156.774 170.252Z" fill="#050505"/>
<path d="M141.162 127.74C141.03 127.709 140.894 127.672 140.757 127.693C139.99 128.392 139.186 127.162 139.643 126.458C139.953 125.486 141.02 125.102 141.94 125.476C142.712 125.801 143.343 126.763 143.201 127.599C142.912 127.83 142.554 127.914 142.187 127.914C141.819 127.914 141.477 127.835 141.157 127.74H141.162Z" fill="#050505"/>
<path d="M141.072 137.32C139.963 135.827 138.938 133.767 140.315 132.107C141.145 130.567 142.79 129.79 143.978 128.649C144.409 127.267 144.104 125.691 144.109 124.272C144.109 123.484 143.852 122.659 144.041 121.881C144.177 121.518 144.498 121.256 144.897 121.382C145.386 121.534 145.418 122.154 145.481 122.569C145.712 124.866 146.243 127.346 145.507 129.585C144.75 131.135 142.822 131.513 141.849 132.895C141.56 133.352 140.988 133.862 141.334 134.419C141.97 135.601 142.937 136.752 142.848 138.145C142.753 138.171 142.659 138.182 142.564 138.182C141.976 138.182 141.413 137.756 141.072 137.309V137.32Z" fill="#050505"/>
<path d="M144.635 142.232C142.654 142.4 141.892 141.728 141.755 141.055C141.587 140.225 142.375 139.4 143.043 140.135C143.463 140.261 143.91 140.256 144.351 140.246C144.861 140.235 145.366 140.23 145.833 140.424C147.068 141.265 146.117 143.388 144.94 143.808C144.519 143.441 144.556 142.747 144.635 142.232Z" fill="#050505"/>
<path d="M156.297 129.2C155.435 128.401 155.782 127.046 155.771 125.995C155.719 125.711 155.787 125.385 155.96 125.165C156.244 124.744 156.906 124.823 157.101 125.291C157.411 126.011 157.3 126.825 157.411 127.587C157.968 128.197 157.505 129.363 156.78 129.363C156.628 129.363 156.465 129.311 156.297 129.195V129.2Z" fill="#050505"/>
<path d="M149.306 120.005C148.707 118.092 154.304 116.668 155.712 116.936C156.9 117.047 157.972 117.856 158.329 119.012C158.098 119.012 157.862 119.012 157.625 119.012C156.868 119.017 156.091 119.028 155.344 118.933C153.637 118.797 151.887 119.285 150.431 120.163C150.279 120.341 150.074 120.436 149.884 120.436C149.648 120.436 149.422 120.299 149.317 120L149.306 120.005Z" fill="#050505"/>
<path d="M140.399 97.8444C140.399 97.8444 140.405 97.8444 140.411 97.8384C140.411 97.8384 140.405 97.8384 140.399 97.8444Z" fill="#050505"/>
<path d="M166.343 100.478C166.348 100.478 166.354 100.478 166.36 100.483C166.354 100.483 166.348 100.483 166.343 100.478Z" fill="#050505"/>
<path d="M166.317 100.472C166.317 100.472 166.328 100.472 166.339 100.477C166.334 100.477 166.328 100.472 166.317 100.472Z" fill="#050505"/>
<path d="M170.752 104.561C170.752 104.561 170.752 104.555 170.747 104.55C170.747 104.55 170.747 104.55 170.741 104.539C170.741 104.544 170.752 104.55 170.758 104.561H170.752Z" fill="#050505"/>
<path d="M182.802 118.107C182.802 118.107 182.802 118.107 182.808 118.114H182.802V118.107Z" fill="#050505"/>
<path d="M182.803 118.108C182.803 118.108 182.797 118.102 182.791 118.096C182.791 118.096 182.797 118.108 182.803 118.108Z" fill="#050505"/>
<path d="M182.808 118.118C182.808 118.118 182.824 118.134 182.835 118.14C182.824 118.134 182.819 118.123 182.808 118.118Z" fill="#050505"/>
<path d="M170.763 104.576C170.763 104.576 170.769 104.576 170.769 104.582H170.763V104.576Z" fill="#050505"/>
<path d="M170.784 104.602C170.784 104.602 170.79 104.608 170.795 104.613C170.795 104.613 170.795 104.613 170.795 104.619C170.795 104.619 170.795 104.613 170.784 104.608V104.602Z" fill="#050505"/>
<path d="M162.607 117.287C162.607 117.287 162.613 117.293 162.613 117.299C162.613 117.299 162.613 117.293 162.607 117.287Z" fill="#050505"/>
<path d="M144.613 151.802C144.613 151.802 144.63 151.824 144.635 151.829C144.624 151.818 144.619 151.807 144.613 151.802Z" fill="#050505"/>
<path d="M94.2291 224.246C94.2291 224.193 94.2291 224.136 94.2186 224.083V224.073C94.1975 223.684 94.1818 223.29 94.1818 222.901C94.1818 222.869 94.1818 222.832 94.1818 222.801C94.1555 221.813 94.1187 220.825 94.0872 219.837C94.0399 218.266 93.9926 216.689 93.9506 215.118C93.856 211.939 93.7614 208.76 93.6668 205.581C93.4724 199.044 93.2622 192.506 93.0677 185.969C92.8785 179.553 92.6894 173.137 92.5002 166.721C92.3057 160.089 92.1166 153.457 91.9169 146.82C91.7172 140.283 91.5228 133.741 91.3336 127.204C91.1444 120.714 90.9605 114.224 90.7923 107.74C90.6189 101.129 90.4665 94.5238 90.3246 87.9131C90.2616 84.9651 90.1985 82.0172 90.1354 79.0639C90.1039 77.6241 90.0671 76.1842 90.0356 74.7443C90.0198 74.0192 90.0041 73.294 89.9883 72.5689C89.9831 72.2378 89.9778 71.9015 89.9725 71.5704C89.9252 71.5704 89.878 71.5704 89.8307 71.5704H89.8149C89.5837 71.5704 89.3682 71.4653 89.2106 71.2972C89.0949 71.171 89.0214 71.0239 89.0161 70.8505C89.0056 70.6456 89.1633 70.4354 89.3104 70.3092C89.4943 70.1516 89.6993 70.1148 89.9357 70.099C90.2616 70.0833 90.5821 70.057 90.9079 70.0465C92.332 69.9782 93.7614 69.9257 95.1907 69.8678C98.3227 69.7417 101.455 69.6156 104.587 69.4894C111.103 69.2267 117.619 68.9692 124.13 68.7275C130.536 68.4858 136.947 68.2231 143.353 67.9708C149.858 67.7133 156.369 67.4663 162.875 67.2141C169.281 66.9671 175.681 66.7097 182.087 66.4522C188.509 66.1947 194.936 65.9582 201.362 65.7217C207.71 65.4853 214.053 65.2488 220.396 65.0176C226.282 64.8021 232.167 64.5971 238.053 64.3712C239.561 64.0033 241.074 63.6671 242.588 63.3675C243.208 62.9209 243.765 63.6408 243.765 64.2503C244.133 68.8221 244.369 73.3991 244.695 77.9708C244.858 80.3198 245.005 82.674 244.8 85.0282C244.784 85.6483 243.996 86.1685 243.528 85.6115C242.903 84.6498 243.224 83.1574 243.055 82.1222C242.882 78.7538 242.519 75.4012 242.083 72.0538C241.19 73.4201 240.312 74.8442 239.514 76.1422C236.571 81.0923 233.523 85.9688 230.864 91.0871C228.221 95.496 225.882 100.152 224.511 105.107C223.722 108.423 221.757 114.865 224.574 117.435C225.43 117.898 225.63 119.527 224.321 119.222C220.58 116.579 221.836 111.297 222.398 107.456C223.207 102.974 224.842 98.7382 226.907 94.7077C226.444 94.7393 225.961 94.8233 225.588 94.9389C215.362 98.0025 215.088 110.514 217.616 119.09C218.173 121.071 218.751 123.294 219.529 125.149C220.044 125.874 220.254 127.871 218.846 127.335C218.546 127.188 218.362 126.899 218.231 126.61C217.79 125.643 217.437 124.64 217.148 123.683C216.465 121.439 215.793 119.148 215.414 116.978C214.421 112.811 214.405 107.735 215.772 103.357C215.388 103.384 214.999 103.384 214.715 103.452C213.607 103.599 212.529 103.893 211.494 104.314C207.553 105.79 205.682 107.887 204.615 111.944C203.012 117.609 202.755 123.526 203.023 129.364C203.228 132.238 203.78 135.076 204.526 137.856C205.22 140.499 206.36 142.9 205.855 145.649C203.832 144.435 203.249 141.991 202.65 139.874C201.609 136.4 201.079 132.832 200.91 129.238C200.695 129.7 200.406 130.131 200.122 130.536C199.634 131.366 199.208 132.233 198.719 133.058C198.498 133.342 198.257 133.615 198.004 133.872C197.978 133.962 197.936 134.046 197.878 134.114C194.132 140.063 193.59 147.062 192.797 153.846C192.797 153.846 192.792 153.846 192.792 153.841C192.692 147.924 192.66 141.502 195.23 136.095C194.599 136.526 193.958 136.947 193.349 137.383C192.077 138.229 190.647 138.97 189.271 139.569C189.271 139.81 189.255 140.057 189.239 140.289C188.278 147.624 187.174 154.992 187.516 162.417C187.663 165.076 188.088 167.935 188.577 170.478C188.929 172.69 189.623 174.918 189.339 177.157C187.547 176.164 187.489 173.862 187.132 172.075C186.785 170.063 186.443 168.045 186.249 166.011C185.629 159.753 186.197 153.51 186.864 147.293C187.137 145.044 187.568 142.774 187.799 140.52C182.823 143.153 178.03 146.453 175.03 151.256C173.301 154.288 171.409 157.225 169.459 160.126C168.913 160.714 166.8 164.971 166.096 163.573C165.965 163.326 165.981 162.937 166.191 162.732C166.806 162.102 167.247 161.313 167.736 160.583C170.3 156.752 172.581 152.764 174.946 148.812C175.198 148.471 175.455 148.134 175.729 147.803C175.676 147.756 175.618 147.693 175.566 147.603C171.346 152.927 166.254 157.467 160.668 161.319C159.985 161.802 159.296 162.27 158.592 162.727C158.529 162.969 158.419 163.142 158.251 163.231C158.088 163.337 157.898 163.342 157.736 163.279C157.383 163.505 157.026 163.725 156.674 163.946C156.495 164.025 156.306 164.146 156.112 164.277C156.18 164.635 156.085 164.976 155.707 165.123C155.649 166.332 155.592 167.551 155.691 168.76C156.001 169.411 155.45 170.194 154.903 170.005C155.119 170.972 153.463 172.154 152.99 172.895C151.083 175.05 149.175 177.204 147.367 179.438C143.531 184.262 139.411 189.07 137.42 194.992C137.346 195.213 137.273 195.439 137.204 195.659C136.963 198.907 136.39 202.112 135.56 205.26C135.512 205.765 135.47 206.264 135.428 206.768C135.192 210.431 135.087 214.136 135.428 217.783C135.491 218.823 135.539 219.869 135.596 220.888C135.607 220.962 135.612 221.041 135.607 221.125L140.152 220.977C143.925 220.857 147.693 220.741 151.461 220.631C155.176 220.526 158.892 220.415 162.607 220.331C163.374 220.315 164.141 220.289 164.903 220.279C165.276 220.268 165.65 220.263 166.023 220.252C166.212 220.252 166.406 220.242 166.601 220.237C166.758 220.237 166.921 220.216 167.079 220.237C167.552 220.3 167.809 220.836 167.82 221.261C167.83 221.734 167.547 222.312 167.011 222.333C166.658 222.365 166.296 222.354 165.949 222.37C165.481 222.386 165.019 222.402 164.551 222.417C163.668 222.449 162.78 222.48 161.897 222.507C160.069 222.57 158.245 222.622 156.417 222.68C152.67 222.796 148.923 222.906 145.176 223.006C141.414 223.106 137.656 223.206 133.894 223.3C130.094 223.395 126.3 223.479 122.501 223.573C118.702 223.668 114.907 223.752 111.108 223.836C107.34 223.92 103.567 223.989 99.7994 224.052C98.9849 224.067 98.1703 224.078 97.3506 224.088C97.1614 224.088 96.9774 224.088 96.7882 224.088C96.5991 224.088 96.4152 224.088 96.2312 224.088C96.1366 224.088 96.042 224.088 95.9474 224.078C95.9632 224.53 95.6742 225.061 95.2065 225.145C95.1645 225.15 95.1224 225.155 95.0857 225.155C94.618 225.155 94.2554 224.677 94.2291 224.23V224.246ZM235.541 66.3103C234.017 66.3681 232.493 66.4259 230.974 66.4837C227.758 66.6045 224.542 66.7359 221.326 66.8568C215.067 67.0985 208.809 67.3402 202.545 67.5715C196.097 67.8079 189.644 68.0759 183.191 68.2914C176.653 68.5068 170.116 68.7538 163.579 68.985C157.126 69.211 150.678 69.4527 144.225 69.6839C137.882 69.9151 131.539 70.12 125.197 70.3565C118.654 70.5982 112.112 70.8295 105.569 71.0607C102.432 71.1711 99.3001 71.2762 96.1629 71.3865C94.5969 71.4391 93.0309 71.4968 91.465 71.5494C91.4124 71.5494 91.3546 71.5494 91.2968 71.5494C91.3126 71.933 91.3283 72.3166 91.3441 72.7002C91.3756 73.4622 91.4019 74.2294 91.4282 74.9914C91.486 76.5941 91.5385 78.2021 91.5963 79.8048C91.7172 83.1732 91.8433 86.5416 91.9694 89.91C92.2059 96.4103 92.4319 102.911 92.6368 109.416C92.8418 115.969 93.0415 122.517 93.2359 129.075C93.4251 135.685 93.609 142.296 93.7982 148.907C93.9874 155.402 94.1765 161.897 94.3605 168.397C94.5496 174.913 94.7336 181.429 94.9228 187.945C95.1119 194.446 95.2801 200.951 95.464 207.451C95.5428 210.305 95.6269 213.153 95.711 216.006C95.753 217.415 95.7898 218.823 95.8319 220.237C95.8581 221.03 95.8739 221.829 95.8949 222.628C96.0315 222.612 96.1682 222.601 96.3048 222.596C96.7673 222.565 97.2297 222.543 97.6869 222.522C98.6433 222.48 99.5997 222.438 100.556 222.402C102.395 222.328 104.235 222.249 106.074 222.181C106.972 222.144 107.876 222.113 108.775 222.081C108.428 221.461 108.465 220.631 108.307 219.948C107.903 217.367 107.614 214.771 107.324 212.176C106.237 204.929 106.111 197.204 108.833 190.294C110.477 186.957 114.251 185.286 115.916 181.986C116.515 180.257 116.647 178.439 116.81 176.689C116.841 176.185 116.736 175.297 117.461 175.334L117.493 175.349C117.829 174.34 119.852 173.531 120.667 173.494C120 174.503 119.132 175.318 118.25 176.122C118.171 176.216 118.06 176.264 117.95 176.269C118.008 177.073 117.766 178.166 117.787 178.665C117.74 180.383 117.44 181.708 116.967 182.806C117.078 182.911 117.167 183.09 117.214 183.358C121.476 188.739 125.223 186.143 130.741 185.749C130.909 185.749 131.119 185.68 131.266 185.707C128.717 187.893 125.307 189.369 121.918 188.576C120.01 188.166 118.428 186.921 117.141 185.507C116.799 185.102 116.426 184.671 116.216 184.177C114.697 186.463 112.327 187.83 110.257 190.772C108.481 194.582 108.134 198.97 108.06 203.137C108.039 207.399 108.906 211.608 109.3 215.838C109.532 217.567 109.721 219.301 110.01 221.02C110.068 221.267 110.062 221.682 109.978 222.028C112.506 221.939 115.034 221.85 117.566 221.76C121.355 221.624 125.149 221.492 128.938 221.366C130.62 221.309 132.301 221.256 133.978 221.198C133.951 220.978 133.946 220.752 133.936 220.547C133.867 219.233 133.794 217.93 133.72 216.621C133.62 214.924 133.563 213.216 133.563 211.513C132.696 213.826 131.713 216.096 130.636 218.303C130.273 218.991 129.9 219.669 129.532 220.352C129.364 220.773 128.991 221.356 128.471 221.083C127.919 220.71 128.113 219.969 128.418 219.496C129.138 218.114 129.889 216.742 130.531 215.318C131.697 212.417 132.822 209.469 133.731 206.469C133.967 202.932 134.477 199.417 135.334 195.98C135.47 195.46 135.623 194.95 135.791 194.446C135.759 191.881 135.271 189.354 134.545 186.884C133.936 184.734 134.246 182.501 134.603 180.336C134.624 180.21 134.645 180.084 134.661 179.958C132.491 180.93 130.11 181.476 127.724 181.303C125.459 181.156 123.105 180.783 121.245 179.39C120.504 178.917 119.989 178.534 120.199 177.556C120.898 172.627 122.932 167.935 124.014 163.069C124.035 162.89 124.104 162.653 124.219 162.47C122.254 161.681 120.483 160.347 118.654 159.285C115.491 157.64 112.375 155.89 109.19 154.303C108.749 154.104 108.323 153.867 107.845 153.773C107.156 153.883 106.836 153 107.072 152.401C106.689 152.375 106.31 152.328 106.074 152.333C105.28 152.228 104.376 151.997 103.825 151.376C103.446 151.009 103.257 150.462 103.325 149.968C103.236 149.926 103.147 149.884 103.068 149.837C102.711 149.621 102.364 149.348 102.07 149.043C99.9675 148.334 99.9097 146.311 102.348 145.628C103.157 145.375 103.982 145.223 104.818 145.149C104.792 142.448 110.073 142.522 113.357 142.595C114.172 142.611 114.871 142.632 115.328 142.606C116.311 142.627 117.293 142.653 118.276 142.764C118.386 142.779 118.491 142.79 118.602 142.816C118.449 141.902 119.048 141.203 121.15 141.119C123.447 140.877 125.549 141.177 127.766 141.429C130.126 141.802 133.069 141.576 134.524 143.851C136.048 146.332 138.434 152.38 135.596 154.561C135.875 154.524 136.169 154.713 136.222 155.155C136.343 160.525 135.581 165.864 135.087 171.198C134.971 172.543 134.892 173.867 134.813 175.118C135.649 175.701 136.5 176.3 137.115 177.11C137.304 177.393 137.257 177.798 137.078 178.087C137.078 178.266 137.036 178.439 136.942 178.592C136.721 178.959 136.337 179.138 135.959 179.322C135.948 179.374 135.943 179.427 135.938 179.48C135.864 181.455 135.355 183.4 135.686 185.339C136.216 187.325 136.742 189.322 137.031 191.35C138.024 189.206 139.259 187.183 140.625 185.234C140.594 185.26 140.562 185.281 140.526 185.307C140.447 185.349 140.352 185.423 140.273 185.349C139.348 184.167 140.168 182.591 140.342 181.282C140.778 179.243 141.287 177.22 141.818 175.202C142.244 173.573 142.675 171.944 143.174 170.383C140.809 173.069 139.769 176.542 138.634 179.863C138.171 181.419 137.803 182.995 137.467 184.582C137.309 185.365 137.146 186.348 136.332 186.7C136.243 186.737 136.195 186.7 136.127 186.621C134.519 184.692 139.627 172.443 141.314 170.441C142.507 168.366 144.814 167.514 146.847 166.495C147.473 166.216 148.103 165.938 148.734 165.675C148.003 165.307 147.336 164.824 146.779 164.214C146.916 164.671 147.173 165.071 147.241 165.544C147.315 166.017 146.973 166.658 146.427 166.558C145.35 166.127 144.609 165.06 143.983 164.141C142.638 161.928 142.911 159.227 142.775 156.742C142.669 154.929 142.417 153.116 141.881 151.382C141.813 151.156 141.881 150.872 142.028 150.688C140.152 147.551 138.681 144.161 137.872 140.599C137.467 138.439 137.409 136.242 137.42 134.046C136.973 132.517 136.437 131.056 135.922 129.521C134.692 125.948 133.373 122.322 133.2 118.507C133.132 112.664 134.918 107.756 139.469 104.23C139.496 104.093 139.532 103.962 139.569 103.835C139.679 103.457 139.832 103.089 140.005 102.732C140.363 101.996 140.872 101.329 141.419 100.719C142.554 99.4634 143.931 98.465 145.371 97.5874C146.816 96.7046 148.371 95.9847 149.948 95.3646C151.524 94.7498 153.143 94.2453 154.782 93.8407C158.014 93.0419 161.367 92.632 164.698 92.6793C166.264 92.7056 167.815 92.858 169.354 93.1628C170.91 93.4728 172.476 93.972 173.847 94.776C174.231 95.0019 174.604 95.2542 174.951 95.538C175.629 94.24 176.795 92.8737 177.342 92.4113C179.071 90.6456 181.598 90.1675 183.911 90.9347C186.207 91.4812 188.377 92.6793 189.707 94.6762C190.327 95.6799 192.261 97.5926 190.795 98.5858C190.316 98.7697 189.901 98.3967 189.507 98.1812C189.055 97.9237 188.577 97.6872 188.062 97.5716C188.745 99.0798 189.791 100.556 189.87 102.254C189.607 104.272 187.81 102.806 186.927 102.112C187.216 102.942 187.626 104.498 186.874 105.028C187.468 105.759 188.01 106.531 188.524 107.319C190.206 109.668 192.003 111.975 193.07 114.682C194.421 117.761 195.156 121.229 196.98 124.077C197.899 125.538 198.756 127.136 200.201 128.15C200.243 128.176 200.28 128.202 200.311 128.234C200.48 128.124 200.663 128.04 200.853 128.008C200.774 124.613 201 121.208 201.42 117.84C202.13 113.51 202.918 108.744 205.955 105.386C207.716 103.678 210.107 102.858 212.414 102.212C213.701 101.839 215.057 101.923 216.365 101.723C218.105 97.5191 221.3 94.2348 226.35 93.5043C226.691 93.4728 227.017 93.499 227.354 93.5306C227.411 93.5306 227.464 93.5464 227.506 93.5674C228.173 92.3272 228.877 91.1029 229.613 89.8995C231.573 86.2473 233.633 82.5268 235.882 79.0901C237.459 76.4154 239.046 73.7722 240.796 71.2078C241.059 70.924 241.39 70.2777 241.757 69.7785C241.558 68.3281 241.353 66.883 241.148 65.4327C240.896 65.4695 240.643 65.501 240.396 65.5326C240.302 65.8741 240.055 66.1684 239.676 66.1736C239.372 66.1894 239.062 66.2104 238.757 66.2104C238.725 66.2104 238.694 66.2105 238.662 66.1999C237.617 66.2367 236.566 66.284 235.52 66.3261L235.541 66.3103ZM153.547 165.286C151.33 166.179 149.123 167.173 146.973 168.182C146.269 168.544 145.549 168.875 144.845 169.243C144.971 169.763 144.546 170.378 144.44 170.898C143.92 172.69 143.484 174.498 143.043 176.306C142.57 178.281 142.107 180.263 141.713 182.259C141.545 182.922 141.508 183.705 141.245 184.356C143.185 181.692 145.355 179.164 147.457 176.679C149.081 174.777 150.815 172.985 152.517 171.156C153.032 170.762 153.789 169.353 154.456 169.506C154.094 168.429 154.341 167.11 154.357 166.059C154.399 165.817 154.409 165.391 154.446 164.95C154.146 165.055 153.836 165.155 153.553 165.286H153.547ZM124.603 165.023C123.731 168.35 122.895 171.687 122.038 175.018C121.797 175.864 121.55 176.747 121.56 177.625C123.063 178.628 124.782 178.881 126.526 179.059C128.954 179.385 131.392 179.043 133.652 178.182C133.216 177.924 133.258 177.278 133.363 176.821C133.379 176.505 133.389 176.201 133.405 175.901C133.389 175.89 133.379 175.875 133.363 175.864C132.985 175.654 132.943 175.129 133.121 174.766C133.195 174.603 133.326 174.498 133.473 174.451C133.857 167.998 135.05 161.608 135.102 155.134C135.118 155.002 135.16 154.892 135.218 154.803C135.087 154.876 134.95 154.939 134.803 154.997C134.735 153.557 135.512 152.249 135.428 150.814C135.087 148.56 134.372 145.833 132.648 144.251C131.361 143.447 129.748 143.531 128.297 143.31C125.58 143.005 123.021 142.559 120.341 143C122.333 146.137 123.405 145.444 126.626 145.444C127.551 145.607 127.488 146.957 127.646 147.588C127.824 148.565 128.013 149.542 128.245 150.509C128.35 151.408 129.464 153.252 128.292 153.741C127.908 153.815 127.667 153.457 127.603 153.121C126.736 151.271 126.437 149.227 126.095 147.23C124.335 147.246 122.254 147.63 120.93 146.174C120.415 145.643 119.858 145.034 119.421 144.43C119.364 144.44 119.311 144.445 119.253 144.456C116.536 144.377 113.809 144.156 111.082 144.209C109.405 144.267 107.524 144.172 106.053 145.055C107.903 145.023 109.779 145.255 111.592 145.407C112.616 145.502 113.641 145.58 114.666 145.643C115.622 145.633 116.678 145.838 117.22 146.71C116.589 147.514 115.549 147.603 114.603 147.441C112.979 147.309 111.334 147.104 109.731 146.941C107.256 146.736 104.629 146.453 102.248 147.383C102.69 147.667 103.142 147.698 103.488 148.055C103.609 148.239 103.657 148.428 103.635 148.602C103.835 148.633 104.03 148.67 104.224 148.723H104.203C104.271 148.733 104.334 148.754 104.387 148.786C105.385 148.371 106.51 148.381 107.603 148.392C107.966 148.392 108.323 148.397 108.675 148.392C109.3 148.402 109.926 148.397 110.546 148.392C111.618 148.392 112.69 148.381 113.757 148.444C114.839 148.539 115.916 148.975 116.773 149.606C115.296 150.273 113.704 150.157 112.133 150.047C111.303 150.073 110.451 150.021 109.595 149.973C107.897 149.879 106.189 149.784 104.618 150.262C105.501 151.045 106.846 150.998 107.924 151.145C108.155 151.114 108.344 151.245 108.439 151.434C109.878 150.777 111.471 150.551 113.042 150.972C114.471 151.24 115.864 151.918 116.841 152.979C115.769 153.195 114.703 152.979 113.646 152.753C112.432 152.501 111.224 152.243 110.01 152.659C113.546 154.498 117.13 156.269 120.546 158.323C123.005 160.058 125.812 161.723 128.933 161.408C130.919 161.266 132.38 159.432 132.99 157.661C133.048 157.388 133.3 157.125 133.599 157.178C134.477 157.498 133.888 158.628 133.662 159.233C132.522 161.986 130.126 163.631 127.104 163.137C126.4 163.1 125.722 162.969 125.076 162.769C125.16 163.484 124.676 164.346 124.592 165.034L124.603 165.023ZM134.545 177.803C134.782 177.698 135.018 177.583 135.249 177.462C135.071 177.315 134.897 177.178 134.719 177.031C134.692 177.315 134.64 177.588 134.545 177.803ZM146.81 156.038C146.632 156.174 146.574 156.432 146.684 156.637C146.684 156.647 146.684 156.658 146.69 156.663C146.737 156.894 146.779 157.131 146.837 157.357C146.942 157.782 147.073 158.208 147.236 158.618C147.578 159.464 148.003 160.278 148.518 161.03C149.033 161.771 149.627 162.449 150.337 163.006C150.689 163.279 151.062 163.536 151.456 163.741C151.824 163.936 152.202 164.093 152.596 164.235C152.659 164.261 152.722 164.272 152.785 164.272C152.985 164.272 153.169 164.162 153.253 163.967C153.353 163.725 153.237 163.405 152.98 163.316C152.717 163.221 152.454 163.116 152.202 162.995C151.924 162.858 151.656 162.701 151.393 162.533C151.135 162.359 150.894 162.17 150.657 161.97C150.41 161.755 150.174 161.518 149.953 161.271C149.695 160.972 149.459 160.662 149.233 160.336C149.233 160.336 149.233 160.336 149.233 160.341C148.981 159.963 148.755 159.579 148.545 159.175C148.324 158.739 148.124 158.297 147.961 157.835L147.982 157.893C147.867 157.556 147.767 157.22 147.693 156.873V156.863C147.693 156.863 147.693 156.857 147.693 156.852C147.693 156.836 147.693 156.831 147.688 156.815C147.688 156.821 147.688 156.831 147.688 156.831C147.641 156.584 147.62 156.311 147.473 156.106C147.383 155.985 147.241 155.927 147.099 155.927C146.994 155.927 146.889 155.959 146.805 156.027L146.81 156.038ZM168.014 145.948C166.669 147.845 164.62 149.18 162.786 150.578C162.439 150.819 162.081 151.051 161.719 151.266C161.677 151.713 161.309 151.976 160.988 152.228C160.358 152.722 159.711 153.189 159.065 153.662C158.392 154.461 157.688 155.228 156.921 155.959C156.863 156.011 156.805 156.069 156.742 156.122C157.415 157.525 158.193 159.511 158.503 161.045C163.485 157.646 168.067 153.605 172.108 149.159C172.644 148.576 173.19 147.998 173.711 147.425C173.574 146.968 173.595 146.426 173.532 145.985C173.411 144.74 173.306 143.494 173.117 142.254C172.455 142.254 171.829 142.007 171.367 141.387C170.626 140.289 170.227 138.491 171.073 137.367C171.903 136.684 172.686 138.029 171.914 138.586C171.84 142.012 174.573 140.367 176.096 138.985C176.128 138.97 176.16 138.949 176.191 138.933C175.392 138.523 174.636 138.045 173.91 137.514C173.196 136.994 172.549 136.389 171.903 135.785C171.241 135.176 170.584 134.561 169.911 133.962C169.275 133.394 168.619 132.848 167.988 132.264C167.289 131.623 166.601 130.977 165.939 130.299C165.334 129.684 164.73 129.064 164.178 128.397C163.574 127.661 163.006 126.894 162.554 126.053C162.113 125.239 161.782 124.366 161.472 123.494C160.862 121.781 160.232 120.063 159.748 118.307C159.633 117.882 159.512 117.456 159.422 117.025C159.317 116.505 159.223 115.985 159.139 115.465C158.991 114.576 158.907 113.673 158.823 112.779C158.65 110.998 158.461 109.211 158.303 107.425C158.251 107.393 158.193 107.351 158.14 107.309C153.863 104.645 146.206 105.265 141.713 107.22C140.615 107.771 139.364 108.334 138.539 109.274C138.586 109.327 138.628 109.385 138.665 109.458C138.944 110.667 138.665 111.986 138.823 113.231C138.959 115.039 139.249 116.831 139.438 118.628C139.711 118.349 140.205 118.302 140.662 118.376C141.503 118.523 142.338 118.812 143.053 119.29C143.71 119.768 144.193 120.499 144.398 121.282C143.889 121.229 143.353 121.114 142.848 120.966C141.876 120.746 141.04 120.015 140.021 120.005C139.842 120.042 139.679 119.994 139.553 119.9C139.595 120.43 139.616 120.966 139.622 121.502C139.406 125.218 138.944 128.917 139.138 132.648C139.149 133.279 139.138 133.909 139.138 134.545C139.301 135.307 139.343 135.959 139.138 136.337C139.154 137.477 139.217 138.612 139.401 139.742C140.431 144.776 142.869 149.401 145.823 153.547C155.655 151.823 159.333 152.811 166.869 144.871C167.037 144.65 167.221 144.561 167.399 144.561C167.93 144.561 168.387 145.391 168.025 145.953L168.014 145.948ZM162.991 112.984C163.069 113.678 163.195 114.361 163.353 115.039C163.679 116.41 164.126 117.761 164.688 119.059C165.224 120.299 165.87 121.492 166.601 122.627C167.326 123.762 168.146 124.829 169.013 125.853C170.153 127.199 171.356 128.486 172.717 129.611C173.385 130.157 174.084 130.656 174.841 131.072C175.608 131.497 176.417 131.87 177.247 132.149C178.104 132.433 178.987 132.648 179.875 132.785C180.763 132.921 181.667 132.969 182.565 132.974H182.613C183.285 132.974 183.958 132.932 184.631 132.906C185.009 132.89 185.382 132.874 185.76 132.853H185.797C186.112 132.842 186.433 132.816 186.754 132.795C187.064 132.774 187.29 132.459 187.258 132.159C187.227 131.886 186.985 131.639 186.701 131.65C185.676 131.686 184.652 131.702 183.627 131.734C183.627 131.734 183.585 131.734 183.564 131.734H183.574C183.543 131.734 183.511 131.734 183.48 131.734C182.529 131.755 181.577 131.728 180.632 131.623H180.626C179.927 131.539 179.244 131.397 178.561 131.219C177.957 131.056 177.368 130.856 176.795 130.614C176.238 130.373 175.687 130.099 175.161 129.789C175.161 129.789 175.151 129.784 175.145 129.779H175.161C175.161 129.779 175.145 129.779 175.14 129.779C174.688 129.506 174.247 129.206 173.826 128.88C173.842 128.891 173.853 128.901 173.868 128.912C173.049 128.26 172.271 127.556 171.54 126.81L171.598 126.868C171.052 126.305 170.526 125.722 170.016 125.128C169.512 124.545 169.023 123.956 168.556 123.347C168.561 123.352 168.566 123.363 168.571 123.368C168.561 123.352 168.556 123.342 168.545 123.331C168.545 123.331 168.54 123.321 168.535 123.315C167.888 122.448 167.3 121.539 166.758 120.604C166.774 120.625 166.785 120.646 166.795 120.667C166.322 119.837 165.902 118.991 165.529 118.113C165.135 117.157 164.798 116.184 164.525 115.186C164.336 114.466 164.173 113.73 164.068 112.989C163.999 112.453 163.963 111.917 163.963 111.371C163.963 111.345 163.963 111.313 163.963 111.287C163.968 110.977 163.726 110.709 163.406 110.73C163.106 110.751 162.917 111.003 162.917 111.287V111.418C162.917 111.418 162.917 111.371 162.917 111.35C162.917 111.896 162.927 112.443 162.991 112.989V112.984ZM197.447 132.464C197.484 132.433 197.521 132.396 197.558 132.364C198.015 131.692 198.399 130.966 198.798 130.262C197.81 130.436 196.801 130.515 195.813 130.373C196.239 130.935 197.127 131.692 197.447 132.469V132.464ZM175.34 117.908C175.86 118.37 176.37 118.838 176.895 119.301C176.895 119.301 176.895 119.306 176.906 119.311C176.979 119.379 177.042 119.458 177.116 119.527C177.31 119.726 177.5 119.926 177.694 120.126C178.188 120.63 178.682 121.14 179.176 121.644C179.754 122.238 180.316 122.837 180.878 123.447C181.409 124.025 181.945 124.598 182.481 125.176C182.902 125.633 183.348 126.074 183.795 126.51C184.452 127.162 185.135 127.787 185.855 128.371C187.221 129.485 188.651 130.525 190.075 131.56C190.175 131.634 190.295 131.671 190.416 131.671C190.626 131.671 190.837 131.566 190.958 131.387C191.163 131.087 191.057 130.714 190.784 130.504C190.106 129.989 189.434 129.474 188.761 128.959C187.71 128.155 186.654 127.356 185.66 126.474C184.51 125.444 183.443 124.33 182.376 123.21C181.793 122.595 181.215 121.975 180.616 121.376C180.017 120.777 179.444 120.21 178.861 119.626C178.577 119.343 178.293 119.059 178.009 118.78C177.894 118.665 177.783 118.544 177.657 118.439C176.653 117.566 175.655 116.689 174.646 115.817C174.651 115.822 174.662 115.832 174.667 115.838C174.588 115.769 174.504 115.712 174.425 115.648C174.257 115.522 174.084 115.396 173.916 115.27C173.506 114.965 173.091 114.66 172.681 114.35C172.218 114.009 171.745 113.688 171.267 113.373C171.22 113.205 171.088 113.063 170.91 113.016C170.831 112.989 170.747 112.968 170.663 112.963C170.363 112.937 170.074 113.152 170.08 113.473C170.08 113.652 170.143 113.799 170.269 113.93C170.374 114.04 170.51 114.114 170.631 114.198C170.615 114.182 170.594 114.172 170.579 114.156C170.936 114.403 171.293 114.661 171.651 114.908C172.029 115.202 172.407 115.486 172.786 115.775C173.054 115.98 173.322 116.184 173.59 116.389C173.7 116.473 173.811 116.552 173.916 116.642L173.905 116.631C173.905 116.631 173.916 116.642 173.921 116.647C174.394 117.078 174.872 117.498 175.345 117.924L175.34 117.908ZM135.355 114.618C135.355 114.618 135.344 114.661 135.344 114.687C135.344 114.697 135.344 114.703 135.344 114.708C135.313 114.913 135.302 115.112 135.286 115.312C135.244 115.727 135.207 116.148 135.171 116.563C135.113 117.162 135.092 117.761 135.081 118.36C135.045 120.105 135.165 121.865 135.644 123.552C135.875 124.372 136.174 125.17 136.5 125.953C136.621 126.253 136.752 126.547 136.879 126.841C136.936 126.978 137.005 127.104 137.073 127.235C137.194 127.482 137.33 127.724 137.546 127.903C137.63 127.971 137.735 128.008 137.84 128.008C137.951 128.008 138.061 127.966 138.145 127.871C138.292 127.703 138.292 127.419 138.119 127.267C138.092 127.246 138.066 127.225 138.04 127.204C138.04 127.199 138.029 127.188 138.024 127.183C137.993 127.136 137.966 127.094 137.935 127.046C137.63 126.463 137.383 125.853 137.131 125.244L137.152 125.296C136.852 124.534 136.574 123.762 136.364 122.974C136.364 122.99 136.374 123.011 136.379 123.026C136.216 122.364 136.085 121.697 136.006 121.019C135.901 120.068 135.875 119.106 135.891 118.15V118.155C135.901 117.593 135.922 117.03 135.969 116.468C136.006 116.022 136.043 115.58 136.08 115.139C136.096 114.902 136.127 114.671 136.159 114.435C136.206 114.082 136.264 113.736 136.306 113.389C136.343 113.205 136.374 113.021 136.411 112.832C136.421 112.769 136.437 112.706 136.448 112.643C136.469 112.522 136.49 112.396 136.505 112.27C136.516 112.201 136.516 112.128 136.505 112.065C136.474 111.912 136.395 111.755 136.243 111.681C136.153 111.639 136.064 111.623 135.964 111.623C135.764 111.623 135.612 111.812 135.617 112.002C135.617 112.117 135.68 112.212 135.764 112.275C135.764 112.28 135.764 112.291 135.764 112.296C135.722 112.49 135.686 112.679 135.649 112.874C135.623 113.021 135.581 113.173 135.56 113.326V113.315C135.56 113.315 135.56 113.315 135.56 113.321C135.549 113.399 135.533 113.473 135.528 113.552C135.523 113.594 135.512 113.641 135.507 113.683C135.496 113.767 135.481 113.857 135.47 113.941C135.47 113.925 135.47 113.909 135.475 113.888C135.46 113.972 135.449 114.061 135.433 114.146C135.433 114.135 135.439 114.119 135.444 114.109C135.428 114.198 135.412 114.287 135.402 114.377C135.391 114.44 135.381 114.508 135.37 114.571V114.561C135.37 114.576 135.365 114.592 135.36 114.608L135.355 114.618ZM190.185 124.209C190.185 124.209 190.196 124.219 190.201 124.224H190.206C190.721 124.771 191.236 125.312 191.746 125.848C191.882 125.99 192.066 126.069 192.25 126.069C192.392 126.069 192.534 126.022 192.655 125.916C192.923 125.685 192.949 125.275 192.718 125.007C192.445 124.692 192.177 124.377 191.898 124.067C191.036 123.074 190.154 122.096 189.265 121.119C188.892 120.709 188.519 120.304 188.141 119.905L187.19 118.896C187.011 118.707 186.838 118.518 186.654 118.334L186.722 118.402C186.218 117.861 185.697 117.33 185.188 116.794C184.284 115.853 183.406 114.892 182.518 113.935C182.182 113.578 181.877 113.194 181.556 112.821C181.257 112.469 180.963 112.122 180.668 111.77C180.532 111.607 180.385 111.45 180.253 111.282C180.159 111.15 180.059 111.029 179.959 110.903C179.749 110.63 179.538 110.362 179.323 110.089C179.018 109.695 178.713 109.295 178.398 108.901C178.214 108.644 178.004 108.402 177.815 108.155C177.615 107.897 177.415 107.645 177.211 107.393C176.785 106.883 176.328 106.4 175.839 105.943C175.366 105.496 174.856 105.097 174.289 104.771C173.753 104.461 173.175 104.193 172.581 104.019C171.745 103.778 170.878 103.636 170.011 103.562C169.107 103.489 168.198 103.462 167.294 103.473C166.369 103.483 165.45 103.531 164.525 103.578C163.9 103.604 163.28 103.673 162.654 103.725C162.37 103.751 162.087 103.793 161.798 103.83C161.498 103.872 161.199 103.914 160.904 103.972H160.894C160.894 103.972 160.878 103.972 160.868 103.972C160.657 103.993 160.484 104.156 160.473 104.377C160.468 104.603 160.652 104.813 160.878 104.813C160.978 104.813 161.067 104.802 161.167 104.787C161.146 104.787 161.13 104.787 161.114 104.792C161.262 104.771 161.414 104.75 161.561 104.729H161.551C161.955 104.687 162.355 104.634 162.759 104.613C163.259 104.587 163.752 104.545 164.252 104.529H164.241C164.331 104.529 164.42 104.529 164.514 104.529H164.451C164.53 104.529 164.609 104.529 164.688 104.529C164.688 104.529 164.688 104.529 164.683 104.529C165.145 104.524 165.608 104.513 166.065 104.508H165.996C166.107 104.508 166.217 104.508 166.327 104.508C167.536 104.524 168.745 104.566 169.948 104.713C169.922 104.713 169.896 104.708 169.869 104.702C170.484 104.781 171.099 104.897 171.698 105.049H171.709C171.709 105.049 171.709 105.049 171.714 105.049C171.714 105.049 171.719 105.049 171.724 105.049C171.73 105.049 171.735 105.049 171.74 105.049C171.74 105.049 171.745 105.049 171.751 105.049C172.019 105.123 172.281 105.212 172.539 105.317C172.549 105.317 172.555 105.323 172.565 105.328C172.891 105.47 173.211 105.627 173.516 105.801C173.768 105.948 174.005 106.111 174.236 106.289L174.168 106.237C174.499 106.494 174.804 106.778 175.098 107.078C175.077 107.057 175.056 107.036 175.04 107.015C175.334 107.314 175.629 107.624 175.902 107.945C176.181 108.276 176.443 108.617 176.706 108.959C176.69 108.938 176.669 108.912 176.654 108.891C176.858 109.159 177.058 109.427 177.263 109.689C177.263 109.689 177.263 109.689 177.263 109.695C177.263 109.695 177.263 109.7 177.268 109.705C177.268 109.705 177.279 109.721 177.284 109.726C177.284 109.726 177.295 109.737 177.3 109.742C177.615 110.157 177.936 110.572 178.251 110.987C178.535 111.36 178.819 111.744 179.108 112.112C179.27 112.338 179.465 112.543 179.644 112.753C179.975 113.152 180.306 113.547 180.637 113.946C180.936 114.303 181.225 114.655 181.541 114.997C182.108 115.617 182.676 116.237 183.238 116.857C183.574 117.22 183.916 117.577 184.252 117.934C184.715 118.418 185.161 118.912 185.629 119.385C185.976 119.753 186.323 120.12 186.675 120.488C186.901 120.725 187.127 120.961 187.353 121.203C187.452 121.308 187.547 121.418 187.652 121.518C188.109 122.023 188.582 122.517 189.045 123.011C189.202 123.179 189.355 123.342 189.512 123.51C189.728 123.741 189.938 123.983 190.164 124.203L190.185 124.209ZM135.355 114.618C135.355 114.618 135.355 114.592 135.355 114.582C135.355 114.597 135.355 114.603 135.355 114.618ZM177.725 104.251C177.899 104.413 178.067 104.571 178.24 104.729C178.482 104.955 178.724 105.175 178.966 105.396C179.055 105.475 179.144 105.559 179.228 105.638C179.228 105.638 179.234 105.638 179.239 105.643C179.612 106.048 179.996 106.447 180.374 106.852C180.7 107.193 180.994 107.561 181.299 107.918C181.935 108.665 182.56 109.432 183.159 110.215C183.254 110.336 183.401 110.394 183.553 110.394C183.685 110.394 183.816 110.352 183.911 110.267C184.11 110.094 184.152 109.789 184.005 109.574C183.49 108.822 182.949 108.087 182.392 107.361C182.397 107.372 182.408 107.382 182.413 107.388C182.402 107.372 182.392 107.356 182.376 107.34C182.376 107.346 182.387 107.351 182.392 107.356C182.234 107.151 182.071 106.952 181.908 106.747C181.756 106.557 181.609 106.358 181.446 106.179C181.052 105.732 180.653 105.296 180.253 104.855C180.148 104.734 180.032 104.629 179.912 104.513C179.654 104.272 179.397 104.025 179.139 103.783C178.95 103.604 178.761 103.426 178.572 103.247C178.356 103.042 178.12 102.853 177.894 102.669C177.615 102.438 177.337 102.212 177.048 101.991C175.624 100.903 174.068 99.9678 172.413 99.2689C170.731 98.5595 168.955 98.0814 167.158 97.7924C166.243 97.6452 165.318 97.5348 164.394 97.4717C163.842 97.435 163.295 97.4034 162.744 97.4034C162.003 97.4034 161.262 97.4034 160.521 97.414H160.594C160.526 97.414 160.458 97.414 160.384 97.4245C159.622 97.4665 158.855 97.5033 158.093 97.5506C157.347 97.5926 156.595 97.682 155.86 97.7924C154.95 97.929 154.041 98.1023 153.148 98.3336C152.27 98.5648 151.403 98.8381 150.552 99.1481C149.711 99.4529 148.881 99.7944 148.072 100.189C147.278 100.577 146.495 101.014 145.791 101.544C145.486 101.776 145.181 102.012 144.913 102.285C144.85 102.348 144.793 102.411 144.729 102.474C144.719 102.48 144.714 102.49 144.703 102.495C144.53 102.574 144.409 102.737 144.414 102.953C144.414 103.215 144.651 103.457 144.924 103.441C145.087 103.431 145.229 103.362 145.35 103.257C145.512 103.116 145.654 102.958 145.812 102.821C145.796 102.837 145.78 102.848 145.765 102.863C146.101 102.569 146.458 102.301 146.831 102.059C146.831 102.059 146.831 102.059 146.826 102.059C147.431 101.67 148.061 101.329 148.707 101.024C148.718 101.019 148.734 101.014 148.744 101.008C149.906 100.472 151.109 100.036 152.333 99.6578C152.333 99.6578 152.328 99.6578 152.323 99.6578C153.369 99.3425 154.441 99.1008 155.523 98.9274C155.523 98.9274 155.528 98.9274 155.534 98.9274C155.534 98.9274 155.534 98.9274 155.528 98.9274C155.539 98.9274 155.549 98.9274 155.565 98.9221C155.576 98.9221 155.586 98.9221 155.591 98.9221C155.586 98.9221 155.576 98.9221 155.57 98.9221C156.616 98.7645 157.667 98.6699 158.723 98.6226C159.349 98.5963 159.985 98.5648 160.61 98.5438C161.214 98.5438 161.819 98.5596 162.418 98.5648C163.474 98.5753 164.52 98.6594 165.565 98.7907C165.539 98.7907 165.513 98.7855 165.487 98.7803C166.722 98.9432 167.941 99.1691 169.139 99.4897C169.99 99.7209 170.826 100.01 171.645 100.346C172.439 100.688 173.206 101.071 173.952 101.502C174.867 102.044 175.744 102.643 176.58 103.294L176.512 103.242C176.922 103.567 177.342 103.893 177.731 104.251H177.725ZM186.838 101.439C186.916 101.508 187.011 101.534 187.111 101.534C187.258 101.534 187.41 101.465 187.494 101.35C187.657 101.14 187.594 100.861 187.405 100.698C187.389 100.682 187.363 100.661 187.347 100.646C187.116 100.446 186.885 100.246 186.633 100.089C186.375 99.9258 186.107 99.7892 185.818 99.6946C185.203 99.4844 184.515 99.4213 183.863 99.4686C183.17 99.5159 182.487 99.6473 181.824 99.8575C181.525 99.9521 181.225 100.057 180.931 100.168C180.931 100.168 180.957 100.157 180.968 100.152C180.952 100.152 180.942 100.162 180.926 100.162C180.926 100.162 180.926 100.162 180.915 100.162C180.674 100.162 180.484 100.372 180.484 100.609C180.484 100.782 180.595 100.951 180.758 101.014C180.968 101.092 181.168 101.003 181.367 100.935C181.84 100.777 182.308 100.625 182.791 100.52H182.76C183.075 100.462 183.396 100.409 183.721 100.383C183.942 100.367 184.168 100.362 184.394 100.367C184.373 100.367 184.352 100.367 184.331 100.367C184.568 100.378 184.799 100.404 185.03 100.441C185.193 100.472 185.35 100.514 185.508 100.562C185.603 100.593 185.687 100.63 185.776 100.672C185.913 100.74 186.039 100.819 186.165 100.898C186.149 100.887 186.133 100.877 186.112 100.861C186.37 101.035 186.601 101.24 186.838 101.439ZM180.437 94.7077C180.132 94.8233 179.838 94.9547 179.554 95.1123C179.276 95.2752 179.018 95.4591 178.766 95.6536C178.524 95.8427 178.293 96.0477 178.078 96.2684C177.915 96.4313 177.778 96.61 177.647 96.7886C177.5 96.9043 177.41 97.0934 177.426 97.2773C177.447 97.5663 177.699 97.7818 177.983 97.7818H178.02C178.288 97.7661 178.44 97.5664 178.587 97.3719C178.666 97.2721 178.75 97.1722 178.84 97.0776C179.008 96.9095 179.186 96.7519 179.37 96.6047C179.58 96.4418 179.801 96.2947 180.027 96.1528C180.206 96.053 180.379 95.9636 180.563 95.8848C180.553 95.8848 180.542 95.8953 180.532 95.9005C180.542 95.8953 180.558 95.8901 180.568 95.8848H180.579C180.579 95.8848 180.579 95.8848 180.589 95.8848C180.747 95.8218 180.905 95.7639 181.068 95.7166C181.204 95.6798 181.341 95.6484 181.478 95.6273C181.614 95.6116 181.746 95.601 181.882 95.601C182.003 95.601 182.129 95.6011 182.25 95.6168C182.408 95.6378 182.56 95.6693 182.712 95.7114C182.686 95.7114 182.665 95.7008 182.639 95.6956C182.776 95.7324 182.907 95.7744 183.038 95.827C183.206 95.8953 183.369 95.9794 183.532 96.0635C183.806 96.2001 184.147 96.0792 184.278 95.806C184.415 95.5222 184.289 95.2016 184.021 95.0545C183.464 94.7497 182.865 94.4975 182.224 94.466C182.129 94.466 182.035 94.4554 181.94 94.4554C181.425 94.4554 180.915 94.5395 180.432 94.7234L180.437 94.7077Z" fill="#050505"/>
<path d="M57.0501 71.8959L56.6771 71.7805L56.3252 71.6702C56.5143 71.5494 56.7454 71.5547 56.9923 71.7962C57.0238 71.8329 57.0554 71.8697 57.0869 71.9117L57.0501 71.9012V71.8959Z" fill="#050505"/>
<path d="M98.5283 239.069C96.3002 237.509 94.2035 235.328 93.5624 232.611C92.895 229.574 95.0285 227.146 97.9503 229.122C98.3549 229.311 98.7596 229.589 99.0749 229.936C99.4007 229.663 99.7317 229.437 99.9734 229.306C101.271 228.549 102.979 228.728 104.167 229.616C105.833 230.94 105.081 233.378 103.904 234.781C102.774 236.268 101.203 237.314 99.7317 238.428C99.7055 238.449 99.6844 238.47 99.6582 238.486C99.5478 238.854 99.243 239.164 98.8856 239.164C98.7753 239.164 98.6544 239.132 98.5336 239.069H98.5283Z" fill="#050505"/>
<path d="M114.955 238.167C114.671 237.862 114.603 237.41 114.682 237.01C114.629 237.01 114.582 237.01 114.535 237.01C113.841 237.047 113.053 236.953 112.675 236.291C111.576 236.947 111.56 234.609 111.345 233.989C111.103 232.712 110.977 231.419 110.809 230.132C110.662 229.133 110.347 227.893 111.666 227.757C114.151 227.478 116.668 227.536 119.164 227.694C119.774 227.657 120.058 228.272 120.058 228.797C120.231 230.163 120.447 231.524 120.546 232.901C120.625 234.031 120.589 235.161 120.489 236.296C120.447 236.984 119.742 237.163 119.164 237.084C118.35 237.074 117.541 237.058 116.731 237.042C116.679 237.599 116.384 237.946 116.043 238.072C115.896 238.266 115.701 238.393 115.481 238.393C115.318 238.393 115.139 238.324 114.96 238.161L114.955 238.167Z" fill="#050505"/>
<path d="M63.2876 182.275C63.2876 182.275 63.2613 182.291 63.2402 182.301C63.256 182.291 63.2718 182.285 63.2876 182.275Z" fill="#050505"/>
<path d="M56.6206 183.978C56.6206 183.978 56.6096 183.983 56.5986 183.989C56.6041 183.989 56.6096 183.978 56.6206 183.978Z" fill="#050505"/>
<path d="M38.3125 193.604C38.3125 193.604 38.2904 193.61 38.2793 193.616C38.2904 193.616 38.3014 193.61 38.3125 193.604Z" fill="#050505"/>
<path d="M56.5794 183.999C56.5794 183.999 56.5674 183.999 56.5674 184.005C56.5674 184.005 56.5674 184.005 56.5794 183.999Z" fill="#050505"/>
<path d="M39.5723 221.057C35.9569 219.669 34.1597 214.63 32.4676 211.409C29.8874 205.959 26.6503 200.31 27.2809 194.068C27.57 191.393 28.3477 188.266 30.7755 186.795C30.7755 186.795 30.8123 186.784 30.8333 186.784C31.4639 186.175 32.1786 185.66 32.9721 185.281C34.8902 184.209 36.8345 183.185 38.7788 182.165C40.9176 180.978 43.2351 180.205 45.4527 179.201C50.5185 176.537 55.9574 174.682 61.2702 172.58C65.7789 170.752 70.4401 170.657 74.0398 174.341C75.5795 176.064 76.5832 178.177 77.6447 180.205C78.6799 182.176 79.857 184.067 80.8712 186.043C84.6548 193.631 85.6113 202.622 77.8759 208.046C75.5059 209.89 73.0413 211.866 70.0197 212.449C73.4985 216.206 75.2642 216.443 80.0515 217.194C80.8134 217.447 80.8607 218.813 80.1618 219.165C79.4104 219.543 78.6642 219.937 77.8969 220.284C75.879 221.277 73.5405 221.093 71.3597 220.894C68.4695 220.594 65.5898 220.058 62.8309 219.149C60.9601 218.545 59.226 217.546 57.2974 217.1C56.9558 217 56.588 216.979 56.2254 216.937C56.1886 216.984 56.1466 217.021 56.0993 217.058C55.7682 217.289 55.3688 217.394 55.0062 217.557C53.6767 218.109 52.3525 218.666 51.0282 219.244C48.4585 220.447 45.6156 221.608 42.7621 221.608C41.6901 221.608 40.6233 221.446 39.5618 221.057H39.5723ZM62.8309 197.152C62.7836 197.173 62.7363 197.194 62.689 197.215C62.6522 197.231 62.6207 197.252 62.5892 197.273C62.1267 197.499 61.659 197.709 61.2018 197.93C60.6028 198.214 60.0037 198.503 59.4046 198.786C56.898 199.99 54.4019 201.198 51.8953 202.391C50.6393 202.99 49.3781 203.595 48.1274 204.199C47.4968 204.499 46.861 204.803 46.2304 205.108C45.9046 205.26 45.584 205.418 45.2582 205.576L44.8273 205.786C44.7432 205.828 44.6487 205.865 44.5646 205.917C44.5173 205.938 44.4647 205.965 44.4174 205.986C44.1547 206.112 44.0338 206.427 44.1599 206.695C44.2493 206.884 44.4489 207.005 44.6486 207.005C44.7222 207.005 44.8011 206.989 44.8694 206.953C44.9167 206.932 44.9587 206.911 45.0007 206.889C45.1006 206.858 45.1952 206.805 45.2845 206.763C45.4211 206.706 45.5578 206.642 45.6891 206.585L46.5982 206.17C47.2236 205.886 47.8437 205.607 48.469 205.324C51.0229 204.167 53.5821 203.011 56.136 201.85C57.392 201.282 58.6479 200.715 59.9039 200.147C61.0127 199.648 62.1162 199.128 63.2303 198.629C63.2618 198.618 63.2933 198.603 63.3249 198.592C63.3722 198.571 63.4194 198.545 63.4667 198.524C63.5666 198.476 63.6559 198.403 63.719 198.324H63.7242V198.313C63.8451 198.161 63.9134 197.961 63.8924 197.762C63.8819 197.678 63.8609 197.599 63.8241 197.52C63.8136 197.494 63.7978 197.467 63.7873 197.446C63.7242 197.341 63.6402 197.257 63.5403 197.199C63.5403 197.199 63.535 197.199 63.5298 197.194C63.4089 197.121 63.2723 197.084 63.1304 197.084C63.0253 197.084 62.9202 197.105 62.8204 197.157L62.8309 197.152ZM64.7385 188.34C64.7122 188.355 64.6806 188.366 64.6544 188.382C64.6281 188.392 64.6018 188.408 64.5756 188.419C64.5545 188.429 64.5387 188.44 64.5177 188.445C63.4772 188.954 62.442 189.47 61.4068 189.984C57.9805 191.692 54.5753 193.442 51.1491 195.161C49.3781 196.049 47.6019 196.931 45.8257 197.804C44.9482 198.235 44.0706 198.666 43.193 199.096C42.7411 199.317 42.2944 199.538 41.8425 199.759C41.4589 199.948 41.0648 200.121 40.6917 200.321C40.3291 200.521 40.1556 200.951 40.3448 201.33C40.4762 201.593 40.7494 201.75 41.0279 201.75C41.1383 201.75 41.2487 201.724 41.3538 201.677C41.9423 201.424 42.5151 201.12 43.0984 200.846C43.708 200.557 44.3123 200.263 44.9219 199.974C48.448 198.292 51.9793 196.632 55.5265 194.992C57.2816 194.178 59.0368 193.374 60.7867 192.559C62.3474 191.834 63.8977 191.088 65.4584 190.352C65.4794 190.342 65.4952 190.337 65.5162 190.326C65.574 190.3 65.6265 190.274 65.6791 190.247C66.1993 189.99 66.42 189.343 66.1678 188.823C65.9839 188.45 65.6002 188.229 65.2009 188.229C65.0485 188.229 64.8908 188.266 64.7437 188.334L64.7385 188.34ZM52.0687 186.311C51.0807 186.826 50.0981 187.347 49.1206 187.877C47.7018 188.655 46.283 189.433 44.8641 190.216C44.1705 190.599 43.4768 190.988 42.7779 191.361C42.0001 191.776 41.2119 192.186 40.4394 192.607C40.019 192.806 39.5986 193.017 39.1782 193.216C38.8787 193.363 38.5686 193.49 38.2533 193.626C38.1272 193.668 37.9958 193.71 37.8907 193.794C37.6648 193.983 37.5702 194.293 37.691 194.572C37.7961 194.808 38.0379 194.977 38.3006 194.971C38.3269 194.971 38.3584 194.971 38.3847 194.971H38.4057C38.5476 194.971 38.679 194.919 38.7841 194.835C39.1309 194.703 39.4777 194.562 39.814 194.404C40.2502 194.199 40.6917 194.01 41.1173 193.789C41.9634 193.353 42.8147 192.927 43.6502 192.475C45.1374 191.677 46.6245 190.878 48.1169 190.09C49.5673 189.322 51.023 188.571 52.4838 187.819C53.1775 187.473 53.8659 187.121 54.5648 186.784C56.0835 186.049 57.6127 185.329 59.1104 184.551C60.5029 183.831 61.8429 183.016 63.2303 182.302C63.3143 182.26 63.4037 182.218 63.493 182.186C63.5088 182.186 63.5245 182.176 63.5403 182.176C63.9765 182.055 64.234 181.587 64.1131 181.156C63.9923 180.715 63.5298 180.473 63.0936 180.583C62.8782 180.641 62.6732 180.736 62.4788 180.83C61.4751 181.34 60.4924 181.908 59.5097 182.454C58.5638 182.98 57.6074 183.479 56.6405 183.968C56.6353 183.968 56.63 183.973 56.6248 183.978C56.6143 183.978 56.609 183.989 56.5985 183.989H56.5932C56.5932 183.989 56.5932 183.989 56.588 183.989C56.588 183.989 56.588 183.989 56.5827 183.989C56.5827 183.989 56.5775 183.989 56.5722 183.994C56.5722 183.994 56.5827 183.989 56.5932 183.983C56.5932 183.983 56.5985 183.983 56.6037 183.983C56.5932 183.989 56.5774 183.994 56.5669 184.004C56.5512 184.015 56.5354 184.02 56.5197 184.025C56.5197 184.025 56.5249 184.025 56.5301 184.02L56.5039 184.031C56.5039 184.031 56.5144 184.031 56.5197 184.025C56.1623 184.204 55.805 184.383 55.4476 184.567C55.4529 184.567 55.4582 184.561 55.4687 184.556C54.3283 185.124 53.2038 185.718 52.0739 186.311H52.0687Z" fill="#050505"/>
<path d="M227.942 37.2769C227.706 37.1613 227.58 36.9668 227.543 36.7461C222.687 32.6473 219.576 26.8039 217.17 20.9972C215.593 17.818 215.015 13.9872 215.677 10.4611C216.208 7.634 217.543 5.00132 219.797 3.05701C222.004 1.29137 225.031 0.387501 227.837 0.865697C231.568 1.71173 235.247 4.39175 236.045 8.24885C241.127 3.65082 251.942 5.6319 253.171 12.973C253.602 15.0855 253.597 17.2767 253.198 19.3997C252.436 23.4512 250.234 27.2295 246.855 29.6362C242.399 32.9416 237.333 34.6915 232.115 36.2259C230.78 36.5832 229.435 37.2821 228.042 37.2821H227.937L227.942 37.2769Z" fill="#050505"/>
<path d="M7.86352 150.419C5.79306 150.388 3.72787 149.936 1.87286 149.011C1.56807 148.89 1.25802 148.743 1.10562 148.433C0.758793 146.856 1.18971 145.169 1.37363 143.582C2.17239 137.45 3.37578 131.381 4.39525 125.301C4.7158 123.419 5.01008 121.538 5.31487 119.657C5.3464 119.168 5.36742 118.275 6.04532 118.327C6.87035 118.637 6.43942 119.804 6.41314 120.471C6.20294 122.058 5.98751 123.645 5.74578 125.227C4.67376 132.568 3.27068 139.915 2.51921 147.287C4.30591 148.244 6.3501 148.727 8.34174 148.69C8.70434 143.908 9.34018 139.037 9.71329 134.276C9.83415 128.953 10.3859 123.656 11.4842 118.448C10.1494 118.333 8.80942 118.343 7.4694 118.375C6.9439 118.464 6.36061 118.191 6.29755 117.613C6.23449 116.593 7.26445 116.572 8.02116 116.62C9.4873 116.63 10.9797 116.635 12.4248 116.877C13.6545 117.224 12.4722 119.657 12.4459 120.587C12.1936 121.938 12.057 123.304 11.8573 124.66C11.0113 129.531 11.316 134.308 10.6276 139.168C10.2072 142.521 9.94974 145.889 9.69751 149.258C9.73429 150.277 9.151 150.43 8.39954 150.43C8.23138 150.43 8.05271 150.419 7.87404 150.414L7.86352 150.419Z" fill="#050505"/>
<path d="M31.1055 132.275C30.9584 131.576 30.9058 130.867 30.9373 130.157C30.9741 129.4 31.1475 128.665 31.2999 127.929V127.966L31.2842 128.008C31.9095 125.26 31.7151 122.448 31.3315 119.71C31.2106 118.67 31.5259 117.666 31.7624 116.668C32.4928 113.709 33.218 110.746 33.8065 107.755C34.1796 105.711 34.5422 103.609 34.1691 101.539C33.7277 99.5106 32.4876 95.3066 29.7129 96.6992C29.487 96.8411 29.3766 97.0881 29.2715 97.3245C28.0628 100.052 27.0276 102.847 26.0029 105.643C24.4317 109.474 22.5661 113.205 20.1226 116.563C19.1136 117.903 17.8787 119.169 17.5792 120.887C17.6948 121.408 17.4215 122.033 16.8382 122.075C15.2354 122.17 13.6169 122.054 12.0036 122.038C11.599 122.001 11.1523 122.08 10.7845 121.896C10.3273 121.607 10.3483 120.704 10.9369 120.577C12.7183 120.514 14.5208 120.551 16.3022 120.504C16.7489 117.719 18.9297 115.79 20.2855 113.441C21.5519 111.381 22.5924 109.285 23.5646 107.078C24.8048 104.277 25.6666 101.324 26.8805 98.5121C27.5794 96.9882 27.942 94.9388 29.776 94.4133C32.9395 93.4149 34.847 97.0302 35.6563 99.5368C36.6232 102.353 36.3132 105.438 35.7299 108.291C35.1991 111.05 34.516 113.772 33.754 116.473C33.5228 117.335 33.2495 118.197 33.1024 119.075C33.1129 120.74 33.4492 122.396 33.3862 124.061C33.1707 126.852 33.1497 130.136 31.1055 132.275Z" fill="#050505"/>
<path d="M45.7256 160.588C40.1606 160.352 34.7375 159.022 29.2828 158.045C24.1277 157.22 18.2263 155.99 15.1101 151.387C13.2288 149.096 12.8925 148.218 9.70799 148.639C8.925 148.796 8.32594 148.129 8.7043 147.388C8.86195 147.094 9.19826 146.941 9.48203 147.12C10.9639 147.067 12.656 146.647 13.8437 147.814C15.3413 149.09 16.3503 150.819 17.7691 152.17C19.0093 153.268 20.5228 153.978 22.073 154.519C25.2838 155.701 28.689 156.032 32.0259 156.637C36.5715 157.64 41.1958 158.407 45.8255 158.844C46.6242 158.859 47.5544 159.028 47.8907 159.858C47.5807 160.457 46.95 160.641 46.3194 160.641C46.1145 160.641 45.9148 160.62 45.7204 160.593L45.7256 160.588Z" fill="#050505"/>
<path d="M48.0588 161.136C47.4493 160.92 47.2706 160.09 47.649 159.591C47.8802 159.212 48.3006 159.149 48.6737 158.986C49.6932 158.466 50.0242 157.284 50.2187 156.238C50.3868 155.177 50.4236 154.068 50.1188 153.033C49.9086 152.255 49.3779 151.551 49.3463 150.731C49.3358 150.347 49.5355 149.979 49.8613 149.78C50.3553 149.407 50.7336 148.907 51.0542 148.377C52.0159 146.758 52.4363 145.318 51.3537 143.626C51.0279 142.959 50.5024 142.155 50.8913 141.409C51.3432 140.747 52.1788 140.437 52.6412 139.769C53.955 138.014 53.976 135.529 53.193 133.547C52.1105 131.199 52.5308 131.372 54.1704 129.711C55.3002 128.303 55.6996 126.269 55.09 124.567C54.1967 123.805 52.8041 123.579 51.7899 123.232C45.568 121.351 38.8521 122.118 32.5356 121.083C31.8472 120.773 31.9418 119.506 32.7669 119.485C35.1053 119.79 37.4596 119.837 39.8243 119.964C43.8496 120.105 47.9327 120.211 51.8057 121.424C53.7027 122.06 56.5141 122.449 56.6665 124.924C57.1132 127.504 56.2777 130.326 54.1862 131.976C55.9466 135.25 55.8835 140.006 52.6675 142.365C53.1772 143.421 53.729 144.514 53.6817 145.723C53.5556 147.72 52.5203 149.685 51.133 151.104C52.6885 153.873 52.2418 161.141 48.1167 161.141C48.0957 161.141 48.0799 161.141 48.0588 161.141V161.136Z" fill="#050505"/>
<path d="M33.4288 157.471C32.6038 156.515 32.7141 155.043 32.5355 153.856C31.5948 148.533 35.0789 148.049 39.3827 147.539C43.0034 147.24 46.6031 148.033 50.1239 148.774C51.0068 148.816 51.2905 150.146 50.5496 150.593C50.2238 150.782 49.8349 150.635 49.4986 150.566C47.3545 150.125 45.2 149.704 43.0192 149.494C40.6124 149.274 35.7568 149.221 34.0437 151.055C34.0542 151.034 34.0647 151.018 34.0804 150.997C34.0804 150.997 34.0804 150.997 34.1067 150.95C33.7756 151.391 33.8913 152.006 33.907 152.505C34.0069 153.672 34.0752 154.849 34.3432 155.995C34.8687 156.478 34.4851 157.618 33.844 157.618C33.7178 157.618 33.5812 157.576 33.4393 157.471H33.4288Z" fill="#050505"/>
<path d="M37.0025 147.945C33.9914 147.803 32.541 145.943 33.1191 142.989C33.4554 141.366 33.6446 139.174 35.2684 138.313C40.3499 137.13 45.6102 138.975 50.45 140.451C51.1332 140.772 52.4732 140.83 52.4206 141.802C52.3891 142.08 52.1474 142.438 51.8216 142.354C46.966 141.366 41.9474 139.747 36.9657 140.041C36.5085 140.126 35.9357 140.057 35.5784 140.399C34.932 141.45 34.7271 142.737 34.5852 143.946C34.2279 145.68 36.1827 145.827 37.3336 146.395C38.1796 146.762 39.0309 147.13 39.8034 147.577C38.9679 147.792 38.1113 147.945 37.2495 147.945C37.1654 147.945 37.0761 147.945 36.992 147.945H37.0025Z" fill="#050505"/>
<path d="M35.226 138.986C35.0999 138.749 35.0631 138.46 35.1577 138.213C35.2891 136.059 34.895 133.51 36.4662 131.781C39.3827 129.149 45.8201 130.215 49.4513 130.694C50.5286 130.835 51.6006 130.977 52.6778 131.135C53.382 131.124 54.2176 131.613 54.0967 132.412C53.9391 133.063 53.1771 133.247 52.6043 133.084C51.6321 132.943 50.6547 132.811 49.6772 132.68C45.7623 132.223 41.4217 131.151 37.7169 132.895C36.1719 134.114 36.7973 136.458 36.5556 138.187C36.5924 138.734 36.214 139.369 35.7778 139.369C35.5991 139.369 35.4047 139.259 35.2313 138.986H35.226Z" fill="#050505"/>
<path d="M38.8255 131.397C35.168 129.931 35.3729 122.301 38.9621 120.908C39.6663 120.898 39.9185 121.833 39.7083 122.374C39.3773 123.021 38.6626 123.378 38.3368 124.056C37.3698 125.879 37.538 129.274 39.8765 129.926C40.465 130.157 40.465 131.187 39.8765 131.418C39.7031 131.476 39.5297 131.502 39.351 131.502C39.1723 131.502 38.9936 131.471 38.8202 131.402L38.8255 131.397Z" fill="#050505"/>
<path d="M48.8311 160.955C48.095 160.824 48.1791 159.41 48.9731 159.442C49.8196 159.458 49.746 160.976 48.9941 160.976C48.9415 160.976 48.889 160.971 48.8311 160.955Z" fill="#050505"/>
<path d="M49.6464 93.162C49.3153 92.174 50.256 91.9113 51.0127 91.7379C53.7453 90.9286 56.5304 90.2035 59.1684 89.1105C59.7833 86.3464 61.2599 83.8503 62.0692 81.1545C62.127 80.813 62.3267 80.3558 62.6157 80.1719L62.9678 80.2822L63.3409 80.3978L63.3777 80.4083C63.6614 80.7919 63.7298 81.2964 63.8716 81.7431C64.5758 84.2129 65.2432 86.7247 65.9789 89.1735C68.3962 88.6217 71.1603 89.2943 72.968 90.9917C71.649 91.3963 70.3668 91.2702 69.0846 91.1441C68.2543 91.0653 67.424 90.9864 66.5885 91.0495C65.9316 92.3842 64.8963 91.4804 64.6441 90.4189C63.8664 88.0174 63.3882 85.5214 62.7786 83.0726C62.0954 85.0116 61.1758 86.8719 60.6398 88.8582C60.4874 89.5781 60.3666 90.4347 59.5888 90.7447C57.5446 91.5908 55.3901 92.1635 53.2724 92.8046C52.2581 93.0831 51.2544 93.4037 50.2244 93.6139C50.2139 93.6139 50.2034 93.6139 50.1929 93.6139C49.9354 93.6139 49.72 93.3616 49.6411 93.1462L49.6464 93.162Z" fill="#050505"/>
<path d="M64.4279 106.632C63.3297 105.234 63.1247 103.237 63.2246 101.503C63.7921 102.002 64.265 102.649 64.6171 103.327C65.0953 100.909 65.7732 98.5394 66.4354 96.1642C66.614 95.192 67.0554 94.2252 68.1222 94.015C70.1296 93.4685 72.1896 93.1532 74.2285 92.7275C73.167 92.6119 73.4192 90.6886 74.4807 91.0197C75.6211 91.067 76.7614 91.1773 77.8859 91.3402C78.9107 91.3718 79.7305 92.16 79.2102 93.19C78.9632 93.6629 78.3747 93.8363 77.8965 93.9624C74.6857 94.8558 71.3382 95.2026 68.138 96.1222C67.2551 99.0912 66.3723 102.071 65.8258 105.124C65.7732 105.728 65.5315 106.784 64.8851 106.784C64.7485 106.784 64.5961 106.737 64.4227 106.627L64.4279 106.632Z" fill="#050505"/>
<path d="M60.576 100.262C60.3448 100.088 60.2502 99.8205 60.1714 99.5472C59.709 98.2072 59.525 96.7516 58.9155 95.4694C57.05 95.811 55.0846 95.7689 53.3662 94.8861C54.1282 94.5393 54.99 94.287 55.8203 94.1189C56.8765 93.9244 57.9486 93.8824 59.0153 93.7721C59.3989 93.7563 59.6984 94.0506 59.9139 94.3396C60.0085 94.0296 60.3448 93.7984 60.6654 93.9192C60.9229 94.0138 61.0858 94.2976 61.1068 94.5603C61.1804 95.3328 61.2644 96.1 61.359 96.8725C61.4536 97.7501 61.6428 98.6118 61.7111 99.4894C61.7269 99.7732 61.5955 100.083 61.3748 100.262C61.2539 100.356 61.1173 100.404 60.9807 100.404C60.844 100.404 60.6969 100.356 60.576 100.262Z" fill="#050505"/>
</svg>
