<svg width="149" height="124" viewBox="0 0 149 124" fill="none" xmlns="http://www.w3.org/2000/svg">
<path d="M56.2318 32.3024C55.1913 32.1132 54.2402 31.656 53.3678 31.0727C51.166 31.3933 48.8328 31.7979 46.7361 30.7522C45.3382 30.1899 44.1926 28.9708 43.5778 27.6518C41.7806 26.5272 39.9098 25.0296 39.2372 22.9487C38.5961 20.9308 40.4353 19.4857 41.0712 17.7989C40.7874 13.9996 42.4322 9.61699 46.3367 8.3926C46.0529 5.4341 49.2427 0.98848 52.3799 0.925421C53.1997 0.851853 53.9879 1.04101 54.7761 1.23544C55.454 1.4036 56.1372 1.5665 56.8361 1.56124C57.7925 1.4036 58.9014 1.08305 59.8262 1.03575C62.6324 0.652146 64.8867 2.59121 67.1359 3.93646C71.3136 4.68791 76.2585 7.87765 75.649 12.6859C77.6038 14.1152 80.0894 15.5708 80.5308 18.1562C80.72 21.0832 79.2224 24.7826 76.2533 25.7653C75.3705 26.0753 74.4088 26.0543 73.5312 26.3853C72.6011 27.2577 71.6289 28.13 70.3466 28.4558C68.9068 28.8762 67.2357 28.687 66.0113 29.6907C63.7569 31.3512 61.0349 32.5073 58.2392 32.5073C57.5666 32.5073 56.8939 32.439 56.2213 32.2971L56.2318 32.3024ZM54.9338 30.0007C56.2633 30.6155 57.7662 30.6996 59.2061 30.5683C60.8036 30.4106 62.1909 29.8536 63.5415 29.0496C64.9078 28.2929 66.0639 27.0685 67.6877 26.8951C69.0014 26.7164 70.3992 26.6324 71.508 25.8231C72.228 25.2924 72.7745 24.5146 73.7204 24.3832C75.3284 24.1468 77.1309 23.8315 77.9454 22.234C80.184 18.2666 78.6075 16.9791 75.3389 14.6669C74.6768 14.2728 73.9516 13.7526 74.0725 12.8803C74.7924 8.90235 70.3046 6.31169 66.9572 5.6233C64.5977 4.49349 62.4905 2.27065 59.6423 2.71207C58.8487 2.79089 58.0658 2.94854 57.2828 3.11144C55.8902 3.3374 54.5607 2.64902 53.1839 2.53342C49.9994 2.21287 48.1444 5.58124 47.4087 8.2297C47.9973 8.49245 47.9552 9.64854 47.2458 9.69584C47.2405 9.79043 47.2668 9.90603 47.2458 9.98485C47.1354 9.89026 47.0356 9.79568 46.9463 9.69058C42.9682 10.957 42.2378 14.6827 42.2746 18.3611C41.975 19.7117 40.6035 20.605 40.3985 21.987C40.3827 23.038 41.2919 23.7894 41.9593 24.4883C42.7055 25.2976 43.7249 25.7443 44.5289 26.4589C45.2541 27.9355 46.468 29.0654 48.0971 29.4542C49.889 29.985 51.6599 29.4752 53.3993 29.2808C53.9721 29.3544 54.4188 29.759 54.9233 30.0112L54.9338 30.0007Z" fill="#050505"/>
<path d="M48.5814 25.7866C47.0154 25.382 44.9502 25.135 44.2197 23.4797C45.607 23.0908 46.8472 24.1155 48.182 24.3625C49.2067 24.6358 50.2472 24.8407 51.2982 24.9458C54.3356 25.1875 57.4465 24.7146 60.4313 24.4781C57.5096 25.2191 54.4827 26.0651 51.4506 26.0651C50.4942 26.0651 49.5378 25.981 48.5814 25.7813V25.7866Z" fill="#050505"/>
<path d="M74.5978 20.3116C73.7885 19.2712 72.6061 18.1046 71.1977 18.3306C70.9297 18.4094 70.6512 18.4619 70.441 18.2149C70.0785 17.8208 70.2256 17.2691 70.5094 16.875C70.8877 15.2354 70.1731 13.2123 68.5493 12.5239C67.5718 12.072 66.6102 11.9248 65.5644 12.0037C65.1755 12.0299 64.7604 12.1508 64.3926 11.9774C63.8303 11.6411 63.7357 10.8949 63.3679 10.3904C62.3116 8.68257 60.693 6.05515 58.3336 6.80134C58.034 6.96424 57.724 6.76981 57.6084 6.47554C57.2615 5.40354 58.7119 5.2091 59.4686 5.3142C62.1697 5.72933 63.6726 8.43034 64.855 10.6269C68.9486 9.95951 72.1962 12.5239 71.8021 16.7804C73.4416 17.0274 74.4191 18.793 74.603 20.3064L74.5978 20.3116Z" fill="#050505"/>
<path d="M45.0608 14.3201C45.7124 13.9996 46.0488 15.0979 45.5495 15.4447C45.5338 16.7742 46.1013 18.1142 46.301 19.3964C45.5023 18.1404 43.5789 15.6234 45.0555 14.3201H45.0608Z" fill="#050505"/>
<path d="M44.2352 40.6043C37.5088 38.2501 39.5793 27.672 44.9499 29.1276C45.8642 29.4377 45.3755 30.9826 44.4244 30.4414C41.4816 30.0893 40.5935 34.288 41.6077 36.432C42.5063 38.5181 46.2741 40.5833 47.9715 38.371C48.3131 38.0031 48.7334 38.1608 48.8648 38.6232C49.1696 40.2785 47.5669 40.9879 46.0324 40.9879C45.3703 40.9879 44.7187 40.8565 44.2405 40.6096L44.2352 40.6043Z" fill="#050505"/>
<path d="M44.955 37.7826C42.9844 36.842 41.8966 33.6838 43.8147 32.1651C44.5661 31.4873 46.211 31.5766 46.4001 32.7379C46.5 33.3055 45.8326 33.8257 45.4542 33.2424C44.9235 32.9534 44.2719 33.3528 44.0617 33.8678C43.7201 34.7716 44.4453 35.6912 45.1127 36.243C44.6976 35.3234 45.6382 34.2829 46.4737 35.0869C46.7207 35.3338 46.8888 35.6965 46.8415 36.0538C46.7207 36.1484 46.5368 36.1694 46.3844 36.2062C46.5578 36.9629 46.1111 37.8615 45.3544 37.8615C45.2283 37.8615 45.0969 37.8352 44.955 37.7826Z" fill="#050505"/>
<path d="M70.1103 46.0897C70.1366 45.9846 70.1629 45.8847 70.1944 45.7849C70.2469 45.6693 70.2889 45.5484 70.2889 45.4223C70.2889 45.2121 70.2049 45.0124 70.0735 44.8705C70.2154 44.7759 70.352 44.6814 70.4939 44.5815C73.9464 41.8227 76.3584 37.582 76.9785 33.2362C77.2886 31.3234 77.5356 29.3213 76.9418 27.4348C76.7578 26.5835 75.8435 25.6271 76.6632 24.8704C77.7878 24.1978 78.0716 26.2104 78.3764 26.9146C78.7915 28.3807 78.9072 29.9151 78.739 31.4233C78.3869 37.6188 75.0605 43.8564 69.9316 47.0093C69.9842 46.6993 70.042 46.3945 70.1103 46.0897Z" fill="#050505"/>
<path d="M60.6145 48.9821C58.0501 48.5985 55.5749 47.6736 53.3521 46.3494C51.3867 45.0199 49.6841 43.3435 47.7923 41.9037C47.3141 41.5569 46.7781 40.8107 47.3404 40.301C47.5821 40.1013 47.9027 40.2274 48.034 40.4849C48.7592 41.2258 49.7104 41.7303 50.5301 42.3609C55.5802 46.8276 62.6166 48.7771 68.6336 45.7083C68.6336 45.7293 68.6231 45.7451 68.6178 45.7661C68.6231 45.7451 68.6283 45.7293 68.6336 45.7083C68.5232 46.197 68.4602 46.6909 68.4076 47.1796C68.3866 47.3793 68.4181 47.5632 68.5337 47.7261C68.539 47.7366 68.5495 47.7419 68.5548 47.7524C66.7365 48.6247 64.7344 49.1134 62.5798 49.1134C61.9335 49.1134 61.2766 49.0661 60.6092 48.9768L60.6145 48.9821Z" fill="#050505"/>
<path d="M79.4807 35.4297C78.4034 35.0408 79.4649 33.5379 79.4544 32.7339C79.817 30.5689 80.5684 26.3703 77.5836 25.8711C76.7376 26.4333 76.0492 25.272 76.6378 24.6046C77.1948 24.0686 78.1617 24.2683 78.7923 24.5731C81.6825 26.3125 81.2621 30.2432 80.6421 33.086C80.4266 33.7482 80.4003 35.435 79.5017 35.435C79.4964 35.435 79.4912 35.435 79.4807 35.435V35.4297Z" fill="#050505"/>
<path d="M67.5727 38.9391C67.1573 38.3926 67.2204 37.6832 67.2677 37.0368C67.294 36.6112 67.3571 36.1225 67.6042 35.7704C68.2457 34.9348 69.392 35.9858 68.74 36.7688C68.7663 37.4677 68.9503 38.1981 68.6085 38.8497C68.4876 39.1388 68.2931 39.2911 68.088 39.2911C67.9092 39.2911 67.7252 39.1756 67.5727 38.9391Z" fill="#050505"/>
<path d="M77.0677 36.5748C76.8996 35.7761 77.4041 35.4923 78.082 35.3084C78.4393 35.1297 78.6285 34.7461 78.8492 34.4308C79.0173 34.2048 78.9963 33.8791 79.2065 33.6846C79.5271 33.3115 80.0683 33.5322 80.2102 33.9526C80.6726 34.8775 78.9122 37.1791 77.7877 37.1791C77.4776 37.1791 77.2201 37.0057 77.0677 36.5801V36.5748Z" fill="#050505"/>
<path d="M57.8411 41.8292C57.4994 41.2459 57.5888 40.4892 57.5309 39.8323C57.5204 39.0966 57.4415 38.3242 57.7202 37.6306C58.0935 36.9001 58.9769 37.3573 58.9401 38.0772C58.7718 39.2228 59.1083 40.3999 59.0715 41.5034C59.0137 41.8765 58.6877 42.1287 58.3617 42.1287C58.1671 42.1287 57.9726 42.0394 57.8411 41.8292Z" fill="#050505"/>
<path d="M66.3474 35.3177C65.7483 34.8973 66.132 33.9777 66.7153 33.7412C67.3144 33.3629 68.1289 33.3681 68.565 33.9777C68.6964 34.1458 68.812 34.3298 68.8593 34.5295C68.4074 34.7712 67.8871 34.8079 67.3984 34.9446C67.0621 34.9708 66.8519 35.3702 66.5471 35.3702C66.484 35.3702 66.4157 35.3545 66.3421 35.3124L66.3474 35.3177Z" fill="#050505"/>
<path d="M56.1166 35.906C57.2517 34.4347 59.3484 34.608 60.0526 36.3895C59.1329 36.3474 58.1187 36.2213 57.2306 36.6049C56.9731 36.71 56.7997 36.978 56.5054 36.9885C55.9904 36.9885 55.8643 36.2476 56.1113 35.906H56.1166Z" fill="#050505"/>
<path d="M63.7206 42.6545C63.0374 42.5283 61.834 42.8069 61.9129 41.8137C61.9602 41.1779 62.822 41.2409 63.668 41.2987C64.2408 41.3408 64.8136 41.3828 65.1131 41.2094C65.4074 41.1148 65.5283 40.7575 65.8383 40.7102C66.4059 40.6524 66.5793 41.4038 66.348 41.8137C65.9592 42.5021 65.2077 42.707 64.4563 42.707C64.204 42.707 63.9518 42.686 63.7153 42.6492L63.7206 42.6545Z" fill="#050505"/>
<path d="M0.607979 57.3632C0.739354 56.6696 0.854994 55.9759 0.902289 55.277C1.75885 54.6044 2.63116 53.9528 3.514 53.3222C14.3077 45.7079 28.0915 44.9354 40.8822 44.8408C44.9758 44.9091 49.0747 44.9511 53.1473 45.3978C53.2629 45.4241 53.3891 45.4241 53.5152 45.4188C53.7516 45.4188 53.9829 45.4083 54.1615 45.608C54.3717 45.834 54.4401 46.2176 54.3139 46.5013C53.9408 47.3947 52.832 47.0847 52.0648 47.0741C51.0033 47.0111 49.9417 46.99 48.8802 46.9743C44.8129 46.9427 40.7455 47.0268 36.6834 47.1845C26.9985 47.4682 17.0508 48.3091 8.23822 52.597C5.48461 54.0001 2.93068 55.7342 0.544922 57.6785C0.565942 57.5734 0.586959 57.4683 0.607979 57.3579V57.3632Z" fill="#050505"/>
<path d="M88.1607 59.7961C87.7193 59.4388 87.9611 58.7977 87.9663 58.3142C88.2291 53.732 89.0593 49.2023 89.6637 44.6568C87.6247 43.1854 84.9605 43.3483 82.622 43.0645C79.3587 42.807 75.9745 42.2763 72.7374 42.8648C72.1278 43.0803 71.5813 43.3535 71.1241 43.7687C71.0506 44.4781 71.0716 45.2032 70.9875 45.9179C70.7615 48.5191 70.7825 51.0993 70.4777 53.6426C70.4409 53.9422 70.4305 54.2785 70.3201 54.5622C70.0994 55.1613 69.3584 54.9931 69.3164 54.3783C69.3006 53.1487 69.4846 51.919 69.5266 50.6841C69.5634 49.7277 69.6317 48.7503 69.7052 47.7676C69.7841 47.673 69.8419 47.5574 69.8629 47.426C69.9365 46.9794 70.0153 46.5328 70.1152 46.0914C70.1414 45.9863 70.1677 45.8864 70.1993 45.7865C70.2518 45.6709 70.2938 45.5501 70.2938 45.424C70.2938 45.1612 70.1729 44.9248 69.9733 44.7776L69.9838 44.641C70.0101 43.9316 69.9838 43.3378 70.3674 42.7755C72.5482 40.9573 75.4858 41.0834 78.2709 41.2148C79.0118 41.2516 79.7476 41.2831 80.4517 41.2831C83.116 41.6142 91.7709 41.0151 91.0457 45.2032C90.5202 49.1707 89.6374 53.0383 89.2117 56.99C89.1697 57.6679 89.0961 58.4876 89.0278 59.1287C89.0541 59.486 88.7966 59.9064 88.4603 59.9064C88.3657 59.9064 88.2658 59.8749 88.1607 59.7961Z" fill="#050505"/>
<path d="M67.6675 54.9988C67.3732 52.6604 67.2996 50.2905 67.3995 47.9363C67.4257 46.1286 67.8514 44.2631 69.0916 42.8863C69.533 42.3819 70.4264 41.7933 71.0254 42.3871C71.2724 42.6288 71.3197 43.0755 71.1936 43.3908C71.078 43.7166 70.7206 44.0161 70.3738 43.8427C70.069 44.0371 69.8168 44.3051 69.6066 44.6257C69.5856 44.6257 69.5698 44.6257 69.5488 44.6204C69.1757 44.6099 68.8236 44.8884 68.7606 45.2562C68.7238 45.3876 68.6869 45.5242 68.6502 45.6609L68.6239 45.7607C68.6344 45.7292 68.6396 45.6976 68.6502 45.6609C68.5293 46.1601 68.4663 46.6645 68.4137 47.1743C68.3927 47.374 68.4242 47.5579 68.5398 47.7208C68.5819 47.7786 68.6292 47.8312 68.6817 47.8732C68.461 50.364 68.8289 53.2857 68.9445 54.8727C68.955 55.3824 68.6239 55.6662 68.2929 55.6662C68.0091 55.6662 67.7253 55.456 67.6622 54.9883L67.6675 54.9988Z" fill="#050505"/>
<path d="M72.5644 52.433C71.9758 52.4225 71.4293 52.2018 71.3557 51.5502C71.0457 49.5638 71.0299 47.5459 71.2506 45.5491C71.5449 42.8533 71.5029 42.5117 74.3879 42.7219C74.5875 42.6063 74.8188 42.5485 75.05 42.6011C75.2392 42.6431 75.3916 42.7167 75.5282 42.8166C77.3675 42.743 76.4951 46.5002 76.5897 47.6983C76.39 50.2522 76.1851 52.5171 73.5418 52.5171C73.2528 52.5171 72.927 52.4908 72.5749 52.433H72.5644Z" fill="#050505"/>
<path d="M69.2275 43.2635C68.8543 41.666 73.4735 40.0002 74.2828 41.1195C74.5981 41.5241 74.3143 42.3702 73.731 42.202C73.0741 42.428 72.3647 42.5541 71.7656 42.8694C71.7762 42.8694 71.7814 42.8589 71.7919 42.8589C71.7919 42.8589 71.7972 42.8589 71.8024 42.8589C71.403 43.0586 70.9932 43.2687 70.6516 43.563C70.4677 43.7417 70.3205 43.9361 70.0578 43.9992C70.0105 44.0097 69.9632 44.0149 69.9211 44.0149C69.548 44.0149 69.2695 43.6313 69.2275 43.2635Z" fill="#050505"/>
<path d="M69.8058 44.541C69.8689 44.0365 69.7953 43.0539 70.5472 43.1274C71.1255 43.2746 70.9258 43.8789 70.8469 44.2993C70.7523 46.2856 70.8837 48.3718 70.1318 50.2373C69.4588 48.3981 69.6533 46.4432 69.8058 44.5357V44.541Z" fill="#050505"/>
<path d="M68.2503 49.4017C67.8351 47.5205 67.8825 45.4869 68.8231 43.7685C68.9597 43.5373 69.1121 43.2535 69.3643 43.1274C69.8373 42.8542 70.2629 43.4532 70.1211 43.8946C69.028 45.5236 68.8283 47.552 68.2555 49.4017C68.2555 49.4017 68.2555 49.4017 68.2503 49.4017Z" fill="#050505"/>
<path d="M72.6862 78.0621C71.404 76.1598 70.416 74.0631 69.4438 71.9874C67.8411 68.7714 66.3171 65.361 66.0018 61.7614C65.1243 56.7903 68.6976 58.2669 67.3629 59.9327C67.4102 64.3994 69.2809 68.4351 71.0886 72.3868C71.8874 74.1314 72.6967 75.8708 73.6846 77.5156C73.8791 77.999 73.5795 78.4299 73.2169 78.4299C73.0383 78.4299 72.8438 78.3248 72.6862 78.0726V78.0621Z" fill="#050505"/>
<path d="M73.1171 71.3045C71.6509 69.46 70.5947 67.295 69.5437 65.193C68.7029 63.4852 68.067 61.6827 67.9304 59.7752C67.8621 57.4893 67.4995 54.205 69.8643 52.9491C70.91 52.7757 71.0519 54.205 70.2268 54.6149C69.0445 55.7132 69.4123 57.5576 69.3966 59.0133C69.5122 60.8787 70.0902 62.6549 70.8627 64.3417C71.8296 66.4174 72.7808 68.5246 74.0472 70.4374C74.5149 70.9419 74.1734 71.6408 73.6846 71.6408C73.506 71.6408 73.3062 71.5462 73.1171 71.3097V71.3045Z" fill="#050505"/>
<path d="M77.2728 68.2875C76.6947 68.0773 76.432 67.3784 76.0431 66.9265C75.0132 65.4341 74.1408 64.0153 73.4366 62.3705C72.1019 59.1335 71.8549 53.4582 75.1025 51.3299C76.0011 51.0199 76.7158 52.2127 75.8224 52.7487C74.4561 53.3636 74.0567 55.2711 73.9254 56.6059C73.6206 59.5118 74.7241 62.2759 76.2323 64.6984C76.742 65.5917 77.3411 66.3957 77.8141 67.3048C77.9612 67.6569 77.7983 68.2875 77.3621 68.2875C77.3306 68.2875 77.3043 68.2875 77.2728 68.277V68.2875Z" fill="#050505"/>
<path d="M82.0714 65.3086C79.9484 61.1204 77.1738 56.3805 78.4034 51.5355C78.5716 50.1167 80.8049 49.0815 81.5774 50.5686C81.1885 51.215 80.5264 51.5618 79.8433 51.8088C78.7292 55.9128 81.1676 60.0642 82.6862 63.7374C82.8439 64.1788 83.1276 64.5781 83.2485 65.0248C83.2958 65.5187 83.0173 65.8026 82.702 65.8026C82.4707 65.8026 82.2238 65.6449 82.0714 65.3033V65.3086Z" fill="#050505"/>
<path d="M89.6327 65.3609C87.4466 61.6772 85.6178 57.7939 83.4475 54.0997C82.922 53.2747 82.3072 52.5128 81.6136 51.8191C81.1616 51.3987 80.447 50.7628 80.9672 50.127C81.2405 49.8642 81.7712 49.8643 81.8921 50.2689C85.476 53.0487 86.8002 57.6783 89.1913 61.383C89.6274 62.4182 91.7662 64.6988 90.6574 65.6342C90.5365 65.734 90.3999 65.7813 90.2685 65.7813C90.0163 65.7813 89.764 65.6184 89.6327 65.3662V65.3609Z" fill="#050505"/>
<path d="M88.7353 58.8442C88.9877 59.4801 88.9982 60.2157 88.9982 60.8989C89.4504 61.2352 89.34 62.2126 88.709 62.2284C87.0843 62.1443 87.8888 59.5064 88.7353 58.8442Z" fill="#050505"/>
<path d="M94.363 66.6269C92.8759 63.2217 91.1627 59.8586 88.8137 56.9684C87.9309 56.9526 88.0518 55.3499 88.8242 55.3184C89.4128 55.3604 89.7702 55.949 90.1643 56.3221C91.725 58.0719 93.002 60.0583 94.0845 62.1339C94.9936 64.0099 96.4019 65.9543 95.8607 68.1403C95.7661 68.7867 95.5349 69.5644 94.8938 69.8587C94.0004 68.9758 94.6258 67.6884 94.3578 66.6322L94.363 66.6269Z" fill="#050505"/>
<path d="M93.8795 71.7823C93.6693 71.5405 93.6168 71.1937 93.7272 70.8942C93.7692 70.7838 93.8323 70.6892 93.9111 70.6156C94.5312 67.8411 94.7045 65.0192 95.1092 62.2446C95.2931 63.2798 96.1812 71.9557 94.3683 71.9557C94.2211 71.9557 94.0635 71.8979 93.8795 71.7823Z" fill="#050505"/>
<path d="M79.3596 54.3463C78.9287 54.0153 79.0181 53.143 79.5856 53.0168C79.7748 52.9748 79.9219 53.0799 80.0638 53.1798C80.7785 53.5424 81.5667 53.1219 82.2551 53.0274C81.9766 53.9207 81.1988 54.7194 80.3423 54.7194C80.0217 54.7194 79.6854 54.6091 79.3649 54.3463H79.3596Z" fill="#050505"/>
<path d="M77.3158 53.7888C77.0321 53.5103 76.7011 53.2265 76.3122 53.1267C75.9076 53.0794 75.4871 53.2318 75.1035 53.2581C75.361 52.6012 75.8077 51.8602 76.5749 51.7761C77.5261 51.671 78.7137 52.7536 78.2618 53.7205C78.1672 53.9359 77.9623 54.0515 77.7573 54.0515C77.5839 54.0515 77.4104 53.9675 77.3106 53.7888H77.3158Z" fill="#050505"/>
<path d="M71.6924 55.4659C71.6504 55.4186 71.6189 55.3713 71.5874 55.3135C71.0881 54.993 70.5521 54.6461 70.0371 54.3939C70.447 53.6898 71.4455 53.5479 72.0813 54.0261C72.3703 54.2258 72.6173 54.5306 72.6015 54.8984C72.6331 55.2452 72.3388 55.6236 72.0235 55.6236C71.9132 55.6236 71.7975 55.5763 71.6924 55.4659Z" fill="#050505"/>
<path d="M69.9269 58.4139C69.4067 58.2195 69.228 57.5889 69.4803 57.116C69.6379 56.7271 70.2054 56.7218 70.3736 57.1002C71.041 57.1265 71.7242 56.8742 72.3653 56.8427C71.8923 57.5416 71.1776 58.4559 70.2738 58.4559C70.1634 58.4559 70.0478 58.4402 69.9269 58.4086V58.4139Z" fill="#050505"/>
<path d="M75.3767 56.7954C74.6936 56.7586 74.4676 55.8074 74.9721 55.3975C75.0929 55.3029 75.2611 55.2504 75.4135 55.2872C75.8286 55.3503 76.3068 55.3765 76.6641 55.6077C76.5906 56.2015 76.0493 56.7954 75.4345 56.7954C75.4187 56.7954 75.3977 56.7954 75.382 56.7954H75.3767Z" fill="#050505"/>
<path d="M66.4746 62.0765C66.4746 61.8033 66.6533 61.4617 66.9634 61.4617C67.0685 61.4722 67.1683 61.4459 67.2734 61.4249C67.9408 61.2042 68.4557 60.8732 69.1074 60.6577C68.6765 61.5038 68.0354 62.6073 66.9634 62.6914C66.9581 62.6914 66.9476 62.6914 66.9423 62.6914C66.6428 62.6914 66.4746 62.3393 66.4746 62.0765Z" fill="#050505"/>
<path d="M67.4516 59.1964C67.4359 58.8075 67.8249 58.4029 68.2193 58.5658C68.7135 58.7655 68.7135 59.6063 68.2193 59.806C68.1562 59.8322 68.0984 59.8427 68.0405 59.8427C67.7251 59.8427 67.4516 59.5169 67.4516 59.1964Z" fill="#050505"/>
<path d="M77.8716 54.7869C78.3498 56.1794 75.5542 56.6366 74.624 56.7838C75.139 56.1742 77.1885 53.3208 77.8716 54.7869Z" fill="#050505"/>
<path d="M71.7185 86.5747C70.8987 84.7565 70.0474 82.4969 71.1299 80.6157C75.213 75.035 83.6735 72.8542 90.1266 71.53C94.0048 70.9835 98.2246 69.9588 101.94 71.6666C103.642 72.1238 108.482 81.2831 105.335 81.2936C104.573 81.1517 104.63 80.3898 105.161 79.9904C105.025 78.7502 104.562 77.6152 104.058 76.5064C103.285 74.8669 102.476 72.7649 100.49 72.3655C96.2225 70.994 87.578 73.2483 83.3004 74.7092C81.2983 75.3713 79.4328 76.3592 77.5568 77.2841C76.0906 78.0198 74.6297 79.055 73.4578 80.169C72.8483 80.7733 72.1546 81.3987 72.0075 82.2868C72.0337 84.1785 73.1321 86.0493 74.0202 87.6152C74.9713 89.1917 75.7385 89.6016 77.5777 89.4439C77.6513 88.9815 78.2346 88.8711 78.3923 89.3441C78.4764 89.6015 78.429 89.8801 78.429 90.1428C78.2766 91.2201 76.8736 91.1202 76.0433 91.1465C73.7259 90.9416 72.6854 88.3719 71.7132 86.5747H71.7185Z" fill="#050505"/>
<path d="M126.355 122.792C124.389 121.184 122.808 119.213 121.652 117.011C118.914 112.145 116.171 107.285 113.307 102.476C110.29 97.3109 107.7 91.9509 105.156 86.5646C104.247 84.6151 103.406 82.8126 102.544 80.8841C102.297 80.3376 102.093 79.7963 102.371 79.2288C102.513 78.945 102.865 78.7086 103.201 78.7821C103.743 78.8294 103.906 79.4758 104.068 79.8541C108.824 90.3377 114.605 100.338 120.827 110.096C122.808 113.112 124.263 116.528 126.859 119.134C127.637 120.18 128.925 120.721 129.765 121.694C129.476 122.592 128.53 123.196 127.59 123.196C127.159 123.196 126.723 123.07 126.355 122.787V122.792Z" fill="#050505"/>
<path d="M75.0032 88.0773C74.7983 87.7042 74.9138 87.1051 75.3605 86.979C76.5797 86.0121 77.6885 84.9086 78.8918 84.0783C81.6928 82.0499 84.9246 80.7362 88.1301 79.4855C90.4056 78.5817 92.8281 78.2612 95.2086 77.7567C97.6995 77.2102 100.443 76.7162 102.933 77.4729C103.475 77.6674 103.564 78.4871 103.133 78.8392C102.834 79.1019 102.476 78.8602 102.15 78.7761C99.7279 78.3978 97.2528 78.7551 94.8933 79.3542C90.0324 80.0793 85.6025 82.0395 81.3092 84.3306C79.759 85.2187 78.3454 86.3116 76.9633 87.4414C76.5587 87.6937 75.9859 88.3926 75.4919 88.3926C75.3132 88.3926 75.1504 88.3033 75.0032 88.0773Z" fill="#050505"/>
<path d="M82.2127 100.584C80.4627 96.6477 78.7759 92.654 77.1731 88.655C76.4952 88.4658 76.8473 87.2572 77.3518 87.1416C77.5988 87.0943 77.788 87.2834 77.8773 87.4936C78.056 87.9666 78.2294 88.4396 78.4186 88.9125C78.7707 89.8006 79.1805 90.6781 79.5536 91.5294V91.5136C80.7517 94.1569 81.7975 96.8316 82.9378 99.5064C83.2584 99.9951 83.1743 100.894 82.7329 100.894C82.5963 100.894 82.4176 100.804 82.2127 100.589V100.584Z" fill="#050505"/>
<path d="M123.297 98.3886C118.578 93.7695 116.145 87.5687 113.439 81.8357C112.798 81.5519 112.54 80.6953 112.587 80.0595C112.672 79.1662 113.807 78.5356 114.448 79.3869C118.121 85.3774 119.477 92.461 123.297 98.3938V98.3886Z" fill="#050505"/>
<path d="M124.127 119.907C122.503 119.418 122.777 115.892 122.488 114.516C122.167 110.848 121.931 107.269 121.804 103.612C121.5 96.9537 122.125 90.259 121.468 83.6168C121.258 83.0125 121.19 82.1454 121.941 81.8564C123.439 81.5884 123.213 83.9058 123.37 84.7781C123.791 91.4361 123.549 98.1886 123.975 104.831C124.301 108.972 124.474 113.123 125.084 117.238C125.141 117.506 125.189 117.784 125.31 118.042C125.641 118.767 125.199 119.923 124.29 119.923C124.238 119.923 124.18 119.923 124.122 119.912L124.127 119.907Z" fill="#050505"/>
<path d="M147.506 89.0915C147.285 88.834 147.243 88.5187 147.206 88.1877C146.807 85.5707 145.924 83.0799 145.172 80.5733C143.344 75.3185 140.926 70.3053 138.43 65.3814C132.602 52.7434 120.442 49.5485 108.398 48.5132C102.26 47.767 96.0856 48.2453 90.0319 47.2784C89.6956 46.9841 89.664 46.3377 89.9636 46.0066C90.5206 45.6178 91.3456 45.6493 92.1128 45.6808C92.4439 45.6914 92.7645 45.7071 93.0482 45.6861C96.1014 45.8122 99.1545 45.7965 102.208 45.6808C116.501 45.8437 133.081 48.4817 139.902 63.91C141.925 67.8092 143.622 71.887 145.335 75.9543C146.812 79.7798 148.084 83.763 148.767 87.8461C148.93 88.4767 148.572 89.3648 148.026 89.3648C147.863 89.3648 147.684 89.2859 147.5 89.0968L147.506 89.0915Z" fill="#050505"/>
<path d="M89.2023 38.3242C88.4666 37.9458 88.1251 37.0893 87.7099 36.4167C86.7325 34.7403 86.433 32.5701 87.5313 30.8832C89.1183 28.3346 92.5866 30.1266 93.4537 32.3862C93.7585 33.2795 93.9319 34.5091 93.4589 35.3604C92.965 35.8596 92.4394 35.2396 92.4499 34.7036C92.3974 34.0519 92.4026 33.3531 91.9612 32.8276C91.3516 32.1602 90.3953 31.456 89.4441 31.6978C87.731 32.6489 88.8713 34.8769 89.7278 36.0593C90.3742 36.6583 90.6633 38.403 89.6228 38.403C89.5019 38.403 89.36 38.3767 89.1971 38.3242H89.2023Z" fill="#050505"/>
<path d="M88.1505 38.2401C87.9876 37.0367 87.8457 35.8386 87.6513 34.6405C87.5988 34.3409 87.6198 34.0257 87.7616 33.7472C87.893 33.5002 88.182 33.2532 88.4763 33.3898C89.0123 33.6315 89.0596 34.2254 89.1437 34.7351C89.3486 35.9279 89.4801 37.126 89.643 38.3241C91.8658 38.3399 94.6614 38.2768 96.1171 36.343C96.8107 35.6494 97.1261 33.7209 95.7545 33.6788C94.7613 33.8838 94.0571 34.6299 93.4213 35.3499C93.2584 35.6179 92.9956 35.8964 92.6541 35.765C90.9567 34.6878 94.8296 31.3877 96.1539 31.8396C98.939 32.4281 98.7235 36.3693 96.9736 37.9878C95.3446 39.9584 92.4701 40.053 90.1316 40.1949C90.0791 40.1949 90.0266 40.1949 89.9793 40.1949C88.6655 40.1949 88.1768 39.5643 88.1348 38.2348L88.1505 38.2401Z" fill="#050505"/>
<path d="M52.6387 57.7147C53.0278 57.4256 53.4116 57.1313 53.785 56.8213C53.827 56.8843 53.8691 56.9527 53.9111 57.0157C54.1793 57.4676 53.8585 58.2927 53.2749 58.2559C53.2065 58.2559 53.1434 58.2349 53.0856 58.2086C52.8858 58.1193 52.7596 57.9091 52.6387 57.7147Z" fill="#050505"/>
<path d="M47.1778 61.9661C46.936 61.7454 46.9361 61.4827 47.0885 61.2042C47.2041 61.1411 47.3144 61.0728 47.4195 60.994C47.5666 60.8731 47.6875 60.726 47.8294 60.5946C47.8189 60.6051 47.8084 60.6156 47.7926 60.6261C47.9187 60.5052 48.008 60.3686 48.0343 60.19C48.4442 59.8484 48.9014 59.5174 49.2692 59.2283C49.5425 59.3072 49.8263 59.3176 50.1048 59.2493C50.4149 59.1705 50.6986 59.0286 50.9718 58.8657C50.9508 58.934 50.9246 59.0024 50.8931 59.0759C50.6251 59.5279 50.2572 59.8905 49.8525 60.2215C49.7895 60.1847 49.7264 60.1584 49.6633 60.1322C49.6423 60.1217 49.6213 60.1111 49.6108 60.1059C49.3848 59.9798 49.0328 60.0271 48.812 60.1269C48.5598 60.2373 48.3549 60.4474 48.2498 60.7049C48.192 60.747 48.1341 60.7943 48.0763 60.8363C47.7453 61.0991 47.6139 61.5352 47.7138 61.9294C47.5719 62.0292 47.4142 62.0817 47.2619 62.0081C47.2356 61.9976 47.2145 61.9819 47.1883 61.9661H47.1778Z" fill="#050505"/>
<path d="M53.1522 57.7723C54.1454 57.0524 55.0441 55.8911 56.3473 55.8228C57.4719 55.9016 57.5139 57.2993 57.3089 58.1454C57.0041 59.9163 54.4975 63.1953 52.4901 62.2968C51.0765 61.1197 52.2589 58.9336 53.1522 57.7776V57.7723ZM53.2731 60.8727C54.4765 60.8464 56.1949 58.5763 56.011 57.3729C54.5921 57.8301 53.168 59.2699 53.2258 60.8254C53.2363 60.8464 53.2573 60.8622 53.2731 60.8727Z" fill="#050505"/>
<path d="M52.8112 63.8846C52.4065 62.1768 53.8254 60.4479 55.3178 59.8383C54.9289 60.9471 54.1932 62.0086 54.0776 63.1857C55.2705 62.6864 55.9747 61.3044 56.2637 60.1063C55.7435 60.038 55.754 59.3286 56.0693 59.0238C56.2532 58.8294 56.5895 58.7558 56.8523 58.7716C57.651 58.8136 57.5774 59.8331 57.4828 60.3848C57.404 61.7616 55.0446 65.3402 53.5101 64.6465C53.2474 64.5257 53.0108 64.284 52.8112 63.8846Z" fill="#050505"/>
<path d="M53.7883 66.3329C52.753 64.583 54.0247 62.0186 56.0479 61.7768C56.0111 61.903 55.9323 62.0448 55.885 62.1604C55.7011 62.9487 54.2875 65.0717 55.6275 65.3397C55.7169 65.3186 55.7011 65.3501 55.8167 65.2976C55.7852 65.3081 55.7589 65.3186 55.7273 65.3291C55.6958 65.3239 55.6643 65.3291 55.638 65.3291C56.5418 65.1452 57.0043 63.9366 56.8519 63.1011C56.4157 63.6371 55.7431 63.1799 55.9585 62.5651C56.1687 61.2671 57.5718 60.9256 58.1446 62.1867C58.4704 62.8436 58.4494 63.6791 58.1972 64.4831C57.987 64.5935 57.8766 64.8194 57.7663 65.0191C57.6874 65.161 57.6086 65.3081 57.535 65.4553C57.3721 65.7653 57.2145 66.0859 57.0358 66.3854C57.0095 66.4222 56.9833 66.4589 56.957 66.4957C56.2896 67.1211 55.4646 67.4258 54.6869 67.0737C54.3768 66.9319 54.072 66.6902 53.7883 66.3276V66.3329Z" fill="#050505"/>
<path d="M57.1523 65.9182C56.4008 65.8604 56.5795 64.9145 56.879 64.4679C57.1365 63.9897 57.8144 63.7217 58.2401 64.1473C58.3242 64.2314 58.3977 64.326 58.4555 64.4258C58.3872 64.4258 58.3241 64.4416 58.2611 64.4679C58.0141 64.5624 57.888 64.8094 57.7671 65.0301C57.6883 65.172 57.6095 65.3192 57.5359 65.4663C57.373 65.7763 57.2154 66.0969 57.0367 66.3964C56.9579 66.512 56.8738 66.6276 56.7845 66.7327C56.7056 66.8273 56.6216 66.9114 56.5322 67.0007C56.7687 66.6696 56.9841 66.3176 57.1523 65.9182Z" fill="#050505"/>
<path d="M54.588 66.8315C54.7195 67.1679 54.7931 67.5042 54.8825 67.8405C54.5302 67.9929 54.1779 68.1663 53.8467 68.3713C53.9624 67.809 54.241 67.2782 54.588 66.8315Z" fill="#050505"/>
<path d="M50.1464 69.9961C49.6839 68.7245 51.3182 68.2463 52.1275 67.684C52.7634 67.3004 53.4045 66.9273 54.0246 66.5227C54.261 66.3545 54.5921 66.2389 54.8548 66.4228C55.3435 66.9903 55.0913 67.5053 54.6079 67.9625C53.9667 68.262 53.3467 68.6351 52.8632 69.1606C52.837 69.1922 52.8107 69.2237 52.7791 69.2552C52.138 69.56 51.1921 70.6162 50.488 70.3009C50.3671 70.2484 50.2515 70.1485 50.1464 69.9961Z" fill="#050505"/>
<path d="M46.3017 61.5405C46.3017 61.5405 46.2911 61.5404 46.2857 61.5458C46.2697 61.5511 46.2484 61.5564 46.2324 61.5618C46.2591 61.5511 46.2804 61.5458 46.3017 61.5352V61.5405Z" fill="#050505"/>
<path d="M48.1866 71.4138C46.1477 69.0229 45.4172 65.7543 44.4924 62.8116C44.2822 62.3702 44.5712 61.7659 44.9758 61.5609C45.0389 61.6345 45.123 61.6975 45.2175 61.7396C45.2543 61.7553 45.2964 61.7711 45.3384 61.7816C45.6589 61.8605 45.9428 61.6713 46.2318 61.5662C46.2475 61.5662 46.2633 61.5556 46.2791 61.5504C46.2738 61.5504 46.2685 61.5504 46.2633 61.5557C46.5103 61.4663 46.7467 61.3665 46.9832 61.2562C47.0725 61.2089 47.1619 61.1668 47.246 61.1143C47.267 61.2456 47.2617 61.4033 47.2249 61.5925C47.9554 63.9046 49.0747 66.0696 49.9996 68.303C50.5881 69.5484 51.471 71.7134 49.2849 71.7607C49.2954 71.8395 49.3532 71.9498 49.3374 72.0129C49.2901 71.9341 49.2481 71.8553 49.2008 71.7765C48.9959 71.85 48.8014 71.829 48.6175 71.7449C48.4546 71.6713 48.3022 71.5452 48.1814 71.4138H48.1866ZM48.6122 69.2961C48.6963 69.4222 48.7857 69.5431 48.875 69.6692C48.7121 69.2699 48.544 68.881 48.3758 68.4869C48.4546 68.7601 48.5387 69.0281 48.6122 69.3014V69.2961Z" fill="#050505"/>
<path d="M49.9943 60.1157C48.8697 58.6444 46.9254 53.8677 48.9223 52.6065C51.0033 51.8866 53.3575 55.6701 53.3575 57.4778C53.431 58.0558 53.3207 58.8809 52.6165 58.9702C51.6391 58.9492 52.1541 57.6775 51.8861 57.0732C51.4709 55.8488 50.6039 54.6086 49.4162 54.0359C49.4005 55.8961 50.0837 57.6828 50.8299 59.3591C51.0663 59.7847 50.5724 60.431 50.1572 60.2419C50.0994 60.2156 50.0416 60.1735 49.989 60.1105L49.9943 60.1157Z" fill="#050505"/>
<path d="M48.0499 60.4798C48.2758 60.002 48.6802 59.9128 48.9534 60.065C48.9009 60.0808 48.8483 60.0965 48.801 60.1175C48.5489 60.2277 48.344 60.4377 48.239 60.695C48.1812 60.737 48.1234 60.7842 48.0656 60.8262C48.0289 60.8577 47.9921 60.8893 47.9605 60.9208C47.95 60.7895 47.9711 60.6373 48.0446 60.4745L48.0499 60.4798Z" fill="#050505"/>
<path d="M44.5192 62.98C43.6153 61.7767 46.8313 60.7414 47.5618 60.1108C48.2502 59.7115 48.8808 59.2017 49.6007 58.8707C50.699 58.4871 50.7989 60.2527 49.9108 60.5365C48.3606 61.3037 46.7841 62.2391 45.2444 62.938C45.0973 63.0851 44.8397 63.1534 44.6453 63.0693C44.598 63.0483 44.556 63.0168 44.5192 62.98Z" fill="#050505"/>
<path d="M45.5546 15.4391C46.0486 15.0923 45.7175 13.9993 45.0659 14.3146C43.5892 15.6178 45.5126 18.1349 46.3113 19.3908C46.1116 18.1033 45.5441 16.7633 45.5599 15.4391H45.5546ZM60.4315 24.4828C57.4466 24.7192 54.3409 25.1869 51.2983 24.9505C50.2473 24.8454 49.2068 24.6404 48.1821 24.3672C46.8526 24.1202 45.6124 23.0955 44.2198 23.4844C44.945 25.1396 47.0155 25.3866 48.5815 25.7913C49.5379 25.9909 50.4943 26.075 51.4507 26.075C54.4828 26.075 57.5044 25.229 60.4315 24.488V24.4828ZM74.5989 20.3104C74.415 18.797 73.4375 17.0313 71.798 16.7844C72.1921 12.5226 68.9445 9.96351 64.8509 10.6309C63.6685 8.43433 62.1656 5.73332 59.4646 5.31819C58.7078 5.20784 57.2627 5.40753 57.6043 6.47953C57.7146 6.7738 58.0247 6.97349 58.3295 6.80533C60.6942 6.05914 62.3075 8.68131 63.3638 10.3944C63.7369 10.8989 63.8262 11.6451 64.3885 11.9814C64.7563 12.1548 65.1662 12.0339 65.5603 12.0077C66.6061 11.9288 67.5677 12.0812 68.5452 12.5279C70.169 13.211 70.8836 15.2394 70.5053 16.879C70.2215 17.2731 70.0744 17.8248 70.437 18.2189C70.6524 18.4659 70.9257 18.4134 71.1937 18.3346C72.602 18.1086 73.7844 19.2752 74.5937 20.3156L74.5989 20.3104ZM75.3451 14.6666C78.6137 16.9788 80.185 18.2662 77.9516 22.2337C77.1371 23.8312 75.3346 24.1465 73.7266 24.3829C72.7754 24.5143 72.2342 25.292 71.5143 25.8228C70.4055 26.632 69.0076 26.7161 67.6939 26.8948C66.0701 27.0682 64.914 28.2926 63.5477 29.0493C62.1972 29.8533 60.8046 30.4103 59.2123 30.5679C57.7725 30.6993 56.2695 30.6152 54.94 30.0004C54.4355 29.7482 53.9941 29.3436 53.4161 29.27C51.6714 29.4644 49.9005 29.9741 48.1138 29.4434C46.4848 29.0545 45.2656 27.9247 44.5456 26.4481C43.7364 25.7387 42.7169 25.2868 41.976 24.4775C41.3086 23.7786 40.3995 23.0272 40.4152 21.9762C40.6202 20.5942 41.9918 19.7008 42.2913 18.3503C42.2545 14.6719 42.9849 10.9462 46.9629 9.67974C47.0575 9.78484 47.1574 9.87943 47.2625 9.97401C47.2835 9.89519 47.2625 9.77959 47.2625 9.685C47.9772 9.63771 48.0139 8.48164 47.4254 8.2189C48.1611 5.57043 50.0161 2.20729 53.2006 2.52258C54.5774 2.63819 55.9017 3.32657 57.2995 3.10061C58.0772 2.94296 58.8655 2.78009 59.659 2.70126C62.5019 2.25985 64.6145 4.48266 66.9739 5.61246C70.3214 6.30085 74.8091 8.89151 74.0891 12.8695C73.9683 13.7418 74.6935 14.262 75.3556 14.6561L75.3451 14.6666Z" fill="white"/>
</svg>
