<svg width="127" height="118" viewBox="0 0 127 118" fill="none" xmlns="http://www.w3.org/2000/svg">
<path d="M32.8954 10.8448C34.0252 10.9709 34.3511 12.8731 33.1739 13.1779C32.1492 13.2778 31.1403 12.7891 30.2049 12.4265C27.9978 11.4596 25.838 10.4033 23.757 9.17371C19.0958 6.53575 14.7185 3.41436 10.3516 0.324485V0.313965C16.0427 2.85208 21.6603 5.54257 27.2358 8.3119C29.1171 9.15268 30.9511 10.1354 32.8902 10.8448H32.8954Z" fill="#050505"/>
<path d="M29.0592 24.2914C22.748 24.943 16.3842 24.0077 10.2464 22.5311C7.04087 21.7691 3.82482 20.8337 0.713867 19.809C5.3908 19.6986 10.1466 19.7775 14.7867 20.1821C19.8 20.5657 24.787 21.3329 29.8212 21.4065C30.8039 21.3487 31.5816 22.4207 31.1139 23.3246C30.7408 24.0707 29.7739 24.1653 29.0592 24.2862V24.2914Z" fill="#050505"/>
<path d="M32.0758 39.1321C32.8588 39.6155 32.9902 41.1763 31.9339 41.3812C23.3263 44.2609 14.2299 46.3208 5.12305 45.4695C12.0491 42.3166 19.4481 40.6718 26.9154 39.4211C28.5655 39.2582 30.5414 38.2283 32.0758 39.1321Z" fill="#050505"/>
<path d="M33.4465 51.4968C34.3714 51.3812 35.0282 52.6161 34.5658 53.3728C33.3099 55.0544 31.6966 56.4627 30.283 58.0234C28.0759 60.2988 25.9529 62.6424 23.6249 64.7969C20.2197 67.9604 16.3993 70.7613 12.7051 73.4623C17.382 65.1333 24.3344 58.3492 31.6966 52.3744C32.2221 52.0013 32.7791 51.5441 33.4465 51.4968Z" fill="#050505"/>
<path d="M115.121 103.173C111.873 98.5802 108.998 93.7247 105.525 89.2948C103.344 86.6464 100.927 84.1608 98.3046 81.9222C95.8925 81.5544 94.1794 79.4471 92.4085 77.5449C92.2718 77.4555 92.1352 77.3714 91.9933 77.2821C91.946 77.2663 91.904 77.2611 91.862 77.2664C91.862 77.34 91.8567 77.4135 91.8514 77.4871L91.8252 77.2717C91.6097 77.3084 91.41 77.5081 91.1841 77.4713C90.9055 77.424 90.7111 77.0194 90.874 76.7777C90.9318 76.6936 91.0002 76.6463 91.079 76.6043C90.7427 76 90.8583 74.8333 90.8057 74.2763C90.7479 72.2006 90.9791 70.1302 91.2734 68.0808C91.3207 67.7813 91.3628 67.4765 91.41 67.1717C91.4206 66.4045 91.4363 65.6425 91.4573 64.8753C91.3627 64.3393 91.3732 63.7876 91.5151 63.2568C91.5361 62.642 91.5624 62.0219 91.5887 61.4071C91.6097 61.2127 91.7096 61.034 91.9092 60.9604C92.0669 60.9237 92.1878 60.9605 92.2771 61.0445C92.2929 61.0183 92.3034 60.9867 92.3244 60.9604C91.3838 60.7292 90.4641 60.4139 89.6076 59.9567C89.1399 59.7413 88.6774 59.405 88.2623 59.0004C88.01 58.9058 87.7789 58.7587 87.5949 58.5485C87.4741 58.3961 87.4005 58.1859 87.4478 57.9967C86.607 56.6672 86.3968 55.0434 87.7841 53.9767C89.224 53.1201 91.0212 53.6036 92.6082 53.6141C92.7921 53.6404 93.018 53.6667 93.286 53.6877C93.2072 53.1254 93.181 52.5684 93.2703 52.1007C92.9497 51.6645 92.6344 51.2284 92.3086 50.8237C90.7847 48.911 89.0978 47.1348 87.0904 45.716C86.7331 45.7002 86.4441 45.3482 86.3758 45.0119C86.3442 44.933 86.318 44.8542 86.3074 44.7806C81.2732 45.8789 76.3125 47.2977 71.5094 49.221C68.1042 50.6346 64.72 52.211 61.6038 54.1764C61.4882 54.4969 61.278 54.7649 60.9049 54.7965C60.7998 54.8333 60.6999 54.8437 60.6053 54.8227C58.7083 56.0891 56.9163 57.5185 55.2978 59.158C54.6619 59.8359 54.0471 60.5558 53.5952 61.3756C53.5164 61.549 53.4165 61.7381 53.2168 61.7907C52.8437 62.8522 52.3865 63.8822 51.8032 64.8386C51.2725 65.7109 50.6419 66.5254 49.8116 67.1297C49.5278 67.3346 49.223 67.5028 48.9078 67.6236C48.2299 67.8864 47.4836 67.9494 46.7584 67.7813C45.6181 67.5185 44.6985 66.8091 43.8735 66.0051C43.4793 65.6215 43.1378 65.1748 42.8067 64.7334C42.4809 64.3025 42.1971 63.8454 41.9134 63.3882C41.3353 62.4476 40.8518 61.4439 40.4104 60.4297C39.9743 59.4313 39.5959 58.4118 39.2386 57.3871C38.5449 55.3692 38.0089 53.2988 37.5412 51.2179C37.0788 49.1632 36.7162 47.0823 36.4219 45.0013C35.8281 40.7659 35.5128 36.4884 35.5023 32.211C35.4918 27.8757 35.7282 23.5193 36.5165 19.2524C36.8843 17.2345 37.3941 15.2429 38.1035 13.3196C38.4556 12.3632 38.8655 11.4121 39.3857 10.5345C39.9165 9.64119 40.5313 8.78461 41.3458 8.133C42.1551 7.4919 43.164 7.10306 44.2045 7.23443C45.203 7.36055 46.1279 7.88079 46.8636 8.54816C48.4453 9.96698 49.5278 11.843 50.4212 13.74C50.5683 14.05 50.7102 14.3705 50.8416 14.6858C50.9835 14.6753 51.1201 14.6963 51.2515 14.7542C51.6876 14.9801 51.9188 15.6948 51.551 16.0626C64.0106 24.9381 84.5838 29.8567 99.6814 32.2161C103.15 32.6681 106.618 33.12 110.107 33.4195C111.274 33.5299 112.446 33.6087 113.612 33.7033C113.912 33.7138 114.317 33.7243 114.663 33.8084C114.606 33.6297 114.6 33.43 114.663 33.2671C114.437 32.9361 114.364 32.4894 114.511 32.1216C114.679 31.6329 115.278 31.4857 115.688 31.7853C115.741 31.8221 115.788 31.8588 115.83 31.8956C116.129 31.9639 116.345 32.2477 116.429 32.563C117.433 34.1027 116.981 36.4516 116.839 38.1858C116.718 38.8847 116.387 40.7817 115.762 41.5909C115.62 42.458 115.289 43.1884 114.527 43.3093C113.607 43.2725 113.118 42.2163 113.197 41.3965C113.208 41.2441 113.255 41.1075 113.334 40.9866C112.919 41.0234 112.498 41.0601 112.078 41.0917C111.899 41.6645 111.615 42.2163 111.416 42.7838C110.433 45.2904 109.44 47.9283 108.809 50.561C109.75 50.4296 110.874 50.9709 111.368 51.7539C111.689 52.2163 111.904 52.7208 112.062 53.2568C113.003 57.0666 112.824 61.0603 113.024 64.9594C113.108 66.8722 113.213 68.7797 113.402 70.682C113.434 71.2495 113.665 72.3163 113.565 73.1255C113.844 73.3725 114.117 73.63 114.401 73.8717C116.061 75.4219 117.753 76.9616 119.472 78.4802C119.43 79.1161 119.393 79.7572 119.361 80.393C117.191 78.3173 115.068 76.1996 112.882 74.1502C112.808 74.1765 112.724 74.187 112.635 74.1922C112.23 74.0661 111.983 73.7718 111.831 73.4145C111.663 73.3777 111.516 73.2411 111.437 73.094C111.258 72.7787 111.368 72.4792 111.594 72.3057C111.584 72.1744 111.573 72.0483 111.568 71.9274C111.395 69.9936 111.337 68.0441 111.321 66.0997C111.295 63.3777 111.353 60.6451 111.274 57.9178C111.074 56.1837 111.411 52.5106 109.372 52.0113C109.524 52.2005 109.624 52.4685 109.634 52.7313C110.149 52.6682 110.685 52.8469 110.643 53.4197C110.501 54.7229 108.878 55.0224 107.884 55.5059C104.71 56.5674 101.41 56.3571 98.1206 56.1522C96.707 56.0629 95.2935 55.9788 93.8904 55.9893C93.8799 56.0209 93.8694 56.0524 93.8536 56.0839C93.8536 56.0839 93.8536 56.0839 93.8483 56.0839C93.8378 56.0576 93.8326 56.0261 93.8221 55.9945C93.7327 55.9945 93.6487 55.9945 93.5593 55.9945C93.9324 57.4081 92.976 58.3698 91.7779 58.8374C93.2125 59.2946 94.7312 59.4733 96.2183 59.673C100.075 60.0671 103.959 60.3509 107.837 60.3403C108.941 60.3298 109.004 61.8485 108.163 62.169C108.047 62.2163 107.916 62.2321 107.769 62.2269C106.87 62.2269 105.972 62.2164 105.078 62.1953C105.173 62.2426 105.267 62.2899 105.357 62.3425C108.352 64.0766 108.772 68.3015 104.663 68.7219C100.732 69.2737 95.7822 69.7676 92.5609 66.9878C92.5031 66.9352 92.4505 66.8827 92.398 66.8249C92.3927 66.9668 92.3875 67.1086 92.3822 67.2453C92.4558 67.2453 92.5346 67.2663 92.6187 67.3083C92.9182 67.487 93.1232 67.8286 92.9813 68.1754C94.5052 70.7608 97.5531 72.2269 100.485 71.9642C101.789 71.8433 103.297 71.507 104.075 70.3562C104.206 69.9358 104.19 69.4681 104.411 69.0635C104.637 68.4697 105.357 68.9899 105.499 69.3893C106.098 71.197 104.821 72.5159 103.213 73.2201C105.141 74.2816 105.173 77.0982 103.223 78.4224C103.57 78.475 103.77 78.8376 103.801 79.1529C103.843 80.5349 102.093 81.2496 100.979 81.6227C100.743 81.7067 100.517 81.7698 100.296 81.8223C101.678 82.9469 103.008 84.1398 104.274 85.401C108.82 90.02 112.278 95.5429 116.056 100.782C117.328 102.584 118.657 104.35 120.029 106.079C120.018 106.294 120.002 106.51 119.992 106.725C119.913 107.235 119.992 107.792 120.029 108.296C120.065 108.838 120.102 109.384 120.15 109.925C118.389 107.734 116.697 105.485 115.105 103.168L115.121 103.173ZM91.9671 74.9542C91.9723 75.1224 91.9776 75.2905 91.9881 75.4639C92.5188 75.5795 92.9445 76.2417 93.3334 76.5727C93.5383 76.7882 93.7485 77.0141 93.9587 77.2296C94.852 77.7761 95.6981 78.4382 96.5652 79.0005C97.0802 79.3578 97.5846 79.7257 98.0891 80.0988C98.1574 80.1146 98.231 80.125 98.3046 80.1355C99.6919 80.2091 101.195 79.878 102.298 79.0057C102.34 78.9637 102.382 78.9164 102.424 78.8691C101.694 79.1739 100.885 79.3105 100.102 79.3315C96.8857 79.2317 93.6854 77.2822 92.3402 74.3184C92.2456 74.0924 92.1405 73.8507 92.0459 73.6089C92.0196 74.0609 91.9934 74.5076 91.9671 74.9595V74.9542ZM92.5924 71.0078C93.1494 71.0446 93.202 71.9274 92.7816 72.1586C93.6539 75.7319 97.695 78.1281 101.242 77.4135C103.985 76.7461 103.433 75.3116 102.608 73.4619C101.888 73.6983 101.148 73.8139 100.506 73.8034C97.3429 73.9663 93.7853 72.2427 92.2981 69.3841C92.2719 69.9411 92.2351 70.4928 92.2035 71.0498C92.2823 71.013 92.3717 70.9973 92.461 70.9973C92.5083 70.9973 92.5504 70.9973 92.5976 71.0131L92.5924 71.0078ZM92.7606 63.0624C92.6975 63.2306 92.6239 63.3987 92.5451 63.5669C92.3454 64.3288 92.6292 65.1959 93.202 65.7371C95.2462 67.529 98.1942 67.5185 100.743 67.4607C102.151 67.3609 103.56 67.2243 104.942 66.9142C105.42 66.7723 105.982 66.6462 106.287 66.2259C106.366 64.4024 104.038 63.3567 102.819 62.3372C102.713 62.2637 102.608 62.1848 102.503 62.1112C100.149 61.9956 97.7948 61.8012 95.4564 61.5122C94.7732 61.4176 94.0796 61.323 93.3912 61.1969C93.3964 61.4071 93.3229 61.6278 93.2388 61.8328C93.7012 62.2111 93.512 63.3094 92.7973 63.0099C92.7868 63.0309 92.7711 63.0466 92.7606 63.0677V63.0624ZM40.5786 12.9623C40.195 13.8714 39.8849 14.8015 39.6117 15.7526C39.1125 17.5971 38.7656 19.4731 38.4976 21.3648C38.0772 24.4863 37.8775 27.6234 37.825 30.7711C37.7934 34.7122 37.9984 38.6429 38.4083 42.4212C38.7761 45.6424 39.3016 48.8321 40.0216 51.9903C40.484 53.9504 41.0358 55.8842 41.7032 57.7865C42.0973 58.8637 42.5334 59.9252 43.0379 60.9604C43.3532 61.5753 43.6843 62.1743 44.0521 62.7628C44.3096 63.1464 44.5829 63.5143 44.8719 63.8769C45.0611 64.0923 45.2555 64.2973 45.4605 64.4917C45.6076 64.6231 45.76 64.7439 45.9177 64.8648C46.0385 64.9436 46.1594 65.0172 46.2907 65.0908C46.3748 65.1328 46.4589 65.1696 46.543 65.2064C46.6534 65.2432 46.7637 65.28 46.8793 65.3063C46.9897 65.3273 47.1 65.3378 47.2104 65.3483C47.3102 65.3483 47.4101 65.343 47.5099 65.3325C47.6413 65.3115 47.7674 65.2852 47.8935 65.2485C48.0144 65.2012 48.1352 65.1433 48.2561 65.0855C48.4138 64.9962 48.5609 64.8911 48.7028 64.7808C48.9077 64.6074 49.0916 64.4234 49.2756 64.2237C49.5278 63.9242 49.7643 63.6037 49.9798 63.2674C50.3108 62.7261 50.5946 62.1638 50.8573 61.5857L50.8678 61.5543C51.2882 60.5874 51.6141 59.5942 51.9188 58.5905C51.9294 58.5537 51.9399 58.5169 51.9504 58.4749C52.0187 58.2857 52.1238 58.1228 52.292 58.0072C52.3393 57.9809 52.3865 57.9494 52.4338 57.9336C52.7859 56.4202 53.0644 54.891 53.2694 53.4564C53.6267 50.6766 53.8054 47.8915 53.8527 45.222C53.8895 41.1968 53.6688 37.1821 53.2431 33.1831C52.8542 29.7937 52.3235 26.4147 51.5615 23.0884C51.0675 20.9864 50.4895 18.9055 49.7643 16.8719C49.3492 15.7368 48.8867 14.628 48.4243 13.6927C48.1037 13.0568 47.7569 12.442 47.368 11.843C47.1316 11.4962 46.8793 11.1598 46.6166 10.8393C46.4169 10.6186 46.2172 10.4084 46.007 10.2035C45.8441 10.0563 45.6759 9.91968 45.5025 9.7883C45.3816 9.70948 45.2608 9.63063 45.1294 9.56232C45.0296 9.51502 44.9297 9.47298 44.8299 9.42568C44.7353 9.39941 44.6407 9.36793 44.5461 9.34165C44.4252 9.32063 44.2991 9.30482 44.173 9.29431C44.0679 9.29431 43.9681 9.29958 43.8682 9.31009C43.7526 9.33111 43.637 9.35739 43.5266 9.38367C43.3742 9.43622 43.2324 9.50452 43.0905 9.57284C42.9276 9.67268 42.7699 9.77777 42.6175 9.89338C42.4126 10.072 42.2234 10.256 42.0447 10.4557C42.008 10.503 41.9659 10.5503 41.9291 10.5976C42.1183 10.6449 42.3022 10.7394 42.4494 10.8235C44.8141 12.5313 46.2224 15.2639 47.552 17.7968C49.2125 21.0706 50.2267 24.6597 50.8573 28.2487C52.2289 35.3428 52.2394 42.6104 51.0833 49.7307C50.3056 54.024 49.1127 58.4118 46.7269 62.1112C46.5693 62.374 46.3223 62.6105 45.9965 62.6158C45.3711 62.642 45.2713 61.8853 45.45 61.4229C45.9492 60.6031 46.5272 59.8201 46.9319 58.9321C47.8357 56.9772 48.5557 54.9436 49.0969 52.8679L48.6713 52.5421C48.4611 52.684 48.1825 52.7155 47.9303 52.5841C46.5587 51.7644 45.3028 50.766 43.9365 49.9357C43.6685 50.0408 43.3427 50.0145 43.0747 49.9357C42.6911 49.8201 42.3443 49.5626 42.0868 49.2578C41.4246 48.459 41.0831 47.4344 40.7941 46.4517C40.4998 45.469 40.3158 44.4549 40.1529 43.4459C39.9848 42.4422 39.8639 41.4333 39.7641 40.4244C39.5801 38.5589 39.4961 36.6828 39.4856 34.8016C39.4751 32.7522 39.5696 30.6975 39.7956 28.6586C39.8534 28.1489 39.927 27.6392 40.0216 27.1347C40.1109 26.6618 40.2002 26.1888 40.3421 25.7316C40.5103 25.1799 40.6995 24.6229 41.0726 24.1657C41.3458 23.8294 41.7452 23.6402 42.1813 23.6769C42.6175 23.7085 42.9591 23.9765 43.2534 24.276C43.3848 24.4126 43.5056 24.5703 43.6107 24.7384C45.0191 24.4126 46.4221 24.0711 47.8515 23.8766C48.088 23.8399 48.3139 23.9029 48.4926 24.0343C47.8357 21.6644 46.9529 19.3627 45.781 17.1924C44.6722 15.2849 43.6265 13.0516 41.7452 11.8219C41.5403 11.8219 41.3774 11.7063 41.2775 11.5487C41.0148 12.0006 40.7783 12.4683 40.5628 12.9518L40.5786 12.9623ZM52.5232 19.3417C53.1433 21.3963 53.632 23.4878 54.0366 25.595C54.8353 29.7464 55.3188 33.9818 55.4712 38.2067C55.6289 42.5263 55.5553 46.8668 55.0771 51.1653C54.8301 53.3566 54.5148 55.5479 53.9998 57.6972C53.9315 57.9967 53.8579 58.2962 53.7791 58.5957C53.8264 58.6903 53.8684 58.7954 53.8947 58.9005C53.9157 58.8795 53.9315 58.8532 53.9525 58.8322C55.8758 56.6934 58.0777 54.87 60.4424 53.2883C61.2254 49.2315 61.4356 45.1012 61.3253 40.9761C61.2202 35.7369 61.0783 27.8388 58.4245 23.2881C58.1197 22.7731 58.3142 22.1058 58.7503 21.9901C58.4403 21.8378 58.1302 21.6801 57.8254 21.5225C57.1108 21.06 54.2678 19.6938 52.1763 18.2434C52.2972 18.6113 52.4076 18.9738 52.5179 19.3417H52.5232ZM88.3674 55.8422C88.3411 56.6882 89.0348 57.3871 89.7442 57.8811C90.9003 57.7602 92.214 57.3924 92.4085 56.3151C92.3507 56.0629 92.2035 55.7844 92.1352 55.5216C91.8987 55.5059 91.6623 55.4901 91.4258 55.4743C91.142 55.4848 90.8425 55.4638 90.5324 55.4481C90.2907 55.4323 90.049 55.4165 89.8125 55.4165C89.2765 55.4165 88.7615 55.4954 88.3674 55.8474V55.8422ZM108.983 41.3755C102.041 42.1479 95.057 42.9939 88.1992 44.3865C90.543 45.6372 92.4663 47.55 94.2688 49.4838C95.4616 50.7187 96.87 52.1795 97.0802 53.9294C99.1874 54.066 101.641 54.2605 103.759 54.602C104.574 54.5232 105.383 54.3866 106.166 54.1764C105.751 53.5405 105.84 52.5894 106.014 51.8432C106.408 49.0319 107.396 46.3413 108.589 43.7769C108.983 42.9519 109.361 42.1164 109.781 41.3019C109.513 41.3229 109.251 41.3492 108.988 41.3755H108.983ZM94.5998 53.777C94.6366 53.777 94.6734 53.7823 94.7154 53.7875C94.6839 53.7612 94.6524 53.7297 94.6208 53.6981C94.6208 53.7244 94.6103 53.7507 94.5998 53.7822V53.777ZM49.4753 51.3965C49.5593 51.0129 49.6382 50.6293 49.7117 50.2405C50.9572 43.057 50.81 35.6476 49.4805 28.4957C49.3229 27.5393 49.1389 26.5934 48.9182 25.6528C48.8131 25.8472 48.645 25.9891 48.4085 26.0259C47.9408 26.11 47.4679 26.1678 46.9949 26.2098C46.9108 26.2466 46.832 26.2781 46.7479 26.3149C46.7374 26.2886 46.7269 26.2624 46.7217 26.2361C45.9334 26.3045 45.1452 26.3412 44.3569 26.3885C44.4042 26.5409 44.4568 26.6933 44.5041 26.8457C44.7721 27.7022 44.9665 28.5798 45.1294 29.4573C45.3449 30.5871 45.5025 31.7274 45.6181 32.873C45.8283 34.502 45.9439 36.1469 46.0227 37.7811C46.1278 39.8673 46.1226 41.9587 45.9755 44.0449C45.9071 45.0276 45.7968 46.0155 45.6023 46.9824C45.5078 47.4606 45.3869 47.9388 45.2187 48.4012C45.1872 48.4853 45.1557 48.5746 45.1189 48.6587C45.2608 48.7218 45.4027 48.8006 45.5393 48.8795C45.5551 48.8006 45.5656 48.7218 45.5761 48.6429C46.8688 49.5626 48.2141 50.4244 49.47 51.3913L49.4753 51.3965ZM87.6685 35.4427C88.0626 37.6865 87.8629 39.9882 87.679 42.2425C87.6422 42.4002 87.6317 42.6261 87.6159 42.8731C90.1646 42.3529 92.7343 41.9167 95.3092 41.5384C100.512 40.7239 105.798 40.0092 111.048 39.5257C111.069 39.5205 111.085 39.51 111.106 39.5047C111.237 39.4627 111.363 39.4574 111.479 39.4837C112.467 39.3944 113.455 39.3156 114.437 39.242C114.606 39.2052 114.753 39.221 114.879 39.284C114.937 39.0738 114.989 38.8741 115.005 38.706C115.184 37.6182 115.278 36.5515 115.283 35.4795C115.178 35.5846 115.031 35.6161 114.853 35.5005C114.684 35.3691 114.532 35.201 114.437 35.0118C105.005 34.5546 95.635 33.3407 86.4441 31.2493C87.1377 32.2687 87.5634 34.8541 87.6737 35.4427H87.6685Z" fill="#050505"/>
<path d="M126.371 117.13C126.256 117.004 126.14 116.878 126.024 116.752C126.14 116.763 126.256 116.768 126.371 116.757C126.544 116.747 126.713 116.71 126.875 116.652C126.875 116.999 126.875 117.345 126.875 117.692C126.707 117.508 126.539 117.319 126.366 117.135L126.371 117.13Z" fill="#050505"/>
</svg>
