<svg width="131" height="122" viewBox="0 0 131 122" fill="none" xmlns="http://www.w3.org/2000/svg">
<path d="M34.3257 11.5919C35.4789 11.725 35.8026 13.6784 34.5942 13.9805C33.5498 14.0738 32.5196 13.569 31.5672 13.196C29.3178 12.1958 27.1162 11.1016 24.9995 9.83474C20.2587 7.10905 15.8041 3.89725 11.3598 0.706488C11.3598 0.706488 11.3599 0.69074 11.3599 0.695986C17.1557 3.32326 22.8771 6.10743 28.5613 8.97534C30.4758 9.84749 32.3474 10.8611 34.3204 11.5972L34.3257 11.5919Z" fill="black"/>
<path d="M30.3226 25.3066C23.872 25.9331 17.3737 24.9383 11.1148 23.3889C7.84134 22.587 4.56363 21.6173 1.39668 20.5485C6.17587 20.4626 11.0325 20.5765 15.7717 21.0201C20.8939 21.4451 25.9823 22.2582 31.1223 22.3686C32.1297 22.3118 32.9097 23.4183 32.432 24.3334C32.0444 25.0969 31.0577 25.18 30.3278 25.3014L30.3226 25.3066Z" fill="black"/>
<path d="M33.3134 40.4914C34.1129 40.9894 34.2342 42.585 33.1523 42.7882C24.3431 45.6769 15.0302 47.7231 5.7356 46.795C12.8314 43.6177 20.4002 41.9804 28.04 40.7527C29.7248 40.5952 31.7508 39.5532 33.3134 40.4914Z" fill="black"/>
<path d="M34.6307 53.1319C35.5756 53.0224 36.2392 54.2855 35.7676 55.059C34.4719 56.7665 32.816 58.199 31.3637 59.7848C29.0939 62.0948 26.9076 64.4788 24.5179 66.6674C21.0203 69.8774 17.1002 72.7123 13.3117 75.4536C18.1427 66.9743 25.2876 60.0831 32.847 54.0286C33.3896 53.6489 33.959 53.1855 34.6412 53.1425L34.6307 53.1319Z" fill="black"/>
<path d="M117.748 106.446C114.456 101.73 111.549 96.7548 108.032 92.2058C105.819 89.4852 103.369 86.931 100.703 84.6273C98.2558 84.2345 96.5222 82.0992 94.7403 80.1524C94.6781 80.0209 94.6055 79.8998 94.5065 79.789C94.3815 79.6466 94.2406 79.525 94.0839 79.4192C93.8018 79.2233 93.5092 79.0379 93.2324 78.8369C93.0476 78.1852 93.132 77.2571 93.0878 76.769C93.0432 74.6493 93.2922 72.5367 93.6042 70.4402C93.6533 70.1363 93.7024 69.8218 93.7463 69.5126C93.7616 68.731 93.7821 67.9495 93.8079 67.168C93.7116 66.6218 93.7309 66.0553 93.8758 65.5159C93.9007 64.8865 93.9308 64.2572 93.9609 63.6278C93.9831 63.4286 94.0891 63.2457 94.2889 63.1735C94.4517 63.1377 94.5722 63.1752 94.6661 63.2597C94.682 63.2284 94.6979 63.2022 94.7138 63.1708C93.7554 62.9288 92.8184 62.6031 91.9454 62.1256C91.4694 61.9023 90.9995 61.5531 90.5772 61.1361C90.3155 61.0401 90.0856 60.8865 89.8981 60.6703C89.7732 60.5174 89.7011 60.2965 89.7495 60.1027C88.8976 58.7388 88.6928 57.0798 90.121 55.9974C91.5951 55.1304 93.4279 55.6401 95.0538 55.6606C95.2425 55.688 95.4732 55.7156 95.7458 55.7383C95.6654 55.1607 95.6479 54.594 95.7401 54.1172C95.4124 53.6693 95.0951 53.2214 94.762 52.8102C93.2162 50.8439 91.5016 49.0182 89.4649 47.5577C89.0978 47.5397 88.8063 47.176 88.7402 46.8346C88.7092 46.7557 88.6835 46.6768 88.6735 46.5981C83.5209 47.6889 78.4503 49.1056 73.5285 51.0425C70.0368 52.4637 66.5754 54.0581 63.3791 56.0424C63.2565 56.3669 63.0397 56.6436 62.6618 56.6727C62.5567 56.714 62.4518 56.7187 62.3575 56.6971C60.4087 57.9809 58.5743 59.4279 56.9118 61.0912C56.2571 61.7796 55.6284 62.5102 55.1616 63.3467C55.0766 63.5245 54.9757 63.718 54.7709 63.7639C54.3813 64.8475 53.908 65.8938 53.3092 66.8711C52.7634 67.7596 52.1131 68.5844 51.2596 69.1982C50.9698 69.4062 50.6593 69.5722 50.3333 69.6961C49.6393 69.9593 48.8783 70.0229 48.1345 69.8452C46.9717 69.5705 46.0373 68.8355 45.1978 68.0119C44.7964 67.616 44.453 67.1575 44.12 66.7095C43.7923 66.2668 43.5014 65.7981 43.2158 65.3295C42.629 64.3658 42.1423 63.3346 41.6976 62.2984C41.258 61.2779 40.8763 60.2317 40.5208 59.1803C39.8202 57.1142 39.2929 54.9968 38.8235 52.864C38.3644 50.7628 38.005 48.6359 37.7192 46.5043C37.1374 42.1727 36.8444 37.8009 36.8608 33.4311C36.8776 29.0035 37.1464 24.5513 37.981 20.197C38.3714 18.1377 38.9032 16.1055 39.6392 14.1428C40.0019 13.1692 40.4328 12.2014 40.9629 11.3024C41.5088 10.3929 42.1436 9.52071 42.9817 8.85963C43.8093 8.20897 44.845 7.81666 45.909 7.95437C46.9258 8.08654 47.8667 8.62747 48.6178 9.31408C50.2245 10.7719 51.3194 12.6987 52.2201 14.6453C52.365 14.9662 52.5099 15.2871 52.6443 15.6131C52.6705 15.6133 52.6967 15.6135 52.7177 15.6136C52.7585 15.8027 52.794 15.9971 52.8558 16.1811C52.8868 16.2652 52.9124 16.365 52.9644 16.444C53.0059 16.5125 53.058 16.5652 53.1155 16.6023C53.2032 16.8337 53.312 17.0652 53.5103 17.2238C53.5886 17.2872 53.6776 17.3192 53.772 17.3251C66.4843 26.2902 87.1885 31.3597 102.432 33.8406C105.975 34.3241 109.513 34.8075 113.078 35.1338C114.268 35.2565 115.464 35.3373 116.659 35.4444C116.963 35.4568 117.383 35.4698 117.733 35.5559C117.677 35.372 117.673 35.1674 117.737 34.9999C117.508 34.6575 117.438 34.2007 117.587 33.8291C117.763 33.3318 118.378 33.1835 118.79 33.4903C118.842 33.5273 118.889 33.5643 118.936 33.6066C119.245 33.6767 119.459 33.9718 119.546 34.2923C120.564 35.8724 120.088 38.2669 119.93 40.0391C119.805 40.7518 119.452 42.6906 118.807 43.5155C118.66 44.4012 118.314 45.144 117.537 45.2651C116.593 45.2226 116.107 44.1389 116.191 43.3001C116.202 43.148 116.25 43.0066 116.33 42.8812C115.905 42.9153 115.474 42.9494 115.049 42.9835C114.862 43.5699 114.57 44.1294 114.362 44.7052C113.339 47.2642 112.31 49.9491 111.648 52.631C112.609 52.5005 113.754 53.0637 114.258 53.8642C114.581 54.3383 114.798 54.8537 114.962 55.4056C115.898 59.3039 115.689 63.3841 115.869 67.3669C115.941 69.3189 116.034 71.271 116.221 73.2184C116.249 73.7957 116.484 74.8883 116.374 75.7165C116.656 75.97 116.937 76.2341 117.224 76.4876C118.909 78.0823 120.63 79.6667 122.377 81.2251C122.332 81.8753 122.291 82.5308 122.255 83.1811C120.123 81.1168 118.027 79.0055 115.878 76.962C115.779 76.846 115.68 76.7299 115.576 76.6191C115.394 76.4239 115.211 76.2339 115.034 76.0387C114.961 75.9544 114.888 75.87 114.816 75.7803C114.78 75.67 114.743 75.5596 114.707 75.4492C114.635 75.2232 114.553 75.0023 114.47 74.7762C114.424 74.6395 114.378 74.5028 114.331 74.3661C114.175 72.4241 114.13 70.4723 114.126 68.5208C114.117 65.7351 114.192 62.9499 114.125 60.1586C113.937 58.3843 114.295 54.6356 112.216 54.1139C112.367 54.3089 112.476 54.5824 112.479 54.85C113.004 54.7903 113.554 54.9772 113.503 55.5592C113.348 56.8908 111.694 57.1848 110.673 57.6717C107.425 58.7323 104.053 58.5017 100.698 58.2712C99.2558 58.1731 97.8086 58.075 96.3766 58.0767C96.3659 58.1081 96.3552 58.1395 96.3393 58.1708C96.3393 58.1708 96.3393 58.1708 96.334 58.1708C96.3237 58.1445 96.3187 58.1131 96.3084 58.0815C96.2192 58.081 96.13 58.0804 96.0408 58.0799C96.4149 59.5248 95.4279 60.505 94.2028 60.9748C95.6634 61.4507 97.2201 61.6439 98.7347 61.8578C102.677 62.2861 106.635 62.5991 110.601 62.613C111.728 62.6095 111.782 64.1573 110.925 64.4826C110.809 64.5291 110.673 64.5493 110.521 64.5431C109.603 64.5374 108.685 64.5212 107.767 64.4946C107.861 64.5424 107.955 64.5955 108.049 64.6432C111.096 66.4352 111.5 70.7551 107.296 71.1594C103.39 71.6809 98.4982 72.1439 95.2253 69.5479C95.1941 69.4953 95.1524 69.4583 95.0948 69.4422C95.0426 69.3999 94.9956 69.3576 94.9435 69.3153C94.8861 69.2625 94.8287 69.2045 94.7766 69.1465C94.7705 69.2881 94.7644 69.4349 94.7583 69.5765C94.7897 69.5767 94.8265 69.5769 94.8631 69.5876C94.8577 69.6191 94.8574 69.6611 94.8729 69.6927C94.8936 69.74 94.9143 69.7873 94.9402 69.8399C94.9867 69.9504 95.0227 70.0713 95.0587 70.1869C95.1205 70.3761 95.2034 70.5498 95.3073 70.713C95.3697 70.8026 95.4321 70.8869 95.4998 70.966C95.5727 71.0557 95.6456 71.1453 95.7343 71.2193C95.8022 71.2722 95.87 71.325 95.9431 71.3727C97.6034 73.4971 100.35 74.6734 103.016 74.4485C104.349 74.3361 105.888 73.9993 106.693 72.8292C106.832 72.3999 106.819 71.9224 107.042 71.5146C107.276 70.9075 108.007 71.4471 108.146 71.8572C108.749 73.7075 107.434 75.0476 105.788 75.7561C107.754 76.8489 107.767 79.7343 105.766 81.0755C106.122 81.1301 106.319 81.4986 106.354 81.8293C106.387 83.2407 104.594 83.9588 103.459 84.3348C103.217 84.4172 102.986 84.4788 102.76 84.5298C104.164 85.6874 105.515 86.918 106.802 88.2112C111.421 92.9611 114.916 98.6275 118.744 104.002C120.033 105.851 121.375 107.664 122.765 109.435C122.753 109.656 122.736 109.876 122.719 110.096C122.637 110.615 122.712 111.182 122.746 111.702C122.779 112.258 122.812 112.814 122.861 113.371C121.076 111.12 119.364 108.811 117.748 106.435L117.748 106.446ZM94.269 77.4688C94.2731 77.6419 94.2773 77.8151 94.2868 77.9882C94.8315 78.1123 95.2628 78.7864 95.6541 79.1298C95.8625 79.3515 96.0761 79.5836 96.2898 79.8052C97.199 80.3721 98.0604 81.049 98.938 81.6315C99.4603 82.0019 99.9773 82.3776 100.489 82.7584C100.562 82.7746 100.636 82.7855 100.709 82.7965C102.125 82.8839 103.664 82.5524 104.797 81.6676C104.839 81.6259 104.887 81.5789 104.929 81.532C104.177 81.8421 103.358 81.9735 102.555 81.9895C99.2723 81.8643 96.0168 79.856 94.6559 76.8207C94.5577 76.5892 94.4543 76.342 94.3614 76.0949C94.3323 76.5564 94.3032 77.0178 94.2742 77.4741L94.269 77.4688ZM95.3932 75.4927C96.6588 78.6586 100.397 80.6909 103.727 80.0347C106.537 79.3701 105.98 77.8977 105.147 76.004C104.411 76.2408 103.65 76.3515 102.994 76.337C99.7618 76.4849 96.1377 74.6999 94.6398 71.7686C94.6049 72.335 94.5699 72.9013 94.5349 73.473C94.6033 73.4419 94.6768 73.4266 94.7503 73.4218C94.8012 73.6635 94.8522 73.9103 94.9032 74.152C94.9336 74.3148 94.9641 74.4776 95.0261 74.6353C95.0829 74.7826 95.1397 74.9246 95.2017 75.0666L95.2018 75.0561C95.2638 75.2034 95.3259 75.3506 95.3984 75.4927L95.3932 75.4927ZM94.9335 65.8319C94.7293 66.6123 95.0071 67.4954 95.5912 68.0551C97.6675 69.8987 100.678 69.9068 103.28 69.8599C104.718 69.7638 106.162 69.6363 107.575 69.3302C108.063 69.1916 108.641 69.064 108.953 68.6358C109.043 66.774 106.674 65.6892 105.432 64.6376C105.327 64.5583 105.218 64.4789 105.108 64.4048C102.701 64.2745 100.3 64.0603 97.91 63.7466C97.2077 63.6478 96.5055 63.5438 95.8034 63.4083C95.8023 63.5867 95.754 63.77 95.6847 63.9532C95.6002 64.0471 95.5261 64.1516 95.4468 64.256C95.3462 64.3918 95.2667 64.5382 95.208 64.6952C95.1494 64.847 95.1117 65.0042 95.0792 65.1613C95.0414 65.3342 95.0089 65.5124 94.992 65.6854C94.9708 65.7325 94.9495 65.7848 94.923 65.8318L94.9335 65.8319ZM42.1592 13.8016C41.76 14.7277 41.4342 15.6804 41.1555 16.644C40.6351 18.5241 40.2666 20.4419 39.9819 22.3707C39.5321 25.5575 39.313 28.7615 39.2355 31.9768C39.1792 36.0054 39.3642 40.0251 39.7601 43.8833C40.1175 47.1748 40.6324 50.441 41.3521 53.6718C41.8118 55.6786 42.3661 57.6597 43.036 59.6049C43.4331 60.709 43.8723 61.7977 44.3799 62.8553C44.6959 63.4867 45.0331 64.1026 45.4071 64.703C45.6669 65.0928 45.9426 65.4775 46.2393 65.8465C46.4268 66.068 46.63 66.2791 46.8386 66.4797C46.9899 66.617 47.1412 66.7439 47.3031 66.8655C47.4285 66.9502 47.5539 67.0245 47.6846 67.0987C47.7682 67.1412 47.8572 67.1785 47.9461 67.2157C48.0613 67.2584 48.1712 67.2905 48.2865 67.3175C48.4017 67.3392 48.5118 67.3504 48.6271 67.3616C48.7268 67.3622 48.8318 67.3576 48.9315 67.3477C49.0627 67.3275 49.194 67.3021 49.3201 67.2662C49.4464 67.2145 49.5726 67.1628 49.6936 67.1006C49.8515 67.0072 50.0043 66.9032 50.1519 66.7939C50.3628 66.6169 50.5528 66.4291 50.7376 66.2309C51.0017 65.9231 51.2398 65.5993 51.4622 65.2597C51.8013 64.7109 52.0986 64.1357 52.3698 63.5445L52.3805 63.5132C52.8166 62.5296 53.1534 61.5139 53.4691 60.4929C53.4799 60.451 53.4906 60.4143 53.5013 60.3777C53.5707 60.1893 53.6819 60.0221 53.8557 59.9077C53.9031 59.8765 53.9504 59.8506 54.003 59.8352C54.3745 58.2899 54.6674 56.7284 54.8862 55.2661C55.2656 52.4303 55.4667 49.5829 55.536 46.8554C55.5981 42.7429 55.3978 38.6393 54.9877 34.5501C54.6104 31.0854 54.0914 27.6303 53.336 24.2262C52.8457 22.0775 52.2714 19.9441 51.5393 17.8622C51.1216 16.7002 50.6565 15.5642 50.1903 14.6065C49.8691 13.954 49.5163 13.3223 49.1214 12.7114C48.8824 12.3532 48.6274 12.0106 48.362 11.6785C48.164 11.4517 47.9555 11.2353 47.7418 11.0241C47.5748 10.8762 47.4026 10.7335 47.2251 10.6013C47.0997 10.5165 46.9743 10.4424 46.8488 10.3681C46.7495 10.3203 46.6501 10.2725 46.5455 10.2299C46.4512 10.1978 46.357 10.171 46.2575 10.1441C46.1317 10.1224 46.006 10.1006 45.8748 10.0946C45.7699 10.0939 45.665 10.0985 45.5653 10.1084C45.4445 10.1287 45.3289 10.1541 45.2134 10.1849C45.0557 10.2364 44.9084 10.3037 44.7663 10.3762C44.5979 10.4749 44.4346 10.584 44.2818 10.6985C44.0708 10.8756 43.8808 11.0686 43.6907 11.272C43.6484 11.3189 43.6114 11.3659 43.5744 11.4181C43.7682 11.4665 43.9564 11.5674 44.1028 11.6522C46.5048 13.414 47.9248 16.2136 49.2727 18.8082C50.9515 22.1655 51.9623 25.8387 52.5796 29.5043C53.9354 36.7626 53.9001 44.1856 52.6751 51.4543C51.8508 55.8349 50.6062 60.3126 48.1491 64.0799C47.9848 64.3464 47.7315 64.5862 47.4011 64.5894C46.761 64.6116 46.6661 63.8346 46.8526 63.3689C47.3718 62.5327 47.959 61.7337 48.3841 60.834C49.3196 58.841 50.072 56.7735 50.6358 54.6523L50.2026 54.3139C49.9866 54.4595 49.7032 54.4892 49.447 54.3512C48.0517 53.5032 46.7728 52.4776 45.3828 51.6192C45.1094 51.7224 44.7738 51.6993 44.5016 51.6137C44.1089 51.4959 43.7591 51.2262 43.4988 50.9151C42.8272 50.0926 42.4874 49.0465 42.1946 48.0375C41.9018 47.0337 41.7194 45.9939 41.5579 44.9594C41.3911 43.9354 41.2769 42.9012 41.1783 41.8671C41.0013 39.9565 40.9292 38.0412 40.9305 36.1211C40.9329 34.028 41.0403 31.9303 41.2839 29.8491C41.3448 29.3301 41.4267 28.806 41.5243 28.2925C41.6164 27.8104 41.7138 27.3284 41.8583 26.8624C42.0297 26.2969 42.2325 25.7315 42.613 25.267C42.8984 24.9225 43.3035 24.7362 43.7491 24.7704C44.1948 24.8046 44.5445 25.0795 44.8416 25.3909C44.9771 25.5333 45.0968 25.6967 45.2059 25.8653C46.6452 25.5384 48.0792 25.201 49.5439 25.0107C49.7854 24.9755 50.0158 25.0451 50.1986 25.1773C49.5421 22.7549 48.6544 20.394 47.4669 18.1728C46.3512 16.2144 45.2952 13.9311 43.3779 12.6602C43.1681 12.6589 43.001 12.5373 42.8971 12.374C42.6267 12.834 42.3825 13.3151 42.1592 13.8016ZM54.3248 20.3974C54.9465 22.4996 55.4317 24.643 55.8328 26.7964C56.6196 31.0453 57.0861 35.3709 57.2168 39.6892C57.3522 44.102 57.2462 48.5395 56.7313 52.9272C56.4657 55.1657 56.1267 57.4036 55.5939 59.5932C55.5186 59.897 55.4432 60.206 55.3627 60.5098C55.4145 60.6098 55.4506 60.7149 55.4762 60.82C55.4973 60.7992 55.5132 60.773 55.5343 60.7522C57.5148 58.5768 59.7712 56.7284 62.1993 55.1276C63.0221 50.9883 63.2632 46.7719 63.179 42.5536C63.1019 37.1969 63.01 29.1279 60.3268 24.4634C60.0206 23.9369 60.2241 23.2561 60.6707 23.1382C60.3517 22.9789 60.038 22.8196 59.7295 22.6498C58.9981 22.1732 56.1061 20.7547 53.9803 19.2674C54.0987 19.6406 54.2118 20.0138 54.3248 20.3922L54.3248 20.3974ZM90.7124 57.9159C90.6809 58.776 91.3846 59.4991 92.1106 60.0071C93.2915 59.8885 94.6366 59.5243 94.8427 58.4239C94.7866 58.1665 94.6363 57.8771 94.5698 57.6091C94.3286 57.5919 94.0874 57.5746 93.8462 57.5574C93.5576 57.5661 93.2483 57.5433 92.9337 57.5204C92.6925 57.5031 92.4408 57.4858 92.1996 57.4843C91.6488 57.4809 91.1237 57.5617 90.7177 57.9159L90.7124 57.9159ZM111.863 43.2681C104.767 44.0165 97.6227 44.8328 90.6115 46.2113C93.0007 47.5008 94.9556 49.4749 96.7793 51.4587C97.9885 52.7252 99.4217 54.2291 99.6257 56.0192C101.775 56.1741 104.282 56.3837 106.446 56.7485C107.28 56.6698 108.105 56.5385 108.908 56.3283C108.488 55.6752 108.583 54.7053 108.766 53.9457C109.182 51.0735 110.211 48.3309 111.444 45.7207C111.853 44.8839 112.247 44.0259 112.677 43.1997C112.404 43.219 112.131 43.2488 111.863 43.2681ZM97.0932 55.8463C97.1352 55.8465 97.1719 55.852 97.2086 55.8575C97.1773 55.8258 97.146 55.7941 97.1095 55.7624C97.1093 55.7887 97.0987 55.8148 97.088 55.8463L97.0932 55.8463ZM51.0124 53.128C51.0987 52.7404 51.1851 52.3422 51.261 51.9492C52.5756 44.6181 52.4754 37.0475 51.1619 29.7316C51.0106 28.7549 50.8225 27.7832 50.6028 26.8271C50.4967 27.0258 50.3227 27.1716 50.0812 27.2016C49.5981 27.2825 49.1205 27.3373 48.6376 27.3815C48.5534 27.4177 48.4693 27.4487 48.3851 27.4849C48.3749 27.4534 48.3645 27.4323 48.3594 27.4061C47.5512 27.4745 46.7485 27.5011 45.9404 27.5486C45.9918 27.7063 46.0433 27.8639 46.0896 28.0163C46.3569 28.8941 46.5507 29.7924 46.7131 30.6905C46.9263 31.8459 47.0817 33.0115 47.1951 34.1821C47.3999 35.8463 47.505 37.5257 47.5786 39.1996C47.6756 41.3301 47.6519 43.4703 47.4919 45.5992C47.4175 46.6008 47.2959 47.6073 47.0905 48.5975C46.993 49.0901 46.8642 49.5719 46.6882 50.043C46.6562 50.1319 46.6241 50.2209 46.5817 50.3046C46.7229 50.3737 46.8692 50.4532 47.0104 50.5328C47.0266 50.449 47.0376 50.3756 47.0538 50.2918C48.3698 51.2442 49.7387 52.1287 51.0177 53.1281L51.0124 53.128ZM90.1275 37.0698C90.5173 39.3647 90.2982 41.7135 90.0952 44.0153C90.0575 44.1777 90.0404 44.4032 90.023 44.6601C92.6332 44.1464 95.2586 43.7166 97.8889 43.3499C103.213 42.5486 108.615 41.8579 113.978 41.3926C113.999 41.3875 114.021 41.3771 114.036 41.372C114.168 41.3308 114.299 41.3264 114.419 41.3534C115.432 41.2652 116.44 41.1927 117.447 41.1254C117.615 41.0845 117.773 41.1065 117.898 41.1702C117.962 40.9555 118.011 40.7512 118.028 40.5782C118.218 39.4672 118.325 38.3767 118.331 37.2856C118.226 37.3898 118.068 37.4256 117.891 37.3039C117.718 37.1664 117.567 36.9975 117.469 36.7976C107.836 36.2713 98.271 34.9691 88.8898 32.7813C89.5968 33.8244 90.0106 36.4709 90.1222 37.0749L90.1275 37.0698Z" fill="black"/>
<path d="M129.157 120.775C129.038 120.643 128.923 120.516 128.803 120.384C128.918 120.396 129.039 120.402 129.16 120.392C129.338 120.383 129.511 120.347 129.674 120.285C129.672 120.636 129.67 120.993 129.668 121.345C129.496 121.155 129.324 120.965 129.152 120.77L129.157 120.775Z" fill="black"/>
<path d="M122.731 111.607C122.463 111.558 122.313 111.332 122.256 111.085C122.241 111.022 122.236 110.959 122.231 110.901C122.231 110.88 122.232 110.859 122.232 110.838C122.232 110.828 122.232 110.822 122.232 110.812C122.232 110.791 122.232 110.77 122.232 110.749C122.233 110.555 122.214 110.355 122.209 110.271C122.067 107.716 121.968 105.155 121.884 102.594C121.84 101.272 121.821 99.9448 121.782 98.6226C121.738 97.316 121.678 96.0042 121.628 94.6976C121.588 93.5799 121.548 92.457 121.518 91.3342C121.488 90.2113 121.469 89.0885 121.428 87.9656C121.407 87.2363 121.385 86.5122 121.352 85.8668C121.31 85.0796 121.278 84.2925 121.251 83.5002C121.243 83.1958 121.239 82.8968 121.252 82.5979C121.264 82.2727 121.308 81.953 121.336 81.6279C121.354 81.3342 121.371 81.051 121.53 80.795C121.689 80.5389 122.02 80.5777 122.144 80.7463C122.379 81.0048 122.387 81.414 122.432 81.75C122.478 82.0126 122.528 82.2805 122.553 82.5482C122.583 82.8421 122.597 83.1412 122.61 83.4403C122.638 84.1172 122.655 84.7942 122.661 85.4709C122.675 86.6461 122.72 87.8268 122.76 89.0021C122.8 90.1355 122.856 91.269 122.891 92.4023C122.926 93.5462 122.971 94.6901 123.001 95.834C123.04 97.1877 123.068 98.5413 123.123 99.8951C123.177 101.228 123.232 102.556 123.266 103.888C123.3 105.168 123.334 106.449 123.363 107.729C123.375 108.327 123.403 108.931 123.404 109.529C123.402 109.922 123.399 110.315 123.413 110.709C123.418 110.751 123.423 110.793 123.422 110.83C123.422 110.856 123.422 110.877 123.422 110.898C123.422 110.966 123.411 111.034 123.4 111.102C123.346 111.375 123.108 111.625 122.83 111.623C122.804 111.623 122.772 111.623 122.746 111.612L122.731 111.607Z" fill="black"/>
<path d="M117.378 44.7501C116.789 44.0907 117.507 43.3397 117.763 42.717C118.742 40.4882 119.291 38.1361 118.907 35.7311C118.815 35.4577 118.808 34.8491 118.446 34.8469C117.967 35.1849 118.196 36.2933 117.534 36.3889C117.372 36.3931 117.236 36.2768 117.163 36.1347C116.829 35.1254 117.328 33.2557 118.649 33.4002C120.581 34.0259 120.19 37.8006 120.044 39.426C119.944 40.3172 118.781 46.0597 117.383 44.7501L117.378 44.7501Z" fill="black"/>
<path d="M51.1567 29.7316C52.4702 37.0474 52.5704 44.6181 51.2558 51.9492C51.18 52.3421 51.0989 52.7351 51.0073 53.128C49.7283 52.1286 48.3594 51.2441 47.0434 50.2917C47.0324 50.3703 47.0162 50.4489 47 50.5327C46.8536 50.4531 46.7124 50.3736 46.5712 50.3045C46.6085 50.2156 46.6458 50.1266 46.6778 50.0429C46.8538 49.5718 46.9826 49.09 47.0801 48.5974C47.2855 47.6125 47.4071 46.6007 47.4815 45.5991C47.6415 43.465 47.6652 41.33 47.5682 39.1995C47.4946 37.5256 47.3895 35.8515 47.1847 34.182C47.0713 33.0114 46.9158 31.8458 46.7027 30.6904C46.5403 29.7923 46.3465 28.894 46.0792 28.0163C46.0329 27.8586 45.9815 27.7009 45.9299 27.5485C46.738 27.5063 47.5408 27.4745 48.349 27.406C48.3593 27.4323 48.3697 27.4586 48.3748 27.4849C48.4589 27.4487 48.543 27.4177 48.6272 27.3815C49.11 27.3372 49.593 27.2825 50.0708 27.2015C50.3123 27.1715 50.4863 27.0205 50.5924 26.827C50.812 27.7884 50.9949 28.7548 51.1515 29.7315L51.1567 29.7316Z" fill="white"/>
<path d="M94.5699 57.6091C94.6365 57.8771 94.7868 58.1665 94.8429 58.4239C94.6368 59.5243 93.297 59.8885 92.1107 60.0071C91.3847 59.499 90.6863 58.776 90.7126 57.9159C91.1187 57.5616 91.6437 57.4809 92.1945 57.4843C92.4358 57.4858 92.6875 57.5031 92.9286 57.5203C93.2432 57.5432 93.5578 57.5661 93.8411 57.5574C94.0823 57.5746 94.3235 57.5919 94.5647 57.6091L94.5699 57.6091Z" fill="white"/>
<path d="M105.432 64.6429C106.669 65.6945 109.043 66.7793 108.953 68.6411C108.641 69.0693 108.063 69.1969 107.575 69.3355C106.162 69.6468 104.724 69.7744 103.281 69.8651C100.673 69.9068 97.6624 69.9039 95.5913 68.0603C95.0125 67.5006 94.7294 66.6175 94.9336 65.8371C94.9549 65.7848 94.9814 65.7326 95.0027 65.6855C95.0195 65.5072 95.0521 65.3291 95.0899 65.1614C95.1223 65.0042 95.16 64.8471 95.2186 64.6953C95.2773 64.5383 95.3569 64.3918 95.4574 64.2561C95.5315 64.1516 95.6108 64.0472 95.6953 63.9533C95.7646 63.7753 95.8182 63.5868 95.8141 63.4084C96.5161 63.5439 97.2184 63.6479 97.9207 63.7466C100.305 64.0604 102.712 64.2746 105.119 64.4048C105.223 64.4842 105.333 64.5636 105.442 64.6377L105.432 64.6429Z" fill="white"/>
<path d="M105.147 76.0092C105.979 77.903 106.537 79.3701 103.726 80.04C100.397 80.691 96.6587 78.6639 95.3931 75.498C95.3205 75.3559 95.2532 75.2086 95.1964 75.0614C95.1343 74.9246 95.0775 74.7826 95.0207 74.6406C94.9587 74.488 94.9283 74.32 94.8978 74.1571C94.8468 73.9155 94.7959 73.6739 94.7449 73.4271C94.6715 73.4319 94.5979 73.4471 94.5295 73.4782C94.5645 72.9118 94.6047 72.3455 94.6345 71.7739C96.1376 74.7052 99.7565 76.4902 102.989 76.3422C103.644 76.3567 104.406 76.2408 105.141 76.0092L105.147 76.0092Z" fill="white"/>
<path d="M104.929 81.532C104.887 81.579 104.844 81.6259 104.797 81.6676C103.664 82.5524 102.125 82.8839 100.709 82.7965C100.636 82.7855 100.562 82.7746 100.489 82.7584C99.9772 82.3723 99.4602 81.9967 98.9379 81.6315C98.055 81.049 97.1989 80.3722 96.2897 79.8052C96.076 79.5836 95.8623 79.3567 95.6539 79.1299C95.2574 78.7864 94.8262 78.1122 94.2866 77.9883C94.2825 77.8099 94.2783 77.642 94.2688 77.4688C94.2979 77.0073 94.327 76.5511 94.356 76.0896C94.4489 76.342 94.5523 76.584 94.6506 76.8154C96.0114 79.8508 99.267 81.8591 102.55 81.9842C103.353 81.9734 104.172 81.8368 104.924 81.5267L104.929 81.532Z" fill="white"/>
<path d="M121.879 102.594C121.945 104.604 122.022 106.614 122.12 108.624C120.959 107.116 119.825 105.577 118.738 104.012C114.911 98.6379 111.416 92.9716 106.797 88.2217C105.51 86.9285 104.159 85.7031 102.755 84.5403C102.981 84.4892 103.217 84.4277 103.454 84.3453C104.589 83.9693 106.382 83.2511 106.349 81.8397C106.319 81.5143 106.117 81.1406 105.761 81.086C107.762 79.7448 107.749 76.8647 105.783 75.7666C107.429 75.058 108.744 73.7232 108.141 71.8676C107.997 71.4575 107.266 70.9179 107.037 71.5251C106.814 71.9329 106.827 72.4156 106.688 72.8397C105.883 74.0098 104.344 74.3466 103.011 74.459C100.345 74.6839 97.5983 73.5076 95.9381 71.3832C95.8649 71.3355 95.797 71.2826 95.7292 71.2297C95.6405 71.1557 95.5676 71.0661 95.4947 70.9765C95.427 70.8921 95.3646 70.8078 95.3022 70.7235C95.193 70.5602 95.1154 70.3814 95.0536 70.1974C95.0176 70.0817 94.9816 69.9661 94.9351 69.8504C94.9144 69.803 94.8885 69.7556 94.8678 69.7031C94.8523 69.6715 94.8526 69.6295 94.858 69.5981C94.8266 69.5874 94.7899 69.5872 94.7531 69.587C94.7593 69.4401 94.7654 69.2985 94.7716 69.1569C94.8236 69.2149 94.881 69.273 94.9383 69.3258C94.9905 69.3681 95.0375 69.4103 95.0897 69.4526C95.1421 69.4634 95.1891 69.5005 95.2202 69.5531C98.4931 72.1544 103.38 71.6913 107.291 71.1646C111.495 70.7603 111.091 66.4457 108.044 64.6485C107.95 64.5954 107.856 64.5424 107.762 64.4998C108.68 64.5265 109.598 64.5426 110.515 64.5482C110.668 64.5544 110.804 64.5343 110.92 64.4878C111.782 64.1626 111.723 62.6094 110.596 62.6182C106.63 62.599 102.672 62.2861 98.7296 61.8631C97.215 61.6439 95.6583 61.4559 94.1977 60.98C95.4228 60.5102 96.4098 59.53 96.0358 58.0851C96.1249 58.0856 96.2141 58.0862 96.3033 58.0867C96.3136 58.1183 96.3239 58.1498 96.329 58.176C96.329 58.176 96.329 58.176 96.3342 58.1761C96.3449 58.1447 96.3608 58.1133 96.3715 58.0819C97.8035 58.0802 99.2455 58.173 100.693 58.2764C104.054 58.5069 107.425 58.7376 110.668 57.6769C111.689 57.19 113.348 56.896 113.498 55.5645C113.543 54.9772 112.999 54.7902 112.474 54.8551C112.465 54.5875 112.362 54.3141 112.211 54.1191C114.29 54.6408 113.926 58.3895 114.12 60.1638C114.187 62.9499 114.107 65.7403 114.121 68.526C114.125 70.4723 114.17 72.4294 114.326 74.3714C114.372 74.508 114.419 74.6447 114.465 74.7814C114.543 75.0022 114.625 75.2283 114.702 75.4544C114.738 75.5648 114.774 75.6751 114.81 75.7855C114.883 75.8699 114.951 75.9595 115.029 76.044C115.206 76.2444 115.394 76.4344 115.571 76.6244C115.675 76.7352 115.774 76.8512 115.873 76.9672C117.693 78.6991 119.471 80.478 121.27 82.236C121.259 82.3514 121.253 82.4667 121.247 82.5821C121.234 82.8863 121.243 83.1854 121.246 83.4844C121.273 84.2715 121.305 85.0586 121.347 85.851C121.38 86.4965 121.402 87.2206 121.424 87.9499C121.459 89.0728 121.483 90.1956 121.513 91.3184C121.548 92.4413 121.583 93.5641 121.623 94.6818C121.668 95.9883 121.733 97.3002 121.777 98.6068C121.822 99.9291 121.835 101.256 121.879 102.579L121.879 102.594Z" fill="white"/>
<path d="M97.0355 56.6905C96.973 56.6219 96.921 56.5429 96.8848 56.464C96.2308 56.1819 96.7864 55.3985 96.9309 54.943C97.0105 54.7861 97.1895 54.6822 97.3622 54.7463C97.7076 54.8848 97.6102 55.372 97.6924 55.6401C98.1986 56.0734 97.6614 57.2767 97.0303 56.6905L97.0355 56.6905Z" fill="black"/>
<path d="M63.1792 42.5588C63.2686 46.7772 63.0276 50.9935 62.1995 55.1328C59.7714 56.7336 57.5149 58.5821 55.5345 60.7575C55.5134 60.7783 55.4922 60.8044 55.4764 60.8253C55.4508 60.7202 55.4094 60.6151 55.3628 60.5151C55.4434 60.2113 55.5187 59.9023 55.5941 59.5985C56.1321 57.4089 56.4712 55.1657 56.7315 52.9325C57.2516 48.5448 57.3524 44.1072 57.217 39.6945C57.0863 35.3762 56.6199 31.0453 55.833 26.8017C55.4318 24.6483 54.9467 22.5049 54.325 20.4027C54.2119 20.0243 54.0988 19.6511 53.9805 19.2779C56.1062 20.7704 59.0035 22.1837 59.7297 22.6603C60.0434 22.8249 60.3571 22.9895 60.6709 23.1488C60.2243 23.2667 60.0208 23.9474 60.327 24.4739C63.0049 29.1384 63.102 37.2074 63.1792 42.5641L63.1792 42.5588Z" fill="#0ECF95"/>
<path d="M54.9829 34.5501C55.393 38.6445 55.5933 42.7429 55.5312 46.8554C55.462 49.5829 55.2608 52.4303 54.8814 55.2661C54.6625 56.7284 54.3697 58.2899 53.9982 59.8352C53.9456 59.8558 53.8982 59.8818 53.8509 59.9077C53.677 60.0273 53.5658 60.1945 53.4965 60.3829C53.4858 60.4196 53.4751 60.4562 53.4643 60.4981C53.1485 61.5244 52.8118 62.5348 52.3756 63.5184L52.3649 63.5498C52.0938 64.1409 51.8017 64.7162 51.4574 65.2649C51.2349 65.6045 50.9969 65.9335 50.7327 66.2362C50.5479 66.4344 50.3527 66.622 50.147 66.7991C49.9995 66.9084 49.8467 67.0177 49.6888 67.1059C49.5677 67.1681 49.4415 67.2197 49.3153 67.2714C49.1892 67.3073 49.0579 67.3328 48.9266 67.353C48.8217 67.3628 48.722 67.3675 48.6223 67.3668C48.507 67.3556 48.3969 67.3392 48.2816 67.3227C48.1664 67.2958 48.0512 67.2584 47.9413 67.221C47.8524 67.1837 47.7634 67.1465 47.6797 67.104C47.5491 67.0297 47.4237 66.9502 47.2983 66.8708C47.1364 66.7439 46.9851 66.6223 46.8338 66.485C46.6252 66.2843 46.4272 66.0733 46.2345 65.8518C45.9378 65.4827 45.6621 65.1033 45.4022 64.7082C45.0283 64.1079 44.6963 63.492 44.375 62.8605C43.8675 61.7977 43.4284 60.709 43.0313 59.6049C42.3613 57.6597 41.8123 55.6786 41.3473 53.6718C40.6328 50.4411 40.1127 47.1748 39.7553 43.8833C39.3594 40.0251 39.1744 36.0054 39.2307 31.9768C39.3083 28.7615 39.5326 25.5575 39.9771 22.3707C40.2618 20.4419 40.6303 18.5241 41.1507 16.644C41.4294 15.6752 41.7552 14.7277 42.1544 13.8016C42.3777 13.3098 42.6219 12.834 42.8923 12.374C42.9962 12.5373 43.1633 12.6537 43.3731 12.6602C45.2851 13.931 46.3411 16.2144 47.4621 18.1728C48.6496 20.3992 49.5373 22.7549 50.1938 25.1773C50.0058 25.0398 49.7807 24.9755 49.5391 25.0107C48.0745 25.201 46.6351 25.5436 45.2011 25.8653C45.0972 25.6915 44.9724 25.5281 44.8368 25.3909C44.5345 25.0847 44.1899 24.8099 43.7443 24.7704C43.2987 24.7309 42.8936 24.9225 42.6082 25.267C42.2277 25.7263 42.0249 26.2969 41.8535 26.8624C41.709 27.3284 41.6116 27.8157 41.5195 28.2925C41.4219 28.806 41.34 29.3301 41.2791 29.8491C41.0355 31.9302 40.9281 34.028 40.9257 36.1211C40.9244 38.0359 41.0017 39.9565 41.1736 41.8671C41.2668 42.9012 41.3863 43.9354 41.5531 44.9594C41.7146 45.9886 41.897 47.0337 42.1898 48.0375C42.4826 49.0465 42.8224 50.0926 43.494 50.9151C43.7543 51.2315 44.1041 51.4959 44.4968 51.6137C44.769 51.6993 45.1046 51.7224 45.378 51.6192C46.768 52.4776 48.0469 53.5032 49.4422 54.3512C49.7036 54.4892 49.987 54.4595 50.1978 54.3139L50.6311 54.6523C50.062 56.7735 49.3148 58.8463 48.3793 60.834C47.9541 61.7337 47.3617 62.5327 46.8477 63.3689C46.6613 63.8399 46.7562 64.6116 47.3962 64.5894C47.7267 64.5861 47.9853 64.3464 48.1443 64.0799C50.6014 60.3179 51.8459 55.8402 52.6703 51.4543C53.8953 44.1856 53.9306 36.7574 52.5748 29.5042C51.9575 25.8335 50.9468 22.1603 49.2679 18.8082C47.9253 16.2136 46.5 13.414 44.098 11.6522C43.9516 11.5674 43.7634 11.4665 43.5696 11.4181C43.6066 11.3659 43.6489 11.319 43.6859 11.272C43.8708 11.0685 44.066 10.8808 44.277 10.6985C44.4351 10.5788 44.5931 10.4749 44.7615 10.3762C44.9088 10.3037 45.0561 10.2417 45.2086 10.1849C45.3241 10.1541 45.4397 10.1287 45.5605 10.1084C45.6655 10.0986 45.7651 10.0939 45.87 10.0946C45.9959 10.1058 46.1269 10.1224 46.2527 10.1441C46.3469 10.1709 46.4412 10.1978 46.5407 10.2299C46.6453 10.2777 46.7446 10.3203 46.844 10.3681C46.9747 10.4424 47.1002 10.5166 47.2203 10.6012C47.3978 10.7387 47.57 10.8762 47.737 11.0241C47.9508 11.2301 48.154 11.4516 48.3572 11.6785C48.6279 12.0106 48.8776 12.3531 49.1166 12.7114C49.5115 13.3223 49.8643 13.954 50.1855 14.6065C50.6517 15.5642 51.1168 16.7002 51.5345 17.8622C52.2666 19.9441 52.8357 22.0775 53.3312 24.2262C54.0866 27.6303 54.6056 31.0854 54.9829 34.5501Z" fill="#0ECF95"/>
<path d="M117.896 37.2986C118.073 37.4204 118.231 37.3899 118.337 37.2804C118.33 38.3767 118.218 39.4672 118.033 40.573C118.016 40.746 117.963 40.9503 117.904 41.165C117.778 41.1013 117.621 41.0793 117.453 41.1202C116.445 41.1875 115.438 41.2652 114.425 41.3482C114.304 41.3212 114.173 41.3256 114.042 41.3668C114.021 41.3719 114 41.3823 113.984 41.3874C108.62 41.8475 103.218 42.5434 97.8942 43.3447C95.2639 43.7167 92.6333 44.1411 90.0284 44.6549C90.0457 44.4032 90.0628 44.1725 90.1005 44.0101C90.3036 41.7083 90.5226 39.3595 90.1329 37.0645C90.0212 36.4606 89.6073 33.8192 88.9004 32.7709C98.2763 34.9638 107.841 36.2661 117.479 36.7872C117.578 36.9819 117.729 37.156 117.901 37.2934L117.896 37.2986Z" fill="#0ECF95"/>
<path d="M111.863 43.2681C112.131 43.2435 112.404 43.219 112.677 43.1997C112.242 44.0259 111.853 44.8839 111.444 45.7207C110.211 48.3309 109.182 51.0787 108.766 53.9457C108.583 54.7105 108.488 55.6752 108.908 56.3283C108.104 56.5437 107.28 56.675 106.446 56.7485C104.281 56.3837 101.781 56.1742 99.6257 56.0192C99.4217 54.2291 97.9885 52.7252 96.7793 51.4587C94.9504 49.4749 93.0007 47.506 90.6115 46.2113C97.628 44.8329 104.772 44.0166 111.863 43.2681Z" fill="#0ECF95"/>
</svg>
